<svg width="66" height="66" viewBox="0 0 66 66" fill="none" xmlns="http://www.w3.org/2000/svg">
<path d="M59.5806 29.374C58.8064 29.374 58.2903 29.883 58.2903 30.6463V35.6081V43.1145V44.3868C58.2903 45.7863 57.129 46.9313 55.7097 46.9313H53.129C50.9355 46.9313 49.3871 48.5852 49.3871 50.6209V53.1654C49.3871 54.5649 48.2258 55.7099 46.8065 55.7099H40.4839H8.87097C8.09677 55.7099 7.58065 55.201 7.58065 54.4377V30.5191C7.58065 29.7557 7.06452 29.2468 6.29032 29.2468C5.51613 29.2468 5 29.7557 5 30.5191V54.3104C5 56.4733 6.67742 58 8.74194 58H40.4839H46.8065H48.4839C50.1613 58 51.8387 57.3639 52.871 56.0916L58.8065 50.2392C59.9677 49.0941 60.7419 47.4402 60.7419 45.9135V44.2595V42.9873V35.6081V30.5191C60.871 29.7557 60.3548 29.374 59.5806 29.374ZM51.8387 53.9288C51.8387 53.6743 51.9677 53.4198 51.9677 53.0382V50.4936C51.9677 49.7303 52.4839 49.2214 53.2581 49.2214H55.8387C56.0968 49.2214 56.3548 49.2214 56.7419 49.0941L51.8387 53.9288ZM57.129 11.8168H48.2258V9.27226C48.2258 8.50891 47.7097 8 46.9355 8C46.1613 8 45.6452 8.50891 45.6452 9.27226V11.8168H20.3548V9.27226C20.3548 8.50891 19.8387 8 19.0645 8C18.2903 8 17.7742 8.50891 17.7742 9.27226V11.8168H8.87097C6.67742 11.8168 5.12903 13.4707 5.12903 15.5064V25.5573C5.12903 26.3206 5.64516 26.8295 6.41935 26.8295H59.7097C60.4839 26.8295 61 26.3206 61 25.5573V15.5064C60.871 13.4707 59.1935 11.8168 57.129 11.8168ZM58.2903 24.285H7.70968V15.5064C7.70968 14.743 8.22581 14.2341 9 14.2341H17.9032V17.1603C17.129 17.542 16.6129 18.4326 16.6129 19.3232C16.6129 20.7226 17.7742 21.8677 19.1935 21.8677C20.6129 21.8677 21.7742 20.7226 21.7742 19.3232C21.7742 18.4326 21.2581 17.542 20.4839 17.1603V14.2341H45.7742V17.1603C45 17.542 44.4839 18.4326 44.4839 19.3232C44.4839 20.7226 45.6452 21.8677 47.0645 21.8677C48.4839 21.8677 49.6452 20.7226 49.6452 19.3232C49.6452 18.4326 49.129 17.542 48.3548 17.1603V14.2341H57.2581C58.0323 14.2341 58.5484 14.743 58.5484 15.5064L58.2903 24.285ZM27.9677 36.7532C29.3871 36.7532 30.5484 35.6081 30.5484 34.2086C30.5484 32.8092 29.3871 31.6641 27.9677 31.6641C26.5484 31.6641 25.3871 32.8092 25.3871 34.2086C25.3871 35.7354 26.5484 36.7532 27.9677 36.7532ZM38.0323 36.7532C39.4516 36.7532 40.6129 35.6081 40.6129 34.2086C40.6129 32.8092 39.4516 31.6641 38.0323 31.6641C36.6129 31.6641 35.4516 32.8092 35.4516 34.2086C35.5806 35.7354 36.6129 36.7532 38.0323 36.7532ZM48.2258 36.7532C49.6452 36.7532 50.8065 35.6081 50.8065 34.2086C50.8065 32.8092 49.6452 31.6641 48.2258 31.6641C46.8065 31.6641 45.6452 32.8092 45.6452 34.2086C45.6452 35.7354 46.8065 36.7532 48.2258 36.7532ZM17.7742 48.0763C19.1935 48.0763 20.3548 46.9313 20.3548 45.5318C20.3548 44.1323 19.1935 42.9873 17.7742 42.9873C16.3548 42.9873 15.1935 44.1323 15.1935 45.5318C15.1935 46.9313 16.3548 48.0763 17.7742 48.0763ZM27.9677 48.0763C29.3871 48.0763 30.5484 46.9313 30.5484 45.5318C30.5484 44.1323 29.3871 42.9873 27.9677 42.9873C26.5484 42.9873 25.3871 44.1323 25.3871 45.5318C25.3871 46.9313 26.5484 48.0763 27.9677 48.0763ZM38.0323 48.0763C39.4516 48.0763 40.6129 46.9313 40.6129 45.5318C40.6129 44.1323 39.4516 42.9873 38.0323 42.9873C36.6129 42.9873 35.4516 44.1323 35.4516 45.5318C35.4516 46.9313 36.6129 48.0763 38.0323 48.0763Z" fill="url(#paint0_linear_3451_789)"/>
<defs>
<linearGradient id="paint0_linear_3451_789" x1="16.55" y1="58" x2="64.5754" y2="41.166" gradientUnits="userSpaceOnUse">
<stop stop-color="#FE5000"/>
<stop offset="1" stop-color="#FCA92A"/>
</linearGradient>
</defs>
</svg>
