<svg width="66" height="66" viewBox="0 0 66 66" fill="none" xmlns="http://www.w3.org/2000/svg">
<path fill-rule="evenodd" clip-rule="evenodd" d="M53.0467 17.3284H60.1902C60.6388 17.3284 61.0107 17.7028 60.9998 18.1541V40.6735C60.526 40.0009 59.9788 39.3837 59.3698 38.8337V18.9798H52.5106H27.5903H25.7852V39.6881H39.7988C40.2255 39.6881 40.5646 40.0294 40.5646 40.4587C40.5646 40.8881 40.2255 41.2294 39.7988 41.2294H25.7962V46.9211C25.7962 46.9376 25.7934 46.9541 25.7907 46.9706C25.788 46.9872 25.7852 47.0037 25.7852 47.0202H41C41.001 47.5815 41.0441 48.1329 41.1262 48.6716H38.8362L30.347 60.6495C30.0845 61.0238 29.5594 61.1119 29.1984 60.8477L20.1185 54.3193L17.1211 55.7174C16.7054 55.9046 16.2131 55.7174 16.0271 55.3101L12.964 48.6716H5.82047C5.37195 48.6716 5 48.2972 5 47.8459V18.1541C5 17.7028 5.36101 17.3284 5.82047 17.3284H27.1745L35.6637 5.35047C35.9262 4.97616 36.4513 4.88808 36.8123 5.1523L45.8922 11.6807L48.8896 10.2826C49.2944 10.0954 49.7976 10.2826 49.9836 10.6899L53.0467 17.3284ZM51.2307 17.3284L48.8349 12.1321L37.6984 17.3284H51.2307ZM44.1856 12.4844L36.5279 6.99084L29.1984 17.3284H33.8039L44.1856 12.4844ZM24.2537 46.9211V41.2294H24.2646V39.6881V18.9798H19.3418V39.6881V41.2294V46.9211C19.3418 46.9376 19.3391 46.9541 19.3363 46.9706C19.3336 46.9872 19.3309 47.0037 19.3309 47.0202H24.2646C24.2537 46.9872 24.2537 46.9541 24.2537 46.9211ZM6.64094 18.9798V47.0202H17.8103C17.7993 46.9872 17.7993 46.9541 17.7993 46.9211V41.2294H12.8765C12.4499 41.2294 12.1107 40.8881 12.1107 40.4587C12.1107 40.0294 12.4499 39.6881 12.8765 39.6881H17.7993V18.9798H6.64094ZM14.78 48.6716L17.1758 53.8679L28.3123 48.6716H14.78ZM21.8251 53.5266L29.4828 59.0202L36.8123 48.6826H32.2068L21.8251 53.5266ZM46.8111 28.7339H45.378V30.2532H46.8111V31.2661H45.378V32.2239H46.8111V34.3596H48.5615V32.2239H51.7121V31.2661H48.5615V30.2532H50.9244C53.2655 30.2532 54.5782 29.0312 54.5782 26.9725C54.5782 24.9248 53.2655 23.7358 50.9244 23.7358H46.8111V28.7339ZM52.8279 26.9725C52.8279 28.0624 52.2372 28.7339 50.6728 28.7339H48.5615V25.244H50.6728C52.2372 25.244 52.8279 25.8826 52.8279 26.9725Z" fill="url(#paint0_linear_3451_786)"/>
<circle cx="52" cy="47" r="9.25" stroke="url(#paint1_linear_3451_786)" stroke-width="1.5"/>
<path d="M52 41V47H58" stroke="url(#paint2_linear_3451_786)" stroke-width="1.5"/>
<defs>
<linearGradient id="paint0_linear_3451_786" x1="16.55" y1="61" x2="65.6654" y2="45.6285" gradientUnits="userSpaceOnUse">
<stop stop-color="#FE5000"/>
<stop offset="1" stop-color="#FCA92A"/>
</linearGradient>
<linearGradient id="paint1_linear_3451_786" x1="46.125" y1="57" x2="63.6662" y2="51.5102" gradientUnits="userSpaceOnUse">
<stop stop-color="#FE5000"/>
<stop offset="1" stop-color="#FCA92A"/>
</linearGradient>
<linearGradient id="paint2_linear_3451_786" x1="53.2375" y1="47" x2="58.4999" y2="45.3531" gradientUnits="userSpaceOnUse">
<stop stop-color="#FE5000"/>
<stop offset="1" stop-color="#FCA92A"/>
</linearGradient>
</defs>
</svg>
