<svg width="66" height="66" viewBox="0 0 66 66" fill="none" xmlns="http://www.w3.org/2000/svg">
<path d="M37.5702 18.5494V14.6355C37.5702 7.12151 7.86133 7.12151 7.86133 14.6355V37.5284C7.86133 40.4822 12.4851 42.3235 18.0476 42.9782C16.013 43.8907 14.7172 45.1232 14.7172 46.6855V53.5534C14.7172 57.3104 22.1902 59.2766 29.5717 59.2766C36.9533 59.2766 44.4262 57.3103 44.4262 53.5534V50.1005C51.4164 49.9083 58.138 47.9593 58.138 44.3963V23.7927C58.1379 19.0491 46.3012 17.3037 37.5702 18.5494ZM22.7158 11.2853C30.8483 11.2853 35.2849 13.5493 35.2849 14.7132C35.2849 15.8771 30.8482 18.1412 22.7158 18.1412C14.5834 18.1412 10.1467 15.8771 10.1467 14.7132C10.1466 13.5495 14.5833 11.2853 22.7158 11.2853ZM10.1466 17.893C12.9193 19.5618 17.8306 20.4266 22.7157 20.4266C27.6008 20.4266 32.5122 19.5618 35.2849 17.893V19.0285C31.314 19.9092 28.429 21.5174 28.429 23.8545V24.5306C26.6382 24.8179 24.7052 24.9971 22.7158 24.9971C14.5833 24.9971 10.1467 22.733 10.1467 21.5691V17.893H10.1466ZM30.7143 40.7459C30.9317 40.8767 31.158 41.0039 31.4008 41.1247C31.1721 41.1152 30.9438 41.1059 30.7143 41.0999V40.7459ZM10.1466 24.7489C12.9193 26.4176 17.8306 27.2825 22.7157 27.2825C24.6936 27.2825 26.6162 27.1048 28.4289 26.834V32.5291C26.6381 32.8165 24.7051 32.9957 22.7157 32.9957C14.5832 32.9957 10.1466 30.7316 10.1466 29.5677V24.7489ZM10.1466 37.5663V32.7475C12.9193 34.4162 17.8306 35.281 22.7157 35.281C24.6936 35.281 26.6162 35.1034 28.4289 34.8326V40.5277C26.6381 40.815 24.7051 40.9942 22.7157 40.9942C14.5833 40.9942 10.1466 38.7301 10.1466 37.5663ZM42.1408 53.5634C42.1408 54.7273 37.7041 56.9913 29.5717 56.9913C21.4393 56.9913 17.0025 54.7273 17.0025 53.5634V49.8871C19.7752 51.5559 24.6865 52.4207 29.5716 52.4207C34.2477 52.4207 38.9542 51.6303 41.7806 50.0994C41.8993 50.1039 42.0215 50.1045 42.1407 50.1081V53.5634H42.1408ZM29.5717 50.1354C21.4392 50.1354 17.0026 47.8714 17.0026 46.7075C17.0026 45.5436 21.4393 43.2795 29.5717 43.2795C37.7041 43.2795 42.1408 45.5436 42.1408 46.7075C42.1408 47.8714 37.7041 50.1354 29.5717 50.1354ZM55.8526 44.4222C55.8526 45.5281 51.8038 47.6046 44.4261 47.8105V46.7075C44.4261 45.2798 43.3457 44.1259 41.6031 43.2417C42.1618 43.2643 42.7223 43.2795 43.2834 43.2795C48.1685 43.2795 53.0799 42.4147 55.8525 40.7459V44.4222H55.8526ZM55.8526 37.5663C55.8526 38.7302 51.4159 40.9942 43.2835 40.9942C35.1511 40.9942 30.7144 38.7302 30.7144 37.5663V33.89C33.487 35.5588 38.3984 36.4236 43.2835 36.4236C48.1686 36.4236 53.08 35.5588 55.8526 33.89V37.5663ZM55.8526 30.7104C55.8526 31.8743 51.4159 34.1384 43.2835 34.1384C35.1511 34.1384 30.7144 31.8743 30.7144 30.7104V27.0341C33.487 28.7029 38.3984 29.5677 43.2835 29.5677C48.1686 29.5677 53.08 28.7029 55.8526 27.0341V30.7104ZM43.2835 27.2825C35.151 27.2825 30.7144 25.0184 30.7144 23.8545C30.7144 22.6906 35.1511 20.4266 43.2835 20.4266C51.4159 20.4266 55.8526 22.6906 55.8526 23.8545C55.8526 25.0184 51.4159 27.2825 43.2835 27.2825Z" fill="url(#paint0_linear_3451_791)"/>
<defs>
<linearGradient id="paint0_linear_3451_791" x1="18.2309" y1="59.2766" x2="62.3265" y2="45.4761" gradientUnits="userSpaceOnUse">
<stop stop-color="#FE5000"/>
<stop offset="1" stop-color="#FCA92A"/>
</linearGradient>
</defs>
</svg>
