<svg width="30" height="30" viewBox="0 0 30 30" fill="none" xmlns="http://www.w3.org/2000/svg">
<path d="M25.2656 13.176H20.6133L20.7539 13.0479C21.0993 12.7282 21.3764 12.3426 21.5685 11.9141C21.7607 11.4857 21.864 11.0232 21.8723 10.5543C21.8806 10.0853 21.7938 9.61948 21.617 9.18458C21.4402 8.74969 21.177 8.35463 20.8431 8.02297C20.5093 7.69132 20.1117 7.42986 19.6739 7.2542C19.2361 7.07854 18.7673 6.99227 18.2952 7.00054C17.8232 7.00882 17.3576 7.11146 16.9264 7.30236C16.4951 7.49325 16.107 7.76848 15.7852 8.11163C15.4175 8.50476 15.1344 8.96825 14.9531 9.47376C14.7719 8.96825 14.4888 8.50476 14.1211 8.11163C13.4546 7.49469 12.5732 7.15882 11.6624 7.17479C10.7516 7.19075 9.88262 7.5573 9.23849 8.19722C8.59437 8.83713 8.22541 9.70044 8.20934 10.6053C8.19327 11.5101 8.53134 12.3858 9.15234 13.0479L9.29297 13.176H4.64062C4.2055 13.176 3.7882 13.3477 3.48053 13.6534C3.17285 13.959 3 14.3736 3 14.8059V18.5314C3 18.9636 3.17285 19.3782 3.48053 19.6839C3.7882 19.9895 4.2055 20.1613 4.64062 20.1613H4.875V27.8451C4.875 28.2774 5.04785 28.6919 5.35553 28.9976C5.6632 29.3033 6.0805 29.475 6.51562 29.475H23.3906C23.8257 29.475 24.243 29.3033 24.5507 28.9976C24.8584 28.6919 25.0312 28.2774 25.0312 27.8451V20.1613H25.2656C25.7007 20.1613 26.118 19.9895 26.4257 19.6839C26.7334 19.3782 26.9062 18.9636 26.9062 18.5314V14.8059C26.9062 14.3736 26.7334 13.959 26.4257 13.6534C26.118 13.3477 25.7007 13.176 25.2656 13.176ZM16.7813 9.10122C16.9715 8.88537 17.2043 8.71063 17.4653 8.58782C17.7262 8.46501 18.0098 8.39673 18.2984 8.38723C18.587 8.37773 18.8745 8.4272 19.1431 8.53258C19.4117 8.63796 19.6556 8.79701 19.8598 8.99987C20.064 9.20272 20.2241 9.44507 20.3302 9.7119C20.4363 9.97873 20.4861 10.2643 20.4765 10.5511C20.4669 10.8378 20.3982 11.1195 20.2746 11.3788C20.151 11.6381 19.9751 11.8693 19.7578 12.0583C19.0664 12.7452 17.1211 13.0712 15.6797 13.1527C15.7617 11.7207 16.0898 9.7881 16.7813 9.10122ZM10.1484 9.10122C10.5438 8.7102 11.0789 8.49068 11.6367 8.49068C12.1946 8.49068 12.7297 8.7102 13.125 9.10122C13.8164 9.7881 14.1445 11.7207 14.2266 13.1527C12.7852 13.0712 10.8398 12.7452 10.1484 12.0583C9.75485 11.6656 9.53388 11.134 9.53388 10.5798C9.53388 10.0256 9.75485 9.49395 10.1484 9.10122ZM4.40625 18.5314V14.8059C4.40625 14.7441 4.43094 14.6849 4.4749 14.6412C4.51885 14.5976 4.57846 14.573 4.64062 14.573H14.25V18.7642H4.64062C4.57846 18.7642 4.51885 18.7397 4.4749 18.696C4.43094 18.6523 4.40625 18.5931 4.40625 18.5314ZM6.28125 27.8451V20.1613H14.25V28.0779H6.51562C6.45346 28.0779 6.39385 28.0534 6.3499 28.0097C6.30594 27.9661 6.28125 27.9068 6.28125 27.8451ZM23.625 27.8451C23.625 27.9068 23.6003 27.9661 23.5564 28.0097C23.5124 28.0534 23.4528 28.0779 23.3906 28.0779H15.6562V20.1613H23.625V27.8451ZM25.5 18.5314C25.5 18.5931 25.4753 18.6523 25.4314 18.696C25.3874 18.7397 25.3278 18.7642 25.2656 18.7642H15.6562V14.573H25.2656C25.3278 14.573 25.3874 14.5976 25.4314 14.6412C25.4753 14.6849 25.5 14.7441 25.5 14.8059V18.5314Z" fill="url(#paint0_linear_5172_4792)"/>
<path d="M5.89512 6.8953C5.21873 6.7313 4.60041 6.38431 4.10805 5.89194C3.61572 5.39996 3.26872 4.78129 3.10506 4.10488C3.10506 4.04681 3.0579 4 3.00018 4C2.94211 4 2.8953 4.0468 2.8953 4.10488C2.73166 4.78127 2.38431 5.39995 1.89231 5.89194C1.39997 6.38428 0.781649 6.73128 0.104876 6.8953C0.0471609 6.8953 0 6.94211 0 6.99982C0 7.05789 0.0471573 7.1047 0.104876 7.1047C0.781622 7.26834 1.39995 7.61569 1.89231 8.1077C2.38429 8.60003 2.73164 9.21835 2.8953 9.89512C2.8953 9.95284 2.94211 10 3.00018 10C3.05789 10 3.10506 9.95284 3.10506 9.89512C3.2687 9.21838 3.6157 8.60005 4.10805 8.1077C4.60039 7.61571 5.21871 7.26836 5.89512 7.1047C5.95319 7.1047 6 7.0579 6 6.99982C6 6.94211 5.9532 6.8953 5.89512 6.8953Z" fill="url(#paint1_linear_5172_4792)"/>
<path d="M29.9276 6.41178C29.3595 6.27466 28.8398 5.98358 28.4265 5.57008C28.0133 5.15702 27.7217 4.63799 27.5845 4.06964C27.575 4.02898 27.5386 4 27.4962 4C27.4543 4 27.4175 4.02898 27.408 4.06964C27.2712 4.63711 26.9804 5.15613 26.5681 5.5692C26.1557 5.98226 25.6373 6.27378 25.0701 6.41175C25.029 6.42127 25 6.45803 25 6.49999C25 6.54194 25.029 6.57871 25.0701 6.58822C25.6382 6.72534 26.1575 7.01685 26.5707 7.42992C26.9844 7.84298 27.2756 8.36201 27.4128 8.93036C27.4223 8.97102 27.4591 9 27.5011 9C27.5435 9 27.5798 8.97102 27.5893 8.93036C27.7265 8.36203 28.0181 7.843 28.4314 7.42992C28.8446 7.01685 29.3643 6.72534 29.9325 6.58822C29.9731 6.57741 30.0013 6.54022 30 6.49826C29.9991 6.45587 29.9687 6.42043 29.9276 6.41178Z" fill="url(#paint2_linear_5172_4792)"/>
<path d="M24.9308 1.93082C24.4795 1.82128 24.067 1.59014 23.7383 1.26153C23.4102 0.933438 23.1785 0.520966 23.0695 0.0697055C23.0695 0.031445 23.0385 0 23.0003 0C22.962 0 22.9305 0.0314464 22.9305 0.0697055C22.8215 0.520966 22.5898 0.933438 22.2617 1.26153C21.9336 1.59014 21.521 1.82128 21.0697 1.93082C21.0309 1.93082 21 1.96174 21 2C21 2.03826 21.0309 2.06918 21.0697 2.06918C21.521 2.17872 21.9336 2.40986 22.2617 2.73847C22.5898 3.06656 22.8215 3.47903 22.9305 3.93029C22.9305 3.96855 22.962 4 23.0003 4C23.0385 4 23.0695 3.96855 23.0695 3.93029C23.1785 3.47903 23.4102 3.06656 23.7383 2.73847C24.067 2.40986 24.4795 2.17872 24.9308 2.06918C24.9691 2.06918 25 2.03826 25 2C25 1.96174 24.9691 1.93082 24.9308 1.93082Z" fill="url(#paint3_linear_5172_4792)"/>
<defs>
<linearGradient id="paint0_linear_5172_4792" x1="7.93066" y1="29.475" x2="28.6549" y2="22.5759" gradientUnits="userSpaceOnUse">
<stop stop-color="#FE5000"/>
<stop offset="1" stop-color="#FCA92A"/>
</linearGradient>
<linearGradient id="paint1_linear_5172_4792" x1="1.2375" y1="10" x2="6.49986" y2="8.35306" gradientUnits="userSpaceOnUse">
<stop stop-color="#FE5000"/>
<stop offset="1" stop-color="#FCA92A"/>
</linearGradient>
<linearGradient id="paint2_linear_5172_4792" x1="26.0313" y1="9" x2="30.4166" y2="7.62755" gradientUnits="userSpaceOnUse">
<stop stop-color="#FE5000"/>
<stop offset="1" stop-color="#FCA92A"/>
</linearGradient>
<linearGradient id="paint3_linear_5172_4792" x1="21.825" y1="4" x2="25.3332" y2="2.90204" gradientUnits="userSpaceOnUse">
<stop stop-color="#FE5000"/>
<stop offset="1" stop-color="#FCA92A"/>
</linearGradient>
</defs>
</svg>
