<svg width="56" height="56" viewBox="0 0 56 56" fill="none" xmlns="http://www.w3.org/2000/svg">
<path fill-rule="evenodd" clip-rule="evenodd" d="M27.6421 7.04016L31.5745 18.3531C32.123 19.9312 33.5957 21.0012 35.266 21.0352L47.2404 21.2792L37.6964 28.515C36.365 29.5244 35.8025 31.2556 36.2863 32.8547L39.7545 44.3185L29.9236 37.4775C28.5523 36.5232 26.7319 36.5232 25.3606 37.4775L15.5296 44.3185L18.9978 32.8547C19.4816 31.2556 18.9191 29.5244 17.5878 28.515L8.04371 21.2792L20.0181 21.0352C21.6885 21.0012 23.1612 19.9312 23.7097 18.3531L27.6421 7.04016ZM25.7556 6.38442C26.3773 4.59582 28.9068 4.59582 29.5286 6.38442L33.4609 17.6974C33.7352 18.4864 34.4715 19.0214 35.3067 19.0384L47.2811 19.2824C49.1743 19.321 49.956 21.7267 48.447 22.8707L38.903 30.1065C38.2373 30.6112 37.956 31.4768 38.1979 32.2764L41.6662 43.7401C42.2145 45.5526 40.1681 47.0394 38.6138 45.9578L28.7828 39.1168C28.0972 38.6397 27.187 38.6397 26.5013 39.1168L16.6704 45.9578C15.1161 47.0394 13.0697 45.5526 13.618 43.7401L17.0862 32.2764C17.3281 31.4768 17.0469 30.6112 16.3812 30.1065L6.83711 22.8707C5.32817 21.7267 6.10983 19.321 8.00302 19.2824L19.9774 19.0384C20.8126 19.0214 21.549 18.4864 21.8232 17.6974L25.7556 6.38442ZM15.4536 9.63123C14.8153 9.99974 14.5966 10.8159 14.9651 11.4542L15.6324 12.6099C16.0009 13.2482 16.8171 13.4668 17.4553 13.0983C18.0936 12.7298 18.3123 11.9137 17.9438 11.2754L17.2765 10.1197C16.908 9.48141 16.0919 9.26272 15.4536 9.63123ZM9.12218 35.4667C8.60103 35.9879 7.75607 35.9879 7.23492 35.4667C6.71377 34.9456 6.71377 34.1006 7.23492 33.5795L8.17855 32.6358C8.6997 32.1147 9.54465 32.1147 10.0658 32.6358C10.587 33.157 10.587 34.0019 10.0658 34.5231L9.12218 35.4667ZM27.6423 50.3335C28.3793 50.3335 28.9768 49.736 28.9768 48.999V47.6645C28.9768 46.9275 28.3793 46.33 27.6423 46.33C26.9053 46.33 26.3078 46.9275 26.3078 47.6645V48.999C26.3078 49.736 26.9053 50.3335 27.6423 50.3335ZM40.6293 11.4542C40.9978 10.8159 40.7791 9.99974 40.1408 9.63123C39.5026 9.26272 38.6864 9.48141 38.3179 10.1197L37.6506 11.2754C37.2821 11.9137 37.5008 12.7298 38.1391 13.0983C38.7774 13.4668 39.5935 13.2482 39.9621 12.6099L40.6293 11.4542ZM47.4317 33.5795C47.9529 34.1006 47.9529 34.9456 47.4317 35.4667C46.9106 35.9879 46.0656 35.9879 45.5445 35.4667L44.6008 34.5231C44.0797 34.0019 44.0797 33.157 44.6008 32.6358C45.122 32.1147 45.9669 32.1147 46.4881 32.6358L47.4317 33.5795Z" fill="url(#paint0_linear_6064_1235)"/>
<defs>
<linearGradient id="paint0_linear_6064_1235" x1="14.9526" y1="50.3334" x2="53.1476" y2="38.9319" gradientUnits="userSpaceOnUse">
<stop stop-color="#FE5000"/>
<stop offset="1" stop-color="#FCA92A"/>
</linearGradient>
</defs>
</svg>
