<svg width="56" height="56" viewBox="0 0 56 56" fill="none" xmlns="http://www.w3.org/2000/svg">
<path d="M31.635 16.5631V13.449C31.635 7.47077 7.99805 7.47077 7.99805 13.449V31.6631C7.99805 34.0132 11.6768 35.4783 16.1024 35.9991C14.4837 36.7251 13.4527 37.7057 13.4527 38.9487V44.413C13.4527 47.4021 19.3984 48.9664 25.2713 48.9664C31.1442 48.9664 37.0898 47.4021 37.0898 44.413V41.6658C42.6514 41.5129 47.9992 39.9622 47.9992 37.1274V20.7347C47.9991 16.9606 38.5816 15.5719 31.635 16.5631ZM19.8166 10.7836C26.287 10.7836 29.8168 12.5849 29.8168 13.5109C29.8168 14.4369 26.2869 16.2383 19.8166 16.2383C13.3463 16.2383 9.81634 14.4369 9.81634 13.5109C9.81625 12.585 13.3462 10.7836 19.8166 10.7836ZM9.81625 16.0408C12.0223 17.3685 15.9298 18.0565 19.8165 18.0565C23.7032 18.0565 27.6108 17.3685 29.8168 16.0408V16.9442C26.6575 17.6449 24.3621 18.9244 24.3621 20.7839V21.3218C22.9374 21.5504 21.3994 21.693 19.8166 21.693C13.3462 21.693 9.81634 19.8916 9.81634 18.9656V16.0408H9.81625ZM26.1803 34.2231C26.3534 34.3271 26.5334 34.4283 26.7266 34.5244C26.5446 34.5169 26.363 34.5094 26.1803 34.5047V34.2231ZM9.81625 21.4955C12.0223 22.8232 15.9298 23.5112 19.8165 23.5112C21.3902 23.5112 22.9198 23.3699 24.3621 23.1545V27.6856C22.9373 27.9142 21.3993 28.0568 19.8165 28.0568C13.3461 28.0568 9.81625 26.2555 9.81625 25.3294V21.4955ZM9.81625 31.6933V27.8593C12.0223 29.187 15.9298 29.8751 19.8165 29.8751C21.3902 29.8751 22.9198 29.7338 24.3621 29.5183V34.0495C22.9373 34.2781 21.3993 34.4206 19.8165 34.4206C13.3462 34.4206 9.81625 32.6192 9.81625 31.6933ZM35.2715 44.4209C35.2715 45.3469 31.7416 47.1482 25.2713 47.1482C18.801 47.1482 15.2709 45.3469 15.2709 44.4209V41.496C17.4769 42.8237 21.3845 43.5117 25.2712 43.5117C28.9916 43.5117 32.7362 42.8829 34.9849 41.6649C35.0793 41.6685 35.1766 41.6689 35.2715 41.6718V44.4209H35.2715ZM25.2713 41.6935C18.8009 41.6935 15.271 39.8922 15.271 38.9662C15.271 38.0402 18.801 36.2388 25.2713 36.2388C31.7416 36.2388 35.2715 38.0402 35.2715 38.9662C35.2715 39.8922 31.7416 41.6935 25.2713 41.6935ZM46.1809 37.148C46.1809 38.0279 42.9596 39.68 37.0897 39.8438V38.9662C37.0897 37.8303 36.2302 36.9122 34.8437 36.2088C35.2882 36.2267 35.7342 36.2388 36.1806 36.2388C40.0673 36.2388 43.9749 35.5508 46.1808 34.2231V37.148H46.1809ZM46.1809 31.6933C46.1809 32.6193 42.651 34.4206 36.1807 34.4206C29.7104 34.4206 26.1804 32.6193 26.1804 31.6933V28.7684C28.3863 30.0961 32.294 30.7841 36.1807 30.7841C40.0674 30.7841 43.975 30.0961 46.1809 28.7684V31.6933ZM46.1809 26.2386C46.1809 27.1646 42.651 28.9659 36.1807 28.9659C29.7104 28.9659 26.1804 27.1646 26.1804 26.2386V23.3137C28.3863 24.6414 32.294 25.3294 36.1807 25.3294C40.0674 25.3294 43.975 24.6414 46.1809 23.3137V26.2386ZM36.1807 23.5112C29.7103 23.5112 26.1804 21.7099 26.1804 20.7839C26.1804 19.8579 29.7104 18.0565 36.1807 18.0565C42.651 18.0565 46.1809 19.8579 46.1809 20.7839C46.1809 21.7099 42.651 23.5112 36.1807 23.5112Z" fill="url(#paint0_linear_6064_1231)"/>
<defs>
<linearGradient id="paint0_linear_6064_1231" x1="16.2483" y1="48.9664" x2="51.3317" y2="37.9865" gradientUnits="userSpaceOnUse">
<stop stop-color="#FE5000"/>
<stop offset="1" stop-color="#FCA92A"/>
</linearGradient>
</defs>
</svg>
