<svg width="56" height="56" viewBox="0 0 56 56" fill="none" xmlns="http://www.w3.org/2000/svg">
<path d="M46.1194 13H9.75862C7.07427 13 5 15.1514 5 17.6614V38.3386C5 40.9681 7.19629 43 9.75862 43H46.2414C48.9257 43 51 40.8486 51 38.3386V17.7809C51 15.1514 48.8037 13 46.1194 13ZM49.0477 38.3386C49.0477 39.8924 47.7056 41.2072 46.1194 41.2072H9.75862C8.17241 41.2072 6.83024 39.8924 6.83024 38.3386V17.7809C6.83024 16.2271 8.17241 14.9124 9.75862 14.9124H46.2414C47.8276 14.9124 49.1698 16.2271 49.1698 17.7809L49.0477 38.3386ZM50.0239 18.6175H5.85411C5.36605 18.6175 4.99998 19.0956 4.99998 19.5737L5 25.1748C5 25.6529 5.36605 26.1474 5.85411 26.1474H49.9019C50.3899 26.1474 50.878 25.6693 50.878 25.1912V19.5737C51 19.0956 50.5119 18.6175 50.0239 18.6175ZM49.0477 24.3546H6.83024V20.6494H49.0477V24.3546ZM23.1804 31.7649H11.5889C11.1008 31.7649 10.6127 32.243 10.6127 32.7211C10.6127 33.1992 11.1008 33.6773 11.5889 33.6773H23.0584C23.5464 33.6773 24.0345 33.1992 24.0345 32.7211C24.0345 32.243 23.6684 31.7649 23.1804 31.7649ZM23.1804 35.5896H11.5889C11.1008 35.5896 10.6127 36.0677 10.6127 36.5458C10.6127 37.0239 11.1008 37.502 11.5889 37.502H23.0584C23.5464 37.502 24.0345 37.0239 24.0345 36.5458C24.1565 35.9482 23.6684 35.5896 23.1804 35.5896ZM42.3369 29.9721H40.3846C38.7984 29.9721 37.4562 31.2869 37.4562 32.8406V34.753C37.4562 36.3068 38.7984 37.6215 40.3846 37.6215H42.3369C43.9231 37.6215 45.2653 36.3068 45.2653 34.753V32.8406C45.1432 31.1673 43.9231 29.9721 42.3369 29.9721ZM43.313 34.6335C43.313 35.1116 42.8249 35.5896 42.3369 35.5896H40.3846C39.8965 35.5896 39.4085 35.1116 39.4085 34.6335V32.7211C39.4085 32.243 39.8965 31.7649 40.3846 31.7649H42.3369C42.8249 31.7649 43.313 32.243 43.313 32.7211V34.6335Z" fill="url(#paint0_linear_3501_1655)"/>
<defs>
<linearGradient id="paint0_linear_3501_1655" x1="14.4875" y1="43" x2="50.4925" y2="25.7218" gradientUnits="userSpaceOnUse">
<stop stop-color="#FE5000"/>
<stop offset="1" stop-color="#FCA92A"/>
</linearGradient>
</defs>
</svg>
