<svg width="44" height="44" viewBox="0 0 44 44" fill="none" xmlns="http://www.w3.org/2000/svg">
<path d="M23.2862 22.4061C23.2862 27.9907 22.3724 32.4246 20.5447 35.7077C18.7508 38.9569 15.9585 40.5815 12.1678 40.5815C8.34311 40.5815 5.50003 38.94 3.6385 35.6569C1.77696 32.3738 0.846191 27.9569 0.846191 22.4061C0.846191 16.8554 1.76003 12.4384 3.58773 9.15536C5.44927 5.87228 8.27542 4.23074 12.0662 4.23074C15.857 4.23074 18.6662 5.87228 20.4939 9.15536C22.3555 12.4384 23.2862 16.8554 23.2862 22.4061ZM12.1678 38.0938C17.7185 38.0938 20.4939 32.8646 20.4939 22.4061C20.4939 11.9477 17.6847 6.71844 12.0662 6.71844C6.44773 6.71844 3.6385 11.9477 3.6385 22.4061C3.6385 32.8646 6.48157 38.0938 12.1678 38.0938ZM30.7424 30.5191H27.3307V29.2092H30.7424V18.8523C31.5751 18.8523 32.4381 18.8421 33.3317 18.8218C34.2252 18.8015 35.0984 18.7914 35.9514 18.7914C41.008 18.7914 43.5363 20.7511 43.5363 24.6704C43.5363 26.4778 42.8864 27.9095 41.5868 28.9655C40.3074 30.0012 38.4289 30.5191 35.9514 30.5191H32.4178V34.2658H37.9314V35.5757H32.4178V40.1754H30.7424V35.5757H27.3307V34.2658H30.7424V30.5191ZM36.1037 20.3754C35.4335 20.3754 34.2049 20.3957 32.4178 20.4363V29.2092H35.8904C37.8197 29.2092 39.2818 28.8335 40.2769 28.0821C41.272 27.3104 41.7695 26.2138 41.7695 24.7923C41.7695 21.8477 39.8809 20.3754 36.1037 20.3754Z" fill="#fe5000"/>
</svg>
