<svg width="56" height="56" viewBox="0 0 56 56" fill="none" xmlns="http://www.w3.org/2000/svg">
<path d="M31.6355 16.5636V13.4495C31.6355 7.47125 7.99854 7.47125 7.99854 13.4495V31.6636C7.99854 34.0137 11.6773 35.4787 16.1029 35.9996C14.4842 36.7256 13.4532 37.7062 13.4532 38.9492V44.4135C13.4532 47.4026 19.3989 48.9669 25.2718 48.9669C31.1447 48.9669 37.0903 47.4025 37.0903 44.4135V41.6662C42.6519 41.5133 47.9997 39.9627 47.9997 37.1278V20.7352C47.9996 16.9611 38.5821 15.5724 31.6355 16.5636ZM19.8171 10.784C26.2875 10.784 29.8173 12.5854 29.8173 13.5114C29.8173 14.4374 26.2874 16.2387 19.8171 16.2387C13.3468 16.2387 9.81682 14.4374 9.81682 13.5114C9.81674 12.5855 13.3467 10.784 19.8171 10.784ZM9.81674 16.0413C12.0227 17.369 15.9303 18.057 19.817 18.057C23.7037 18.057 27.6113 17.369 29.8173 16.0413V16.9447C26.6579 17.6454 24.3626 18.9249 24.3626 20.7844V21.3223C22.9378 21.5509 21.3999 21.6934 19.8171 21.6934C13.3467 21.6934 9.81682 19.8921 9.81682 18.9661V16.0413H9.81674ZM26.1808 34.2236C26.3538 34.3276 26.5339 34.4288 26.7271 34.5249C26.5451 34.5174 26.3635 34.5099 26.1808 34.5052V34.2236ZM9.81674 21.496C12.0227 22.8237 15.9303 23.5117 19.817 23.5117C21.3907 23.5117 22.9203 23.3704 24.3625 23.155V27.6861C22.9378 27.9147 21.3998 28.0573 19.817 28.0573C13.3466 28.0573 9.81674 26.256 9.81674 25.3299V21.496ZM9.81674 31.6938V27.8598C12.0227 29.1875 15.9303 29.8756 19.817 29.8756C21.3907 29.8756 22.9203 29.7343 24.3625 29.5188V34.05C22.9378 34.2785 21.3998 34.4211 19.817 34.4211C13.3467 34.4211 9.81674 32.6197 9.81674 31.6938ZM35.272 44.4214C35.272 45.3474 31.7421 47.1487 25.2718 47.1487C18.8015 47.1487 15.2714 45.3474 15.2714 44.4214V41.4965C17.4774 42.8242 21.385 43.5122 25.2717 43.5122C28.9921 43.5122 32.7367 42.8834 34.9854 41.6654C35.0798 41.669 35.1771 41.6694 35.2719 41.6723V44.4214H35.272ZM25.2718 41.694C18.8014 41.694 15.2715 39.8927 15.2715 38.9667C15.2715 38.0407 18.8015 36.2393 25.2718 36.2393C31.7421 36.2393 35.272 38.0407 35.272 38.9667C35.272 39.8927 31.7421 41.694 25.2718 41.694ZM46.1814 37.1485C46.1814 38.0284 42.9601 39.6805 37.0902 39.8443V38.9667C37.0902 37.8308 36.2307 36.9127 34.8442 36.2092C35.2887 36.2272 35.7347 36.2393 36.1811 36.2393C40.0678 36.2393 43.9754 35.5513 46.1813 34.2236V37.1485H46.1814ZM46.1814 31.6938C46.1814 32.6198 42.6515 34.4211 36.1812 34.4211C29.7109 34.4211 26.1809 32.6198 26.1809 31.6938V28.7689C28.3868 30.0966 32.2944 30.7846 36.1812 30.7846C40.0679 30.7846 43.9755 30.0966 46.1814 28.7689V31.6938ZM46.1814 26.2391C46.1814 27.1651 42.6515 28.9664 36.1812 28.9664C29.7109 28.9664 26.1809 27.1651 26.1809 26.2391V23.3142C28.3868 24.6419 32.2944 25.3299 36.1812 25.3299C40.0679 25.3299 43.9755 24.6419 46.1814 23.3142V26.2391ZM36.1812 23.5117C29.7108 23.5117 26.1809 21.7104 26.1809 20.7844C26.1809 19.8584 29.7109 18.057 36.1812 18.057C42.6515 18.057 46.1814 19.8584 46.1814 20.7844C46.1814 21.7104 42.6515 23.5117 36.1812 23.5117Z" fill="url(#paint0_linear_3502_1698)"/>
<defs>
<linearGradient id="paint0_linear_3502_1698" x1="16.2488" y1="48.9669" x2="51.3322" y2="37.987" gradientUnits="userSpaceOnUse">
<stop stop-color="#FE5000"/>
<stop offset="1" stop-color="#FCA92A"/>
</linearGradient>
</defs>
</svg>
