<svg width="44" height="44" viewBox="0 0 44 44" fill="none" xmlns="http://www.w3.org/2000/svg">
<g clip-path="url(#clip0)">
<path d="M38 4C39.1195 4.71707 39.9039 6.67967 40 9" stroke="#FE5000" stroke-width="1.3" stroke-linecap="round"/>
<mask id="path-2-inside-1" fill="white">
<path fill-rule="evenodd" clip-rule="evenodd" d="M32.4537 22C32.3138 22 32.175 21.9662 32.0487 21.8973C31.6956 21.7044 23.3778 17.1197 21.3505 10.8088C21.3494 10.8088 21.3494 10.8077 21.3494 10.8077C20.0768 6.83441 21.4938 1.84126 26.0684 0.366779C28.2164 -0.328156 30.5573 -0.0224296 32.4503 1.17227C34.2846 0.0125427 36.7214 -0.307849 38.8265 0.366779C43.4056 1.84351 44.8271 6.83554 43.5557 10.8077C41.5939 17.0463 33.2152 21.6999 32.8598 21.8951C32.7334 21.965 32.5936 22 32.4537 22Z"/>
</mask>
<path d="M32.0487 21.8973L31.4254 23.0382L31.4269 23.039L32.0487 21.8973ZM21.3505 10.8088L22.5882 10.4112L22.2983 9.50885H21.3505V10.8088ZM21.3494 10.8077L22.6494 10.8077L22.6494 10.6046L22.5874 10.4112L21.3494 10.8077ZM26.0684 0.366779L26.4672 1.6041L26.4686 1.60366L26.0684 0.366779ZM32.4503 1.17227L31.7565 2.27164L32.4509 2.7099L33.145 2.27109L32.4503 1.17227ZM38.8265 0.366779L39.2255 -0.870476L39.2233 -0.871203L38.8265 0.366779ZM43.5557 10.8077L42.3176 10.4114L42.3156 10.4177L43.5557 10.8077ZM32.8598 21.8951L32.234 20.7556L32.2302 20.7577L32.8598 21.8951ZM32.4537 20.7C32.5249 20.7 32.6007 20.7177 32.6705 20.7557L31.4269 23.039C31.7493 23.2146 32.1027 23.3 32.4537 23.3V20.7ZM32.6719 20.7565C32.5305 20.6792 30.442 19.5298 28.1542 17.6441C25.8337 15.7315 23.4856 13.2047 22.5882 10.4112L20.1128 11.2064C21.2427 14.7239 24.0671 17.6448 26.5006 19.6505C28.9667 21.6831 31.2138 22.9226 31.4254 23.0382L32.6719 20.7565ZM21.3505 9.50885C21.5776 9.50885 21.8343 9.5693 22.0707 9.72682C22.299 9.87893 22.435 10.0725 22.5121 10.2266C22.5867 10.3757 22.6175 10.509 22.6317 10.594C22.6393 10.6397 22.6436 10.6805 22.6461 10.7151C22.6473 10.7326 22.6481 10.749 22.6487 10.7644C22.6489 10.7721 22.6491 10.7795 22.6492 10.7867C22.6493 10.7903 22.6493 10.7939 22.6493 10.7974C22.6493 10.7991 22.6494 10.8009 22.6494 10.8026C22.6494 10.8034 22.6494 10.8043 22.6494 10.8051C22.6494 10.8056 22.6494 10.8062 22.6494 10.8064C22.6494 10.8071 22.6494 10.8077 21.3494 10.8077C20.0494 10.8077 20.0494 10.8084 20.0494 10.809C20.0494 10.8092 20.0494 10.8099 20.0494 10.8103C20.0494 10.8111 20.0494 10.812 20.0494 10.8129C20.0494 10.8146 20.0494 10.8163 20.0494 10.8181C20.0494 10.8216 20.0495 10.8251 20.0495 10.8287C20.0497 10.8359 20.0498 10.8434 20.0501 10.8511C20.0506 10.8664 20.0514 10.8829 20.0527 10.9005C20.0552 10.9351 20.0595 10.976 20.0671 11.0217C20.0813 11.107 20.1122 11.2406 20.1869 11.3899C20.2641 11.5443 20.4004 11.7382 20.629 11.8905C20.8657 12.0482 21.1229 12.1088 21.3505 12.1088V9.50885ZM22.5874 10.4112C21.4584 6.88613 22.788 2.78998 26.4672 1.60409L25.6696 -0.870537C20.1996 0.89254 18.6952 6.78269 20.1113 11.2042L22.5874 10.4112ZM26.4686 1.60366C28.2465 1.02844 30.1869 1.2811 31.7565 2.27164L33.1441 0.072902C30.9276 -1.32596 28.1862 -1.68475 25.6682 -0.870099L26.4686 1.60366ZM33.145 2.27109C34.6544 1.31676 36.6916 1.04772 38.4298 1.60476L39.2233 -0.871203C36.7512 -1.66342 33.9148 -1.29168 31.7556 0.0734567L33.145 2.27109ZM38.4275 1.60403C42.1133 2.79266 43.4449 6.8895 42.3176 10.4114L44.7938 11.204C46.2093 6.78157 44.698 0.894371 39.2255 -0.870474L38.4275 1.60403ZM42.3156 10.4177C41.4507 13.1678 39.1095 15.6909 36.7779 17.615C34.4816 19.51 32.3763 20.6775 32.234 20.7556L33.4856 23.0345C33.6987 22.9175 35.9604 21.6606 38.4328 19.6204C40.8698 17.6093 43.6988 14.6862 44.7958 11.1977L42.3156 10.4177ZM32.2302 20.7577C32.2996 20.7193 32.3769 20.7 32.4537 20.7V23.3C32.8102 23.3 33.1673 23.2108 33.4894 23.0324L32.2302 20.7577Z" fill="#FE5000" mask="url(#path-2-inside-1)"/>
<path d="M17.8984 35.1467C17.8898 35.5247 18.1819 35.8427 18.56 35.8513C18.9381 35.8598 19.256 35.5677 19.2646 35.1896C19.3076 34.0124 20.2613 33.6859 20.5105 33.6258H28.8711C28.9399 33.6258 29.0172 33.6172 29.0773 33.5914C29.1203 33.5828 29.1805 33.5656 29.2492 33.5398L29.2664 33.5313C30.6756 33.0844 33.219 32.208 35.6249 31.3831C38.2371 30.4895 40.6859 29.6474 41.2015 29.5013C41.9748 29.2865 42.4732 30.3348 42.4732 30.3348C42.4818 30.3434 42.4818 30.3606 42.4904 30.3692C42.8513 31.0136 42.3787 31.6581 42.2154 31.8643L25.9496 40.9037C25.941 40.9123 25.9239 40.9123 25.9153 40.9209C24.9185 41.4966 23.9819 41.0412 23.8015 40.9467C23.7499 40.9123 23.6984 40.8865 23.6296 40.8607L11.557 36.8738C11.4797 36.848 11.4024 36.8308 11.3164 36.8308H8.62695C8.24888 36.8308 7.93955 37.1401 7.93955 37.5182C7.93955 37.8963 8.24888 38.2056 8.62695 38.2056H11.2133L23.157 42.1496C23.5265 42.3473 25.0302 43.0175 26.6027 42.1067L26.6199 42.0981L42.9888 32.9985C43.0489 32.9641 43.1005 32.9212 43.1434 32.8782C43.1434 32.8696 44.6042 31.4003 43.7105 29.7333C43.7105 29.7247 42.731 27.6453 40.8406 28.1695C40.2305 28.3413 37.7902 29.1748 35.1867 30.0684C33.7603 30.5582 32.291 31.0652 31.0708 31.4776C31.1138 31.2542 31.1396 31.005 31.1396 30.7387V30.7301V30.7215C31.0966 28.2468 28.6391 27.9633 28.6391 27.9633C28.6133 27.9633 28.579 27.9547 28.5532 27.9547H22.2634C21.4299 27.5766 17.1422 25.669 14.8308 25.2566C14.8222 25.2566 14.8136 25.2566 14.805 25.2566C13.7739 25.0761 12.4936 25.016 11.3336 25.016C10.165 25.016 9.14251 25.059 8.60118 25.0933C8.2231 25.1191 7.93095 25.437 7.95673 25.8151C7.98251 26.1932 8.30044 26.4853 8.67851 26.4595C9.21984 26.4252 10.2252 26.3822 11.325 26.3822C12.4077 26.3822 13.6021 26.4424 14.5644 26.6056C14.573 26.6056 14.5816 26.6056 14.5902 26.6142C16.8501 27.0181 21.2495 29.003 21.7822 29.2435C21.8853 29.3037 21.997 29.3295 22.1173 29.3295H28.5102C28.7508 29.3724 29.7562 29.6216 29.7733 30.7558C29.7733 31.0222 29.739 31.237 29.6788 31.4175C29.6101 31.6065 29.5156 31.7612 29.4039 31.8729C29.2234 32.0619 29.0258 32.165 28.8969 32.208L28.8711 32.2166C28.8539 32.2166 28.8453 32.2252 28.8282 32.2338L28.811 32.2424H20.4504C20.4074 32.2424 20.3644 32.2424 20.3215 32.251C20.3129 32.251 17.9929 32.672 17.907 35.1381L17.8984 35.1467Z" fill="#FE5000"/>
<path d="M1.54674 23.3748H7.53578C7.57874 23.3748 7.6217 23.392 7.64748 23.4178C7.68185 23.4521 7.69904 23.4865 7.69904 23.5295V39.6922C7.69904 39.7351 7.68185 39.7781 7.64748 39.8039C7.63889 39.8125 7.63889 39.8125 7.6303 39.8211C7.60452 39.8382 7.57015 39.8554 7.52718 39.8554H1.53814C1.49518 39.8554 1.45222 39.8382 1.42644 39.8039C1.41785 39.7953 1.41785 39.7953 1.40926 39.7867C1.39207 39.7609 1.37488 39.7265 1.37488 39.6836V23.5209C1.37488 23.4779 1.39207 23.435 1.41785 23.4092C1.45222 23.3748 1.48659 23.3576 1.52955 23.3576L1.54674 23.3748ZM7.53578 22H1.54674C1.1257 22 0.739033 22.1719 0.455477 22.4554C0.171921 22.739 6.86646e-05 23.117 6.86646e-05 23.5381V39.7008C6.86646e-05 40.096 0.154736 40.4655 0.403921 40.7405C0.421106 40.7576 0.438292 40.7748 0.446884 40.792C0.721848 41.067 1.10851 41.2474 1.53814 41.2474H7.52718C7.92244 41.2474 8.29193 41.0928 8.56689 40.8436C8.58407 40.8264 8.60126 40.8092 8.61844 40.8006C8.89341 40.5256 9.07385 40.139 9.07385 39.7093V23.5467C9.07385 23.1256 8.902 22.739 8.61844 22.4554C8.33489 22.1719 7.95681 22 7.53578 22Z" fill="#FE5000"/>
</g>
<defs>
<clipPath id="clip0">
<rect width="44" height="44" fill="white"/>
</clipPath>
</defs>
</svg>
