<svg width="44" height="44" viewBox="0 0 44 44" fill="none" xmlns="http://www.w3.org/2000/svg">
<path d="M17.8284 43H1L3.09778 11.2736H30.4562L31.0201 19.7993M31.0201 19.7993H20.3946L17.8649 43H42L39.4703 19.7993H31.0201ZM23.9234 15.1984V8.29824C23.9234 4.28664 20.7053 1 16.7773 1C12.8493 1 9.63081 4.28417 9.63081 8.29824V15.1984M35.2781 23.6067V26.401C35.2781 28.8735 32.9238 30.8992 30.0502 30.8992C27.1765 30.8992 24.822 28.875 24.822 26.401V23.6067M10.0758 19.8536C8.78209 19.8536 7.7333 18.8296 7.7333 17.5663C7.7333 16.3031 8.78209 15.279 10.0758 15.279C11.3696 15.279 12.4184 16.3031 12.4184 17.5663C12.4184 18.8296 11.3696 19.8536 10.0758 19.8536Z" stroke="#FE5000" stroke-width="1.5" stroke-miterlimit="22.9256" stroke-linecap="round" stroke-linejoin="round"/>
</svg>
