<svg width="56" height="56" viewBox="0 0 56 56" fill="none" xmlns="http://www.w3.org/2000/svg">
<path fill-rule="evenodd" clip-rule="evenodd" d="M35.3049 32.8115C35.1139 32.8115 34.8268 32.7158 34.6357 32.5248L23.2592 20.0014C21.2517 17.8026 20.6779 14.6481 21.8252 11.7799C22.8767 9.00749 25.2667 7.28674 28.1348 7.09568C31.0029 6.90432 33.584 8.05159 35.4004 10.0592C37.0259 8.14727 39.4158 7 41.9968 7H42.5703C45.4384 7.19103 47.7327 8.91189 48.88 11.6843C50.0269 14.4566 49.4535 17.6115 47.4459 19.9057L35.9741 32.5248C35.8784 32.7158 35.496 32.8115 35.3049 32.8115ZM28.2305 8.8162C26.1273 9.00757 24.4065 10.3459 23.5463 12.3534L23.5458 12.3535C22.5898 14.5525 23.0676 16.9424 24.5973 18.5675L35.3044 30.4218L46.0123 18.6631C47.542 16.9423 47.9241 14.5524 47.0639 12.3534C46.2994 10.2503 44.4829 9.00726 42.3796 8.8162C39.7983 8.62484 37.4083 9.86745 36.07 12.0664C35.9743 12.3535 35.5918 12.5445 35.3051 12.5445C35.0184 12.5445 34.7313 12.3531 34.5402 12.0664C33.1062 9.77211 30.7162 8.62515 28.2305 8.8162ZM15.0375 49.5414H6.91172L6.9118 49.5415C5.86022 49.5415 4.99967 48.6809 5 47.5336V28.8919C5 27.8403 5.86022 26.9801 6.9118 26.9801H14.9423C15.9938 26.9801 16.8541 27.8403 16.8541 28.8919V30.4217C19.3833 30.7026 21.1784 31.9016 21.789 32.3094C21.8015 32.3178 21.8135 32.3258 21.825 32.3335C23.2443 33.3981 24.9108 33.3924 26.7479 33.386C26.8904 33.3855 27.0339 33.385 27.1785 33.385H31.576C34.0617 33.385 36.1649 35.4883 36.1649 38.0693V38.7385C36.9295 38.6428 37.5986 38.4514 38.0767 38.2603L45.4377 35.5837C47.1584 34.7234 49.3574 35.2969 50.3133 37.0177C51.3649 38.8342 50.6957 40.9374 48.8792 41.8933L40.4666 46.2909C38.6501 47.2468 36.6427 47.7249 34.5394 47.7249H20.2952C19.1483 47.7249 18.0009 47.5339 16.9493 47.1515V47.6296C16.9493 48.6812 16.0891 49.5414 15.0375 49.5414ZM20.7756 33.9916C20.1573 33.5762 18.8548 32.7014 16.9496 32.4292L16.9499 45.0479C18.0014 45.5261 19.1485 45.8128 20.2957 45.8128H34.6355C36.3563 45.8128 38.1724 45.4303 39.7022 44.5701L48.1148 40.1726C48.8797 39.7901 49.2621 38.7385 48.784 37.9736C48.3058 37.1134 47.2542 36.8263 46.394 37.3045C46.394 37.4002 46.2983 37.4002 46.2983 37.4002L38.8417 40.1725C36.2604 41.1285 30.8113 41.5109 28.517 41.5109C27.9436 41.5109 27.5611 41.1285 27.5611 40.555C27.5611 39.9815 27.9435 39.5991 28.517 39.5991C30.0467 39.5991 32.341 39.4077 34.4442 39.121V38.1651C34.4442 36.6354 33.2016 35.3927 31.7676 35.3927H27.37C24.8844 35.4884 22.8769 35.3927 20.8693 34.0543C20.8401 34.0348 20.8088 34.0139 20.7756 33.9916ZM15.0375 28.892H6.91172V47.5337H15.0375V28.892Z" fill="url(#paint0_linear_3673_950)"/>
<defs>
<linearGradient id="paint0_linear_3673_950" x1="14.4489" y1="49.5415" x2="54.0652" y2="36.1894" gradientUnits="userSpaceOnUse">
<stop stop-color="#FE5000"/>
<stop offset="1" stop-color="#FCA92A"/>
</linearGradient>
</defs>
</svg>
