<svg width="56" height="56" viewBox="0 0 56 56" fill="none" xmlns="http://www.w3.org/2000/svg">
<path d="M29.6466 28.4826C29.6466 34.5642 28.6752 39.3927 26.7323 42.968C24.8255 46.5064 21.8573 48.2757 17.8277 48.2757C13.7621 48.2757 10.74 46.488 8.76117 42.9127C6.78237 39.3374 5.79297 34.5274 5.79297 28.4826C5.79297 22.4377 6.76438 17.6277 8.7072 14.0524C10.686 10.4771 13.6902 8.68945 17.7198 8.68945C21.7494 8.68945 24.7356 10.4771 26.6784 14.0524C28.6572 17.6277 29.6466 22.4377 29.6466 28.4826ZM17.8277 45.5665C23.7282 45.5665 26.6784 39.8719 26.6784 28.4826C26.6784 17.0932 23.6922 11.3986 17.7198 11.3986C11.7474 11.3986 8.76117 17.0932 8.76117 28.4826C8.76117 39.8719 11.7833 45.5665 17.8277 45.5665ZM37.5725 37.3176H33.9459V35.8911H37.5725V24.6124C38.4576 24.6124 39.375 24.6013 40.3248 24.5792C41.2747 24.5571 42.2029 24.5461 43.1096 24.5461C48.4847 24.5461 51.1723 26.6802 51.1723 30.9484C51.1723 32.9167 50.4815 34.4758 49.0999 35.6258C47.74 36.7536 45.7432 37.3176 43.1096 37.3176H39.3534V41.3978H45.2143V42.8243H39.3534V47.8334H37.5725V42.8243H33.9459V41.3978H37.5725V37.3176ZM43.2715 26.271C42.5591 26.271 41.2531 26.2932 39.3534 26.3374V35.8911H43.0448C45.0956 35.8911 46.6498 35.482 47.7076 34.6638C48.7653 33.8234 49.2942 32.6292 49.2942 31.0811C49.2942 27.8744 47.2866 26.271 43.2715 26.271Z" fill="url(#paint0_linear_3502_1686)"/>
<defs>
<linearGradient id="paint0_linear_3502_1686" x1="15.1525" y1="48.2757" x2="53.868" y2="34.3858" gradientUnits="userSpaceOnUse">
<stop stop-color="#FE5000"/>
<stop offset="1" stop-color="#FCA92A"/>
</linearGradient>
</defs>
</svg>
