<svg width="56" height="56" viewBox="0 0 56 56" fill="none" xmlns="http://www.w3.org/2000/svg">
<path fill-rule="evenodd" clip-rule="evenodd" d="M14.2454 6.67285C13.7655 6.67285 13.3765 7.0619 13.3765 7.54182V31.1265H8.64145C8.28999 31.1265 7.97313 31.3383 7.83863 31.663C7.70413 31.9877 7.77848 32.3614 8.027 32.61L27.3862 51.9691C27.7255 52.3085 28.2757 52.3085 28.6151 51.9691L47.9743 32.61C48.2228 32.3614 48.2971 31.9877 48.1626 31.663C48.0281 31.3383 47.7113 31.1265 47.3598 31.1265H42.6248V7.54182C42.6248 7.0619 42.2357 6.67285 41.7558 6.67285H14.2454ZM15.1144 31.9955V8.41078H40.8869V31.9955C40.8869 32.4754 41.2759 32.8645 41.7558 32.8645H45.2619L28.0006 50.1258L10.7393 32.8645H14.2454C14.7253 32.8645 15.1144 32.4754 15.1144 31.9955ZM33.3375 18.9313C32.7992 18.5723 32.0715 18.7178 31.7126 19.2562L22.3387 33.317C21.9798 33.8555 22.1253 34.583 22.6638 34.9419C23.2021 35.3009 23.9296 35.1555 24.2886 34.617L33.6625 20.5562C34.0214 20.0177 33.8759 19.2903 33.3375 18.9313ZM19.7987 22.25C19.7987 20.3117 21.3756 18.7348 23.3139 18.7348C25.2521 18.7348 26.8291 20.3117 26.8291 22.25C26.8291 24.1882 25.2521 25.7652 23.3139 25.7652C21.3756 25.7652 19.7987 24.1882 19.7987 22.25ZM22.1421 22.25C22.1421 22.8961 22.6678 23.4217 23.3139 23.4217C23.96 23.4217 24.4856 22.8961 24.4856 22.25C24.4856 21.6039 23.96 21.0782 23.3139 21.0782C22.6678 21.0782 22.1421 21.6039 22.1421 22.25ZM29.1696 31.6236C29.1696 29.6853 30.7465 28.1084 32.6848 28.1084C34.6231 28.1084 36.2 29.6853 36.2 31.6236C36.2 33.5619 34.6231 35.1388 32.6848 35.1388C30.7465 35.1388 29.1696 33.5619 29.1696 31.6236ZM31.513 31.6236C31.513 32.2697 32.0387 32.7954 32.6848 32.7954C33.3309 32.7954 33.8565 32.2697 33.8565 31.6236C33.8565 30.9775 33.3309 30.4519 32.6848 30.4519C32.0387 30.4519 31.513 30.9775 31.513 31.6236Z" fill="url(#paint0_linear_3501_1630)"/>
<defs>
<linearGradient id="paint0_linear_3501_1630" x1="16.1166" y1="52.2236" x2="52.2805" y2="42.1714" gradientUnits="userSpaceOnUse">
<stop stop-color="#FE5000"/>
<stop offset="1" stop-color="#FCA92A"/>
</linearGradient>
</defs>
</svg>
