<svg width="44" height="44" viewBox="0 0 44 44" fill="none" xmlns="http://www.w3.org/2000/svg">
<path d="M23.2857 22.4061C23.2857 27.9907 22.3719 32.4246 20.5442 35.7076C18.7503 38.9569 15.958 40.5815 12.1673 40.5815C8.34262 40.5815 5.49955 38.9399 3.63801 35.6569C1.77647 32.3738 0.845703 27.9569 0.845703 22.4061C0.845703 16.8553 1.75955 12.4384 3.58724 9.15533C5.44878 5.87225 8.27493 4.23071 12.0657 4.23071C15.8565 4.23071 18.6657 5.87225 20.4934 9.15533C22.355 12.4384 23.2857 16.8553 23.2857 22.4061ZM12.1673 38.0938C17.718 38.0938 20.4934 32.8646 20.4934 22.4061C20.4934 11.9476 17.6842 6.71841 12.0657 6.71841C6.44724 6.71841 3.63801 11.9476 3.63801 22.4061C3.63801 32.8646 6.48108 38.0938 12.1673 38.0938ZM30.742 30.519H27.3303V29.2092H30.742V18.8523C31.5746 18.8523 32.4376 18.8421 33.3312 18.8218C34.2247 18.8015 35.0979 18.7913 35.9509 18.7913C41.0075 18.7913 43.5358 20.751 43.5358 24.6704C43.5358 26.4778 42.886 27.9095 41.5863 28.9655C40.3069 30.0012 38.4284 30.519 35.9509 30.519H32.4173V34.2658H37.9309V35.5756H32.4173V40.1753H30.742V35.5756H27.3303V34.2658H30.742V30.519ZM36.1032 20.3753C35.433 20.3753 34.2044 20.3956 32.4173 20.4363V29.2092H35.8899C37.8192 29.2092 39.2813 28.8335 40.2764 28.0821C41.2715 27.3104 41.769 26.2138 41.769 24.7923C41.769 21.8476 39.8804 20.3753 36.1032 20.3753Z" fill="url(#paint0_linear_8654_11282)"/>
<defs>
<linearGradient id="paint0_linear_8654_11282" x1="9.65054" y1="40.5815" x2="45.8672" y2="27.2702" gradientUnits="userSpaceOnUse">
<stop stop-color="#FE5000"/>
<stop offset="1" stop-color="#FCA92A"/>
</linearGradient>
</defs>
</svg>
