<svg width="100" height="100" viewBox="0 0 100 100" fill="none" xmlns="http://www.w3.org/2000/svg">
<circle cx="50" cy="50" r="49.5" stroke="url(#paint0_linear)"/>
<path d="M51.7055 50.5C51.7055 56.7989 50.6994 61.7998 48.6872 65.5028C46.7123 69.1676 43.638 71 39.4646 71C35.2538 71 32.1237 69.1485 30.0742 65.4455C28.0247 61.7425 27 56.7607 27 50.5C27 44.2393 28.0061 39.2574 30.0183 35.5545C32.0678 31.8515 35.1793 30 39.3528 30C43.5263 30 46.6191 31.8515 48.6313 35.5545C50.6808 39.2574 51.7055 44.2393 51.7055 50.5ZM39.4646 68.1941C45.5757 68.1941 48.6313 62.2961 48.6313 50.5C48.6313 38.7039 45.5385 32.8059 39.3528 32.8059C33.1671 32.8059 30.0742 38.7039 30.0742 50.5C30.0742 62.2961 33.2043 68.1941 39.4646 68.1941ZM59.9145 59.6506H56.1584V58.1732H59.9145V46.4916C60.8312 46.4916 61.7814 46.4802 62.7651 46.4573C63.7489 46.4344 64.7103 46.4229 65.6493 46.4229C71.2164 46.4229 74 48.6332 74 53.0539C74 55.0925 73.2845 56.7073 71.8536 57.8983C70.4451 59.0665 68.377 59.6506 65.6493 59.6506H61.759V63.8765H67.8292V65.3539H61.759V70.5419H59.9145V65.3539H56.1584V63.8765H59.9145V59.6506ZM65.817 48.2095C65.0792 48.2095 63.7265 48.2324 61.759 48.2782V58.1732H65.5822C67.7062 58.1732 69.316 57.7494 70.4116 56.902C71.5071 56.0316 72.0549 54.7947 72.0549 53.1913C72.0549 49.8701 69.9756 48.2095 65.817 48.2095Z" fill="url(#paint1_linear)"/>
<defs>
<linearGradient id="paint0_linear" x1="20.625" y1="100" x2="108.331" y2="72.5509" gradientUnits="userSpaceOnUse">
<stop stop-color="#FE5000"/>
<stop offset="1" stop-color="#FCA92A"/>
</linearGradient>
<linearGradient id="paint1_linear" x1="36.6938" y1="71" x2="76.792" y2="56.6141" gradientUnits="userSpaceOnUse">
<stop stop-color="#FE5000"/>
<stop offset="1" stop-color="#FCA92A"/>
</linearGradient>
</defs>
</svg>
