<svg width="100" height="100" viewBox="0 0 100 100" fill="none" xmlns="http://www.w3.org/2000/svg">
<circle cx="50" cy="50" r="49.5" stroke="url(#paint0_linear)"/>
<g clip-path="url(#clip0)">
<path d="M74.2676 36.0005H67.8906L65.1563 30.0713C64.9902 29.7075 64.541 29.5404 64.1797 29.7075L61.5039 30.9563L53.3984 25.1254C53.0762 24.8894 52.6074 24.9681 52.3731 25.3024L44.7949 36.0005H25.7324C25.3223 36.0005 25 36.3349 25 36.738V63.2572C25 63.6603 25.332 63.9946 25.7324 63.9946H32.1094L34.8438 69.9239C35.0098 70.2877 35.4492 70.4548 35.8203 70.2877L38.4961 69.0389L46.6016 74.8698C46.9238 75.1058 47.3926 75.0271 47.627 74.6928L55.2051 63.9946H74.2578C74.668 63.9946 74.9902 63.6603 74.9902 63.2572V36.738C75 36.3349 74.668 36.0005 74.2676 36.0005ZM64.1309 31.3594L66.2695 36.0005H54.1895L64.1309 31.3594ZM53.1445 26.7675L59.9805 31.6741L50.7129 36.0005H46.6016L53.1445 26.7675ZM42.1875 57.3476V62.4312C42.1875 62.4607 42.1875 62.4902 42.1973 62.5197H37.793C37.793 62.4902 37.8027 62.4607 37.8027 62.4312V57.3476V55.971V37.4755H42.1973V55.971V57.3476H42.1875ZM26.4648 62.5197V37.4755H36.4258V55.971H32.0313C31.6504 55.971 31.3477 56.2759 31.3477 56.6593C31.3477 57.0428 31.6504 57.3476 32.0313 57.3476H36.4258V62.4312C36.4258 62.4607 36.4258 62.4902 36.4355 62.5197H26.4648ZM35.8691 68.6357L33.7305 63.9946H45.8106L35.8691 68.6357ZM46.8555 73.2375L40.0195 68.3309L49.2871 64.0045H53.3984L46.8555 73.2375ZM73.5352 62.5197H43.5547C43.5547 62.4902 43.5645 62.4607 43.5645 62.4312V57.3476H56.0645C56.4453 57.3476 56.7481 57.0428 56.7481 56.6593C56.7481 56.2759 56.4453 55.971 56.0645 55.971H43.5547V37.4755H45.166H67.4121H73.5352V62.5197ZM61.0449 46.1874H62.3242V41.7233H65.9961C68.0859 41.7233 69.2578 42.7852 69.2578 44.6141C69.2578 46.4529 68.0859 47.5443 65.9961 47.5443H63.8867V48.4489H66.6992V49.3044H63.8867V51.2119H62.3242V49.3044H61.0449V48.4489H62.3242V47.5443H61.0449V46.1874ZM65.7715 46.1874C67.168 46.1874 67.6953 45.5876 67.6953 44.6141C67.6953 43.6407 67.168 43.0704 65.7715 43.0704H63.8867V46.1874H65.7715Z" fill="url(#paint1_linear)"/>
</g>
<defs>
<linearGradient id="paint0_linear" x1="20.625" y1="100" x2="108.331" y2="72.5509" gradientUnits="userSpaceOnUse">
<stop stop-color="#FE5000"/>
<stop offset="1" stop-color="#FCA92A"/>
</linearGradient>
<linearGradient id="paint1_linear" x1="35.3105" y1="75.0058" x2="79.1592" y2="61.2897" gradientUnits="userSpaceOnUse">
<stop stop-color="#FE5000"/>
<stop offset="1" stop-color="#FCA92A"/>
</linearGradient>
<clipPath id="clip0">
<rect width="50" height="50" fill="white" transform="translate(25 25)"/>
</clipPath>
</defs>
</svg>
