<svg width="44" height="44" viewBox="0 0 44 44" fill="none" xmlns="http://www.w3.org/2000/svg">
<path fill-rule="evenodd" clip-rule="evenodd" d="M6.15019 31.7596C5.95619 31.8181 5.74623 31.7875 5.57708 31.6759L0.631117 28.4135C0.316347 28.2059 0.22949 27.7824 0.437115 27.4676C0.644739 27.1528 1.06822 27.066 1.38299 27.2736L4.75853 29.5001C3.85737 27.2957 3.36087 24.8834 3.36087 22.3566C3.36087 11.9241 11.8181 3.46692 22.2505 3.46692C25.69 3.46692 28.9167 4.38681 31.6958 5.99444C32.0222 6.18325 32.1338 6.60091 31.945 6.92731C31.7562 7.25371 31.3385 7.36525 31.0121 7.17644C28.4352 5.6858 25.4436 4.83244 22.2505 4.83244C12.5722 4.83244 4.72639 12.6783 4.72639 22.3566C4.72639 24.7441 5.20348 27.0187 6.06711 29.0915L7.64165 25.3858C7.78911 25.0387 8.18999 24.8769 8.53704 25.0244C8.88409 25.1718 9.04589 25.5727 8.89843 25.9198L6.58141 31.3729C6.50217 31.5594 6.34418 31.7011 6.15019 31.7596ZM11.8742 25.209C12.7908 28.0968 14.8947 30.4562 17.657 31.6948C20.4197 32.9331 23.5788 32.9331 26.3412 31.6948C29.1036 30.4562 31.2075 28.0969 32.1241 25.209C32.785 23.1229 32.785 20.8829 32.1241 18.7969C31.2075 15.9091 29.1036 13.5497 26.3412 12.3111C23.5786 11.0725 20.4195 11.0725 17.657 12.3111C14.8947 13.5497 12.7908 15.909 11.8742 18.7969C11.2132 20.8829 11.2132 23.1229 11.8742 25.209ZM21.9991 12.9028C22.9721 12.9028 24.241 14.8942 24.7953 18.3159L19.203 18.3162C19.7573 14.8944 21.0261 12.9028 21.9992 12.9028L21.9991 12.9028ZM24.9861 19.8573C25.0477 20.5294 25.0785 21.2446 25.0785 21.9967C25.0785 22.749 25.0417 23.464 24.9861 24.1362H19.0122C18.9566 23.4643 18.9198 22.7489 18.9198 21.9907C18.9198 21.2324 18.9566 20.5234 19.0122 19.8512L24.9861 19.8573ZM31.0833 21.9907C31.0805 22.7118 30.9915 23.4299 30.8185 24.1301H26.5074C26.569 23.4211 26.5998 22.706 26.5998 21.9907C26.5998 21.2756 26.5629 20.5602 26.5074 19.8512H30.8185C30.9915 20.5515 31.0805 21.2696 31.0833 21.9907ZM21.9993 31.0909C21.0263 31.0908 19.7574 29.0994 19.2031 25.6777H24.7952C24.2412 29.0995 22.9723 31.0909 21.9993 31.0909ZM17.4727 24.1363H13.1616C12.8088 22.732 12.8088 21.262 13.1616 19.8577H17.4727C17.4111 20.5666 17.3803 21.2881 17.3803 21.9971C17.3803 22.7059 17.4172 23.4273 17.4727 24.1363V24.1363ZM13.6974 25.6901H17.6882C17.9057 27.4337 18.4424 29.1227 19.271 30.6717C16.7881 29.8834 14.76 28.0707 13.6974 25.6901H13.6974ZM30.2705 25.6901C29.2242 28.041 27.236 29.8405 24.796 30.647C25.5981 29.1009 26.1113 27.4209 26.3104 25.6901H30.2705ZM30.326 18.3408H26.3104C26.1026 16.5991 25.5763 14.9104 24.7584 13.3592C27.22 14.1439 29.2342 15.9363 30.3012 18.2916L30.326 18.3408ZM19.2403 13.3592C18.4281 14.8954 17.9021 16.5666 17.6882 18.2916H13.6974C14.7645 15.9363 16.7787 14.1439 19.2403 13.3592ZM38.6732 12.6847C38.504 12.5731 38.294 12.5424 38.1001 12.6009C37.9061 12.6595 37.7481 12.8011 37.6688 12.9876L35.3518 18.4408C35.2044 18.7878 35.3661 19.1887 35.7132 19.3362C36.0602 19.4836 36.4611 19.3218 36.6086 18.9748L38.1831 15.269C39.0468 17.3418 39.5239 19.6164 39.5239 22.004C39.5239 31.6823 31.678 39.5281 21.9997 39.5281C18.8067 39.5281 15.815 38.6747 13.2381 37.1841C12.9117 36.9953 12.4941 37.1068 12.3053 37.4332C12.1165 37.7596 12.228 38.1773 12.5544 38.3661C15.3335 39.9737 18.5602 40.8936 21.9997 40.8936C32.4322 40.8936 40.8894 32.4364 40.8894 22.004C40.8894 19.4771 40.3929 17.0648 39.4917 14.8604L42.8672 17.0869C43.182 17.2946 43.6055 17.2077 43.8131 16.8929C44.0208 16.5782 43.9339 16.1547 43.6191 15.9471L38.6732 12.6847Z" fill="url(#paint0_linear_8654_11198)"/>
<defs>
<linearGradient id="paint0_linear_8654_11198" x1="9.31709" y1="40.8936" x2="46.3775" y2="27.3812" gradientUnits="userSpaceOnUse">
<stop stop-color="#FE5000"/>
<stop offset="1" stop-color="#FCA92A"/>
</linearGradient>
</defs>
</svg>
