<svg width="44" height="44" viewBox="0 0 44 44" fill="none" xmlns="http://www.w3.org/2000/svg">
<path d="M39.0996 22.2V16.9C39.0996 15.1 37.6996 13.6 35.8996 13.5L30.9996 4.89995C30.4996 4.09995 29.7996 3.49995 28.8996 3.29995C27.9996 3.09995 27.0996 3.19995 26.2996 3.59995L9.49961 13.4H6.49961C4.59961 13.4 3.09961 14.9 3.09961 16.8V37.4C3.09961 39.3 4.59961 40.7999 6.49961 40.7999H35.5996C37.4996 40.7999 38.9996 39.3 38.9996 37.4V32.0999C39.9996 31.6999 40.6996 30.8 40.6996 29.7V24.6C40.8996 23.5 40.0996 22.5 39.0996 22.2ZM27.2996 5.09995C27.6996 4.89995 28.0996 4.79995 28.5996 4.89995C28.9996 4.99995 29.3996 5.29995 29.5996 5.69995L31.2996 8.59995C30.4996 8.89995 29.6996 9.09995 28.8996 9.09995C27.0996 9.09995 25.3996 8.29995 24.1996 6.79995L27.2996 5.09995ZM22.6996 7.69995C24.1996 9.69995 26.3996 10.8 28.7996 10.8C29.8996 10.8 30.9996 10.5 31.9996 10.1L33.8996 13.4H12.8996L22.6996 7.69995ZM37.3996 37.4C37.3996 38.3 36.5996 39.0999 35.6996 39.0999H6.59961C5.69961 39.0999 4.89961 38.3 4.89961 37.4V16.9C4.89961 16 5.69961 15.2 6.59961 15.2H35.6996C36.5996 15.2 37.3996 16 37.3996 16.9V22H32.2996C29.4996 22 27.1996 24.3 27.1996 27.1C27.1996 29.9 29.4996 32.2 32.2996 32.2H37.3996V37.4ZM39.0996 29.7C39.0996 30.2 38.6996 30.6 38.1996 30.6H32.1996C30.2996 30.6 28.7996 29.1 28.7996 27.2C28.7996 25.3 30.2996 23.7999 32.1996 23.7999H38.1996C38.6996 23.7999 39.0996 24.2 39.0996 24.7V29.7ZM32.2996 25.4C31.3996 25.4 30.5996 26.2 30.5996 27.1C30.5996 28 31.3996 28.7999 32.2996 28.7999C33.1996 28.7999 33.9996 28 33.9996 27.1C33.9996 26.2 33.1996 25.4 32.2996 25.4Z" fill="url(#paint0_linear_8654_11280)"/>
<defs>
<linearGradient id="paint0_linear_8654_11280" x1="10.861" y1="40.7999" x2="43.8607" y2="30.4637" gradientUnits="userSpaceOnUse">
<stop stop-color="#FE5000"/>
<stop offset="1" stop-color="#FCA92A"/>
</linearGradient>
</defs>
</svg>
