<svg width="66" height="66" viewBox="0 0 66 66" fill="none" xmlns="http://www.w3.org/2000/svg">
<path d="M52.7909 9H13.2082C10.3375 9 8 11.3375 8 14.2083V49.6244C8 52.4951 10.3375 54.8326 13.2082 54.8326H38.2078C38.7828 54.8326 39.2495 54.3659 39.2495 53.7909C39.2495 53.2159 38.7828 52.7492 38.2078 52.7492H13.2082C11.4853 52.7492 10.0833 51.3472 10.0833 49.6243V19.4165H55.9158V41.2911C55.9158 41.8661 56.3825 42.3328 56.9574 42.3328C57.5324 42.3328 57.9991 41.8661 57.9991 41.2911V14.2083C57.9991 11.3375 55.6617 9 52.7909 9ZM55.9159 17.3333H10.0833V14.2083C10.0833 12.4854 11.4853 11.0834 13.2082 11.0834H52.7908C54.5137 11.0834 55.9158 12.4854 55.9158 14.2083V17.3333H55.9159Z" fill="url(#paint0_linear_4697_2272)"/>
<path d="M13.2087 15.2504C13.784 15.2504 14.2504 14.784 14.2504 14.2087C14.2504 13.6334 13.784 13.167 13.2087 13.167C12.6334 13.167 12.167 13.6334 12.167 14.2087C12.167 14.784 12.6334 15.2504 13.2087 15.2504Z" fill="url(#paint1_linear_4697_2272)"/>
<path d="M17.3747 15.2504C17.95 15.2504 18.4164 14.784 18.4164 14.2087C18.4164 13.6334 17.95 13.167 17.3747 13.167C16.7994 13.167 16.333 13.6334 16.333 14.2087C16.333 14.784 16.7994 15.2504 17.3747 15.2504Z" fill="url(#paint2_linear_4697_2272)"/>
<path d="M21.5417 15.2504C22.117 15.2504 22.5834 14.784 22.5834 14.2087C22.5834 13.6334 22.117 13.167 21.5417 13.167C20.9664 13.167 20.5 13.6334 20.5 14.2087C20.5 14.784 20.9664 15.2504 21.5417 15.2504Z" fill="url(#paint3_linear_4697_2272)"/>
<path d="M57.6952 46.8038L43.1122 32.2207C42.8142 31.9249 42.3684 31.8353 41.9767 31.9957C41.5872 32.1562 41.333 32.5374 41.333 32.9582V53.7911C41.333 54.2119 41.5872 54.5932 41.9767 54.7516C42.3684 54.9161 42.8122 54.8266 43.1122 54.5266L46.2684 51.3704L48.8246 56.3495C48.9516 56.5995 49.1746 56.7849 49.4391 56.8682C49.5412 56.8995 49.6474 56.9162 49.7516 56.9162C49.9204 56.9162 50.0871 56.8745 50.2412 56.7932L54.3223 54.6245C54.8223 54.36 55.0203 53.7412 54.7619 53.235L52.4036 48.583H56.9577C57.3785 48.583 57.7598 48.3288 57.9202 47.9393C58.0827 47.5495 57.9932 47.1017 57.6952 46.8038ZM50.7079 46.4996C50.3454 46.4996 50.0099 46.6871 49.8204 46.9953C49.6308 47.3036 49.6141 47.6891 49.7787 48.012L52.4411 53.2661L50.1954 54.4599L47.4684 49.1495C47.3163 48.8537 47.0329 48.6475 46.7038 48.5953C46.6496 48.587 46.5955 48.5828 46.5413 48.5828C46.2684 48.5828 46.0018 48.6911 45.8038 48.8891L43.4164 51.2765V35.4727L54.4432 46.4996H50.7079Z" fill="url(#paint4_linear_4697_2272)"/>
<defs>
<linearGradient id="paint0_linear_4697_2272" x1="8" y1="54.8326" x2="53.6597" y2="5.02215" gradientUnits="userSpaceOnUse">
<stop stop-color="#FE5000"/>
<stop offset="1" stop-color="#FE9800"/>
</linearGradient>
<linearGradient id="paint1_linear_4697_2272" x1="12.167" y1="15.2504" x2="14.2504" y2="13.167" gradientUnits="userSpaceOnUse">
<stop stop-color="#FE5000"/>
<stop offset="1" stop-color="#FE9800"/>
</linearGradient>
<linearGradient id="paint2_linear_4697_2272" x1="16.333" y1="15.2504" x2="18.4164" y2="13.167" gradientUnits="userSpaceOnUse">
<stop stop-color="#FE5000"/>
<stop offset="1" stop-color="#FE9800"/>
</linearGradient>
<linearGradient id="paint3_linear_4697_2272" x1="20.5" y1="15.2504" x2="22.5834" y2="13.167" gradientUnits="userSpaceOnUse">
<stop stop-color="#FE5000"/>
<stop offset="1" stop-color="#FE9800"/>
</linearGradient>
<linearGradient id="paint4_linear_4697_2272" x1="41.333" y1="56.9162" x2="64.4098" y2="41.5305" gradientUnits="userSpaceOnUse">
<stop stop-color="#FE5000"/>
<stop offset="1" stop-color="#FE9800"/>
</linearGradient>
</defs>
</svg>
