<svg width="100" height="100" viewBox="0 0 100 100" fill="none" xmlns="http://www.w3.org/2000/svg">
<circle cx="50" cy="50" r="49.5" stroke="url(#paint0_linear)"/>
<path d="M71.0064 50.2447V43.7606C71.0064 41.5585 69.2951 39.7234 67.0948 39.6011L61.105 29.0798C60.4938 28.1011 59.6381 27.367 58.538 27.1223C57.4378 26.8777 56.3376 27 55.3597 27.4894L34.8234 39.4787H31.1562C28.8336 39.4787 27 41.3138 27 43.6383V68.8404C27 71.1649 28.8336 73 31.1562 73H66.728C69.0506 73 70.8842 71.1649 70.8842 68.8404V62.3564C72.1066 61.867 72.9623 60.766 72.9623 59.4202V53.1809C73.2068 51.8351 72.2288 50.6117 71.0064 50.2447ZM56.5821 29.3245C57.0711 29.0798 57.56 28.9574 58.1712 29.0798C58.6602 29.2021 59.1492 29.5691 59.3936 30.0585L61.4717 33.6064C60.4938 33.9734 59.5159 34.2181 58.538 34.2181C56.3376 34.2181 54.2595 33.2394 52.7927 31.4043L56.5821 29.3245ZM50.9591 32.5053C52.7927 34.9521 55.4819 36.2979 58.4157 36.2979C59.7604 36.2979 61.105 35.9309 62.3274 35.4415L64.65 39.4787H38.9795L50.9591 32.5053ZM68.9284 68.8404C68.9284 69.9415 67.9504 70.9202 66.8503 70.9202H31.2784C30.1782 70.9202 29.2003 69.9415 29.2003 68.8404V43.7606C29.2003 42.6596 30.1782 41.6809 31.2784 41.6809H66.8503C67.9504 41.6809 68.9284 42.6596 68.9284 43.7606V50H62.6941C59.2714 50 56.4599 52.8138 56.4599 56.2394C56.4599 59.6649 59.2714 62.4787 62.6941 62.4787H68.9284V68.8404ZM71.0064 59.4202C71.0064 60.0319 70.5175 60.5213 69.9063 60.5213H62.5719C60.2493 60.5213 58.4157 58.6862 58.4157 56.3617C58.4157 54.0372 60.2493 52.2021 62.5719 52.2021H69.9063C70.5175 52.2021 71.0064 52.6915 71.0064 53.3032V59.4202ZM62.6941 54.1596C61.594 54.1596 60.616 55.1383 60.616 56.2394C60.616 57.3404 61.594 58.3191 62.6941 58.3191C63.7943 58.3191 64.7722 57.3404 64.7722 56.2394C64.7722 55.1383 63.7943 54.1596 62.6941 54.1596Z" fill="url(#paint1_linear)"/>
<defs>
<linearGradient id="paint0_linear" x1="20.625" y1="100" x2="108.331" y2="72.5509" gradientUnits="userSpaceOnUse">
<stop stop-color="#FE5000"/>
<stop offset="1" stop-color="#FCA92A"/>
</linearGradient>
<linearGradient id="paint1_linear" x1="36.4875" y1="73" x2="76.8323" y2="60.3734" gradientUnits="userSpaceOnUse">
<stop stop-color="#FE5000"/>
<stop offset="1" stop-color="#FCA92A"/>
</linearGradient>
</defs>
</svg>
