<svg width="100" height="100" viewBox="0 0 100 100" fill="none" xmlns="http://www.w3.org/2000/svg">
<circle cx="50" cy="50" r="49.5" stroke="url(#paint0_linear)"/>
<path d="M63.5166 31.0367C63.5166 28.2548 61.2619 26 58.4799 26H41.0371C38.2552 26 36 28.2548 36 31.0367V68.8183C36 71.6003 38.2552 73.8551 41.0371 73.8551H58.4799C61.2619 73.8551 63.5166 71.6003 63.5166 68.8183V31.0367ZM38.3928 34.7336H61.1239V62.6091H38.3928V34.7336ZM41.0128 28.3928H58.5042C59.9619 28.3928 61.1239 29.6078 61.1239 31.0659V32.3408H38.3928V31.0659C38.3928 29.6078 39.5551 28.3928 41.0128 28.3928ZM58.5042 71.4623H41.0128C39.5757 71.4728 38.4028 70.3153 38.3928 68.8781V65.0019H61.1239V68.8475C61.131 70.2846 59.972 71.4552 58.5349 71.4623H58.5042Z" fill="url(#paint1_linear)"/>
<path d="M52.0998 67.0356H47.4171C46.7561 67.0356 46.2207 67.571 46.2207 68.232C46.2207 68.893 46.7561 69.4284 47.4171 69.4284H52.0998C52.7604 69.4284 53.2961 68.893 53.2961 68.232C53.2961 67.571 52.7604 67.0356 52.0998 67.0356Z" fill="url(#paint2_linear)"/>
<defs>
<linearGradient id="paint0_linear" x1="20.625" y1="100" x2="108.331" y2="72.5509" gradientUnits="userSpaceOnUse">
<stop stop-color="#FE5000"/>
<stop offset="1" stop-color="#FCA92A"/>
</linearGradient>
<linearGradient id="paint1_linear" x1="41.6753" y1="73.8551" x2="67.3417" y2="69.2362" gradientUnits="userSpaceOnUse">
<stop stop-color="#FE5000"/>
<stop offset="1" stop-color="#FCA92A"/>
</linearGradient>
<linearGradient id="paint2_linear" x1="47.68" y1="69.4284" x2="51.3501" y2="66.0319" gradientUnits="userSpaceOnUse">
<stop stop-color="#FE5000"/>
<stop offset="1" stop-color="#FCA92A"/>
</linearGradient>
</defs>
</svg>
