<svg width="66" height="66" viewBox="0 0 66 66" fill="none" xmlns="http://www.w3.org/2000/svg">
<path d="M50.3604 29.85L41.4004 18.65V9.69C41.4004 7.1 39.3004 5 36.7104 5H18.0904C15.5004 5 13.4004 7.1 13.4004 9.69V43.29C13.4004 45.88 15.5004 47.98 18.0904 47.98H26.4904V50.43C26.4904 56.31 31.2504 61.07 37.1304 61.07H51.6904C52.1804 61.07 52.6004 60.65 52.6004 60.16V36.36C52.6004 33.98 51.8304 31.67 50.3604 29.85ZM36.7104 6.89C38.2504 6.89 39.5104 8.15 39.5104 9.69V34.19L35.8004 30.2V6.89H36.7104ZM33.9104 28.17L32.3004 26.49C31.9504 26.14 31.5304 25.79 31.1104 25.58V6.89H33.9104V28.17ZM15.2904 43.29V9.69C15.2904 8.15 16.5504 6.89 18.0904 6.89H29.2904V25.16C28.1704 25.16 27.0504 25.58 26.2804 26.35L26.2104 26.42C24.6004 28.03 24.5304 30.55 25.9304 32.23L29.2904 36.22V46.09H18.0904C16.5504 46.09 15.2904 44.83 15.2904 43.29ZM34.0504 46.09H31.1804V38.46L33.9804 41.75V44.62C33.9104 45.11 33.9804 45.6 34.0504 46.09ZM50.7104 59.11H37.0604C32.2304 59.11 28.3104 55.19 28.3104 50.36V47.91H34.4004C35.4504 51.69 38.2504 54.84 42.0304 56.24L42.6604 54.49C38.5304 52.95 35.8004 48.96 35.8004 44.62V41.4C35.8004 41.19 35.7304 40.98 35.5904 40.77L27.3304 31.04C26.4904 30.06 26.5604 28.66 27.5404 27.68C28.0304 27.26 28.6604 26.98 29.2904 26.98C29.9204 26.98 30.5504 27.26 30.9704 27.75L43.5004 41.05L44.8304 39.79L41.3304 36.08V21.66L48.8204 31.04C50.0104 32.51 50.6404 34.4 50.6404 36.29V59.11H50.7104ZM19.9104 21.8H18.0204V9.69H19.9104V21.8ZM24.6004 17.11H22.7104V9.69H24.6004V17.11ZM24.6004 35.8H19.0004C18.5104 35.8 18.0904 36.22 18.0904 36.71V42.31C18.0904 42.8 18.5104 43.22 19.0004 43.22H24.6004C25.0904 43.22 25.5104 42.8 25.5104 42.31V36.71C25.5104 36.22 25.0904 35.8 24.6004 35.8ZM23.6904 41.4H19.9804V37.69H23.6904V41.4Z" fill="url(#paint0_linear_4697_2295)"/>
<defs>
<linearGradient id="paint0_linear_4697_2295" x1="13.4004" y1="61.07" x2="66.061" y2="24.2535" gradientUnits="userSpaceOnUse">
<stop stop-color="#FE5000"/>
<stop offset="1" stop-color="#FE9800"/>
</linearGradient>
</defs>
</svg>
