<svg width="100" height="100" viewBox="0 0 100 100" fill="none" xmlns="http://www.w3.org/2000/svg">
<circle cx="50" cy="50" r="49.5" stroke="url(#paint0_linear)"/>
<path fill-rule="evenodd" clip-rule="evenodd" d="M58.4634 21.9669V38.6225L54.8653 35.4736C54.7015 35.3303 54.4794 35.2498 54.2477 35.2498C54.0161 35.2498 53.794 35.3303 53.6302 35.4736C53.4664 35.6169 53.3744 35.8112 53.3744 36.0139C53.3744 36.2165 53.4664 36.4108 53.6302 36.5541L58.8638 41.1327C58.9449 41.2037 59.0411 41.2601 59.1471 41.2986C59.2531 41.3371 59.3667 41.3569 59.4814 41.3569C59.5961 41.3569 59.7097 41.3371 59.8157 41.2986C59.9217 41.2601 60.018 41.2037 60.099 41.1327L65.3326 36.5541C65.4964 36.4108 65.5885 36.2165 65.5885 36.0139C65.5885 35.8112 65.4964 35.6169 65.3326 35.4736C65.1689 35.3303 64.9467 35.2498 64.7151 35.2498C64.4834 35.2498 64.2613 35.3303 64.0975 35.4736L60.4991 38.6227L60.4991 21.9669C60.4991 21.7105 60.3919 21.4646 60.201 21.2832C60.0101 21.1019 59.7512 21 59.4813 21C59.2113 21 58.9524 21.1019 58.7615 21.2832C58.5707 21.4646 58.4634 21.7105 58.4634 21.9669ZM53.6522 44.4462V47.2988C60.0155 46.3908 68.6422 47.6629 68.6423 51.1201V66.1363C68.6423 68.7331 63.7435 70.1536 58.649 70.2936V72.8102C58.649 75.5483 53.2026 76.9813 47.8228 76.9813C42.443 76.9813 36.9967 75.5483 36.9967 72.8102V67.8047C36.9967 66.6661 37.941 65.7678 39.4239 65.1028C35.3699 64.6257 32 63.2837 32 61.1309V44.4462C32 38.9699 53.6522 38.9699 53.6522 44.4462ZM51.9867 44.5029C51.9867 43.6546 48.7532 42.0045 42.8261 42.0045C36.8991 42.0045 33.6655 43.6547 33.6656 44.5029C33.6656 45.3511 36.8992 47.0012 42.8261 47.0012C48.7531 47.0012 51.9867 45.3511 51.9867 44.5029ZM42.8261 48.6668C39.2657 48.6668 35.6863 48.0365 33.6655 46.8203L33.6656 49.4996C33.6656 50.3478 36.8991 51.9979 42.8261 51.9979C44.276 51.9979 45.6849 51.8673 46.99 51.6579V51.1652C46.99 49.4618 49.0926 48.2897 51.9867 47.6479V46.8203C49.9659 48.0365 46.3864 48.6668 42.8261 48.6668ZM49.1559 63.752C48.9789 63.6639 48.814 63.5712 48.6555 63.4759V63.7338C48.8229 63.7382 48.9892 63.745 49.1559 63.752ZM42.8261 53.6635C39.2657 53.6635 35.6863 53.0332 33.6655 51.817V55.329C33.6655 56.1773 36.899 57.8274 42.8261 57.8274C44.276 57.8274 45.6848 57.6968 46.9899 57.4874V53.3367C45.6688 53.5341 44.2676 53.6635 42.8261 53.6635ZM33.6655 57.6465V61.1585C33.6655 62.0067 36.8991 63.6569 42.8261 63.6569C44.276 63.6569 45.6848 63.5262 46.9899 63.3169V59.1662C45.6688 59.3635 44.2676 59.493 42.8261 59.493C39.2657 59.493 35.6863 58.8627 33.6655 57.6465ZM47.8228 75.3158C53.7498 75.3158 56.9834 73.6657 56.9834 72.8174L56.9833 70.2992C56.9451 70.298 56.9064 70.2973 56.8678 70.2965C56.8185 70.2956 56.7693 70.2947 56.7208 70.2928C54.6609 71.4086 51.2308 71.9846 47.8227 71.9846C44.2624 71.9846 40.683 71.3543 38.6622 70.1381V72.8174C38.6622 73.6657 41.8958 75.3158 47.8228 75.3158ZM38.6623 67.8207C38.6623 68.669 41.8957 70.3191 47.8228 70.3191C53.7498 70.3191 56.9834 68.669 56.9834 67.8207C56.9834 66.9725 53.7498 65.3224 47.8228 65.3224C41.8958 65.3224 38.6623 66.9725 38.6623 67.8207ZM58.6489 68.6247C64.0258 68.4746 66.9767 66.9612 66.9767 66.1552L66.9766 63.4759C64.9559 64.6921 61.3764 65.3224 57.8161 65.3224C57.4071 65.3224 56.9987 65.3113 56.5914 65.2948C57.8615 65.9393 58.6489 66.7803 58.6489 67.8207V68.6247ZM57.8162 63.6569C63.7431 63.6569 66.9767 62.0068 66.9767 61.1585V58.4792C64.956 59.6954 61.3765 60.3257 57.8162 60.3257C54.2558 60.3257 50.6763 59.6954 48.6556 58.4792V61.1585C48.6556 62.0068 51.8892 63.6569 57.8162 63.6569ZM57.8162 58.6602C63.7431 58.6602 66.9767 57.0101 66.9767 56.1618V53.4825C64.956 54.6988 61.3765 55.329 57.8162 55.329C54.2558 55.329 50.6763 54.6988 48.6556 53.4825V56.1618C48.6556 57.0101 51.8892 58.6602 57.8162 58.6602ZM48.6556 51.1652C48.6556 52.0134 51.8891 53.6635 57.8162 53.6635C63.7431 53.6635 66.9767 52.0134 66.9767 51.1652C66.9767 50.3169 63.7431 48.6668 57.8162 48.6668C51.8892 48.6668 48.6556 50.3169 48.6556 51.1652Z" fill="url(#paint1_linear)"/>
<defs>
<linearGradient id="paint0_linear" x1="20.625" y1="100" x2="108.331" y2="72.5509" gradientUnits="userSpaceOnUse">
<stop stop-color="#FE5000"/>
<stop offset="1" stop-color="#FCA92A"/>
</linearGradient>
<linearGradient id="paint1_linear" x1="39.5575" y1="76.9813" x2="73.4217" y2="70.0442" gradientUnits="userSpaceOnUse">
<stop stop-color="#FE5000"/>
<stop offset="1" stop-color="#FCA92A"/>
</linearGradient>
</defs>
</svg>
