<svg width="44" height="44" viewBox="0 0 44 44" fill="none" xmlns="http://www.w3.org/2000/svg">
<path fill-rule="evenodd" clip-rule="evenodd" d="M5.667 5H37.333C38.25 5 39 5.75 39 6.667V15C39 15.917 38.25 16.667 37.333 16.667H32.333V38.333C32.333 39.25 31.583 40 30.667 40H12.333C11.416 40 10.666 39.25 10.666 38.333V16.667H5.666C4.75 16.667 4 15.917 4 15V6.667C4 5.75 4.75 5 5.667 5ZM12.334 20.6V23H30.667V20.6H12.334ZM12.334 19H30.667V11.666H12.334V19ZM12.334 38.334V24.6H30.667V38.333L12.334 38.334ZM32.334 11.667V15H37.334V6.666H5.666V15H10.666V11.667H9C8.77932 11.6662 8.5679 11.5782 8.41185 11.4221C8.25581 11.2661 8.16779 11.0547 8.167 10.834C8.167 10.375 8.542 10 9 10H34C34.459 10 34.834 10.375 34.834 10.833C34.8335 11.054 34.7454 11.2659 34.5891 11.4221C34.4329 11.5784 34.221 11.6665 34 11.667H32.334ZM24.812 29.97V29H23.782V29.97H23.096V29H22.447V29.97H21V31.156H22.447V33.289H23.096V31.156H23.782V32.756C23.782 34.342 24.61 35.23 26.005 35.23C27.393 35.23 28.198 34.342 28.198 32.756V29.971H24.812V29.97ZM26.005 34.045C25.267 34.045 24.812 33.645 24.812 32.585V31.155H27.176V32.585C27.176 33.645 26.744 34.045 26.006 34.045H26.005Z" fill="url(#paint0_linear_8654_11289)"/>
<defs>
<linearGradient id="paint0_linear_8654_11289" x1="11.219" y1="40" x2="41.916" y2="30.393" gradientUnits="userSpaceOnUse">
<stop stop-color="#FE5000"/>
<stop offset="1" stop-color="#FCA92A"/>
</linearGradient>
</defs>
</svg>
