<svg width="44" height="44" viewBox="0 0 44 44" fill="none" xmlns="http://www.w3.org/2000/svg">
<path fill-rule="evenodd" clip-rule="evenodd" d="M14.593 2.52768C13.3053 2.52768 12.03 2.54006 10.7673 2.56482C9.76389 2.58449 8.81421 2.59641 7.91832 2.60057V14.1583H4.2651V16.1753H7.91832V20.6819H4.2651V22.6989H7.91832V27.2841H11.0536V22.6989H17.1672V20.6819H11.0536V16.1753H15.1895C18.1023 16.1753 20.2619 15.5366 21.7595 14.3519C23.2387 13.1818 23.989 11.5806 23.989 9.46333C23.989 7.08608 23.2137 5.40717 21.7436 4.29515C20.2364 3.15501 17.8916 2.52768 14.593 2.52768ZM10.7396 1.15253C12.0117 1.12758 13.2962 1.11511 14.593 1.11511C18.0293 1.11511 20.7356 1.76143 22.5958 3.1686C24.4932 4.60389 25.4016 6.74595 25.4016 9.46333C25.4016 11.9685 24.4868 13.9957 22.6359 15.4598C20.8033 16.9094 18.2908 17.5879 15.1895 17.5879H12.4662V19.2694H18.5797V24.1115H12.4662V28.6966H6.50576V24.1115H2.85254V19.2694H6.50576V17.5879H2.85254V12.7458H6.50576V1.18967H7.21204C8.30025 1.18967 9.47604 1.1773 10.7396 1.15253ZM11.7439 5.47679C13.9206 5.42732 15.0421 5.40205 15.0776 5.40205C16.7527 5.40205 18.1322 5.70632 19.0844 6.44121C20.1091 7.21214 20.5555 8.41451 20.5555 9.87338C20.5555 11.2407 20.0851 12.3676 19.0686 13.124C18.0914 13.8513 16.7104 14.1583 15.0404 14.1583H11.0536V5.49247L11.7439 5.47679ZM12.4662 6.87331V12.7458H15.0404C16.5762 12.7458 17.5997 12.4564 18.2253 11.9908C18.8118 11.5543 19.1429 10.8919 19.1429 9.87338C19.1429 8.70001 18.7953 7.99011 18.2325 7.56802L18.2239 7.56154C17.6354 7.10594 16.6308 6.81461 15.0776 6.81461C15.0797 6.81461 15.066 6.81491 15.0333 6.8156C15.0002 6.81631 14.9474 6.81744 14.8718 6.8191L14.2454 6.83308C13.8157 6.84273 13.2226 6.85614 12.4662 6.87331Z" fill="url(#paint0_linear_8654_11174)"/>
<path fill-rule="evenodd" clip-rule="evenodd" d="M18.3721 16.0128L24.049 14.0203L29.2452 24.1031L34.4071 14.0203H41.0006L34.4397 25.7627H38.4529V30.6421H32.0412V32.2863H38.4529V37.1657H32.0412V41.5272H26.0807V37.1657H19.7435V32.2863H26.0807V30.6421H19.7435V25.7627H23.6549L18.3721 16.0128ZM20.2097 16.4854L26.0422 27.1753H21.1561V29.2296H27.4933V33.6989H21.1561V35.7532H27.4933V40.1147H30.6286V35.7532H37.0404V33.6989H30.6286V29.2296H37.0404V27.1753H32.0324L38.5932 15.4328H35.2709L29.2494 27.1947L23.1878 15.4328L20.2097 16.4854Z" fill="url(#paint1_linear_8654_11174)"/>
<defs>
<linearGradient id="paint0_linear_8654_11174" x1="2.85254" y1="28.6966" x2="29.8837" y2="6.59756" gradientUnits="userSpaceOnUse">
<stop stop-color="#FE5000"/>
<stop offset="1" stop-color="#FE9800"/>
</linearGradient>
<linearGradient id="paint1_linear_8654_11174" x1="18.3721" y1="41.5272" x2="45.363" y2="19.3232" gradientUnits="userSpaceOnUse">
<stop stop-color="#FE5000"/>
<stop offset="1" stop-color="#FE9800"/>
</linearGradient>
</defs>
</svg>
