<svg width="44" height="44" viewBox="0 0 44 44" fill="none" xmlns="http://www.w3.org/2000/svg">
<g clip-path="url(#clip0_8654_11284)">
<path d="M41.4141 10.8006H36.3125L34.125 6.05726C33.9922 5.76621 33.6328 5.63248 33.3438 5.76621L31.2031 6.76523L24.7188 2.10052C24.4609 1.91173 24.0859 1.97466 23.8984 2.24212L17.8359 10.8006H2.58594C2.25781 10.8006 2 11.0681 2 11.3906V32.6059C2 32.9285 2.26563 33.1959 2.58594 33.1959H7.6875L9.875 37.9393C10.0078 38.2303 10.3594 38.3641 10.6563 38.2303L12.7969 37.2313L19.2813 41.896C19.5391 42.0848 19.9141 42.0219 20.1016 41.7544L26.1641 33.1959H41.4063C41.7344 33.1959 41.9922 32.9285 41.9922 32.6059V11.3906C42 11.0681 41.7344 10.8006 41.4141 10.8006ZM33.3047 7.08774L35.0156 10.8006H25.3516L33.3047 7.08774ZM24.5156 3.41419L29.9844 7.33946L22.5703 10.8006H19.2813L24.5156 3.41419ZM15.75 27.8783V31.9452C15.75 31.9688 15.75 31.9924 15.7578 32.016H12.2344C12.2344 31.9924 12.2422 31.9688 12.2422 31.9452V27.8783V26.777V11.9806H15.7578V26.777V27.8783H15.75ZM3.17188 32.016V11.9806H11.1406V26.777H7.625C7.32031 26.777 7.07813 27.0209 7.07813 27.3277C7.07813 27.6345 7.32031 27.8783 7.625 27.8783H11.1406V31.9452C11.1406 31.9688 11.1406 31.9924 11.1484 32.016H3.17188ZM10.6953 36.9088L8.98438 33.1959H18.6484L10.6953 36.9088ZM19.4844 40.5902L14.0156 36.6649L21.4297 33.2038H24.7188L19.4844 40.5902ZM40.8281 32.016H16.8438C16.8438 31.9924 16.8516 31.9688 16.8516 31.9452V27.8783H26.8516C27.1563 27.8783 27.3984 27.6345 27.3984 27.3277C27.3984 27.0209 27.1563 26.777 26.8516 26.777H16.8438V11.9806H18.1328H35.9297H40.8281V32.016ZM30.8359 18.9501H31.8594V15.3788H34.7969C36.4688 15.3788 37.4063 16.2284 37.4063 17.6915C37.4063 19.1625 36.4688 20.0356 34.7969 20.0356H33.1094V20.7593H35.3594V21.4437H33.1094V22.9698H31.8594V21.4437H30.8359V20.7593H31.8594V20.0356H30.8359V18.9501ZM34.6172 18.9501C35.7344 18.9501 36.1563 18.4702 36.1563 17.6915C36.1563 16.9127 35.7344 16.4565 34.6172 16.4565H33.1094V18.9501H34.6172Z" fill="url(#paint0_linear_8654_11284)"/>
</g>
<defs>
<linearGradient id="paint0_linear_8654_11284" x1="10.2484" y1="42.0048" x2="45.3274" y2="31.032" gradientUnits="userSpaceOnUse">
<stop stop-color="#FE5000"/>
<stop offset="1" stop-color="#FCA92A"/>
</linearGradient>
<clipPath id="clip0_8654_11284">
<rect width="40" height="40" fill="white" transform="translate(2 2)"/>
</clipPath>
</defs>
</svg>
