<svg width="66" height="66" fill="none" xmlns="http://www.w3.org/2000/svg"><g clip-path="url(#a)"><path fill-rule="evenodd" clip-rule="evenodd" d="m55.39 19.268 3.24-3.24c.385-.385.597-.896.597-1.44 0-.543-.212-1.054-.596-1.438l-1.51-1.51a2.037 2.037 0 0 0-2.877 0l-3.241 3.24a28.444 28.444 0 0 0-14.9-6.171V6.205h2.272a2 2 0 0 0 1.998-1.998V3.029C40.373 1.36 39.015 0 37.344 0h-8.688a3.033 3.033 0 0 0-3.03 3.03v1.177a2 2 0 0 0 1.999 1.998h2.273v2.504c-6.5.693-12.524 3.56-17.212 8.248C7.26 22.383 4.27 29.597 4.27 37.27a28.712 28.712 0 0 0 7.049 18.85l2.84 2.84A28.715 28.715 0 0 0 33 66c7.674 0 14.888-2.988 20.314-8.414 5.426-5.427 8.415-12.641 8.415-20.315 0-6.63-2.233-12.916-6.339-18.003ZM6.205 37.271c0 6.466 2.334 12.71 6.574 17.581l2.65 2.65A26.78 26.78 0 0 0 33 64.065c14.775 0 26.795-12.02 26.795-26.795 0-14.775-12.02-26.795-26.795-26.795-14.775 0-26.795 12.02-26.795 26.795Zm49.549-24.264a.101.101 0 0 0-.143 0l-3.14 3.141c.285.264.567.532.844.809.276.276.544.558.808.844l3.14-3.14c.02-.02.03-.044.03-.072a.098.098 0 0 0-.03-.072l-1.51-1.51ZM27.56 3.03v1.178c0 .035.029.064.065.064h10.75a.065.065 0 0 0 .065-.064V3.029c0-.604-.492-1.095-1.096-1.095h-8.688c-.604 0-1.096.491-1.096 1.095Zm4.271 3.176v2.362c.389-.015.778-.025 1.17-.025.39 0 .78.01 1.168.025V6.205H31.83Z" fill="url(#b)"/><path fill-rule="evenodd" clip-rule="evenodd" d="M48.853 18.646A24.466 24.466 0 0 0 33 12.813c-13.486 0-24.458 10.972-24.458 24.458 0 13.486 10.972 24.458 24.458 24.458 13.486 0 24.458-10.972 24.458-24.458 0-5.82-2.08-11.46-5.856-15.88l-2.749-2.745Zm6.671 18.625c0-5.36-1.915-10.554-5.392-14.624l-2.533-2.529a22.53 22.53 0 0 0-14.6-5.371c-12.419 0-22.523 10.104-22.523 22.524 0 12.42 10.104 22.524 22.524 22.524 12.42 0 22.524-10.104 22.524-22.524Z" fill="url(#c)"/><path d="M33.967 20.187V18.05a.967.967 0 1 0-1.934 0v2.136a.967.967 0 1 0 1.934 0Z" fill="url(#d)"/><path d="M32.033 54.355v2.136a.967.967 0 1 0 1.934 0v-2.136a.967.967 0 1 0-1.934 0Z" fill="url(#e)"/><path d="M50.084 38.238h2.136a.967.967 0 1 0 0-1.934h-2.136a.967.967 0 0 0 0 1.934Z" fill="url(#f)"/><path d="M13.78 36.304a.967.967 0 1 0 0 1.934h2.136a.967.967 0 1 0 0-1.934H13.78Z" fill="url(#g)"/><path d="m21.603 24.507-1.51-1.51a.967.967 0 1 0-1.367 1.367l1.51 1.51a.963.963 0 0 0 1.367 0 .966.966 0 0 0 0-1.367Z" fill="url(#h)"/><path d="M45.764 48.668a.967.967 0 1 0-1.367 1.367l1.51 1.51a.964.964 0 0 0 1.367 0 .967.967 0 0 0 0-1.367l-1.51-1.51Z" fill="url(#i)"/><path d="m20.236 48.668-1.51 1.51a.967.967 0 1 0 1.367 1.367l1.51-1.51a.967.967 0 1 0-1.367-1.367Z" fill="url(#j)"/><path d="M47.274 22.997a.967.967 0 0 0-1.367 0l-1.51 1.51a.967.967 0 1 0 1.367 1.367l1.51-1.51a.967.967 0 0 0 0-1.367Z" fill="url(#k)"/><path d="M35.336 40.975a.964.964 0 0 0 1.368 0 .967.967 0 0 0 0-1.367l-.937-.937a3.106 3.106 0 0 0-.573-3.594 3.107 3.107 0 0 0-3.594-.573l-6.977-6.977a.967.967 0 1 0-1.367 1.367l6.977 6.978a3.106 3.106 0 0 0 .573 3.593 3.107 3.107 0 0 0 3.593.573l.937.937Zm-3.162-2.878a1.16 1.16 0 0 1-.343-.826c0-.312.122-.606.343-.826.22-.221.514-.343.826-.343.312 0 .606.122.826.343.221.22.343.514.343.826 0 .312-.122.606-.343.826-.22.221-.514.343-.826.343a1.16 1.16 0 0 1-.826-.343Z" fill="url(#l)"/></g><defs><linearGradient id="b" x1="16.122" y1="66" x2="67.628" y2="51.967" gradientUnits="userSpaceOnUse"><stop stop-color="#FE5000"/><stop offset="1" stop-color="#FCA92A"/></linearGradient><linearGradient id="c" x1="18.631" y1="61.729" x2="61.533" y2="48.302" gradientUnits="userSpaceOnUse"><stop stop-color="#FE5000"/><stop offset="1" stop-color="#FCA92A"/></linearGradient><linearGradient id="d" x1="32.432" y1="21.154" x2="34.254" y2="20.883" gradientUnits="userSpaceOnUse"><stop stop-color="#FE5000"/><stop offset="1" stop-color="#FCA92A"/></linearGradient><linearGradient id="e" x1="32.432" y1="57.458" x2="34.254" y2="57.187" gradientUnits="userSpaceOnUse"><stop stop-color="#FE5000"/><stop offset="1" stop-color="#FCA92A"/></linearGradient><linearGradient id="f" x1="49.957" y1="38.238" x2="52.69" y2="36.438" gradientUnits="userSpaceOnUse"><stop stop-color="#FE5000"/><stop offset="1" stop-color="#FCA92A"/></linearGradient><linearGradient id="g" x1="13.652" y1="38.238" x2="16.385" y2="36.438" gradientUnits="userSpaceOnUse"><stop stop-color="#FE5000"/><stop offset="1" stop-color="#FCA92A"/></linearGradient><linearGradient id="h" x1="19.153" y1="26.157" x2="22.173" y2="25.212" gradientUnits="userSpaceOnUse"><stop stop-color="#FE5000"/><stop offset="1" stop-color="#FCA92A"/></linearGradient><linearGradient id="i" x1="44.824" y1="51.828" x2="47.844" y2="50.883" gradientUnits="userSpaceOnUse"><stop stop-color="#FE5000"/><stop offset="1" stop-color="#FCA92A"/></linearGradient><linearGradient id="j" x1="19.153" y1="51.828" x2="22.173" y2="50.883" gradientUnits="userSpaceOnUse"><stop stop-color="#FE5000"/><stop offset="1" stop-color="#FCA92A"/></linearGradient><linearGradient id="k" x1="44.824" y1="26.157" x2="47.844" y2="25.212" gradientUnits="userSpaceOnUse"><stop stop-color="#FE5000"/><stop offset="1" stop-color="#FCA92A"/></linearGradient><linearGradient id="l" x1="25.863" y1="41.258" x2="38.155" y2="37.411" gradientUnits="userSpaceOnUse"><stop stop-color="#FE5000"/><stop offset="1" stop-color="#FCA92A"/></linearGradient><clipPath id="a"><path fill="#fff" d="M0 0h66v66H0z"/></clipPath></defs></svg>