<svg width="28" height="28" viewBox="0 0 28 28" fill="none" xmlns="http://www.w3.org/2000/svg">
<path d="M14.1986 24.4014C8.02286 24.4014 3 19.3786 3 13.2029C3 7.02714 8.02286 2 14.1986 2C20.3743 2 25.3971 7.02286 25.3971 13.1986C25.3971 19.3743 20.3743 24.4014 14.1986 24.4014ZM14.1986 2.80143C8.46428 2.80143 3.79714 7.46857 3.79714 13.2029C3.79714 18.9371 8.46428 23.6043 14.1986 23.6043C19.9329 23.6043 24.6 18.9371 24.6 13.2029C24.6 7.46429 19.9329 2.80143 14.1986 2.80143ZM14.1986 22.4C9.12428 22.4 4.99714 18.2729 4.99714 13.1986C4.99714 8.12429 9.12428 4.00143 14.1986 4.00143C19.2729 4.00143 23.4 8.12857 23.4 13.2029C23.4 18.2771 19.2729 22.4 14.1986 22.4ZM14.1986 4.79857C9.56571 4.79857 5.79857 8.56571 5.79857 13.1986C5.79857 17.8314 9.56571 21.5986 14.1986 21.5986C18.8314 21.5986 22.5986 17.8314 22.5986 13.1986C22.5986 8.56571 18.8314 4.79857 14.1986 4.79857ZM14.1986 26C8.02286 26 3 20.9771 3 14.8014C3 14.5486 3.01286 14.2871 3.03429 13.9743C3.05143 13.7643 3.22286 13.6014 3.43286 13.6014C3.64286 13.6014 3.81857 13.7643 3.83143 13.9743C4.22571 19.37 8.78143 23.6 14.1986 23.6C19.6157 23.6 24.1714 19.37 24.5657 13.97C24.5829 13.76 24.7543 13.5971 24.9643 13.5971C25.1743 13.5971 25.35 13.76 25.3629 13.97C25.3843 14.2829 25.3971 14.5486 25.3971 14.7971C25.3971 20.9771 20.3743 26 14.1986 26ZM4.83857 19.3271C6.52286 22.7986 10.0886 25.1986 14.1986 25.1986C18.3086 25.1986 21.8743 22.7986 23.5586 19.3271C21.5443 22.3871 18.0771 24.3971 14.1986 24.3971C10.32 24.3971 6.85286 22.3871 4.83857 19.3271ZM15.4971 14.2529H13.7657V15.1229H16.4314V15.8557H13.7657V17.1371H12.7757V15.8557H11.8629V15.1229H12.7757V14.2529H11.8629V13.3486H12.7757V9.60714H15.4971C16.1486 9.60714 16.7057 9.83857 17.1643 10.2971C17.6229 10.7471 17.8543 11.2957 17.8543 11.9429C17.8543 12.59 17.6229 13.1343 17.1643 13.5886C16.7014 14.03 16.1486 14.2529 15.4971 14.2529ZM15.4971 10.5457H13.7657V13.3529H15.4971C15.8614 13.3529 16.1829 13.2157 16.4529 12.9457C16.7229 12.6586 16.86 12.3243 16.86 11.9471C16.86 11.5529 16.7271 11.2229 16.4614 10.9571C16.1914 10.6786 15.87 10.5457 15.4971 10.5457Z" fill="url(#paint0_linear)"/>
<defs>
<linearGradient id="paint0_linear" x1="7.61941" y1="26" x2="27.4919" y2="20.1959" gradientUnits="userSpaceOnUse">
<stop stop-color="#FE5000"/>
<stop offset="1" stop-color="#FCA92A"/>
</linearGradient>
</defs>
</svg>
