<svg width="32" height="32" viewBox="0 0 32 32" fill="none" xmlns="http://www.w3.org/2000/svg">
<path d="M26.8589 6.85693H5.1446C3.56976 6.85693 2.28748 8.13922 2.28748 9.71411V22.2855C2.28748 23.8604 3.56976 25.1426 5.1446 25.1426H26.8588C28.4337 25.1426 29.7159 23.8604 29.7159 22.2855V9.71411C29.716 8.13922 28.4337 6.85693 26.8589 6.85693ZM28.5732 22.2855C28.5732 23.2306 27.804 23.9998 26.8589 23.9998H5.1446C4.19944 23.9998 3.43031 23.2306 3.43031 22.2855V9.71411C3.43031 8.76895 4.19944 7.99982 5.1446 7.99982H26.8588C27.804 7.99982 28.5731 8.76895 28.5731 9.71411V22.2855H28.5732Z" fill="url(#paint0_linear_1_717)"/>
<path d="M29.1445 10.2857H2.85892C2.54349 10.2857 2.28748 10.5417 2.28748 10.8572V14.2857C2.28748 14.6011 2.54349 14.8572 2.85892 14.8572H29.1446C29.46 14.8572 29.716 14.6011 29.716 14.2857V10.8572C29.716 10.5417 29.46 10.2857 29.1445 10.2857ZM28.5732 13.7143H3.43031V11.4285H28.5731V13.7143H28.5732Z" fill="url(#paint1_linear_1_717)"/>
<path d="M13.1424 18.2855H6.28531C5.96988 18.2855 5.71387 18.5415 5.71387 18.857C5.71387 19.1724 5.96988 19.4284 6.28531 19.4284H13.1424C13.4579 19.4284 13.7139 19.1723 13.7139 18.8569C13.7139 18.5415 13.4579 18.2855 13.1424 18.2855Z" fill="url(#paint2_linear_1_717)"/>
<path d="M13.1424 20.5716H6.28531C5.96988 20.5716 5.71387 20.8276 5.71387 21.143C5.71387 21.4585 5.96988 21.7145 6.28531 21.7145H13.1424C13.4579 21.7145 13.7139 21.4585 13.7139 21.143C13.7138 20.8276 13.4579 20.5716 13.1424 20.5716Z" fill="url(#paint3_linear_1_717)"/>
<path d="M24.5709 17.1428H23.428C22.4829 17.1428 21.7137 17.9119 21.7137 18.857V19.9999C21.7137 20.945 22.4829 21.7142 23.428 21.7142H24.5709C25.516 21.7142 26.2851 20.945 26.2851 19.9999V18.857C26.2851 17.9119 25.516 17.1428 24.5709 17.1428ZM25.1423 19.9999C25.1423 20.3154 24.8863 20.5714 24.5709 20.5714H23.428C23.1126 20.5714 22.8566 20.3154 22.8566 19.9999V18.8571C22.8566 18.5417 23.1126 18.2857 23.428 18.2857H24.5709C24.8863 18.2857 25.1423 18.5417 25.1423 18.8571V19.9999Z" fill="url(#paint4_linear_1_717)"/>
<defs>
<linearGradient id="paint0_linear_1_717" x1="7.9446" y1="25.1426" x2="29.5876" y2="14.9824" gradientUnits="userSpaceOnUse">
<stop stop-color="#FE5000"/>
<stop offset="1" stop-color="#FCA92A"/>
</linearGradient>
<linearGradient id="paint1_linear_1_717" x1="7.94462" y1="14.8572" x2="13.7803" y2="3.89899" gradientUnits="userSpaceOnUse">
<stop stop-color="#FE5000"/>
<stop offset="1" stop-color="#FCA92A"/>
</linearGradient>
<linearGradient id="paint2_linear_1_717" x1="7.36387" y1="19.4284" x2="8.69219" y2="16.5183" gradientUnits="userSpaceOnUse">
<stop stop-color="#FE5000"/>
<stop offset="1" stop-color="#FCA92A"/>
</linearGradient>
<linearGradient id="paint3_linear_1_717" x1="7.36387" y1="21.7145" x2="8.69229" y2="18.8043" gradientUnits="userSpaceOnUse">
<stop stop-color="#FE5000"/>
<stop offset="1" stop-color="#FCA92A"/>
</linearGradient>
<linearGradient id="paint4_linear_1_717" x1="22.6566" y1="21.7142" x2="26.666" y2="20.4594" gradientUnits="userSpaceOnUse">
<stop stop-color="#FE5000"/>
<stop offset="1" stop-color="#FCA92A"/>
</linearGradient>
</defs>
</svg>
