<svg width="28" height="28" viewBox="0 0 28 28" fill="none" xmlns="http://www.w3.org/2000/svg">
<path fill-rule="evenodd" clip-rule="evenodd" d="M15.9391 0.24537C15.5719 -0.0896266 15.0026 -0.0635143 14.6676 0.303694C14.3326 0.670902 14.3587 1.24015 14.7259 1.57515C16.1928 2.91336 17.0899 4.7477 17.525 5.99093C17.3266 6.04702 17.1388 6.1155 16.9622 6.19289C16.4412 5.3707 15.6958 4.47452 14.9901 3.71635C14.4901 3.17917 13.9808 2.68026 13.5331 2.28672C13.1205 1.92394 12.665 1.56394 12.2949 1.40812C11.9985 1.28334 11.6294 1.18198 11.2461 1.14565C10.8715 1.11013 10.4065 1.12962 9.97082 1.32437C9.49731 1.53605 9.10937 1.93581 8.94733 2.5276C8.79775 3.07389 8.86297 3.70028 9.0716 4.37858C9.27466 5.03875 9.70502 5.64012 10.1876 6.15837C10.6783 6.68536 11.2743 7.18067 11.8846 7.62379C12.8322 8.31191 13.8607 8.90749 14.687 9.33087C14.5802 9.96211 14.5437 10.679 14.6412 11.3904C13.9171 12.1336 12.4859 13.2127 9.69569 13.9708C6.71753 14.7801 4.81517 16.6824 3.80938 18.7518C2.83589 20.7547 2.67273 22.983 3.25636 24.565C3.51414 25.6103 4.70339 26.9897 7.18573 26.9897H7.19216H7.1986H7.20506H7.21154H7.21803H7.22454H7.23107H7.23761H7.24418H7.25075H7.25735H7.26396H7.27058H7.27723H7.28389H7.29056H7.29725H7.30396H7.31069H7.31743H7.32418H7.33096H7.33775H7.34455H7.35137H7.35821H7.36507H7.37194H7.37882H7.38572H7.39264H7.39957H7.40652H7.41349H7.42047H7.42746H7.43448H7.4415H7.44855H7.45561H7.46268H7.46977H7.47687H7.484H7.49113H7.49828H7.50545H7.51263H7.51983H7.52704H7.53427H7.54151H7.54877H7.55605H7.56333H7.57064H7.57796H7.58529H7.59264H7.6H7.60738H7.61477H7.62218H7.6296H7.63704H7.64449H7.65196H7.65944H7.66694H7.67445H7.68197H7.68951H7.69707H7.70464H7.71222H7.71982H7.72743H7.73506H7.7427H7.75035H7.75802H7.7657H7.7734H7.78111H7.78884H7.79658H7.80433H7.8121H7.81988H7.82768H7.83549H7.84331H7.85115H7.859H7.86686H7.87474H7.88263H7.89054H7.89846H7.90639H7.91434H7.9223H7.93027H7.93826H7.94626H7.95427H7.9623H7.97034H7.9784H7.98646H7.99454H8.00264H8.01075H8.01887H8.027H8.03515H8.0433H8.05148H8.05966H8.06786H8.07607H8.0843H8.09253H8.10078H8.10905H8.11732H8.12561H8.13391H8.14222H8.15055H8.15889H8.16724H8.1756H8.18398H8.19237H8.20077H8.20918H8.21761H8.22604H8.23449H8.24296H8.25143H8.25992H8.26842H8.27693H8.28545H8.29399H8.30254H8.31109H8.31967H8.32825H8.33684H8.34545H8.35407H8.3627H8.37134H8.38H8.38866H8.39734H8.40603H8.41473H8.42344H8.43217H8.4409H8.44965H8.45841H8.46718H8.47596H8.48475H8.49355H8.50237H8.51119H8.52003H8.52888H8.53774H8.54661H8.55549H8.56438H8.57329H8.5822H8.59113H8.60006H8.60901H8.61797H8.62694H8.63592H8.64491H8.65391H8.66292H8.67194H8.68098H8.69002H8.69908H8.70814H8.71722H8.7263H8.7354H8.7445H8.75362H8.76275H8.77189H8.78103H8.79019H8.79936H8.80854H8.81773H8.82692H8.83613H8.84535H8.85458H8.86382H8.87307H8.88232H8.89159H8.90087H8.91016H8.91946H8.92876H8.93808H8.94741H8.95674H8.96609H8.97544H8.98481H8.99418H9.00357H9.01296H9.02236H9.03177H9.04119H9.05062H9.06006H9.06951H9.07897H9.08844H9.09792H9.1074H9.1169H9.1264H9.13591H9.14543H9.15496H9.1645H9.17405H9.18361H9.19317H9.20275H9.21233H9.22192H9.23152H9.24113H9.25075H9.26038H9.27001H9.27966H9.28931H9.29897H9.30864H9.31832H9.328H9.3377H9.3474H9.35711H9.36683H9.37655H9.38629H9.39603H9.40578H9.41554H9.42531H9.43508H9.44487H9.45466H9.46446H9.47426H9.48408H9.4939H9.50373H9.51357H9.52341H9.53327H9.54313H9.55299H9.56287H9.57275H9.58264H9.59254H9.60245H9.61236H9.62228H9.63221H9.64214H9.65209H9.66204H9.67199H9.68196H9.69193H9.7019H9.71189H9.72188H9.73188H9.74189H9.7519H9.76192H9.77195H9.78198H9.79202H9.80207H9.81212H9.82218H9.83225H9.84232H9.8524H9.86249H9.87258H9.88268H9.89279H9.9029H9.91302H9.92314H9.93328H9.94341H9.95356H9.96371H9.97387H9.98403H9.9942H10.0044H10.0146H10.0247H10.0349H10.0451H10.0553H10.0656H10.0758H10.086H10.0962H10.1065H10.1167H10.1269H10.1372H10.1474H10.1577H10.168H10.1783H10.1885H10.1988H10.2091H10.2194H10.2297H10.24H10.2503H10.2606H10.271H10.2813H10.2916H10.302H10.3123H10.3226H10.333H10.3434H10.3537H10.3641H10.3745H10.3848H10.3952H10.4056H10.416H10.4264H10.4368H10.4472H10.4576H10.468H10.4785H10.4889H10.4993H10.5097H10.5202H10.5306H10.5411H10.5515H10.562H10.5724H10.5829H10.5934H10.6038H10.6143H10.6248H10.6353H10.6458H10.6563H10.6668H10.6773H10.6878H10.6983H10.7088H10.7193H10.7298H10.7403H10.7509H10.7614H10.7719H10.7825H10.793H10.8036H10.8141H10.8247H10.8352H10.8458H10.8563H10.8669H10.8775H10.8881H10.8986H10.9092H10.9198H10.9304H10.941H10.9516H10.9622H10.9728H10.9834H10.994H11.0046H11.0152H11.0258H11.0364H11.047H11.0576H11.0683H11.0789H11.0895H11.1002H11.1108H11.1214H11.1321H11.1427H11.1534H11.164H11.1747H11.1853H11.196H11.2066H11.2173H11.2279H11.2386H11.2493H11.2599H11.2706H11.2813H11.292H11.3026H11.3133H11.324H11.3347H11.3454H11.356H11.3667H11.3774H11.3881H11.3988H11.4095H11.4202H11.4309H11.4416H11.4523H11.463H11.4737H11.4844H11.4951H11.5058H11.5165H11.5272H11.5379H11.5487H11.5594H11.5701H11.5808H11.5915H11.6022H11.613H11.6237H11.6344H11.6451H11.6559H11.6666H11.6773H11.688H11.6988H11.7095H11.7202H11.7309H11.7417H11.7524H11.7631H11.7739H11.7846H11.7953H11.8061H11.8168H11.8275H11.8383H11.849H11.8597H11.8705H11.8812H11.892H11.9027H11.9134H11.9242H11.9349H11.9456H11.9561H11.9665H11.977H11.9874H11.9978H12.0083H12.0187H12.0291H12.0396H12.05H12.0604H12.0709H12.0813H12.0917H12.1022H12.1126H12.123H12.1335H12.1439H12.1543H12.1648H12.1752H12.1856H12.1961H12.2065H12.2169H12.2274H12.2378H12.2482H12.2586H12.269H12.2795H12.2899H12.3003H12.3107H12.3212H12.3316H12.342H12.3524H12.3628H12.3732H12.3836H12.394H12.4045H12.4149H12.4253H12.4357H12.4461H12.4565H12.4669H12.4773H12.4877H12.4981H12.5085H12.5189H12.5293H12.5396H12.55H12.5604H12.5708H12.5812H12.5916H12.6019H12.6123H12.6227H12.6331H12.6434H12.6538H12.6642H12.6745H12.6849H12.6953H12.7056H12.716H12.7263H12.7367H12.747H12.7574H12.7677H12.7781H12.7884H12.7987H12.8091H12.8194H12.8297H12.8401H12.8504H12.8607H12.871H12.8814H12.8917H12.902H12.9123H12.9226H12.9329H12.9432H12.9535H12.9638H12.9741H12.9844H12.9947H13.0049H13.0152H13.0255H13.0358H13.046H13.0563H13.0666H13.0768H13.0871H13.0973H13.1076H13.1178H13.1281H13.1383H13.1485H13.1588H13.169H13.1792H13.1895H13.1997H13.2099H13.2201H13.2303H13.2405H13.2507H13.2609H13.2711H13.2813H13.2915H13.3017H13.3118H13.322H13.3322H13.3423H13.3525H13.3627H13.3728H13.383H13.3931H13.4032H13.4134H13.4235H13.4336H13.4438H13.4539H13.464H13.4741H13.4842H13.4943H13.5044H13.5145H13.5246H13.5347H13.5447H13.5548H13.5649H13.5749H13.585H13.5951H13.6051H13.6151H13.6252H13.6352H13.6453H13.6553H13.6653H13.6753H13.6853H13.6953H13.7053H13.7153H13.7253H13.7353H13.7453H13.7552H13.7652H13.7752H13.7851H13.7951H13.805H13.815H13.8249H13.8348H13.8448H13.8547H13.8646H13.8745H13.8844H13.8943H13.9042H13.9141H13.9239H13.9338H13.9437H13.9535H13.9634H13.9732H13.9831H13.9929H14.0028H14.0126H14.0224H14.0322H14.042H14.0518H14.0616H14.0714H14.0812H14.091H14.1007H14.1105H14.1202H14.13H14.1397H14.1495H14.1592H14.1689H14.1786H14.1884H14.1981H14.2078H14.2174H14.2271H14.2368H14.2465H14.2561H14.2658H14.2754H14.2851H14.2947H14.3043H14.314H14.3236H14.3332H14.3428H14.3524H14.362H14.3716H14.3811H14.3907H14.4002H14.4098H14.4193H14.4289H14.4384H14.4479H14.4574H14.4669H14.4764H14.4859H14.4954H14.5049H14.5144H14.5238H14.5333H14.5427H14.5521H14.5616H14.571H14.5804H14.5898H14.5992H14.6086H14.618H14.6274H14.6367H14.6461H14.6554H14.6648H14.6741H14.6834H14.6927H14.702H14.7113H14.7206H14.7299H14.7392H14.7485H14.7577H14.767H14.7762H14.7854H14.7947H14.8039H14.8131H14.8223H14.8315H14.8407H14.8498H14.859H14.8682H14.8773H14.8864H14.8956H14.9047H14.9138H14.9229H14.932H14.9411H14.9501H14.9592H14.9683H14.9773H14.9863H14.9954H15.0044H15.0134H15.0224H15.0314H15.0404H15.0494H15.0583H15.0673H15.0762H15.0851H15.0941H15.103H15.1119H15.1208H15.1297H15.1386H15.1474H15.1563H15.1651H15.174H15.1828H15.1916H15.2004H15.2092H15.218H15.2268H15.2355H15.2443H15.2531H15.2618H15.2705H15.2792H15.2879H15.2966H15.3053H15.314H15.3227H15.3313H15.34H15.3486H15.3572H15.3658H15.3744H15.383H15.3916H15.4002H15.4088H15.4173H15.4258H15.4344H15.4429H15.4514H15.4599H15.4684H15.4769H15.4853H15.4938H15.5022H15.5106H15.5191H15.5275H15.5359H15.5443H15.5526H15.561H15.5694H15.5777H15.586H15.5943H15.6027H15.6109H15.6192H15.6275H15.6358H15.644H15.6523H15.6605H15.6687H15.6769H15.6851H15.6933H15.7015H15.7096H15.7178H15.7259H15.734H15.7421H15.7502H15.7583H15.7664H15.7745H15.7825H15.7905H15.7986H15.8066H15.8146H15.8226H15.8306H15.8385H15.8465H15.8544H15.8623H15.8703H15.8782H15.8861H15.8939H15.9018H15.9097H15.9175H15.9253H15.9332H15.941H15.9487H15.9565H15.9643H15.972H15.9798H15.9875H15.9952H16.0029H16.0106H16.0183H16.026H16.0336H16.0413H16.0489H16.0565H16.0641H16.0717H16.0793H16.0868H16.0944H16.1019H16.1094H16.1169H16.1244H16.1319H16.1394H16.1468H16.1543H16.1617H16.1691H16.1765H16.1839H16.1912H16.1986H16.2059H16.2133H16.2206H16.2279H16.2352H16.2425H16.2497H16.257H16.2642H16.2714H16.2786H16.2858H16.293H16.3002H16.3073H16.3145H16.3216H16.3287H16.3358H16.3429H16.3499H16.357H16.364H16.371H16.378H16.385H16.392H16.399H16.4059H16.4129H16.4198H16.4267H16.4336H16.4405H16.4473H16.4542H16.461H16.4678H16.4746H16.4814H16.4882H16.4949H16.5017H16.5084H16.5151H16.5218H16.5285H16.5352H16.5418H16.5485H16.5551H16.5617H16.5683H16.5749H16.5814H16.588H16.5945H16.601H16.6075H16.614C17.1111 26.9897 17.514 26.5868 17.514 26.0897C17.514 25.5927 17.1111 25.1897 16.614 25.1897H16.6075H16.601H16.5945H16.588H16.5814H16.5749H16.5683H16.5617H16.5551H16.5485H16.5418H16.5352H16.5285H16.5218H16.5151H16.5084H16.5017H16.4949H16.4882H16.4814H16.4746H16.4678H16.461H16.4542H16.4473H16.4405H16.4336H16.4267H16.4198H16.4129H16.4059H16.399H16.392H16.385H16.378H16.371H16.364H16.357H16.3499H16.3429H16.3358H16.3287H16.3216H16.3145H16.3073H16.3002H16.293H16.2858H16.2786H16.2714H16.2642H16.257H16.2497H16.2425H16.2352H16.2279H16.2206H16.2133H16.2059H16.1986H16.1912H16.1839H16.1765H16.1691H16.1617H16.1543H16.1468H16.1394H16.1319H16.1244H16.1169H16.1094H16.1019H16.0944H16.0868H16.0793H16.0717H16.0641H16.0565H16.0489H16.0413H16.0336H16.026H16.0183H16.0106H16.0029H15.9952H15.9875H15.9798H15.972H15.9643H15.9565H15.9487H15.941H15.9332H15.9253H15.9175H15.9097H15.9018H15.8939H15.8861H15.8782H15.8703H15.8623H15.8544H15.8465H15.8385H15.8306H15.8226H15.8146H15.8066H15.7986H15.7905H15.7825H15.7745H15.7664H15.7583H15.7502H15.7421H15.734H15.7259H15.7178H15.7096H15.7015H15.6933H15.6851H15.6769H15.6687H15.6605H15.6523H15.644H15.6358H15.6275H15.6192H15.6109H15.6027H15.5943H15.586H15.5777H15.5694H15.561H15.5526H15.5443H15.5359H15.5275H15.5191H15.5106H15.5022H15.4938H15.4853H15.4769H15.4684H15.4599H15.4514H15.4429H15.4344H15.4258H15.4173H15.4088H15.4002H15.3916H15.383H15.3744H15.3658H15.3572H15.3486H15.34H15.3313H15.3227H15.314H15.3053H15.2966H15.2879H15.2792H15.2705H15.2618H15.2531H15.2443H15.2355H15.2268H15.218H15.2092H15.2004H15.1916H15.1828H15.174H15.1651H15.1563H15.1474H15.1386H15.1297H15.1208H15.1119H15.103H15.0941H15.0851H15.0762H15.0673H15.0583H15.0494H15.0404H15.0314H15.0224H15.0134H15.0044H14.9954H14.9863H14.9773H14.9683H14.9592H14.9501H14.9411H14.932H14.9229H14.9138H14.9047H14.8956H14.8864H14.8773H14.8682H14.859H14.8498H14.8407H14.8315H14.8223H14.8131H14.8039H14.7947H14.7854H14.7762H14.767H14.7577H14.7485H14.7392H14.7299H14.7206H14.7113H14.702H14.6927H14.6834H14.6741H14.6648H14.6554H14.6461H14.6367H14.6274H14.618H14.6086H14.5992H14.5898H14.5804H14.571H14.5616H14.5521H14.5427H14.5333H14.5238H14.5144H14.5049H14.4954H14.4859H14.4764H14.4669H14.4574H14.4479H14.4384H14.4289H14.4193H14.4098H14.4002H14.3907H14.3811H14.3716H14.362H14.3524H14.3428H14.3332H14.3236H14.314H14.3043H14.2947H14.2851H14.2754H14.2658H14.2561H14.2495C14.2868 25.1307 14.3231 25.0704 14.3583 25.0086C14.9293 24.0056 15.1674 22.6829 14.6372 21.1114C14.3495 20.0942 13.1033 18.7327 10.5876 18.6907C10.0906 18.6824 9.681 19.0786 9.67271 19.5756C9.66443 20.0726 10.0606 20.4822 10.5576 20.4905C12.4066 20.5213 12.8695 21.4659 12.906 21.6046C12.9116 21.6257 12.9179 21.6466 12.9249 21.6672C13.298 22.7565 13.116 23.5525 12.794 24.1181C12.5004 24.6338 12.0669 24.9951 11.7279 25.1897H11.7202H11.7095H11.6988H11.688H11.6773H11.6666H11.6559H11.6451H11.6344H11.6237H11.613H11.6022H11.5915H11.5808H11.5701H11.5594H11.5487H11.5379H11.5272H11.5165H11.5058H11.4951H11.4844H11.4737H11.463H11.4523H11.4416H11.4309H11.4202H11.4095H11.3988H11.3881H11.3774H11.3667H11.356H11.3454H11.3347H11.324H11.3133H11.3026H11.292H11.2813H11.2706H11.2599H11.2493H11.2386H11.2279H11.2173H11.2066H11.196H11.1853H11.1747H11.164H11.1534H11.1427H11.1321H11.1214H11.1108H11.1002H11.0895H11.0789H11.0683H11.0576H11.047H11.0364H11.0258H11.0152H11.0046H10.994H10.9834H10.9728H10.9622H10.9516H10.941H10.9304H10.9198H10.9092H10.8986H10.8881H10.8775H10.8669H10.8563H10.8458H10.8352H10.8247H10.8141H10.8036H10.793H10.7825H10.7719H10.7614H10.7509H10.7403H10.7298H10.7193H10.7088H10.6983H10.6878H10.6773H10.6668H10.6563H10.6458H10.6353H10.6248H10.6143H10.6038H10.5934H10.5829H10.5724H10.562H10.5515H10.5411H10.5306H10.5202H10.5097H10.4993H10.4889H10.4785H10.468H10.4576H10.4472H10.4368H10.4264H10.416H10.4056H10.3952H10.3848H10.3745H10.3641H10.3537H10.3434H10.333H10.3226H10.3123H10.302H10.2916H10.2813H10.271H10.2606H10.2503H10.24H10.2297H10.2194H10.2091H10.1988H10.1885H10.1783H10.168H10.1577H10.1474H10.1372H10.1269H10.1167H10.1065H10.0962H10.086H10.0758H10.0656H10.0553H10.0451H10.0349H10.0247H10.0146H10.0044H9.9942H9.98403H9.97387H9.96371H9.95356H9.94341H9.93328H9.92314H9.91302H9.9029H9.89279H9.88268H9.87258H9.86249H9.8524H9.84232H9.83225H9.82218H9.81212H9.80207H9.79202H9.78198H9.77195H9.76192H9.7519H9.74189H9.73188H9.72188H9.71189H9.7019H9.69193H9.68196H9.67199H9.66204H9.65209H9.64214H9.63221H9.62228H9.61236H9.60245H9.59254H9.58264H9.57275H9.56287H9.55299H9.54313H9.53327H9.52341H9.51357H9.50373H9.4939H9.48408H9.47426H9.46446H9.45466H9.44487H9.43508H9.42531H9.41554H9.40578H9.39603H9.38629H9.37655H9.36683H9.35711H9.3474H9.3377H9.328H9.31832H9.30864H9.29897H9.28931H9.27966H9.27001H9.26038H9.25075H9.24113H9.23152H9.22192H9.21233H9.20275H9.19317H9.18361H9.17405H9.1645H9.15496H9.14543H9.13591H9.1264H9.1169H9.1074H9.09792H9.08844H9.07897H9.06951H9.06006H9.05062H9.04119H9.03177H9.02236H9.01296H9.00357H8.99418H8.98481H8.97544H8.96609H8.95674H8.94741H8.93808H8.92876H8.91946H8.91016H8.90087H8.89159H8.88232H8.87307H8.86382H8.85458H8.84535H8.83613H8.82692H8.81773H8.80854H8.79936H8.79019H8.78103H8.77189H8.76275H8.75362H8.7445H8.7354H8.7263H8.71722H8.70814H8.69908H8.69002H8.68098H8.67194H8.66292H8.65391H8.64491H8.63592H8.62694H8.61797H8.60901H8.60006H8.59113H8.5822H8.57329H8.56438H8.55549H8.54661H8.53774H8.52888H8.52003H8.51119H8.50237H8.49355H8.48475H8.47596H8.46718H8.45841H8.44965H8.4409H8.43217H8.42344H8.41473H8.40603H8.39734H8.38866H8.38H8.37134H8.3627H8.35407H8.34545H8.33684H8.32825H8.31967H8.31109H8.30254H8.29399H8.28545H8.27693H8.26842H8.25992H8.25143H8.24296H8.23449H8.22604H8.21761H8.20918H8.20077H8.19237H8.18398H8.1756H8.16724H8.15889H8.15055H8.14222H8.13391H8.12561H8.11732H8.10905H8.10078H8.09253H8.0843H8.07607H8.06786H8.05966H8.05148H8.0433H8.03515H8.027H8.01887H8.01075H8.00264H7.99454H7.98646H7.9784H7.97034H7.9623H7.95427H7.94626H7.93826H7.93027H7.9223H7.91434H7.90639H7.89846H7.89054H7.88263H7.87474H7.86686H7.859H7.85115H7.84331H7.83549H7.82768H7.81988H7.8121H7.80433H7.79658H7.78884H7.78111H7.7734H7.7657H7.75802H7.75035H7.7427H7.73506H7.72743H7.71982H7.71222H7.70464H7.69707H7.68951H7.68197H7.67445H7.66694H7.65944H7.65196H7.64449H7.63704H7.6296H7.62218H7.61477H7.60738H7.6H7.59264H7.58529H7.57796H7.57064H7.56333H7.55605H7.54877H7.54151H7.53427H7.52704H7.51983H7.51263H7.50545H7.49828H7.49113H7.484H7.47687H7.46977H7.46268H7.45561H7.44855H7.4415H7.43448H7.42746H7.42047H7.41349H7.40652H7.39957H7.39264H7.38572H7.37882H7.37194H7.36507H7.35821H7.35137H7.34455H7.33775H7.33096H7.32418H7.31743H7.31069H7.30396H7.29725H7.29056H7.28389H7.27723H7.27058H7.26396H7.25735H7.25075H7.24418H7.23761H7.23107H7.22454H7.21803H7.21154H7.20506H7.1986H7.19216H7.18573C5.41127 25.1897 5.02975 24.2609 5.00178 24.1243C4.99176 24.0753 4.97768 24.0273 4.95969 23.9807C4.56474 22.9574 4.61036 21.2215 5.42829 19.5386C6.22706 17.8952 7.73397 16.3692 10.1677 15.7079C12.6614 15.0302 14.2589 14.0923 15.2839 13.2419C15.6594 13.8413 16.2119 14.3615 16.9971 14.6921C17.7593 15.0131 18.5369 15.1704 19.2867 15.2084C19.3388 15.7475 19.3763 16.3251 19.3708 16.8817C19.3622 17.757 19.2463 18.439 19.028 18.8393C18.0916 20.556 18.0266 21.925 18.3445 23.3558C18.5761 24.3981 19.0414 25.815 19.2422 26.3875C19.3687 26.7482 19.7092 26.9897 20.0915 26.9897H21.9692C22.4662 26.9897 22.8692 26.5868 22.8692 26.0897C22.8692 25.5927 22.4662 25.1897 21.9692 25.1897H20.7378C20.5255 24.5396 20.253 23.6462 20.1016 22.9653C19.8704 21.9246 19.8969 21.0052 20.6082 19.7012C21.0489 18.8932 21.1615 17.8343 21.1707 16.8994C21.1768 16.2788 21.1367 15.6495 21.0826 15.0793C22.5233 14.8003 23.7885 14.1286 24.4453 13.3404C25.1846 12.4533 25.2087 11.2397 24.7032 10.0951C24.1995 8.95444 23.15 7.79226 21.5459 6.74684C20.8002 6.26085 20.0721 5.98806 19.3817 5.88152C18.9425 4.42638 17.8748 2.01128 15.9391 0.24537ZM13.6725 4.94272C14.4134 5.73875 15.0893 6.57961 15.4977 7.2445C15.4676 7.27872 15.4387 7.3129 15.4112 7.34697C15.3958 7.36603 15.3812 7.38571 15.3674 7.40597C15.327 7.46527 15.2881 7.52842 15.2507 7.59481C14.5438 7.21964 13.7091 6.72412 12.9422 6.16725C12.3893 5.76584 11.891 5.34638 11.5049 4.93174C11.1107 4.50835 10.8818 4.14122 10.7921 3.84941C10.6347 3.33774 10.6599 3.08882 10.6834 3.00295C10.6921 2.97125 10.6929 2.97108 10.699 2.9697C10.7006 2.96933 10.7027 2.96886 10.7054 2.96764C10.756 2.94502 10.8774 2.91876 11.0762 2.93761C11.2665 2.95565 11.4579 3.00876 11.5964 3.06706C11.5961 3.06694 11.5962 3.06697 11.5966 3.06716C11.5995 3.06854 11.6202 3.07842 11.6615 3.10386C11.7062 3.13137 11.7636 3.16999 11.8337 3.22142C11.9744 3.3246 12.1471 3.4649 12.3448 3.63865C12.7395 3.98562 13.2057 4.44114 13.6725 4.94272ZM18.6803 7.62871C19.1893 7.62513 19.823 7.77249 20.5631 8.25486C21.9788 9.17746 22.7367 10.0978 23.0566 10.8222C23.3747 11.5426 23.2387 11.9767 23.0625 12.1881C22.6681 12.6613 21.5033 13.3053 20.0308 13.4048C19.2658 13.4565 18.4618 13.3558 17.6956 13.0332C17.0185 12.7481 16.6486 12.1942 16.4825 11.4661C16.302 10.6751 16.391 9.76265 16.5852 9.08052C16.6747 8.76625 16.7715 8.55436 16.8369 8.44756C16.9114 8.36068 17.0187 8.256 17.1581 8.15023C17.5215 7.87442 18.0452 7.63318 18.6803 7.62871ZM18.9246 11.3002C19.4429 11.3002 19.8631 10.88 19.8631 10.3617C19.8631 9.84337 19.4429 9.4232 18.9246 9.4232C18.4063 9.4232 17.9861 9.84337 17.9861 10.3617C17.9861 10.88 18.4063 11.3002 18.9246 11.3002Z" fill="url(#paint0_linear_6499_2434)"/>
<defs>
<linearGradient id="paint0_linear_6499_2434" x1="7.48209" y1="26.9897" x2="27.4743" y2="21.8577" gradientUnits="userSpaceOnUse">
<stop stop-color="#FE5000"/>
<stop offset="1" stop-color="#FCA92A"/>
</linearGradient>
</defs>
</svg>
