<svg width="100" height="100" viewBox="0 0 100 100" fill="none" xmlns="http://www.w3.org/2000/svg">
<circle cx="50" cy="50" r="49.5" stroke="url(#paint0_linear)"/>
<path d="M32.3768 67.419H57.7426V69.9517C57.7448 71.6346 59.12 72.9982 60.8168 73H69.9257C71.623 72.9982 72.9982 71.6346 73 69.9517V63.4411C72.9987 62.1657 72.1976 61.0257 70.9914 60.582V56.8507C70.9932 55.4835 70.4928 54.1623 69.5842 53.1338V43.0272C69.5806 40.0839 67.1748 37.6989 64.2064 37.6958H63.9676V37.5618C63.9645 34.6184 61.5592 32.233 58.5908 32.2295H49.9956C49.8977 32.2295 49.8047 32.1889 49.7389 32.1175L46.6202 28.7349C45.6012 27.6311 44.161 27.0013 42.6515 27H32.3768C29.4084 27.0035 27.0036 29.3881 27 32.3309V62.0876C27.0036 65.0305 29.4084 67.4155 32.3768 67.419ZM71.4059 69.9517C71.4051 70.7623 70.7428 71.4185 69.9257 71.4194H60.8168C59.9998 71.4185 59.3375 70.7623 59.3366 69.9517V63.4411C59.3375 62.631 59.9998 61.9747 60.8168 61.9734H69.9257C70.7428 61.9747 71.4051 62.631 71.4059 63.4411V69.9517ZM69.3974 56.8507V60.3928H61.3457V56.8507C61.3457 54.6205 63.1514 52.8057 65.3713 52.8057C67.5911 52.8057 69.3974 54.6205 69.3974 56.8507ZM64.2064 39.2764C66.2951 39.2786 67.9874 40.9562 67.9901 43.0272V51.8756C67.1846 51.4478 66.2848 51.2247 65.3713 51.2251C62.2726 51.2251 59.7516 53.7486 59.7516 56.8507V60.582C58.5454 61.0257 57.7444 62.1657 57.7426 63.4411V65.8384H36.676C37.6754 64.8418 38.2367 63.4936 38.2358 62.0876V43.0272C38.238 40.9566 39.9299 39.279 42.0181 39.2764H64.2064ZM28.5941 32.3309C28.5967 30.2608 30.2886 28.5828 32.3768 28.5806H42.6515C43.7136 28.5815 44.7264 29.0247 45.4438 29.8013L48.5607 33.1821C48.9285 33.5821 49.4494 33.8101 49.9956 33.8101H58.5908C60.6794 33.8127 62.3713 35.4908 62.3731 37.5618V37.6958H42.0186C39.0506 37.6993 36.6453 40.0843 36.6422 43.0272V62.0876C36.6395 64.1586 34.9467 65.8362 32.8585 65.8384H32.3768C30.2886 65.8358 28.5963 64.1582 28.5941 62.0876V32.3309Z" fill="url(#paint1_linear)"/>
<defs>
<linearGradient id="paint0_linear" x1="20.625" y1="100" x2="108.331" y2="72.5509" gradientUnits="userSpaceOnUse">
<stop stop-color="#FE5000"/>
<stop offset="1" stop-color="#FCA92A"/>
</linearGradient>
<linearGradient id="paint1_linear" x1="36.4875" y1="73" x2="76.8323" y2="60.3734" gradientUnits="userSpaceOnUse">
<stop stop-color="#FE5000"/>
<stop offset="1" stop-color="#FCA92A"/>
</linearGradient>
</defs>
</svg>
