<svg width="100" height="100" viewBox="0 0 100 100" fill="none" xmlns="http://www.w3.org/2000/svg">
<circle cx="50" cy="50" r="49.5" stroke="url(#paint0_linear)"/>
<path d="M66.7407 36.95L69.5089 34.1818L65.818 30.4909L62.6543 33.6546C59.227 31.5455 55.1407 30.2273 50.9225 30.0955V28.25H56.1952V25.6137C56.1952 24.1637 55.0089 22.9773 53.5589 22.9773H46.5725C45.1225 22.9773 43.9361 24.1637 43.9361 25.6137V28.25H49.2089V29.9637C44.8589 30.2273 40.7725 31.5455 37.3452 33.6546L34.1816 30.4909L30.4907 34.1818L33.2589 36.95C29.0407 41.1682 26.5361 46.9682 26.5361 53.4273C26.5361 66.3455 37.0816 76.8909 49.9998 76.8909C62.918 76.8909 73.4634 66.3455 73.4634 53.4273C73.4634 47.1 70.827 41.3 66.7407 36.95ZM65.818 32.9955L67.0043 34.1818L65.4225 35.7637C65.027 35.3682 64.4998 34.9727 64.1043 34.7091L65.818 32.9955ZM45.6498 26.5364V25.6137C45.6498 25.0864 46.0452 24.6909 46.5725 24.6909H53.5589C54.0861 24.6909 54.4816 25.0864 54.4816 25.6137V26.5364H45.6498ZM32.9952 34.1818L34.1816 32.9955L35.8952 34.7091C35.368 35.1046 34.9725 35.3682 34.577 35.7637L32.9952 34.1818ZM49.9998 75.1773C38.0043 75.1773 28.2498 65.4227 28.2498 53.4273C28.2498 41.4318 38.0043 31.8091 49.9998 31.8091C61.9952 31.8091 71.7498 41.5637 71.7498 53.5591C71.7498 65.4227 61.9952 75.1773 49.9998 75.1773ZM49.9998 35.2364C39.9816 35.2364 31.8089 43.4091 31.8089 53.4273C31.8089 63.4455 39.9816 71.6182 49.9998 71.6182C60.018 71.6182 68.1907 63.4455 68.1907 53.4273C68.1907 43.4091 60.018 35.2364 49.9998 35.2364ZM50.9225 69.9046V68.1909H49.2089V69.9046C40.7725 69.5091 34.0498 62.7864 33.5225 54.35H35.2361V52.6364H33.5225C33.918 44.2 40.7725 37.4773 49.077 37.0818V38.7955H50.7907V37.0818C59.227 37.4773 66.0816 44.2 66.477 52.6364H64.7634V54.35H66.477C66.0816 62.7864 59.227 69.5091 50.9225 69.9046ZM49.9998 50C48.0225 50 46.5725 51.5818 46.5725 53.4273C46.5725 55.4046 48.1543 56.8546 49.9998 56.8546C51.977 56.8546 53.427 55.2727 53.427 53.4273C53.427 51.5818 51.977 50 49.9998 50ZM49.9998 55.2727C49.077 55.2727 48.2861 54.4818 48.2861 53.5591C48.2861 52.6364 49.077 51.8455 49.9998 51.8455C50.9225 51.8455 51.7134 52.6364 51.7134 53.5591C51.7134 54.4818 50.9225 55.2727 49.9998 55.2727ZM50.9225 41.3H49.2089V49.0773H50.9225V41.3ZM45.6498 52.6364H40.377V54.35H45.6498V52.6364Z" fill="url(#paint1_linear)"/>
<defs>
<linearGradient id="paint0_linear" x1="20.625" y1="100" x2="108.331" y2="72.5509" gradientUnits="userSpaceOnUse">
<stop stop-color="#FE5000"/>
<stop offset="1" stop-color="#FCA92A"/>
</linearGradient>
<linearGradient id="paint1_linear" x1="36.2149" y1="76.8909" x2="78.2825" y2="65.4312" gradientUnits="userSpaceOnUse">
<stop stop-color="#FE5000"/>
<stop offset="1" stop-color="#FCA92A"/>
</linearGradient>
</defs>
</svg>
