<svg width="37" height="24" viewBox="0 0 37 24" fill="none" xmlns="http://www.w3.org/2000/svg">
<g clip-path="url(#clip0_9779_12923)">
<path d="M32.2671 11.6187C32.2671 5.67202 25.2066 0.851318 16.4969 0.851318C7.78729 0.851318 0.72673 5.67202 0.72673 11.6187C0.72673 17.5653 7.78729 22.386 16.4969 22.386C20.4429 22.386 24.0503 21.3965 26.8161 19.7611" stroke="black"/>
<path d="M31.7303 22.4541C31.2247 21.9048 30.4562 21.402 29.7138 20.827C29.0209 20.2904 28.3735 19.6353 27.8681 18.9576M26.2015 16.0174C26.746 16.7604 27.2183 17.49 27.3998 17.9875C27.5183 18.3122 27.679 18.6391 27.8681 18.9576M26.2015 16.0174C25.5325 15.1045 24.7544 14.1715 24.2726 13.6243C24.0354 13.2623 23.7033 12.4071 24.2726 11.8828C24.9842 11.2274 25.7894 11.6956 26.4073 12.3135C26.9017 12.8079 28.641 14.7004 29.4462 15.5306C29.2652 15.3059 29.2287 14.4427 29.4462 13.4228L27.7056 12.7293L28.4319 10.636M26.2015 16.0174C25.8125 16.2548 25.4553 16.4104 25.1668 16.4644M25.1668 16.4644C24.9137 16.5117 24.7134 16.4808 24.5909 16.3583C24.3812 16.1486 24.4411 15.085 24.4973 14.5794C22.3126 13.7742 18.8902 12.5663 17.7967 12.1918C16.7031 11.8173 16.7667 10.7998 16.9353 10.3379C17.3472 9.20815 18.2685 6.70142 18.658 5.7127C19.0475 4.72398 19.819 4.66401 20.1561 4.75761C22.9774 5.78127 27.5945 7.40731 28.3735 7.70692C29.1525 8.00653 29.1351 8.70565 29.0289 9.01776L28.4319 10.636M25.1668 16.4644L26.4073 19.6353C26.632 20.0473 27.1941 20.1981 27.8681 18.9576M28.4319 10.636C29.7482 11.0578 32.4632 11.9278 32.7928 12.0327C33.2048 12.1637 33.9538 12.9128 34.1411 14.0925C34.3283 15.2722 34.573 16.8715 34.779 17.4671C34.985 18.0627 35.5686 19.5494 35.7558 19.7928" stroke="black" stroke-linecap="round" stroke-linejoin="round"/>
<path d="M6.42305 8.58716C6.86778 8.97551 7.75725 10.0131 7.75725 11.6345C7.75725 13.2558 6.86778 14.3686 6.42305 14.6501" stroke="black" stroke-linecap="round" stroke-linejoin="round"/>
<path d="M9.18019 7.1853C9.78255 7.75324 10.9873 9.2633 10.9873 11.6345C10.9873 14.0056 9.78255 15.6403 9.18019 16.0519" stroke="black" stroke-linecap="round" stroke-linejoin="round"/>
<path d="M11.8946 5.52808C12.7221 6.30833 14.3772 8.43535 14.3772 11.6929C14.3772 14.9505 12.7221 17.1438 11.8946 17.7093" stroke="black" stroke-linecap="round" stroke-linejoin="round"/>
</g>
<defs>
<clipPath id="clip0_9779_12923">
<rect width="37" height="23" fill="white" transform="translate(0 0.118652)"/>
</clipPath>
</defs>
</svg>
