<svg width="28" height="28" viewBox="0 0 28 28" fill="none" xmlns="http://www.w3.org/2000/svg">
<path fill-rule="evenodd" clip-rule="evenodd" d="M10.1024 3.00002C10.1024 2.66865 9.83379 2.40002 9.50241 2.40002C9.17104 2.40002 8.90241 2.66865 8.90241 3.00002V4.40002H4.99844C3.01021 4.40002 1.39844 6.0118 1.39844 8.00002V20C1.39844 21.9882 3.01021 23.6 4.99844 23.6H22.9984C24.9867 23.6 26.5984 21.9882 26.5984 20V8.00002C26.5984 6.0118 24.9867 4.40002 22.9984 4.40002H19.4987V3.00002C19.4987 2.66865 19.2301 2.40002 18.8987 2.40002C18.5673 2.40002 18.2987 2.66865 18.2987 3.00002V4.40002H10.1024V3.00002ZM18.2987 6.88866V5.60002H10.1024V6.88866C10.1024 7.22003 9.83379 7.48866 9.50241 7.48866C9.17104 7.48866 8.90241 7.22003 8.90241 6.88866V5.60002H4.99844C3.67295 5.60002 2.59844 6.67454 2.59844 8.00002V8.70542L25.3984 8.70542V8.00002C25.3984 6.67454 24.3239 5.60002 22.9984 5.60002H19.4987V6.88866C19.4987 7.22003 19.2301 7.48866 18.8987 7.48866C18.5673 7.48866 18.2987 7.22003 18.2987 6.88866ZM2.59844 20V9.90542L25.3984 9.90542V20C25.3984 21.3255 24.3239 22.4 22.9984 22.4H4.99844C3.67295 22.4 2.59844 21.3255 2.59844 20ZM13.4677 19.8525H18.7175V18.6941H15.2455C15.5159 18.4921 15.7108 18.3405 15.8301 18.2394C16.0687 18.0374 16.3312 17.792 16.6176 17.5033C16.9517 17.1857 17.242 16.8609 17.4886 16.5289C17.7272 16.2113 17.938 15.8396 18.1209 15.4138C18.3039 14.9736 18.3953 14.5585 18.3953 14.1688C18.3953 13.6203 18.1885 13.1548 17.7749 12.7722C17.3613 12.3825 16.7806 12.1876 16.033 12.1876C15.3728 12.1876 14.816 12.35 14.3626 12.6748C13.9172 12.9924 13.6388 13.429 13.5274 13.9848L14.6728 14.4503C14.8637 13.7718 15.2654 13.4326 15.8779 13.4326C16.2199 13.4326 16.4824 13.5192 16.6653 13.6925C16.8483 13.8657 16.9397 14.1075 16.9397 14.4178C16.9397 15.1179 16.4466 15.9804 15.4603 17.0053C15.0944 17.3878 14.4302 18.0049 13.4677 18.8565V19.8525ZM8.65145 13.7033L9.37925 14.7318L10.4053 14.0281V19.8525H11.7774V12.2526H10.7871L8.65145 13.7033Z" fill="url(#paint0_linear_10361_1232)"/>
<defs>
<linearGradient id="paint0_linear_10361_1232" x1="6.59594" y1="23.6" x2="27.9126" y2="15.6699" gradientUnits="userSpaceOnUse">
<stop stop-color="#FE5000"/>
<stop offset="1" stop-color="#FCA92A"/>
</linearGradient>
</defs>
</svg>
