<svg width="439" height="103" viewBox="0 0 439 103" fill="none" xmlns="http://www.w3.org/2000/svg">
<path d="M13.8751 20.922V23.9025L52.3317 45.7686C53.8779 46.6483 55.1635 47.9225 56.0575 49.4615C56.9514 51.0005 57.4219 52.7492 57.4208 54.5294V92.2464L60.218 93.836C60.8275 94.1841 61.5177 94.3658 62.2194 94.3629C62.9212 94.36 63.6099 94.1727 64.2165 93.8197C64.8232 93.4667 65.3266 92.9604 65.6764 92.3514C66.0261 91.7424 66.2099 91.0522 66.2094 90.3498V50.42C66.2142 48.4021 65.6839 46.4191 64.6725 44.6736C63.661 42.9281 62.2048 41.4827 60.4526 40.4849L19.8484 17.3995C19.2367 17.0544 18.5451 16.8763 17.843 16.883C17.1408 16.8897 16.4527 17.0811 15.8477 17.4378C15.2427 17.7946 14.742 18.3043 14.3958 18.9158C14.0496 19.5273 13.87 20.2191 13.8751 20.922Z" fill="#5DC3FD"/>
<path d="M27.9063 12.945V15.9255L66.3449 37.7916C67.8921 38.6709 69.179 39.9448 70.0745 41.4837C70.97 43.0226 71.4422 44.7716 71.443 46.5525V84.2695L74.2402 85.8591C74.8494 86.2049 75.5387 86.3848 76.2391 86.3808C76.9395 86.3768 77.6266 86.1891 78.2319 85.8363C78.8373 85.4836 79.3396 84.9781 79.6889 84.3704C80.0381 83.7627 80.2221 83.0739 80.2225 82.3728V42.443C80.2293 40.4248 79.6997 38.4411 78.6881 36.6952C77.6765 34.9494 76.2192 33.5042 74.4657 32.508L33.8616 9.42257C33.2504 9.0819 32.5607 8.90737 31.8612 8.91635C31.1617 8.92532 30.4767 9.11749 29.8744 9.47372C29.2722 9.82996 28.7736 10.3379 28.4283 10.9469C28.083 11.5559 27.903 12.2448 27.9063 12.945Z" fill="#FEB321"/>
<path d="M41.9376 4.96172V7.94228L80.3852 29.8083C81.932 30.6874 83.2181 31.9615 84.1121 33.5006C85.0062 35.0398 85.4762 36.7888 85.4743 38.5692V76.2862L88.2804 77.8759C88.8897 78.2217 89.5789 78.4015 90.2794 78.3975C90.9798 78.3935 91.6669 78.2058 92.2722 77.853C92.8775 77.5003 93.3799 76.9948 93.7292 76.3871C94.0784 75.7794 94.2624 75.0906 94.2628 74.3895V34.4598C94.2677 32.4419 93.7373 30.4589 92.7259 28.7134C91.7145 26.9679 90.2583 25.5225 88.506 24.5247L47.9019 1.43933C47.2904 1.09645 46.5998 0.920135 45.8989 0.927986C45.1981 0.935836 44.5116 1.12754 43.9079 1.48404C43.3043 1.84054 42.8046 2.34935 42.4589 2.9596C42.1131 3.56985 41.9334 4.26018 41.9376 4.96172Z" fill="#F3564C"/>
<path fill-rule="evenodd" clip-rule="evenodd" d="M40.2518 78.0907C41.3298 79.8337 42.845 81.2637 44.6465 82.2387L52.3252 86.6192V98.1257C52.3258 98.8282 52.142 99.5184 51.7922 100.127C51.4425 100.736 50.9391 101.243 50.3324 101.596C49.7257 101.949 49.0371 102.136 48.3353 102.139C47.6336 102.142 46.9434 101.96 46.3339 101.612L0 75.2571V21.8066L47.2271 48.6764C48.7744 49.5557 50.0613 50.8296 50.9568 52.3685C51.8523 53.9074 52.3244 55.6564 52.3252 57.4373V69.4677L44.9894 65.295C41.9847 63.5699 38.5018 66.2524 38.5018 69.8109V72.3037C38.5704 74.3525 39.1737 76.3477 40.2518 78.0907ZM43.2431 75.9353C43.7736 76.7932 44.5016 77.5115 45.3662 78.0303C47.0536 78.9876 48.4251 77.8316 48.4251 76.0523V74.4627C48.3414 73.4571 48.0205 72.4857 47.4887 71.6284C46.957 70.7711 46.2295 70.0524 45.3662 69.5313C43.6789 68.583 42.3164 69.7751 42.3164 71.5815V73.0989C42.3947 74.1048 42.7125 75.0774 43.2431 75.9353Z" fill="#9D4EE2"/>
<path d="M178.621 76.6104L159.04 50.6311L177.537 26.0952H169.228L153.187 47.3837H143.216V26.0952H136.352V76.6104H143.216V53.8785H152.465L169.589 76.6104H178.621Z" fill="#222835"/>
<path d="M197.625 77.332C208.824 77.332 216.989 68.6723 216.989 58.5692C216.989 48.4662 208.824 39.8065 197.625 39.8065C186.425 39.8065 178.26 48.4662 178.26 58.5692C178.26 68.6723 186.425 77.332 197.625 77.332ZM197.625 71.198C190.399 71.198 184.98 66.1465 184.98 58.5692C184.98 50.992 190.399 45.9404 197.625 45.9404C204.85 45.9404 210.269 50.992 210.269 58.5692C210.269 66.1465 204.85 71.198 197.625 71.198Z" fill="#222835"/>
<path d="M266.48 70.4764H251.306V40.5281H244.803V70.4764H229.629V40.5281H223.126V76.6104H272.983V40.5281H266.48V70.4764Z" fill="#222835"/>
<path d="M310.814 61.4558C309.586 67.3733 304.744 71.198 298.458 71.198C294.195 71.198 290.582 69.4661 288.27 66.4352L316.667 52.0023C313.993 45.0023 307.201 39.8065 298.458 39.8065C287.259 39.8065 279.094 48.4662 279.094 58.5692C279.094 68.6723 287.259 77.332 298.458 77.332C308.574 77.332 316.233 70.2599 317.606 61.4558H310.814ZM298.458 45.9404C302.288 45.9404 305.612 47.3116 307.851 49.7652L285.958 60.8785C285.886 60.1568 285.813 59.363 285.813 58.5692C285.813 50.992 291.233 45.9404 298.458 45.9404Z" fill="#222835"/>
<path d="M322.248 70.4764C325.572 70.4764 327.378 68.6723 327.378 63.6207V40.5281H355.558V76.6104H349.055V46.6621H333.159V63.6207C333.159 73.7238 330.196 76.6104 322.248 76.6104H320.152V70.4764H322.248Z" fill="#222835"/>
<path d="M372.146 32.9508C374.169 32.9508 375.758 31.3632 375.758 29.3426C375.758 27.322 374.169 25.7344 372.146 25.7344C370.122 25.7344 368.533 27.322 368.533 29.3426C368.533 31.3632 370.122 32.9508 372.146 32.9508ZM387.319 32.9508C389.343 32.9508 390.932 31.3632 390.932 29.3426C390.932 27.322 389.343 25.7344 387.319 25.7344C385.296 25.7344 383.707 27.322 383.707 29.3426C383.707 31.3632 385.296 32.9508 387.319 32.9508ZM392.666 61.4558C391.438 67.3733 386.597 71.198 380.311 71.198C376.047 71.198 372.435 69.4661 370.122 66.4352L398.519 52.0023C395.846 45.0023 389.054 39.8065 380.311 39.8065C369.111 39.8065 360.946 48.4662 360.946 58.5692C360.946 68.6723 369.111 77.332 380.311 77.332C390.426 77.332 398.086 70.2599 399.458 61.4558H392.666ZM380.311 45.9404C384.14 45.9404 387.464 47.3116 389.704 49.7652L367.81 60.8785C367.738 60.1568 367.666 59.363 367.666 58.5692C367.666 50.992 373.085 45.9404 380.311 45.9404Z" fill="#222835"/>
<path d="M438.855 76.6104L425.127 57.8476L437.771 40.5281H430.546L419.997 54.961H411.398V40.5281H404.895V76.6104H411.398V61.095H419.563L430.907 76.6104H438.855Z" fill="#222835"/>
</svg>
