<svg width="66" height="66" viewBox="0 0 66 66" fill="none" xmlns="http://www.w3.org/2000/svg">
<path fill-rule="evenodd" clip-rule="evenodd" d="M32.3489 5.42992C32.6887 5.19399 33.1392 5.19399 33.4789 5.42992L55.1411 20.4731C55.4077 20.6582 55.5667 20.9622 55.5667 21.2867V25.11H56.9831C57.5301 25.11 57.9736 25.5535 57.9736 26.1005V30.3126C57.9736 30.8597 57.5301 31.3032 56.9831 31.3032H53.1598V49.1791H54.5761C55.1232 49.1791 55.5667 49.6226 55.5667 50.1697V53.3912H56.9831C57.5301 53.3912 57.9736 53.8347 57.9736 54.3818V59.1956C57.9736 59.7426 57.5301 60.1861 56.9831 60.1861H8.76704C8.21997 60.1861 7.77649 59.7426 7.77649 59.1956V54.3888C7.77649 53.8434 8.21729 53.4007 8.76262 53.3982L9.34875 53.3956V50.1697C9.34875 49.6226 9.79223 49.1791 10.3393 49.1791H12.4991V31.3032H8.84483C8.29777 31.3032 7.85428 30.8597 7.85428 30.3126V26.1005C7.85428 25.5535 8.29777 25.11 8.84483 25.11H10.2612V21.2867C10.2612 20.9622 10.4202 20.6582 10.6867 20.4731L32.3489 5.42992ZM12.2423 25.11H53.5856V21.8048L32.9139 7.44949L12.2423 21.8048V25.11ZM14.4802 31.3032V49.1791H19.1181V31.3032H14.4802ZM21.0992 31.3032V49.1791H28.9147V31.3032H21.0992ZM30.8958 31.3032V49.1791H35.5338V31.3032H30.8958ZM37.5149 31.3032V49.1791H45.1614V31.3032H37.5149ZM47.1425 31.3032V49.1791H51.1787V31.3032H47.1425ZM20.1087 51.1602H13.4897H11.3298V53.3912H53.5856V51.1602H52.1692H46.1519H36.5243H29.9053H20.1087ZM10.3393 55.3723L9.75759 55.3749V58.205H55.9925V55.3723H54.5761H10.3411H10.3393ZM9.83538 27.0911V29.3221H13.4897H20.1087H29.9053H36.5243H46.1519H52.1692H55.9925V27.0911H54.5761H11.2517H9.83538Z" fill="url(#paint0_linear_7234_4872)"/>
<defs>
<linearGradient id="paint0_linear_7234_4872" x1="18.1296" y1="60.1861" x2="62.8133" y2="47.4073" gradientUnits="userSpaceOnUse">
<stop stop-color="#FE5000"/>
<stop offset="1" stop-color="#FCA92A"/>
</linearGradient>
</defs>
</svg>
