<svg width="66" height="66" viewBox="0 0 66 66" fill="none" xmlns="http://www.w3.org/2000/svg">
<path fill-rule="evenodd" clip-rule="evenodd" d="M53.324 29.8454C53.324 30.2949 53.0104 30.6418 52.561 30.6418H52.0015V38.9838H52.561C53.0104 38.9838 53.324 39.3657 53.324 39.8152V44.0879C53.324 44.5374 53.0104 44.8843 52.561 44.8843H52.0015V49.1253C52.0015 51.5172 50.1794 53.4298 47.8769 53.4298H47.3218V55.6679C47.3218 56.1174 46.9574 56.4818 46.5079 56.4818H36.3347C35.8853 56.4818 35.5209 56.1174 35.5209 55.6679V53.4298H20.8714V55.6679C20.8714 56.1174 20.507 56.4818 20.0576 56.4818H9.88435C9.4349 56.4818 9.07049 56.1174 9.07049 55.6679V53.4298H8.21014C5.90766 53.4298 3.98389 51.5172 3.98389 49.1253V20.5353C3.98389 18.1434 5.90766 16.1958 8.21014 16.1958H47.8769C50.1794 16.1958 52.0015 18.1434 52.0015 20.5353V24.7413H52.561C53.0104 24.7413 53.324 25.1232 53.324 25.5727V29.8454ZM51.6963 43.2566V40.6115H46.3045V43.2566H51.6963ZM44.6768 39.8152C44.6756 39.3622 45.0376 38.9922 45.4906 38.9838H45.8975V30.6418H45.4906C45.2764 30.6458 45.0698 30.5635 44.9168 30.4141C44.7642 30.2643 44.6775 30.0596 44.6768 29.8454V25.5727C44.6756 25.1196 45.0376 24.7497 45.4906 24.7413H45.8975V23.4725C45.8975 22.9495 45.5538 22.5032 45.0757 22.5032H11.0114C10.5337 22.5032 10.1895 22.9495 10.1895 23.4725V46.1881C10.1895 46.7111 10.5333 47.1224 11.0114 47.1224H45.0757C45.5534 47.1224 45.8975 46.7111 45.8975 46.1881V44.8843H45.4906C45.2764 44.8883 45.0698 44.806 44.9168 44.6566C44.7642 44.5068 44.6775 44.3021 44.6768 44.0879V39.8152ZM46.3045 26.369V29.0141H51.6963V26.369H46.3045ZM10.6982 54.854H19.2437V53.4298H10.6982V54.854ZM37.1486 54.854H45.6941V53.4298H37.1486V54.854ZM47.8769 51.8021C49.2817 51.8021 50.3737 50.6198 50.3737 49.1253V44.8843H47.5252V46.1881C47.5252 47.6088 46.4511 48.7501 45.0757 48.7501H11.0114C9.63598 48.7501 8.56183 47.6088 8.56183 46.1881V23.4725C8.56183 22.0518 9.63598 20.8755 11.0114 20.8755H45.0757C46.4511 20.8755 47.5252 22.0518 47.5252 23.4725V24.7413H50.3737V20.5353C50.3737 19.0408 49.2817 17.8235 47.8769 17.8235H8.21014C6.80536 17.8235 5.6116 19.0408 5.6116 20.5353V49.1253C5.6116 50.6198 6.80536 51.8021 8.21014 51.8021H47.8769ZM47.5252 38.9838H50.3737V30.6418H47.5252V38.9838ZM21.8956 26.7251C17.4185 26.7251 13.7896 30.354 13.7896 34.8307C13.7896 39.3073 17.4185 42.9366 21.8952 42.9366C26.3722 42.9366 30.0012 39.3073 30.0012 34.8307C29.996 30.356 26.3698 26.7302 21.8956 26.7251ZM21.8956 41.3085C18.3178 41.3089 15.4173 38.4084 15.4173 34.8307C15.4173 31.2529 18.3174 28.3528 21.8952 28.3528C25.4729 28.3528 28.3734 31.2529 28.3734 34.8307C28.3691 38.4064 25.4713 41.3042 21.8956 41.3081V41.3085ZM24.5385 32.0326C23.6471 31.3538 22.6533 31.0268 21.6614 31.0884C19.775 31.2064 18.2716 32.7101 18.1536 34.5965C18.0924 35.5872 18.4191 36.5819 19.0978 37.4733C19.1419 37.5317 19.194 37.5833 19.252 37.6278C20.073 38.2529 20.9814 38.5792 21.8939 38.5792C21.9721 38.5792 22.0508 38.5768 22.1291 38.5721C24.0155 38.454 25.5189 36.9503 25.6373 35.0643C25.6981 34.0732 25.3718 33.0785 24.6927 32.1872C24.6486 32.1287 24.5965 32.0771 24.5385 32.0326ZM23.3952 36.33C22.7792 36.9463 21.6137 37.3223 20.3269 36.3983C19.403 35.112 19.7793 33.9468 20.3953 33.3305C21.0112 32.7141 22.1764 32.3382 23.4636 33.2621C24.3875 34.5481 24.0116 35.714 23.3952 36.33Z" fill="url(#paint0_linear_7234_4842)"/>
<circle cx="48.0076" cy="21.4766" r="15.0084" fill="#F8F8F8" stroke="url(#paint1_linear_7234_4842)" stroke-width="2"/>
<path fill-rule="evenodd" clip-rule="evenodd" d="M48.7072 15.8581C50.0655 14.4998 52.2678 14.4998 53.6261 15.8581C54.9844 17.2164 54.9844 19.4187 53.6261 20.777C52.7393 21.6638 51.4925 21.9727 50.3525 21.6997L49.8627 21.5824L49.5066 21.9386L49.5062 21.939L49.5057 21.9394L49.5053 21.9399L49.5049 21.9403L49.5044 21.9407L49.504 21.9412L49.5035 21.9416L49.5031 21.9421L49.5026 21.9425L49.5022 21.943L49.5017 21.9434L49.5013 21.9439L49.5008 21.9444L49.5003 21.9448L49.4998 21.9453L49.4994 21.9458L49.4989 21.9463L49.4984 21.9467L49.4979 21.9472L49.4974 21.9477L49.4969 21.9482L49.4964 21.9487L49.4959 21.9492L49.4954 21.9497L49.4949 21.9502L49.4944 21.9508L49.4939 21.9513L49.4934 21.9518L49.4928 21.9523L49.4923 21.9528L49.4918 21.9534L49.4912 21.9539L49.4907 21.9544L49.4902 21.955L49.4896 21.9555L49.4891 21.9561L49.4885 21.9566L49.488 21.9572L49.4874 21.9578L49.4868 21.9583L49.4863 21.9589L49.4857 21.9594L49.4851 21.96L49.4846 21.9606L49.484 21.9612L49.4834 21.9618L49.4828 21.9624L49.4822 21.9629L49.4816 21.9635L49.481 21.9641L49.4804 21.9647L49.4798 21.9653L49.4792 21.966L49.4786 21.9666L49.478 21.9672L49.4774 21.9678L49.4767 21.9684L49.4761 21.969L49.4755 21.9697L49.4748 21.9703L49.4742 21.9709L49.4736 21.9716L49.4729 21.9722L49.4723 21.9729L49.4716 21.9735L49.471 21.9742L49.4703 21.9748L49.4697 21.9755L49.469 21.9762L49.4683 21.9768L49.4677 21.9775L49.467 21.9782L49.4663 21.9789L49.4656 21.9795L49.4649 21.9802L49.4642 21.9809L49.4636 21.9816L49.4629 21.9823L49.4622 21.983L49.4615 21.9837L49.4608 21.9844L49.46 21.9851L49.4593 21.9858L49.4586 21.9865L49.4579 21.9873L49.4572 21.988L49.4565 21.9887L49.4557 21.9894L49.455 21.9902L49.4543 21.9909L49.4535 21.9916L49.4528 21.9924L49.452 21.9931L49.4513 21.9939L49.4505 21.9946L49.4498 21.9954L49.449 21.9962L49.4482 21.9969L49.4475 21.9977L49.4467 21.9985L49.4459 21.9992L49.4451 22L49.4444 22.0008L49.4436 22.0016L49.4428 22.0024L49.442 22.0031L49.4412 22.0039L49.4404 22.0047L49.4396 22.0055L49.4388 22.0063L49.438 22.0072L49.4372 22.008L49.4364 22.0088L49.4356 22.0096L49.4347 22.0104L49.4339 22.0112L49.4331 22.0121L49.4322 22.0129L49.4314 22.0137L49.4306 22.0146L49.4297 22.0154L49.4289 22.0163L49.428 22.0171L49.4272 22.018L49.4263 22.0188L49.4255 22.0197L49.4246 22.0205L49.4237 22.0214L49.4229 22.0223L49.422 22.0231L49.4211 22.024L49.4203 22.0249L49.4194 22.0258L49.4185 22.0267L49.4176 22.0276L49.4167 22.0284L49.4158 22.0293L49.4149 22.0302L49.414 22.0311L49.4131 22.032L49.4122 22.033L49.4113 22.0339L49.4104 22.0348L49.4095 22.0357L49.4085 22.0366L49.4076 22.0375L49.4067 22.0385L49.4057 22.0394L49.4048 22.0403L49.4039 22.0413L49.4029 22.0422L49.402 22.0432L49.401 22.0441L49.4001 22.0451L49.3991 22.046L49.3982 22.047L49.3972 22.0479L49.3963 22.0489L49.3953 22.0499L49.3943 22.0508L49.3933 22.0518L49.3924 22.0528L49.3914 22.0538L49.3904 22.0548L49.3894 22.0557L49.3884 22.0567L49.3874 22.0577L49.3864 22.0587L49.3854 22.0597L49.3844 22.0607L49.3834 22.0617L49.3824 22.0627L49.3814 22.0638L49.3804 22.0648L49.3794 22.0658L49.3783 22.0668L49.3773 22.0678L49.3763 22.0689L49.3752 22.0699L49.3742 22.0709L49.3732 22.072L49.3721 22.073L49.3711 22.0741L49.37 22.0751L49.369 22.0762L49.3679 22.0772L49.3669 22.0783L49.3658 22.0794L49.3647 22.0804L49.3637 22.0815L49.3626 22.0826L49.3615 22.0836L49.3604 22.0847L49.3594 22.0858L49.3583 22.0869L49.3572 22.088L49.3561 22.0891L49.355 22.0902L49.3539 22.0912L49.3528 22.0924L49.3517 22.0935L49.3506 22.0946L49.3495 22.0957L49.3484 22.0968L49.3473 22.0979L49.3461 22.099L49.345 22.1001L49.3439 22.1013L49.3428 22.1024L49.3416 22.1035L49.3405 22.1047L49.3393 22.1058L49.3382 22.1069L49.3371 22.1081L49.3359 22.1092L49.3348 22.1104L49.3336 22.1115L49.3324 22.1127L49.3313 22.1139L49.3301 22.115L49.329 22.1162L49.3278 22.1174L49.3266 22.1185L49.3254 22.1197L49.3243 22.1209L49.3231 22.1221L49.3219 22.1233L49.3207 22.1245L49.3195 22.1257L49.3183 22.1268L49.3171 22.128L49.3159 22.1292L49.3147 22.1305L49.3135 22.1317L49.3123 22.1329L49.3111 22.1341L49.3098 22.1353L49.3086 22.1365L49.3074 22.1378L49.3062 22.139L49.3049 22.1402L49.3037 22.1414L49.3025 22.1427L49.3012 22.1439L49.3 22.1452L49.2987 22.1464L49.2975 22.1477L49.2962 22.1489L49.295 22.1502L49.2937 22.1514L49.2925 22.1527L49.2912 22.1539L49.2899 22.1552L49.2887 22.1565L49.2874 22.1578L49.2861 22.159L49.2848 22.1603L49.2836 22.1616L49.2823 22.1629L49.281 22.1642L49.2797 22.1655L49.2784 22.1668L49.2771 22.1681L49.2758 22.1694L49.2745 22.1707L49.2732 22.172L49.2719 22.1733L49.2706 22.1746L49.2692 22.1759L49.2679 22.1772L49.2666 22.1786L49.2653 22.1799L49.2639 22.1812L49.2626 22.1825L49.2613 22.1839L49.2599 22.1852L49.2586 22.1866L49.2573 22.1879L49.2559 22.1892L49.2546 22.1906L49.2532 22.1919L49.2518 22.1933L49.2505 22.1947L49.2491 22.196L49.2478 22.1974L49.2464 22.1988L49.245 22.2001L49.2436 22.2015L49.2423 22.2029L49.2409 22.2043L49.2395 22.2056L49.2381 22.207L49.2367 22.2084L49.2353 22.2098L49.2339 22.2112L49.2325 22.2126L49.2311 22.214L49.2297 22.2154L49.2283 22.2168L49.2269 22.2182L49.2255 22.2196L49.2241 22.2211L49.2227 22.2225L49.2212 22.2239L49.2198 22.2253L49.2184 22.2268L49.217 22.2282L49.2155 22.2296L49.2141 22.2311L49.2127 22.2325L49.2112 22.2339L49.2098 22.2354L49.2083 22.2368L49.2069 22.2383L49.2054 22.2397L49.2039 22.2412L49.2025 22.2427L49.201 22.2441L49.1996 22.2456L49.1981 22.2471L49.1966 22.2485L49.1951 22.25L49.1937 22.2515L49.1922 22.253L49.1907 22.2545L49.1892 22.256L49.1877 22.2574L49.1862 22.2589L49.1847 22.2604L49.1832 22.2619L49.1817 22.2634L49.1802 22.2649L49.1787 22.2664L49.1772 22.268L49.1757 22.2695L49.1742 22.271L49.1726 22.2725L49.1711 22.274L49.1696 22.2756L49.1681 22.2771L49.1665 22.2786L49.165 22.2802L49.1635 22.2817L49.1619 22.2832L49.1604 22.2848L49.1588 22.2863L49.1573 22.2879L49.1557 22.2894L49.1542 22.291L49.1526 22.2925L49.1511 22.2941L49.1495 22.2957L49.1479 22.2972L49.1464 22.2988L49.1448 22.3004L49.1432 22.3019L49.1416 22.3035L49.14 22.3051L49.1385 22.3067L49.1369 22.3083L49.1353 22.3099L49.1337 22.3115L49.1321 22.3131L49.1305 22.3147L49.1289 22.3163L49.1273 22.3179L49.1257 22.3195L49.1241 22.3211L49.1225 22.3227L49.1209 22.3243L49.1192 22.3259L49.1176 22.3275L49.116 22.3292L49.1144 22.3308L49.1127 22.3324L49.1111 22.3341L49.1095 22.3357L49.1078 22.3373L49.1062 22.339L49.1045 22.3406L49.1029 22.3423L49.1012 22.3439L49.0996 22.3456L49.0979 22.3472L49.0963 22.3489L49.0946 22.3505L49.093 22.3522L49.0913 22.3539L49.0896 22.3555L49.0879 22.3572L49.0863 22.3589L49.0846 22.3606L49.0829 22.3622L49.0812 22.3639L49.0795 22.3656L49.0779 22.3673L49.0762 22.369L49.0745 22.3707L49.0728 22.3724L49.0711 22.3741L49.0694 22.3758L49.0677 22.3775L49.066 22.3792L49.0642 22.3809L49.0625 22.3826L49.0608 22.3843L49.0591 22.3861L49.0574 22.3878L49.0556 22.3895L49.0539 22.3912L49.0522 22.393L49.0505 22.3947L49.0487 22.3964L49.047 22.3982L49.0452 22.3999L49.0435 22.4017L49.0417 22.4034L49.04 22.4052L49.0382 22.4069L49.0365 22.4087L49.0347 22.4104L49.033 22.4122L49.0312 22.4139L49.0294 22.4157L49.0277 22.4175L49.0259 22.4193L49.0241 22.421L49.0223 22.4228L49.0206 22.4246L49.0188 22.4264L49.017 22.4282L49.0152 22.4299L49.0134 22.4317L49.0116 22.4335L49.0098 22.4353L49.008 22.4371L49.0062 22.4389L49.0044 22.4407L49.0026 22.4425L49.0008 22.4444L48.999 22.4462L48.9972 22.448L48.9954 22.4498L48.9935 22.4516L48.9917 22.4534L48.9899 22.4553L48.9881 22.4571L48.9862 22.4589L48.9844 22.4608L48.9825 22.4626L48.9807 22.4644L48.9789 22.4663L48.977 22.4681L48.9752 22.47L48.9733 22.4718L48.9715 22.4737L48.9696 22.4755L48.9678 22.4774L48.9659 22.4793L48.964 22.4811L48.9622 22.483L48.9603 22.4849L48.9584 22.4867L48.9565 22.4886L48.9547 22.4905L48.9528 22.4924L48.9509 22.4943L48.949 22.4961L48.9471 22.498L48.9452 22.4999L48.9433 22.5018L48.9414 22.5037L48.9395 22.5056L48.9376 22.5075L48.9357 22.5094L48.9338 22.5113L48.9319 22.5132L48.93 22.5151L48.9281 22.5171L48.9262 22.519L48.9243 22.5209L48.9223 22.5228L48.9204 22.5247L48.9185 22.5267L48.9166 22.5286L48.9146 22.5305L48.9127 22.5325L48.9107 22.5344L48.9088 22.5363L48.9069 22.5383L48.9049 22.5402L48.903 22.5422L48.901 22.5441L48.8991 22.5461L48.8971 22.548L48.8951 22.55L48.8932 22.552L48.8912 22.5539L48.8893 22.5559L48.8873 22.5579L48.8853 22.5598L48.8833 22.5618L48.8814 22.5638L48.8794 22.5658L48.8774 22.5678L48.8754 22.5697L48.8734 22.5717L48.8714 22.5737L48.8694 22.5757L48.8674 22.5777L48.8655 22.5797L48.8635 22.5817C48.8546 22.5906 48.824 22.6141 48.7485 22.6285C48.7129 22.6353 48.6766 22.6381 48.6447 22.6379C48.617 22.6378 48.6018 22.6355 48.6018 22.6356L48.5877 22.6328L48.5712 22.6302C47.7833 22.5058 47.0768 22.6812 46.6771 23.2823C46.5099 23.5339 46.4499 23.7901 46.4264 23.9678C46.4037 24.1393 46.4099 24.3043 46.4099 24.3021L46.4099 24.3031V24.3031C46.4099 24.3402 46.4099 24.3794 46.4037 24.428C46.4022 24.4401 46.4005 24.4511 46.3987 24.4611C45.6992 24.4377 45.1831 24.7626 44.8727 25.1895C44.5934 25.5736 44.4955 26.0111 44.4804 26.3121L44.4763 26.3939L44.487 26.4751C44.533 26.8232 44.441 26.9557 44.4069 26.9976C44.3812 27.0292 44.3508 27.0533 44.3203 27.0705C44.3109 27.0759 44.3025 27.08 44.2955 27.0831C44.0186 27.0982 43.6245 27.1166 43.2485 27.1274C42.9281 27.1366 42.6605 27.1389 42.4886 27.1344C42.4622 26.4992 42.4239 25.5235 42.4163 25.156C42.4264 25.1396 42.4399 25.1191 42.4576 25.0947C42.5344 24.9884 42.6341 24.8835 42.6936 24.8286L42.7069 24.8163L42.7198 24.8034L47.5456 19.9776L47.9018 19.6215L47.7845 19.1316C47.5115 17.9917 47.8204 16.7449 48.7072 15.8581ZM54.8989 14.5853C52.8376 12.5241 49.4957 12.5241 47.4344 14.5853C46.219 15.8008 45.7211 17.4614 45.9379 19.0397L41.4586 23.519C41.3297 23.6397 41.1528 23.8271 40.9987 24.0403C40.9182 24.1518 40.8305 24.2885 40.7601 24.4408C40.6939 24.5843 40.615 24.8006 40.615 25.0555C40.615 25.3716 40.6718 26.7791 40.6989 27.4185L40.7027 27.5067L40.7235 27.5925C40.7737 27.7997 40.8863 28.0735 41.0843 28.3207C41.2898 28.5773 41.6374 28.8617 42.1428 28.9159C42.4146 28.945 42.8872 28.9386 43.3004 28.9267C43.7396 28.914 44.1981 28.8918 44.4878 28.8751L44.5426 28.872L44.5965 28.8622C44.972 28.7942 45.4453 28.5734 45.803 28.1338C46.1644 27.6898 46.3551 27.0879 46.285 26.3578C46.2874 26.3471 46.2905 26.3351 46.2945 26.3222C46.3033 26.2942 46.3131 26.2735 46.3209 26.26C46.3262 26.2599 46.3327 26.2599 46.3405 26.2602C46.7307 26.2754 47.0965 26.1907 47.4078 25.9899C47.7146 25.7921 47.9019 25.5247 48.0136 25.2837C48.1774 24.93 48.2049 24.5704 48.2092 24.3974C48.2303 24.3996 48.2534 24.4026 48.2788 24.4064C48.4935 24.4456 48.7825 24.4546 49.0865 24.3965C49.4066 24.3353 49.8035 24.1872 50.1362 23.8545L50.1382 23.8525L50.1402 23.8505L50.1422 23.8485L50.1442 23.8465L50.1462 23.8445L50.1482 23.8425L50.1502 23.8405L50.1522 23.8386L50.1542 23.8366L50.1561 23.8346L50.1581 23.8326L50.1601 23.8307L50.162 23.8287L50.164 23.8267L50.166 23.8248L50.1679 23.8228L50.1699 23.8208L50.1719 23.8189L50.1738 23.8169L50.1758 23.815L50.1777 23.813L50.1797 23.8111L50.1816 23.8091L50.1835 23.8072L50.1855 23.8053L50.1874 23.8033L50.1893 23.8014L50.1913 23.7995L50.1932 23.7975L50.1951 23.7956L50.1971 23.7937L50.199 23.7918L50.2009 23.7898L50.2028 23.7879L50.2047 23.786L50.2066 23.7841L50.2085 23.7822L50.2104 23.7803L50.2123 23.7784L50.2142 23.7765L50.2161 23.7746L50.218 23.7727L50.2199 23.7708L50.2218 23.7689L50.2237 23.767L50.2256 23.7652L50.2275 23.7633L50.2293 23.7614L50.2312 23.7595L50.2331 23.7577L50.235 23.7558L50.2368 23.7539L50.2387 23.7521L50.2405 23.7502L50.2424 23.7483L50.2443 23.7465L50.2461 23.7446L50.248 23.7428L50.2498 23.7409L50.2517 23.7391L50.2535 23.7372L50.2553 23.7354L50.2572 23.7336L50.259 23.7317L50.2608 23.7299L50.2627 23.7281L50.2645 23.7262L50.2663 23.7244L50.2681 23.7226L50.27 23.7208L50.2718 23.719L50.2736 23.7171L50.2754 23.7153L50.2772 23.7135L50.279 23.7117L50.2808 23.7099L50.2826 23.7081L50.2844 23.7063L50.2862 23.7045L50.288 23.7027L50.2898 23.701L50.2916 23.6992L50.2934 23.6974L50.2951 23.6956L50.2969 23.6938L50.2987 23.6921L50.3005 23.6903L50.3022 23.6885L50.304 23.6867L50.3058 23.685L50.3075 23.6832L50.3093 23.6815L50.311 23.6797L50.3128 23.6779L50.3145 23.6762L50.3163 23.6745L50.318 23.6727L50.3198 23.671L50.3215 23.6692L50.3232 23.6675L50.325 23.6658L50.3267 23.664L50.3284 23.6623L50.3302 23.6606L50.3319 23.6589L50.3336 23.6571L50.3353 23.6554L50.337 23.6537L50.3387 23.652L50.3405 23.6503L50.3422 23.6486L50.3439 23.6469L50.3456 23.6452L50.3473 23.6435L50.349 23.6418L50.3506 23.6401L50.3523 23.6384L50.354 23.6367L50.3557 23.635L50.3574 23.6333L50.3591 23.6317L50.3607 23.63L50.3624 23.6283L50.3641 23.6267L50.3657 23.625L50.3674 23.6233L50.3691 23.6217L50.3707 23.62L50.3724 23.6184L50.374 23.6167L50.3757 23.615L50.3773 23.6134L50.379 23.6118L50.3806 23.6101L50.3823 23.6085L50.3839 23.6068L50.3855 23.6052L50.3872 23.6036L50.3888 23.602L50.3904 23.6003L50.392 23.5987L50.3936 23.5971L50.3953 23.5955L50.3969 23.5939L50.3985 23.5923L50.4001 23.5906L50.4017 23.589L50.4033 23.5874L50.4049 23.5858L50.4065 23.5842L50.4081 23.5827L50.4097 23.5811L50.4113 23.5795L50.4128 23.5779L50.4144 23.5763L50.416 23.5747L50.4176 23.5732L50.4191 23.5716L50.4207 23.57L50.4223 23.5685L50.4238 23.5669L50.4254 23.5653L50.427 23.5638L50.4285 23.5622L50.4301 23.5607L50.4316 23.5591L50.4332 23.5576L50.4347 23.556L50.4363 23.5545L50.4378 23.5529L50.4393 23.5514L50.4409 23.5499L50.4424 23.5484L50.4439 23.5468L50.4445 23.5463C52.0228 23.7631 53.6834 23.2652 54.8989 22.0498C56.9601 19.9885 56.9601 16.6466 54.8989 14.5853ZM48.2113 24.2013L48.2109 24.2035C48.2111 24.202 48.2113 24.2013 48.2113 24.2013ZM51.4388 17.4971C51.5902 17.3457 51.8357 17.3457 51.9871 17.4971C52.1385 17.6485 52.1385 17.894 51.9871 18.0454C51.8357 18.1968 51.5902 18.1968 51.4388 18.0454C51.2874 17.894 51.2874 17.6485 51.4388 17.4971ZM53.2599 16.2243C52.4055 15.37 51.0203 15.37 50.166 16.2243C49.3117 17.0787 49.3117 18.4638 50.166 19.3182C51.0203 20.1725 52.4055 20.1725 53.2599 19.3182C54.1142 18.4638 54.1142 17.0787 53.2599 16.2243Z" fill="url(#paint2_linear_7234_4842)"/>
<defs>
<linearGradient id="paint0_linear_7234_4842" x1="14.1603" y1="56.4818" x2="55.5867" y2="40.6028" gradientUnits="userSpaceOnUse">
<stop stop-color="#FE5000"/>
<stop offset="1" stop-color="#FCA92A"/>
</linearGradient>
<linearGradient id="paint1_linear_7234_4842" x1="5.18803" y1="50.8452" x2="57.9136" y2="54.8764" gradientUnits="userSpaceOnUse">
<stop stop-color="#FE5000"/>
<stop offset="1" stop-color="#FCA92A"/>
</linearGradient>
<linearGradient id="paint2_linear_7234_4842" x1="7.11778" y1="52.4586" x2="60.3643" y2="54.5215" gradientUnits="userSpaceOnUse">
<stop stop-color="#FE5000"/>
<stop offset="1" stop-color="#FCA92A"/>
</linearGradient>
</defs>
</svg>
