<svg width="44" height="44" viewBox="0 0 44 44" fill="none" xmlns="http://www.w3.org/2000/svg">
<path fill-rule="evenodd" clip-rule="evenodd" d="M12.3124 3.70251C12.3124 3.15023 11.8647 2.70251 11.3124 2.70251C10.7602 2.70251 10.3124 3.15023 10.3124 3.70251V4.82746H9C6.23858 4.82746 4 7.06603 4 9.82745V35.8274C4 38.5888 6.23857 40.8274 8.99999 40.8274H34.9999C37.7614 40.8274 39.9999 38.5888 39.9999 35.8274V9.82746C39.9999 7.06603 37.7614 4.82746 34.9999 4.82746H33.1251V3.70251C33.1251 3.15023 32.6774 2.70251 32.1251 2.70251C31.5728 2.70251 31.1251 3.15023 31.1251 3.70251V4.82746H12.3124V3.70251ZM31.1251 9.32751V6.82746H12.3124V9.32751C12.3124 9.87979 11.8647 10.3275 11.3124 10.3275C10.7602 10.3275 10.3124 9.87979 10.3124 9.32751V6.82746H9C7.34314 6.82746 6 8.1706 6 9.82745V12.265H37.9999V9.82746C37.9999 8.1706 36.6568 6.82746 34.9999 6.82746H33.1251V9.32751C33.1251 9.87979 32.6774 10.3275 32.1251 10.3275C31.5728 10.3275 31.1251 9.87979 31.1251 9.32751ZM6 35.8274V14.265H37.9999V35.8274C37.9999 37.4843 36.6568 38.8274 34.9999 38.8274H8.99999C7.34314 38.8274 6 37.4843 6 35.8274ZM30.1165 20.6098C30.445 20.1659 30.3514 19.5397 29.9074 19.2112C29.4635 18.8827 28.8373 18.9763 28.5088 19.4202L20.3964 30.3841L16.4501 27.1195C16.0245 26.7675 15.3942 26.8271 15.0421 27.2526C14.6901 27.6781 14.7497 28.3085 15.1752 28.6605L19.9349 32.598C20.1465 32.7731 20.4208 32.8534 20.6934 32.8202C20.966 32.7869 21.2129 32.6431 21.3762 32.4223L30.1165 20.6098Z" fill="url(#paint0_linear_7234_4771)"/>
<defs>
<linearGradient id="paint0_linear_7234_4771" x1="11.425" y1="40.8274" x2="43.3073" y2="31.4054" gradientUnits="userSpaceOnUse">
<stop stop-color="#FE5000"/>
<stop offset="1" stop-color="#FCA92A"/>
</linearGradient>
</defs>
</svg>
