<svg width="44" height="44" viewBox="0 0 44 44" fill="none" xmlns="http://www.w3.org/2000/svg">
<g clip-path="url(#clip0_7234_4760)">
<path d="M43.9116 38.3L42.1674 32.2368C42.1258 32.1122 42.0428 31.9876 41.9597 31.9045C40.88 28.6238 38.2221 26.0905 34.8583 25.2184L34.36 25.1354C33.6124 24.9277 32.7819 25.1769 32.242 25.7998C30.4147 27.8762 28.0891 28.0424 25.6389 28.0424C23.1887 28.0424 20.8631 27.8762 19.0359 25.7998C18.496 25.1769 17.6654 24.9277 16.9179 25.1354L16.4196 25.2599C13.8863 25.9244 11.7268 27.544 10.3564 29.7035H5.12374C5.08221 29.7035 5.08221 29.7035 5.04069 29.662C5.04069 29.6205 4.99916 29.5789 4.99916 29.4959L6.0789 25.6337C7.03406 22.6021 8.86133 21.6885 12.4328 20.7748C12.5989 20.7333 12.7235 20.6502 12.8066 20.5672C13.0973 20.8164 13.4295 21.024 13.7617 21.1901C13.8863 21.2732 14.0109 21.2732 14.1355 21.2732C14.4262 21.2732 14.7169 21.1071 14.883 20.8164C15.0906 20.4011 14.9245 19.9027 14.5092 19.6951C12.5989 18.6984 11.2285 15.8744 11.2285 12.9674C11.2285 10.3927 13.3464 8.27469 15.9212 8.27469C16.4196 8.27469 16.8764 8.35775 17.3332 8.48233C16.8764 9.60361 16.6272 10.8079 16.6272 12.0953C16.6272 19.1967 20.9047 25.1769 25.9712 25.1769C30.9546 25.1769 35.3567 19.0722 35.3567 12.0953C35.3567 6.90424 31.1623 2.70984 25.9712 2.70984C22.6904 2.70984 19.7834 4.41252 18.1222 6.9873C17.4162 6.73813 16.6687 6.61354 15.9212 6.61354C13.6787 6.61354 11.6853 7.81787 10.564 9.60361C10.481 9.52055 10.3979 9.47902 10.3148 9.43749C9.6919 9.10526 9.06897 8.98068 8.36298 8.98068C6.03738 8.93915 4.16858 10.8079 4.16858 13.1335C4.16858 14.4625 4.54234 15.7083 5.12374 16.705C3.21342 17.2034 1.51074 17.9509 0.721698 20.4841L0.0572388 22.8928C-0.0673474 23.3081 0.01571 23.7649 0.264882 24.0971C0.514055 24.4709 0.970871 24.6785 1.42769 24.6785H4.6254C4.58387 24.8447 4.50081 25.0108 4.45928 25.1769L3.37954 29.0806C3.21342 29.6205 3.33801 30.2019 3.71177 30.6587C4.044 31.1155 4.54234 31.3647 5.12374 31.3647H9.52579C9.4012 31.6554 9.31814 31.9461 9.23509 32.2368L7.49088 38.3415C7.32477 39.0475 7.44935 39.795 7.90617 40.3764C8.36298 40.9578 9.02744 41.29 9.73343 41.29H34.6507H36.0626H41.669C42.375 41.29 43.081 40.9578 43.4963 40.3764C43.9531 39.795 44.1192 39.0475 43.9116 38.3ZM19.1189 8.60692C19.1605 8.56539 19.202 8.52386 19.2435 8.4408C19.285 8.39927 19.285 8.31622 19.3266 8.27469C20.614 5.94908 23.1057 4.37099 25.9712 4.37099C29.4181 4.37099 32.3251 6.65507 33.3217 9.76972C31.8682 10.0604 30.3317 9.47902 29.4181 8.23316C29.1273 7.8594 28.629 7.77634 28.2552 8.06704C28.0891 8.19163 28.0061 8.31622 27.9645 8.48233C27.923 8.52386 27.923 8.56539 27.8815 8.60692C26.7187 10.9741 22.815 11.9707 18.3714 11.0986C18.496 10.2265 18.7452 9.39596 19.1189 8.60692ZM21.4445 13.0505C24.7668 13.0505 27.5077 12.0123 28.9197 10.0604C29.9579 10.9741 31.2453 11.4724 32.6158 11.4724C32.948 11.4724 33.3218 11.4309 33.654 11.3478C33.6955 11.597 33.6955 11.8046 33.6955 12.0538C33.6955 18.1585 30.0825 23.5157 25.9712 23.5157C22.0259 23.5157 18.5791 18.5738 18.2884 12.7598C19.3681 12.9674 20.4478 13.0505 21.4445 13.0505ZM1.75992 23.0174L2.34132 20.941C2.83966 19.2383 3.87788 18.7399 5.95432 18.2416C6.0789 18.2001 6.20349 18.1585 6.28655 18.0755C6.49419 18.2416 6.66031 18.3662 6.90948 18.4908C7.03407 18.5738 7.15865 18.5738 7.28324 18.5738C7.57394 18.5738 7.86464 18.4077 8.03076 18.117C8.2384 17.7017 8.07228 17.2034 7.69853 16.9957C6.61878 16.4143 5.82973 14.7947 5.82973 13.1335C5.82973 11.7216 6.95101 10.6003 8.36298 10.6003C8.8198 10.6003 9.19356 10.6834 9.56732 10.891C9.6919 10.9325 9.77496 10.9741 9.89955 10.9741C9.6919 11.597 9.56732 12.2614 9.56732 12.9674C9.56732 15.3346 10.3564 17.6602 11.6022 19.2798C9.1105 19.9027 6.90948 20.7333 5.45597 23.0174H1.75992ZM42.2089 39.3797C42.1258 39.4628 41.9597 39.6289 41.669 39.6289H36.0626H34.6507H9.73343C9.44273 39.6289 9.27662 39.4628 9.19356 39.3797C9.06897 39.2136 9.02744 38.9644 9.06897 38.7983L10.8132 32.7351C11.6438 29.8696 13.9278 27.6271 16.8348 26.8796L17.3332 26.755C17.4578 26.7134 17.6654 26.7965 17.79 26.9211C20.0741 29.5374 22.898 29.745 25.6389 29.745C28.3798 29.745 31.2038 29.5374 33.4879 26.9211C33.6124 26.7965 33.7786 26.7134 33.9862 26.755L34.4846 26.8796C37.35 27.6271 39.6756 29.8696 40.5062 32.7351L41.2537 35.3099C41.2953 35.4345 41.3368 35.5175 41.4198 35.6006L42.3335 38.7568C42.375 38.9644 42.3335 39.2136 42.2089 39.3797Z" fill="url(#paint0_linear_7234_4760)"/>
</g>
<defs>
<linearGradient id="paint0_linear_7234_4760" x1="9.07499" y1="41.29" x2="46.6575" y2="27.8756" gradientUnits="userSpaceOnUse">
<stop stop-color="#FE5000"/>
<stop offset="1" stop-color="#FCA92A"/>
</linearGradient>
<clipPath id="clip0_7234_4760">
<rect width="44" height="44" fill="white"/>
</clipPath>
</defs>
</svg>
