<svg width="44" height="44" viewBox="0 0 44 44" fill="none" xmlns="http://www.w3.org/2000/svg">
<path fill-rule="evenodd" clip-rule="evenodd" d="M22.0039 1.96826L22.2499 2.03174L37.7499 6.03174L38.5 6.22532V7.00002V25C38.5 27.3129 37.2306 30.5345 34.6323 33.5858C32.0085 36.6672 27.9742 39.6468 22.3035 41.4529L22.0003 41.5494L21.6971 41.453C16.0216 39.649 11.8685 36.6751 9.12515 33.6037C6.41397 30.5682 5.00001 27.3401 5 25V7.00002V6.21924L5.75746 6.02987L21.7575 2.02987L22.0039 1.96826ZM7 7.78079V25C7.00001 26.66 8.08068 29.4319 10.6168 32.2714C13.0731 35.0215 16.8216 37.7453 21.9996 39.4489C27.1566 37.7474 30.7762 35.0294 33.1096 32.2892C35.514 29.4655 36.5 26.6871 36.5 25V7.77471L21.9961 4.03177L7 7.78079ZM17 17.126V16C17 13.2386 19.2386 11 22 11C24.7614 11 27 13.2386 27 16V17.126C28.7252 17.5701 30 19.1362 30 21V26C30 28.2092 28.2091 30 26 30H18C15.7909 30 14 28.2092 14 26V21C14 19.1362 15.2748 17.5701 17 17.126ZM19 17V16C19 14.3432 20.3431 13 22 13C23.6568 13 25 14.3432 25 16V17H19ZM18 19C16.8954 19 16 19.8954 16 21V26C16 27.1046 16.8954 28 18 28H26C27.1046 28 28 27.1046 28 26V21C28 19.8954 27.1046 19 26 19H18ZM23.6407 25C23.6407 25.9062 22.9062 26.6407 22 26.6407C21.0938 26.6407 20.3593 25.9062 20.3593 25C20.3593 24.4702 20.6103 23.9991 21 23.6991V21C21 20.4477 21.4477 20 22 20C22.5523 20 23 20.4477 23 21V23.6991C23.3897 23.9991 23.6407 24.4702 23.6407 25Z" fill="url(#paint0_linear_7234_4746)"/>
<defs>
<linearGradient id="paint0_linear_7234_4746" x1="11.9094" y1="41.5494" x2="42.0537" y2="33.5647" gradientUnits="userSpaceOnUse">
<stop stop-color="#FE5000"/>
<stop offset="1" stop-color="#FCA92A"/>
</linearGradient>
</defs>
</svg>
