<svg width="44" height="44" viewBox="0 0 44 44" fill="none" xmlns="http://www.w3.org/2000/svg">
<path fill-rule="evenodd" clip-rule="evenodd" d="M42.7856 16.3333C42.7856 16.7159 42.5187 17.0112 42.1362 17.0112H41.6599V24.1122H42.1362C42.5187 24.1122 42.7856 24.4373 42.7856 24.8199V28.457C42.7856 28.8396 42.5187 29.1349 42.1362 29.1349H41.6599V32.745C41.6599 34.781 40.1089 36.4091 38.1489 36.4091H37.6764V38.3143C37.6764 38.6969 37.3662 39.0071 36.9836 39.0071H28.3238C27.9412 39.0071 27.631 38.6969 27.631 38.3143V36.4091H15.1609V38.3143C15.1609 38.6969 14.8507 39.0071 14.4681 39.0071H5.80833C5.42574 39.0071 5.11554 38.6969 5.11554 38.3143V36.4091H4.38318C2.42323 36.4091 0.785645 34.781 0.785645 32.745V8.40824C0.785645 6.37217 2.42323 4.71429 4.38318 4.71429H38.1489C40.1089 4.71429 41.6599 6.37217 41.6599 8.40824V11.9885H42.1362C42.5187 11.9885 42.7856 12.3136 42.7856 12.6962V16.3333ZM41.4001 27.7493V25.4978H36.8104V27.7493H41.4001ZM35.4248 24.8199C35.4238 24.4343 35.732 24.1193 36.1176 24.1122H36.464V17.0112H36.1176C35.9353 17.0146 35.7594 16.9446 35.6291 16.8174C35.4992 16.6898 35.4255 16.5156 35.4248 16.3333V12.6962C35.4238 12.3106 35.732 11.9956 36.1176 11.9885H36.464V10.9084C36.464 10.4632 36.1714 10.0834 35.7644 10.0834H6.76767C6.36106 10.0834 6.06812 10.4632 6.06812 10.9084V30.2448C6.06812 30.69 6.36073 31.0401 6.76767 31.0401H35.7644C36.1711 31.0401 36.464 30.69 36.464 30.2448V29.1349H36.1176C35.9353 29.1383 35.7594 29.0683 35.6291 28.9411C35.4992 28.8136 35.4255 28.6393 35.4248 28.457V24.8199ZM36.8104 13.3741V15.6256H41.4001V13.3741H36.8104ZM6.50111 37.6215H13.7753V36.4091H6.50111V37.6215ZM29.0166 37.6215H36.2908V36.4091H29.0166V37.6215ZM38.1489 35.0236C39.3447 35.0236 40.2743 34.0172 40.2743 32.745V29.1349H37.8496V30.2448C37.8496 31.4541 36.9352 32.4256 35.7644 32.4256H6.76767C5.5969 32.4256 4.68255 31.4541 4.68255 30.2448V10.9084C4.68255 9.69909 5.5969 8.6978 6.76767 8.6978H35.7644C36.9352 8.6978 37.8496 9.69909 37.8496 10.9084V11.9885H40.2743V8.40824C40.2743 7.13599 39.3447 6.09986 38.1489 6.09986H4.38318C3.18738 6.09986 2.17121 7.13599 2.17121 8.40824V32.745C2.17121 34.0172 3.18738 35.0236 4.38318 35.0236H38.1489ZM37.8496 24.1122H40.2743V17.0112H37.8496V24.1122ZM16.0327 13.6772C12.2217 13.6772 9.13256 16.7663 9.13256 20.5769C9.13256 24.3876 12.2217 27.477 16.0323 27.477C19.8433 27.477 22.9324 24.3876 22.9324 20.5769C22.928 16.768 19.8413 13.6816 16.0327 13.6772ZM16.0327 26.0911C12.9872 26.0915 10.5181 23.6224 10.5181 20.5769C10.5181 17.5315 12.9868 15.0628 16.0323 15.0628C19.0778 15.0628 21.5469 17.5315 21.5469 20.5769C21.5431 23.6207 19.0764 26.0874 16.0327 26.0908V26.0911ZM18.2824 18.1951C17.5237 17.6173 16.6777 17.3389 15.8333 17.3914C14.2275 17.4918 12.9479 18.7719 12.8474 20.3777C12.7953 21.221 13.0734 22.0677 13.6511 22.8264C13.6887 22.8761 13.733 22.9201 13.7824 22.958C14.4812 23.4901 15.2545 23.7678 16.0312 23.7678C16.0979 23.7678 16.1648 23.7658 16.2315 23.7617C17.8373 23.6613 19.1169 22.3813 19.2178 20.7758C19.2695 19.9322 18.9918 19.0855 18.4137 18.3267C18.3761 18.277 18.3318 18.233 18.2824 18.1951ZM17.3092 21.8532C16.7849 22.3779 15.7927 22.6979 14.6974 21.9114C13.9109 20.8164 14.2313 19.8246 14.7556 19.2999C15.2799 18.7753 16.2717 18.4553 17.3674 19.2417C18.1539 20.3364 17.8339 21.3289 17.3092 21.8532Z" fill="url(#paint0_linear_7234_4785)"/>
<defs>
<linearGradient id="paint0_linear_7234_4785" x1="9.44814" y1="39.0071" x2="44.7117" y2="25.4904" gradientUnits="userSpaceOnUse">
<stop stop-color="#FE5000"/>
<stop offset="1" stop-color="#FCA92A"/>
</linearGradient>
</defs>
</svg>
