<svg width="100" height="100" viewBox="0 0 100 100" fill="none" xmlns="http://www.w3.org/2000/svg">
<circle cx="50" cy="50" r="49.5" stroke="url(#paint0_linear_2296_774)"/>
<path fill-rule="evenodd" clip-rule="evenodd" d="M58.4634 21.967L58.4634 38.6226L54.8653 35.4737C54.7015 35.3304 54.4794 35.2499 54.2477 35.2499C54.0161 35.2499 53.794 35.3304 53.6302 35.4737C53.4664 35.6169 53.3744 35.8113 53.3744 36.0139C53.3744 36.2166 53.4664 36.4109 53.6302 36.5542L58.8638 41.1327C58.9449 41.2038 59.0411 41.2602 59.1471 41.2986C59.2531 41.3371 59.3667 41.3569 59.4814 41.3569C59.5961 41.3569 59.7097 41.3371 59.8157 41.2986C59.9217 41.2602 60.018 41.2038 60.099 41.1327L65.3326 36.5542C65.4964 36.4109 65.5885 36.2166 65.5885 36.0139C65.5885 35.8113 65.4964 35.6169 65.3326 35.4737C65.1689 35.3304 64.9467 35.2499 64.7151 35.2499C64.4834 35.2499 64.2613 35.3304 64.0975 35.4737L60.4991 38.6228L60.4991 21.967C60.4991 21.7106 60.3919 21.4646 60.201 21.2833C60.0101 21.1019 59.7512 21.0001 59.4813 21.0001C59.2113 21.0001 58.9524 21.1019 58.7615 21.2833C58.5707 21.4646 58.4634 21.7106 58.4634 21.967ZM53.6522 44.4463V47.2988C60.0155 46.3909 68.6422 47.6629 68.6423 51.1202V66.1364C68.6423 68.7332 63.7435 70.1536 58.649 70.2937V72.8102C58.649 75.5483 53.2026 76.9814 47.8228 76.9814C42.443 76.9814 36.9967 75.5484 36.9967 72.8102V67.8048C36.9967 66.6662 37.941 65.7679 39.4239 65.1028C35.3699 64.6257 32 63.2837 32 61.131V44.4463C32 38.97 53.6522 38.97 53.6522 44.4463ZM51.9867 44.5029C51.9867 43.6547 48.7532 42.0046 42.8261 42.0046C36.8991 42.0046 33.6655 43.6548 33.6656 44.5029C33.6656 45.3512 36.8992 47.0013 42.8261 47.0013C48.7531 47.0013 51.9867 45.3512 51.9867 44.5029ZM42.8261 48.6669C39.2657 48.6669 35.6863 48.0366 33.6655 46.8204L33.6656 49.4996C33.6656 50.3479 36.8991 51.998 42.8261 51.998C44.276 51.998 45.6849 51.8673 46.99 51.6579V51.1652C46.99 49.4619 49.0926 48.2898 51.9867 47.648V46.8204C49.9659 48.0366 46.3864 48.6669 42.8261 48.6669ZM49.1559 63.752C48.9789 63.664 48.814 63.5713 48.6555 63.476V63.7339C48.8229 63.7383 48.9892 63.7451 49.1559 63.752ZM42.8261 53.6636C39.2657 53.6636 35.6863 53.0333 33.6655 51.8171V55.3291C33.6655 56.1774 36.899 57.8274 42.8261 57.8274C44.276 57.8274 45.6848 57.6968 46.9899 57.4874V53.3368C45.6688 53.5341 44.2676 53.6636 42.8261 53.6636ZM33.6655 57.6465V61.1586C33.6655 62.0068 36.8991 63.6569 42.8261 63.6569C44.276 63.6569 45.6848 63.5263 46.9899 63.3169V59.1662C45.6688 59.3636 44.2676 59.4931 42.8261 59.4931C39.2657 59.4931 35.6863 58.8628 33.6655 57.6465ZM47.8228 75.3158C53.7498 75.3158 56.9834 73.6657 56.9834 72.8175L56.9833 70.2992C56.9451 70.2981 56.9064 70.2973 56.8678 70.2966C56.8185 70.2957 56.7693 70.2947 56.7208 70.2929C54.6609 71.4086 51.2308 71.9847 47.8227 71.9847C44.2624 71.9847 40.683 71.3544 38.6622 70.1382V72.8175C38.6622 73.6657 41.8958 75.3158 47.8228 75.3158ZM38.6623 67.8208C38.6623 68.6691 41.8957 70.3191 47.8228 70.3191C53.7498 70.3191 56.9834 68.6691 56.9834 67.8208C56.9834 66.9725 53.7498 65.3225 47.8228 65.3225C41.8958 65.3225 38.6623 66.9725 38.6623 67.8208ZM58.6489 68.6247C64.0258 68.4747 66.9767 66.9613 66.9767 66.1553L66.9766 63.476C64.9559 64.6922 61.3764 65.3225 57.8161 65.3225C57.4071 65.3225 56.9987 65.3114 56.5914 65.2949C57.8615 65.9393 58.6489 66.7803 58.6489 67.8208V68.6247ZM57.8162 63.6569C63.7431 63.6569 66.9767 62.0069 66.9767 61.1586V58.4793C64.956 59.6955 61.3765 60.3258 57.8162 60.3258C54.2558 60.3258 50.6763 59.6955 48.6556 58.4793V61.1586C48.6556 62.0069 51.8892 63.6569 57.8162 63.6569ZM57.8162 58.6602C63.7431 58.6602 66.9767 57.0102 66.9767 56.1619V53.4826C64.956 54.6988 61.3765 55.3291 57.8162 55.3291C54.2558 55.3291 50.6763 54.6988 48.6556 53.4826V56.1619C48.6556 57.0102 51.8892 58.6602 57.8162 58.6602ZM48.6556 51.1652C48.6556 52.0135 51.8891 53.6636 57.8162 53.6636C63.7431 53.6636 66.9767 52.0135 66.9767 51.1652C66.9767 50.317 63.7431 48.6669 57.8162 48.6669C51.8892 48.6669 48.6556 50.317 48.6556 51.1652Z" fill="url(#paint1_linear_2296_774)"/>
<defs>
<linearGradient id="paint0_linear_2296_774" x1="20.625" y1="100" x2="108.331" y2="72.5509" gradientUnits="userSpaceOnUse">
<stop stop-color="#FE5000"/>
<stop offset="1" stop-color="#FCA92A"/>
</linearGradient>
<linearGradient id="paint1_linear_2296_774" x1="39.5575" y1="76.9814" x2="73.4217" y2="70.0442" gradientUnits="userSpaceOnUse">
<stop stop-color="#FE5000"/>
<stop offset="1" stop-color="#FCA92A"/>
</linearGradient>
</defs>
</svg>
