<svg width="100" height="100" viewBox="0 0 100 100" fill="none" xmlns="http://www.w3.org/2000/svg">
<circle cx="50" cy="50" r="49.5" stroke="url(#paint0_linear_2296_778)"/>
<path d="M56.0107 43.88H37.2206C36.8292 43.88 36.4377 44.2 36.4377 44.68C36.4377 45.08 36.7509 45.48 37.2206 45.48H56.0107C56.4021 45.48 56.7936 45.16 56.7936 44.68C56.7936 44.2 56.4021 43.88 56.0107 43.88ZM37.2206 39.24H44.7367C45.1281 39.24 45.5196 38.92 45.5196 38.44C45.5196 38.04 45.2064 37.64 44.7367 37.64H37.2206C36.8292 37.64 36.4377 37.96 36.4377 38.44C36.516 38.92 36.8292 39.24 37.2206 39.24ZM56.0107 50.04H37.2206C36.8292 50.04 36.4377 50.36 36.4377 50.84C36.4377 51.24 36.7509 51.64 37.2206 51.64H56.0107C56.4021 51.64 56.7936 51.32 56.7936 50.84C56.7936 50.36 56.4021 50.04 56.0107 50.04ZM49.9822 56.12H37.2206C36.8292 56.12 36.4377 56.44 36.4377 56.92C36.4377 57.4 36.7509 57.72 37.2206 57.72H49.9822C50.3737 57.72 50.7651 57.4 50.7651 56.92C50.7651 56.44 50.452 56.12 49.9822 56.12ZM47.79 63.8C48.1815 63.8 48.573 63.48 48.573 63C48.573 62.52 48.2598 62.2 47.79 62.2H37.2206C36.8292 62.2 36.4377 62.52 36.4377 63C36.4377 63.48 36.7509 63.8 37.2206 63.8H47.79ZM30.4875 28.52H52.2527V39.24H62.7438V53.08H64.2313V38.2L53.2705 27H29V73H50.7651V71.48H30.4875V28.52ZM53.7402 29.64L61.6477 37.72H53.7402V29.64ZM72.2954 55.48L70.1815 53.32C69.3203 52.44 67.8327 52.44 67.0498 53.32L55.4626 65.08L53.8968 71.08L53.5053 71.48C53.1922 71.8 53.1922 72.28 53.5053 72.52C53.6619 72.68 53.8185 72.76 54.0534 72.76C54.21 72.76 54.4448 72.68 54.6014 72.52L54.9929 72.12L60.8648 70.52L72.3737 58.76C72.7651 58.36 73 57.72 73 57.16C72.9217 56.52 72.6868 55.96 72.2954 55.48ZM57.1851 65.48L64.8577 57.64L68.0676 60.92L60.3167 68.76L57.1851 65.48ZM56.4804 67L58.9075 69.48L55.6192 70.44L56.4804 67ZM71.1993 57.64L69.0854 59.8L65.8754 56.6L67.9893 54.44C68.3025 54.12 68.7722 54.12 69.0071 54.44L71.121 56.6C71.2776 56.76 71.3559 56.92 71.3559 57.16C71.4342 57.32 71.3559 57.48 71.1993 57.64Z" fill="url(#paint1_linear_2296_778)"/>
<defs>
<linearGradient id="paint0_linear_2296_778" x1="20.625" y1="100" x2="108.331" y2="72.5509" gradientUnits="userSpaceOnUse">
<stop stop-color="#FE5000"/>
<stop offset="1" stop-color="#FCA92A"/>
</linearGradient>
<linearGradient id="paint1_linear_2296_778" x1="38.075" y1="73" x2="76.9607" y2="61.3592" gradientUnits="userSpaceOnUse">
<stop stop-color="#FE5000"/>
<stop offset="1" stop-color="#FCA92A"/>
</linearGradient>
</defs>
</svg>
