<svg width="100" height="100" viewBox="0 0 100 100" fill="none" xmlns="http://www.w3.org/2000/svg">
<circle cx="50.0002" cy="50" r="49.5" stroke="url(#paint0_linear_2296_787)"/>
<path d="M60.6861 37.9219C60.6861 41.5351 59.4909 45.2093 57.5517 47.9605C55.6059 50.721 53.0146 52.4245 50.2462 52.4245C47.4745 52.4245 44.8494 50.7174 42.871 47.9544C40.8997 45.2016 39.6753 41.5292 39.6753 37.9219C39.6753 34.3379 40.8818 31.5663 42.7635 29.6927C44.6495 27.8148 47.2798 26.773 50.2462 26.773C53.2113 26.773 55.8058 27.8137 57.6579 29.6871C59.5074 31.5579 60.6861 34.3303 60.6861 37.9219Z" stroke="url(#paint1_linear_2296_787)" stroke-width="2" stroke-linecap="round" stroke-linejoin="round"/>
<path d="M47.8198 58.0383C48.7082 58.0941 49.5951 58.0935 50.4481 58.0935C51.2992 58.0935 52.1729 58.054 53.0198 57.9536M47.8198 58.0383C45.6831 57.904 43.5374 57.4435 41.8323 55.8639C40.3411 54.4824 40.1205 54.4824 39.0255 54.4824C37.6568 54.4824 31.1278 56.3961 28.6648 69.6448C28.4304 70.9055 28.7745 72.2266 31.4813 72.2266H45.3814M47.8198 58.0383L45.9413 61.3838L47.8198 62.6338M53.0198 57.9536C55.0626 57.7113 56.9492 57.1147 57.9876 55.8639C59.1628 54.4484 60.272 54.3532 60.6797 54.4824C68.8008 56.2663 70.5847 67.063 71.2888 69.6448C71.8521 71.7103 70.0526 72.2266 69.0825 72.2266H55.258M53.0198 57.9536L54.6982 61.3838L52.9267 62.6338M47.8198 62.6338L50.4481 64.3827L52.9267 62.6338M47.8198 62.6338L45.3814 72.2266M45.3814 72.2266H55.258M52.9267 62.6338L55.258 72.2266" stroke="url(#paint2_linear_2296_787)" stroke-width="2" stroke-linejoin="round"/>
<defs>
<linearGradient id="paint0_linear_2296_787" x1="20.6252" y1="100" x2="108.331" y2="72.5509" gradientUnits="userSpaceOnUse">
<stop stop-color="#FE5000"/>
<stop offset="1" stop-color="#FCA92A"/>
</linearGradient>
<linearGradient id="paint1_linear_2296_787" x1="43.4213" y1="53.4245" x2="64.1724" y2="48.0201" gradientUnits="userSpaceOnUse">
<stop stop-color="#FE5000"/>
<stop offset="1" stop-color="#FCA92A"/>
</linearGradient>
<linearGradient id="paint2_linear_2296_787" x1="37.4298" y1="72.2266" x2="63.7271" y2="52.4255" gradientUnits="userSpaceOnUse">
<stop stop-color="#FE5000"/>
<stop offset="1" stop-color="#FCA92A"/>
</linearGradient>
</defs>
</svg>
