<svg width="56" height="56" fill="none" xmlns="http://www.w3.org/2000/svg"><path d="m44.164 15.4 2.673-2.673-3.564-3.563-3.055 3.054c-3.309-2.036-7.254-3.309-11.327-3.436V7h5.091V4.455c0-1.4-1.145-2.546-2.545-2.546H24.69a2.553 2.553 0 0 0-2.545 2.546V7h5.09v1.655c-4.2.254-8.145 1.527-11.454 3.563l-3.055-3.054-3.563 3.563 2.673 2.673c-4.073 4.073-6.491 9.673-6.491 15.91 0 12.472 10.181 22.654 22.654 22.654s22.655-10.182 22.655-22.655c0-6.109-2.546-11.709-6.491-15.909Zm-.891-3.818 1.145 1.145-1.527 1.528a8.92 8.92 0 0 0-1.273-1.019l1.655-1.654ZM23.8 5.346v-.891c0-.51.382-.891.891-.891h6.746c.509 0 .89.382.89.89v.892H23.8Zm-12.218 7.381 1.145-1.145 1.655 1.654c-.509.382-.89.637-1.273 1.019l-1.527-1.528ZM28 52.31c-11.582 0-21-9.418-21-21s9.418-20.873 21-20.873 21 9.419 21 21c0 11.455-9.418 20.873-21 20.873Zm0-38.563c-9.672 0-17.563 7.89-17.563 17.563 0 9.673 7.89 17.564 17.563 17.564 9.673 0 17.564-7.891 17.564-17.564 0-9.672-7.891-17.564-17.564-17.564Zm.891 33.472v-1.654h-1.654v1.654C19.09 46.836 12.6 40.345 12.09 32.2h1.655v-1.655H12.09c.382-8.145 7-14.636 15.018-15.018v1.655h1.655v-1.655c8.145.382 14.764 6.873 15.145 15.019h-1.654V32.2h1.654c-.381 8.145-7 14.636-15.018 15.018ZM28.001 28c-1.91 0-3.31 1.527-3.31 3.31 0 1.908 1.527 3.308 3.31 3.308 1.908 0 3.308-1.527 3.308-3.309C31.31 29.527 29.91 28 28 28Zm0 5.091c-.892 0-1.655-.764-1.655-1.655 0-.89.763-1.654 1.654-1.654.891 0 1.655.764 1.655 1.654 0 .891-.764 1.655-1.655 1.655Zm.89-13.49h-1.654v7.508h1.654V19.6Zm-5.09 10.945h-5.092V32.2H23.8v-1.655Z" fill="url(#a)"/><defs><linearGradient id="a" x1="14.691" y1="53.964" x2="55.308" y2="42.899" gradientUnits="userSpaceOnUse"><stop stop-color="#FE5000"/><stop offset="1" stop-color="#FCA92A"/></linearGradient></defs></svg>