<svg width="44" height="44" fill="none" xmlns="http://www.w3.org/2000/svg"><g clip-path="url(#a)"><path d="M40.41 11.38h-4.838l-2.074-4.498a.566.566 0 0 0-.74-.276l-2.03.947-6.15-4.423a.557.557 0 0 0-.778.134l-5.748 8.116H3.59a.557.557 0 0 0-.555.56v20.117c0 .306.252.56.555.56h4.838l2.074 4.498c.126.276.46.403.741.276l2.03-.947 6.15 4.423c.244.179.6.12.777-.134l5.749-8.116h14.454a.557.557 0 0 0 .555-.56V11.94a.55.55 0 0 0-.548-.56Zm-7.69-3.52 1.623 3.52h-9.165l7.542-3.52Zm-8.334-3.484 5.186 3.722-7.031 3.282h-3.119l4.964-7.004Zm-8.313 23.198v3.857c0 .022 0 .044.008.067H12.74c0-.023.007-.045.007-.067V12.499h3.334v15.075h-.008ZM4.146 31.498v-19h7.557V26.53H8.369a.517.517 0 0 0-.519.522c0 .291.23.522.519.522h3.334v3.857c0 .022 0 .044.007.067H4.146Zm7.134 4.64-1.622-3.521h9.164l-7.542 3.52Zm8.335 3.49-5.186-3.722 7.03-3.282h3.12l-4.964 7.005Zm20.24-8.13H17.11c0-.023.007-.045.007-.067v-3.857h9.483a.517.517 0 0 0 .518-.522c0-.29-.23-.522-.518-.522h-9.49V12.499H39.854v18.999Zm-9.476-12.39h.97V15.72h2.786c1.586 0 2.475.806 2.475 2.193 0 1.395-.89 2.223-2.475 2.223h-1.6v.686h2.134v.65h-2.134v1.447H31.35v-1.448h-.97v-.649h.97v-.686h-.97v-1.03Zm3.586 0c1.06 0 1.46-.455 1.46-1.194 0-.738-.4-1.17-1.46-1.17h-1.43v2.364h1.43Z" fill="url(#b)"/></g><defs><linearGradient id="b" x1="10.857" y1="40.97" x2="44.121" y2="30.565" gradientUnits="userSpaceOnUse"><stop stop-color="#FE5000"/><stop offset="1" stop-color="#FCA92A"/></linearGradient><clipPath id="a"><path fill="#fff" transform="translate(3.035 3.035)" d="M0 0h37.931v37.931H0z"/></clipPath></defs></svg>