<svg width="56" height="56" fill="none" xmlns="http://www.w3.org/2000/svg"><path fill-rule="evenodd" clip-rule="evenodd" d="M24.462 8.8h6.873c.693 0 1.255.562 1.255 1.255v2.018h-9.382v-2.018c0-.693.562-1.255 1.255-1.255Zm-3.054 1.255A3.054 3.054 0 0 1 24.462 7h6.873a3.054 3.054 0 0 1 3.055 3.055V12.1h10.456a3.955 3.955 0 0 1 3.954 3.955v4.399a.9.9 0 1 1-1.8 0v-4.4c0-1.19-.965-2.154-2.154-2.154H10.953c-1.19 0-2.154.965-2.154 2.155v5.33l14.406 3.842a.8.8 0 0 1-.412 1.546L8.8 23.041v15.905c0 1.19.965 2.154 2.154 2.154h9.327a.9.9 0 1 1 0 1.8h-9.326A3.955 3.955 0 0 1 7 38.946V16.055a3.955 3.955 0 0 1 3.954-3.955h10.454v-2.045Z" fill="url(#a)"/><circle cx="38" cy="37" r="15.1" stroke="url(#b)" stroke-width="1.8"/><path d="M31 36.839 36.289 42 45 32" stroke="url(#c)" stroke-width="1.8" stroke-linecap="round"/><defs><linearGradient id="a" x1="7" y1="42.9" x2="42.488" y2="1.579" gradientUnits="userSpaceOnUse"><stop stop-color="#FE5000"/><stop offset="1" stop-color="#FE9800"/></linearGradient><linearGradient id="b" x1="22" y1="53" x2="54" y2="21" gradientUnits="userSpaceOnUse"><stop stop-color="#FE5000"/><stop offset="1" stop-color="#FE9800"/></linearGradient><linearGradient id="c" x1="31" y1="42" x2="40.459" y2="28.757" gradientUnits="userSpaceOnUse"><stop stop-color="#FE5000"/><stop offset="1" stop-color="#FE9800"/></linearGradient></defs></svg>