<svg width="44" height="44" fill="none" xmlns="http://www.w3.org/2000/svg"><path d="M22 3c-.1 0-.2.012-.296.035L6.884 6.698C6.363 6.825 6 7.27 6 7.78v18.582c0 1.913 1.046 3.774 2.53 5.552 1.486 1.777 3.46 3.477 5.595 4.927 3.665 2.487 6.538 3.684 7.389 4.058.31.136.668.136.98 0 .855-.376 3.72-1.573 7.381-4.058 2.136-1.45 4.116-3.15 5.601-4.927C36.961 30.135 38 28.274 38 26.36V7.78c0-.508-.36-.952-.877-1.08L22.294 3.034A1.243 1.243 0 0 0 22 3Zm0 2.27 13.66 3.376V26.36c0 1.081-.72 2.6-2.022 4.159-1.302 1.558-3.14 3.149-5.126 4.497-3.238 2.197-5.417 3.106-6.503 3.58-1.081-.471-3.27-1.378-6.514-3.58-1.986-1.348-3.824-2.939-5.126-4.498-1.303-1.559-2.02-3.077-2.02-4.158V8.646L22 5.27Zm6.496 10.047a1.2 1.2 0 0 0-.902.393l-7.086 7.896-3.712-3.894a1.198 1.198 0 0 0-.817-.367 1.21 1.21 0 0 0-.85.293c-.231.2-.37.478-.384.776-.014.296.096.587.307.806l4.614 4.827c.227.237.55.37.886.365a1.2 1.2 0 0 0 .874-.389l7.953-8.861c.202-.226.302-.518.278-.814a1.1 1.1 0 0 0-.409-.762 1.21 1.21 0 0 0-.753-.269Z" fill="url(#a)"/><defs><linearGradient id="a" x1="12.6" y1="41" x2="41.414" y2="33.406" gradientUnits="userSpaceOnUse"><stop stop-color="#FE5000"/><stop offset="1" stop-color="#FCA92A"/></linearGradient></defs></svg>