<svg width="56" height="56" viewBox="0 0 56 56" fill="none" xmlns="http://www.w3.org/2000/svg">
<path fill-rule="evenodd" clip-rule="evenodd" d="M7.82692 40.4212C7.58002 40.4957 7.31279 40.4567 7.09751 40.3147L0.802646 36.1625C0.40203 35.8983 0.291484 35.3593 0.555732 34.9587C0.819984 34.5581 1.35896 34.4475 1.75957 34.7118L6.05696 37.5464C4.90969 34.7404 4.27759 31.6697 4.27759 28.4532C4.27759 15.1756 15.0413 4.41187 28.319 4.41187C32.6965 4.41187 36.8032 5.58263 40.3403 7.6287C40.7557 7.86901 40.8977 8.40058 40.6574 8.816C40.417 9.23142 39.8855 9.37337 39.4701 9.13307C36.1904 7.23589 32.3828 6.1498 28.319 6.1498C16.0011 6.1498 6.01552 16.1354 6.01552 28.4532C6.01552 31.4917 6.62263 34.3865 7.72164 37.0244L9.72515 32.3091C9.91282 31.8674 10.423 31.6614 10.8647 31.8491C11.3064 32.0368 11.5124 32.547 11.3247 32.9887L8.37574 39.9291C8.27489 40.1665 8.07383 40.3468 7.82692 40.4212ZM48.4914 16.0369C48.7383 15.9624 49.0056 16.0015 49.2209 16.1435L55.5157 20.2956C55.9163 20.5599 56.0269 21.0989 55.7626 21.4995C55.4984 21.9001 54.9594 22.0106 54.5588 21.7464L50.2614 18.9118C51.4087 21.7178 52.0408 24.7884 52.0408 28.0049C52.0408 41.2826 41.2771 52.0463 27.9994 52.0463C23.6219 52.0463 19.5151 50.8755 15.9781 48.8295C15.5627 48.5891 15.4207 48.0576 15.661 47.6422C15.9013 47.2267 16.4329 47.0848 16.8483 47.3251C20.128 49.2223 23.9355 50.3084 27.9994 50.3084C40.3173 50.3084 50.3028 40.3228 50.3028 28.0049C50.3028 24.9665 49.6957 22.0717 48.5967 19.4338L46.5932 24.1491C46.4055 24.5908 45.8953 24.7967 45.4536 24.6091C45.0119 24.4214 44.806 23.9112 44.9937 23.4695L47.9426 16.529C48.0435 16.2917 48.2445 16.1114 48.4914 16.0369Z" fill="url(#paint0_linear_7178_3515)"/>
<path fill-rule="evenodd" clip-rule="evenodd" d="M19.3397 35.9204H36.7452V38H19.3397V35.9204ZM36.7452 34.7263C37.12 33.7105 37.6203 32.3823 38.1225 31.0559C38.6209 29.7296 39.1231 28.4013 39.7489 26.6322L40 25.9691L39.4997 25.5282C38.1767 24.3144 36.6848 23.3148 35.0745 22.5632C33.3783 21.7889 31.5753 21.2967 29.7317 21.1046L29.2314 21.0605H28.6886V34.6822H33.3225L33.5717 34.0632L35.4086 29.4191L36.8283 25.8349C37.12 26.0572 37.4117 26.2796 37.7034 26.5441C37.3286 27.5599 36.8283 28.9323 36.3262 30.3046C35.8277 31.6309 35.3662 32.9132 34.6997 34.6822H36.7434L36.7452 34.7263ZM34.3231 24.3763C34.6572 24.5105 34.9508 24.6868 35.2425 24.8632L33.7397 28.7118L32.152 32.7368H30.6086V23.2263C31.9009 23.4927 33.1563 23.8454 34.3231 24.3763ZM19.2548 34.7263C18.88 33.7105 18.3797 32.3823 17.8775 31.0559C17.3791 29.7296 16.8769 28.4013 16.2511 26.6322L16 25.9691L16.5003 25.5282C17.8233 24.3144 19.3152 23.3148 20.9255 22.5632C22.6217 21.7889 24.4247 21.2967 26.2683 21.1046L26.7686 21.0605H27.3114V34.6822H22.6351L22.3858 34.0632L20.5489 29.4191L19.1311 25.8349C18.8375 26.0572 18.5458 26.2796 18.2542 26.5441C18.6289 27.5599 19.1311 28.9323 19.6314 30.3046C20.1317 31.6309 20.5914 32.9132 21.2597 34.6822H19.2566V34.7263H19.2548ZM21.6769 24.3763C21.3428 24.5105 21.0492 24.6868 20.7575 24.8632L22.2603 28.7118L23.848 32.7368H25.3914V23.2263C24.1154 23.4629 22.8693 23.8487 21.6769 24.3763ZM27.9372 15L30.2338 17.4342L27.9372 19.8645L25.6425 17.4322L27.9372 15Z" fill="url(#paint1_linear_7178_3515)"/>
<defs>
<linearGradient id="paint0_linear_7178_3515" x1="11.8577" y1="52.0463" x2="59.0264" y2="34.8483" gradientUnits="userSpaceOnUse">
<stop stop-color="#FE5000"/>
<stop offset="1" stop-color="#FCA92A"/>
</linearGradient>
<linearGradient id="paint1_linear_7178_3515" x1="20.9495" y1="38" x2="41.8337" y2="31.1795" gradientUnits="userSpaceOnUse">
<stop stop-color="#FE5000"/>
<stop offset="1" stop-color="#FCA92A"/>
</linearGradient>
</defs>
</svg>
