<svg width="56" height="56" viewBox="0 0 56 56" fill="none" xmlns="http://www.w3.org/2000/svg">
<g clip-path="url(#clip0_7178_3195)">
<path d="M46.3352 7.15646C46.1219 6.70608 45.7457 6.35338 45.2825 6.16955C44.8193 5.98573 44.3037 5.98446 43.8396 6.16602L39.8203 7.74458C39.5704 7.84242 39.3434 7.99057 39.1532 8.17984C38.963 8.3691 38.8137 8.59545 38.7147 8.84481C38.6156 9.09418 38.5689 9.36124 38.5774 9.62943C38.5859 9.89761 38.6494 10.1612 38.764 10.4038L39.3208 11.5806L38.8759 11.7697C37.2744 12.1043 36.1653 12.0593 34.5172 11.5976L30.5016 10.4726C29.3666 10.1535 28.1632 10.1729 27.0392 10.5284L23.1638 11.7503C22.3787 11.9981 21.6525 12.4035 21.0296 12.9418C20.3493 12.6921 19.0509 12.3715 17.2706 12.6281L17.7979 11.6273C18.0294 11.1859 18.0841 10.6728 17.9507 10.1925C17.8174 9.71213 17.506 9.30065 17.08 9.04176L13.3898 6.80303C13.1604 6.66386 12.905 6.57313 12.6393 6.53642C12.3735 6.49971 12.1031 6.51781 11.8446 6.5896C11.5861 6.66139 11.345 6.78534 11.1363 6.95383C10.9275 7.12231 10.7555 7.33176 10.6307 7.56927L0.226596 27.4257C-0.0120505 27.8765 -0.0644048 28.4028 0.080779 28.8917C0.225963 29.3806 0.557103 29.7931 1.00307 30.0406L4.71637 32.1265C5.00903 32.2921 5.33948 32.3793 5.67572 32.3796C5.8656 32.3795 6.05447 32.352 6.23653 32.2981C6.48826 32.2247 6.72258 32.1013 6.92544 31.9351C7.12829 31.769 7.2955 31.5636 7.41704 31.3313L7.99004 30.2431L9.82998 31.7727L7.18076 35.4377C6.94282 35.7669 6.77221 36.1397 6.67874 36.535C6.58527 36.9302 6.57076 37.34 6.63607 37.7408C6.70137 38.1417 6.84519 38.5257 7.05928 38.8708C7.27336 39.2159 7.5535 39.5154 7.8836 39.752L8.20534 39.983C8.73112 40.3614 9.36272 40.5647 10.0105 40.5639C10.2654 40.5636 10.5192 40.5322 10.7664 40.4703C10.7731 40.5556 10.7826 40.641 10.7965 40.7269C10.8608 41.1284 11.0042 41.5131 11.2184 41.8586C11.4326 42.2042 11.7133 42.5037 12.0443 42.7399L12.3661 42.9715C12.8918 43.3499 13.5234 43.5532 14.1713 43.5524C14.4261 43.5521 14.6799 43.5207 14.9271 43.4588C14.934 43.5441 14.9433 43.6295 14.9572 43.7154C15.0215 44.1169 15.1649 44.5016 15.3791 44.8471C15.5933 45.1926 15.8741 45.4922 16.205 45.7282L16.5268 45.9599C17.0526 46.3382 17.6842 46.5415 18.332 46.5408C18.5868 46.5405 18.8407 46.509 19.0879 46.4472C19.0947 46.5325 19.1041 46.6179 19.118 46.7032C19.1822 47.1046 19.3256 47.4893 19.5398 47.8349C19.754 48.1804 20.0348 48.4799 20.3658 48.716L20.6875 48.9477C21.3544 49.4253 22.1831 49.6197 22.9928 49.4885C23.8025 49.3572 24.5274 48.911 25.0093 48.2471L26.0492 46.8085L27.6895 48.115C28.1986 48.551 28.821 48.8337 29.4843 48.9302C30.1477 49.0267 30.8248 48.933 31.437 48.66C32.0492 48.387 32.5715 47.9459 32.943 47.3879C33.3146 46.83 33.5202 46.1781 33.536 45.5079C34.2246 45.797 34.9869 45.8613 35.7142 45.6916C36.4415 45.5219 37.0966 45.1269 37.5862 44.563C38.1267 43.9428 38.4318 43.1522 38.4479 42.3297C39.1365 42.6187 39.8987 42.6829 40.626 42.5132C41.3532 42.3435 42.0083 41.9486 42.4979 41.3846C43.0144 40.7918 43.3164 40.0424 43.3552 39.2571C44.0654 39.6286 44.8802 39.7494 45.6676 39.5997C46.455 39.45 47.1687 39.0388 47.6931 38.4326L47.7394 38.3792C48.0368 38.0363 48.2635 37.638 48.4066 37.2072C48.5496 36.7764 48.6061 36.3216 48.5729 35.8689C48.5397 35.4162 48.4173 34.9745 48.2129 34.5693C48.0085 34.164 47.7261 33.803 47.3818 33.5072L46.2236 32.5102C47.035 32.0161 47.75 31.3788 48.3339 30.6293L48.3515 30.6665C48.5092 31.0027 48.7594 31.2871 49.0728 31.4863C49.3862 31.6856 49.7499 31.7914 50.1213 31.7914C50.3913 31.7911 50.6584 31.7355 50.906 31.6279L54.8171 29.939C55.0581 29.8352 55.2758 29.684 55.4572 29.4944C55.6386 29.3048 55.78 29.0806 55.8731 28.8352C55.9661 28.5899 56.0088 28.3283 55.9987 28.0661C55.9887 27.8038 55.9259 27.5463 55.8143 27.3088L46.3352 7.15646ZM6.12217 30.6492C6.09077 30.7083 6.04785 30.7605 5.99597 30.8027C5.94408 30.845 5.88426 30.8765 5.82003 30.8953C5.7558 30.9141 5.68846 30.9198 5.62197 30.9122C5.55548 30.9046 5.49118 30.8838 5.43286 30.8509L1.71957 28.7648C1.60685 28.7025 1.52307 28.5984 1.48621 28.4749C1.44936 28.3515 1.46236 28.2185 1.52243 28.1045L11.9269 8.24846C11.9584 8.18791 12.002 8.13454 12.0551 8.09172C12.1082 8.04889 12.1697 8.01753 12.2355 7.99963C12.2799 7.98718 12.3257 7.98082 12.3718 7.98073C12.4634 7.98076 12.5531 8.00608 12.6312 8.05388L16.3217 10.2926C16.4294 10.3578 16.5082 10.4617 16.5421 10.583C16.5759 10.7043 16.5622 10.8339 16.5039 10.9455L6.12217 30.6492ZM9.05875 38.7947L8.73701 38.5637C8.56326 38.4393 8.41579 38.2819 8.30307 38.1004C8.19036 37.919 8.11461 37.717 8.0802 37.5062C8.04578 37.2953 8.05336 37.0797 8.10252 36.8718C8.15168 36.6639 8.24143 36.4678 8.36663 36.2947L12.4662 30.6227C12.7207 30.2722 13.1036 30.0367 13.5312 29.9675C13.9588 29.8983 14.3964 30.0011 14.7485 30.2534L15.0704 30.4851C15.2441 30.6094 15.3916 30.7668 15.5043 30.9482C15.617 31.1297 15.6927 31.3317 15.7271 31.5425C15.7616 31.7533 15.754 31.9689 15.7048 32.1768C15.6557 32.3847 15.5659 32.5808 15.4408 32.7539L14.3784 34.2237L14.3771 34.2255L11.3414 38.4259C11.0867 38.7764 10.7038 39.0118 10.2761 39.0809C9.84843 39.15 9.4108 39.0471 9.05875 38.7947ZM13.2192 41.7826L12.8975 41.5509C12.7237 41.4266 12.5763 41.2692 12.4636 41.0877C12.3508 40.9063 12.2751 40.7043 12.2407 40.4934C12.2063 40.2826 12.2138 40.067 12.263 39.8591C12.3122 39.6512 12.4019 39.4551 12.5271 39.282L15.5644 35.0796C15.8192 34.7298 16.202 34.4949 16.6293 34.4261C17.0566 34.3573 17.4938 34.4602 17.8455 34.7123L18.1673 34.944C18.341 35.0683 18.4885 35.2257 18.6012 35.4072C18.7139 35.5887 18.7896 35.7907 18.824 36.0015C18.8584 36.2124 18.8508 36.4279 18.8017 36.6358C18.7525 36.8437 18.6627 37.0399 18.5375 37.213L15.5018 41.4133C15.2473 41.7638 14.8643 41.9994 14.4367 42.0686C14.009 42.1378 13.5713 42.035 13.2192 41.7826ZM17.3797 44.7705L17.058 44.5388C16.8842 44.4145 16.7368 44.2571 16.6241 44.0757C16.5114 43.8942 16.4356 43.6922 16.4012 43.4814C16.3668 43.2706 16.3744 43.055 16.4235 42.8471C16.4727 42.6392 16.5624 42.4431 16.6876 42.27L18.8532 39.2734C19.1078 38.923 19.4907 38.6875 19.9184 38.6183C20.346 38.5492 20.7837 38.652 21.1358 38.9043L21.4576 39.1359C21.6314 39.2602 21.7788 39.4177 21.8915 39.5991C22.0042 39.7806 22.0799 39.9826 22.1143 40.1934C22.1487 40.4042 22.1411 40.6198 22.092 40.8277C22.0428 41.0355 21.9531 41.2317 21.8279 41.4048L19.6622 44.4013C19.4076 44.7518 19.0247 44.9873 18.5971 45.0565C18.1694 45.1256 17.7318 45.0228 17.3797 44.7705ZM23.8227 47.3891C23.5681 47.7397 23.1851 47.9754 22.7573 48.0446C22.3296 48.1138 21.8918 48.0109 21.5397 47.7584L21.218 47.5267C21.0442 47.4024 20.8967 47.245 20.784 47.0635C20.6713 46.8821 20.5956 46.6801 20.5611 46.4692C20.5267 46.2584 20.5343 46.0428 20.5835 45.8349C20.6326 45.627 20.7224 45.4309 20.8476 45.2578L22.1431 43.4656C22.3976 43.1152 22.7805 42.8797 23.2081 42.8105C23.6357 42.7413 24.0733 42.8441 24.4254 43.0965L24.7473 43.3281C24.921 43.4524 25.0685 43.6098 25.1812 43.7913C25.2939 43.9728 25.3697 44.1747 25.4041 44.3856C25.4385 44.5964 25.4309 44.812 25.3818 45.0199C25.3326 45.2278 25.2429 45.424 25.1177 45.5971L23.8227 47.3891ZM47.1131 35.9754C47.1329 36.2359 47.1006 36.4978 47.0182 36.7457C46.9359 36.9936 46.805 37.2227 46.6333 37.4196L46.5869 37.4731C46.225 37.892 45.7121 38.1507 45.1601 38.1926C44.6081 38.2346 44.062 38.0565 43.6409 37.6972C43.1722 37.2934 42.661 36.8531 42.1452 36.4089L42.1319 36.3967L38.3152 33.11L38.2601 33.0625L38.1967 33.0079L38.1511 32.9687C38.0039 32.8439 37.8133 32.7823 37.6208 32.7974C37.4284 32.8125 37.2497 32.9031 37.1238 33.0494C36.9978 33.1956 36.9348 33.3858 36.9484 33.5783C36.962 33.7709 37.0512 33.9502 37.1965 34.0773L37.2583 34.1306C37.6067 34.4305 39.4199 35.9918 41.184 37.5113C41.3892 37.6888 41.5573 37.9051 41.6788 38.1477C41.8003 38.3902 41.8728 38.6544 41.8922 38.925C41.9115 39.1956 41.8773 39.4674 41.7915 39.7248C41.7057 39.9822 41.5701 40.2201 41.3923 40.4251C41.0302 40.841 40.5183 41.097 39.9683 41.137C39.4183 41.177 38.8748 40.9978 38.4564 40.6385L37.221 39.5747L34.4749 37.2109C34.4022 37.1473 34.3177 37.0988 34.2262 37.0681C34.1347 37.0373 34.038 37.025 33.9417 37.0318C33.8454 37.0387 33.7514 37.0645 33.6652 37.1078C33.5789 37.1511 33.502 37.211 33.4391 37.2842C33.3761 37.3573 33.3282 37.4422 33.2981 37.534C33.2681 37.6257 33.2566 37.7225 33.2641 37.8187C33.2717 37.915 33.2982 38.0088 33.3422 38.0947C33.3861 38.1806 33.4467 38.257 33.5203 38.3195L36.2661 40.6836C36.4725 40.8609 36.6418 41.0772 36.7643 41.3201C36.8868 41.563 36.9602 41.8278 36.9801 42.0991C37 42.3704 36.9661 42.643 36.8803 42.9012C36.7945 43.1594 36.6586 43.3981 36.4803 43.6036C36.1183 44.0197 35.6064 44.2756 35.0563 44.3157C34.5063 44.3557 33.9627 44.1765 33.5443 43.8172L30.7988 41.453C30.726 41.3904 30.6416 41.3426 30.5503 41.3126C30.4591 41.2825 30.3628 41.2708 30.267 41.2779C30.1712 41.2851 30.0778 41.311 29.992 41.3543C29.9062 41.3976 29.8298 41.4573 29.7671 41.5301C29.7045 41.6029 29.6567 41.6873 29.6267 41.7786C29.5966 41.8698 29.5849 41.9661 29.592 42.0619C29.5992 42.1577 29.6251 42.2511 29.6684 42.3369C29.7117 42.4227 29.7714 42.4991 29.8442 42.5617L30.7342 43.3279L31.3545 43.862C31.5609 44.0392 31.7302 44.2555 31.8527 44.4985C31.9753 44.7414 32.0486 45.0061 32.0685 45.2774C32.0884 45.5488 32.0545 45.8214 31.9687 46.0796C31.8829 46.3378 31.747 46.5765 31.5687 46.782C31.2067 47.198 30.6948 47.4539 30.1448 47.4939C29.5948 47.5339 29.0513 47.3548 28.6328 46.9956C28.6259 46.9895 28.6186 46.9834 28.6114 46.9776L26.7672 45.5094C26.9448 44.8961 26.928 44.2428 26.7193 43.6393C26.5105 43.0359 26.1199 42.512 25.6012 42.1395L25.2793 41.9079C24.7533 41.5297 24.1214 41.3267 23.4735 41.3278C23.654 40.7134 23.6392 40.058 23.4309 39.4523C23.2226 38.8467 22.8313 38.3207 22.3111 37.9473L21.9892 37.7156C21.4631 37.3374 20.8312 37.1344 20.1833 37.1357C20.3638 36.5212 20.3489 35.8657 20.1406 35.2601C19.9324 34.6544 19.541 34.1284 19.0207 33.7549L18.6989 33.5233C18.2007 33.1648 17.6069 32.9631 16.9934 32.9441C17.2478 32.3037 17.2807 31.5966 17.0869 30.9354C16.8931 30.2741 16.4837 29.6967 15.9238 29.295L15.6019 29.0634C14.9351 28.5858 14.1064 28.3915 13.2967 28.5227C12.487 28.6539 11.7621 29.1002 11.2803 29.7639L10.6892 30.5841L8.68739 28.9198L16.3868 14.3068C17.9924 13.8627 19.2111 13.969 19.9648 14.1443C19.748 14.4656 19.5625 14.8069 19.4107 15.1636L18.2264 18.0397C17.9253 18.7712 17.6478 19.5218 17.4012 20.272L16.2194 23.8675C16.1628 24.0398 16.1722 24.2269 16.2458 24.3926C16.3193 24.5583 16.4518 24.6908 16.6175 24.7644L16.8719 24.8774C17.7709 25.2876 18.7592 25.4632 19.7445 25.3879C20.7298 25.3125 21.6799 24.9887 22.5061 24.4466C23.2187 23.978 23.8174 23.3558 24.2581 22.6256C24.6988 21.8954 24.9704 21.0759 25.053 20.227C25.0591 20.1632 25.0652 20.099 25.0695 20.0339C25.1213 19.7796 25.5346 17.9724 26.8007 17.8835L28.5075 18.3635C29.1702 18.5502 29.775 18.9013 30.2658 19.3842L40.8367 29.8018C40.8489 29.8133 40.8611 29.8245 40.8733 29.8353L46.4276 34.6143C46.6264 34.7844 46.7894 34.9923 46.9071 35.226C47.0247 35.4597 47.0948 35.7144 47.1131 35.9754ZM45.0393 31.4909L41.8452 28.7425L31.2929 18.3422C30.6259 17.686 29.804 17.2089 28.9034 16.9553L27.0868 16.4446C27.0224 16.4264 26.9558 16.4172 26.8888 16.4171H26.8858C25.7538 16.4219 24.8231 17.0379 24.1945 18.1988C23.9246 18.7069 23.7315 19.2522 23.6215 19.8169C23.6175 19.8413 23.6146 19.8656 23.6129 19.89C23.6084 19.9567 23.6029 20.0224 23.5968 20.087C23.5347 20.7192 23.3318 21.3295 23.0031 21.8731C22.6743 22.4167 22.228 22.8797 21.697 23.2283C21.1283 23.5947 20.4833 23.8259 19.8114 23.9044C19.1395 23.9829 18.4586 23.9065 17.8208 23.6811L18.791 20.7293C19.0263 20.0129 19.2908 19.2957 19.5791 18.5974L20.7604 15.7281C21.0191 15.1174 21.4074 14.5702 21.8985 14.1244C22.3896 13.6785 22.9716 13.3448 23.6045 13.1462L27.4796 11.9242C28.3327 11.6547 29.2458 11.64 30.107 11.8818L34.1227 13.0068C36.0296 13.5412 37.3714 13.5882 39.2497 13.1866C39.2954 13.1769 39.34 13.1628 39.383 13.1446L39.9473 12.9049L47.6097 29.1002C46.9928 30.1213 46.1024 30.9495 45.0393 31.4909ZM54.5042 28.3141C54.4808 28.3766 54.4449 28.4336 54.3988 28.4818C54.3527 28.53 54.2973 28.5683 54.236 28.5945L50.325 30.2835C50.206 30.3358 50.0712 30.3396 49.9495 30.294C49.8277 30.2485 49.7285 30.1573 49.673 30.0397L49.1647 28.9654C49.1413 28.8435 49.0874 28.7296 49.0081 28.6343L40.0864 9.77825C40.0575 9.71687 40.0415 9.65019 40.0394 9.58237C40.0374 9.51455 40.0493 9.44702 40.0745 9.38401C40.0996 9.32099 40.1375 9.26382 40.1857 9.21605C40.2339 9.16829 40.2914 9.13096 40.3546 9.10637L44.3744 7.52769C44.4927 7.48124 44.6242 7.48135 44.7424 7.528C44.8606 7.57465 44.9567 7.66437 45.0114 7.77908L54.4894 27.9302C54.5177 27.9899 54.5336 28.0546 54.5362 28.1206C54.5388 28.1866 54.5279 28.2525 54.5042 28.3141Z" fill="url(#paint0_linear_7178_3195)"/>
</g>
<defs>
<linearGradient id="paint0_linear_7178_3195" x1="11.5502" y1="49.5285" x2="57.9444" y2="30.8353" gradientUnits="userSpaceOnUse">
<stop stop-color="#FE5000"/>
<stop offset="1" stop-color="#FCA92A"/>
</linearGradient>
<clipPath id="clip0_7178_3195">
<rect width="56" height="56" fill="white"/>
</clipPath>
</defs>
</svg>
