<svg width="56" height="56" viewBox="0 0 56 56" fill="none" xmlns="http://www.w3.org/2000/svg">
<path fill-rule="evenodd" clip-rule="evenodd" d="M17.4141 16.6791C17.4141 16.3617 17.4236 16.05 17.4424 15.7443C17.8456 9.1746 22.507 5.32275 28.2302 5.32275C34.2197 5.32275 38.9237 9.54145 38.9237 16.6791C38.9237 23.8167 34.2197 31.1703 28.2302 31.1703C22.5019 31.1703 17.8374 24.4443 17.4413 17.6138C17.4233 17.3022 17.4141 16.9904 17.4141 16.6791ZM22.096 25.5128C20.5366 23.3351 19.5033 20.4854 19.3148 17.6191C21.1656 17.6143 23.4504 17.5485 25.5531 17.1356C27.9251 16.6697 30.3776 15.6981 31.5841 13.5944C32.1081 14.053 32.7485 14.5251 33.463 14.8958C34.4689 15.4177 35.7166 15.7815 37.0054 15.5172C37.0376 15.8915 37.0542 16.2788 37.0542 16.6791C37.0542 19.8652 35.9957 23.1113 34.295 25.5242C32.5821 27.9543 30.411 29.3008 28.2302 29.3008C26.0432 29.3008 23.8395 27.9476 22.096 25.5128ZM34.4935 9.63866C35.4896 10.6462 36.2724 11.9888 36.6985 13.6686C35.9404 13.8459 35.134 13.6566 34.3239 13.2363C33.2869 12.6983 32.4066 11.8559 31.9637 11.3304C31.7372 11.0617 31.3791 10.9427 31.0369 11.0224C30.6946 11.1021 30.426 11.3671 30.3416 11.7082C29.8521 13.6856 27.9279 14.7639 25.1928 15.3011C23.2491 15.6828 21.124 15.7441 19.3155 15.7489C19.5021 13.0795 20.4913 11.0468 21.8951 9.64911C23.4658 8.08528 25.6792 7.19228 28.2302 7.19228C30.7787 7.19228 32.9558 8.08322 34.4935 9.63866ZM34.7474 32.8533C35.9789 31.37 37.3557 31.0093 38.2173 31.2535C42.4042 32.1876 44.8885 35.4284 46.3851 38.5632C47.6078 41.1245 48.2431 43.7794 48.6004 45.2729L48.6005 45.2732C48.6804 45.6069 48.7464 45.8826 48.8019 46.0863C48.9695 46.7008 48.9817 47.2782 48.8206 47.7997C48.6582 48.3257 48.3422 48.721 47.9783 49.0024C47.2867 49.5373 46.407 49.6804 45.8377 49.6804H10.6895C9.30763 49.6804 8.2454 49.3466 7.61578 48.5691C6.98998 47.7963 7.00941 46.8519 7.13779 46.1614C9.4919 33.4983 15.8634 31.2243 17.7416 31.2243L17.809 31.2242C18.2687 31.2236 18.7612 31.223 19.3026 31.4701C19.8147 31.7038 20.3199 32.1341 21.0005 32.7647C22.359 34.0231 24.102 34.4294 26.0208 34.55C26.8133 34.5998 27.6091 34.5998 28.4079 34.5998H28.419C29.187 34.5998 29.9659 34.5641 30.7128 34.4755C32.5756 34.2546 34.0197 33.7299 34.7474 32.8533ZM36.1859 34.0475C36.9873 33.0821 37.5904 33.0593 37.6939 33.0554C37.7121 33.0547 37.7148 33.0546 37.7006 33.0501C37.7276 33.0587 37.7549 33.066 37.7826 33.0721C41.1666 33.8154 43.3024 36.4455 44.6979 39.3686C45.8222 41.7236 46.3959 44.1084 46.7616 45.6288C46.8513 46.0017 46.9285 46.3225 46.9983 46.5782C47.0939 46.9291 47.0689 47.1361 47.0344 47.2481C47.0012 47.3556 46.9387 47.443 46.8346 47.5235C46.5901 47.7126 46.1752 47.8109 45.8377 47.8108H33.6499L31.7944 40.1758L32.9307 39.3739C33.3057 39.1093 33.4332 38.6116 33.2315 38.1993L32.2163 36.1246C33.7537 35.8021 35.2361 35.1916 36.1859 34.0475ZM30.152 41.3346L31.726 47.8108H24.885L26.543 41.2879L27.9011 42.1917C28.2225 42.4056 28.6424 42.3998 28.9579 42.1772L30.152 41.3346ZM24.8931 40.19L22.956 47.8108H10.6895C9.54132 47.8108 9.17763 47.5271 9.06865 47.3926C8.95584 47.2533 8.8851 46.9911 8.97582 46.5031C11.2263 34.3975 17.0609 33.0938 17.7416 33.0938C18.2863 33.0938 18.387 33.1073 18.5265 33.1709C18.7219 33.26 19.0167 33.4753 19.73 34.1361C21.1395 35.4419 22.8097 36.0114 24.4516 36.2638L23.3911 38.1525C23.1517 38.5788 23.2813 39.1175 23.6883 39.3884L24.8931 40.19ZM25.4456 38.3121L26.4939 36.4451C27.1435 36.4694 27.7818 36.4693 28.3826 36.4693H28.3827H28.419C29.0252 36.4693 29.6484 36.4486 30.2688 36.3981L31.2021 38.3056L28.4035 40.2803L25.4456 38.3121Z" fill="url(#paint0_linear_7178_3254)"/>
<defs>
<linearGradient id="paint0_linear_7178_3254" x1="15.7011" y1="49.6804" x2="52.7837" y2="38.7258" gradientUnits="userSpaceOnUse">
<stop stop-color="#FE5000"/>
<stop offset="1" stop-color="#FCA92A"/>
</linearGradient>
</defs>
</svg>
