<svg width="56" height="56" viewBox="0 0 56 56" fill="none" xmlns="http://www.w3.org/2000/svg">
<path fill-rule="evenodd" clip-rule="evenodd" d="M27.4558 4.81155C27.739 4.6149 28.1145 4.6149 28.3977 4.81155L46.6205 17.4663C46.8427 17.6206 46.9753 17.874 46.9753 18.1445V21.3683H48.1743C48.6303 21.3683 49 21.738 49 22.194V25.7373C49 26.1933 48.6303 26.563 48.1743 26.563H44.9505V41.6159H46.1496C46.6056 41.6159 46.9753 41.9855 46.9753 42.4415V45.1592H48.1743C48.6303 45.1592 49 45.5289 49 45.9849V50.0344C49 50.4904 48.6303 50.8601 48.1743 50.8601H7.61377C7.15776 50.8601 6.78809 50.4904 6.78809 50.0344V45.9908C6.78809 45.5362 7.15552 45.1671 7.61009 45.1651L8.11071 45.1629V42.4415C8.11071 41.9855 8.48038 41.6159 8.93639 41.6159H10.7609V26.563H7.67921C7.2232 26.563 6.85353 26.1933 6.85353 25.7373V22.194C6.85353 21.738 7.2232 21.3683 7.67921 21.3683H8.87828V18.1445C8.87828 17.874 9.0108 17.6206 9.233 17.4663L27.4558 4.81155ZM10.5297 21.3683H45.3239V18.5763L27.9268 6.495L10.5297 18.5763V21.3683ZM12.4123 26.563V41.6159H16.329V26.563H12.4123ZM17.9803 26.563V41.6159H24.5701V26.563H17.9803ZM26.2215 26.563V41.6159H30.1382V26.563H26.2215ZM31.7896 26.563V41.6159H38.2372V26.563H31.7896ZM39.8886 26.563V41.6159H43.2991V26.563H39.8886ZM17.1546 43.2672H11.5866H9.76208V45.1592H45.3239V43.2672H44.1248H39.0629H30.9639H25.3958H17.1546ZM8.93639 46.8106L8.43946 46.8128V49.2087H47.3486V46.8106H46.1496H8.93836H8.93639ZM8.5049 23.0197V24.9116H11.5866H17.1546H25.3958H30.9639H39.0629H44.1248H47.3486V23.0197H46.1496H9.70397H8.5049Z" fill="url(#paint0_linear_7178_3130)"/>
<defs>
<linearGradient id="paint0_linear_7178_3130" x1="15.4943" y1="50.8601" x2="53.07" y2="40.1143" gradientUnits="userSpaceOnUse">
<stop stop-color="#FE5000"/>
<stop offset="1" stop-color="#FCA92A"/>
</linearGradient>
</defs>
</svg>
