<svg width="56" height="56" viewBox="0 0 56 56" fill="none" xmlns="http://www.w3.org/2000/svg">
<path d="M27.2738 6.75854H14.8872C11.4719 6.75854 8.6897 9.5402 8.6897 12.9548V43.045C8.6897 46.4513 11.4719 49.233 14.8872 49.233H16.6531C17.1446 49.233 17.5362 48.8332 17.5362 48.3501C17.5362 47.8588 17.1362 47.4674 16.6531 47.4674H14.8872C12.4465 47.4674 10.4639 45.4852 10.4639 43.045V12.9548C10.4639 10.5146 12.4465 8.53248 14.8872 8.53248H27.2738C29.7145 8.53248 31.697 10.5146 31.697 12.9548V21.8078C31.697 22.2992 32.0968 22.6906 32.58 22.6906C33.0631 22.6906 33.4629 22.2908 33.4629 21.8078V12.9548C33.4713 9.5402 30.6891 6.75854 27.2738 6.75854ZM32.5884 13.8376H9.57266C9.08952 13.8376 8.6897 14.2373 8.6897 14.7204C8.6897 15.2034 9.08952 15.6033 9.57266 15.6033H32.58C33.0715 15.6033 33.4629 15.2034 33.4629 14.7204C33.4629 14.2373 33.0715 13.8376 32.5884 13.8376ZM24.6166 38.6143H9.57266C9.08952 38.6143 8.6897 39.0142 8.6897 39.4972C8.6897 39.9886 9.08952 40.38 9.57266 40.38H24.6166C25.108 40.38 25.4995 39.9803 25.4995 39.4972C25.5078 39.0142 25.108 38.6143 24.6166 38.6143ZM23.7336 10.2981H18.4191C17.9276 10.2981 17.5362 10.6979 17.5362 11.1809C17.5362 11.664 17.936 12.0637 18.4191 12.0637H23.7336C24.2251 12.0637 24.6166 11.664 24.6166 11.1809C24.6166 10.6979 24.2251 10.2981 23.7336 10.2981ZM27.3155 10.2981H27.2988C26.8073 10.2981 26.4241 10.6979 26.4241 11.1809C26.4241 11.664 26.8323 12.0637 27.3155 12.0637C27.7986 12.0637 28.1985 11.664 28.1985 11.1809C28.1985 10.6979 27.7986 10.2981 27.3155 10.2981ZM48.6402 30.1777L41.9845 22.8655C40.6684 21.5497 38.5193 21.5496 37.1948 22.8738C36.7699 23.2986 36.4867 23.7983 36.3368 24.3396C35.0123 23.3235 33.1048 23.4235 31.8803 24.6477C31.4638 25.0725 31.1722 25.5722 31.0223 26.1136C29.6978 25.0975 27.7902 25.1974 26.5741 26.4217C26.1576 26.8381 25.8744 27.3295 25.7244 27.8458L22.5841 24.7061C21.268 23.3902 19.1188 23.3902 17.7943 24.7144C16.4782 26.0303 16.4782 28.179 17.7943 29.4948L29.8478 41.5542L22.7007 42.6786C20.7681 42.9535 19.3104 44.6358 19.3104 46.5846C19.3104 48.0503 20.5015 49.2413 21.9677 49.2413H38.6609C41.2598 49.2413 43.7088 48.2253 45.5414 46.393L48.3236 43.6114C50.1646 41.7791 51.1725 39.3306 51.1725 36.7405C51.1725 34.3003 50.2728 31.9767 48.6402 30.1777ZM47.0741 42.3455L44.2919 45.1271C42.7842 46.6345 40.785 47.4591 38.6609 47.4591H21.9677C21.4761 47.4591 21.0846 47.0593 21.0846 46.5763C21.0846 45.5019 21.8844 44.5775 22.9673 44.4192L31.847 43.0284C32.1802 42.9784 32.4467 42.7452 32.555 42.4287C32.655 42.1123 32.5717 41.7625 32.3384 41.5292L19.0438 28.2456C18.4191 27.621 18.4191 26.5966 19.0521 25.9553C19.3687 25.6388 19.7768 25.4806 20.1934 25.4806C20.6099 25.4806 21.018 25.6388 21.3346 25.9553L30.1894 34.8084C30.5309 35.1498 31.0972 35.1498 31.4388 34.8084C31.6137 34.6334 31.697 34.4085 31.697 34.1837C31.697 33.9588 31.6137 33.7339 31.4388 33.5591L27.8236 29.9446C27.1989 29.32 27.1989 28.2956 27.8319 27.6543C28.4566 27.0297 29.4812 27.0297 30.106 27.6543L33.7212 31.2688C34.0627 31.6103 34.6292 31.6103 34.9707 31.2688C35.1456 31.0939 35.229 30.8691 35.229 30.6442C35.229 30.4193 35.1456 30.1944 34.979 30.0279L33.1297 28.179C32.505 27.5543 32.5051 26.53 33.1381 25.8887C33.7628 25.264 34.7874 25.264 35.4122 25.8887L37.2615 27.7376C37.6113 28.0624 38.1527 28.0624 38.4942 27.7209C38.8358 27.3795 38.8358 26.8131 38.4942 26.4717L38.4193 26.3967C38.1111 26.0886 37.9445 25.6889 37.9445 25.2557C37.9445 24.8227 38.1111 24.4229 38.4276 24.1065C39.0524 23.4818 40.0769 23.4818 40.6767 24.0732L47.3074 31.3521C48.6402 32.8179 49.3732 34.7167 49.3732 36.7072C49.4065 38.8476 48.5735 40.8463 47.0741 42.3455Z" fill="url(#paint0_linear_7138_3083)"/>
<defs>
<linearGradient id="paint0_linear_7138_3083" x1="17.4518" y1="49.2413" x2="54.7117" y2="37.5802" gradientUnits="userSpaceOnUse">
<stop stop-color="#FE5000"/>
<stop offset="1" stop-color="#FCA92A"/>
</linearGradient>
</defs>
</svg>
