<svg width="56" height="56" viewBox="0 0 56 56" fill="none" xmlns="http://www.w3.org/2000/svg">
<mask id="mask0_7178_3236" style="mask-type:luminance" maskUnits="userSpaceOnUse" x="5" y="4" width="46" height="49">
<path d="M5 4.89478H51V52.1053H5V4.89478Z" fill="white"/>
</mask>
<g mask="url(#mask0_7178_3236)">
<path d="M42.7648 36.6406C42.8883 37.5557 42.6111 37.9528 42.3048 37.9528C41.9961 37.9528 41.5664 37.5872 41.1064 36.8548C40.6452 36.1225 40.4599 35.2993 40.7069 34.872C40.8594 34.5984 41.1669 34.4762 41.5978 34.6287C42.3653 34.9023 42.6728 36.0922 42.7648 36.6406ZM38.4008 38.6537C39.3535 39.4466 39.6307 40.392 39.1393 41.0324C38.8621 41.3992 38.4008 41.582 37.8791 41.582C37.3574 41.582 36.8029 41.3992 36.4349 41.0639C35.5755 40.3315 35.3285 39.1113 35.8817 38.4406C36.0972 38.1659 36.4652 38.0133 36.8647 38.0133C37.3876 38.0436 37.9408 38.2578 38.4021 38.6549L38.4008 38.6537ZM36.8344 46.2788C40.8897 46.2788 45.2839 47.6515 50.1393 51.9513C50.6308 52.3774 51.2772 51.8593 50.8463 51.3097C46.0526 45.3031 41.6281 44.1737 37.2339 43.1992C31.8567 42.0093 29.0604 39.0205 27.1248 35.6952C26.7253 35.0245 26.5716 35.1468 26.5401 36.0002C26.5098 37.0376 26.5716 38.4092 26.8173 39.7528H26.1721C18.4586 39.7528 12.1905 33.5307 12.1905 25.8754C12.1905 18.2212 18.4586 11.9991 26.1721 11.9991C33.8844 11.9991 40.1537 18.2212 40.1537 25.8754C40.1537 26.425 40.1222 26.9733 40.0605 27.4914C39.0473 27.3098 37.0184 27.2784 35.6057 27.4006C35.0828 27.4309 35.1445 27.7057 35.544 27.7662C40.1525 28.5894 43.3483 31.4256 44.0552 36.6103C44.0867 36.7326 44.2404 36.7628 44.3009 36.6708C46.2625 33.4235 47.2935 29.6994 47.2813 25.9056C47.2813 14.3173 37.8174 4.92358 26.1406 4.92358C14.4639 4.92358 5 14.287 5 25.8754C5 37.465 14.4639 46.8586 26.1406 46.8586C29.2444 46.8889 32.3167 46.2788 36.8344 46.2788Z" fill="#FF8C00"/>
</g>
</svg>
