<svg width="56" height="56" viewBox="0 0 56 56" fill="none" xmlns="http://www.w3.org/2000/svg">
<path fill-rule="evenodd" clip-rule="evenodd" d="M46.3519 12.2388H35.4451V7.27746C35.4442 6.58857 35.1701 5.92817 34.6829 5.44109C34.1958 4.95401 33.5353 4.68002 32.8464 4.6792H9.5987C8.90981 4.68002 8.24936 4.95401 7.7622 5.44109C7.27504 5.92817 7.00094 6.58857 7 7.27746V48.7232C7.00094 49.412 7.27504 50.0724 7.7622 50.5595C8.24936 51.0466 8.90981 51.3206 9.5987 51.3214H32.8464C33.5353 51.3206 34.1958 51.0466 34.6829 50.5595C35.1701 50.0724 35.4442 49.412 35.4451 48.7232V39.0782H46.3519C47.054 39.077 47.7269 38.7976 48.2233 38.3011C48.7197 37.8046 48.999 37.1316 49.0001 36.4295V14.8874C48.999 14.1854 48.7197 13.5123 48.2233 13.0159C47.7269 12.5194 47.054 12.2399 46.3519 12.2388ZM43.2315 13.7861V37.5308H41.7084V13.7861H43.2315ZM33.8977 48.7232C33.8974 49.0018 33.7865 49.269 33.5894 49.466C33.3923 49.663 33.1251 49.7738 32.8464 49.774H9.5987C9.31998 49.7739 9.05271 49.6632 8.85558 49.4661C8.65846 49.2691 8.54761 49.0019 8.54737 48.7232V7.27746C8.54761 6.99874 8.65846 6.73151 8.85558 6.53447C9.05271 6.33743 9.31998 6.22669 9.5987 6.22657H32.8464C33.1251 6.22681 33.3923 6.33758 33.5894 6.5346C33.7865 6.73162 33.8974 6.99878 33.8977 7.27746V48.7232ZM35.4451 13.7861H40.1611V37.5308H35.4451V13.7861ZM47.4527 36.4295C47.4524 36.7214 47.3363 37.0012 47.1299 37.2077C46.9236 37.4141 46.6438 37.5303 46.3519 37.5308H44.7789V13.7861H46.3519C46.6438 13.7865 46.9237 13.9027 47.1301 14.1091C47.3365 14.3156 47.4525 14.5955 47.4527 14.8874V36.4295ZM31.2589 8.437H11.1873C10.9821 8.437 10.7853 8.51851 10.6402 8.6636C10.4951 8.8087 10.4136 9.00549 10.4136 9.21068V18.2434C10.4136 18.4485 10.4951 18.6453 10.6402 18.7904C10.7853 18.9355 10.9821 19.017 11.1873 19.017H31.2589C31.4641 19.017 31.6609 18.9355 31.806 18.7904C31.951 18.6453 32.0326 18.4485 32.0326 18.2434V9.21068C32.0326 9.00549 31.951 8.8087 31.806 8.6636C31.6609 8.51851 31.4641 8.437 31.2589 8.437ZM30.4852 17.4697H11.9609V9.98437H30.4852V17.4697ZM24.1332 21.6844H31.259C31.4642 21.6844 31.661 21.7659 31.8061 21.911C31.9512 22.0561 32.0327 22.2529 32.0327 22.4581V26.1718C32.0327 26.377 31.9512 26.5738 31.8061 26.7189C31.661 26.864 31.4642 26.9455 31.259 26.9455H24.1332C23.928 26.9455 23.7312 26.864 23.5861 26.7189C23.441 26.5738 23.3595 26.377 23.3595 26.1718V22.4581C23.3595 22.2529 23.441 22.0561 23.5861 21.911C23.7312 21.7659 23.928 21.6844 24.1332 21.6844ZM24.9055 25.3981H30.4853V23.2318H24.9055V25.3981ZM31.259 28.4423H24.1332C24.0315 28.4423 23.9309 28.4622 23.837 28.5011C23.7431 28.5399 23.6578 28.5969 23.586 28.6688C23.5141 28.7406 23.4571 28.826 23.4183 28.9199C23.3794 29.0137 23.3594 29.1144 23.3595 29.216V32.9297C23.3595 33.1349 23.441 33.3317 23.5861 33.4768C23.7312 33.6219 23.928 33.7034 24.1332 33.7034H31.259C31.4642 33.7034 31.661 33.6219 31.8061 33.4768C31.9512 33.3317 32.0327 33.1349 32.0327 32.9297V29.216C32.0328 29.1144 32.0128 29.0137 31.9739 28.9199C31.9351 28.826 31.8781 28.7406 31.8062 28.6688C31.7344 28.5969 31.6491 28.5399 31.5552 28.5011C31.4613 28.4622 31.3607 28.4423 31.259 28.4423ZM30.4853 32.156H24.9055V29.9897H30.4853V32.156ZM24.1332 35.1993H31.259C31.3607 35.1992 31.4613 35.2192 31.5552 35.2581C31.6491 35.2969 31.7344 35.3539 31.8062 35.4258C31.8781 35.4976 31.9351 35.5829 31.9739 35.6768C32.0128 35.7707 32.0328 35.8713 32.0327 35.973V46.5645C32.0328 46.6661 32.0128 46.7668 31.9739 46.8607C31.9351 46.9545 31.8781 47.0399 31.8062 47.1117C31.7344 47.1836 31.6491 47.2406 31.5552 47.2794C31.4613 47.3183 31.3607 47.3383 31.259 47.3382H24.1332C24.0315 47.3383 23.9309 47.3183 23.837 47.2794C23.7431 47.2406 23.6578 47.1836 23.586 47.1117C23.5141 47.0399 23.4571 46.9545 23.4183 46.8607C23.3794 46.7668 23.3594 46.6661 23.3595 46.5645V35.973C23.3594 35.8713 23.3794 35.7707 23.4183 35.6768C23.4571 35.5829 23.5141 35.4976 23.586 35.4258C23.6578 35.3539 23.7431 35.2969 23.837 35.2581C23.9309 35.2192 24.0315 35.1992 24.1332 35.1993ZM24.9055 45.7908H30.4853V36.7467H24.9055V45.7908ZM14.8996 21.6844H11.186C10.9808 21.6844 10.784 21.7659 10.6389 21.911C10.4938 22.0561 10.4123 22.2529 10.4123 22.4581V26.1718C10.4123 26.377 10.4938 26.5738 10.6389 26.7189C10.784 26.864 10.9808 26.9455 11.186 26.9455H14.8996C15.1048 26.9455 15.3016 26.864 15.4467 26.7189C15.5918 26.5738 15.6733 26.377 15.6733 26.1718V22.4581C15.6733 22.2529 15.5918 22.0561 15.4467 21.911C15.3016 21.7659 15.1048 21.6844 14.8996 21.6844ZM14.126 25.3981H11.9596V23.2318H14.126V25.3981ZM17.6598 21.6844H21.3735C21.5787 21.6844 21.7755 21.7659 21.9206 21.911C22.0657 22.0561 22.1472 22.2529 22.1472 22.4581V26.1718C22.1472 26.377 22.0657 26.5738 21.9206 26.7189C21.7755 26.864 21.5787 26.9455 21.3735 26.9455H17.6598C17.4546 26.9454 17.2579 26.8638 17.1128 26.7187C16.9678 26.5737 16.8862 26.3769 16.8861 26.1718V22.4581C16.8862 22.2529 16.9678 22.0562 17.1128 21.9111C17.2579 21.7661 17.4546 21.6845 17.6598 21.6844ZM18.4335 25.3981H20.5998V23.2318H18.4335V25.3981ZM14.8996 28.4423H11.186C11.0843 28.4423 10.9837 28.4622 10.8898 28.5011C10.7959 28.5399 10.7106 28.5969 10.6387 28.6688C10.5669 28.7406 10.5099 28.826 10.471 28.9199C10.4322 29.0137 10.4122 29.1144 10.4123 29.216V32.9297C10.4123 33.1349 10.4938 33.3317 10.6389 33.4768C10.784 33.6219 10.9808 33.7034 11.186 33.7034H14.8996C15.1048 33.7034 15.3016 33.6219 15.4467 33.4768C15.5918 33.3317 15.6733 33.1349 15.6733 32.9297V29.216C15.6734 29.1144 15.6534 29.0137 15.6146 28.9199C15.5757 28.826 15.5187 28.7406 15.4469 28.6688C15.375 28.5969 15.2897 28.5399 15.1958 28.5011C15.1019 28.4622 15.0013 28.4423 14.8996 28.4423ZM14.126 32.156H11.9596V29.9897H14.126V32.156ZM17.6598 28.4423H21.3735C21.4751 28.4423 21.5757 28.4622 21.6696 28.5011C21.7635 28.5399 21.8488 28.5969 21.9207 28.6688C21.9926 28.7406 22.0495 28.826 22.0884 28.9199C22.1273 29.0137 22.1472 29.1144 22.1472 29.216V32.9297C22.1472 33.1349 22.0657 33.3317 21.9206 33.4768C21.7755 33.6219 21.5787 33.7034 21.3735 33.7034H17.6598C17.4546 33.7033 17.2579 33.6217 17.1128 33.4766C16.9678 33.3316 16.8862 33.1349 16.8861 32.9297V29.216C16.8861 29.0108 16.9676 28.814 17.1127 28.6689C17.2578 28.5238 17.4546 28.4423 17.6598 28.4423ZM18.4335 32.156H20.5998V29.9897H18.4335V32.156ZM14.8996 35.1993H11.186C11.0843 35.1992 10.9837 35.2192 10.8898 35.2581C10.7959 35.2969 10.7106 35.3539 10.6387 35.4258C10.5669 35.4976 10.5099 35.5829 10.471 35.6768C10.4322 35.7707 10.4122 35.8713 10.4123 35.973V39.6867C10.4123 39.8919 10.4938 40.0886 10.6389 40.2337C10.784 40.3788 10.9808 40.4603 11.186 40.4603H14.8996C15.1048 40.4603 15.3016 40.3788 15.4467 40.2337C15.5918 40.0886 15.6733 39.8919 15.6733 39.6867V35.973C15.6734 35.8713 15.6534 35.7707 15.6146 35.6768C15.5757 35.5829 15.5187 35.4976 15.4469 35.4258C15.375 35.3539 15.2897 35.2969 15.1958 35.2581C15.1019 35.2192 15.0013 35.1992 14.8996 35.1993ZM14.126 38.913H11.9596V36.7467H14.126V38.913ZM17.6598 35.1993H21.3735C21.4751 35.1992 21.5757 35.2192 21.6696 35.2581C21.7635 35.2969 21.8488 35.3539 21.9207 35.4258C21.9926 35.4976 22.0495 35.5829 22.0884 35.6768C22.1273 35.7707 22.1472 35.8713 22.1472 35.973V39.6867C22.1472 39.8919 22.0657 40.0886 21.9206 40.2337C21.7755 40.3788 21.5787 40.4603 21.3735 40.4603H17.6598C17.4546 40.4602 17.2579 40.3787 17.1128 40.2336C16.9678 40.0885 16.8862 39.8918 16.8861 39.6867V35.973C16.8861 35.7678 16.9676 35.571 17.1127 35.4259C17.2578 35.2808 17.4546 35.1993 17.6598 35.1993ZM18.4335 38.913H20.5998V36.7467H18.4335V38.913ZM14.8996 42.0777H11.186C11.0843 42.0777 10.9837 42.0977 10.8898 42.1365C10.7959 42.1754 10.7106 42.2324 10.6387 42.3042C10.5669 42.3761 10.5099 42.4614 10.471 42.5553C10.4322 42.6492 10.4122 42.7498 10.4123 42.8514V46.5651C10.4122 46.6667 10.4322 46.7674 10.471 46.8613C10.5099 46.9552 10.5669 47.0405 10.6387 47.1123C10.7106 47.1842 10.7959 47.2412 10.8898 47.28C10.9837 47.3189 11.0843 47.3389 11.186 47.3388H14.8996C15.0013 47.3389 15.1019 47.3189 15.1958 47.28C15.2897 47.2412 15.375 47.1842 15.4469 47.1123C15.5187 47.0405 15.5757 46.9552 15.6146 46.8613C15.6534 46.7674 15.6734 46.6667 15.6733 46.5651V42.8514C15.6734 42.7498 15.6534 42.6492 15.6146 42.5553C15.5757 42.4614 15.5187 42.3761 15.4469 42.3042C15.375 42.2324 15.2897 42.1754 15.1958 42.1365C15.1019 42.0977 15.0013 42.0777 14.8996 42.0777ZM14.126 45.7914H11.9596V43.6251H14.126V45.7914ZM17.6598 42.0777H21.3735C21.4751 42.0777 21.5757 42.0977 21.6696 42.1365C21.7635 42.1754 21.8488 42.2324 21.9207 42.3042C21.9926 42.3761 22.0495 42.4614 22.0884 42.5553C22.1273 42.6492 22.1472 42.7498 22.1472 42.8514V46.5651C22.1472 46.6667 22.1273 46.7674 22.0884 46.8613C22.0495 46.9552 21.9926 47.0405 21.9207 47.1123C21.8488 47.1842 21.7635 47.2412 21.6696 47.28C21.5757 47.3189 21.4751 47.3389 21.3735 47.3388H17.6598C17.4546 47.3388 17.2578 47.2573 17.1127 47.1122C16.9676 46.9671 16.8861 46.7703 16.8861 46.5651V42.8514C16.8861 42.6462 16.9676 42.4494 17.1127 42.3043C17.2578 42.1593 17.4546 42.0777 17.6598 42.0777ZM18.4335 45.7914H20.5998V43.6251H18.4335V45.7914Z" fill="url(#paint0_linear_7138_2963)"/>
<defs>
<linearGradient id="paint0_linear_7138_2963" x1="15.6625" y1="51.3214" x2="53.1314" y2="40.762" gradientUnits="userSpaceOnUse">
<stop stop-color="#FE5000"/>
<stop offset="1" stop-color="#FCA92A"/>
</linearGradient>
</defs>
</svg>
