<svg width="56" height="56" viewBox="0 0 56 56" fill="none" xmlns="http://www.w3.org/2000/svg">
<path d="M43.1454 49.4665H21.7635C19.269 49.4665 17.309 47.4988 17.309 44.9943V18.161C17.309 15.6565 19.269 13.6888 21.7635 13.6888H43.1454C45.6399 13.6888 47.5999 15.6565 47.5999 18.161V44.9943C47.5999 47.4988 45.6399 49.4665 43.1454 49.4665ZM21.7635 15.4776C20.249 15.4776 19.0908 16.6404 19.0908 18.161V44.9943C19.0908 46.5149 20.249 47.6777 21.7635 47.6777H43.1454C44.6599 47.6777 45.8181 46.5149 45.8181 44.9943V18.161C45.8181 16.6404 44.6599 15.4776 43.1454 15.4776H21.7635ZM14.6363 44.0999H12.8544C10.3599 44.0999 8.3999 42.1321 8.3999 39.6276V11.0054C8.3999 8.50098 10.3599 6.5332 12.8544 6.5332H34.2363C36.7308 6.5332 38.6908 8.50098 38.6908 11.0054C38.6908 11.5421 38.3344 11.8999 37.7999 11.8999C37.2654 11.8999 36.909 11.5421 36.909 11.0054C36.909 9.48487 35.7508 8.32209 34.2363 8.32209H12.8544C11.3399 8.32209 10.1817 9.48487 10.1817 11.0054V39.6276C10.1817 41.1482 11.3399 42.311 12.8544 42.311H14.6363C15.1708 42.311 15.5272 42.6688 15.5272 43.2054C15.5272 43.7421 15.1708 44.0999 14.6363 44.0999ZM39.5817 36.9443H25.3272C24.7926 36.9443 24.4363 36.5865 24.4363 36.0499C24.4363 35.5132 24.7926 35.1554 25.3272 35.1554H39.5817C40.1163 35.1554 40.4726 35.5132 40.4726 36.0499C40.4726 36.5865 40.1163 36.9443 39.5817 36.9443ZM39.5817 44.0999H25.3272C24.7926 44.0999 24.4363 43.7421 24.4363 43.2054C24.4363 42.6688 24.7926 42.311 25.3272 42.311H39.5817C40.1163 42.311 40.4726 42.6688 40.4726 43.2054C40.4726 43.7421 40.1163 44.0999 39.5817 44.0999ZM39.5817 29.7888H25.3272C24.7926 29.7888 24.4363 29.431 24.4363 28.8943C24.4363 28.3576 24.7926 27.9999 25.3272 27.9999H39.5817C40.1163 27.9999 40.4726 28.3576 40.4726 28.8943C40.4726 29.431 40.1163 29.7888 39.5817 29.7888ZM39.5817 22.6332H25.3272C24.7926 22.6332 24.4363 22.2754 24.4363 21.7388C24.4363 21.2021 24.7926 20.8443 25.3272 20.8443H39.5817C40.1163 20.8443 40.4726 21.2021 40.4726 21.7388C40.4726 22.2754 40.1163 22.6332 39.5817 22.6332Z" fill="url(#paint0_linear_7138_3033)"/>
<defs>
<linearGradient id="paint0_linear_7138_3033" x1="16.4849" y1="49.4665" x2="51.3836" y2="39.4942" gradientUnits="userSpaceOnUse">
<stop stop-color="#FE5000"/>
<stop offset="1" stop-color="#FCA92A"/>
</linearGradient>
</defs>
</svg>
