<svg width="56" height="56" viewBox="0 0 56 56" fill="none" xmlns="http://www.w3.org/2000/svg">
<path fill-rule="evenodd" clip-rule="evenodd" d="M7.82686 40.4212C7.57996 40.4957 7.31273 40.4567 7.09745 40.3147L0.802585 36.1625C0.401969 35.8983 0.291423 35.3593 0.555671 34.9587C0.819923 34.5581 1.3589 34.4475 1.75951 34.7118L6.0569 37.5464C4.90963 34.7404 4.27753 31.6697 4.27753 28.4532C4.27753 15.1756 15.0412 4.41187 28.3189 4.41187C32.6964 4.41187 36.8032 5.58263 40.3402 7.6287C40.7556 7.86901 40.8976 8.40058 40.6573 8.816C40.417 9.23142 39.8854 9.37337 39.47 9.13307C36.1903 7.23589 32.3828 6.1498 28.3189 6.1498C16.0011 6.1498 6.01546 16.1354 6.01546 28.4532C6.01546 31.4917 6.62257 34.3865 7.72158 37.0244L9.72509 32.3091C9.91276 31.8674 10.423 31.6614 10.8647 31.8491C11.3064 32.0368 11.5123 32.547 11.3246 32.9887L8.37568 39.9291C8.27483 40.1665 8.07376 40.3468 7.82686 40.4212ZM48.4914 16.0369C48.7383 15.9624 49.0055 16.0015 49.2208 16.1435L55.5157 20.2956C55.9163 20.5599 56.0268 21.0989 55.7626 21.4995C55.4983 21.9001 54.9593 22.0106 54.5587 21.7464L50.2613 18.9118C51.4086 21.7178 52.0407 24.7884 52.0407 28.0049C52.0407 41.2826 41.277 52.0463 27.9993 52.0463C23.6218 52.0463 19.5151 50.8755 15.978 48.8295C15.5626 48.5891 15.4206 48.0576 15.661 47.6422C15.9013 47.2267 16.4328 47.0848 16.8482 47.3251C20.1279 49.2223 23.9355 50.3084 27.9993 50.3084C40.3172 50.3084 50.3028 40.3228 50.3028 28.0049C50.3028 24.9665 49.6957 22.0717 48.5967 19.4338L46.5932 24.1491C46.4055 24.5908 45.8953 24.7967 45.4536 24.6091C45.0119 24.4214 44.806 23.9112 44.9936 23.4695L47.9426 16.529C48.0434 16.2917 48.2445 16.1114 48.4914 16.0369Z" fill="url(#paint0_linear_7178_3159)"/>
<path d="M37.3508 23.8215V21.683L27.7273 15L18.1038 21.683V23.8215M37.3508 23.8215H38.4201V25.6928H36.2816M37.3508 23.8215H18.1038M36.2816 25.6928V34.5143M36.2816 25.6928H33.6084M36.2816 34.5143H33.6084M36.2816 34.5143H37.3508V36.3856M19.098 25.6928H17.0346V23.8215H18.1038M19.098 25.6928H22.0386M19.098 25.6928V34.5143M22.0386 25.6928H26.3907M22.0386 25.6928V34.5143M26.3907 25.6928V34.5143M26.3907 25.6928H29.3313M26.3907 34.5143H29.3313M26.3907 34.5143H17.6985V36.3856M29.3313 25.6928V34.5143M29.3313 25.6928H33.6084M29.3313 34.5143H33.6084M33.6084 25.6928V34.5143M37.3508 36.3856H38.4201V38.5241H17V36.3887L17.6985 36.3856M37.3508 36.3856H17.6985" stroke="url(#paint1_linear_7178_3159)" stroke-width="1.2" stroke-linecap="round" stroke-linejoin="round"/>
<defs>
<linearGradient id="paint0_linear_7178_3159" x1="11.8577" y1="52.0463" x2="59.0263" y2="34.8483" gradientUnits="userSpaceOnUse">
<stop stop-color="#FE5000"/>
<stop offset="1" stop-color="#FCA92A"/>
</linearGradient>
<linearGradient id="paint1_linear_7178_3159" x1="21.4179" y1="38.5241" x2="40.4955" y2="33.0875" gradientUnits="userSpaceOnUse">
<stop stop-color="#FE5000"/>
<stop offset="1" stop-color="#FCA92A"/>
</linearGradient>
</defs>
</svg>
