<svg width="54" height="26" viewBox="0 0 54 26" fill="none" xmlns="http://www.w3.org/2000/svg">
<path d="M28.5686 8.74394C27.4378 7.83689 25.9308 7.26767 24.0224 7.26767C19.9909 7.26767 16.721 10.7562 16.721 15.0582C16.721 19.3602 19.9909 22.8531 24.0224 22.8531C25.9342 22.8531 27.4378 22.2847 28.5686 21.3768V22.5681H32.4885V7.54333H28.5686V8.74394ZM24.6129 19.2437C22.4185 19.2437 20.6418 17.3718 20.6418 15.0591C20.6418 12.7464 22.4185 10.8779 24.6129 10.8779C25.7222 10.8779 26.7862 11.3186 27.5706 12.103C28.3551 12.8875 28.7958 13.9514 28.7958 15.0608C28.7958 16.1702 28.3551 17.2341 27.5706 18.0185C26.7862 18.803 25.7222 19.2437 24.6129 19.2437ZM48.1449 22.5715H52.0645V10.5155H48.1449V22.5715ZM47.3788 6.63376C47.3788 7.35659 47.6658 8.04981 48.1771 8.56085C48.6879 9.07198 49.3814 9.35911 50.104 9.35911C50.8271 9.35911 51.5201 9.07198 52.0314 8.56085C52.5423 8.04981 52.8297 7.35659 52.8297 6.63376C52.8297 4.54828 51.1349 3.09414 48.6814 3.0448C45.8314 2.99119 42.2352 4.53893 40.6254 9.29872V7.54333H36.708V22.5715H40.6263V13.8355C40.6263 8.20872 43.8366 3.6404 48.6575 3.6889C49.1049 3.69633 49.5484 3.77003 49.9736 3.90758C49.2745 3.94189 48.6145 4.24413 48.1314 4.75167C47.6484 5.25924 47.3792 5.93315 47.3797 6.63376H47.3788ZM17.1192 7.54333H11.5826L5.44529 13.365V3.21327H1.52533V22.5715H5.44529V17.0986L11.5826 22.5715H17.0886L9.02402 15.0736L17.1192 7.54333Z" fill="#991E66"/>
<path d="M9.46272 4.71522H10.4066V4.28526H9.46272V3.63313H10.5168V3.20317H9.00221V5.8236H10.5567V5.39364H9.46272V4.71522ZM12.4139 5.43433C11.8788 5.43433 11.5082 5.06037 11.5082 4.51337C11.5082 3.94436 11.8745 3.59242 12.3613 3.59242C12.5728 3.58637 12.7807 3.64786 12.9549 3.76796L13.161 3.42875C12.936 3.24642 12.6524 3.15209 12.363 3.16332C11.498 3.16332 11.0222 3.76203 11.0222 4.51506C11.0222 5.33172 11.5735 5.86684 12.374 5.86684C12.7132 5.86684 13.0524 5.74729 13.2136 5.57088L13.0372 5.22659C12.8581 5.36283 12.6389 5.43589 12.4139 5.43433ZM14.1948 3.72726C14.0786 5.30715 13.8123 5.39364 13.6105 5.36734L13.5994 5.8236C14.1159 5.89908 14.4568 5.65399 14.6103 4.12753L14.6629 3.63313H15.4261V5.8236H15.8832V3.20317H14.2304L14.1948 3.72726ZM17.1315 5.06886V3.20317H16.6702V5.8236H17.0746L18.4468 3.9664V5.8236H18.9073V3.20317H18.5028L17.1315 5.06886ZM22.2011 3.16332C21.3962 3.16332 20.8383 3.75694 20.8383 4.51506C20.8383 5.33172 21.4225 5.86684 22.2011 5.86684C22.9796 5.86684 23.5681 5.30121 23.5681 4.51506C23.5655 3.69673 22.9779 3.16162 22.1985 3.16162L22.2011 3.16332ZM22.2011 5.43607C21.7109 5.43607 21.325 5.03918 21.325 4.51506C21.325 3.97234 21.6998 3.59412 22.2011 3.59412C22.7023 3.59412 23.0813 3.97234 23.0813 4.51506C23.0788 5.02982 22.7489 5.43433 22.1985 5.43433L22.2011 5.43607ZM24.9699 4.19537C24.8522 4.19577 24.7347 4.20313 24.6179 4.21742V3.63313H25.6891V3.20317H24.1574V5.8236C24.311 5.8236 24.5357 5.83885 24.8359 5.83885C25.4795 5.83885 25.8467 5.5285 25.8467 4.98488C25.8502 4.50236 25.5168 4.19537 24.9699 4.19537ZM24.9097 5.40807C24.813 5.40807 24.7231 5.40127 24.6179 5.39364V4.64484C24.7222 4.63089 24.8273 4.62352 24.9326 4.62279C25.2548 4.62279 25.393 4.79239 25.393 5.01543C25.393 5.23847 25.2506 5.40807 24.9097 5.40807ZM27.5572 4.72965L26.6736 3.20317H26.1207L27.3122 5.19097L26.9924 5.83209H27.4826L28.7937 3.20317H28.3027L27.5572 4.72965ZM30.4296 4.44131V4.43368C30.5451 4.3848 30.643 4.30173 30.71 4.19562C30.777 4.0895 30.81 3.96542 30.8044 3.84005C30.8044 3.47709 30.5686 3.19215 29.9428 3.19215C29.6807 3.19215 29.333 3.20402 29.1863 3.2108V5.82022C29.3398 5.83122 29.6773 5.83885 29.9165 5.83885C30.4711 5.83885 30.8909 5.59207 30.8909 5.05274C30.9001 4.91251 30.8586 4.77367 30.7739 4.66157C30.6892 4.54947 30.5669 4.4716 30.4296 4.44213V4.44131ZM29.6468 3.63228C29.7316 3.62465 29.8308 3.62125 29.936 3.62125C30.1827 3.62125 30.3473 3.73405 30.3473 3.9469C30.3473 4.18689 30.1717 4.29544 29.958 4.29544H29.6468V3.63228ZM29.9504 5.40807C29.8489 5.40781 29.7476 5.40162 29.6468 5.3894V4.69654H29.9733C30.2616 4.69654 30.4296 4.80934 30.4296 5.02982C30.4296 5.27747 30.2616 5.40807 29.9504 5.40807ZM32.3173 4.08259C32.2172 4.08294 32.1172 4.08917 32.0179 4.10124V3.20317H31.5566V5.8236C31.7109 5.8236 31.9687 5.83122 32.2197 5.83122C32.9168 5.83122 33.3061 5.48352 33.3061 4.92894C33.3061 4.41587 32.9948 4.08259 32.3173 4.08259ZM32.2723 5.40127C32.1824 5.40127 32.1027 5.39364 32.0179 5.3894V4.53205C32.1222 4.52104 32.2121 4.51337 32.28 4.51337C32.6022 4.51337 32.8193 4.64484 32.8193 4.93739C32.8202 5.26221 32.609 5.40127 32.2723 5.40127ZM33.9226 5.3114C33.8851 5.30754 33.8472 5.31187 33.8115 5.32405C33.7758 5.33618 33.7432 5.3559 33.7159 5.38181C33.6885 5.40773 33.667 5.43927 33.6529 5.47424C33.6389 5.50921 33.6324 5.54678 33.6342 5.58444C33.6292 5.64121 33.6462 5.69776 33.6817 5.7423C33.7172 5.78685 33.7686 5.81597 33.8251 5.8236C33.8556 5.8236 33.9005 5.8236 33.9226 5.79391C33.9321 5.85259 33.9204 5.91273 33.8895 5.96352C33.8682 6.01132 33.8366 6.05387 33.7971 6.08819C33.7575 6.12247 33.7109 6.14764 33.6605 6.16194L33.7767 6.36466C33.9171 6.32917 34.0409 6.24649 34.1275 6.13057C34.2142 6.01461 34.2583 5.87239 34.2525 5.72779C34.2533 5.48694 34.1261 5.3114 33.9226 5.3114ZM35.3829 3.63313H36.2309V5.8236H36.6914V3.63313H37.5395V3.20317H35.3838L35.3829 3.63313ZM39.0532 3.16162C38.2484 3.16162 37.6904 3.75524 37.6904 4.51337C37.6904 5.33003 38.2747 5.86515 39.0532 5.86515C39.8317 5.86515 40.4203 5.29952 40.4203 4.51337C40.4211 3.69673 39.8325 3.16162 39.0541 3.16162H39.0532ZM39.0532 5.43433C38.5622 5.43433 38.1772 5.03749 38.1772 4.51337C38.1772 3.97065 38.5512 3.59242 39.0532 3.59242C39.5552 3.59242 39.9335 3.97065 39.9335 4.51337C39.9343 5.02982 39.6044 5.43433 39.0541 5.43433H39.0532Z" fill="#9F1A6E"/>
</svg>
