<svg width="52" height="26" viewBox="0 0 52 26" fill="none" xmlns="http://www.w3.org/2000/svg">
<g clip-path="url(#clip0_7253_1784)">
<path fill-rule="evenodd" clip-rule="evenodd" d="M0 24.1429C0 25.1685 0.831471 26 1.85714 26H50.1429C51.1685 26 52 25.1685 52 24.1429V1.85714C52 0.831471 51.1685 0 50.1429 0H1.85714C0.831471 0 0 0.831471 0 1.85714V24.1429Z" fill="#E30C30"/>
<path fill-rule="evenodd" clip-rule="evenodd" d="M48.3112 8.35932C48.3112 8.56755 48.2221 8.77583 48.0731 8.92454C47.9245 9.0733 47.716 9.16253 47.508 9.16253C47.2699 9.16253 47.0916 9.0733 46.943 8.92454C46.794 8.77583 46.7048 8.56755 46.7048 8.35932C46.7048 8.15109 46.794 7.94286 46.943 7.7941C47.0916 7.64539 47.2996 7.55615 47.508 7.55615C47.716 7.55615 47.9245 7.64539 48.0731 7.7941C48.2518 7.94286 48.3112 8.12137 48.3112 8.35932ZM48.2221 8.35932C48.2221 8.18085 48.1627 8.00238 48.0136 7.85362C47.8651 7.70486 47.716 7.64539 47.508 7.64539C47.2996 7.64539 47.151 7.70486 47.0024 7.85362C46.8534 8.00238 46.794 8.15109 46.794 8.35932C46.794 8.56755 46.8534 8.71631 47.0024 8.86507C47.1213 9.01378 47.2996 9.0733 47.508 9.0733C47.6863 9.0733 47.8651 9.01378 48.0136 8.86507C48.1627 8.71631 48.2221 8.53784 48.2221 8.35932ZM48.0434 8.74607H47.8354L47.5377 8.41884H47.3892V8.74607H47.2401V7.88338H47.5377C47.5972 7.88338 47.6566 7.88338 47.6863 7.88338C47.716 7.88338 47.7462 7.9131 47.8056 7.9131C47.8354 7.94286 47.8651 7.97262 47.8948 8.00238C47.8948 8.03209 47.9245 8.06185 47.9245 8.12133C47.9245 8.18085 47.8948 8.24032 47.8651 8.27008C47.8354 8.29985 47.7759 8.32961 47.716 8.35932L48.0434 8.74607ZM47.716 8.15109C47.716 8.12133 47.716 8.09161 47.716 8.09161C47.716 8.06185 47.6863 8.06185 47.6863 8.03209C47.6566 8.03209 47.6566 8.00238 47.6269 8.00238C47.5972 8.00238 47.5675 8.00238 47.5377 8.00238H47.3892V8.29984H47.508C47.5377 8.29984 47.5972 8.29984 47.5972 8.29984C47.6269 8.29984 47.6566 8.27008 47.6566 8.27008C47.6863 8.24032 47.6863 8.24032 47.716 8.21061C47.716 8.21061 47.716 8.18085 47.716 8.15109Z" fill="white"/>
<path fill-rule="evenodd" clip-rule="evenodd" d="M19.2471 7.3776C19.2471 7.94282 19.0091 8.44857 18.5034 8.71627C18.9794 8.98403 19.3959 9.40049 19.3959 9.96571C19.3959 10.8582 18.8604 11.5424 18.0274 11.8398C17.73 11.9588 17.4027 11.9886 17.016 11.9886C16.2425 11.9886 15.3204 11.6911 14.7551 11.1854L15.1716 10.5309C15.3204 10.3227 15.5584 10.3227 15.7368 10.4417C16.1831 10.7094 16.5103 10.8879 17.0457 10.8879C17.6407 10.8879 18.0572 10.6796 18.0572 10.0549C18.0572 9.48973 17.4622 9.31125 16.9863 9.31125H16.0938V8.21057H16.8673C17.2243 8.21057 17.492 8.15105 17.6705 8.03205C17.849 7.91306 17.9382 7.73459 17.9382 7.49659C17.9382 6.99089 17.4027 6.8719 16.9863 6.8719C16.54 6.8719 16.2425 7.02061 15.8558 7.19913C15.6178 7.31812 15.4691 7.28836 15.3204 7.05037L14.9634 6.39591C15.4988 5.91993 16.2723 5.74146 16.9863 5.74146C17.3432 5.74146 17.6407 5.77122 17.9382 5.86045C18.6522 6.06868 19.2471 6.57438 19.2471 7.3776Z" fill="white"/>
<path fill-rule="evenodd" clip-rule="evenodd" d="M21.9542 7.52637C23.3226 7.52637 24.1853 8.41882 24.1853 9.78721C24.1853 11.1556 23.3226 12.0481 21.9542 12.0481C20.5858 12.0481 19.7231 11.1556 19.7231 9.78721C19.7231 8.41882 20.5858 7.52637 21.9542 7.52637ZM21.9542 11.0664C22.6979 11.0664 22.8169 10.3822 22.8169 9.78721C22.8169 9.19227 22.6979 8.50805 21.9542 8.50805C21.1808 8.50805 21.0618 9.16251 21.0618 9.78721C21.0618 10.4119 21.2105 11.0664 21.9542 11.0664Z" fill="white"/>
<path fill-rule="evenodd" clip-rule="evenodd" d="M28.5584 7.58569V11.9587H27.2494V8.56738H26.3272C26.2677 9.40035 26.2677 10.7985 25.7322 11.4827C25.524 11.7505 25.2563 11.9587 24.8993 12.0182C24.7506 12.0479 24.5423 12.0479 24.3638 12.0479C24.2746 12.0479 24.2151 12.0479 24.1556 12.0182C24.0663 11.9885 24.0663 11.9289 24.0663 11.8695V11.096C24.1556 11.096 24.2448 11.096 24.3341 11.0663C24.6018 11.0067 24.7208 10.7985 24.8398 10.5605C25.167 9.84658 25.0778 8.41867 25.1373 7.61545H28.5584V7.58569Z" fill="white"/>
<path fill-rule="evenodd" clip-rule="evenodd" d="M31.2357 7.52637C32.6041 7.52637 33.4668 8.41882 33.4668 9.78721C33.4668 11.1556 32.6041 12.0481 31.2357 12.0481C29.8672 12.0481 28.9748 11.1556 28.9748 9.78721C28.9748 8.41882 29.897 7.52637 31.2357 7.52637ZM31.2357 11.0664C31.9794 11.0664 32.0984 10.3822 32.0984 9.78721C32.0984 9.19227 31.9794 8.50805 31.2357 8.50805C30.4622 8.50805 30.3432 9.16251 30.3432 9.78721C30.3432 10.4119 30.492 11.0664 31.2357 11.0664Z" fill="white"/>
<path fill-rule="evenodd" clip-rule="evenodd" d="M33.4371 7.58569H37.5423V8.53766H36.1442V11.9587H34.8353V8.53766H33.4371V7.58569Z" fill="white"/>
<path fill-rule="evenodd" clip-rule="evenodd" d="M45.6339 11.9589H44.3845V10.2632C44.2357 10.2632 44.087 10.2632 43.968 10.3525C43.8787 10.412 43.849 10.5012 43.7895 10.5904L43.373 11.5127C43.1648 11.8696 42.9566 11.9291 42.5698 11.9291H41.6774L42.54 10.4714C42.6888 10.2037 42.8673 10.0847 43.135 9.99551C42.54 9.87651 42.0343 9.51952 42.0343 8.86507C42.0343 8.50808 42.1831 8.18085 42.4508 7.97262C42.8376 7.64539 43.373 7.55615 43.849 7.55615H45.6041V11.9589H45.6339ZM43.5217 9.37077C43.611 9.46 43.7597 9.51952 43.9085 9.51952H44.3845V8.41884H43.9085C43.6705 8.41884 43.4623 8.53784 43.4027 8.77583C43.3433 8.9543 43.373 9.19229 43.5217 9.37077Z" fill="white"/>
<path fill-rule="evenodd" clip-rule="evenodd" d="M8.38904 14.666H8.71627C8.86498 14.666 9.01374 14.6363 9.10297 14.5768C9.22197 14.5173 9.31121 14.428 9.40044 14.2496C9.90619 13.5951 10.4416 11.8399 11.4829 11.4532C12.2563 11.1557 12.9108 11.245 13.238 11.245V12.4944C13.2678 13.0894 12.6728 12.9109 12.2563 13.2084C11.5423 13.7141 11.5423 15.023 10.7094 15.3205C10.9771 15.38 11.2151 15.5287 11.3936 15.6775C11.5721 15.8559 11.7506 16.0939 11.9291 16.3914L13.8925 19.7827H12.0481C11.6613 19.7827 11.4233 19.5447 11.2449 19.2175L9.78719 16.6294C9.60872 16.2724 9.40044 16.1832 9.01374 16.1832H8.38904V19.7827H6.36615V11.245H8.38904V14.666Z" fill="white"/>
<path fill-rule="evenodd" clip-rule="evenodd" d="M16.5104 13.3271C18.5035 13.3271 19.7529 14.6658 19.7529 16.5995C19.7529 17.1052 19.6637 17.5514 19.5149 17.9679C19.0092 19.2768 17.8788 19.9015 16.5104 19.9015C15.1717 19.9015 13.9817 19.2768 13.476 17.9679C13.3273 17.5514 13.238 17.1052 13.238 16.5995C13.238 14.6361 14.4875 13.3271 16.5104 13.3271ZM16.5104 18.4736C17.6111 18.4736 17.7895 17.4919 17.7895 16.5995C17.7895 15.707 17.6111 14.7253 16.5104 14.7253C15.4096 14.7253 15.2014 15.6773 15.2014 16.5995C15.2014 17.5217 15.4096 18.4736 16.5104 18.4736Z" fill="white"/>
<path fill-rule="evenodd" clip-rule="evenodd" d="M20.2288 21.8054V13.4164H21.4188C21.6567 13.4164 21.8055 13.5354 21.8947 13.7436L22.0435 14.2196C22.579 13.6246 23.2334 13.2974 24.0366 13.2974C25.1968 13.2974 25.881 14.1601 26.1785 15.1715C26.4165 15.9747 26.4165 17.0457 26.1488 17.8786C25.762 19.0388 24.8993 19.8717 23.6202 19.8717C23.0549 19.8717 22.6087 19.723 22.1625 19.366V21.8054H20.2288ZM23.3226 14.755C22.7574 14.755 22.46 14.9336 22.1327 15.35V18.0571C22.4005 18.3546 22.7277 18.4736 23.1144 18.4736C24.1556 18.4736 24.3341 17.3431 24.3341 16.5399C24.3341 15.8557 24.2449 14.755 23.3226 14.755Z" fill="white"/>
<path fill-rule="evenodd" clip-rule="evenodd" d="M30.016 13.3271C31.9794 13.3271 33.2586 14.6361 33.2586 16.5995C33.2586 18.5629 32.0092 19.9015 30.016 19.9015C28.0229 19.9015 26.7437 18.5926 26.7437 16.5995C26.7735 14.6063 28.0526 13.3271 30.016 13.3271ZM30.016 18.4736C31.1167 18.4736 31.2952 17.4919 31.2952 16.5995C31.2952 15.707 31.1167 14.7253 30.016 14.7253C28.9153 14.7253 28.7071 15.6773 28.7071 16.5995C28.7368 17.5217 28.9153 18.4736 30.016 18.4736Z" fill="white"/>
<path fill-rule="evenodd" clip-rule="evenodd" d="M39.5355 13.4165V19.7826H37.6316V17.1053H35.6682V19.7826H33.7643V13.4165H35.6682V15.7369H37.6316V13.4165H39.5355Z" fill="white"/>
<path fill-rule="evenodd" clip-rule="evenodd" d="M39.7139 7.52637C39.0297 7.52637 38.4943 7.6156 38.0183 7.70484C38.0183 7.91307 37.8993 8.83528 38.6727 8.65681C39.2974 8.56753 39.7734 8.44853 40.0114 8.68652C40.1006 8.80552 40.1601 8.89476 40.1601 9.13275C39.6544 9.13275 39.238 9.19227 38.9107 9.28151C38.405 9.43026 37.9588 9.6385 37.7208 10.1442C37.5125 10.5904 37.6018 11.3936 37.9885 11.7506C38.405 12.1076 39.1784 12.1373 39.6544 11.8993C39.8924 11.8101 40.1006 11.6316 40.2791 11.4829L40.3684 11.7209C40.4576 11.9291 40.5766 11.9886 40.8146 11.9886H41.4096V9.16251C41.4096 8.18082 40.6659 7.52637 39.7139 7.52637ZM40.1601 10.6797C40.0412 10.7987 39.8924 10.9176 39.7734 10.9772C39.5652 11.0664 39.1487 11.1556 38.9107 10.9772C38.6727 10.7987 38.762 10.3524 39.0297 10.2037C39.2974 10.055 39.8627 10.0252 40.1601 9.99544V10.6797Z" fill="white"/>
<path fill-rule="evenodd" clip-rule="evenodd" d="M13.238 10.6498H6.33643V9.84668H13.238V10.6498Z" fill="#FFCC00"/>
<path fill-rule="evenodd" clip-rule="evenodd" d="M9.78714 2.29053L10.7093 3.21272L9.78714 4.10517L8.86497 3.21272L9.78714 2.29053Z" fill="#FFCC00"/>
<path fill-rule="evenodd" clip-rule="evenodd" d="M11.2449 8.77564C11.1557 8.77564 10.8284 8.77564 10.8284 8.77564V5.32483C11.4531 5.41407 12.0481 5.6223 12.5836 5.86029L11.4531 8.62688C11.3936 8.77564 11.2449 8.77564 11.2449 8.77564ZM14.6064 6.247C13.3867 5.17608 11.7804 4.49187 10.0252 4.43237V9.48957C10.0252 9.48957 11.3639 9.48957 11.6911 9.48957C11.9886 9.48957 12.0778 9.22186 12.0778 9.22186L13.2975 6.247C13.4165 6.33628 13.5355 6.39575 13.6247 6.48499L12.3753 9.45985H13.2678C13.714 8.38889 14.1602 7.31796 14.6064 6.247Z" fill="#FFCC00"/>
<path fill-rule="evenodd" clip-rule="evenodd" d="M8.32952 8.77564C8.41876 8.77564 8.74599 8.77564 8.74599 8.77564V5.32483C8.12129 5.41407 7.52631 5.6223 6.99085 5.86029L8.12129 8.62688C8.21053 8.77564 8.32952 8.77564 8.32952 8.77564ZM4.96796 6.247C6.18764 5.17608 7.79402 4.49187 9.5492 4.43237V9.48957C9.5492 9.48957 8.21053 9.48957 7.8833 9.48957C7.58579 9.48957 7.49655 9.22186 7.49655 9.22186L6.27687 6.247C6.15787 6.33628 6.03888 6.39575 5.91988 6.48499L7.16932 9.45985H6.27687C5.86041 8.38889 5.41418 7.31796 4.96796 6.247Z" fill="#FFCC00"/>
<path fill-rule="evenodd" clip-rule="evenodd" d="M43.135 13.2678C42.1533 13.2678 41.3799 13.4165 40.6659 13.5355C40.6361 13.833 40.4874 15.1717 41.5881 14.9337C42.4806 14.785 43.1945 14.6362 43.5217 14.9932C43.6705 15.142 43.73 15.3204 43.7597 15.6477C43.0458 15.6774 42.421 15.7369 41.9451 15.8559C41.2014 16.0641 40.5767 16.3616 40.2197 17.1053C39.9222 17.7598 40.0412 18.9497 40.6064 19.4555C41.2014 19.9909 42.3318 20.0207 43.0458 19.6934C43.373 19.5447 43.6705 19.3067 43.9679 19.0687L44.1167 19.4257C44.2357 19.7529 44.4142 19.8124 44.7414 19.8124H45.6041V15.6774C45.6338 14.2495 44.5332 13.2678 43.135 13.2678ZM43.7895 17.8788C43.611 18.087 43.4027 18.206 43.2242 18.2952C42.9268 18.444 42.3318 18.5332 41.9748 18.2952C41.6476 18.0573 41.7666 17.3731 42.1533 17.1648C42.54 16.9566 43.3432 16.8971 43.7895 16.8971V17.8788Z" fill="white"/>
</g>
<defs>
<clipPath id="clip0_7253_1784">
<rect width="52" height="26" fill="white"/>
</clipPath>
</defs>
</svg>
