<svg width="91" height="26" viewBox="0 0 91 26" fill="none" xmlns="http://www.w3.org/2000/svg">
<path d="M74.837 8.27789C75.2513 8.31478 75.6687 8.26691 76.0639 8.1372C76.459 8.00748 76.8236 7.79865 77.1355 7.52342C77.4473 7.24819 77.6998 6.91234 77.8776 6.53634C78.0554 6.16034 78.1547 5.75207 78.1696 5.33643H76.3969C76.2136 6.0491 75.7847 6.40544 74.837 6.40544C73.8892 6.40544 73.3998 6.0491 73.2476 5.33643H71.4749C71.4929 5.75364 71.5954 6.16285 71.7762 6.53931C71.9569 6.91577 72.2122 7.25164 72.5265 7.52661C72.8408 7.80159 73.2076 8.00994 73.6047 8.13908C74.0019 8.26821 74.4211 8.31543 74.837 8.27789Z" fill="black"/>
<path d="M38.4423 16.4974V9.19922H36.2095V19.8372H38.5339L43.027 12.4163V19.8372H45.258V9.19922H42.9353L38.4423 16.4974Z" fill="black"/>
<path d="M29.1866 9.28874C28.3643 9.25148 27.5481 9.44603 26.8311 9.85021C26.114 10.2544 25.5249 10.8519 25.1311 11.5747C25.2417 9.16436 25.7346 7.73061 28.6054 7.35746L33.0692 6.76244L32.8859 4.38574L28.2388 5.00933C24.2335 5.54384 23.1024 8.54581 23.1024 13.269C23.1024 17.3988 25.029 20.0427 28.6054 20.0427C32.0903 20.0427 33.9858 17.4274 33.9858 14.3682C34.0286 13.7138 33.9359 13.0575 33.7135 12.4405C33.4912 11.8235 33.1439 11.259 32.6935 10.7823C32.2431 10.3055 31.6992 9.92684 31.0958 9.66986C30.4924 9.41288 29.8424 9.28314 29.1866 9.28874ZM28.6054 17.698C26.5873 17.698 25.3956 16.2726 25.3956 14.1329V13.0336C25.8228 12.2016 26.9556 11.5478 28.6054 11.5478C30.3487 11.5478 31.6925 12.3495 31.6925 14.3699C31.6925 16.3903 30.6237 17.698 28.6054 17.698Z" fill="black"/>
<path d="M88.7694 9.19922V13.1811H84.4261V9.19922H82.1955V19.8372H84.4261V15.3797H88.7694V19.8372H90.9999V9.19922H88.7694Z" fill="black"/>
<path d="M72.5747 16.4974V9.19922H70.3419V19.8372H72.6664L77.1594 12.4163V19.8372H79.3922V9.19922H77.0678L72.5747 16.4974Z" fill="black"/>
<path d="M49.2738 15.7077C49.03 16.8961 48.6927 17.402 48.02 17.402C47.7421 17.4123 47.4642 17.3823 47.195 17.3129V19.7787C47.5396 19.9356 47.9169 20.0071 48.2949 19.9871C48.8176 19.9986 49.3303 19.8436 49.759 19.5445C50.1878 19.2453 50.5102 18.8176 50.6798 18.3231C50.9586 17.486 51.1334 16.6178 51.2004 15.738C51.3496 14.317 51.4212 12.889 51.4148 11.4602H54.3808V19.8392H56.6118V9.20288H49.5505C49.5993 11.3749 49.5069 13.5477 49.2738 15.7077Z" fill="black"/>
<path d="M67.1411 16.9545L67.1722 12.7356C67.2033 10.0613 65.5206 8.96208 63.0752 8.96208C62.5696 8.92261 62.0612 8.98376 61.5794 9.14198C61.0977 9.3002 60.652 9.55237 60.2683 9.88388C59.8846 10.2154 59.5704 10.6197 59.3439 11.0734C59.1174 11.5271 58.9831 12.0212 58.9487 12.5271H61.0881C61.2109 11.5472 62.0046 11.2194 63.0752 11.2194C64.1716 11.2194 64.9066 11.5472 65.0173 12.6414L62.2814 13.7155C60.417 14.4584 59.011 15.2904 59.011 17.0435C59.011 18.8555 60.0504 20.0153 62.1292 20.0153C62.7747 20.0308 63.4104 19.8553 63.9565 19.5108C64.5027 19.1663 64.9349 18.6682 65.1989 18.0789C65.3079 19.3597 66.1813 19.9262 67.6927 19.9262H68.305V17.8756H68.1216C67.416 17.8756 67.1411 17.6083 67.1411 16.9545ZM62.9524 17.7865C61.9129 17.7865 61.1486 17.5192 61.1486 16.5981C61.1486 15.7964 61.7902 15.44 62.8919 14.9929L65.0225 14.1323L65 17.0133C64.7338 17.2809 64.4132 17.4884 64.06 17.6218C63.7068 17.7552 63.3291 17.8113 62.9524 17.7865Z" fill="black"/>
<path d="M8.91811 21.6624C11.2492 21.6956 13.4981 20.8016 15.1702 19.1771C16.8424 17.5526 17.8009 15.3305 17.8351 12.9994C17.8009 10.6683 16.8424 8.44617 15.1702 6.82164C13.4981 5.19711 11.2492 4.30316 8.91811 4.33634C6.587 4.30316 4.33813 5.19711 2.66598 6.82164C0.993828 8.44617 0.0352915 10.6683 0.00112915 12.9994C0.0352981 15.3305 0.993837 17.5526 2.66599 19.1771C4.33814 20.8016 6.587 21.6956 8.91811 21.6624Z" fill="#FFC800"/>
<path d="M12.755 19.4542C9.72669 21.1518 6.44251 21.4561 4.3447 20.4392C5.71592 21.231 7.26928 21.6532 8.85269 21.6644C10.4361 21.6756 11.9953 21.2754 13.3776 20.503C14.741 19.7522 15.8756 18.646 16.6609 17.3022C17.4462 15.9583 17.8529 14.4268 17.8377 12.8704C17.696 15.1429 15.7815 17.7549 12.755 19.4542Z" fill="black"/>
<path d="M10.0486 4.97179C10.6625 6.00382 9.17868 7.95359 6.73325 9.32347C4.28782 10.695 1.80953 10.969 1.19559 9.9353C1.16828 9.88482 1.1457 9.83193 1.12814 9.7773C1.07178 9.4663 1.08654 9.14659 1.1713 8.84211C1.25606 8.53763 1.40863 8.25628 1.61757 8.01914C1.69194 7.91661 1.76804 7.81576 1.84586 7.71659C2.56273 6.81211 3.45068 6.05763 4.45904 5.49621C5.4742 4.92571 6.58991 4.55646 7.74498 4.40871C7.87641 4.39022 8.00439 4.37677 8.12891 4.36837C8.44645 4.31134 8.77256 4.32341 9.08501 4.40375C9.39747 4.4841 9.68895 4.63083 9.93959 4.83396C9.97988 4.87663 10.0164 4.92275 10.0486 4.97179Z" fill="black"/>
<path d="M13.8401 6.08759C14.9123 7.89113 12.7488 11.0528 9.00979 13.1505C5.27077 15.2482 1.36913 15.4868 0.298605 13.6833C0.121449 13.3804 0.0211058 13.0388 0.00633277 12.6882C-0.0419249 13.9274 0.186104 15.1618 0.673894 16.302C0.748262 16.4768 0.829548 16.6499 0.916018 16.8214L0.92812 16.8432C1.2639 17.3923 1.74761 17.8356 2.32378 18.1223C4.42159 19.2132 7.96866 18.8384 11.2858 16.9777C14.601 15.117 16.7092 12.3218 16.787 10.0123C16.8185 9.37988 16.6666 8.75183 16.3495 8.20373C16.2285 8.02724 16.1022 7.85411 15.9691 7.68939C15.1936 6.7178 14.221 5.92153 13.1155 5.35303C13.4113 5.53763 13.6595 5.7893 13.8401 6.08759Z" fill="black"/>
<path d="M8.91811 21.6624C11.2492 21.6956 13.4981 20.8016 15.1702 19.1771C16.8424 17.5526 17.8009 15.3305 17.8351 12.9994C17.8009 10.6683 16.8424 8.44617 15.1702 6.82164C13.4981 5.19711 11.2492 4.30316 8.91811 4.33634C6.587 4.30316 4.33813 5.19711 2.66598 6.82164C0.993828 8.44617 0.0352915 10.6683 0.00112915 12.9994C0.0352981 15.3305 0.993837 17.5526 2.66599 19.1771C4.33814 20.8016 6.587 21.6956 8.91811 21.6624Z" fill="url(#paint0_radial_7253_1764)"/>
<defs>
<radialGradient id="paint0_radial_7253_1764" cx="0" cy="0" r="1" gradientUnits="userSpaceOnUse" gradientTransform="translate(8.9184 12.9993) scale(8.91524 8.66475)">
<stop offset="0.5" stop-color="white" stop-opacity="0"/>
<stop offset="1" stop-color="white" stop-opacity="0.35"/>
</radialGradient>
</defs>
</svg>
