<svg width="58" height="26" viewBox="0 0 58 26" fill="none" xmlns="http://www.w3.org/2000/svg">
<path d="M53.6967 15.9906H54.5751V17.3396H55.0041L55.8617 15.9906H56.837L55.7166 17.6714V17.6852L56.9753 19.5183H55.9586L55.0317 18.0864H54.5751V19.5183H53.6967V15.9906ZM52.0782 17.3186C52.0713 16.8483 51.7672 16.5716 51.3729 16.5716C50.9232 16.5716 50.6049 16.8693 50.522 17.3186H52.0782ZM51.3937 15.9077C52.4034 15.9077 52.9568 16.6477 52.9568 17.5814C52.9568 17.6923 52.9429 17.8098 52.9292 17.9207H50.5012C50.5565 18.5361 51.027 18.8543 51.5596 18.8543C51.9191 18.8543 52.2857 18.695 52.5693 18.4667L52.9154 19.0965C52.5556 19.4144 52.0023 19.6013 51.4973 19.6013C50.3284 19.6013 49.5951 18.7573 49.5951 17.7546C49.5951 16.6687 50.3353 15.9077 51.3937 15.9077ZM45.5682 18.7782C46.0038 18.716 46.3082 18.3494 46.3082 17.0974V15.9906H48.8813V19.5183H48.0029V16.7032H47.1452V17.0974C47.1452 18.6328 46.7373 19.5183 45.5682 19.5529V18.7782ZM44.2743 17.3186C44.2673 16.8483 43.9629 16.5716 43.5686 16.5716C43.119 16.5716 42.8009 16.8693 42.7179 17.3186H44.2743ZM43.5894 15.9077C44.5993 15.9077 45.1527 16.6477 45.1527 17.5814C45.1527 17.6923 45.1388 17.8098 45.1249 17.9207H42.6971C42.7524 18.5361 43.2229 18.8543 43.7554 18.8543C44.1151 18.8543 44.4818 18.695 44.7652 18.4667L45.1111 19.0965C44.7514 19.4144 44.1982 19.6013 43.693 19.6013C42.5241 19.6013 41.791 18.7573 41.791 17.7546C41.791 16.6687 42.531 15.9077 43.5894 15.9077ZM36.3599 15.9906H37.197V18.7712H38.2967V15.9906H39.1337V18.7712H40.2335V15.9906H41.0706V19.5183H36.3599V15.9906ZM33.7186 18.8543C34.2928 18.8543 34.77 18.4116 34.77 17.7546C34.77 17.1042 34.2928 16.6548 33.7186 16.6548C33.1445 16.6548 32.6741 17.1042 32.6741 17.7546C32.6741 18.4116 33.1445 18.8543 33.7186 18.8543ZM33.7117 15.9077C34.7908 15.9077 35.6553 16.6755 35.6553 17.7546C35.6553 18.8405 34.7908 19.6013 33.7186 19.6013C32.6464 19.6013 31.7819 18.8405 31.7819 17.7546C31.7819 16.6755 32.6464 15.9077 33.7117 15.9077ZM27.9763 14.6074H28.8687V16.6061H29.505L30.66 14.6074H31.6284L30.2382 16.9454V16.9592L31.7114 19.5183H30.7016L29.505 17.3741H28.8687V19.5183H27.9763V14.6074Z" fill="#2A303B"/>
<path d="M11.486 22.849C5.21083 22.849 0.12381 17.7613 0.12381 11.4861C0.12381 5.21112 5.21083 0.124031 11.486 0.124031C17.761 0.124031 22.8482 5.21112 22.8482 11.4861C22.8482 13.6184 22.2612 15.6138 21.2395 17.3185C21.2063 17.3742 21.1221 17.3549 21.1132 17.2906C20.7235 14.4983 19.0175 12.9598 16.5346 12.5111C16.3192 12.4721 16.279 12.3394 16.564 12.3148C17.3214 12.2493 18.4006 12.2603 18.9495 12.3594C18.9825 12.073 18.9971 11.7813 18.9971 11.4861C18.9971 7.338 15.6342 3.97517 11.486 3.97517C7.33768 3.97517 3.975 7.338 3.975 11.4861C3.975 15.6344 7.33768 18.9973 11.486 18.9973C11.6043 18.9973 11.7219 18.9987 11.8387 18.9933C11.7134 18.2637 11.6748 17.5222 11.6976 16.9621C11.7161 16.5039 11.809 16.441 12.0157 16.7975C13.0552 18.5888 14.5467 20.2204 17.4461 20.8593C19.8167 21.3816 22.1937 21.9995 24.7636 25.2443C24.9921 25.5327 24.6434 25.8211 24.3815 25.5888C21.7664 23.272 19.4037 22.5251 17.2261 22.5251C14.8022 22.5251 13.1508 22.849 11.486 22.849ZM17.2535 18.0715C17.0252 18.0715 16.8347 18.151 16.7175 18.2957C16.4175 18.6657 16.5524 19.317 17.012 19.7186C17.2126 19.8938 17.5016 19.9986 17.7852 19.9986C18.0741 19.9986 18.315 19.8902 18.4637 19.6939C18.7311 19.3353 18.5774 18.8273 18.072 18.3999C17.8217 18.1882 17.5312 18.0715 17.2535 18.0715ZM19.7729 16.2122C19.5552 16.1298 19.3824 16.1955 19.3 16.3462C19.175 16.5744 19.2673 17.0254 19.5192 17.4184C19.7744 17.8165 19.9908 18.0186 20.1632 18.0186C20.3212 18.0186 20.4785 17.8124 20.4042 17.3144C20.36 17.0169 20.1946 16.3716 19.7729 16.2122ZM33.0179 10.3093L32.1035 9.20934C32.0076 9.09411 32.0897 8.91913 32.2397 8.91913H34.153C34.2441 8.64791 34.2956 8.35819 34.2956 8.05725C34.2956 6.67933 33.27 5.49126 31.8622 5.49126C30.4546 5.49126 29.4291 6.67933 29.4291 8.05725C29.4291 9.43517 30.4546 10.6064 31.8622 10.6064C32.2888 10.6064 32.6795 10.4975 33.0179 10.3093ZM37.1561 12.1682C37.2553 12.2782 37.174 12.4551 37.0242 12.4551H34.9361C34.8513 12.4551 34.7707 12.4173 34.7163 12.352L34.3625 11.9264C33.6418 12.3937 32.7835 12.6664 31.8622 12.6664C29.3208 12.6664 27.253 10.5988 27.253 8.05725C27.253 5.51569 29.3208 3.44807 31.8622 3.44807C34.4039 3.44807 36.4715 5.51569 36.4715 8.05725C36.4715 8.97344 36.2016 9.82723 35.7391 10.5457L37.1561 12.1682ZM56.4437 3.66003H54.7396C54.6146 3.66003 54.5129 3.76156 54.5129 3.88685V12.2277C54.5129 12.3528 54.6146 12.4543 54.7396 12.4543H56.4437C56.5686 12.4543 56.6703 12.3528 56.6703 12.2277V3.88685C56.6703 3.76156 56.5686 3.66003 56.4437 3.66003ZM53.5762 3.66003H51.6699C51.57 3.66003 51.4822 3.72474 51.453 3.81933L49.9445 8.74844L48.2864 3.81388C48.2556 3.7221 48.1691 3.66003 48.0713 3.66003H46.741C46.6434 3.66003 46.5567 3.7221 46.526 3.81388L44.868 8.74844L43.3593 3.81933C43.3303 3.72474 43.2423 3.66003 43.1424 3.66003H41.2361C41.1631 3.66003 41.0948 3.69486 41.0522 3.75347C41.0096 3.81207 40.998 3.88751 41.0211 3.95618L43.8212 12.3014C43.8521 12.3932 43.9388 12.4551 44.0361 12.4551H45.5493C45.6468 12.4551 45.7335 12.3932 45.7644 12.3016L47.4062 7.42599L49.048 12.3016C49.0788 12.3932 49.1655 12.4551 49.2631 12.4551H50.7762C50.8736 12.4551 50.9604 12.3932 50.9911 12.3014L53.7913 3.95618C53.8145 3.88751 53.8029 3.81207 53.7603 3.75347C53.7175 3.69486 53.6492 3.66003 53.5762 3.66003ZM40.2994 3.88685V12.2277C40.2994 12.3528 40.1979 12.4543 40.0728 12.4543H38.3686C38.2437 12.4543 38.142 12.3528 38.142 12.2277V3.88685C38.142 3.76156 38.2437 3.66003 38.3686 3.66003H40.0728C40.1979 3.66003 40.2994 3.76156 40.2994 3.88685Z" fill="#F57D14"/>
</svg>
