<svg width="66" height="26" viewBox="0 0 66 26" fill="none" xmlns="http://www.w3.org/2000/svg">
<path fill-rule="evenodd" clip-rule="evenodd" d="M0 14.1736C0 17.3649 1.78362 20.5833 5.77771 20.5833C9.76821 20.5833 11.5554 17.3649 11.5554 14.1736C11.5554 11.9937 10.8225 9.48342 9.59921 7.45584C8.40958 5.49786 6.98026 4.33325 5.77771 4.33325C4.57175 4.33325 3.14177 5.49786 1.96248 7.45584C0.733423 9.48342 0 11.9937 0 14.1736Z" fill="#E30611"/>
<path fill-rule="evenodd" clip-rule="evenodd" d="M41.0208 9.12116H36.9764V5.20386H49.3985V9.12116H45.3541V19.7127H41.0208V9.12116Z" fill="#E30611"/>
<path fill-rule="evenodd" clip-rule="evenodd" d="M58.6425 9.12133H64.9983V5.20386H58.643C52.8032 5.20386 49.6856 8.12017 49.6856 12.4584C49.6856 16.7966 52.8032 19.7129 58.643 19.7129H64.9983V15.7954H58.6425C55.9404 15.7954 54.1633 14.8251 54.1633 12.4584C54.1633 10.0916 55.9404 9.12133 58.6425 9.12133Z" fill="#E30611"/>
<path fill-rule="evenodd" clip-rule="evenodd" d="M25.8538 13.8641L28.164 5.20386H35.8214V19.7129H31.4879V7.90384L28.338 19.7129H23.3695L20.2216 7.91134L20.2214 19.7129H15.8883V5.20386H23.5435L25.8538 13.8641Z" fill="#E30611"/>
</svg>
