<svg width="44" height="44" viewBox="0 0 44 44" fill="none" xmlns="http://www.w3.org/2000/svg">
<path fill-rule="evenodd" clip-rule="evenodd" d="M21.7037 3.03518C21.8004 3.01179 21.8997 2.99994 21.9997 3.00025C22.0987 3.00025 22.1979 3.01179 22.294 3.03518L37.1235 6.69835C37.6397 6.82713 37.9997 7.27092 38 7.77894V26.361C38 28.2743 36.9609 30.1349 35.476 31.9125C33.9911 33.6902 32.0105 35.3898 29.875 36.8397C26.4142 39.1892 23.6649 40.3873 22.6517 40.8288C22.593 40.8544 22.5402 40.8774 22.4933 40.898C22.1822 41.0339 21.8246 41.0339 21.5135 40.898C21.4644 40.8764 21.4085 40.852 21.3461 40.8249C20.3281 40.3815 17.5779 39.1838 14.125 36.8397C11.9895 35.3898 10.0158 33.6902 8.53089 31.9125C7.04601 30.1349 6 28.2743 6 26.361V7.77894C6.00092 7.26937 6.36448 6.82496 6.88338 6.69835L21.7037 3.03518ZM35.6595 8.64562L21.9997 5.27066L8.34958 8.64562V26.3607C8.34958 27.4419 9.06638 28.9601 10.3688 30.5194C11.6711 32.0784 13.5094 33.6686 15.4948 35.0165C18.5732 37.1063 20.702 38.0296 21.8351 38.5211C21.8959 38.5475 21.954 38.5727 22.0091 38.5967C22.0589 38.575 22.1109 38.5524 22.1653 38.5287C23.2968 38.0372 25.4227 37.1137 28.5119 35.0165C30.4973 33.6686 32.3356 32.0784 33.6379 30.5194C34.9403 28.9601 35.6595 27.4419 35.6595 26.3607V8.64562ZM22.0001 15.4818C20.65 15.4818 19.5555 16.5763 19.5555 17.9265V19.5723H24.4448V17.9265C24.4448 16.5763 23.3503 15.4818 22.0001 15.4818ZM17.6555 17.9265V19.6123C16.9936 19.7683 16.501 20.3628 16.501 21.0723V26.2469C16.501 27.0753 17.1725 27.7469 18.001 27.7469H25.999C26.8274 27.7469 27.499 27.0753 27.499 26.2469V21.0723C27.499 20.3629 27.0065 19.7685 26.3448 19.6124V17.9265C26.3448 15.527 24.3996 13.5818 22.0001 13.5818C19.6006 13.5818 17.6555 15.527 17.6555 17.9265ZM18.401 21.4723V25.8469H25.599V21.4723H18.401Z" fill="url(#paint0_linear_4144_835)"/>
<defs>
<linearGradient id="paint0_linear_4144_835" x1="12.6" y1="40.9999" x2="41.4135" y2="33.406" gradientUnits="userSpaceOnUse">
<stop stop-color="#FE5000"/>
<stop offset="1" stop-color="#FCA92A"/>
</linearGradient>
</defs>
</svg>
