<svg width="44" height="44" viewBox="0 0 44 44" fill="none" xmlns="http://www.w3.org/2000/svg">
<path fill-rule="evenodd" clip-rule="evenodd" d="M27.9265 6.98795C27.9265 4.78528 26.1413 3 23.9386 3H10.1279C7.92523 3 6.13965 4.78528 6.13965 6.98795V36.9023C6.13965 39.105 7.92523 40.8903 10.1279 40.8903H23.9386C26.1413 40.8903 27.9265 39.105 27.9265 36.9023V14.0179V6.98795ZM8.03416 9.91497H26.032V14.0179V23.002V33.6055H8.03416V9.91497ZM10.1087 4.89451H23.9578C25.112 4.89451 26.032 5.85657 26.032 7.01104V8.02046H8.03416V7.01104C8.03416 5.85657 8.95448 4.89451 10.1087 4.89451ZM23.9578 38.9958H10.1087C8.97076 39.004 8.04215 38.0876 8.03416 36.9497V35.5H26.032V36.9254C26.0377 38.0633 25.12 38.9901 23.9821 38.9958H23.9578ZM42.7749 22.1655C42.7749 18.1297 41.4235 14.4275 39.2344 11.5367C39.0063 11.2274 38.5152 11.1566 38.2089 11.3888C37.9026 11.621 37.8383 12.1131 38.0745 12.4162C40.0772 15.0608 41.3194 18.4556 41.3194 22.1656C41.3194 25.8756 40.0771 29.2703 38.0747 31.915C37.8385 32.2181 37.903 32.7102 38.2091 32.9424C38.5154 33.1746 39.0065 33.1036 39.2346 32.7945C41.4235 29.9037 42.7749 26.2013 42.7749 22.1655ZM38.1655 22.1655C38.1655 19.2635 37.287 16.5477 35.5803 14.4327C35.3559 14.0993 34.8328 14.02 34.5198 14.2721C34.2067 14.5243 34.1727 15.0521 34.4506 15.3425C35.9284 17.1741 36.7097 19.5571 36.7097 22.1655C36.7097 24.774 35.9284 27.157 34.4506 28.9886C34.1726 29.2788 34.2067 29.8068 34.5198 30.059C34.8329 30.3111 35.356 30.2319 35.5803 29.8984C37.287 27.7833 38.1655 25.0676 38.1655 22.1655ZM33.7988 22.1655C33.7988 20.372 33.2369 18.6633 32.1915 17.3439C31.9534 17.0442 31.4638 16.988 31.1641 17.2263C30.8644 17.4646 30.8084 17.954 31.0467 18.2536C31.8708 19.2937 32.3431 20.6802 32.3431 22.1656C32.3431 23.651 31.8708 25.0375 31.0467 26.0775C30.8084 26.3772 30.8644 26.8666 31.1641 27.1049C31.4638 27.3432 31.9534 27.287 32.1915 26.9873C33.2369 25.6679 33.7988 23.9591 33.7988 22.1655ZM12.7787 18.591C12.5164 18.1367 11.9354 17.981 11.481 18.2433C11.0266 18.5056 10.8709 19.0867 11.1333 19.541L12.2176 21.4191C11.3687 22.2492 10.7324 23.2957 10.3982 24.4696C10.2262 25.0733 10.1342 25.7107 10.1342 26.3696H12.0342H22.0805H23.9805C23.9805 25.7107 23.8884 25.0733 23.7165 24.4696C23.3762 23.2746 22.723 22.2116 21.8511 21.3746L22.9097 19.541C23.172 19.0867 23.0164 18.5056 22.562 18.2433C22.1076 17.981 21.5266 18.1367 21.2643 18.591L20.3044 20.2535C19.336 19.7383 18.2308 19.4464 17.0573 19.4464C15.8617 19.4464 14.7369 19.7495 13.7556 20.283L12.7787 18.591ZM12.406 24.4696C13.1552 22.6373 14.9555 21.3464 17.0573 21.3464C19.1592 21.3464 20.9595 22.6373 21.7087 24.4696H12.406Z" fill="url(#paint0_linear_4144_810)"/>
<defs>
<linearGradient id="paint0_linear_4144_810" x1="13.6957" y1="40.8903" x2="46.0148" y2="31.1105" gradientUnits="userSpaceOnUse">
<stop stop-color="#FE5000"/>
<stop offset="1" stop-color="#FCA92A"/>
</linearGradient>
</defs>
</svg>
