<svg width="44" height="44" viewBox="0 0 44 44" fill="none" xmlns="http://www.w3.org/2000/svg">
<g clip-path="url(#clip0_4144_820)">
<path fill-rule="evenodd" clip-rule="evenodd" d="M22.7989 3C25.0016 3 26.7869 4.78528 26.7869 6.98795V14.0179V36.9023C26.7869 39.105 25.0016 40.8903 22.7989 40.8903H8.98824C6.78558 40.8903 5 39.105 5 36.9023V6.98795C5 4.78528 6.78558 3 8.98824 3H22.7989ZM24.8924 9.91497H6.89451V31.9861H24.8924V23.002V14.0179V9.91497ZM22.8182 4.89451H8.969C7.81483 4.89451 6.89451 5.85657 6.89451 7.01104V8.02046H24.8924V7.01104C24.8924 5.85657 23.9724 4.89451 22.8182 4.89451ZM8.969 38.9958H22.8182H22.8425C23.9803 38.9901 24.898 38.0633 24.8924 36.9254V33.8806H6.89451V36.9497C6.9025 38.0876 7.83111 39.004 8.969 38.9958ZM14.041 35.4909H17.7486C18.2716 35.4909 18.6958 35.9147 18.6958 36.4381C18.6958 36.9615 18.2716 37.3854 17.7486 37.3854H14.041C13.5176 37.3854 13.0937 36.9615 13.0937 36.4381C13.0937 35.9147 13.5176 35.4909 14.041 35.4909Z" fill="url(#paint0_linear_4144_820)"/>
<rect x="14.0771" y="14" width="30" height="19.88" rx="3" fill="white"/>
<path fill-rule="evenodd" clip-rule="evenodd" d="M17.0771 14.8956H41.0771C41.6847 14.8956 42.1771 15.3881 42.1771 15.9956V30.8801C42.1771 31.4876 41.6847 31.9801 41.0771 31.9801H17.0771C16.4696 31.9801 15.9771 31.4876 15.9771 30.8801V15.9956C15.9771 15.3881 16.4696 14.8956 17.0771 14.8956ZM14.0771 15.9956C14.0771 14.3388 15.4203 12.9956 17.0771 12.9956H41.0771C42.734 12.9956 44.0771 14.3388 44.0771 15.9956V30.8801C44.0771 32.5369 42.734 33.8801 41.0771 33.8801H17.0771C15.4203 33.8801 14.0771 32.5369 14.0771 30.8801V15.9956ZM19.2898 26.4261C18.7652 26.4261 18.3398 26.8515 18.3398 27.3761C18.3398 27.9008 18.7652 28.3261 19.2898 28.3261H21.612C22.1367 28.3261 22.562 27.9008 22.562 27.3761C22.562 26.8515 22.1367 26.4261 21.612 26.4261H19.2898ZM23.3066 27.3761C23.3066 26.8515 23.732 26.4261 24.2566 26.4261H26.5788C27.1035 26.4261 27.5288 26.8515 27.5288 27.3761C27.5288 27.9008 27.1035 28.3261 26.5788 28.3261H24.2566C23.732 28.3261 23.3066 27.9008 23.3066 27.3761ZM29.2234 26.4261C28.6988 26.4261 28.2734 26.8515 28.2734 27.3761C28.2734 27.9008 28.6988 28.3261 29.2234 28.3261H31.5456C32.0703 28.3261 32.4956 27.9008 32.4956 27.3761C32.4956 26.8515 32.0703 26.4261 31.5456 26.4261H29.2234ZM33.2402 27.3761C33.2402 26.8515 33.6656 26.4261 34.1902 26.4261H36.5124C37.037 26.4261 37.4624 26.8515 37.4624 27.3761C37.4624 27.9008 37.037 28.3261 36.5124 28.3261H34.1902C33.6656 28.3261 33.2402 27.9008 33.2402 27.3761ZM38.1942 20.1784C38.1942 20.9293 37.5855 21.5379 36.8347 21.5379C36.0839 21.5379 35.4752 20.9293 35.4752 20.1784C35.4752 19.4276 36.0839 18.8189 36.8347 18.8189C37.5855 18.8189 38.1942 19.4276 38.1942 20.1784ZM40.0942 20.1784C40.0942 21.9786 38.6349 23.4379 36.8347 23.4379C35.0345 23.4379 33.5752 21.9786 33.5752 20.1784C33.5752 18.3783 35.0345 16.9189 36.8347 16.9189C38.6349 16.9189 40.0942 18.3783 40.0942 20.1784Z" fill="url(#paint1_linear_4144_820)"/>
</g>
<defs>
<linearGradient id="paint0_linear_4144_820" x1="9.49355" y1="40.8903" x2="32.3808" y2="41.5546" gradientUnits="userSpaceOnUse">
<stop stop-color="#FE5000"/>
<stop offset="1" stop-color="#FCA92A"/>
</linearGradient>
<linearGradient id="paint1_linear_4144_820" x1="4.5" y1="36.5" x2="46.1157" y2="31.4562" gradientUnits="userSpaceOnUse">
<stop stop-color="#FE5000"/>
<stop offset="1" stop-color="#FCA92A"/>
</linearGradient>
<clipPath id="clip0_4144_820">
<rect width="44" height="44" fill="white"/>
</clipPath>
</defs>
</svg>
