<svg width="51" height="51" viewBox="0 0 51 51" fill="none" xmlns="http://www.w3.org/2000/svg">
<path d="M25.5 51C39.5833 51 51 39.5833 51 25.5C51 11.4167 39.5833 0 25.5 0C11.4167 0 0 11.4167 0 25.5C0 39.5833 11.4167 51 25.5 51Z" fill="white"/>
<path d="M31.882 25.24C31.8938 24.3477 32.1307 23.4729 32.5709 22.6967C33.0111 21.9205 33.6403 21.2681 34.4 20.8C33.9175 20.1101 33.2808 19.5421 32.5405 19.1413C31.8001 18.7405 30.9765 18.5178 30.135 18.491C28.34 18.303 26.6 19.566 25.686 19.566C24.754 19.566 23.346 18.51 21.83 18.541C20.8489 18.5727 19.8927 18.8582 19.0549 19.3699C18.2171 19.8815 17.5263 20.6016 17.05 21.46C14.983 25.042 16.525 30.306 18.505 33.202C19.495 34.619 20.653 36.203 22.167 36.147C23.65 36.085 24.203 35.201 25.992 35.201C27.765 35.201 28.285 36.147 29.83 36.111C31.42 36.085 32.423 34.687 33.379 33.256C34.0903 32.2453 34.6374 31.1285 35 29.947C34.075 29.5558 33.2858 28.9007 32.7309 28.0635C32.176 27.2264 31.8801 26.2443 31.88 25.24H31.882ZM28.963 16.586C29.83 15.5433 30.2568 14.204 30.153 12.852C28.8279 12.9918 27.6043 13.626 26.726 14.628C25.8582 15.6169 25.4186 16.91 25.504 18.223C26.1669 18.23 26.8228 18.0863 27.422 17.8027C28.0212 17.5192 28.5482 17.1031 28.963 16.586Z" fill="#373A36"/>
</svg>
