<svg width="51" height="51" viewBox="0 0 51 51" fill="none" xmlns="http://www.w3.org/2000/svg">
<path d="M25.5 51C39.5833 51 51 39.5833 51 25.5C51 11.4167 39.5833 0 25.5 0C11.4167 0 0 11.4167 0 25.5C0 39.5833 11.4167 51 25.5 51Z" fill="white"/>
<mask id="mask0_1_25" style="mask-type:luminance" maskUnits="userSpaceOnUse" x="17" y="15" width="21" height="21">
<path d="M17 15H38V36H17V15Z" fill="white"/>
</mask>
<g mask="url(#mask0_1_25)">
<path d="M21.584 15.336C21.1858 15.1144 20.7374 14.9987 20.2817 14.9997C19.826 15.0008 19.3782 15.1186 18.981 15.342L28.549 24.169L31.763 20.954L21.584 15.336ZM18.025 16.245C17.786 16.63 17.6586 17.0738 17.657 17.527V33.468C17.657 33.917 17.779 34.345 18 34.718L27.621 25.098L18.025 16.245ZM36.025 23.306L32.959 21.615L29.514 25.059L33.736 28.953L36.026 27.689C36.85 27.232 37.344 26.413 37.344 25.497C37.342 24.581 36.85 23.762 36.024 23.307L36.025 23.306ZM28.585 25.988L18.937 35.635C19.357 35.875 19.816 36 20.277 36C20.724 36 21.173 35.887 21.583 35.66L32.525 29.622L28.585 25.988Z" fill="#373A36"/>
</g>
</svg>
