<svg width="100" height="100" viewBox="0 0 100 100" fill="none" xmlns="http://www.w3.org/2000/svg">
<circle cx="50" cy="50" r="49.5" stroke="url(#paint0_linear_3311_4002)"/>
<path fill-rule="evenodd" clip-rule="evenodd" d="M49.6295 28.2916L53.7024 40.0086C54.2705 41.643 55.7958 42.7512 57.5258 42.7865L69.9278 43.0392L60.0429 50.5334C58.664 51.5788 58.0814 53.3719 58.5825 55.0281L62.1746 66.9013L51.9925 59.816C50.5722 58.8276 48.6869 58.8276 47.2665 59.816L37.0845 66.9013L40.6766 55.0281C41.1777 53.3719 40.595 51.5788 39.2162 50.5334L29.3312 43.0392L41.7333 42.7865C43.4633 42.7512 44.9886 41.643 45.5567 40.0086L49.6295 28.2916ZM47.6757 27.6124C48.3196 25.76 50.9395 25.76 51.5834 27.6124L55.6562 39.3294C55.9403 40.1466 56.7029 40.7007 57.5679 40.7184L69.97 40.9711C71.9308 41.0111 72.7404 43.5027 71.1775 44.6875L61.2926 52.1818C60.6032 52.7045 60.3119 53.601 60.5624 54.4291L64.1545 66.3023C64.7224 68.1795 62.6029 69.7194 60.9931 68.5992L50.811 61.5139C50.1009 61.0197 49.1582 61.0197 48.448 61.5139L38.266 68.5992C36.6562 69.7194 34.5367 68.1795 35.1046 66.3023L38.6967 54.4291C38.9472 53.601 38.6559 52.7045 37.9665 52.1818L28.0815 44.6875C26.5187 43.5027 27.3283 41.0111 29.2891 40.9711L41.6912 40.7184C42.5562 40.7007 43.3188 40.1466 43.6029 39.3294L47.6757 27.6124ZM37.0051 30.9755C36.344 31.3571 36.1175 32.2024 36.4992 32.8635L37.1903 34.0605C37.5719 34.7216 38.4172 34.9481 39.0783 34.5664C39.7394 34.1847 39.9659 33.3394 39.5842 32.6783L38.8931 31.4814C38.5115 30.8203 37.6662 30.5938 37.0051 30.9755ZM28.4927 57.7335C27.9529 57.1938 27.9529 56.3186 28.4927 55.7789L29.47 54.8016C30.0098 54.2618 30.8849 54.2618 31.4246 54.8016C31.9644 55.3413 31.9644 56.2165 31.4246 56.7562L30.4473 57.7335C29.9076 58.2733 29.0324 58.2733 28.4927 57.7335ZM49.6295 73.1311C50.3929 73.1311 51.0117 72.5123 51.0117 71.7489V70.3668C51.0117 69.6034 50.3929 68.9846 49.6295 68.9846C48.8662 68.9846 48.2474 69.6034 48.2474 70.3668V71.7489C48.2474 72.5123 48.8662 73.1311 49.6295 73.1311ZM63.0807 32.8635C63.4623 32.2024 63.2358 31.3571 62.5748 30.9755C61.9137 30.5938 61.0684 30.8203 60.6867 31.4814L59.9956 32.6783C59.614 33.3394 59.8405 34.1847 60.5015 34.5664C61.1626 34.9481 62.0079 34.7216 62.3896 34.0605L63.0807 32.8635ZM70.1246 55.7789C70.6644 56.3186 70.6644 57.1938 70.1246 57.7335C69.5849 58.2733 68.7098 58.2733 68.17 57.7335L67.1927 56.7562C66.6529 56.2165 66.6529 55.3413 67.1927 54.8016C67.7324 54.2618 68.6076 54.2618 69.1473 54.8016L70.1246 55.7789Z" fill="url(#paint1_linear_3311_4002)"/>
<defs>
<linearGradient id="paint0_linear_3311_4002" x1="20.625" y1="100" x2="108.331" y2="72.5509" gradientUnits="userSpaceOnUse">
<stop stop-color="#FE5000"/>
<stop offset="1" stop-color="#FCA92A"/>
</linearGradient>
<linearGradient id="paint1_linear_3311_4002" x1="36.4869" y1="73.1311" x2="76.046" y2="61.3223" gradientUnits="userSpaceOnUse">
<stop stop-color="#FE5000"/>
<stop offset="1" stop-color="#FCA92A"/>
</linearGradient>
</defs>
</svg>
