<svg width="100" height="100" viewBox="0 0 100 100" fill="none" xmlns="http://www.w3.org/2000/svg">
<circle cx="50" cy="50" r="49.5" stroke="url(#paint0_linear_3311_4035)"/>
<path fill-rule="evenodd" clip-rule="evenodd" d="M30.4101 37.3667C30.4101 36.9609 30.6664 36.4188 31.4961 35.7883C32.3117 35.1685 33.5487 34.5718 35.158 34.0545C38.3663 33.0233 42.8547 32.3708 47.8528 32.3708C52.8508 32.3708 57.3392 33.0233 60.5476 34.0545C62.1568 34.5718 63.3938 35.1685 64.2094 35.7883C65.0391 36.4188 65.2954 36.9609 65.2954 37.3667C65.2954 37.7724 65.0391 38.3145 64.2094 38.9451C63.3938 39.5649 62.1568 40.1616 60.5476 40.6789C57.3392 41.7101 52.8508 42.3625 47.8528 42.3625C42.8547 42.3625 38.3663 41.7101 35.158 40.6789C33.5487 40.1616 32.3117 39.5649 31.4961 38.9451C30.6664 38.3145 30.4101 37.7724 30.4101 37.3667V37.3667ZM28.6101 37.3667V37.3667C28.6101 36.1443 29.3803 35.1354 30.407 34.3552C31.4478 33.5642 32.897 32.8905 34.6071 32.3409C38.0375 31.2382 42.7205 30.5708 47.8528 30.5708C52.9851 30.5708 57.668 31.2382 61.0984 32.3409C62.8085 32.8905 64.2577 33.5642 65.2985 34.3552C66.3252 35.1354 67.0954 36.1443 67.0954 37.3667V42.6075C67.0954 42.933 67.0406 43.2435 66.9409 43.5386C67.9674 43.988 68.8464 44.4989 69.5217 45.0711C70.3934 45.8099 71.0262 46.7427 71.0262 47.8482V53.0889C71.0262 54.2117 70.3738 55.156 69.4798 55.9012C69.0641 56.2476 68.5731 56.5716 68.0195 56.873C68.263 57.318 68.4059 57.8044 68.4059 58.3297V63.5705C68.4059 64.6933 67.7536 65.6376 66.8595 66.3828C65.9595 67.1328 64.7069 67.7775 63.2282 68.316C61.6904 68.8761 59.8604 69.3383 57.8293 69.6812C56.1752 69.9604 54.3804 70.1616 52.4908 70.2711C51.4105 70.3337 50.2984 70.3664 49.1632 70.3664C48.028 70.3664 46.916 70.3337 45.8357 70.2711C43.9461 70.1616 42.1513 69.9604 40.4972 69.6812C38.4661 69.3383 36.6361 68.8761 35.0983 68.316C33.6196 67.7775 32.367 67.1328 31.467 66.3828C30.5729 65.6376 29.9206 64.6933 29.9206 63.5705V58.3297C29.9206 57.3725 30.3977 56.5412 31.0876 55.8606C31.5766 55.3784 32.2015 54.9407 32.9272 54.5457C32.6837 54.1006 32.5408 53.6143 32.5408 53.0889V47.8482C32.5408 47.5232 32.5959 47.2125 32.6957 46.9172C31.6892 46.4765 30.8254 45.9772 30.1565 45.4197C29.2624 44.6746 28.6101 43.7302 28.6101 42.6075V37.3667ZM34.3408 50.862V53.0889C34.3408 53.4614 34.5544 53.9473 35.2396 54.5184C35.7033 54.9048 36.3349 55.2872 37.1265 55.6503V52.3674C36.0271 51.9264 35.0809 51.4238 34.3408 50.862ZM38.9265 52.9954V56.3483C39.9439 56.6839 41.099 56.9821 42.3673 57.2327V53.8251C41.1265 53.5917 39.9726 53.3131 38.9265 52.9954ZM44.1673 54.1228V57.5442C45.257 57.7077 46.4084 57.8374 47.608 57.9288V54.493C46.4158 54.4053 45.2648 54.2807 44.1673 54.1228ZM49.408 54.5958V58.035C50.185 58.0678 50.978 58.0848 51.7835 58.0848C52.589 58.0848 53.3819 58.0678 54.159 58.035V54.5958C53.3802 54.6276 52.5874 54.644 51.7835 54.644C50.9796 54.644 50.1868 54.6276 49.408 54.5958ZM55.959 54.493V57.9288C57.1586 57.8374 58.31 57.7077 59.3997 57.5442V54.1228C58.3021 54.2807 57.1512 54.4053 55.959 54.493ZM61.1997 53.8251V57.2327C62.468 56.9821 63.6231 56.6839 64.6405 56.3483V52.9954C63.5944 53.3131 62.4404 53.5917 61.1997 53.8251ZM66.4405 52.3674V55.6503C67.232 55.2872 67.8637 54.9048 68.3273 54.5184C69.0126 53.9473 69.2262 53.4614 69.2262 53.0889V50.862C68.4861 51.4238 67.5399 51.9264 66.4405 52.3674ZM69.2262 47.8482C69.2262 48.2539 68.9699 48.796 68.1401 49.4265C67.3246 50.0463 66.0876 50.6431 64.4783 51.1603C61.27 52.1916 56.7815 52.844 51.7835 52.844C46.7854 52.844 42.297 52.1916 39.0887 51.1603C37.4794 50.6431 36.2424 50.0463 35.4268 49.4265C34.5971 48.796 34.3408 48.2539 34.3408 47.8482C34.3408 47.758 34.353 47.6617 34.3813 47.5595C35.7888 48.0273 37.4108 48.4184 39.1867 48.7181C40.8408 48.9973 42.6356 49.1986 44.5252 49.3081C45.6056 49.3707 46.7176 49.4033 47.8528 49.4033C48.988 49.4033 50.1 49.3707 51.1803 49.3081C53.0699 49.1986 54.8647 48.9973 56.5188 48.7181C58.55 48.3753 60.3799 47.913 61.9177 47.353C63.3964 46.8145 64.649 46.1698 65.549 45.4197C65.6845 45.3069 65.8143 45.1894 65.9372 45.0675C66.9883 45.5027 67.7997 45.9713 68.3579 46.4443C69.0195 47.005 69.2262 47.4814 69.2262 47.8482ZM34.139 55.9439C33.3516 56.3363 32.7564 56.7429 32.3516 57.1422C31.8744 57.6128 31.7206 58.0106 31.7206 58.3297C31.7206 58.7355 31.9769 59.2776 32.8066 59.9081C33.6222 60.5279 34.8592 61.1247 36.4684 61.6419C39.6768 62.6732 44.1652 63.3256 49.1632 63.3256C54.1613 63.3256 58.6497 62.6732 61.8581 61.6419C63.4673 61.1247 64.7043 60.5279 65.5199 59.9081C66.3496 59.2776 66.6059 58.7355 66.6059 58.3297C66.6059 58.1289 66.5439 57.8951 66.3792 57.6327C66.2058 57.7015 66.0288 57.7687 65.8485 57.8344C64.3106 58.3945 62.4807 58.8567 60.4495 59.1996C58.7954 59.4788 57.0007 59.68 55.111 59.7895C54.0307 59.8521 52.9187 59.8848 51.7835 59.8848C50.6483 59.8848 49.5363 59.8521 48.456 59.7895C46.5663 59.68 44.7715 59.4788 43.1175 59.1996C41.0863 58.8567 39.2564 58.3945 37.7185 57.8344C36.268 57.3062 35.035 56.6757 34.139 55.9439ZM65.2954 40.3805C64.5554 40.9423 63.6092 41.445 62.5098 41.886V45.1689C63.3013 44.8058 63.933 44.4234 64.3966 44.037C65.0819 43.4659 65.2954 42.98 65.2954 42.6075V40.3805ZM60.7098 42.5139C59.6637 42.8317 58.5097 43.1102 57.269 43.3436V46.7512C58.5373 46.5007 59.6924 46.2025 60.7098 45.8668V42.5139ZM55.469 43.6413C54.3714 43.7993 53.2205 43.9239 52.0282 44.0116V47.4473C53.2279 47.356 54.3793 47.2263 55.469 47.0628V43.6413ZM50.2283 44.1143C49.4495 44.1462 48.6567 44.1625 47.8528 44.1625C47.0489 44.1625 46.256 44.1462 45.4773 44.1143V47.5535C46.2543 47.5864 47.0472 47.6033 47.8528 47.6033C48.6583 47.6033 49.4512 47.5864 50.2283 47.5535V44.1143ZM43.6773 44.0116C42.4851 43.9239 41.3341 43.7993 40.2365 43.6413V47.0628C41.3262 47.2263 42.4776 47.356 43.6773 47.4473V44.0116ZM38.4365 43.3436C37.1958 43.1102 36.0419 42.8317 34.9958 42.5139V45.8668C36.0132 46.2025 37.1682 46.5007 38.4365 46.7512V43.3436ZM33.1958 41.886V45.1689C32.4042 44.8058 31.7725 44.4234 31.3089 44.037C30.6237 43.4659 30.4101 42.98 30.4101 42.6075V40.3805C31.1502 40.9423 32.0964 41.445 33.1958 41.886ZM31.7206 61.3436V63.5705C31.7206 63.943 31.9341 64.4289 32.6194 65C33.083 65.3864 33.7147 65.7688 34.5062 66.1319V62.849C33.4069 62.408 32.4607 61.9054 31.7206 61.3436ZM36.3062 63.477V66.8299C37.3237 67.1655 38.4787 67.4637 39.747 67.7143V64.3066C38.5063 64.0733 37.3524 63.7947 36.3062 63.477ZM41.547 64.6044V68.0258C42.6367 68.1893 43.7881 68.319 44.9878 68.4104V64.9746C43.7956 64.8869 42.6446 64.7623 41.547 64.6044ZM46.7878 65.0774V68.5166C47.5648 68.5494 48.3577 68.5664 49.1632 68.5664C49.9688 68.5664 50.7617 68.5494 51.5387 68.5166V65.0774C50.76 65.1092 49.9671 65.1256 49.1632 65.1256C48.3594 65.1256 47.5665 65.1092 46.7878 65.0774ZM53.3387 64.9746V68.4104C54.5384 68.319 55.6898 68.1893 56.7795 68.0258V64.6044C55.6819 64.7623 54.5309 64.8869 53.3387 64.9746ZM58.5795 64.3066V67.7143C59.8478 67.4637 61.0028 67.1655 62.0202 66.8299V63.477C60.9741 63.7947 59.8202 64.0733 58.5795 64.3066ZM63.8202 62.849V66.1319C64.6118 65.7688 65.2435 65.3864 65.7071 65C66.3924 64.4289 66.6059 63.943 66.6059 63.5705V61.3436C65.8658 61.9054 64.9196 62.408 63.8202 62.849Z" fill="url(#paint1_linear_3311_4035)"/>
<defs>
<linearGradient id="paint0_linear_3311_4035" x1="20.625" y1="100" x2="108.331" y2="72.5509" gradientUnits="userSpaceOnUse">
<stop stop-color="#FE5000"/>
<stop offset="1" stop-color="#FCA92A"/>
</linearGradient>
<linearGradient id="paint1_linear_3311_4035" x1="37.3584" y1="70.3663" x2="74.1138" y2="58.1057" gradientUnits="userSpaceOnUse">
<stop stop-color="#FE5000"/>
<stop offset="1" stop-color="#FCA92A"/>
</linearGradient>
</defs>
</svg>
