<svg width="100" height="100" viewBox="0 0 100 100" fill="none" xmlns="http://www.w3.org/2000/svg">
<circle cx="50" cy="50" r="49.5" stroke="url(#paint0_linear_3311_4043)"/>
<path fill-rule="evenodd" clip-rule="evenodd" d="M39.9202 46.6448C42.6374 46.6448 44.8401 44.442 44.8401 41.7248C44.8401 39.0076 42.6374 36.8049 39.9202 36.8049C37.2029 36.8049 35.0002 39.0076 35.0002 41.7248C35.0002 44.442 37.2029 46.6448 39.9202 46.6448ZM39.9202 49.6447C44.2942 49.6447 47.8401 46.0989 47.8401 41.7248C47.8401 37.3508 44.2942 33.8049 39.9202 33.8049C35.5461 33.8049 32.0002 37.3508 32.0002 41.7248C32.0002 46.0989 35.5461 49.6447 39.9202 49.6447ZM60.3792 34.5953C60.8618 33.9632 61.7655 33.842 62.3976 34.3245C63.0297 34.8071 63.1509 35.7108 62.6683 36.3429L39.9494 66.1015C39.4668 66.7336 38.5632 66.8549 37.931 66.3723C37.2989 65.8897 37.1777 64.986 37.6603 64.3539L60.3792 34.5953ZM65 59.0046C65 61.7218 62.7973 63.9246 60.0801 63.9246C57.3629 63.9246 55.1601 61.7218 55.1601 59.0046C55.1601 56.2874 57.3629 54.0846 60.0801 54.0846C62.7973 54.0846 65 56.2874 65 59.0046ZM68 59.0046C68 63.3786 64.4541 66.9245 60.0801 66.9245C55.706 66.9245 52.1602 63.3786 52.1602 59.0046C52.1602 54.6305 55.706 51.0847 60.0801 51.0847C64.4541 51.0847 68 54.6305 68 59.0046Z" fill="url(#paint1_linear_3311_4043)"/>
<defs>
<linearGradient id="paint0_linear_3311_4043" x1="20.625" y1="100" x2="108.331" y2="72.5509" gradientUnits="userSpaceOnUse">
<stop stop-color="#FE5000"/>
<stop offset="1" stop-color="#FCA92A"/>
</linearGradient>
<linearGradient id="paint1_linear_3311_4043" x1="39.4252" y1="66.9245" x2="70.4961" y2="56.3547" gradientUnits="userSpaceOnUse">
<stop stop-color="#FE5000"/>
<stop offset="1" stop-color="#FCA92A"/>
</linearGradient>
</defs>
</svg>
