<svg width="100" height="100" viewBox="0 0 100 100" fill="none" xmlns="http://www.w3.org/2000/svg">
<circle cx="50" cy="50" r="49.5" stroke="url(#paint0_linear_3311_4026)"/>
<path d="M63.5169 31.0367C63.5169 28.2548 61.2621 26 58.4801 26H41.0374C38.2554 26 36.0002 28.2548 36.0002 31.0367V68.8183C36.0002 71.6003 38.2554 73.8551 41.0374 73.8551H58.4801C61.2621 73.8551 63.5169 71.6003 63.5169 68.8183V31.0367ZM38.393 34.7336H61.1241V62.6091H38.393V34.7336ZM41.0131 28.3928H58.5044C59.9622 28.3928 61.1241 29.6078 61.1241 31.0659V32.3408H38.393V31.0659C38.393 29.6078 39.5553 28.3928 41.0131 28.3928ZM58.5044 71.4623H41.0131C39.5759 71.4728 38.4031 70.3153 38.393 68.8781V65.0019H61.1241V68.8475C61.1312 70.2846 59.9723 71.4552 58.5351 71.4623H58.5044Z" fill="url(#paint1_linear_3311_4026)"/>
<path d="M52.1005 67.0356H47.4178C46.7568 67.0356 46.2214 67.571 46.2214 68.232C46.2214 68.893 46.7568 69.4284 47.4178 69.4284H52.1005C52.7611 69.4284 53.2969 68.893 53.2969 68.232C53.2969 67.571 52.7611 67.0356 52.1005 67.0356Z" fill="url(#paint2_linear_3311_4026)"/>
<defs>
<linearGradient id="paint0_linear_3311_4026" x1="20.625" y1="100" x2="108.331" y2="72.5509" gradientUnits="userSpaceOnUse">
<stop stop-color="#FE5000"/>
<stop offset="1" stop-color="#FCA92A"/>
</linearGradient>
<linearGradient id="paint1_linear_3311_4026" x1="41.6756" y1="73.8551" x2="67.342" y2="69.2362" gradientUnits="userSpaceOnUse">
<stop stop-color="#FE5000"/>
<stop offset="1" stop-color="#FCA92A"/>
</linearGradient>
<linearGradient id="paint2_linear_3311_4026" x1="47.6807" y1="69.4284" x2="51.3509" y2="66.0319" gradientUnits="userSpaceOnUse">
<stop stop-color="#FE5000"/>
<stop offset="1" stop-color="#FCA92A"/>
</linearGradient>
</defs>
</svg>
