<svg width="64" height="64" viewBox="0 0 64 64" fill="none" xmlns="http://www.w3.org/2000/svg">
<path d="M26.8239 32.5834H20.9594C20.8996 32.5834 20.8696 32.6134 20.8397 32.6732C20.6901 35.3362 20.1815 38.1786 19.4634 40.5125C19.4634 40.5424 19.4634 40.5723 19.4933 40.6022C19.5232 40.6322 19.5531 40.6322 19.583 40.6322H21.5877C21.6476 40.6322 21.6775 40.6022 21.6775 40.5723C22.246 38.7771 22.6948 36.4432 22.8743 34.4685H24.7893V40.5424C24.7893 40.6022 24.8491 40.6621 24.909 40.6621H26.8239C26.8837 40.6621 26.9436 40.6022 26.9436 40.5424V32.6732C26.9436 32.6134 26.8837 32.5834 26.8239 32.5834ZM51.6283 32.5834H49.7134C49.6535 32.5834 49.5937 32.6433 49.5937 32.7031V38.7771C49.1748 38.8967 48.7559 38.9566 48.2772 38.9566C47.0205 38.9566 46.7213 38.5676 46.7213 36.892V32.7031C46.7213 32.6433 46.6614 32.5834 46.6016 32.5834H44.7166C44.6567 32.5834 44.5969 32.6433 44.5969 32.7031V37.1015C44.5969 39.8542 45.5244 40.9014 47.8882 40.9014C49.2346 40.9014 50.7606 40.5424 51.6582 40.2133C51.6881 40.1833 51.7181 40.1534 51.7181 40.1235V32.7031C51.748 32.6134 51.6881 32.5834 51.6283 32.5834ZM11.0556 32.5834H9.11073C9.05089 32.5834 9.02097 32.6134 9.02097 32.6732C8.72176 33.87 8.09342 35.9047 7.25563 38.029L5.31078 32.6732C5.28086 32.6433 5.25094 32.6134 5.22101 32.6134H3.24624C3.21632 32.6134 3.18639 32.6433 3.15647 32.6732C3.12655 32.7031 3.12655 32.733 3.15647 32.763L6.08872 40.7818C5.78951 41.4101 5.52022 41.9187 5.25094 42.3975C5.04149 42.7565 4.86196 43.1156 4.68244 43.4746C4.65252 43.5046 4.65252 43.5345 4.68244 43.5644C4.71236 43.5943 4.74228 43.6242 4.7722 43.6242H6.89658C6.92651 43.6242 6.98635 43.5943 6.98635 43.5644C7.3454 42.8762 7.79421 41.9188 8.2131 40.9314C9.46978 37.9991 10.4572 35.2464 11.2052 32.733C11.2052 32.7031 11.2052 32.6732 11.1753 32.6433C11.1154 32.5834 11.0855 32.5834 11.0556 32.5834ZM18.0272 38.7771C18.0272 38.7471 17.9972 38.7172 17.9673 38.7172H17.8775C17.3988 38.8967 16.5311 39.0164 15.9327 39.0164C14.5863 39.0164 13.9579 38.6574 13.9579 36.6228C13.9579 34.9771 14.1674 34.2291 15.9327 34.2291C16.4413 34.2291 16.8902 34.2889 17.4886 34.4685C17.5484 34.4685 17.5783 34.4685 17.6083 34.4086C17.8177 33.9897 18.087 33.4811 18.3862 32.8527V32.763C18.3862 32.733 18.3563 32.7031 18.3264 32.7031C17.5484 32.4638 16.6209 32.3141 15.7831 32.3141C13.0004 32.3141 11.7438 33.6307 11.7438 36.5928C11.7438 39.5849 13.0004 40.9314 15.7831 40.9314C16.4713 40.9314 17.8775 40.7818 18.5358 40.5125C18.5956 40.4825 18.6256 40.4227 18.5956 40.3629L18.0272 38.7771ZM36.249 32.5834H34.3041C34.2443 32.5834 34.2143 32.6134 34.2143 32.6732C33.9151 33.9 33.2868 35.9047 32.449 38.029L30.5042 32.6732C30.4742 32.6433 30.4443 32.6134 30.4144 32.6134H28.4396C28.4097 32.6134 28.3798 32.6433 28.3499 32.6732C28.3199 32.7031 28.3199 32.733 28.3499 32.763L31.2821 40.7818C30.9829 41.4101 30.7136 41.9187 30.4443 42.3975C30.2349 42.7565 30.0553 43.1156 29.8758 43.5046C29.8459 43.5345 29.8459 43.5644 29.8758 43.5943C29.9057 43.6242 29.9357 43.6542 29.9656 43.6542H32.09C32.1199 43.6542 32.1797 43.6242 32.1797 43.5943C32.5388 42.9061 32.9876 41.9487 33.4065 40.9613C34.6332 38.029 35.6506 35.2763 36.3986 32.763C36.3986 32.733 36.3986 32.7031 36.3687 32.6732C36.3088 32.5834 36.2789 32.5834 36.249 32.5834ZM43.43 32.5834H37.7749C37.7151 32.5834 37.6553 32.6433 37.6553 32.7031V40.5723C37.6553 40.6322 37.7151 40.692 37.7749 40.692H39.6899C39.7497 40.692 39.8096 40.6322 39.8096 40.5723V34.4984H42.7717C42.8016 34.4984 42.8615 34.4685 42.8615 34.4385C43.1009 33.9 43.3103 33.3315 43.5497 32.763V32.6732C43.4898 32.5834 43.4599 32.5834 43.43 32.5834Z" fill="#EF4058"/>
<path d="M13.3295 20.4954C10.5768 20.4954 9.49961 21.6922 9.49961 24.7142C9.49961 27.7961 10.5768 28.9929 13.3295 28.9929C16.1121 28.9929 17.1893 27.7961 17.1893 24.7142C17.1893 21.6623 16.1121 20.4954 13.3295 20.4954ZM13.3295 27.2276C12.0728 27.2276 11.6838 26.8985 11.6838 24.7442C11.6838 22.4702 12.1027 22.2607 13.3295 22.2607C14.5862 22.2607 15.0051 22.4702 15.0051 24.7442C15.0051 26.8985 14.6161 27.2276 13.3295 27.2276ZM24.849 26.8985C24.849 26.8685 24.8191 26.8386 24.7892 26.8386H24.6994C24.2207 27.0181 23.353 27.1378 22.7546 27.1378C21.4081 27.1378 20.7798 26.7788 20.7798 24.7442C20.7798 23.0985 20.9892 22.3505 22.7546 22.3505C23.2632 22.3505 23.712 22.4103 24.3104 22.5898C24.3703 22.5898 24.4002 22.5898 24.4301 22.53C24.6396 22.1111 24.9089 21.6025 25.2081 20.9741V20.8844C25.2081 20.8544 25.1782 20.8245 25.1482 20.8245C24.3703 20.5851 23.4427 20.4355 22.605 20.4355C19.8223 20.4355 18.5656 21.7521 18.5656 24.7142C18.5656 27.7063 19.8223 29.0528 22.605 29.0528C23.2931 29.0528 24.6994 28.9032 25.3577 28.6339C25.4175 28.6039 25.4474 28.5441 25.4175 28.4843L24.849 26.8985ZM8.9012 20.7048H3.24615C3.18631 20.7048 3.12646 20.7647 3.12646 20.8245V28.6937C3.12646 28.7535 3.18631 28.8134 3.24615 28.8134H5.16108C5.22093 28.8134 5.28077 28.7535 5.28077 28.6937V22.5898H8.21301C8.24294 22.5898 8.30278 22.5599 8.30278 22.53C8.54214 21.9914 8.75159 21.4229 8.99096 20.8544V20.7647C8.96104 20.7348 8.93112 20.7048 8.9012 20.7048Z" fill="#1466AC"/>
<path d="M60.5745 39.8243V39.7046C60.5745 39.6448 60.5745 39.555 60.6045 39.4952C60.6942 38.3881 60.7541 37.0417 60.8139 35.4858V35.3661C60.8438 34.3189 60.8737 33.1819 60.8737 32.015C60.8737 30.848 60.8438 29.7111 60.8139 28.6638V28.5441C60.7541 27.0182 60.6942 25.6418 60.6045 24.5347C60.6045 24.4749 60.6045 24.3851 60.5745 24.3253V24.2056C60.5745 24.0859 60.5446 23.9962 60.5446 23.8765V23.7568C60.4549 22.5899 60.395 21.8718 60.3651 21.8119C60.3651 21.6923 60.3352 21.5726 60.3352 21.4828V21.393C60.3052 21.1836 60.2753 21.0041 60.2155 20.7946C60.2155 20.7647 60.2155 20.7348 60.1856 20.7049C59.6769 18.2813 58.3305 15.6183 56.6549 13.6136C55.9966 12.8357 55.3085 12.1475 54.5904 11.6089C54.5305 11.5491 53.6927 10.9507 52.3762 10.0231C50.8503 8.97588 48.666 7.50976 46.1826 6.07356C41.7543 3.47044 37.8347 1.64527 37.2961 1.43582C37.2662 1.43582 37.2662 1.4059 37.2662 1.4059C36.0993 0.897246 34.693 0.538195 33.167 0.388591C32.8678 0.35867 32.5686 0.328749 32.2694 0.328749C31.9702 0.298828 31.7009 0.298828 31.4316 0.298828H31.0127C28.9781 0.35867 27.0931 0.71772 25.597 1.4059C25.3876 1.49566 21.4081 3.32084 16.8901 5.9838L16.7105 6.07356C12.0728 8.79636 8.45236 11.4892 8.30276 11.6089C7.16577 12.4467 6.14846 13.5239 5.22091 14.9002C5.01146 15.1994 5.01146 15.9774 5.90909 15.9774H8.213C9.20039 15.9774 9.43975 15.379 10.5468 14.5711C11.7736 13.6735 14.1972 11.8782 18.6255 9.24517C21.827 7.36016 24.8191 5.86411 26.2852 5.17593C26.3151 5.17593 26.3451 5.14601 26.375 5.14601C26.375 5.14601 26.4049 5.14601 26.4049 5.11609C26.4049 5.11609 26.4348 5.11609 26.4348 5.08617C26.4647 5.08617 26.4947 5.05625 26.4947 5.05625C26.5246 5.05625 26.5545 5.02633 26.5844 5.02633C26.9435 4.8468 27.1828 4.75704 27.1828 4.75704C28.2001 4.30823 29.6363 4.00902 31.1623 3.9791H31.7607C32.2095 3.9791 32.6584 4.00902 33.0772 4.06886C34.0048 4.18854 34.8426 4.36807 35.5308 4.66728C35.5906 4.6972 35.6804 4.72712 35.7402 4.75704C35.7402 4.75704 35.7701 4.78696 35.8599 4.81688C36.5481 5.11609 40.2583 6.88142 44.2976 9.24517C46.6912 10.6515 48.8156 12.0577 50.2818 13.075C51.5684 13.9727 52.3463 14.5412 52.3762 14.5711C52.9447 14.99 53.5132 15.5884 54.0518 16.2467C55.3982 17.9821 56.5053 20.3458 56.6848 22.171C56.6848 22.2009 56.7746 22.919 56.8643 24.1458C56.8643 24.2355 56.8643 24.2954 56.8943 24.3851V24.5647C56.8943 24.6843 56.9242 24.7741 56.9242 24.8938V25.0135C56.9242 25.0733 56.9242 25.1631 56.9541 25.2229C56.9541 25.3725 56.984 25.5221 56.984 25.6717C56.984 25.7615 56.984 25.8513 57.014 25.941V26.0009C57.014 26.1205 57.014 26.2103 57.0439 26.33V26.5694C57.1336 28.1252 57.1935 29.9803 57.1935 31.9252C57.1935 33.8701 57.1336 35.7251 57.0439 37.281V37.5204C57.0439 37.6401 57.0439 37.7298 57.014 37.8495V37.9094C57.014 37.9991 57.014 38.0889 56.984 38.1787C56.984 38.3283 56.9541 38.4779 56.9541 38.6275C56.9541 38.7172 56.9541 38.7771 56.9242 38.8369V38.9566C56.9242 39.0763 56.8943 39.166 56.8943 39.2857V39.4653C56.8943 39.555 56.8943 39.6448 56.8643 39.7046C56.7746 40.9314 56.6848 41.6794 56.6848 41.6794C56.5053 43.5046 55.3982 45.8683 54.0518 47.6037C53.5132 48.2919 52.9447 48.8604 52.3762 49.2793C52.3463 49.2793 51.5684 49.8777 50.2818 50.7753C48.8156 51.7927 46.6613 53.1989 44.2976 54.6052C40.2583 56.9989 36.5182 58.7343 35.8599 59.0335L35.7402 59.0934C35.6804 59.1233 35.5906 59.1532 35.5308 59.1831C34.8426 59.4524 34.0048 59.6619 33.0772 59.7815C32.6584 59.8414 32.2095 59.8713 31.7607 59.8713H31.1623C29.6363 59.8414 28.2001 59.5721 27.1828 59.0934C27.1828 59.0934 26.9734 59.0036 26.5844 58.8241C26.5545 58.7941 26.4947 58.7941 26.4647 58.7642C26.4348 58.7343 26.4049 58.7343 26.375 58.7044C26.3451 58.7044 26.3451 58.6745 26.3151 58.6745C26.2852 58.6745 26.2553 58.6445 26.2254 58.6445C26.1954 58.6146 26.1655 58.6146 26.1057 58.5847H26.0758C24.5498 57.9863 21.6774 56.5501 18.6255 54.7548C14.1673 52.1517 11.7736 50.3265 10.5468 49.4289C9.43975 48.621 9.20039 48.0226 8.213 48.0226H5.90909C5.01146 48.0226 5.01146 48.8006 5.22091 49.0998C6.14846 50.4761 7.16577 51.5533 8.30276 52.3911C8.45236 52.5108 12.1027 55.2036 16.7105 57.9264C16.9499 58.076 17.1893 58.2257 17.4585 58.3453C21.7372 60.7988 25.4175 62.4744 25.6269 62.5941C27.0931 63.2524 29.008 63.6413 31.0426 63.7012H31.4615C31.7308 63.7012 32.0001 63.7012 32.2694 63.6712C32.5686 63.6712 32.8678 63.6413 33.167 63.6114C34.693 63.4618 36.1292 63.1028 37.2662 62.5941C37.2662 62.5941 37.2961 62.5941 37.2961 62.5642C37.8047 62.3248 41.7543 60.4996 46.1527 57.9264C48.6361 56.4603 50.8203 55.0241 52.3463 53.9769C53.6628 53.0493 54.5006 52.4509 54.5604 52.3911C55.2785 51.8525 55.9667 51.1643 56.625 50.3864C58.3006 48.3817 59.647 45.7187 60.1556 43.2951C60.1556 43.2652 60.1556 43.2353 60.1856 43.2054C60.2155 42.9959 60.2753 42.7865 60.3053 42.6069V42.5172C60.3352 42.3975 60.3352 42.2778 60.3352 42.1881C60.3352 42.1282 60.4249 41.4101 60.5147 40.2432V40.1235C60.5745 40.0338 60.5745 39.944 60.5745 39.8243Z" fill="url(#paint0_linear_7701_2789)"/>
<defs>
<linearGradient id="paint0_linear_7701_2789" x1="32.9893" y1="0.298828" x2="32.9893" y2="63.7559" gradientUnits="userSpaceOnUse">
<stop offset="0.398" stop-color="#1466AC"/>
<stop offset="0.659" stop-color="#EF4058"/>
</linearGradient>
</defs>
</svg>
