<svg width="64" height="64" viewBox="0 0 64 64" fill="none" xmlns="http://www.w3.org/2000/svg">
<path d="M50.4981 5.18738H13.502C8.39144 5.18738 4.28076 9.16359 4.28076 14.107V49.8929C4.28076 54.8363 8.39144 58.8126 13.502 58.8126H50.4981C55.6087 58.8126 59.7194 54.8363 59.7194 49.8929V14.107C59.7194 9.16359 55.6087 5.18738 50.4981 5.18738ZM56.8308 48.9258C56.7197 49.0332 56.6086 49.0332 56.4975 49.0332C49.3871 44.8421 40.9436 42.4778 32.0556 42.4778C23.1677 42.4778 14.7241 44.8421 7.50264 49.0332C7.39154 49.1407 7.16935 49.0332 7.16935 48.9258C7.05825 48.8183 7.05825 48.6034 7.28045 48.6034C13.7242 43.7674 19.3903 37.6419 23.6121 30.3343C27.9449 23.1341 30.6113 15.3966 31.7223 7.55161C31.7223 7.44415 31.8334 7.33668 32.0556 7.33668C32.1667 7.33668 32.2778 7.44415 32.3889 7.55161C33.4999 15.3966 36.1663 23.1341 40.4992 30.3343C44.832 37.5344 50.387 43.66 56.9419 48.4959C56.9419 48.6034 56.9419 48.8183 56.8308 48.9258Z" fill="#FE5000"/>
</svg>
