<svg width="66" height="66" viewBox="0 0 66 66" fill="none" xmlns="http://www.w3.org/2000/svg">
<path d="M50.3584 29.85L41.3984 18.65V9.69C41.3984 7.1 39.2984 5 36.7084 5H18.0884C15.4984 5 13.3984 7.1 13.3984 9.69V43.29C13.3984 45.88 15.4984 47.98 18.0884 47.98H26.4884V50.43C26.4884 56.31 31.2484 61.07 37.1284 61.07H51.6884C52.1784 61.07 52.5984 60.65 52.5984 60.16V36.36C52.5984 33.98 51.8284 31.67 50.3584 29.85ZM36.7084 6.89C38.2484 6.89 39.5084 8.15 39.5084 9.69V34.19L35.7984 30.2V6.89H36.7084ZM33.9084 28.17L32.2984 26.49C31.9484 26.14 31.5284 25.79 31.1084 25.58V6.89H33.9084V28.17ZM15.2884 43.29V9.69C15.2884 8.15 16.5484 6.89 18.0884 6.89H29.2884V25.16C28.1684 25.16 27.0484 25.58 26.2784 26.35L26.2084 26.42C24.5984 28.03 24.5284 30.55 25.9284 32.23L29.2884 36.22V46.09H18.0884C16.5484 46.09 15.2884 44.83 15.2884 43.29ZM34.0484 46.09H31.1784V38.46L33.9784 41.75V44.62C33.9084 45.11 33.9784 45.6 34.0484 46.09ZM50.7084 59.11H37.0584C32.2284 59.11 28.3084 55.19 28.3084 50.36V47.91H34.3984C35.4484 51.69 38.2484 54.84 42.0284 56.24L42.6584 54.49C38.5284 52.95 35.7984 48.96 35.7984 44.62V41.4C35.7984 41.19 35.7284 40.98 35.5884 40.77L27.3284 31.04C26.4884 30.06 26.5584 28.66 27.5384 27.68C28.0284 27.26 28.6584 26.98 29.2884 26.98C29.9184 26.98 30.5484 27.26 30.9684 27.75L43.4984 41.05L44.8284 39.79L41.3284 36.08V21.66L48.8184 31.04C50.0084 32.51 50.6384 34.4 50.6384 36.29V59.11H50.7084ZM19.9084 21.8H18.0184V9.69H19.9084V21.8ZM24.5984 17.11H22.7084V9.69H24.5984V17.11ZM24.5984 35.8H18.9984C18.5084 35.8 18.0884 36.22 18.0884 36.71V42.31C18.0884 42.8 18.5084 43.22 18.9984 43.22H24.5984C25.0884 43.22 25.5084 42.8 25.5084 42.31V36.71C25.5084 36.22 25.0884 35.8 24.5984 35.8ZM23.6884 41.4H19.9784V37.69H23.6884V41.4Z" fill="url(#paint0_linear_4152_1486)"/>
<defs>
<linearGradient id="paint0_linear_4152_1486" x1="13.3984" y1="61.07" x2="66.0591" y2="24.2535" gradientUnits="userSpaceOnUse">
<stop stop-color="#FE5000"/>
<stop offset="1" stop-color="#FE9800"/>
</linearGradient>
</defs>
</svg>
