<svg width="66" height="66" viewBox="0 0 66 66" fill="none" xmlns="http://www.w3.org/2000/svg">
<path d="M52.7909 9H13.2082C10.3375 9 8 11.3375 8 14.2083V49.6244C8 52.4951 10.3375 54.8326 13.2082 54.8326H38.2078C38.7828 54.8326 39.2495 54.3659 39.2495 53.7909C39.2495 53.2159 38.7828 52.7492 38.2078 52.7492H13.2082C11.4853 52.7492 10.0833 51.3472 10.0833 49.6243V19.4165H55.9158V41.2911C55.9158 41.8661 56.3825 42.3328 56.9574 42.3328C57.5324 42.3328 57.9991 41.8661 57.9991 41.2911V14.2083C57.9991 11.3375 55.6617 9 52.7909 9ZM55.9159 17.3333H10.0833V14.2083C10.0833 12.4854 11.4853 11.0834 13.2082 11.0834H52.7908C54.5137 11.0834 55.9158 12.4854 55.9158 14.2083V17.3333H55.9159Z" fill="url(#paint0_linear_4152_1499)"/>
<path d="M13.2097 15.25C13.785 15.25 14.2513 14.7837 14.2513 14.2084C14.2513 13.633 13.785 13.1667 13.2097 13.1667C12.6343 13.1667 12.168 13.633 12.168 14.2084C12.168 14.7837 12.6343 15.25 13.2097 15.25Z" fill="url(#paint1_linear_4152_1499)"/>
<path d="M17.3737 15.25C17.949 15.25 18.4154 14.7837 18.4154 14.2084C18.4154 13.633 17.949 13.1667 17.3737 13.1667C16.7984 13.1667 16.332 13.633 16.332 14.2084C16.332 14.7837 16.7984 15.25 17.3737 15.25Z" fill="url(#paint2_linear_4152_1499)"/>
<path d="M21.5417 15.25C22.117 15.25 22.5834 14.7837 22.5834 14.2084C22.5834 13.633 22.117 13.1667 21.5417 13.1667C20.9664 13.1667 20.5 13.633 20.5 14.2084C20.5 14.7837 20.9664 15.25 21.5417 15.25Z" fill="url(#paint3_linear_4152_1499)"/>
<path d="M57.6943 46.8034L43.1112 32.2204C42.8133 31.9246 42.3675 31.8349 41.9758 31.9954C41.5862 32.1558 41.332 32.5371 41.332 32.9579V53.7908C41.332 54.2116 41.5862 54.5929 41.9758 54.7513C42.3675 54.9158 42.8112 54.8262 43.1112 54.5263L46.2674 51.3701L48.8236 56.3492C48.9507 56.5992 49.1736 56.7846 49.4381 56.8679C49.5402 56.8992 49.6464 56.9159 49.7506 56.9159C49.9194 56.9159 50.0861 56.8742 50.2402 56.7929L54.3214 54.6242C54.8214 54.3597 55.0193 53.7409 54.7609 53.2347L52.4026 48.5827H56.9568C57.3776 48.5827 57.7588 48.3285 57.9193 47.939C58.0818 47.5492 57.9922 47.1014 57.6943 46.8034ZM50.7069 46.4992C50.3444 46.4992 50.0089 46.6867 49.8194 46.995C49.6298 47.3033 49.6131 47.6888 49.7777 48.0117L52.4401 53.2658L50.1944 54.4596L47.4674 49.1492C47.3153 48.8534 47.0319 48.6472 46.7028 48.595C46.6486 48.5867 46.5945 48.5825 46.5403 48.5825C46.2674 48.5825 46.0008 48.6908 45.8029 48.8888L43.4154 51.2762V35.4724L54.4423 46.4992H50.7069Z" fill="url(#paint4_linear_4152_1499)"/>
<defs>
<linearGradient id="paint0_linear_4152_1499" x1="8" y1="54.8326" x2="53.6597" y2="5.02215" gradientUnits="userSpaceOnUse">
<stop stop-color="#FE5000"/>
<stop offset="1" stop-color="#FE9800"/>
</linearGradient>
<linearGradient id="paint1_linear_4152_1499" x1="12.168" y1="15.25" x2="14.2513" y2="13.1667" gradientUnits="userSpaceOnUse">
<stop stop-color="#FE5000"/>
<stop offset="1" stop-color="#FE9800"/>
</linearGradient>
<linearGradient id="paint2_linear_4152_1499" x1="16.332" y1="15.25" x2="18.4154" y2="13.1667" gradientUnits="userSpaceOnUse">
<stop stop-color="#FE5000"/>
<stop offset="1" stop-color="#FE9800"/>
</linearGradient>
<linearGradient id="paint3_linear_4152_1499" x1="20.5" y1="15.25" x2="22.5834" y2="13.1667" gradientUnits="userSpaceOnUse">
<stop stop-color="#FE5000"/>
<stop offset="1" stop-color="#FE9800"/>
</linearGradient>
<linearGradient id="paint4_linear_4152_1499" x1="41.332" y1="56.9159" x2="64.4088" y2="41.5302" gradientUnits="userSpaceOnUse">
<stop stop-color="#FE5000"/>
<stop offset="1" stop-color="#FE9800"/>
</linearGradient>
</defs>
</svg>
