<svg width="44" height="44" viewBox="0 0 44 44" fill="none" xmlns="http://www.w3.org/2000/svg">
<path fill-rule="evenodd" clip-rule="evenodd" d="M28.4186 0.733578L28.4186 13.3684L25.6894 10.98C25.5652 10.8713 25.3966 10.8102 25.2209 10.8102C25.0452 10.8102 24.8767 10.8713 24.7524 10.98C24.6282 11.0887 24.5583 11.2361 24.5583 11.3899C24.5583 11.5436 24.6282 11.691 24.7524 11.7997L28.7228 15.2731C28.7842 15.327 28.8573 15.3698 28.9377 15.399C29.0181 15.4281 29.1042 15.4432 29.1913 15.4432C29.2783 15.4432 29.3645 15.4281 29.4449 15.399C29.5253 15.3698 29.5983 15.327 29.6598 15.2731L33.6302 11.7997C33.7544 11.691 33.8242 11.5436 33.8242 11.3899C33.8242 11.2361 33.7544 11.0887 33.6302 10.98C33.5059 10.8713 33.3374 10.8102 33.1617 10.8102C32.9859 10.8102 32.8174 10.8713 32.6931 10.98L29.9629 13.3694V0.733578C29.9629 0.539029 29.8815 0.352448 29.7367 0.214881C29.5919 0.0773144 29.3955 3.05176e-05 29.1907 3.05176e-05C28.9859 3.05176e-05 28.7895 0.0773144 28.6447 0.214881C28.4999 0.352448 28.4186 0.539029 28.4186 0.733578ZM24.7696 17.7868V19.9508C29.5969 19.262 36.1413 20.227 36.1414 22.8498V34.2414C36.1414 36.2113 32.4251 37.2889 28.5602 37.3952V39.3043C28.5602 41.3815 24.4285 42.4686 20.3473 42.4686C16.2661 42.4686 12.1343 41.3815 12.1343 39.3043V35.5071C12.1343 34.6433 12.8507 33.9618 13.9757 33.4573C10.9002 33.0954 8.34375 32.0773 8.34375 30.4441V17.7868C8.34375 13.6324 24.7696 13.6324 24.7696 17.7868ZM23.5061 17.8298C23.5061 17.1863 21.0531 15.9345 16.5567 15.9345C12.0603 15.9345 9.60726 17.1863 9.60732 17.8298C9.60732 18.4733 12.0604 19.7251 16.5567 19.7251C21.053 19.7251 23.5061 18.4733 23.5061 17.8298ZM16.5566 20.9887C13.8557 20.9887 11.1402 20.5105 9.60726 19.5879L9.60732 21.6204C9.60732 22.2639 12.0603 23.5157 16.5567 23.5157C17.6566 23.5157 18.7254 23.4166 19.7155 23.2577V22.8839C19.7155 21.5918 21.3105 20.7026 23.5061 20.2157V19.5879C21.9731 20.5105 19.2576 20.9887 16.5566 20.9887ZM21.3586 32.4325C21.2243 32.3657 21.0992 32.2954 20.979 32.2231V32.4188C21.1059 32.4221 21.2321 32.4273 21.3586 32.4325ZM16.5566 24.7792C13.8557 24.7792 11.1402 24.3011 9.60726 23.3784V26.0427C9.60726 26.6863 12.0602 27.938 16.5566 27.938C17.6565 27.938 18.7253 27.8389 19.7154 27.6801V24.5313C18.7132 24.681 17.6502 24.7792 16.5566 24.7792ZM9.60726 27.8008V30.4651C9.60726 31.1086 12.0603 32.3604 16.5566 32.3604C17.6565 32.3604 18.7253 32.2613 19.7154 32.1025V28.9537C18.7132 29.1034 17.6502 29.2016 16.5566 29.2016C13.8557 29.2016 11.1402 28.7235 9.60726 27.8008ZM20.3473 41.2051C24.8436 41.2051 27.2966 39.9533 27.2966 39.3098L27.2966 37.3994C27.2676 37.3985 27.2383 37.398 27.209 37.3974C27.1716 37.3967 27.1342 37.396 27.0975 37.3946C25.5348 38.241 22.9326 38.678 20.3472 38.678C17.6462 38.678 14.9308 38.1999 13.3978 37.2772V39.3098C13.3978 39.9533 15.8509 41.2051 20.3473 41.2051ZM13.3979 35.5192C13.3979 36.1627 15.8509 37.4145 20.3473 37.4145C24.8436 37.4145 27.2966 36.1627 27.2966 35.5192C27.2966 34.8757 24.8436 33.6239 20.3473 33.6239C15.8509 33.6239 13.3979 34.8757 13.3979 35.5192ZM28.5601 36.1291C32.6392 36.0152 34.8778 34.8672 34.8778 34.2557L34.8777 32.2231C33.3448 33.1458 30.6293 33.6239 27.9284 33.6239C27.6181 33.6239 27.3082 33.6155 26.9993 33.603C27.9628 34.0919 28.5601 34.7299 28.5601 35.5192V36.1291ZM27.9284 32.3604C32.4248 32.3604 34.8778 31.1086 34.8778 30.4651V28.4325C33.3449 29.3552 30.6294 29.8333 27.9284 29.8333C25.2275 29.8333 22.512 29.3552 20.979 28.4325V30.4651C20.979 31.1086 23.4321 32.3604 27.9284 32.3604ZM27.9284 28.5698C32.4248 28.5698 34.8778 27.318 34.8778 26.6745V24.6419C33.3449 25.5646 30.6294 26.0427 27.9284 26.0427C25.2275 26.0427 22.512 25.5646 20.979 24.6419V26.6745C20.979 27.318 23.4321 28.5698 27.9284 28.5698ZM20.979 22.8839C20.979 23.5275 23.432 24.7792 27.9284 24.7792C32.4248 24.7792 34.8778 23.5275 34.8778 22.8839C34.8778 22.2404 32.4248 20.9887 27.9284 20.9887C23.4321 20.9887 20.979 22.2404 20.979 22.8839Z" fill="url(#paint0_linear_4152_1522)"/>
<defs>
<linearGradient id="paint0_linear_4152_1522" x1="14.077" y1="42.4686" x2="39.7671" y2="37.2059" gradientUnits="userSpaceOnUse">
<stop stop-color="#FE5000"/>
<stop offset="1" stop-color="#FCA92A"/>
</linearGradient>
</defs>
</svg>
