<svg width="44" height="44" viewBox="0 0 44 44" fill="none" xmlns="http://www.w3.org/2000/svg">
<path d="M23.2877 22.4061C23.2877 27.9907 22.3738 32.4246 20.5461 35.7077C18.7523 38.9569 15.96 40.5815 12.1692 40.5815C8.34458 40.5815 5.5015 38.94 3.63996 35.6569C1.77842 32.3738 0.847656 27.9569 0.847656 22.4061C0.847656 16.8554 1.7615 12.4384 3.58919 9.15536C5.45073 5.87228 8.27688 4.23074 12.0677 4.23074C15.8585 4.23074 18.6677 5.87228 20.4954 9.15536C22.3569 12.4384 23.2877 16.8554 23.2877 22.4061ZM12.1692 38.0938C17.72 38.0938 20.4954 32.8646 20.4954 22.4061C20.4954 11.9477 17.6861 6.71844 12.0677 6.71844C6.44919 6.71844 3.63996 11.9477 3.63996 22.4061C3.63996 32.8646 6.48304 38.0938 12.1692 38.0938ZM30.7439 30.5191H27.3322V29.2092H30.7439V18.8523C31.5765 18.8523 32.4396 18.8421 33.3331 18.8218C34.2267 18.8015 35.0999 18.7914 35.9528 18.7914C41.0094 18.7914 43.5378 20.7511 43.5378 24.6704C43.5378 26.4778 42.8879 27.9095 41.5882 28.9655C40.3088 30.0012 38.4304 30.5191 35.9528 30.5191H32.4193V34.2658H37.9328V35.5757H32.4193V40.1754H30.7439V35.5757H27.3322V34.2658H30.7439V30.5191ZM36.1051 20.3754C35.435 20.3754 34.2064 20.3957 32.4193 20.4363V29.2092H35.8919C37.8211 29.2092 39.2833 28.8335 40.2784 28.0821C41.2734 27.3104 41.771 26.2138 41.771 24.7923C41.771 21.8477 39.8824 20.3754 36.1051 20.3754Z" fill="url(#paint0_linear_4152_1520)"/>
<defs>
<linearGradient id="paint0_linear_4152_1520" x1="9.65249" y1="40.5815" x2="45.8691" y2="27.2702" gradientUnits="userSpaceOnUse">
<stop stop-color="#FE5000"/>
<stop offset="1" stop-color="#FCA92A"/>
</linearGradient>
</defs>
</svg>
