<svg width="44" height="44" viewBox="0 0 44 44" fill="none" xmlns="http://www.w3.org/2000/svg">
<path d="M35.9091 42H16.2727C13.9818 42 12.1818 40.1667 12.1818 37.8333V12.8333C12.1818 10.5 13.9818 8.66667 16.2727 8.66667H35.9091C38.2 8.66667 40 10.5 40 12.8333V37.8333C40 40.1667 38.2 42 35.9091 42ZM16.2727 10.3333C14.8818 10.3333 13.8182 11.4167 13.8182 12.8333V37.8333C13.8182 39.25 14.8818 40.3333 16.2727 40.3333H35.9091C37.3 40.3333 38.3636 39.25 38.3636 37.8333V12.8333C38.3636 11.4167 37.3 10.3333 35.9091 10.3333H16.2727ZM9.72727 37H8.09091C5.8 37 4 35.1667 4 32.8333V6.16667C4 3.83333 5.8 2 8.09091 2H27.7273C30.0182 2 31.8182 3.83333 31.8182 6.16667C31.8182 6.66667 31.4909 7 31 7C30.5091 7 30.1818 6.66667 30.1818 6.16667C30.1818 4.75 29.1182 3.66667 27.7273 3.66667H8.09091C6.7 3.66667 5.63636 4.75 5.63636 6.16667V32.8333C5.63636 34.25 6.7 35.3333 8.09091 35.3333H9.72727C10.2182 35.3333 10.5455 35.6667 10.5455 36.1667C10.5455 36.6667 10.2182 37 9.72727 37ZM32.6364 30.3333H19.5455C19.0545 30.3333 18.7273 30 18.7273 29.5C18.7273 29 19.0545 28.6667 19.5455 28.6667H32.6364C33.1273 28.6667 33.4545 29 33.4545 29.5C33.4545 30 33.1273 30.3333 32.6364 30.3333ZM32.6364 37H19.5455C19.0545 37 18.7273 36.6667 18.7273 36.1667C18.7273 35.6667 19.0545 35.3333 19.5455 35.3333H32.6364C33.1273 35.3333 33.4545 35.6667 33.4545 36.1667C33.4545 36.6667 33.1273 37 32.6364 37ZM32.6364 23.6667H19.5455C19.0545 23.6667 18.7273 23.3333 18.7273 22.8333C18.7273 22.3333 19.0545 22 19.5455 22H32.6364C33.1273 22 33.4545 22.3333 33.4545 22.8333C33.4545 23.3333 33.1273 23.6667 32.6364 23.6667ZM32.6364 17H19.5455C19.0545 17 18.7273 16.6667 18.7273 16.1667C18.7273 15.6667 19.0545 15.3333 19.5455 15.3333H32.6364C33.1273 15.3333 33.4545 15.6667 33.4545 16.1667C33.4545 16.6667 33.1273 17 32.6364 17Z" fill="url(#paint0_linear_4152_1535)"/>
<defs>
<linearGradient id="paint0_linear_4152_1535" x1="11.425" y1="42" x2="43.5436" y2="32.9532" gradientUnits="userSpaceOnUse">
<stop stop-color="#FE5000"/>
<stop offset="1" stop-color="#FCA92A"/>
</linearGradient>
</defs>
</svg>
