<svg width="44" height="44" viewBox="0 0 44 44" fill="none" xmlns="http://www.w3.org/2000/svg">
<path fill-rule="evenodd" clip-rule="evenodd" d="M26.4885 3.58476C26.4885 3.12158 26.864 2.74609 27.3272 2.74609H34.6888V10.1077C34.6888 10.5709 34.3133 10.9464 33.8501 10.9464C33.3869 10.9464 33.0115 10.5709 33.0115 10.1077V5.55463L21.3603 16.7576L19.4849 11.1313L9.72164 20.0455C9.37959 20.3578 8.84913 20.3337 8.53682 19.9917C8.22451 19.6496 8.24862 19.1191 8.59067 18.8068L20.2599 8.15228L22.1119 13.7081L31.7679 4.42342H27.3272C26.864 4.42342 26.4885 4.04794 26.4885 3.58476ZM18.8465 38.471V21.4675H25.1534V38.471H18.8465ZM17.2697 20.8762C17.2697 20.332 17.7109 19.8908 18.2552 19.8908H25.7447C26.289 19.8908 26.7302 20.332 26.7302 20.8762V39.0622C26.7302 39.6065 26.289 40.0477 25.7447 40.0477H18.2552C17.7109 40.0477 17.2697 39.6065 17.2697 39.0622V20.8762ZM6.94003 38.471V25.8361H13.247V38.471H6.94003ZM5.36328 25.2448C5.36328 24.7005 5.80449 24.2593 6.34875 24.2593H13.8383C14.3825 24.2593 14.8238 24.7005 14.8238 25.2448V39.0622C14.8238 39.6065 14.3825 40.0477 13.8383 40.0477H6.34875C5.80449 40.0477 5.36328 39.6065 5.36328 39.0622V25.2448ZM30.749 38.471V15.3746H37.056V38.471H30.749ZM29.1723 14.7833C29.1723 14.239 29.6135 13.7978 30.1578 13.7978H37.6473C38.1916 13.7978 38.6328 14.239 38.6328 14.7833V39.0623C38.6328 39.6065 38.1916 40.0477 37.6473 40.0477H30.1578C29.6135 40.0477 29.1723 39.6065 29.1723 39.0623V14.7833Z" fill="url(#paint0_linear_4152_1569)"/>
<defs>
<linearGradient id="paint0_linear_4152_1569" x1="5.36328" y1="40.0477" x2="42.4222" y2="6.99475" gradientUnits="userSpaceOnUse">
<stop stop-color="#FE5000"/>
<stop offset="1" stop-color="#FE9800"/>
</linearGradient>
</defs>
</svg>
