<svg width="66" height="66" fill="none" xmlns="http://www.w3.org/2000/svg"><path fill-rule="evenodd" clip-rule="evenodd" d="M53.047 17.328h7.143c.449 0 .82.375.81.826v22.52a11.07 11.07 0 0 0-1.63-1.84V18.98H25.785v20.708H39.8c.426 0 .766.341.766.77 0 .43-.34.771-.766.771H25.796v5.692c0 .017-.003.033-.005.05-.003.016-.006.033-.006.05H41c.001.56.044 1.112.126 1.65h-2.29L30.347 60.65a.822.822 0 0 1-1.149.198l-9.08-6.529-2.997 1.398a.832.832 0 0 1-1.094-.407l-3.063-6.638H5.82a.83.83 0 0 1-.82-.826V18.154c0-.451.361-.826.82-.826h21.354l8.49-11.978a.822.822 0 0 1 1.148-.198l9.08 6.529 2.998-1.398a.836.836 0 0 1 1.094.407l3.063 6.638Zm-1.816 0-2.396-5.196-11.137 5.196h13.533Zm-7.045-4.844-7.658-5.493-7.33 10.337h4.606l10.382-4.844ZM24.254 46.921V41.23h.01V18.98h-4.922v27.942a.298.298 0 0 1-.006.05c-.002.016-.005.033-.005.05h4.934c-.011-.034-.011-.067-.011-.1ZM6.64 18.98v28.04h11.17c-.012-.033-.012-.066-.012-.099V41.23h-4.922a.764.764 0 0 1-.766-.77c0-.43.339-.77.765-.77H17.8v-20.71H6.641Zm8.139 29.692 2.396 5.196 11.136-5.196H14.78Zm7.045 4.855 7.658 5.493 7.33-10.337h-4.606l-10.382 4.844Zm24.986-24.793h-1.433v1.52h1.433v1.012h-1.433v.958h1.433v2.136h1.75v-2.136h3.151v-.958h-3.15v-1.013h2.362c2.342 0 3.654-1.222 3.654-3.28 0-2.048-1.313-3.237-3.654-3.237h-4.113v4.998Zm6.017-1.762c0 1.09-.59 1.762-2.155 1.762h-2.111v-3.49h2.11c1.565 0 2.156.639 2.156 1.729Z" fill="url(#a)"/><circle cx="52" cy="47" r="9.25" stroke="url(#b)" stroke-width="1.5"/><path d="M52 41v6h6" stroke="url(#c)" stroke-width="1.5"/><defs><linearGradient id="a" x1="16.55" y1="61" x2="65.665" y2="45.629" gradientUnits="userSpaceOnUse"><stop stop-color="#FE5000"/><stop offset="1" stop-color="#FCA92A"/></linearGradient><linearGradient id="b" x1="46.125" y1="57" x2="63.666" y2="51.51" gradientUnits="userSpaceOnUse"><stop stop-color="#FE5000"/><stop offset="1" stop-color="#FCA92A"/></linearGradient><linearGradient id="c" x1="53.237" y1="47" x2="58.5" y2="45.353" gradientUnits="userSpaceOnUse"><stop stop-color="#FE5000"/><stop offset="1" stop-color="#FCA92A"/></linearGradient></defs></svg>