<svg width="56" height="56" fill="none" xmlns="http://www.w3.org/2000/svg"><g clip-path="url(#a)"><path d="M52.709 13.745h-6.493l-2.784-6.037a.76.76 0 0 0-.995-.37l-2.724 1.271-8.253-5.937a.747.747 0 0 0-1.044.18L22.7 13.746H3.291a.747.747 0 0 0-.746.751v27.001c0 .41.339.751.746.751h6.493l2.784 6.037c.17.37.617.54.995.37l2.724-1.27 8.253 5.936c.328.24.805.16 1.044-.18L33.3 42.248h19.399c.418 0 .746-.34.746-.75V14.495a.739.739 0 0 0-.736-.75ZM42.388 9.02l2.177 4.725h-12.3L42.389 9.02ZM31.202 4.344l6.96 4.996-9.436 4.405H24.54l6.662-9.4ZM20.045 35.48v5.176c0 .03 0 .06.01.09h-4.484c0-.03.01-.06.01-.09V15.247h4.474V35.48h-.01ZM4.038 40.747v-25.5h10.142v18.832H9.705a.694.694 0 0 0-.696.7c0 .391.308.701.696.701h4.474v5.176c0 .03 0 .06.01.09H4.037Zm9.575 6.227-2.177-4.726h12.3l-10.123 4.726Zm11.186 4.685-6.96-4.996 9.436-4.405h4.186l-6.662 9.401Zm27.165-10.913H21.437c0-.03.01-.06.01-.09V35.48h12.728c.388 0 .696-.31.696-.7 0-.39-.309-.701-.696-.701H21.438V15.247h30.525v25.5ZM39.246 24.117h1.302v-4.545h3.739c2.128 0 3.321 1.081 3.321 2.943 0 1.872-1.193 2.984-3.321 2.984h-2.148v.92h2.864v.872h-2.864v1.942h-1.59v-1.942h-1.303v-.871h1.302v-.921h-1.302v-1.382Zm4.812 0c1.422 0 1.96-.61 1.96-1.602 0-.99-.538-1.572-1.96-1.572H42.14v3.174h1.92Z" fill="url(#b)"/></g><defs><linearGradient id="b" x1="2.545" y1="53.46" x2="53.471" y2="2.56" gradientUnits="userSpaceOnUse"><stop stop-color="#FE5000"/><stop offset="1" stop-color="#FE9800"/></linearGradient><clipPath id="a"><path fill="#fff" d="M2.545 2.545h50.909v50.909H2.545z"/></clipPath></defs></svg>