<svg width="68" height="68" viewBox="0 0 68 68" fill="none" xmlns="http://www.w3.org/2000/svg">
  <path fill-rule="evenodd" clip-rule="evenodd" d="M42.8699 3.37729C42.5055 3.12424 42.0222 3.12424 41.6578 3.37729L20.4078 18.1342C20.1219 18.3328 19.9514 18.6588 19.9514 19.0069V22.6667H18.6528C18.066 22.6667 17.5903 23.1424 17.5903 23.7292V27.8611C17.5903 28.4479 18.066 28.9236 18.6528 28.9236H21.7222V31.4676C20.385 31.1172 18.9815 30.9306 17.5344 30.9306C8.43721 30.9306 1.0625 38.3053 1.0625 47.4024C1.0625 56.4996 8.43722 63.8743 17.5344 63.8743C26.6316 63.8743 34.0063 56.4996 34.0063 47.4024C34.0063 43.4766 32.6329 39.8715 30.3403 37.0414V28.9236H38.25V47.3403C38.25 47.9271 38.7257 48.4028 39.3125 48.4028H45.8056H55.25H61.1528H62.4514V50.4097H37.5417C36.9549 50.4097 36.4792 50.8854 36.4792 51.4722C36.4792 52.059 36.9549 52.5347 37.5417 52.5347H63.5139H64.8125V55.1319H34C33.4132 55.1319 32.9375 55.6076 32.9375 56.1944C32.9375 56.7812 33.4132 57.2569 34 57.2569H65.875C66.4618 57.2569 66.9375 56.7812 66.9375 56.1944V51.4722C66.9375 50.8854 66.4618 50.4097 65.875 50.4097H64.5764V47.3403C64.5764 46.7535 64.1007 46.2778 63.5139 46.2778H62.2153V28.9236H65.875C66.4618 28.9236 66.9375 28.4479 66.9375 27.8611V23.7292C66.9375 23.1424 66.4618 22.6667 65.875 22.6667H64.5764V19.0069C64.5764 18.6588 64.4059 18.3328 64.1199 18.1342L42.8699 3.37729ZM62.4514 19.5627V22.6667H22.0764V19.5627L42.2639 5.54357L62.4514 19.5627ZM23.8472 32.1836V28.9236H28.2153V34.8624C26.9176 33.756 25.446 32.8475 23.8472 32.1836ZM40.375 46.2778V28.9236H44.7431V46.2778H40.375ZM46.8681 46.2778V28.9236H54.1875V46.2778H46.8681ZM56.3125 46.2778V28.9236H60.0903V46.2778H56.3125ZM19.7153 26.7986V24.7917H21.0139H63.5139H64.8125V26.7986H61.1528H55.25H45.8056H39.3125H29.2778H22.7847H19.7153ZM3.1875 47.4024C3.1875 39.4789 9.61082 33.0556 17.5344 33.0556C25.458 33.0556 31.8813 39.4789 31.8813 47.4024C31.8813 55.326 25.458 61.7493 17.5344 61.7493C9.61082 61.7493 3.1875 55.326 3.1875 47.4024ZM25.4491 43.637C25.8381 43.1976 25.7973 42.5261 25.3579 42.1371C24.9185 41.7482 24.247 41.789 23.8581 42.2284L16.1153 50.9743L11.566 46.7292C11.1369 46.3289 10.4646 46.3521 10.0643 46.7812C9.66394 47.2102 9.68721 47.8825 10.1162 48.2829L15.463 53.272C15.6726 53.4675 15.9522 53.5701 16.2385 53.5565C16.5248 53.5428 16.7934 53.4141 16.9834 53.1995L25.4491 43.637Z" fill="url(#paint0_linear_5258_4178)" />
  <defs>
    <linearGradient id="paint0_linear_5258_4178" x1="1.0625" y1="63.8743" x2="61.5457" y2="-1.77964" gradientUnits="userSpaceOnUse">
      <stop stop-color="#FE5000" />
      <stop offset="1" stop-color="#FE9800" />
    </linearGradient>
  </defs>
</svg>
