<svg width="66" height="66" viewBox="0 0 66 66" fill="none" xmlns="http://www.w3.org/2000/svg">
<path d="M34.3099 8H19.44C15.34 8 12 11.3393 12 15.4386V51.5614C12 55.6507 15.34 58.99 19.44 58.99H21.56C22.15 58.99 22.6201 58.5101 22.6201 57.9302C22.6201 57.3403 22.14 56.8704 21.56 56.8704H19.44C16.51 56.8704 14.1299 54.4909 14.1299 51.5614V15.4386C14.1299 12.5091 16.51 10.1296 19.44 10.1296H34.3099C37.24 10.1296 39.62 12.5091 39.62 15.4386V26.0664C39.62 26.6564 40.1 27.1263 40.68 27.1263C41.26 27.1263 41.74 26.6463 41.74 26.0664V15.4386C41.75 11.3393 38.41 8 34.3099 8ZM40.6901 16.4983H13.06C12.48 16.4983 12 16.9782 12 17.5581C12 18.138 12.48 18.618 13.06 18.618H40.68C41.2701 18.618 41.74 18.138 41.74 17.5581C41.74 16.9782 41.2701 16.4983 40.6901 16.4983ZM31.12 46.2425H13.06C12.48 46.2425 12 46.7224 12 47.3023C12 47.8922 12.48 48.3621 13.06 48.3621H31.12C31.71 48.3621 32.18 47.8822 32.18 47.3023C32.19 46.7224 31.71 46.2425 31.12 46.2425ZM30.06 12.2492H23.68C23.09 12.2492 22.6201 12.7291 22.6201 13.309C22.6201 13.8889 23.1 14.3687 23.68 14.3687H30.06C30.65 14.3687 31.12 13.8889 31.12 13.309C31.12 12.7291 30.65 12.2492 30.06 12.2492ZM34.36 12.2492H34.34C33.75 12.2492 33.2899 12.7291 33.2899 13.309C33.2899 13.8889 33.78 14.3687 34.36 14.3687C34.94 14.3687 35.42 13.8889 35.42 13.309C35.42 12.7291 34.94 12.2492 34.36 12.2492ZM59.9601 36.1144L51.97 27.3362C50.39 25.7566 47.81 25.7565 46.22 27.3462C45.71 27.8562 45.37 28.456 45.19 29.1059C43.5999 27.8861 41.31 28.006 39.84 29.4757C39.3401 29.9856 38.99 30.5856 38.81 31.2355C37.22 30.0157 34.9299 30.1356 33.47 31.6054C32.97 32.1053 32.63 32.6951 32.45 33.315L28.68 29.5458C27.1001 27.966 24.52 27.966 22.93 29.5557C21.35 31.1355 21.35 33.715 22.93 35.2946L37.4 49.7718L28.82 51.1215C26.5 51.4515 24.75 53.4711 24.75 55.8106C24.75 57.5703 26.18 59 27.94 59H47.98C51.1 59 54.04 57.7803 56.2399 55.5807L59.58 52.2413C61.79 50.0417 63 47.1023 63 43.9929C63 41.0635 61.92 38.2741 59.9601 36.1144ZM58.08 50.7217L54.74 54.061C52.93 55.8706 50.53 56.8604 47.98 56.8604H27.94C27.35 56.8604 26.8799 56.3806 26.8799 55.8007C26.8799 54.5108 27.84 53.4011 29.1401 53.2112L39.8 51.5415C40.2 51.4814 40.52 51.2015 40.6499 50.8216C40.77 50.4417 40.67 50.0218 40.39 49.7418L24.43 33.795C23.68 33.0451 23.68 31.8154 24.4399 31.0455C24.82 30.6656 25.31 30.4756 25.81 30.4756C26.31 30.4756 26.8 30.6656 27.18 31.0455L37.8101 41.6734C38.22 42.0833 38.8999 42.0833 39.31 41.6734C39.5199 41.4634 39.62 41.1935 39.62 40.9235C39.62 40.6536 39.5199 40.3836 39.31 40.1737L34.9701 35.8345C34.22 35.0847 34.22 33.8549 34.98 33.085C35.7299 32.3352 36.96 32.3352 37.71 33.085L42.05 37.4242C42.46 37.8342 43.14 37.8342 43.55 37.4242C43.76 37.2143 43.86 36.9444 43.86 36.6744C43.86 36.4044 43.76 36.1345 43.56 35.9346L41.34 33.715C40.59 32.9651 40.59 31.7354 41.35 30.9655C42.1 30.2156 43.33 30.2156 44.08 30.9655L46.3 33.1851C46.72 33.575 47.37 33.575 47.78 33.165C48.1899 32.7552 48.1899 32.0752 47.78 31.6654L47.69 31.5753C47.32 31.2055 47.12 30.7256 47.12 30.2056C47.12 29.6858 47.32 29.2058 47.7 28.826C48.45 28.076 49.68 28.076 50.4 28.786L58.36 37.5242C59.96 39.2839 60.84 41.5634 60.84 43.9529C60.88 46.5225 59.88 48.9219 58.08 50.7217Z" fill="url(#paint0_linear_5443_1293)"/>
<defs>
<linearGradient id="paint0_linear_5443_1293" x1="22.5188" y1="59" x2="67.2488" y2="45.001" gradientUnits="userSpaceOnUse">
<stop stop-color="#FE5000"/>
<stop offset="1" stop-color="#FCA92A"/>
</linearGradient>
</defs>
</svg>
