<svg width="58" height="58" viewBox="0 0 58 58" fill="none" xmlns="http://www.w3.org/2000/svg">
<path d="M29.3729 8H17.127C13.7506 8 11 10.75 11 14.1259V43.8741C11 47.2417 13.7506 49.9918 17.127 49.9918H18.8729C19.3589 49.9918 19.7459 49.5965 19.7459 49.119C19.7459 48.6332 19.3506 48.2462 18.8729 48.2462H17.127C14.7141 48.2462 12.7541 46.2866 12.7541 43.8741V14.1259C12.7541 11.7134 14.7141 9.75378 17.127 9.75378H29.3729C31.7859 9.75378 33.7459 11.7134 33.7459 14.1259V22.8782C33.7459 23.3641 34.1411 23.751 34.6188 23.751C35.0964 23.751 35.4917 23.3558 35.4917 22.8782V14.1259C35.5 10.75 32.7494 8 29.3729 8ZM34.6271 14.9986H11.8729C11.3953 14.9986 11 15.3938 11 15.8714C11 16.3489 11.3953 16.7442 11.8729 16.7442H34.6188C35.1048 16.7442 35.4917 16.3489 35.4917 15.8714C35.4917 15.3938 35.1048 14.9986 34.6271 14.9986ZM26.7459 39.4938H11.8729C11.3953 39.4938 11 39.8891 11 40.3666C11 40.8524 11.3953 41.2394 11.8729 41.2394H26.7459C27.2318 41.2394 27.6188 40.8442 27.6188 40.3666C27.627 39.8891 27.2318 39.4938 26.7459 39.4938ZM25.873 11.4993H20.6189C20.1329 11.4993 19.7459 11.8945 19.7459 12.3721C19.7459 12.8497 20.1412 13.2448 20.6189 13.2448H25.873C26.3588 13.2448 26.7459 12.8497 26.7459 12.3721C26.7459 11.8945 26.3588 11.4993 25.873 11.4993ZM29.4141 11.4993H29.3976C28.9118 11.4993 28.5329 11.8945 28.5329 12.3721C28.5329 12.8497 28.9365 13.2448 29.4141 13.2448C29.8918 13.2448 30.2871 12.8497 30.2871 12.3721C30.2871 11.8945 29.8918 11.4993 29.4141 11.4993ZM50.4965 31.1531L43.9164 23.9239C42.6153 22.6231 40.4906 22.623 39.1811 23.9321C38.7611 24.3521 38.4812 24.8461 38.3329 25.3813C37.0235 24.3768 35.1377 24.4755 33.927 25.6859C33.5153 26.1058 33.2271 26.5999 33.0788 27.1351C31.7694 26.1305 29.8835 26.2293 28.6811 27.4397C28.2694 27.8514 27.9894 28.3372 27.8411 28.8477L24.7365 25.7436C23.4353 24.4426 21.3106 24.4426 20.0012 25.7518C18.7 27.0527 18.7 29.1771 20.0012 30.4779L31.9176 42.4003L24.8518 43.5119C22.9412 43.7836 21.5 45.4468 21.5 47.3735C21.5 48.8226 22.6776 50 24.1271 50H40.6306C43.2 50 45.6212 48.9955 47.4329 47.1841L50.1835 44.434C52.0036 42.6226 53 40.2019 53 37.6412C53 35.2288 52.1106 32.9316 50.4965 31.1531ZM48.9482 43.1825L46.1976 45.9326C44.7071 47.4228 42.7306 48.238 40.6306 48.238H24.1271C23.6411 48.238 23.2541 47.8428 23.2541 47.3653C23.2541 46.303 24.0447 45.3892 25.1153 45.2327L33.8941 43.8577C34.2235 43.8082 34.4871 43.5777 34.5941 43.2648C34.693 42.952 34.6106 42.6062 34.38 42.3756L21.2364 29.2429C20.6189 28.6253 20.6189 27.6127 21.2447 26.9787C21.5577 26.6658 21.9611 26.5093 22.3729 26.5093C22.7847 26.5093 23.1882 26.6658 23.5012 26.9787L32.2553 35.7311C32.593 36.0686 33.1529 36.0686 33.4906 35.7311C33.6635 35.5581 33.7459 35.3358 33.7459 35.1135C33.7459 34.8912 33.6635 34.6689 33.4906 34.496L29.9165 30.9225C29.2988 30.3051 29.2988 29.2923 29.9247 28.6583C30.5423 28.0408 31.5553 28.0408 32.173 28.6583L35.7471 32.2317C36.0847 32.5693 36.6447 32.5693 36.9823 32.2317C37.1553 32.0588 37.2377 31.8365 37.2377 31.6142C37.2377 31.3919 37.1553 31.1696 36.9906 31.0049L35.1623 29.1771C34.5447 28.5595 34.5447 27.5468 35.1706 26.9128C35.7882 26.2952 36.8012 26.2952 37.4189 26.9128L39.2471 28.7407C39.5929 29.0618 40.1282 29.0618 40.4659 28.7241C40.8035 28.3866 40.8035 27.8267 40.4659 27.4891L40.3918 27.415C40.0871 27.1104 39.9223 26.7152 39.9223 26.287C39.9223 25.8589 40.0871 25.4636 40.4 25.1508C41.0177 24.5332 42.0306 24.5332 42.6235 25.1179L49.1789 32.3141C50.4965 33.7632 51.2212 35.6405 51.2212 37.6083C51.2541 39.7244 50.4306 41.7004 48.9482 43.1825Z" fill="url(#paint0_linear_5344_1677)"/>
<defs>
<linearGradient id="paint0_linear_5344_1677" x1="19.6625" y1="50" x2="56.499" y2="38.4714" gradientUnits="userSpaceOnUse">
<stop stop-color="#FE5000"/>
<stop offset="1" stop-color="#FCA92A"/>
</linearGradient>
</defs>
</svg>
