<svg width="56" height="56" viewBox="0 0 56 56" fill="none" xmlns="http://www.w3.org/2000/svg">
<path d="M31.6356 16.5632V13.4492C31.6356 7.47089 7.99863 7.47089 7.99863 13.4492V31.6632C7.99863 34.0134 11.6774 35.4784 16.103 35.9992C14.4843 36.7252 13.4533 37.7059 13.4533 38.9488V44.4131C13.4533 47.4023 19.3989 48.9666 25.2719 48.9666C31.1448 48.9666 37.0904 47.4022 37.0904 44.4131V41.6659C42.652 41.513 47.9998 39.9623 47.9998 37.1275V20.7348C47.9997 16.9607 38.5822 15.5721 31.6356 16.5632ZM19.8172 10.7837C26.2875 10.7837 29.8174 12.585 29.8174 13.511C29.8174 14.437 26.2875 16.2384 19.8172 16.2384C13.3469 16.2384 9.81692 14.437 9.81692 13.511C9.81683 12.5851 13.3468 10.7837 19.8172 10.7837ZM9.81683 16.0409C12.0228 17.3686 15.9304 18.0567 19.8171 18.0567C23.7038 18.0567 27.6114 17.3686 29.8174 16.0409V16.9443C26.658 17.645 24.3627 18.9246 24.3627 20.784V21.3219C22.9379 21.5505 21.4 21.6931 19.8172 21.6931C13.3468 21.6931 9.81692 19.8917 9.81692 18.9657V16.0409H9.81683ZM26.1809 34.2232C26.3539 34.3273 26.5339 34.4284 26.7272 34.5246C26.5452 34.517 26.3636 34.5096 26.1809 34.5048V34.2232ZM9.81683 21.4956C12.0228 22.8233 15.9304 23.5114 19.8171 23.5114C21.3908 23.5114 22.9204 23.3701 24.3626 23.1546V27.6857C22.9379 27.9143 21.3999 28.0569 19.8171 28.0569C13.3467 28.0569 9.81683 26.2556 9.81683 25.3296V21.4956ZM9.81683 31.6934V27.8594C12.0228 29.1871 15.9304 29.8752 19.8171 29.8752C21.3908 29.8752 22.9204 29.7339 24.3626 29.5184V34.0496C22.9379 34.2782 21.3999 34.4208 19.8171 34.4208C13.3468 34.4208 9.81683 32.6193 9.81683 31.6934ZM35.2721 44.421C35.2721 45.347 31.7422 47.1484 25.2719 47.1484C18.8016 47.1484 15.2715 45.347 15.2715 44.421V41.4961C17.4775 42.8238 21.3851 43.5119 25.2718 43.5119C28.9922 43.5119 32.7368 42.883 34.9855 41.665C35.0799 41.6686 35.1772 41.669 35.272 41.6719V44.421H35.2721ZM25.2719 41.6937C18.8015 41.6937 15.2716 39.8923 15.2716 38.9663C15.2716 38.0403 18.8016 36.239 25.2719 36.239C31.7422 36.239 35.2721 38.0403 35.2721 38.9663C35.2721 39.8923 31.7422 41.6937 25.2719 41.6937ZM46.1815 37.1481C46.1815 38.028 42.9602 39.6801 37.0903 39.8439V38.9663C37.0903 37.8305 36.2308 36.9124 34.8443 36.2089C35.2888 36.2269 35.7347 36.239 36.1812 36.239C40.0679 36.239 43.9755 35.5509 46.1814 34.2232V37.1481H46.1815ZM46.1815 31.6934C46.1815 32.6194 42.6516 34.4208 36.1813 34.4208C29.711 34.4208 26.181 32.6194 26.181 31.6934V28.7685C28.3869 30.0962 32.2945 30.7843 36.1813 30.7843C40.068 30.7843 43.9756 30.0962 46.1815 28.7685V31.6934ZM46.1815 26.2387C46.1815 27.1647 42.6516 28.9661 36.1813 28.9661C29.711 28.9661 26.181 27.1647 26.181 26.2387V23.3138C28.3869 24.6415 32.2945 25.3296 36.1813 25.3296C40.068 25.3296 43.9756 24.6415 46.1815 23.3138V26.2387ZM36.1813 23.5114C29.7109 23.5114 26.181 21.71 26.181 20.784C26.181 19.858 29.711 18.0567 36.1813 18.0567C42.6516 18.0567 46.1815 19.858 46.1815 20.784C46.1815 21.71 42.6516 23.5114 36.1813 23.5114Z" fill="url(#paint0_linear_5344_1662)"/>
<defs>
<linearGradient id="paint0_linear_5344_1662" x1="16.2489" y1="48.9666" x2="51.3323" y2="37.9866" gradientUnits="userSpaceOnUse">
<stop stop-color="#FE5000"/>
<stop offset="1" stop-color="#FCA92A"/>
</linearGradient>
</defs>
</svg>
