<svg width="56" height="56" viewBox="0 0 56 56" fill="none" xmlns="http://www.w3.org/2000/svg">
<path fill-rule="evenodd" clip-rule="evenodd" d="M35.3046 2.7813C35.0046 2.5729 34.6066 2.5729 34.3065 2.7813L16.8065 14.9341C16.571 15.0976 16.4306 15.3661 16.4306 15.6528V18.6667H15.3611C14.8779 18.6667 14.4861 19.0584 14.4861 19.5417V22.9444C14.4861 23.4277 14.8779 23.8194 15.3611 23.8194H17.8889V25.9145C16.7877 25.6259 15.6318 25.4722 14.4401 25.4722C6.94829 25.4722 0.875 31.5455 0.875 39.0373C0.875 46.5291 6.94829 52.6024 14.4401 52.6024C21.9319 52.6024 28.0052 46.5291 28.0052 39.0373C28.0052 35.8042 26.8741 32.8353 24.9861 30.5047V23.8194H31.5V38.9861C31.5 39.4694 31.8918 39.8611 32.375 39.8611H37.7222H45.5H50.3611H51.4306V41.5139H30.9167C30.4334 41.5139 30.0417 41.9056 30.0417 42.3889C30.0417 42.8721 30.4334 43.2639 30.9167 43.2639H52.3056H53.375V45.4028H28C27.5168 45.4028 27.125 45.7945 27.125 46.2778C27.125 46.761 27.5168 47.1528 28 47.1528H54.25C54.7332 47.1528 55.125 46.761 55.125 46.2778V42.3889C55.125 41.9056 54.7332 41.5139 54.25 41.5139H53.1806V38.9861C53.1806 38.5029 52.7888 38.1111 52.3056 38.1111H51.2361V23.8194H54.25C54.7332 23.8194 55.125 23.4277 55.125 22.9444V19.5417C55.125 19.0584 54.7332 18.6667 54.25 18.6667H53.1806V15.6528C53.1806 15.3661 53.0401 15.0976 52.8046 14.9341L35.3046 2.7813ZM51.4306 16.1104V18.6667H18.1806V16.1104L34.8056 4.56529L51.4306 16.1104ZM19.6389 26.5041V23.8194H23.2361V28.7102C22.1674 27.7991 20.9555 27.0509 19.6389 26.5041ZM33.25 38.1111V23.8194H36.8472V38.1111H33.25ZM38.5972 38.1111V23.8194H44.625V38.1111H38.5972ZM46.375 38.1111V23.8194H49.4861V38.1111H46.375ZM16.2361 22.0694V20.4167H17.3056H52.3056H53.375V22.0694H50.3611H45.5H37.7222H32.375H24.1111H18.7639H16.2361ZM2.625 39.0373C2.625 32.512 7.91479 27.2222 14.4401 27.2222C20.9654 27.2222 26.2552 32.512 26.2552 39.0373C26.2552 45.5626 20.9654 50.8524 14.4401 50.8524C7.91479 50.8524 2.625 45.5626 2.625 39.0373ZM8.4327 38.5047C9.01936 39.0274 9.7767 39.2887 10.7047 39.2887C11.622 39.2887 12.374 39.0274 12.9607 38.5047C13.558 37.9714 13.8567 37.2781 13.8567 36.4247C13.8567 35.5821 13.558 34.8941 12.9607 34.3607C12.374 33.8381 11.622 33.5767 10.7047 33.5767C9.7767 33.5767 9.01936 33.8381 8.4327 34.3607C7.84603 34.8834 7.5527 35.5714 7.5527 36.4247C7.5527 37.2887 7.84603 37.9821 8.4327 38.5047ZM9.6807 37.4327C9.41403 37.1767 9.2807 36.8407 9.2807 36.4247C9.2807 36.0194 9.41403 35.6941 9.6807 35.4487C9.94736 35.1927 10.2887 35.0647 10.7047 35.0647C11.1207 35.0647 11.462 35.1927 11.7287 35.4487C12.006 35.6941 12.1447 36.0194 12.1447 36.4247C12.1447 36.8407 12.0114 37.1767 11.7447 37.4327C11.478 37.6781 11.1314 37.8007 10.7047 37.8007C10.2887 37.8007 9.94736 37.6781 9.6807 37.4327ZM15.5047 44.2967C16.0914 44.8194 16.8487 45.0807 17.7767 45.0807C18.694 45.0807 19.446 44.8194 20.0327 44.2967C20.63 43.7634 20.9287 43.0701 20.9287 42.2167C20.9287 41.3741 20.63 40.6861 20.0327 40.1527C19.446 39.6301 18.694 39.3687 17.7767 39.3687C16.8487 39.3687 16.0914 39.6301 15.5047 40.1527C14.918 40.6754 14.6247 41.3634 14.6247 42.2167C14.6247 43.0807 14.918 43.7741 15.5047 44.2967ZM16.7527 43.2247C16.486 42.9687 16.3527 42.6327 16.3527 42.2167C16.3527 41.8114 16.486 41.4861 16.7527 41.2407C17.0194 40.9847 17.3607 40.8567 17.7767 40.8567C18.1927 40.8567 18.534 40.9847 18.8007 41.2407C19.078 41.4861 19.2167 41.8114 19.2167 42.2167C19.2167 42.6327 19.0834 42.9687 18.8167 43.2247C18.55 43.4701 18.2034 43.5927 17.7767 43.5927C17.3607 43.5927 17.0194 43.4701 16.7527 43.2247ZM9.6807 44.3607L10.7367 45.0967L18.8007 34.3287L17.7607 33.5447L9.6807 44.3607Z" fill="url(#paint0_linear_5344_1669)"/>
<defs>
<linearGradient id="paint0_linear_5344_1669" x1="0.875" y1="52.6024" x2="50.6847" y2="-1.46559" gradientUnits="userSpaceOnUse">
<stop stop-color="#FE5000"/>
<stop offset="1" stop-color="#FE9800"/>
</linearGradient>
</defs>
</svg>
