<svg width="44" height="44" viewBox="0 0 44 44" fill="none" xmlns="http://www.w3.org/2000/svg">
<path d="M22.6231 3H11.5435C8.48865 3 6 5.48814 6 8.54247V35.4575C6 38.5044 8.48865 40.9926 11.5435 40.9926H13.1231C13.5628 40.9926 13.913 40.6349 13.913 40.2029C13.913 39.7634 13.5553 39.4132 13.1231 39.4132H11.5435C9.36041 39.4132 7.58702 37.6403 7.58702 35.4575V8.54247C7.58702 6.35974 9.36041 4.58675 11.5435 4.58675H22.6231C24.8063 4.58675 26.5796 6.35974 26.5796 8.54247V16.4612C26.5796 16.9008 26.9372 17.251 27.3694 17.251C27.8015 17.251 28.1592 16.8933 28.1592 16.4612V8.54247C28.1667 5.48814 25.678 3 22.6231 3ZM27.3769 9.3321H6.7898C6.35763 9.3321 6 9.68964 6 10.1217C6 10.5538 6.35763 10.9114 6.7898 10.9114H27.3694C27.8091 10.9114 28.1592 10.5538 28.1592 10.1217C28.1592 9.68964 27.8091 9.3321 27.3769 9.3321ZM20.2463 31.4944H6.7898C6.35763 31.4944 6 31.852 6 32.2841C6 32.7236 6.35763 33.0737 6.7898 33.0737H20.2463C20.6859 33.0737 21.0361 32.7162 21.0361 32.2841C21.0435 31.852 20.6859 31.4944 20.2463 31.4944ZM19.4565 6.16605H14.7028C14.2631 6.16605 13.913 6.52364 13.913 6.95571C13.913 7.38779 14.2706 7.74534 14.7028 7.74534H19.4565C19.8961 7.74534 20.2463 7.38779 20.2463 6.95571C20.2463 6.52364 19.8961 6.16605 19.4565 6.16605ZM22.6604 6.16605H22.6455C22.2059 6.16605 21.8631 6.52364 21.8631 6.95571C21.8631 7.38779 22.2282 7.74534 22.6604 7.74534C23.0926 7.74534 23.4502 7.38779 23.4502 6.95571C23.4502 6.52364 23.0926 6.16605 22.6604 6.16605ZM41.7349 23.948L35.7815 17.4074C34.6043 16.2304 32.682 16.2303 31.4972 17.4148C31.1172 17.7948 30.8639 18.2417 30.7298 18.726C29.5451 17.8171 27.8389 17.9064 26.7435 19.0015C26.371 19.3815 26.1102 19.8285 25.9761 20.3127C24.7913 19.4038 23.0851 19.4932 21.9972 20.5883C21.6247 20.9608 21.3713 21.4003 21.2372 21.8622L18.4282 19.0537C17.251 17.8767 15.3287 17.8767 14.1439 19.0611C12.9667 20.2382 12.9667 22.1602 14.1439 23.3372L24.9255 34.1241L18.5326 35.1298C16.8039 35.3757 15.5 36.8805 15.5 38.6236C15.5 39.9347 16.5655 41 17.8769 41H32.8087C35.1333 41 37.3239 40.0912 38.9631 38.4523L41.4518 35.9641C43.0984 34.3252 44 32.135 44 29.8182C44 27.6356 43.1953 25.5571 41.7349 23.948ZM40.3341 34.8318L37.8455 37.32C36.4969 38.6683 34.7087 39.4058 32.8087 39.4058H17.8769C17.4372 39.4058 17.087 39.0483 17.087 38.6162C17.087 37.6551 17.8024 36.8283 18.771 36.6867L26.7137 35.4427C27.0118 35.3979 27.2502 35.1894 27.347 34.9063C27.4365 34.6233 27.362 34.3104 27.1533 34.1017L15.2615 22.2198C14.7028 21.661 14.7028 20.7448 15.269 20.1712C15.5522 19.8881 15.9172 19.7465 16.2898 19.7465C16.6624 19.7465 17.0274 19.8881 17.3106 20.1712L25.231 28.09C25.5365 28.3954 26.0431 28.3954 26.3487 28.09C26.5051 27.9335 26.5796 27.7324 26.5796 27.5312C26.5796 27.3301 26.5051 27.129 26.3487 26.9726L23.1149 23.7395C22.5561 23.1808 22.5561 22.2644 23.1224 21.6908C23.6811 21.1321 24.5976 21.1321 25.1565 21.6908L28.3902 24.9239C28.6957 25.2294 29.2024 25.2294 29.5078 24.9239C29.6643 24.7675 29.7389 24.5664 29.7389 24.3652C29.7389 24.1641 29.6643 23.963 29.5153 23.814L27.8611 22.1602C27.3024 21.6014 27.3024 20.6852 27.8687 20.1116C28.4274 19.5528 29.3439 19.5528 29.9028 20.1116L31.5569 21.7654C31.8698 22.0559 32.3541 22.0559 32.6596 21.7504C32.9651 21.445 32.9651 20.9384 32.6596 20.633L32.5926 20.5659C32.3169 20.2903 32.1678 19.9328 32.1678 19.5454C32.1678 19.158 32.3169 18.8004 32.6 18.5174C33.1589 17.9586 34.0753 17.9586 34.6118 18.4876L40.5428 24.9985C41.7349 26.3095 42.3906 28.0081 42.3906 29.7884C42.4204 31.703 41.6753 33.4909 40.3341 34.8318Z" fill="url(#paint0_linear_9723_1130)"/>
<defs>
<linearGradient id="paint0_linear_9723_1130" x1="13.8375" y1="41" x2="47.1658" y2="30.5694" gradientUnits="userSpaceOnUse">
<stop stop-color="#FE5000"/>
<stop offset="1" stop-color="#FCA92A"/>
</linearGradient>
</defs>
</svg>
