<svg width="44" height="44" viewBox="0 0 44 44" fill="none" xmlns="http://www.w3.org/2000/svg">
<path fill-rule="evenodd" clip-rule="evenodd" d="M8 1C5.23858 1 3 3.23858 3 6V38C3 40.7614 5.23858 43 8 43H23C25.7614 43 28 40.7614 28 38V32H26V38C26 39.6569 24.6569 41 23 41H8C6.34315 41 5 39.6569 5 38V6C5 4.34315 6.34315 3 8 3H23C24.6569 3 26 4.34315 26 6V13H28V6C28 3.23858 25.7614 1 23 1H8ZM13.6465 6H17.3541C17.8771 6 18.3013 6.4239 18.3013 6.94726C18.3013 7.47062 17.8771 7.89451 17.3541 7.89451H13.6465C13.1231 7.89451 12.6992 7.47062 12.6992 6.94726C12.6992 6.4239 13.1231 6 13.6465 6Z" fill="url(#paint0_linear_9723_1139)"/>
<path fill-rule="evenodd" clip-rule="evenodd" d="M17 13.9H41C41.6075 13.9 42.1 14.3925 42.1 15V29.8845C42.1 30.492 41.6075 30.9845 41 30.9845H17C16.3925 30.9845 15.9 30.492 15.9 29.8845V15C15.9 14.3925 16.3925 13.9 17 13.9ZM14 15C14 13.3431 15.3431 12 17 12H41C42.6569 12 44 13.3431 44 15V29.8845C44 31.5413 42.6569 32.8845 41 32.8845H17C15.3431 32.8845 14 31.5413 14 29.8845V15ZM19.2127 25.4305C18.688 25.4305 18.2627 25.8559 18.2627 26.3805C18.2627 26.9052 18.688 27.3305 19.2127 27.3305H21.5348C22.0595 27.3305 22.4848 26.9052 22.4848 26.3805C22.4848 25.8559 22.0595 25.4305 21.5348 25.4305H19.2127ZM23.2295 26.3805C23.2295 25.8559 23.6548 25.4305 24.1795 25.4305H26.5016C27.0263 25.4305 27.4516 25.8559 27.4516 26.3805C27.4516 26.9052 27.0263 27.3305 26.5016 27.3305H24.1795C23.6548 27.3305 23.2295 26.9052 23.2295 26.3805ZM29.1463 25.4305C28.6216 25.4305 28.1963 25.8559 28.1963 26.3805C28.1963 26.9052 28.6216 27.3305 29.1463 27.3305H31.4684C31.9931 27.3305 32.4184 26.9052 32.4184 26.3805C32.4184 25.8559 31.9931 25.4305 31.4684 25.4305H29.1463ZM33.1631 26.3805C33.1631 25.8559 33.5884 25.4305 34.1131 25.4305H36.4352C36.9599 25.4305 37.3852 25.8559 37.3852 26.3805C37.3852 26.9052 36.9599 27.3305 36.4352 27.3305H34.1131C33.5884 27.3305 33.1631 26.9052 33.1631 26.3805ZM38.117 19.1828C38.117 19.9337 37.5084 20.5423 36.7575 20.5423C36.0067 20.5423 35.398 19.9337 35.398 19.1828C35.398 18.432 36.0067 17.8233 36.7575 17.8233C37.5084 17.8233 38.117 18.432 38.117 19.1828ZM40.017 19.1828C40.017 20.983 38.5577 22.4423 36.7575 22.4423C34.9574 22.4423 33.498 20.983 33.498 19.1828C33.498 17.3827 34.9574 15.9233 36.7575 15.9233C38.5577 15.9233 40.017 17.3827 40.017 19.1828Z" fill="url(#paint1_linear_9723_1139)"/>
<defs>
<linearGradient id="paint0_linear_9723_1139" x1="9.01902" y1="41.95" x2="34.1392" y2="42.6906" gradientUnits="userSpaceOnUse">
<stop stop-color="#FE5000"/>
<stop offset="1" stop-color="#FCA92A"/>
</linearGradient>
<linearGradient id="paint1_linear_9723_1139" x1="4.42285" y1="35.5044" x2="46.0385" y2="30.4606" gradientUnits="userSpaceOnUse">
<stop stop-color="#FE5000"/>
<stop offset="1" stop-color="#FCA92A"/>
</linearGradient>
</defs>
</svg>
