<svg width="44" height="44" viewBox="0 0 44 44" fill="none" xmlns="http://www.w3.org/2000/svg">
<path fill-rule="evenodd" clip-rule="evenodd" d="M15.7019 2.29812L15.069 2.2356L14.8654 2.83819C11.9414 11.4931 13.1204 16.9453 16.0973 20.1509C19.0122 23.2898 23.4303 24.0227 26.5195 23.7537C30.1961 23.7481 32.9763 22.8899 35.0144 21.4368C37.0621 19.9769 38.2912 17.9658 38.9447 15.7894C40.2389 11.4796 39.306 6.44494 37.9811 3.29509L37.7684 2.78949L37.2202 2.80562C32.2897 2.95063 28.2579 5.33458 26.362 6.90302C23.3468 4.23299 19.1581 2.63952 15.7019 2.29812ZM34.0855 20.134C32.6473 21.1595 30.6917 21.8878 28.0582 22.0942C29.8461 19.3038 30.5232 16.6949 30.3414 14.3171C30.1542 11.8677 29.0626 9.75914 27.5062 8.03387C29.16 6.70376 32.5665 4.71183 36.7125 4.43184C37.8265 7.37069 38.5011 11.7035 37.4123 15.3292C36.8415 17.23 35.7938 18.9161 34.0855 20.134ZM28.7461 14.4391C28.8997 16.4475 28.3251 18.7815 26.5896 21.4181L20.8735 10.3785C20.6703 9.98613 20.1876 9.83276 19.7952 10.0359C19.4029 10.2391 19.2495 10.7218 19.4526 11.1142L25.1953 22.2049C22.5612 22.1815 19.3958 21.3515 17.2697 19.0621C14.9142 16.5256 13.6195 11.9524 16.1781 3.96719C19.4144 4.43054 23.2162 6.03548 25.7895 8.55527C27.4549 10.186 28.5722 12.1643 28.7461 14.4391ZM12.353 43.6211H5.50313L5.5032 43.6212C4.61674 43.6212 3.89132 42.8958 3.8916 41.9286V26.2141C3.8916 25.3277 4.61674 24.6025 5.5032 24.6025H12.2727C13.1591 24.6025 13.8843 25.3277 13.8843 26.2141V27.5037C16.0163 27.7405 17.5296 28.7512 18.0443 29.095C18.0548 29.1021 18.065 29.1088 18.0747 29.1153C19.2711 30.0128 20.6759 30.0079 22.2245 30.0026C22.3446 30.0022 22.4656 30.0017 22.5875 30.0017H26.2945C28.3898 30.0017 30.1628 31.7747 30.1628 33.9504V34.5145C30.8073 34.4339 31.3713 34.2725 31.7744 34.1115L37.9795 31.8551C39.43 31.13 41.2837 31.6134 42.0895 33.064C42.9759 34.5952 42.4118 36.3682 40.8806 37.174L33.789 40.881C32.2578 41.6869 30.5655 42.0899 28.7925 42.0899H16.785C15.8182 42.0899 14.851 41.9289 13.9646 41.6065V42.0095C13.9646 42.896 13.2394 43.6211 12.353 43.6211ZM17.19 30.513C16.6688 30.1629 15.5709 29.4254 13.9648 29.196L13.965 39.8333C14.8515 40.2363 15.8184 40.478 16.7855 40.478H28.8736C30.3241 40.478 31.8551 40.1556 33.1446 39.4305L40.2362 35.7235C40.881 35.401 41.2034 34.5146 40.8003 33.8698C40.3972 33.1447 39.5108 32.9027 38.7856 33.3057C38.7856 33.3864 38.705 33.3864 38.705 33.3864L32.4192 35.7234C30.2433 36.5292 25.6498 36.8516 23.7158 36.8516C23.2324 36.8516 22.91 36.5292 22.91 36.0458C22.91 35.5624 23.2324 35.24 23.7158 35.24C25.0053 35.24 26.9393 35.0787 28.7123 34.837V34.0312C28.7123 32.7417 27.6648 31.6941 26.4559 31.6941H22.7489C20.6536 31.7748 18.9613 31.6941 17.269 30.5659C17.2443 30.5495 17.218 30.5318 17.19 30.513ZM12.353 26.2142H5.50313V41.9287H12.353V26.2142Z" fill="url(#paint0_linear_9723_1160)"/>
<defs>
<linearGradient id="paint0_linear_9723_1160" x1="11.8568" y1="43.6212" x2="46.1231" y2="33.6138" gradientUnits="userSpaceOnUse">
<stop stop-color="#FE5000"/>
<stop offset="1" stop-color="#FCA92A"/>
</linearGradient>
</defs>
</svg>
