<svg width="44" height="44" viewBox="0 0 44 44" fill="none" xmlns="http://www.w3.org/2000/svg">
<path d="M6.67551 37.147H28.7327V39.3493C28.7346 40.8127 29.9305 41.9985 31.4059 42H39.3267C40.8026 41.9985 41.9985 40.8127 42 39.3493V33.6879C41.9988 32.5789 41.3023 31.5876 40.2534 31.2018V27.9571C40.255 26.7683 39.8198 25.6194 39.0297 24.7251V15.9367C39.0266 13.3773 36.9346 11.3034 34.3534 11.3007H34.1457V11.1841C34.143 8.62474 32.0514 6.55046 29.4702 6.54739H21.9961C21.911 6.54739 21.8302 6.51211 21.773 6.44998L19.061 3.50864C18.175 2.54877 16.9226 2.00115 15.61 2H6.67551C4.09429 2.00307 2.00309 4.07658 2 6.63559V32.511C2.00309 35.07 4.09429 37.1439 6.67551 37.147ZM40.6139 39.3493C40.6131 40.0542 40.0372 40.6248 39.3267 40.6256H31.4059C30.6955 40.6248 30.1196 40.0542 30.1188 39.3493V33.6879C30.1196 32.9835 30.6955 32.4128 31.4059 32.4117H39.3267C40.0372 32.4128 40.6131 32.9835 40.6139 33.6879V39.3493ZM38.8673 27.9571V31.0373H31.8658V27.9571C31.8658 26.0178 33.436 24.4397 35.3663 24.4397C37.2966 24.4397 38.8673 26.0178 38.8673 27.9571ZM34.3534 12.6751C36.1696 12.677 37.6412 14.1358 37.6436 15.9367V23.631C36.9431 23.259 36.1607 23.0649 35.3663 23.0653C32.6718 23.0653 30.4797 25.2596 30.4797 27.9571V31.2018C29.4308 31.5876 28.7342 32.5789 28.7327 33.6879V35.7726H10.4139C11.283 34.9059 11.771 33.7336 11.7703 32.511V15.9367C11.7722 14.1362 13.2434 12.6774 15.0593 12.6751H34.3534ZM3.38614 6.63559C3.38846 4.8355 4.85968 3.37634 6.67551 3.37442H15.61C16.5336 3.37518 17.4142 3.76059 18.0381 4.43591L20.7485 7.37572C21.0683 7.72354 21.5212 7.92181 21.9961 7.92181H29.4702C31.2864 7.92411 32.7577 9.38328 32.7592 11.1841V11.3007H15.0596C12.4788 11.3038 10.3872 13.3777 10.3845 15.9367V32.511C10.3822 34.3119 8.91019 35.7706 7.09437 35.7726H6.67551C4.85968 35.7703 3.38807 34.3115 3.38614 32.511V6.63559Z" fill="url(#paint0_linear_9723_1151)"/>
<defs>
<linearGradient id="paint0_linear_9723_1151" x1="10.25" y1="42" x2="45.3324" y2="31.0204" gradientUnits="userSpaceOnUse">
<stop stop-color="#FE5000"/>
<stop offset="1" stop-color="#FCA92A"/>
</linearGradient>
</defs>
</svg>
