<svg width="65" height="18" viewBox="0 0 65 18" fill="none" xmlns="http://www.w3.org/2000/svg">
<g clip-path="url(#clip0_9723_1213)">
<path d="M35.668 1.90298L31.625 10.6343H31.2207V0H25.4707V18H30.3447C31.625 18 32.793 17.2612 33.3321 16.097L37.375 7.36567H37.7793V18H43.5294V0H38.6329C37.3526 0 36.2071 0.738806 35.668 1.90298Z" fill="#20AA4D"/>
<path d="M14.1055 2.37313L11.7022 10.6567H11.2979L8.89456 2.37313C8.49026 0.962687 7.20999 0 5.75002 0H0V18H5.75002V7.36567H6.15432L9.43363 18H13.544L16.8233 7.36567H17.2276V18H22.9776V0H17.2501C15.7901 0 14.5098 0.962687 14.1055 2.37313Z" fill="#20AA4D"/>
<path d="M45.9775 8.19402V18.0224H51.7051V12.2686H57.8819C60.4873 12.2686 62.8233 10.6343 63.6768 8.17163L45.9775 8.19402Z" fill="#20AA4D"/>
<path d="M57.9043 0H45.1689C45.9551 4.27612 49.7061 7.36567 54.041 7.36567H63.9239C64.5977 4.02985 62.4415 0.80597 59.1172 0.11194C58.7129 0.0447761 58.3086 0 57.9043 0Z" fill="url(#paint0_linear_9723_1213)"/>
</g>
<defs>
<linearGradient id="paint0_linear_9723_1213" x1="45.1645" y1="3.68396" x2="64.0533" y2="3.68396" gradientUnits="userSpaceOnUse">
<stop offset="0.01" stop-color="#00A7E3"/>
<stop offset="0.34" stop-color="#009EDC"/>
<stop offset="0.87" stop-color="#0085C9"/>
<stop offset="1" stop-color="#007EC4"/>
</linearGradient>
<clipPath id="clip0_9723_1213">
<rect width="64.0588" height="18" fill="white"/>
</clipPath>
</defs>
</svg>
