<svg width="65" height="65" viewBox="0 0 65 65" fill="none" xmlns="http://www.w3.org/2000/svg">
<path d="M33.1495 18.7417C35.7495 18.7417 37.9161 16.575 37.9161 13.975C37.9161 11.375 35.7495 9.20837 33.1495 9.20837C30.5495 9.20837 28.3828 11.375 28.3828 13.975C28.3828 16.575 30.5495 18.7417 33.1495 18.7417ZM33.1495 11.05C34.7745 11.05 36.0745 12.35 36.0745 13.975C36.0745 15.6 34.7745 16.9 33.1495 16.9C31.5245 16.9 30.2245 15.6 30.2245 13.975C30.3328 12.35 31.6328 11.05 33.1495 11.05Z" fill="url(#paint0_linear_2545_2886)"/>
<path d="M15.058 55.1417C11.3747 52.4333 8.34134 48.8583 6.28301 44.85C4.11634 40.625 3.03301 35.9667 3.03301 31.2C3.14134 23.4 6.17467 16.0333 11.6997 10.5083C17.333 4.98333 24.6997 1.95 32.4997 1.95C37.158 1.95 41.5997 3.03333 45.7163 5.09167L49.6163 7.475C57.4163 13.1083 62.0747 22.1 62.0747 31.525C62.0747 38.35 59.6913 44.9583 55.2497 50.1583C54.058 51.5667 53.2997 53.1917 52.9747 55.0333C52.6497 56.3333 52.3247 58.5 53.083 60.5583C53.2997 61.2083 53.083 61.9667 52.6497 62.5083C52.108 63.05 51.458 63.1583 50.808 63.05C48.858 62.5083 46.908 61.6417 45.0663 60.5583C43.5497 59.6917 41.8163 59.475 40.083 59.9083C37.5913 60.5583 34.9913 60.8833 32.283 60.8833C27.6247 60.8833 23.0747 59.6917 18.958 57.525L15.058 55.1417ZM17.983 59.15C22.4247 61.425 27.1913 62.725 32.1747 62.725C34.9913 62.725 37.6997 62.4 40.408 61.75C41.5997 61.425 42.8997 61.6417 43.983 62.1833C45.933 63.2667 48.0997 64.2417 50.158 64.8917C50.483 65 50.9163 65 51.2413 65C52.2163 65 53.1913 64.5667 53.9497 63.8083C54.9247 62.8333 55.2497 61.3167 54.8163 59.9083C54.383 58.6083 54.383 57.2 54.708 55.25C54.9247 53.8417 55.683 52.4333 56.5497 51.2417C61.208 45.7167 63.6997 38.5667 63.808 31.3083C63.808 21.2333 58.933 11.5917 50.5913 5.74167L46.583 3.35833C42.1413 1.08333 37.3747 0 32.4997 0C24.158 0 16.358 3.25 10.3997 9.1C4.44134 14.95 1.19134 22.8583 1.08301 31.0917C1.08301 36.075 2.27467 41.1667 4.54967 45.6083C6.71634 49.9417 9.96634 53.7333 13.9747 56.6583L17.983 59.15Z" fill="url(#paint1_linear_2545_2886)"/>
<path d="M23.291 45.9333V46.9083C23.291 48.75 24.8077 50.1583 26.541 50.1583H39.6493C41.491 50.1583 42.8993 48.6417 42.8993 46.9083V45.9333C42.8993 44.0917 41.3827 42.6833 39.6493 42.6833H37.916V24.375C37.916 23.2917 37.3743 22.3167 36.5077 21.6667C35.641 21.0167 34.4493 20.9083 33.4743 21.3417C31.8493 21.9917 30.2243 22.425 28.491 22.5333L25.4577 22.6417C24.266 22.75 23.291 23.725 23.291 24.9167V26.7583C23.291 28.0583 24.266 29.0333 25.566 29.0333H28.166C28.2743 29.0333 28.2743 29.1417 28.2743 29.1417V42.575H26.541C24.8077 42.575 23.291 44.0917 23.291 45.9333ZM29.3577 44.525C29.8993 44.525 30.3327 44.0917 30.3327 43.55V29.25C30.3327 28.1667 29.466 27.1917 28.2743 27.1917H25.6743C25.4577 27.1917 25.3493 26.975 25.3493 26.8667V24.9167C25.3493 24.7 25.4577 24.5917 25.6743 24.5917L28.7077 24.4833C30.6577 24.375 32.4993 23.9417 34.341 23.1833C34.7743 22.9667 35.2077 23.075 35.641 23.2917C36.0743 23.5083 36.291 23.9417 36.291 24.375V43.6583C36.291 44.2 36.7243 44.6333 37.266 44.6333H39.9743C40.7327 44.6333 41.3827 45.2833 41.3827 46.0417V47.0167C41.3827 47.775 40.7327 48.425 39.9743 48.425H26.6493C25.891 48.425 25.241 47.775 25.241 47.0167V46.0417C25.241 45.2833 25.891 44.6333 26.6493 44.6333H29.3577V44.525Z" fill="url(#paint2_linear_2545_2886)"/>
<defs>
<linearGradient id="paint0_linear_2545_2886" x1="29.2398" y1="15.1313" x2="37.6544" y2="12.4979" gradientUnits="userSpaceOnUse">
<stop stop-color="#FE5000"/>
<stop offset="1" stop-color="#FCA92A"/>
</linearGradient>
<linearGradient id="paint1_linear_2545_2886" x1="6.61635" y1="24.8212" x2="56.6112" y2="37.4709" gradientUnits="userSpaceOnUse">
<stop stop-color="#FE5000"/>
<stop offset="1" stop-color="#FCA92A"/>
</linearGradient>
<linearGradient id="paint2_linear_2545_2886" x1="24.8305" y1="38.0771" x2="42.9692" y2="34.2364" gradientUnits="userSpaceOnUse">
<stop stop-color="#FE5000"/>
<stop offset="1" stop-color="#FCA92A"/>
</linearGradient>
</defs>
</svg>
