<svg width="182" height="91" viewBox="0 0 182 91" fill="none" xmlns="http://www.w3.org/2000/svg">
<path d="M161.012 25.5498V47.7977H153.035V32.1912H145.354V47.7977H137.376V25.5482H161.012V25.5498Z" fill="black"/>
<path fill-rule="evenodd" clip-rule="evenodd" d="M120.992 48.5932C128.133 48.5932 133.437 44.2328 133.437 37.6224C133.437 31.2244 129.524 27.0702 122.985 27.0702C119.967 27.0702 117.477 28.1281 115.601 29.9534C116.049 26.1807 119.253 23.4264 122.78 23.4264C123.594 23.4264 129.723 23.4135 129.723 23.4135L133.188 16.8092C133.188 16.8092 125.494 16.9836 121.917 16.9836C113.745 17.1254 108.225 24.523 108.225 33.5077C108.225 43.975 113.608 48.5932 120.992 48.5932ZM121.035 32.92C123.687 32.92 125.525 34.6551 125.525 37.6217C125.525 40.2918 123.892 42.4917 121.035 42.4977C118.303 42.4977 116.465 40.4593 116.465 37.6672C116.465 34.6998 118.303 32.92 121.035 32.92Z" fill="black"/>
<path d="M101.731 40.3494C101.731 40.3494 99.847 41.4308 97.0333 41.6355C93.7984 41.7311 90.9161 39.6965 90.9161 36.0815C90.9161 32.5553 93.4595 30.5343 96.9518 30.5343C99.0931 30.5343 101.926 32.0123 101.926 32.0123C101.926 32.0123 103.999 28.2244 105.072 26.3301C103.106 24.846 100.487 24.0323 97.4414 24.0323C89.754 24.0323 83.7998 29.0237 83.7998 36.0368C83.7998 43.1393 89.3961 48.0146 97.4414 47.8675C99.6902 47.7841 102.793 46.9977 104.683 45.7882L101.731 40.3494Z" fill="black"/>
<path d="M0 19.8077L11.0662 39.5054V51.5204L0.0129456 71.1794L0 19.8077Z" fill="#5B57A2"/>
<path d="M42.4902 32.3376L52.8597 26.0085L74.0813 25.9888L42.4902 45.2611V32.3376Z" fill="#D90751"/>
<path d="M42.4309 19.6916L42.4896 45.7707L31.3975 38.9836V0L42.4317 19.6916H42.4309Z" fill="#FAB718"/>
<path d="M74.0806 25.9888L52.8582 26.0086L42.4309 19.6916L31.3975 0L74.0799 25.9888H74.0806Z" fill="#ED6F26"/>
<path d="M42.4896 71.2887V58.6359L31.3975 51.9777L31.4036 91L42.4896 71.2887Z" fill="#63B22F"/>
<path d="M52.8333 65.0172L11.0654 39.5054L0 19.8077L74.0359 64.9914L52.8325 65.0172H52.8333Z" fill="#1487C9"/>
<path d="M31.4043 91L42.4888 71.2887L52.8323 65.0172L74.035 64.9915L31.4043 91Z" fill="#017F36"/>
<path d="M0.0126953 71.1794L31.488 51.9784L20.9061 45.5129L11.066 51.5204L0.0126953 71.1794Z" fill="#984995"/>
<path d="M90.9184 62.771C90.6747 63.0804 90.3542 63.314 89.9696 63.4717C89.575 63.6317 89.1528 63.7131 88.7268 63.7114C88.3031 63.7171 87.8819 63.6467 87.4833 63.5036C87.1253 63.3741 86.7981 63.1722 86.5223 62.9106C86.2499 62.6485 86.0361 62.3322 85.8948 61.9824C85.7418 61.5991 85.6654 61.1898 85.6701 60.7774C85.6701 60.3679 85.7409 59.9887 85.8879 59.6293C86.0288 59.2691 86.2336 58.9604 86.4903 58.7011C86.7469 58.4364 87.0545 58.2347 87.4003 58.077C87.7528 57.9253 88.1374 57.8434 88.56 57.8434C89.0154 57.8434 89.4381 57.9003 89.8226 58.0133C90.2072 58.127 90.5339 58.3166 90.8027 58.582L90.3351 59.3707C90.109 59.1666 89.8426 59.0116 89.553 58.9157C89.2777 58.8273 88.9902 58.7828 88.7009 58.7837C88.4451 58.7837 88.2014 58.8338 87.9645 58.9286C87.7312 59.0222 87.5179 59.1594 87.3363 59.3328C87.1507 59.5111 87.0044 59.726 86.9068 59.9637C86.7979 60.2094 86.7469 60.4809 86.7469 60.7834C86.7469 61.0928 86.804 61.3704 86.9129 61.61C87.0226 61.8565 87.1695 62.065 87.3553 62.241C87.5411 62.4184 87.7589 62.5504 88.0087 62.6391C88.2592 62.7339 88.522 62.7779 88.8037 62.7779C89.1494 62.7779 89.4639 62.7081 89.7328 62.5754C89.9991 62.4473 90.2385 62.2697 90.4379 62.0521L90.9184 62.771ZM92.2381 63.5787V57.9632H93.2509V62.1469L96.5444 57.9632H97.5572V63.5794H96.5444V59.3957L93.2509 63.5794H92.2381V63.5787ZM104.266 62.771C104.017 63.083 103.69 63.3246 103.318 63.4717C102.923 63.6316 102.501 63.713 102.074 63.7114C101.651 63.717 101.23 63.6466 100.832 63.5036C100.473 63.3741 100.146 63.1722 99.8699 62.9106C99.5976 62.6485 99.3838 62.3322 99.2425 61.9824C99.0894 61.5991 99.0131 61.1898 99.0178 60.7774C99.0178 60.3679 99.0886 59.9887 99.2356 59.6293C99.3772 59.2691 99.5821 58.9604 99.838 58.7011C100.095 58.4364 100.402 58.2347 100.748 58.077C101.113 57.9168 101.509 57.8371 101.908 57.8434C102.363 57.8434 102.786 57.9003 103.17 58.0133C103.555 58.127 103.882 58.3166 104.151 58.582L103.683 59.3707C103.457 59.1664 103.191 59.0115 102.901 58.9157C102.626 58.8274 102.339 58.7829 102.049 58.7837C101.54 58.7854 101.051 58.9819 100.684 59.3328C100.5 59.5124 100.354 59.7269 100.254 59.9637C100.146 60.2094 100.095 60.4809 100.095 60.7834C100.095 61.0928 100.152 61.3704 100.261 61.61C100.37 61.8565 100.517 62.065 100.703 62.241C100.889 62.4184 101.107 62.5504 101.357 62.6391C101.607 62.7271 101.87 62.7779 102.151 62.7779C102.498 62.7779 102.806 62.7081 103.08 62.5754C103.347 62.4473 103.586 62.2697 103.786 62.0521L104.266 62.771ZM104.785 57.9632H109.982V58.9604H107.893V63.5787H106.88V58.9604H104.792V57.9632H104.785Z" fill="black"/>
<path fill-rule="evenodd" clip-rule="evenodd" d="M114.712 63.5225C115.096 63.4027 115.423 63.2192 115.705 62.9674L115.397 62.1848C115.211 62.3494 114.961 62.4882 114.66 62.6019C114.359 62.7157 114.019 62.7718 113.648 62.7718C113.09 62.7718 112.629 62.627 112.263 62.3304C111.898 62.0332 111.7 61.6176 111.655 61.0868H116.038C116.083 60.8911 116.102 60.6705 116.102 60.4119C116.102 60.0266 116.031 59.6801 115.89 59.3646C115.759 59.0583 115.568 58.7813 115.327 58.5502C115.083 58.3212 114.795 58.1433 114.481 58.0269C114.152 57.8998 113.802 57.8355 113.449 57.8373C112.975 57.8373 112.558 57.9192 112.193 58.0709C111.848 58.2154 111.536 58.4279 111.276 58.6958C111.024 58.9621 110.83 59.278 110.707 59.6232C110.571 59.9908 110.504 60.3798 110.508 60.7713C110.508 61.2134 110.585 61.6169 110.726 61.9771C110.863 62.326 111.073 62.6421 111.341 62.9045C111.604 63.1623 111.924 63.3588 112.302 63.4975C112.707 63.6406 113.135 63.711 113.565 63.7053C113.954 63.7029 114.341 63.6415 114.712 63.5233V63.5225ZM112.148 59.2C112.462 58.9164 112.879 58.7777 113.404 58.7777C113.897 58.7777 114.295 58.9104 114.584 59.1758C114.872 59.4404 115.025 59.8067 115.051 60.2731H111.591C111.64 59.8602 111.838 59.4791 112.148 59.2008V59.2Z" fill="black"/>
<path d="M117.479 57.9632H118.402L120.594 60.7463L122.67 57.9632H123.567V63.5794H122.555V59.4844L120.581 62.09H120.542L118.492 59.4837V63.5787H117.479V57.9632Z" fill="black"/>
<path fill-rule="evenodd" clip-rule="evenodd" d="M126.323 57.9822C126.015 58.0621 125.722 58.1874 125.451 58.3537L125.72 59.15C125.951 59.0362 126.182 58.9415 126.412 58.8596C126.643 58.7769 126.938 58.739 127.29 58.739C127.572 58.739 127.797 58.7837 127.97 58.8717C128.143 58.9536 128.27 59.0802 128.36 59.2319C128.45 59.3836 128.508 59.5724 128.54 59.7931C128.572 60.0137 128.585 60.2534 128.585 60.5127C128.378 60.3689 128.141 60.2719 127.893 60.2283C127.652 60.1807 127.408 60.1553 127.162 60.1525C126.861 60.1525 126.579 60.1973 126.31 60.2723C126.041 60.3482 125.81 60.4619 125.624 60.6136C125.435 60.765 125.281 60.9567 125.176 61.1747C125.063 61.4135 125.006 61.6746 125.009 61.9384C125.009 62.4874 125.17 62.9166 125.489 63.22C125.81 63.5225 126.233 63.6735 126.758 63.6735C127.233 63.6735 127.611 63.5916 127.899 63.4278C128.187 63.2632 128.418 63.0744 128.585 62.8598V63.5855H129.533V60.1404C129.533 59.4078 129.373 58.8406 129.046 58.4425C128.726 58.0451 128.155 57.8434 127.348 57.8434C126.989 57.8434 126.649 57.8934 126.323 57.9822ZM128.015 62.5322C127.785 62.696 127.483 62.771 127.111 62.771C126.785 62.771 126.528 62.6891 126.349 62.5314C126.169 62.3676 126.08 62.153 126.08 61.8876C126.08 61.7306 126.112 61.5979 126.182 61.4781C126.253 61.3583 126.349 61.2635 126.458 61.1876C126.577 61.1083 126.709 61.0506 126.849 61.017C126.996 60.9791 127.143 60.9601 127.297 60.9601C127.798 60.9601 128.226 61.08 128.579 61.3325V62.0453C128.413 62.2307 128.223 62.3941 128.015 62.5314V62.5322ZM138.473 55.9877C138.678 55.8937 138.87 55.736 139.05 55.5024L138.498 54.7137C138.357 54.9033 138.197 55.0353 138.018 55.105C137.827 55.1792 137.63 55.2341 137.428 55.2688L137.236 55.303C137.07 55.3318 136.891 55.3636 136.698 55.3955C136.389 55.4524 136.088 55.5456 135.801 55.673C135.346 55.8687 134.981 56.1333 134.705 56.4678C134.43 56.8022 134.212 57.1806 134.064 57.5977C133.914 58.0202 133.813 58.4583 133.763 58.9035C133.711 59.3585 133.686 59.7931 133.686 60.2094C133.686 60.7463 133.756 61.2316 133.897 61.6669C134.039 62.1029 134.237 62.4685 134.5 62.765C134.762 63.0683 135.077 63.2958 135.448 63.4596C135.82 63.6234 136.237 63.7053 136.704 63.7053C137.134 63.7053 137.531 63.6234 137.89 63.4717C138.236 63.326 138.549 63.1139 138.813 62.8476C139.069 62.5883 139.274 62.2789 139.415 61.9323C139.562 61.585 139.633 61.2127 139.633 60.8214C139.633 60.399 139.569 60.0145 139.447 59.6732C139.335 59.3479 139.156 59.0494 138.922 58.7966C138.687 58.5481 138.4 58.3539 138.082 58.2279C137.731 58.0903 137.357 58.0218 136.98 58.0261C136.736 58.0261 136.499 58.058 136.269 58.1209C136.044 58.1839 135.829 58.2752 135.627 58.3924C135.432 58.5038 135.253 58.6416 135.096 58.8019C134.942 58.9604 134.814 59.1371 134.724 59.3388H134.698C134.718 59.0802 134.75 58.8156 134.807 58.5441C134.865 58.2726 134.948 58.0133 135.058 57.7676C135.167 57.5219 135.308 57.3004 135.48 57.0987C135.666 56.8951 135.893 56.7337 136.147 56.6255C136.426 56.4932 136.721 56.3978 137.025 56.3419L137.226 56.3055C137.426 56.2691 137.617 56.2342 137.8 56.1963C138.044 56.1462 138.267 56.0825 138.473 55.9885V55.9877ZM134.91 61.3833C134.811 61.0647 134.763 60.7324 134.769 60.399C134.812 60.2076 134.89 60.0258 135 59.8628C135.109 59.6922 135.25 59.5413 135.416 59.4078C135.793 59.1142 136.258 58.9565 136.736 58.9604C137.332 58.9604 137.781 59.1432 138.095 59.5034C138.409 59.8689 138.563 60.3231 138.563 60.8722C138.563 61.1437 138.511 61.3901 138.422 61.6169C138.335 61.8405 138.205 62.0446 138.037 62.2169C137.87 62.3893 137.67 62.5264 137.448 62.6201C137.217 62.721 136.967 62.7718 136.685 62.7718C136.403 62.7718 136.147 62.7149 135.91 62.6012C135.674 62.4897 135.467 62.3282 135.301 62.128C135.127 61.9049 134.995 61.6527 134.91 61.3833ZM147.399 57.9632H146.387V63.5794H147.399V57.9632ZM141.093 57.9632H142.106V59.6482H143.042C143.484 59.6482 143.842 59.7051 144.131 59.812C144.42 59.9197 144.65 60.0645 144.823 60.2412C144.996 60.4179 145.118 60.6265 145.189 60.8593C145.259 61.0928 145.298 61.3325 145.298 61.585C145.298 61.8375 145.259 62.0779 145.176 62.3176C145.099 62.5572 144.964 62.765 144.784 62.9546C144.606 63.1441 144.362 63.2958 144.054 63.4096C143.747 63.5225 143.375 63.5855 142.926 63.5855H141.087V57.9632H141.093ZM142.106 60.5878V62.6452H142.843C143.35 62.6452 143.708 62.5572 143.913 62.3797C144.119 62.203 144.221 61.9513 144.221 61.6169C144.221 61.2756 144.112 61.0178 143.907 60.8403C143.696 60.6636 143.343 60.5749 142.856 60.5749H142.106V60.5878Z" fill="black"/>
<path d="M154.096 62.771C153.852 63.0804 153.532 63.314 153.147 63.4717C152.753 63.6316 152.331 63.713 151.905 63.7114C151.481 63.7171 151.06 63.6467 150.661 63.5036C150.303 63.3743 149.976 63.1724 149.7 62.9106C149.428 62.6484 149.214 62.3321 149.072 61.9824C148.919 61.599 148.843 61.1897 148.848 60.7774C148.848 60.3679 148.918 59.9887 149.066 59.6293C149.207 59.2691 149.411 58.9604 149.668 58.7011C149.925 58.4364 150.232 58.2347 150.578 58.077C150.943 57.9167 151.339 57.8371 151.738 57.8434C152.192 57.8434 152.616 57.9003 153 58.0133C153.385 58.127 153.712 58.3166 153.98 58.582L153.513 59.3707C153.287 59.1666 153.02 59.0116 152.731 58.9157C152.455 58.8274 152.168 58.7828 151.879 58.7837C151.623 58.7837 151.379 58.8338 151.142 58.9286C150.908 59.0222 150.695 59.1594 150.514 59.3328C150.33 59.5122 150.184 59.7268 150.085 59.9637C149.976 60.2094 149.925 60.4809 149.925 60.7835C149.925 61.0929 149.982 61.3704 150.091 61.61C150.2 61.8565 150.347 62.065 150.533 62.241C150.719 62.4184 150.937 62.5504 151.186 62.6391C151.437 62.7271 151.7 62.7779 151.981 62.7779C152.327 62.7779 152.635 62.7081 152.91 62.5754C153.177 62.4473 153.416 62.2697 153.616 62.0521L154.096 62.771ZM154.615 57.9632H159.812V58.9604H157.722V63.5787H156.71V58.9604H154.622V57.9632H154.615Z" fill="black"/>
<path fill-rule="evenodd" clip-rule="evenodd" d="M161.927 57.964H160.914V66.0781H161.927V63.3208C162.132 63.4535 162.375 63.5483 162.657 63.6113C162.939 63.6742 163.234 63.7053 163.535 63.7053C163.984 63.7053 164.387 63.6234 164.753 63.4725C165.103 63.3232 165.421 63.1067 165.688 62.8355C165.951 62.5633 166.149 62.2478 166.29 61.8754C166.431 61.5039 166.502 61.1057 166.502 60.6833C166.502 60.2663 166.438 59.8818 166.316 59.5345C166.201 59.2046 166.023 58.9004 165.791 58.6389C165.563 58.3838 165.28 58.1832 164.964 58.0519C164.618 57.9039 164.244 57.8308 163.868 57.8373C163.471 57.8373 163.1 57.9132 162.747 58.0648C162.394 58.2165 162.119 58.3985 161.927 58.626V57.964ZM162.632 59.0052C162.921 58.8535 163.234 58.7777 163.574 58.7777C163.869 58.7777 164.131 58.8216 164.369 58.9164C164.6 59.0112 164.792 59.1439 164.952 59.3206C165.112 59.4973 165.234 59.6998 165.311 59.9387C165.394 60.1783 165.433 60.4376 165.433 60.7213C165.433 61.0246 165.381 61.2953 165.292 61.5478C165.208 61.7873 165.075 62.0066 164.901 62.1917C164.726 62.3746 164.514 62.5185 164.279 62.6141C164.017 62.7232 163.736 62.7769 163.452 62.7718C163.177 62.7718 162.921 62.7407 162.677 62.6778C162.41 62.6055 162.157 62.4902 161.928 62.3365V59.5534C162.107 59.3396 162.344 59.1568 162.632 59.0052ZM174.269 57.9632H173.256V63.5794H174.269V57.9632ZM167.956 57.9632H168.969V59.6482H169.904C170.347 59.6482 170.705 59.7051 170.994 59.812C171.283 59.9197 171.513 60.0645 171.686 60.2412C171.859 60.4179 171.981 60.6265 172.051 60.8593C172.122 61.0928 172.16 61.3325 172.16 61.585C172.16 61.8375 172.122 62.0779 172.039 62.3176C171.962 62.5572 171.827 62.765 171.647 62.9546C171.469 63.1441 171.225 63.2958 170.917 63.4096C170.61 63.5225 170.238 63.5855 169.789 63.5855H167.95V57.9632H167.956ZM168.976 60.5878V62.6452H169.713C170.219 62.6452 170.578 62.5572 170.783 62.3797C170.988 62.203 171.091 61.9513 171.091 61.6169C171.091 61.2756 170.982 61.0178 170.777 60.8403C170.565 60.6636 170.213 60.5749 169.726 60.5749H168.976V60.5878Z" fill="black"/>
<path d="M179.126 60.6704L181.292 63.5794H180.049L178.376 61.3075L176.678 63.5794H175.499L177.652 60.7205L175.627 57.9632H176.871L178.415 60.0835L179.984 57.9632H181.164L179.126 60.6704ZM90.1693 70.5204H87.0616V75.2024H86.0488V69.5869H91.1814V75.2024H90.1693V70.5204ZM96.9292 70.5834H94.9303L94.8655 71.5298C94.7955 72.3313 94.6995 72.9752 94.5648 73.4666C94.43 73.9595 94.2632 74.3379 94.0713 74.6026C93.8794 74.868 93.6548 75.0507 93.3981 75.1395C93.1334 75.235 92.8535 75.2821 92.5719 75.2782L92.495 74.306C92.6039 74.3121 92.7318 74.2871 92.8727 74.2241C93.0143 74.1612 93.1552 74.0224 93.2892 73.8146C93.424 73.5993 93.5459 73.2967 93.6548 72.9054C93.7636 72.508 93.8345 71.9909 93.8725 71.3402L93.9753 69.5922H97.942V75.2085H96.9292V70.5826V70.5834Z" fill="black"/>
<path fill-rule="evenodd" clip-rule="evenodd" d="M100.672 69.5998C100.345 69.6878 100.05 69.8137 99.8002 69.9714L100.07 70.7669C100.301 70.6532 100.531 70.5584 100.761 70.4765C100.992 70.3946 101.287 70.3567 101.639 70.3567C101.922 70.3567 102.146 70.4006 102.319 70.4886C102.492 70.5713 102.62 70.6971 102.71 70.8488C102.799 71.0005 102.857 71.1901 102.889 71.41C102.921 71.6314 102.934 71.871 102.934 72.1296C102.727 71.986 102.49 71.8892 102.242 71.846C102.001 71.7984 101.757 71.773 101.511 71.7702C101.211 71.7702 100.928 71.8142 100.659 71.89C100.39 71.9658 100.159 72.0796 99.9731 72.2312C99.7834 72.3826 99.6302 72.5744 99.5246 72.7924C99.4119 73.0312 99.3552 73.2923 99.3585 73.5561C99.3585 74.1043 99.5185 74.5343 99.839 74.8369C100.159 75.1395 100.582 75.2911 101.108 75.2911C101.582 75.2911 101.96 75.2092 102.248 75.0447C102.536 74.8809 102.767 74.6913 102.934 74.4767V75.2024H103.883V71.7573C103.883 71.0255 103.722 70.4575 103.395 70.0601C103.075 69.662 102.504 69.4611 101.697 69.4611C101.351 69.4613 101.006 69.5078 100.672 69.5991V69.5998ZM102.37 74.1483C102.14 74.3129 101.839 74.3887 101.467 74.3887C101.134 74.3887 100.884 74.3068 100.705 74.1483C100.525 73.9845 100.435 73.7699 100.435 73.5052C100.435 73.3475 100.467 73.2148 100.538 73.095C100.608 72.9752 100.705 72.8804 100.814 72.8045C100.923 72.7287 101.057 72.6718 101.204 72.6339C101.351 72.5962 101.502 72.5774 101.653 72.5778C102.153 72.5778 102.582 72.6976 102.935 72.9494V73.6622C102.768 73.8476 102.579 74.011 102.37 74.1483Z" fill="black"/>
<path d="M104.875 69.5869H110.072V70.5834H107.983V75.2024H106.971V70.5842H104.882V69.5869H104.875Z" fill="black"/>
<path fill-rule="evenodd" clip-rule="evenodd" d="M114.802 75.1455C115.187 75.0257 115.513 74.8422 115.795 74.5904L115.487 73.8078C115.302 73.9724 115.052 74.1111 114.75 74.2249C114.449 74.3386 114.11 74.3948 113.738 74.3948C113.181 74.3948 112.719 74.2499 112.354 73.9534C111.988 73.6569 111.79 73.2406 111.745 72.7097H116.129C116.173 72.5149 116.193 72.2934 116.193 72.0348C116.193 71.6504 116.122 71.303 115.981 70.9876C115.85 70.6813 115.658 70.4046 115.417 70.1739C115.173 69.9445 114.886 69.7663 114.571 69.6499C114.242 69.5228 113.892 69.4585 113.539 69.4603C113.065 69.4603 112.649 69.5422 112.284 69.6939C111.939 69.838 111.627 70.0506 111.367 70.3187C111.114 70.5853 110.92 70.9011 110.797 71.2462C110.662 71.6139 110.594 72.0028 110.598 72.3943C110.598 72.8364 110.675 73.2398 110.816 73.6C110.957 73.9595 111.168 74.2689 111.431 74.5275C111.694 74.7861 112.014 74.9817 112.393 75.1205C112.798 75.2638 113.225 75.3344 113.654 75.329C114.033 75.329 114.418 75.2653 114.802 75.1455ZM112.233 70.8169C112.546 70.5333 112.963 70.3946 113.488 70.3946C113.989 70.3946 114.379 70.5333 114.668 70.7919C114.956 71.0573 115.11 71.4229 115.136 71.89H111.675C111.724 71.4768 111.922 71.0954 112.233 70.8169ZM116.686 69.5869H117.968L119.922 72.2942L117.833 75.2024H116.59L118.781 72.2934L116.686 69.5862V69.5869ZM120.171 69.5869H121.184V75.2024H120.171V69.5869ZM124.804 75.2024L122.575 72.2934L124.657 69.5862H123.401L121.434 72.2934L123.549 75.2024H124.804ZM129.431 75.1455C129.816 75.0257 130.143 74.8422 130.424 74.5904L130.117 73.8078C129.931 73.9724 129.681 74.1111 129.38 74.2249C129.079 74.3386 128.739 74.3948 128.368 74.3948C127.81 74.3948 127.349 74.2499 126.983 73.9534C126.618 73.6569 126.42 73.2406 126.375 72.7097H130.758C130.803 72.5149 130.822 72.2934 130.822 72.0348C130.822 71.6504 130.752 71.303 130.61 70.9876C130.479 70.6815 130.287 70.4048 130.047 70.1739C129.803 69.9445 129.515 69.7663 129.201 69.6499C128.872 69.5228 128.522 69.4584 128.169 69.4603C127.695 69.4603 127.279 69.5422 126.913 69.6939C126.568 69.8382 126.257 70.0508 125.997 70.3187C125.744 70.5849 125.55 70.9008 125.427 71.2462C125.291 71.6138 125.224 72.0028 125.228 72.3943C125.228 72.8364 125.305 73.2398 125.446 73.6C125.587 73.9595 125.798 74.2689 126.061 74.5275C126.324 74.7861 126.643 74.9817 127.022 75.1205C127.427 75.2638 127.855 75.3344 128.285 75.329C128.674 75.3261 129.061 75.2643 129.431 75.1455ZM126.862 70.8169C127.177 70.5333 127.593 70.3946 128.119 70.3946C128.612 70.3946 129.009 70.5333 129.297 70.7919C129.586 71.0573 129.74 71.4229 129.765 71.89H126.305C126.353 71.4768 126.552 71.0954 126.862 70.8169ZM134.93 67.7002C134.334 67.7002 134.007 67.3718 133.956 66.7159H133.001C133.001 66.9676 133.046 67.1951 133.129 67.4098C133.213 67.6244 133.335 67.8071 133.495 67.9588C133.655 68.1105 133.86 68.2303 134.097 68.3243C134.334 68.4191 134.61 68.4631 134.923 68.4631C135.212 68.4631 135.469 68.4191 135.699 68.3243C135.93 68.2363 136.122 68.1105 136.289 67.9588C136.449 67.8071 136.577 67.6244 136.666 67.4098C136.756 67.1951 136.801 66.9676 136.801 66.7159H135.853C135.808 67.3718 135.494 67.7002 134.93 67.7002ZM132.193 69.5862V75.2024H133.206L136.5 71.0187V75.2024H137.512V69.5862H136.5L133.206 73.7699V69.5862H132.193Z" fill="black"/>
</svg>
