<svg width="150" height="100" viewBox="0 0 150 100" fill="none" xmlns="http://www.w3.org/2000/svg">
<mask id="mask0" style="mask-type:alpha" maskUnits="userSpaceOnUse" x="0" y="0" width="150" height="100">
<rect width="150" height="100" rx="8" fill="#C4C4C4"/>
</mask>
<g mask="url(#mask0)">
<rect x="0.5" y="0.5" width="149" height="99" rx="7.5" fill="white" stroke="#F4F4F4"/>
</g>
<path d="M104.514 39.7292V35.0069L83.2639 20.25L62.0139 35.0069V39.7292M104.514 39.7292H106.875V43.8611H102.153M104.514 39.7292H62.0139M102.153 43.8611V63.3403M102.153 43.8611H96.25M102.153 63.3403H96.25M102.153 63.3403H104.514V67.4722M63.7847 43.8611H59.6528V39.7292H62.0139M63.7847 43.8611H70.2778M63.7847 43.8611V48.9106M70.2778 43.8611H80.3125M70.2778 43.8611V53.4249M80.3125 43.8611V63.3403H86.8056M80.3125 43.8611H86.8056M86.8056 43.8611V63.3403M86.8056 43.8611H96.25M86.8056 63.3403H96.25M96.25 43.8611V63.3403M104.514 67.4722H106.875V72.1944H75M104.514 67.4722H78.5417M62.1857 59.7294H51.5607M51.5607 59.7294L55.1023 56.1878M51.5607 59.7294L55.1023 63.2711M54.8827 67.0753H65.5077M65.5077 67.0753L61.966 63.5337M65.5077 67.0753L61.966 70.617M73.9438 63.4024C73.9438 71.9128 67.0448 78.8118 58.5344 78.8118C50.024 78.8118 43.125 71.9128 43.125 63.4024C43.125 54.8921 50.024 47.9931 58.5344 47.9931C67.0448 47.9931 73.9438 54.8921 73.9438 63.4024Z" stroke="url(#paint0_linear)" stroke-width="2.125" stroke-linecap="round" stroke-linejoin="round"/>
<defs>
<linearGradient id="paint0_linear" x1="56.2734" y1="78.8118" x2="111.278" y2="60.0721" gradientUnits="userSpaceOnUse">
<stop stop-color="#FE5000"/>
<stop offset="1" stop-color="#FCA92A"/>
</linearGradient>
</defs>
</svg>
