<svg width="100" height="100" viewBox="0 0 100 100" fill="none" xmlns="http://www.w3.org/2000/svg">
<circle cx="50" cy="50" r="49.5" stroke="url(#paint0_linear)"/>
<path fill-rule="evenodd" clip-rule="evenodd" d="M58.2855 21.9839V38.932L54.6241 35.7277C54.4574 35.5819 54.2313 35.5 53.9956 35.5C53.7599 35.5 53.5339 35.5819 53.3672 35.7277C53.2006 35.8735 53.1069 36.0713 53.1069 36.2775C53.1069 36.4837 53.2006 36.6814 53.3672 36.8272L58.6928 41.4862C58.7752 41.5585 58.8732 41.6158 58.981 41.655C59.0889 41.6941 59.2045 41.7143 59.3212 41.7143C59.438 41.7143 59.5536 41.6941 59.6614 41.655C59.7692 41.6158 59.8672 41.5585 59.9496 41.4862L65.2752 36.8272C65.4419 36.6814 65.5355 36.4837 65.5355 36.2775C65.5355 36.0713 65.4419 35.8735 65.2752 35.7277C65.1085 35.5819 64.8825 35.5 64.6468 35.5C64.4111 35.5 64.185 35.5819 64.0184 35.7277L60.3569 38.932L60.3569 21.9839C60.3569 21.723 60.2478 21.4727 60.0536 21.2882C59.8593 21.1037 59.5959 21 59.3212 21C59.0465 21 58.7831 21.1037 58.5889 21.2882C58.3946 21.4727 58.2855 21.723 58.2855 21.9839ZM53.3893 44.8579V47.7605C59.8643 46.8367 68.6426 48.1311 68.6427 51.649V66.9289C68.6427 69.5713 63.6579 71.0167 58.4738 71.1592V73.7199C58.4738 76.5061 52.9318 77.9643 47.4576 77.9643C41.9833 77.9643 36.4413 76.5062 36.4413 73.7199V68.6266C36.4413 67.468 37.4023 66.5539 38.9112 65.8772C34.786 65.3917 31.3569 64.0261 31.3569 61.8356V44.8579C31.3569 39.2855 53.3893 39.2855 53.3893 44.8579ZM51.6946 44.9156C51.6946 44.0524 48.4043 42.3734 42.3732 42.3734C36.342 42.3734 33.0517 44.0525 33.0518 44.9156C33.0518 45.7787 36.3421 47.4578 42.3732 47.4578C48.4042 47.4578 51.6946 45.7787 51.6946 44.9156ZM42.3731 49.1526C38.7502 49.1526 35.108 48.5113 33.0517 47.2737L33.0518 50C33.0518 50.8632 36.342 52.5422 42.3732 52.5422C43.8485 52.5422 45.2821 52.4093 46.6102 52.1962V51.6949C46.6102 49.9616 48.7497 48.7689 51.6946 48.1158V47.2737C49.6383 48.5113 45.996 49.1526 42.3731 49.1526ZM48.8141 64.5027C48.634 64.413 48.4662 64.3187 48.3049 64.2217V64.4842C48.4752 64.4887 48.6445 64.4956 48.8141 64.5027ZM42.3731 54.2371C38.7502 54.2371 35.108 53.5957 33.0517 52.3581V55.9318C33.0517 56.795 36.342 58.474 42.3731 58.474C43.8485 58.474 45.282 58.3411 46.6101 58.1281V53.9045C45.2657 54.1053 43.84 54.2371 42.3731 54.2371ZM33.0517 58.29V61.8637C33.0517 62.7268 36.342 64.4059 42.3731 64.4059C43.8485 64.4059 45.282 64.273 46.6101 64.0599V59.8364C45.2657 60.0372 43.84 60.1689 42.3731 60.1689C38.7502 60.1689 35.108 59.5276 33.0517 58.29ZM47.4576 76.2695C53.4886 76.2695 56.779 74.5905 56.779 73.7273L56.7789 71.1648C56.74 71.1636 56.7007 71.1629 56.6614 71.1622C56.6113 71.1612 56.5611 71.1603 56.5118 71.1584C54.4158 72.2937 50.9254 72.8799 47.4575 72.8799C43.8346 72.8799 40.1924 72.2385 38.1361 71.0009V73.7273C38.1361 74.5905 41.4265 76.2695 47.4576 76.2695ZM38.1362 68.6429C38.1362 69.506 41.4264 71.1851 47.4576 71.1851C53.4886 71.1851 56.779 69.506 56.779 68.6429C56.779 67.7797 53.4886 66.1007 47.4576 66.1007C41.4265 66.1007 38.1362 67.7797 38.1362 68.6429ZM58.4738 69.4609C63.9451 69.3082 66.9478 67.7683 66.9478 66.9481L66.9477 64.2217C64.8915 65.4593 61.2492 66.1007 57.6263 66.1007C57.2102 66.1007 56.7945 66.0894 56.3802 66.0726C57.6726 66.7284 58.4738 67.5841 58.4738 68.6429V69.4609ZM57.6264 64.4059C63.6575 64.4059 66.9478 62.7268 66.9478 61.8637V59.1373C64.8916 60.3749 61.2493 61.0163 57.6264 61.0163C54.0035 61.0163 50.3612 60.3749 48.305 59.1373V61.8637C48.305 62.7268 51.5953 64.4059 57.6264 64.4059ZM57.6264 59.3215C63.6575 59.3215 66.9478 57.6424 66.9478 56.7793V54.0529C64.8916 55.2905 61.2493 55.9318 57.6264 55.9318C54.0035 55.9318 50.3612 55.2905 48.305 54.0529V56.7793C48.305 57.6424 51.5953 59.3215 57.6264 59.3215ZM48.305 51.6949C48.305 52.558 51.5953 54.2371 57.6264 54.2371C63.6575 54.2371 66.9478 52.558 66.9478 51.6949C66.9478 50.8317 63.6575 49.1526 57.6264 49.1526C51.5953 49.1526 48.305 50.8317 48.305 51.6949Z" fill="url(#paint1_linear)"/>
<defs>
<linearGradient id="paint0_linear" x1="20.625" y1="100" x2="108.331" y2="72.5509" gradientUnits="userSpaceOnUse">
<stop stop-color="#FE5000"/>
<stop offset="1" stop-color="#FCA92A"/>
</linearGradient>
<linearGradient id="paint1_linear" x1="39.0471" y1="77.9643" x2="73.506" y2="70.9054" gradientUnits="userSpaceOnUse">
<stop stop-color="#FE5000"/>
<stop offset="1" stop-color="#FCA92A"/>
</linearGradient>
</defs>
</svg>
