<svg width="100" height="100" viewBox="0 0 100 100" fill="none" xmlns="http://www.w3.org/2000/svg">
<circle cx="50" cy="50" r="49.5" stroke="url(#paint0_linear)"/>
<path d="M67.4 28.9091H32.6C30.0954 28.9091 27.9863 31.0181 27.9863 33.5227V64.6318C27.9863 67.1363 30.0954 69.2454 32.6 69.2454H54.6136C55.1409 69.2454 55.5363 68.85 55.5363 68.3227C55.5363 67.7954 55.1409 67.4 54.6136 67.4H32.6C31.15 67.4 29.8318 66.2136 29.8318 64.6318V38.0045H70.1681V57.25C70.1681 57.7772 70.5636 58.1727 71.0909 58.1727C71.6181 58.1727 72.0136 57.7772 72.0136 57.25V33.5227C72.0136 31.0181 69.9045 28.9091 67.4 28.9091ZM70.1681 36.2909H29.8318V33.5227C29.8318 32.0727 31.0181 30.7545 32.6 30.7545H67.4C68.85 30.7545 70.1681 31.9409 70.1681 33.5227V36.2909ZM32.6 34.4454C33.1272 34.4454 33.5227 34.05 33.5227 33.5227C33.5227 32.9954 33.1272 32.6 32.6 32.6C32.0727 32.6 31.6772 32.9954 31.6772 33.5227C31.6772 34.05 32.0727 34.4454 32.6 34.4454ZM36.2909 34.4454C36.8181 34.4454 37.2136 34.05 37.2136 33.5227C37.2136 32.9954 36.8181 32.6 36.2909 32.6C35.7636 32.6 35.3681 32.9954 35.3681 33.5227C35.3681 34.05 35.7636 34.4454 36.2909 34.4454ZM39.9818 34.4454C40.5091 34.4454 40.9045 34.05 40.9045 33.5227C40.9045 32.9954 40.5091 32.6 39.9818 32.6C39.4545 32.6 39.0591 32.9954 39.0591 33.5227C39.0591 34.05 39.4545 34.4454 39.9818 34.4454ZM71.75 62.1272L58.9636 49.3409C58.7 49.0772 58.3045 48.9454 57.9091 49.0772C57.5136 49.2091 57.3818 49.6045 57.3818 49.8682V68.1909C57.3818 68.5863 57.6454 68.85 57.9091 68.9818C58.3045 69.1136 58.7 68.9818 58.9636 68.7182L61.7318 65.95L63.9727 70.3C64.1045 70.5636 64.2363 70.6954 64.5 70.6954C64.6318 70.6954 64.6318 70.6954 64.7636 70.6954C64.8954 70.6954 65.0272 70.6954 65.1591 70.5636L68.7182 68.7182C69.1136 68.4545 69.3772 67.9272 69.1136 67.5318L67.0045 63.4454H70.9591C71.3545 63.4454 71.6181 63.1818 71.75 62.9182C72.0136 62.7863 72.0136 62.3909 71.75 62.1272ZM65.5545 61.8636C65.2909 61.8636 64.8954 61.9954 64.7636 62.2591C64.6318 62.5227 64.6318 62.9182 64.7636 63.1818L67.1363 67.7954L65.1591 68.85L62.7863 64.2363C62.6545 63.9727 62.3909 63.8409 62.1272 63.7091H61.9954C61.7318 63.7091 61.4681 63.8409 61.3363 63.9727L59.2272 66.0818V52.1091L68.9818 61.8636H65.5545Z" fill="url(#paint1_linear)"/>
<defs>
<linearGradient id="paint0_linear" x1="20.625" y1="100" x2="108.331" y2="72.5509" gradientUnits="userSpaceOnUse">
<stop stop-color="#FE5000"/>
<stop offset="1" stop-color="#FCA92A"/>
</linearGradient>
<linearGradient id="paint1_linear" x1="37.067" y1="70.6954" x2="75.3058" y2="58.0861" gradientUnits="userSpaceOnUse">
<stop stop-color="#FE5000"/>
<stop offset="1" stop-color="#FCA92A"/>
</linearGradient>
</defs>
</svg>
