<svg width="44" height="44" viewBox="0 0 44 44" fill="none" xmlns="http://www.w3.org/2000/svg">
<g clip-path="url(#clip0)">
<path d="M27.3679 5C23.5902 5 20.0749 6.25922 17.2942 8.41037H1.23916C0.819419 8.41037 0.452148 8.77765 0.452148 9.19738C0.452148 9.61712 0.819419 9.98439 1.23916 9.98439H15.4578C14.0936 11.3485 12.9918 12.9226 12.2048 14.654H4.16858C3.74884 14.654 3.38157 15.0213 3.38157 15.441C3.38157 15.8607 3.74884 16.228 4.16858 16.228H11.5752C11.0505 17.6971 10.7357 19.2711 10.6833 20.8976H1.23916C0.819419 20.8976 0.452148 21.2649 0.452148 21.6846C0.452148 22.1043 0.819419 22.4716 1.23916 22.4716H10.6308C10.6833 24.0981 10.9981 25.6721 11.5227 27.1412H4.16858C3.74884 27.1412 3.38157 27.5085 3.38157 27.9282C3.38157 28.3479 3.74884 28.7152 4.16858 28.7152H12.2048C13.0443 30.4466 14.1461 32.0207 15.4578 33.3848H1.23916C0.819419 33.3848 0.452148 33.7521 0.452148 34.1718C0.452148 34.5916 0.819419 34.9588 1.23916 34.9588H17.2417C20.0225 37.11 23.5378 38.3692 27.3154 38.3692C36.5496 38.3692 44 30.8664 44 21.6846C44 12.5028 36.5496 5 27.3679 5ZM28.1549 36.7952V34.1718C28.1549 33.7521 27.7876 33.3848 27.3679 33.3848C26.9481 33.3848 26.5809 33.7521 26.5809 34.1718V36.7952C18.8682 36.3754 12.6246 30.1843 12.2573 22.4716H14.8807C15.3004 22.4716 15.6677 22.1043 15.6677 21.6846C15.6677 21.2649 15.3004 20.8976 14.8807 20.8976H12.2573C12.6246 13.1849 18.8682 6.99376 26.5809 6.57402V9.19738C26.5809 9.61712 26.9481 9.98439 27.3679 9.98439C27.7876 9.98439 28.1549 9.61712 28.1549 9.19738V6.57402C35.8676 6.99376 42.0587 13.1849 42.4785 20.8976H39.8551C39.4353 20.8976 39.0681 21.2649 39.0681 21.6846C39.0681 22.1043 39.4353 22.4716 39.8551 22.4716H42.4785C42.0587 30.1843 35.8676 36.3754 28.1549 36.7952Z" fill="url(#paint0_linear)"/>
<path d="M33.8739 20.8976H27.8402L22.6984 11.506C22.4885 11.1387 22.0163 10.9813 21.649 11.1912C21.2818 11.401 21.1244 11.8732 21.3342 12.2405L26.6859 22.0519C26.8433 22.3142 27.1056 22.4716 27.368 22.4716H33.9264C34.3461 22.4716 34.7134 22.1044 34.7134 21.6846C34.7134 21.2649 34.2937 20.8976 33.8739 20.8976Z" fill="url(#paint1_linear)"/>
</g>
<defs>
<linearGradient id="paint0_linear" x1="9.43389" y1="38.3692" x2="45.3737" y2="23.6903" gradientUnits="userSpaceOnUse">
<stop stop-color="#FE5000"/>
<stop offset="1" stop-color="#FCA92A"/>
</linearGradient>
<linearGradient id="paint1_linear" x1="24.0191" y1="22.4716" x2="35.4257" y2="18.2431" gradientUnits="userSpaceOnUse">
<stop stop-color="#FE5000"/>
<stop offset="1" stop-color="#FCA92A"/>
</linearGradient>
<clipPath id="clip0">
<rect width="44" height="44" fill="white"/>
</clipPath>
</defs>
</svg>
