<svg width="44" height="44" viewBox="0 0 44 44" fill="none" xmlns="http://www.w3.org/2000/svg">
<path d="M43.9116 38.2999L42.1674 32.2367C42.1258 32.1121 42.0428 31.9875 41.9597 31.9045C40.88 28.6237 38.2221 26.0905 34.8583 25.2184L34.36 25.1353C33.6124 24.9276 32.7819 25.1768 32.242 25.7998C30.4147 27.8762 28.0891 28.0423 25.6389 28.0423C23.1887 28.0423 20.8631 27.8762 19.0359 25.7998C18.496 25.1768 17.6654 24.9276 16.9179 25.1353L16.4196 25.2599C13.8863 25.9243 11.7268 27.544 10.3564 29.7035H5.12374C5.08221 29.7035 5.08221 29.7035 5.04069 29.6619C5.04069 29.6204 4.99916 29.5789 4.99916 29.4958L6.0789 25.6336C7.03406 22.602 8.86133 21.6884 12.4328 20.7748C12.5989 20.7332 12.7235 20.6502 12.8066 20.5671C13.0973 20.8163 13.4295 21.0239 13.7617 21.1901C13.8863 21.2731 14.0109 21.2731 14.1355 21.2731C14.4262 21.2731 14.7169 21.107 14.883 20.8163C15.0906 20.401 14.9245 19.9027 14.5092 19.695C12.5989 18.6983 11.2285 15.8744 11.2285 12.9674C11.2285 10.3926 13.3464 8.27463 15.9212 8.27463C16.4196 8.27463 16.8764 8.35769 17.3332 8.48227C16.8764 9.60355 16.6272 10.8079 16.6272 12.0953C16.6272 19.1967 20.9047 25.1768 25.9712 25.1768C30.9546 25.1768 35.3567 19.0721 35.3567 12.0953C35.3567 6.90418 31.1623 2.70978 25.9712 2.70978C22.6904 2.70978 19.7834 4.41246 18.1222 6.98724C17.4162 6.73807 16.6687 6.61348 15.9212 6.61348C13.6787 6.61348 11.6853 7.81781 10.564 9.60355C10.481 9.52049 10.3979 9.47896 10.3148 9.43743C9.6919 9.1052 9.06897 8.98062 8.36298 8.98062C6.03738 8.93909 4.16858 10.8079 4.16858 13.1335C4.16858 14.4624 4.54234 15.7083 5.12374 16.705C3.21342 17.2033 1.51074 17.9508 0.721698 20.4841L0.0572388 22.8927C-0.0673474 23.308 0.01571 23.7648 0.264882 24.0971C0.514055 24.4708 0.970871 24.6785 1.42769 24.6785H4.6254C4.58387 24.8446 4.50081 25.0107 4.45928 25.1768L3.37954 29.0805C3.21342 29.6204 3.33801 30.2018 3.71177 30.6586C4.044 31.1154 4.54234 31.3646 5.12374 31.3646H9.52579C9.4012 31.6553 9.31814 31.946 9.23509 32.2367L7.49088 38.3414C7.32477 39.0474 7.44935 39.7949 7.90617 40.3763C8.36298 40.9577 9.02744 41.29 9.73343 41.29H34.6507H36.0626H41.669C42.375 41.29 43.081 40.9577 43.4963 40.3763C43.9531 39.7949 44.1192 39.0474 43.9116 38.2999ZM19.1189 8.60686C19.1605 8.56533 19.202 8.5238 19.2435 8.44074C19.285 8.39921 19.285 8.31616 19.3266 8.27463C20.614 5.94902 23.1057 4.37093 25.9712 4.37093C29.4181 4.37093 32.3251 6.65501 33.3217 9.76966C31.8682 10.0604 30.3317 9.47896 29.4181 8.2331C29.1273 7.85934 28.629 7.77628 28.2552 8.06698C28.0891 8.19157 28.0061 8.31616 27.9645 8.48227C27.923 8.5238 27.923 8.56533 27.8815 8.60686C26.7187 10.974 22.815 11.9707 18.3714 11.0986C18.496 10.2265 18.7452 9.3959 19.1189 8.60686ZM21.4445 13.0504C24.7668 13.0504 27.5077 12.0122 28.9197 10.0604C29.9579 10.974 31.2453 11.4723 32.6158 11.4723C32.948 11.4723 33.3218 11.4308 33.654 11.3478C33.6955 11.5969 33.6955 11.8046 33.6955 12.0537C33.6955 18.1585 30.0825 23.5157 25.9712 23.5157C22.0259 23.5157 18.5791 18.5738 18.2884 12.7597C19.3681 12.9674 20.4478 13.0504 21.4445 13.0504ZM1.75992 23.0173L2.34132 20.9409C2.83966 19.2382 3.87788 18.7399 5.95432 18.2415C6.0789 18.2 6.20349 18.1585 6.28655 18.0754C6.49419 18.2415 6.66031 18.3661 6.90948 18.4907C7.03407 18.5738 7.15865 18.5738 7.28324 18.5738C7.57394 18.5738 7.86464 18.4076 8.03076 18.1169C8.2384 17.7017 8.07228 17.2033 7.69853 16.9957C6.61878 16.4143 5.82973 14.7946 5.82973 13.1335C5.82973 11.7215 6.95101 10.6002 8.36298 10.6002C8.8198 10.6002 9.19356 10.6833 9.56732 10.8909C9.6919 10.9325 9.77496 10.974 9.89955 10.974C9.6919 11.5969 9.56732 12.2614 9.56732 12.9674C9.56732 15.3345 10.3564 17.6601 11.6022 19.2797C9.1105 19.9027 6.90948 20.7332 5.45597 23.0173H1.75992ZM42.2089 39.3796C42.1258 39.4627 41.9597 39.6288 41.669 39.6288H36.0626H34.6507H9.73343C9.44273 39.6288 9.27662 39.4627 9.19356 39.3796C9.06897 39.2135 9.02744 38.9644 9.06897 38.7982L10.8132 32.735C11.6438 29.8696 13.9278 27.627 16.8348 26.8795L17.3332 26.7549C17.4578 26.7134 17.6654 26.7964 17.79 26.921C20.0741 29.5373 22.898 29.745 25.6389 29.745C28.3798 29.745 31.2038 29.5373 33.4879 26.921C33.6124 26.7964 33.7786 26.7134 33.9862 26.7549L34.4846 26.8795C37.35 27.627 39.6756 29.8696 40.5062 32.735L41.2537 35.3098C41.2953 35.4344 41.3368 35.5175 41.4198 35.6005L42.3335 38.7567C42.375 38.9644 42.3335 39.2135 42.2089 39.3796Z" fill="url(#paint0_linear)"/>
<defs>
<linearGradient id="paint0_linear" x1="9.07499" y1="41.29" x2="46.6575" y2="27.8756" gradientUnits="userSpaceOnUse">
<stop stop-color="#FE5000"/>
<stop offset="1" stop-color="#FCA92A"/>
</linearGradient>
</defs>
</svg>
