<svg width="44" height="44" viewBox="0 0 44 44" fill="none" xmlns="http://www.w3.org/2000/svg">
<path d="M7.83523 21.0324L7.41144 20.6663C7.25849 20.5343 7.59695 20.1768 7.6845 20.0939C7.97108 19.7943 8.32234 19.5642 8.71145 19.4211C9.10055 19.278 9.51722 19.2258 9.92962 19.2683C11.8751 19.471 13.8251 21.5062 14.8089 22.6928C15.3853 22.0201 16.0248 21.4042 16.7187 20.8535V6.4391C16.7263 6.00175 16.9054 5.58489 17.2174 5.2783C17.5294 4.97171 17.9493 4.79992 18.3867 4.79992C18.8242 4.79992 19.2441 4.97171 19.5561 5.2783C19.8681 5.58489 20.0472 6.00175 20.0548 6.4391V16.6119C20.0548 16.7943 20.1272 16.9692 20.2562 17.0981C20.3851 17.227 20.56 17.2994 20.7423 17.2994C20.9246 17.2994 21.0995 17.227 21.2284 17.0981C21.3574 16.9692 21.4298 16.7943 21.4298 16.6119V3.01419C21.4374 2.57685 21.6164 2.15998 21.9284 1.85338C22.2404 1.54678 22.6603 1.37498 23.0977 1.37498C23.5351 1.37498 23.955 1.54678 24.267 1.85338C24.5789 2.15998 24.758 2.57685 24.7656 3.01419V15.7868C24.7656 15.9692 24.838 16.144 24.9669 16.273C25.0959 16.4019 25.2707 16.4743 25.4531 16.4743C25.6354 16.4743 25.8103 16.4019 25.9392 16.273C26.0681 16.144 26.1406 15.9692 26.1406 15.7868V5.35683C26.1482 4.91949 26.3272 4.50262 26.6392 4.19602C26.9512 3.88942 27.3711 3.71762 27.8085 3.71762C28.2459 3.71762 28.6658 3.88942 28.9778 4.19602C29.2897 4.50262 29.4688 4.91949 29.4764 5.35683V16.1994C29.4764 16.3817 29.5488 16.5566 29.6777 16.6855C29.8067 16.8145 29.9815 16.8869 30.1639 16.8869C30.3462 16.8869 30.5211 16.8145 30.65 16.6855C30.7789 16.5566 30.8514 16.3817 30.8514 16.1994V7.67361C30.8589 7.23627 31.038 6.81941 31.35 6.51281C31.6619 6.20621 32.0818 6.0344 32.5193 6.0344C32.9567 6.0344 33.3766 6.20621 33.6885 6.51281C34.0005 6.81941 34.1796 7.23627 34.1871 7.67361V21.1889C34.6665 21.5996 35.1172 22.0427 35.5362 22.5148C35.5532 22.1376 35.5618 21.7605 35.5621 21.3837V7.67361C35.5562 7.12695 35.4032 6.59195 35.1194 6.12471C34.8355 5.65747 34.4312 5.27519 33.9488 5.01793C33.4664 4.76067 32.9237 4.63791 32.3776 4.66251C31.8314 4.68711 31.302 4.85817 30.8446 5.15776C30.804 4.62957 30.6264 4.12109 30.3294 3.68241C30.0325 3.24373 29.6263 2.88999 29.151 2.65605C28.6757 2.42211 28.1477 2.31604 27.6189 2.34829C27.0901 2.38054 26.5789 2.55 26.1355 2.83997C26.0828 2.05468 25.728 1.32034 25.1455 0.791061C24.563 0.261781 23.7981 -0.0212916 23.0113 0.00124996C22.2246 0.0237915 21.4772 0.350195 20.9259 0.911959C20.3747 1.47372 20.0625 2.22718 20.0548 3.01419V3.91922C19.5973 3.62108 19.0681 3.45134 18.5226 3.42775C17.977 3.40417 17.4351 3.52761 16.9536 3.78516C16.4721 4.04271 16.0686 4.42491 15.7854 4.89179C15.5022 5.35867 15.3496 5.89307 15.3437 6.4391V21.2073C14.1298 19.869 12.1714 18.1207 10.0746 17.901C9.46465 17.8364 8.84794 17.9102 8.27044 18.117C7.69294 18.3237 7.16953 18.6581 6.73919 19.0952C6.51894 19.2906 6.34007 19.5282 6.21311 19.7938C6.08615 20.0595 6.01369 20.3478 6 20.642C6.00407 20.8458 6.05196 21.0464 6.14041 21.2302C6.22885 21.4139 6.35579 21.5764 6.51261 21.7068C8.47494 23.4056 10.4396 25.1017 12.3542 26.8544C12.5235 26.4 12.7169 25.955 12.9335 25.5211C11.0417 23.8 9.04299 22.0747 7.83523 21.0324Z" fill="url(#paint0_linear)"/>
<path d="M25.2495 19.25C22.802 19.25 20.4094 19.9758 18.3743 21.3356C16.3393 22.6953 14.7531 24.6281 13.8165 26.8893C12.8799 29.1505 12.6348 31.6387 13.1123 34.0392C13.5898 36.4398 14.7684 38.6448 16.4991 40.3754C18.2297 42.1061 20.4348 43.2847 22.8353 43.7622C25.2358 44.2397 27.724 43.9946 29.9852 43.058C32.2465 42.1214 34.1792 40.5352 35.5389 38.5002C36.8987 36.4651 37.6245 34.0725 37.6245 31.625C37.6208 28.3441 36.3158 25.1986 33.9959 22.8786C31.6759 20.5587 28.5304 19.2537 25.2495 19.25ZM25.2495 20.625C27.9289 20.6234 30.5159 21.604 32.5209 23.3813L25.2495 30.6528L17.9781 23.3813C19.9832 21.604 22.5702 20.6234 25.2495 20.625ZM14.2495 31.625C14.2479 28.9456 15.2286 26.3585 17.0059 24.3534L24.2773 31.625L17.0059 38.8966C15.2286 36.8915 14.2479 34.3044 14.2495 31.625ZM25.2495 42.625C22.5702 42.6266 19.9832 41.646 17.9781 39.8687L25.2495 32.5972L32.5209 39.8687C30.5159 41.646 27.9289 42.6266 25.2495 42.625ZM33.4931 38.8966L26.2217 31.625L33.4931 24.3534C35.2691 26.3593 36.2495 28.9459 36.2495 31.625C36.2495 34.3041 35.2691 36.8906 33.4931 38.8966L33.4931 38.8966Z" fill="url(#paint1_linear)"/>
<defs>
<linearGradient id="paint0_linear" x1="12.0972" y1="26.8544" x2="37.5441" y2="18.0874" gradientUnits="userSpaceOnUse">
<stop stop-color="#FE5000"/>
<stop offset="1" stop-color="#FCA92A"/>
</linearGradient>
<linearGradient id="paint1_linear" x1="17.9792" y1="44" x2="39.6864" y2="37.2064" gradientUnits="userSpaceOnUse">
<stop stop-color="#FE5000"/>
<stop offset="1" stop-color="#FCA92A"/>
</linearGradient>
</defs>
</svg>
