<svg width="44" height="44" viewBox="0 0 44 44" fill="none" xmlns="http://www.w3.org/2000/svg">
<path d="M40.1503 19.4071C39.6317 19.4071 39.286 19.7528 39.286 20.2714V23.7285V28.9142V29.7785C39.286 30.7292 38.5082 31.5071 37.5574 31.5071H35.8288C34.3595 31.5071 33.236 32.6306 33.236 34.0999V35.8285C33.236 36.7792 32.4581 37.5571 31.5074 37.5571H27.1859H5.5787C5.06011 37.5571 4.71444 37.2114 4.71444 36.6929V20.2714C4.71444 19.7528 4.36869 19.4071 3.85018 19.4071C3.33166 19.4071 2.98584 19.7528 2.98584 20.2714V36.6929C2.98584 38.1622 4.1094 39.2857 5.5787 39.2857H27.1859H31.5074H32.6309C33.7545 39.2857 34.8781 38.8536 35.6559 37.9892L39.7181 33.9271C40.496 33.1492 41.0146 32.0256 41.0146 30.9021V29.7785V28.9143V23.7285V20.2714C41.0146 19.7528 40.6688 19.4071 40.1503 19.4071ZM34.8781 36.4336C34.8781 36.2607 34.9646 36.0878 34.9646 35.8286V34.1C34.9646 33.5814 35.3103 33.2357 35.8288 33.2357H37.5574C37.7303 33.2357 37.9032 33.2357 38.1624 33.1493L34.8781 36.4336Z" fill="url(#paint0_linear)"/>
<path d="M38.4217 7.30712H32.3716V5.57853C32.3716 5.05994 32.0259 4.71426 31.5074 4.71426C30.9889 4.71426 30.6431 5.06001 30.6431 5.57853V7.30712H13.3573V5.57853C13.3573 5.05994 13.0115 4.71426 12.493 4.71426C11.9745 4.71426 11.6288 5.06001 11.6288 5.57853V7.30712H5.5787C4.1094 7.30712 2.98584 8.43068 2.98584 9.89998V16.8143C2.98584 17.3329 3.33159 17.6786 3.8501 17.6786H40.1502C40.6688 17.6786 41.0145 17.3328 41.0145 16.8143V9.89998C41.0146 8.43068 39.891 7.30712 38.4217 7.30712ZM39.286 15.95H4.71444V9.89998C4.71444 9.3814 5.06019 9.03572 5.5787 9.03572H11.6288V11.0236C11.1102 11.2829 10.7645 11.8879 10.7645 12.4929C10.7645 13.4436 11.5424 14.2215 12.4931 14.2215C13.4438 14.2215 14.2216 13.4436 14.2216 12.4928C14.2216 11.8879 13.8759 11.2828 13.3574 11.0235V9.03572H30.6431V11.0236C30.1245 11.2829 29.7789 11.8879 29.7789 12.4929C29.7789 13.4436 30.5567 14.2215 31.5075 14.2215C32.4582 14.2215 33.236 13.4436 33.236 12.4928C33.236 11.8879 32.8902 11.2828 32.3717 11.0235V9.03572H38.4218C38.9404 9.03572 39.286 9.38147 39.286 9.89998V15.95H39.286Z" fill="url(#paint1_linear)"/>
<path d="M18.5431 24.5928C19.4977 24.5928 20.2716 23.8189 20.2716 22.8642C20.2716 21.9096 19.4977 21.1357 18.5431 21.1357C17.5884 21.1357 16.8145 21.9096 16.8145 22.8642C16.8145 23.8189 17.5884 24.5928 18.5431 24.5928Z" fill="url(#paint2_linear)"/>
<path d="M25.4571 24.5928C26.4118 24.5928 27.1857 23.8189 27.1857 22.8642C27.1857 21.9096 26.4118 21.1357 25.4571 21.1357C24.5024 21.1357 23.7285 21.9096 23.7285 22.8642C23.7285 23.8189 24.5024 24.5928 25.4571 24.5928Z" fill="url(#paint3_linear)"/>
<path d="M32.3712 24.5928C33.3259 24.5928 34.0998 23.8189 34.0998 22.8642C34.0998 21.9096 33.3259 21.1357 32.3712 21.1357C31.4165 21.1357 30.6426 21.9096 30.6426 22.8642C30.6426 23.8189 31.4165 24.5928 32.3712 24.5928Z" fill="url(#paint4_linear)"/>
<path d="M11.6285 32.3715C12.5832 32.3715 13.3571 31.5976 13.3571 30.6429C13.3571 29.6882 12.5832 28.9143 11.6285 28.9143C10.6738 28.9143 9.8999 29.6882 9.8999 30.6429C9.8999 31.5976 10.6738 32.3715 11.6285 32.3715Z" fill="url(#paint5_linear)"/>
<path d="M18.5431 32.3715C19.4977 32.3715 20.2716 31.5976 20.2716 30.6429C20.2716 29.6882 19.4977 28.9143 18.5431 28.9143C17.5884 28.9143 16.8145 29.6882 16.8145 30.6429C16.8145 31.5976 17.5884 32.3715 18.5431 32.3715Z" fill="url(#paint6_linear)"/>
<path d="M25.4571 32.3715C26.4118 32.3715 27.1857 31.5976 27.1857 30.6429C27.1857 29.6882 26.4118 28.9143 25.4571 28.9143C24.5024 28.9143 23.7285 29.6882 23.7285 30.6429C23.7285 31.5976 24.5024 32.3715 25.4571 32.3715Z" fill="url(#paint7_linear)"/>
<defs>
<linearGradient id="paint0_linear" x1="10.8293" y1="39.2857" x2="37.7864" y2="23.1459" gradientUnits="userSpaceOnUse">
<stop stop-color="#FE5000"/>
<stop offset="1" stop-color="#FCA92A"/>
</linearGradient>
<linearGradient id="paint1_linear" x1="10.8292" y1="17.6786" x2="30.7015" y2="-0.564843" gradientUnits="userSpaceOnUse">
<stop stop-color="#FE5000"/>
<stop offset="1" stop-color="#FCA92A"/>
</linearGradient>
<linearGradient id="paint2_linear" x1="17.5275" y1="24.5928" x2="20.5597" y2="23.6439" gradientUnits="userSpaceOnUse">
<stop stop-color="#FE5000"/>
<stop offset="1" stop-color="#FCA92A"/>
</linearGradient>
<linearGradient id="paint3_linear" x1="24.4416" y1="24.5928" x2="27.4737" y2="23.6439" gradientUnits="userSpaceOnUse">
<stop stop-color="#FE5000"/>
<stop offset="1" stop-color="#FCA92A"/>
</linearGradient>
<linearGradient id="paint4_linear" x1="31.3556" y1="24.5928" x2="34.3878" y2="23.6439" gradientUnits="userSpaceOnUse">
<stop stop-color="#FE5000"/>
<stop offset="1" stop-color="#FCA92A"/>
</linearGradient>
<linearGradient id="paint5_linear" x1="10.6129" y1="32.3715" x2="13.6451" y2="31.4225" gradientUnits="userSpaceOnUse">
<stop stop-color="#FE5000"/>
<stop offset="1" stop-color="#FCA92A"/>
</linearGradient>
<linearGradient id="paint6_linear" x1="17.5275" y1="32.3715" x2="20.5597" y2="31.4225" gradientUnits="userSpaceOnUse">
<stop stop-color="#FE5000"/>
<stop offset="1" stop-color="#FCA92A"/>
</linearGradient>
<linearGradient id="paint7_linear" x1="24.4416" y1="32.3715" x2="27.4737" y2="31.4225" gradientUnits="userSpaceOnUse">
<stop stop-color="#FE5000"/>
<stop offset="1" stop-color="#FCA92A"/>
</linearGradient>
</defs>
</svg>
