<svg width="44" height="44" viewBox="0 0 44 44" fill="none" xmlns="http://www.w3.org/2000/svg">
<g clip-path="url(#clip0)">
<path d="M43.3555 9.68274H37.7438L35.3375 4.46504C35.1914 4.14488 34.7961 3.99778 34.4781 4.14488L32.1234 5.2438L24.9906 0.112627C24.707 -0.0950423 24.2945 -0.0258191 24.0883 0.26838L17.4195 9.68274H0.644531C0.283594 9.68274 0 9.97694 0 10.3317V33.6686C0 34.0234 0.292188 34.3176 0.644531 34.3176H6.25625L8.6625 39.5353C8.80859 39.8554 9.19531 40.0025 9.52188 39.8554L11.8766 38.7565L19.0094 43.8877C19.293 44.0953 19.7055 44.0261 19.9117 43.7319L26.5805 34.3176H43.3469C43.7078 34.3176 43.9914 34.0234 43.9914 33.6686V10.3317C44 9.97694 43.7078 9.68274 43.3555 9.68274ZM34.4352 5.59857L36.3172 9.68274H25.6867L34.4352 5.59857ZM24.7672 1.55766L30.7828 5.87546L22.6273 9.68274H19.0094L24.7672 1.55766ZM15.125 28.4682V32.9417C15.125 32.9677 15.125 32.9937 15.1336 33.0196H11.2578C11.2578 32.9937 11.2664 32.9677 11.2664 32.9417V28.4682V27.2568V10.9807H15.1336V27.2568V28.4682H15.125ZM1.28906 33.0196V10.9807H10.0547V27.2568H6.1875C5.85234 27.2568 5.58594 27.525 5.58594 27.8625C5.58594 28.2 5.85234 28.4682 6.1875 28.4682H10.0547V32.9417C10.0547 32.9677 10.0547 32.9937 10.0633 33.0196H1.28906ZM9.56485 38.4017L7.68281 34.3176H18.3133L9.56485 38.4017ZM19.2328 42.4513L13.2172 38.1335L21.3727 34.3262H24.9906L19.2328 42.4513ZM42.7109 33.0196H16.3281C16.3281 32.9937 16.3367 32.9677 16.3367 32.9417V28.4682H27.3367C27.6719 28.4682 27.9383 28.2 27.9383 27.8625C27.9383 27.525 27.6719 27.2568 27.3367 27.2568H16.3281V10.9807H17.7461H37.3227H42.7109V33.0196ZM31.7195 18.6472H32.8453V14.7187H36.0766C37.9156 14.7187 38.9469 15.6532 38.9469 17.2627C38.9469 18.8808 37.9156 19.8413 36.0766 19.8413H34.2203V20.6373H36.6953V21.3901H34.2203V23.0688H32.8453V21.3901H31.7195V20.6373H32.8453V19.8413H31.7195V18.6472ZM35.8789 18.6472C37.1078 18.6472 37.5719 18.1193 37.5719 17.2627C37.5719 16.406 37.1078 15.9042 35.8789 15.9042H34.2203V18.6472H35.8789Z" fill="url(#paint0_linear)"/>
</g>
<defs>
<linearGradient id="paint0_linear" x1="9.07327" y1="44.0074" x2="47.6601" y2="31.9373" gradientUnits="userSpaceOnUse">
<stop stop-color="#FE5000"/>
<stop offset="1" stop-color="#FCA92A"/>
</linearGradient>
<clipPath id="clip0">
<rect width="44" height="44" fill="white"/>
</clipPath>
</defs>
</svg>
