<svg width="44" height="44" viewBox="0 0 44 44" fill="none" xmlns="http://www.w3.org/2000/svg">
<path d="M37.2952 28.8671C36.0128 28.2071 34.5879 27.6414 33.0364 27.1386C32.3239 26.9029 31.7065 26.73 31.1365 26.5886C30.3766 26.3529 29.5849 26.18 28.8092 26.0386C28.1284 25.3 27.6692 24.4357 27.4476 23.4457C29.2366 22.0629 30.5982 19.9886 31.3423 17.5057C31.6748 17.49 32.0073 17.3486 32.2923 17.1129C32.9255 16.5786 33.3688 15.6043 33.4638 14.5043C33.543 13.6714 33.4005 12.9171 33.1155 12.3357C33.2897 11.5186 33.4005 10.67 33.4005 9.79C33.448 3.83429 29.1575 0 22.5237 0C15.89 0 11.5995 3.83429 11.5995 9.77429C11.5995 10.6386 11.6945 11.5029 11.8686 12.2886C11.5678 12.8857 11.4095 13.6714 11.4887 14.5043C11.5837 15.62 12.027 16.5786 12.6602 17.1129C12.9611 17.3486 13.2935 17.49 13.626 17.5057C14.3701 19.9729 15.7475 22.0629 17.5208 23.4457C17.2833 24.4671 16.8241 25.3786 16.08 26.1329C14.7184 26.3686 13.8793 26.5729 13.8635 26.5886C13.2777 26.73 12.6602 26.9029 11.9478 27.1386C10.3804 27.6257 8.98716 28.2071 7.68892 28.8671C5.4249 30.03 4 32.3086 4 34.8386V36.6614C4 38.3429 4.9341 39.8829 6.4065 40.6843C9.33547 42.1771 14.481 44 22.5079 44C30.5349 44 35.6804 42.1771 38.5935 40.6686C40.0817 39.8829 41 38.3271 41 36.6457V34.8229C41 32.3086 39.5751 30.03 37.2952 28.8671ZM22.5237 1.35143C28.4292 1.35143 32.0864 4.57286 32.0864 9.77429C32.0864 10.2614 32.0548 10.7486 31.9756 11.2043C31.9123 11.1886 31.849 11.1414 31.7856 11.1257C31.374 11.0314 31.0257 11.0314 30.7249 11.11C30.5665 10.6229 30.2974 9.83714 29.8383 8.58C29.8383 8.56429 29.8224 8.56429 29.8066 8.54857C29.7908 8.50143 29.7749 8.47 29.7433 8.42286C29.7116 8.39143 29.6799 8.34429 29.6483 8.32857C29.6324 8.31286 29.6166 8.29714 29.6166 8.26571C27.5109 6.75714 24.2178 6.75714 22.1121 8.26571C20.4814 9.46 17.8216 9.46 16.175 8.26571C16.1433 8.25 16.1117 8.25 16.08 8.25C16.0484 8.23429 16.0325 8.21857 16.0009 8.18714C16.0009 8.18714 15.9692 8.18714 15.9534 8.18714C15.9059 8.17143 15.8584 8.17143 15.8267 8.17143C15.7792 8.15571 15.7475 8.15571 15.7 8.15571C15.6684 8.17143 15.6209 8.17143 15.5892 8.20286C15.5417 8.21857 15.4942 8.21857 15.4626 8.23429C15.4151 8.25 15.3992 8.28143 15.3676 8.31286C15.3201 8.32857 15.3042 8.37571 15.2726 8.40714C15.2726 8.40714 15.2567 8.40714 15.2409 8.42286C15.2251 8.42286 15.2251 8.47 15.2092 8.48571C15.1934 8.53286 15.1617 8.54857 15.1617 8.56429C14.7026 9.83714 14.4335 10.6071 14.2751 11.0943C13.9743 11.0157 13.6102 11 13.1985 11.1257C13.151 11.1414 13.1036 11.1729 13.0561 11.1886C12.9927 10.7171 12.9452 10.2614 12.9452 9.77429C12.9452 4.57286 16.6183 1.35143 22.5237 1.35143ZM14.7659 16.5943C14.7184 16.39 14.5443 16.2329 14.3701 16.1543C14.196 16.0757 13.9427 16.0914 13.7685 16.17C13.6735 16.1857 13.5785 16.1071 13.531 16.0757C13.2619 15.84 12.9136 15.2586 12.8344 14.3786C12.7394 13.31 13.1352 12.5243 13.5627 12.3986C13.8952 12.32 14.1485 12.43 14.3068 12.5086C14.4018 12.5714 14.481 12.5871 14.5126 12.6029C14.7184 12.6657 14.9401 12.6186 15.1142 12.5086C15.2567 12.3986 15.3517 12.2257 15.3834 12.0529C15.4309 11.8329 15.7792 10.8271 16.1592 9.77429C17.0616 10.2143 18.1065 10.45 19.1515 10.45C20.5131 10.45 21.8588 10.0729 22.9037 9.31857C24.4869 8.18714 27.0359 8.15571 28.6667 9.22429C29.11 10.4657 29.5691 11.8014 29.6324 12.0529C29.6483 12.2257 29.7591 12.3829 29.9016 12.5086C30.0757 12.6343 30.2974 12.6657 30.4874 12.6029C30.5349 12.5871 30.614 12.5714 30.709 12.5086C30.8515 12.43 31.089 12.3043 31.4531 12.3986C31.8648 12.5086 32.2764 13.31 32.1656 14.3786C32.0864 15.2743 31.7381 15.84 31.4848 16.0757C31.4215 16.1229 31.3265 16.2014 31.1682 16.1543C30.994 16.0757 30.7882 16.0757 30.5982 16.1543C30.424 16.2329 30.2816 16.39 30.2341 16.5943C29.5691 19.14 28.2234 21.2614 26.4185 22.5657C24.0436 24.2943 20.9722 24.2943 18.5973 22.5657C16.7766 21.2614 15.4151 19.1557 14.7659 16.5943ZM18.724 24.2314C19.8956 24.8914 21.178 25.2214 22.4921 25.2214C23.8062 25.2214 25.0886 24.8914 26.276 24.2314C26.5768 25.2371 27.0834 26.1329 27.7959 26.9029C27.4476 27.9871 24.9461 30.0457 22.5079 31.5543C20.0697 30.0457 17.5524 27.9871 17.2199 26.9029C17.9324 26.1329 18.4232 25.2371 18.724 24.2314ZM5.36157 36.6614V34.8386C5.36157 32.8271 6.5015 30.9886 8.33804 30.0457C9.55712 29.4171 10.887 28.8829 12.3911 28.3957C12.4386 28.38 12.4544 28.38 12.4861 28.3643C12.2644 29.2286 12.1061 30.1243 11.9953 31.02C10.3646 31.4757 9.27214 33.0157 9.47796 34.7443L9.74711 36.8814C9.52546 37.1957 9.4938 37.62 9.69961 37.9657C9.9846 38.4371 10.6021 38.5943 11.0929 38.3271C11.5678 38.0443 11.742 37.4314 11.457 36.96C11.362 36.8029 11.2195 36.6614 11.077 36.5829L10.792 34.5557C10.6496 33.4243 11.4728 32.3871 12.6286 32.2457C13.7843 32.1043 14.8451 32.9214 14.9876 34.0686L15.2409 36.0643C15.1142 36.19 15.0034 36.3471 14.9559 36.52C14.8134 37.0543 15.1142 37.6043 15.6367 37.7614C16.175 37.9186 16.7291 37.6043 16.8875 37.0857C16.9983 36.6929 16.8716 36.3 16.5866 36.0643L16.3333 33.8957C16.1275 32.34 14.8768 31.1457 13.3569 30.9414C13.4994 29.92 13.721 28.8986 13.9902 27.94C14.0693 27.9243 14.1485 27.8929 14.2276 27.8771C14.2593 27.8614 14.9401 27.7043 16.0484 27.5C16.9191 29.5114 20.5289 31.8843 21.8588 32.7014V42.6486C14.101 42.5543 9.27214 40.6371 7.07146 39.49C5.99487 38.94 5.36157 37.84 5.36157 36.6614ZM39.6543 36.6614C39.6543 37.8557 39.0051 38.94 37.9602 39.49C35.7595 40.6371 30.9307 42.5543 23.1729 42.6486V32.7014C24.5344 31.8686 28.1917 29.4643 28.9991 27.4371C29.6008 27.5471 30.2024 27.6886 30.7882 27.8457C30.8357 27.8614 30.8832 27.8771 30.9307 27.8771C31.3107 29.2443 31.564 30.6743 31.7065 32.1357C30.7249 32.4971 29.9966 33.4086 29.9966 34.4929C29.9966 35.8757 31.1365 37.0071 32.5139 37.0071C33.9071 37.0071 35.0312 35.8757 35.0312 34.4929C35.0312 33.2986 34.1763 32.2929 33.0364 32.0571C32.9097 30.7686 32.7039 29.5271 32.4189 28.3329C32.4822 28.3486 32.5456 28.3643 32.5931 28.3957C34.0813 28.8514 35.4429 29.4171 36.6461 30.0457C38.4985 30.9729 39.6226 32.8114 39.6226 34.8386V36.6614H39.6543ZM32.5297 33.33C33.1789 33.33 33.7013 33.8643 33.7013 34.4929C33.7013 35.1529 33.1789 35.6557 32.5297 35.6557C31.8806 35.6557 31.3582 35.1371 31.3582 34.4929C31.3582 33.8643 31.8806 33.33 32.5297 33.33Z" fill="url(#paint0_linear)"/>
<defs>
<linearGradient id="paint0_linear" x1="11.6313" y1="44" x2="44.9531" y2="35.2305" gradientUnits="userSpaceOnUse">
<stop stop-color="#FE5000"/>
<stop offset="1" stop-color="#FCA92A"/>
</linearGradient>
</defs>
</svg>
