<svg width="44" height="44" viewBox="0 0 44 44" fill="none" xmlns="http://www.w3.org/2000/svg">
<g clip-path="url(#clip0)">
<path d="M14.6695 18.3305C10.1234 18.3305 6.41953 14.6266 6.41953 10.0805C6.41953 5.53438 10.1234 1.83047 14.6695 1.83047C19.2156 1.83047 22.9195 5.53438 22.9195 10.0805C22.9195 14.6266 19.2156 18.3305 14.6695 18.3305ZM14.6695 3.66954C11.1289 3.66954 8.25 6.54844 8.25 10.0891C8.25 13.6297 11.1289 16.5086 14.6695 16.5086C18.2102 16.5086 21.0891 13.6297 21.0891 10.0891C21.0891 6.54844 18.2016 3.66954 14.6695 3.66954ZM20.9 10.2352C18.7172 10.2352 17.1445 8.75704 16.3367 7.76016C12.7703 10.5016 8.55937 10.2523 7.2875 10.0977C6.78906 10.0375 6.42812 9.58204 6.48828 9.07501C6.54844 8.57657 6.99531 8.21563 7.51094 8.27579C8.68828 8.41329 12.7617 8.65391 15.8898 5.74923C16.0961 5.56016 16.3797 5.47422 16.6461 5.51719C16.9211 5.56016 17.1617 5.72344 17.3078 5.96407C17.3766 6.08438 19.1039 8.98047 21.7336 8.30157C22.232 8.18126 22.7219 8.47344 22.8508 8.96329C22.9797 9.45313 22.6789 9.95157 22.1891 10.0805C21.725 10.1836 21.3039 10.2352 20.9 10.2352ZM31.1695 40.3305C26.1164 40.3305 22 36.2141 22 31.1609C22 26.1078 26.1164 22 31.1695 22C36.2227 22 40.3391 26.1164 40.3391 31.1695C40.3391 36.2227 36.2227 40.3305 31.1695 40.3305ZM31.1695 23.8305C27.1219 23.8305 23.8391 27.1219 23.8391 31.1609C23.8391 35.2 27.1305 38.4914 31.1695 38.4914C35.2086 38.4914 38.5 35.2 38.5 31.1609C38.5 27.1219 35.2086 23.8305 31.1695 23.8305ZM43.0805 44C42.8484 44 42.6078 43.9141 42.4273 43.7336L36.7984 38.1047C36.4375 37.7438 36.4375 37.168 36.7984 36.807C37.1594 36.4461 37.7352 36.4461 38.0961 36.807L43.725 42.4359C44.0859 42.7969 44.0859 43.3727 43.725 43.7336C43.5531 43.9141 43.3211 44 43.0805 44ZM19.25 36.6695H0.919531C0.4125 36.6695 0 36.257 0 35.75V28.4195C0 24.8789 2.87891 22 6.41953 22H21.0891C21.5961 22 22.0086 22.4125 22.0086 22.9195C22.0086 23.4266 21.5961 23.8391 21.0891 23.8391H6.41953C3.89297 23.8391 1.83906 25.893 1.83906 28.4195V34.8391H19.25C19.757 34.8391 20.1695 35.2516 20.1695 35.7586C20.1695 36.257 19.757 36.6695 19.25 36.6695Z" fill="url(#paint0_linear)"/>
</g>
<defs>
<linearGradient id="paint0_linear" x1="9.07411" y1="44" x2="47.3588" y2="31.4993" gradientUnits="userSpaceOnUse">
<stop stop-color="#FE5000"/>
<stop offset="1" stop-color="#FCA92A"/>
</linearGradient>
<clipPath id="clip0">
<rect width="44" height="44" fill="white"/>
</clipPath>
</defs>
</svg>
