<svg width="44" height="44" viewBox="0 0 44 44" fill="none" xmlns="http://www.w3.org/2000/svg">
<path d="M22.0214 3.80769C22.7195 3.80769 23.2906 4.37885 23.2906 5.07692C23.2906 5.775 22.7195 6.34615 22.0214 6.34615C21.3233 6.34615 20.7521 5.775 20.7521 5.07692C20.7521 4.37885 21.3233 3.80769 22.0214 3.80769ZM38.9233 10.1538C38.9233 8.28173 37.4108 6.76923 35.5387 6.76923H30.8425C30.2185 6.07115 29.4146 5.54231 28.4839 5.27788C27.7012 5.05577 27.1089 4.45288 26.8762 3.67019C26.2733 1.55481 24.3166 0 22.0002 0C19.6839 0 17.7271 1.55481 17.1243 3.67019C16.9021 4.45288 16.2993 5.04519 15.5166 5.27788C14.5964 5.54231 13.7925 6.07115 13.1579 6.76923H8.46176C6.58965 6.76923 5.07715 8.28173 5.07715 10.1538V40.6154C5.07715 42.4875 6.58965 44 8.46176 44C16.2358 44 25.7868 44 35.5387 44C37.4108 44 38.9233 42.4875 38.9233 40.6154C38.9233 31.001 38.9233 21.799 38.9233 10.1538ZM13.5387 10.1221C13.5493 8.63077 14.5541 7.30865 15.982 6.89615C17.3252 6.50481 18.3618 5.47885 18.7425 4.13558C19.1656 2.69712 20.4983 1.69231 22.0002 1.69231C23.5021 1.69231 24.8348 2.69712 25.2579 4.13558C25.6493 5.47885 26.6752 6.51538 28.0185 6.89615C29.457 7.31923 30.4618 8.65192 30.4618 10.1538V11.8462H13.5387V10.1221ZM35.5387 42.3077C26.4954 42.3077 17.4733 42.3077 8.46176 42.3077C7.53099 42.3077 6.76946 41.5462 6.76946 40.6154V10.1538C6.76946 9.22308 7.53099 8.46154 8.46176 8.46154H12.132C11.9521 8.97981 11.8464 9.52981 11.8464 10.1115V13.5385H32.1541V10.1538C32.1541 9.56154 32.0483 8.99039 31.8579 8.46154H35.5387C36.4695 8.46154 37.231 9.22308 37.231 10.1538C37.231 14.9875 37.231 37.6856 37.231 40.6154C37.231 41.5462 36.4695 42.3077 35.5387 42.3077ZM29.0339 20.5721L18.8589 30.7471L14.3848 26.2625L13.1896 27.4577L18.8695 33.1375L30.2396 21.7673L29.0339 20.5721Z" fill="url(#paint0_linear)"/>
<defs>
<linearGradient id="paint0_linear" x1="12.0579" y1="44" x2="42.8651" y2="36.5834" gradientUnits="userSpaceOnUse">
<stop stop-color="#FE5000"/>
<stop offset="1" stop-color="#FCA92A"/>
</linearGradient>
</defs>
</svg>
