<svg width="44" height="44" viewBox="0 0 44 44" fill="none" xmlns="http://www.w3.org/2000/svg">
<g clip-path="url(#clip0)">
<path fill-rule="evenodd" clip-rule="evenodd" d="M36.927 12.8454L39.0874 10.685C39.3436 10.4289 39.4848 10.0882 39.4848 9.72589C39.4848 9.36358 39.3436 9.02292 39.0875 8.76674L38.0807 7.75998C37.5519 7.23121 36.6914 7.23121 36.1625 7.75998L34.0021 9.92037C31.1446 7.61389 27.7197 6.19523 24.0683 5.80568V4.13643H25.5837C26.3182 4.13643 26.9157 3.53891 26.9157 2.8044V2.01953C26.9157 0.905953 26.0098 0 24.8962 0H19.104C17.9904 0 17.0845 0.905953 17.0845 2.01953V2.8044C17.0845 3.53891 17.682 4.13643 18.4165 4.13643H19.9319V5.80577C15.5982 6.2682 11.5826 8.1791 8.45731 11.3045C4.83986 14.9219 2.84766 19.7316 2.84766 24.8474C2.84766 29.4691 4.51648 33.9322 7.54672 37.4144L9.43992 39.3069C12.9213 42.3332 17.3818 44 22.0001 44C27.1159 44 31.9256 42.0078 35.543 38.3903C39.1605 34.7729 41.1527 29.9632 41.1527 24.8475C41.1527 20.4274 39.6645 16.2369 36.927 12.8454ZM4.13672 24.8473C4.13672 29.158 5.69305 33.3205 8.51919 36.5681L10.2857 38.3341C13.5324 41.1565 17.6926 42.7109 22.0001 42.7109C31.8501 42.7109 39.8637 34.6973 39.8637 24.8473C39.8637 14.9973 31.8502 6.98371 22.0002 6.98371C12.1502 6.98371 4.13672 14.9973 4.13672 24.8473ZM37.1692 8.67152C37.1432 8.6454 37.1005 8.64523 37.074 8.67161L34.9803 10.7655C35.1706 10.9413 35.3588 11.1202 35.5431 11.3046C35.7273 11.4888 35.9063 11.677 36.0821 11.8674L38.176 9.7735C38.1891 9.76035 38.1957 9.74437 38.1957 9.72589C38.1957 9.70733 38.189 9.69134 38.176 9.67828L37.1692 8.67152ZM18.3736 2.01953V2.8044C18.3736 2.82812 18.3928 2.84737 18.4165 2.84737H25.5837C25.6073 2.84737 25.6267 2.82812 25.6267 2.8044V2.01953C25.6267 1.61674 25.2989 1.28906 24.8962 1.28906H19.104C18.7012 1.28906 18.3736 1.61674 18.3736 2.01953ZM21.221 4.13643V5.71158C21.4799 5.70127 21.7395 5.69482 22.0002 5.69473C22.2608 5.69473 22.5204 5.70127 22.7793 5.71158V4.13643H21.221Z" fill="url(#paint0_linear)"/>
<path fill-rule="evenodd" clip-rule="evenodd" d="M32.5692 12.4308C29.6258 9.92319 25.8726 8.54218 22.0005 8.54218C13.0098 8.54218 5.69531 15.8567 5.69531 24.8474C5.69531 33.8381 13.0098 41.1526 22.0005 41.1526C30.9912 41.1526 38.3057 33.8381 38.3057 24.8474C38.3057 20.9669 36.9192 17.2071 34.4017 14.2607L32.5692 12.4308ZM37.0166 24.8474C37.0166 21.2736 35.7399 17.8112 33.4217 15.0981L31.7332 13.412C29.0229 11.1029 25.5664 9.83124 22.0005 9.83124C13.7205 9.83124 6.98437 16.5675 6.98437 24.8474C6.98437 33.1273 13.7206 39.8636 22.0005 39.8636C30.2804 39.8636 37.0166 33.1274 37.0166 24.8474Z" fill="url(#paint1_linear)"/>
<path d="M22.6445 13.4578V12.0341C22.6445 11.6782 22.356 11.3896 22 11.3896C21.644 11.3896 21.3555 11.6782 21.3555 12.0341V13.4578C21.3555 13.8138 21.644 14.1024 22 14.1024C22.356 14.1024 22.6445 13.8138 22.6445 13.4578Z" fill="url(#paint2_linear)"/>
<path d="M21.3555 36.237V37.6607C21.3555 38.0167 21.644 38.3053 22 38.3053C22.356 38.3053 22.6445 38.0167 22.6445 37.6607V36.237C22.6445 35.881 22.356 35.5925 22 35.5925C21.644 35.5925 21.3555 35.881 21.3555 36.237Z" fill="url(#paint3_linear)"/>
<path d="M33.3896 25.4919H34.8133C35.1693 25.4919 35.4578 25.2033 35.4578 24.8473C35.4578 24.4914 35.1693 24.2028 34.8133 24.2028H33.3896C33.0336 24.2028 32.7451 24.4914 32.7451 24.8473C32.7451 25.2033 33.0336 25.4919 33.3896 25.4919Z" fill="url(#paint4_linear)"/>
<path d="M9.18652 24.2028C8.83048 24.2028 8.54199 24.4914 8.54199 24.8473C8.54199 25.2033 8.83048 25.4919 9.18652 25.4919H10.6102C10.9662 25.4919 11.2547 25.2033 11.2547 24.8473C11.2547 24.4914 10.9662 24.2028 10.6102 24.2028H9.18652Z" fill="url(#paint5_linear)"/>
<path d="M14.4019 16.338L13.3952 15.3312C13.1435 15.0794 12.7354 15.0795 12.4837 15.3312C12.232 15.583 12.232 15.9911 12.4838 16.2427L13.4905 17.2494C13.6164 17.3753 13.7814 17.4382 13.9463 17.4382C14.1112 17.4382 14.2762 17.3753 14.4021 17.2494C14.6537 16.9977 14.6537 16.5897 14.4019 16.338Z" fill="url(#paint6_linear)"/>
<path d="M30.5095 32.4453C30.2579 32.1935 29.8498 32.1936 29.598 32.4453C29.3462 32.697 29.3462 33.1051 29.598 33.3567L30.6048 34.3634C30.7306 34.4893 30.8956 34.5522 31.0605 34.5522C31.2254 34.5522 31.3904 34.4893 31.5163 34.3634C31.7681 34.1117 31.7681 33.7036 31.5163 33.4519L30.5095 32.4453Z" fill="url(#paint7_linear)"/>
<path d="M13.4905 32.4453L12.4838 33.4519C12.232 33.7037 12.232 34.1117 12.4837 34.3634C12.6096 34.4893 12.7745 34.5522 12.9395 34.5522C13.1044 34.5522 13.2694 34.4893 13.3952 34.3634L14.402 33.3567C14.6538 33.105 14.6538 32.697 14.4021 32.4453C14.1504 32.1937 13.7422 32.1936 13.4905 32.4453Z" fill="url(#paint8_linear)"/>
<path d="M31.5162 15.3312C31.2645 15.0795 30.8564 15.0794 30.6048 15.3312L29.598 16.3379C29.3462 16.5896 29.3462 16.9977 29.598 17.2494C29.7239 17.3753 29.8888 17.4383 30.0538 17.4383C30.2187 17.4383 30.3837 17.3753 30.5095 17.2494L31.5162 16.2428C31.7679 15.9911 31.7679 15.583 31.5162 15.3312Z" fill="url(#paint9_linear)"/>
<path d="M23.5577 27.3166C23.6836 27.4425 23.8486 27.5054 24.0136 27.5054C24.1785 27.5054 24.3435 27.4425 24.4693 27.3166C24.7211 27.0649 24.7211 26.6568 24.4694 26.4051L23.8448 25.7804C24.2364 25.0046 24.1099 24.0321 23.4627 23.3849C22.8154 22.7377 21.843 22.6112 21.0671 23.0028L16.4158 18.3514C16.164 18.0997 15.756 18.0997 15.5042 18.3514C15.2525 18.6031 15.2525 19.0112 15.5042 19.2628L20.1557 23.9144C19.764 24.6901 19.8905 25.6626 20.5377 26.3098C20.9409 26.713 21.4705 26.9146 22.0002 26.9146C22.3207 26.9146 22.6407 26.8395 22.9332 26.6919L23.5577 27.3166ZM21.4492 25.3984C21.302 25.2512 21.2209 25.0556 21.2209 24.8474C21.2209 24.6393 21.302 24.4436 21.4492 24.2965C21.5963 24.1493 21.792 24.0682 22.0001 24.0682C22.2083 24.0682 22.404 24.1493 22.5511 24.2965C22.6983 24.4436 22.7793 24.6393 22.7793 24.8474C22.7793 25.0556 22.6983 25.2512 22.5511 25.3984C22.404 25.5455 22.2083 25.6266 22.0001 25.6266C21.792 25.6266 21.5963 25.5456 21.4492 25.3984Z" fill="url(#paint10_linear)"/>
</g>
<defs>
<linearGradient id="paint0_linear" x1="10.7481" y1="44" x2="45.0855" y2="34.6445" gradientUnits="userSpaceOnUse">
<stop stop-color="#FE5000"/>
<stop offset="1" stop-color="#FCA92A"/>
</linearGradient>
<linearGradient id="paint1_linear" x1="12.4212" y1="41.1526" x2="41.0225" y2="32.2014" gradientUnits="userSpaceOnUse">
<stop stop-color="#FE5000"/>
<stop offset="1" stop-color="#FCA92A"/>
</linearGradient>
<linearGradient id="paint2_linear" x1="21.6213" y1="14.1024" x2="22.8358" y2="13.9218" gradientUnits="userSpaceOnUse">
<stop stop-color="#FE5000"/>
<stop offset="1" stop-color="#FCA92A"/>
</linearGradient>
<linearGradient id="paint3_linear" x1="21.6213" y1="38.3053" x2="22.8358" y2="38.1247" gradientUnits="userSpaceOnUse">
<stop stop-color="#FE5000"/>
<stop offset="1" stop-color="#FCA92A"/>
</linearGradient>
<linearGradient id="paint4_linear" x1="33.3046" y1="25.4919" x2="35.1266" y2="24.2919" gradientUnits="userSpaceOnUse">
<stop stop-color="#FE5000"/>
<stop offset="1" stop-color="#FCA92A"/>
</linearGradient>
<linearGradient id="paint5_linear" x1="9.10149" y1="25.4919" x2="10.9234" y2="24.2919" gradientUnits="userSpaceOnUse">
<stop stop-color="#FE5000"/>
<stop offset="1" stop-color="#FCA92A"/>
</linearGradient>
<linearGradient id="paint6_linear" x1="12.7684" y1="17.4382" x2="14.782" y2="16.8079" gradientUnits="userSpaceOnUse">
<stop stop-color="#FE5000"/>
<stop offset="1" stop-color="#FCA92A"/>
</linearGradient>
<linearGradient id="paint7_linear" x1="29.8827" y1="34.5522" x2="31.8964" y2="33.9219" gradientUnits="userSpaceOnUse">
<stop stop-color="#FE5000"/>
<stop offset="1" stop-color="#FCA92A"/>
</linearGradient>
<linearGradient id="paint8_linear" x1="12.7685" y1="34.5522" x2="14.7821" y2="33.9219" gradientUnits="userSpaceOnUse">
<stop stop-color="#FE5000"/>
<stop offset="1" stop-color="#FCA92A"/>
</linearGradient>
<linearGradient id="paint9_linear" x1="29.8827" y1="17.4383" x2="31.8963" y2="16.8081" gradientUnits="userSpaceOnUse">
<stop stop-color="#FE5000"/>
<stop offset="1" stop-color="#FCA92A"/>
</linearGradient>
<linearGradient id="paint10_linear" x1="17.2424" y1="27.5054" x2="25.4365" y2="24.9409" gradientUnits="userSpaceOnUse">
<stop stop-color="#FE5000"/>
<stop offset="1" stop-color="#FCA92A"/>
</linearGradient>
<clipPath id="clip0">
<rect width="44" height="44" fill="white"/>
</clipPath>
</defs>
</svg>
