<svg width="44" height="44" viewBox="0 0 44 44" fill="none" xmlns="http://www.w3.org/2000/svg">
<path d="M20.2641 1.57266C18.2703 0.541406 16.0188 0 13.7328 0C6.16172 0 0 5.85234 0 13.0453C0 17.3164 2.16563 21.2609 5.82656 23.7102L4.16797 28.6859C4.09062 28.9266 4.15937 29.193 4.34844 29.3648C4.56328 29.5625 4.88984 29.5883 5.13047 29.4336L10.7937 25.7898C11.7562 25.9875 12.7445 26.0906 13.7328 26.0906C14.7297 26.0906 15.7094 25.9875 16.6547 25.7898C16.5773 26.357 16.5344 26.9328 16.5344 27.5086C16.5344 34.7016 22.6961 40.5539 30.2672 40.5539C31.2555 40.5539 32.2437 40.4508 33.2062 40.2531L38.8695 43.8969C39.1102 44.0516 39.4367 44.0258 39.6516 43.8281C39.8406 43.6562 39.9094 43.3898 39.832 43.1492L38.1734 38.1734C41.8344 35.7242 44 31.7797 44 27.5086C44 20.3156 37.8383 14.4633 30.2672 14.4633C29.2789 14.4633 28.3078 14.5664 27.3453 14.7641C27.4227 14.2055 27.4656 13.6297 27.4656 13.0453C27.4656 9.40156 25.8414 5.89531 23.0055 3.42891L20.2641 1.57266ZM22.1633 4.4C24.7156 6.61719 26.1766 9.77109 26.1766 13.0453C26.1766 19.525 20.5992 24.8016 13.7328 24.8016C12.7445 24.8016 11.7648 24.6898 10.8109 24.475C10.6391 24.4406 10.4672 24.4664 10.3211 24.5609L5.97266 27.3539L7.21016 23.6414C7.30469 23.3578 7.19297 23.0484 6.93516 22.8852C3.40312 20.7109 1.28906 17.0242 1.28906 13.0453C1.28906 6.56563 6.875 1.28906 13.7328 1.28906C15.8125 1.28906 17.8664 1.77891 19.6797 2.71563L22.1633 4.4ZM37.0648 37.357C36.807 37.5117 36.6953 37.8297 36.7898 38.1133L38.0273 41.8258L33.6789 39.0328C33.5328 38.9383 33.3523 38.9039 33.1891 38.9469C32.2352 39.1617 31.2555 39.2734 30.2672 39.2734C23.4094 39.2734 17.8234 33.9969 17.8234 27.5172C17.8234 26.8211 17.8922 26.125 18.0211 25.4461C22.4898 24.0539 25.9445 20.5305 27.0789 16.1562C28.1187 15.8984 29.1844 15.7609 30.2672 15.7609C37.125 15.7609 42.7109 21.0375 42.7109 27.5172C42.7109 31.4961 40.5969 35.1742 37.0648 37.357ZM19.9375 10.3297H16.4484V6.84922C16.4484 6.48828 16.1562 6.20469 15.8039 6.20469H11.6703C11.3094 6.20469 11.0258 6.49687 11.0258 6.84922V10.3383H7.53672C7.17578 10.3383 6.89219 10.6305 6.89219 10.9828V15.1164C6.89219 15.4773 7.18437 15.7609 7.53672 15.7609H11.0258V19.25C11.0258 19.6023 11.318 19.8945 11.6703 19.8945H15.8039C16.1648 19.8945 16.4484 19.6023 16.4484 19.25V15.7609H19.9375C20.2984 15.7609 20.582 15.4687 20.582 15.1164V10.9828C20.582 10.6219 20.2898 10.3297 19.9375 10.3297ZM19.2844 14.4633H15.7953C15.4344 14.4633 15.1508 14.7555 15.1508 15.1078V18.5969H12.3062V15.1078C12.3062 14.7469 12.0141 14.4633 11.6617 14.4633H8.18125V11.6187H11.6703C12.0312 11.6187 12.3148 11.3266 12.3148 10.9742V7.49375H15.1594V10.9828C15.1594 11.3438 15.4516 11.6273 15.8039 11.6273H19.293L19.2844 14.4633Z" fill="url(#paint0_linear)"/>
<defs>
<linearGradient id="paint0_linear" x1="9.075" y1="43.997" x2="47.6652" y2="31.9187" gradientUnits="userSpaceOnUse">
<stop stop-color="#FE5000"/>
<stop offset="1" stop-color="#FCA92A"/>
</linearGradient>
</defs>
</svg>
