<svg width="90" height="90" viewBox="0 0 90 90" fill="none" xmlns="http://www.w3.org/2000/svg">
<path opacity="0.5" d="M22.6047 49.5L28.6745 0.313965H72.1047V19.1512H45.2094L43.535 30.3489H46.5699C54.4187 30.3489 61.0117 32.9651 66.1396 38.093C71.3722 43.2209 74.0931 50.1279 74.0931 58.9186C74.0931 68.4419 71.0582 75.9768 65.0931 81.5233C59.0233 86.9651 51.2792 89.6861 42.0699 89.6861C37.1513 89.6861 32.2326 88.6395 27.2094 86.5465C22.2908 84.3488 18.5233 81.5233 16.0117 77.8605L26.5815 63.4186C28.3606 65.5116 30.7675 67.2907 33.6978 68.6512C36.8373 70.1163 39.7675 70.7442 42.4885 70.7442C45.8373 70.7442 48.5582 69.6977 50.6513 67.7093C52.8489 65.6163 53.8954 62.8954 53.8954 59.6512C53.8954 55.8837 52.4303 52.8489 49.5001 50.6512C46.6745 48.3489 42.6978 47.093 37.6745 47.093C30.7675 47.3023 25.7443 48.0349 22.6047 49.5Z" fill="url(#paint0_linear_425_1951)"/>
<defs>
<linearGradient id="paint0_linear_425_1951" x1="16.9984" y1="47.5536" x2="78.4509" y2="39.6043" gradientUnits="userSpaceOnUse">
<stop stop-color="#FE5000"/>
<stop offset="1" stop-color="#FCA92A"/>
</linearGradient>
</defs>
</svg>
