<svg width="90" height="90" viewBox="0 0 90 90" fill="none" xmlns="http://www.w3.org/2000/svg">
<path opacity="0.5" d="M73.6939 90H16.3057V74.7529C16.4115 74.6471 18.4233 72.6353 22.5527 68.8235L29.541 61.8353C31.0233 60.1412 33.141 58.0235 35.6821 55.4824C38.541 52.4118 40.5527 49.9765 41.8233 48.2824L46.0586 41.8235C49.0233 37.3765 50.5057 32.7176 50.5057 27.9529C50.5057 22.1294 47.7527 19.1647 42.3527 19.1647C39.9174 19.1647 37.9057 20.0118 36.5292 21.6C34.941 22.9765 33.5645 25.4118 32.3998 28.5882L16.5174 21.3882C17.9998 14.7176 21.1763 9.52941 25.941 5.71765C30.8115 1.90588 36.9527 0 44.4704 0C52.7292 0 59.0821 2.32941 63.6351 6.98824C68.2939 11.6471 70.6233 17.3647 70.6233 24.0353C70.6233 40.8706 60.6704 56.9647 40.8704 72.2118H73.6939V90Z" fill="url(#paint0_linear_425_1959)"/>
<defs>
<linearGradient id="paint0_linear_425_1959" x1="15.1865" y1="50.596" x2="78.3309" y2="42.2959" gradientUnits="userSpaceOnUse">
<stop stop-color="#FE5000"/>
<stop offset="1" stop-color="#FCA92A"/>
</linearGradient>
</defs>
</svg>
