<svg width="90" height="90" viewBox="0 0 90 90" fill="none" xmlns="http://www.w3.org/2000/svg">
<path opacity="0.5" d="M44.5908 89.3864C38.0453 89.3864 32.318 88.1591 27.409 85.6023C22.4999 82.9432 18.818 79.4659 16.2612 75.1705L26.4885 61.5682C32.0112 67.9091 37.7385 70.9773 43.4658 70.9773C46.943 70.9773 49.6021 70.1591 51.4431 68.625C53.284 67.0909 54.3067 65.0455 54.3067 62.5909C54.3067 56.25 49.3976 53.1818 39.6817 53.1818H34.2612V34.7727H39.1703C42.6476 34.7727 45.5112 34.0568 47.659 32.5227C49.909 30.9886 50.9317 28.8409 50.9317 26.1818C50.9317 24.0341 50.318 22.2955 48.9885 21.0682C47.659 19.6364 45.7158 19.0227 43.0567 19.0227C37.3294 19.0227 32.4203 21.5796 28.2271 26.7955L18.2044 13.5C23.4203 4.9091 32.318 0.613647 44.7953 0.613647C52.3635 0.613647 58.6021 2.6591 63.3067 6.64774C68.1135 10.5341 70.568 15.8523 70.568 22.6023C70.568 32.2159 66.2726 38.8637 57.784 42.75V43.1591C62.8976 44.1818 66.784 46.4318 69.5453 50.1137C72.409 53.6932 73.8408 58.1932 73.8408 63.5114C73.8408 71.3864 71.0794 77.7273 65.4544 82.5341C59.9317 87.1364 52.9771 89.3864 44.5908 89.3864Z" fill="url(#paint0_linear_425_1963)"/>
<defs>
<linearGradient id="paint0_linear_425_1963" x1="17.3924" y1="48.6058" x2="79.3187" y2="40.3371" gradientUnits="userSpaceOnUse">
<stop stop-color="#FE5000"/>
<stop offset="1" stop-color="#FCA92A"/>
</linearGradient>
</defs>
</svg>
