<svg width="56" height="56" viewBox="0 0 56 56" fill="none" xmlns="http://www.w3.org/2000/svg">
<path fill-rule="evenodd" clip-rule="evenodd" d="M50.3601 12.5084H14.6703C13.755 8.06329 9.96378 5.57947 5.64995 5.57947C4.21174 5.57947 4.21174 7.67108 5.64995 7.67108C9.04901 7.67108 11.9251 9.89346 12.5788 13.2925L16.1087 33.8179C16.6316 36.8248 19.2463 39.0472 22.2531 39.0472H43.5624C45.0006 39.0472 45.0006 36.8248 43.5624 36.8248H22.2531C20.2922 36.9555 18.4617 35.5173 18.2003 33.5565L17.9388 32.1183H41.471C44.3471 32.1183 46.9617 30.1574 47.6154 27.2813L51.4067 14.0771C51.5375 13.2926 51.0145 12.6389 50.3608 12.5081L50.3601 12.5084ZM45.6536 26.8889C45.1306 28.719 43.4312 30.0265 41.4701 30.0265H17.5455C17.171 27.7799 16.7966 25.6208 16.4312 23.5135C15.9034 20.4705 15.3944 17.5354 14.9309 14.6002H48.9216C48.4237 16.5295 47.9259 18.3699 47.4139 20.2624C46.8504 22.3455 46.2698 24.4917 45.6533 26.8892L45.6536 26.8889ZM22.7765 40.2235C19.9004 40.2235 17.678 42.4459 17.678 45.322C17.678 48.0673 19.9004 50.4205 22.7765 50.4205C25.5218 50.4205 27.7442 48.0673 27.7442 45.322C27.7442 42.4459 25.5218 40.2235 22.7765 40.2235ZM22.7765 48.1984C21.0771 48.1984 19.7696 46.891 19.7696 45.3223C19.7696 43.6229 21.0771 42.3154 22.7765 42.3154C24.3455 42.3154 25.6526 43.6229 25.6526 45.3223C25.6526 46.8913 24.3451 48.1984 22.7765 48.1984ZM35.5276 45.322C35.5276 42.4459 37.75 40.2235 40.4954 40.2235C43.3715 40.2235 45.5938 42.4459 45.5938 45.322C45.5938 48.0673 43.3715 50.4205 40.4954 50.4205C37.75 50.4205 35.5276 48.0673 35.5276 45.322ZM37.6193 45.3223C37.6193 46.891 38.9264 48.1984 40.4954 48.1984C42.1948 48.1984 43.5022 46.8913 43.5022 45.3223C43.5022 43.6229 42.1948 42.3154 40.4954 42.3154C38.9267 42.3154 37.6193 43.6229 37.6193 45.3223ZM22.2548 19.5295C22.2548 18.9807 22.6997 18.5358 23.2485 18.5358H40.1413C40.6901 18.5358 41.135 18.9807 41.135 19.5295C41.135 20.0783 40.6901 20.5232 40.1413 20.5232H23.2485C22.6997 20.5232 22.2548 20.0783 22.2548 19.5295ZM25.236 23.5043C24.6872 23.5043 24.2423 23.9492 24.2423 24.498C24.2423 25.0468 24.6872 25.4917 25.236 25.4917H38.154C38.7028 25.4917 39.1477 25.0468 39.1477 24.498C39.1477 23.9492 38.7028 23.5043 38.154 23.5043H25.236Z" fill="url(#paint0_linear_4356_976)"/>
<defs>
<linearGradient id="paint0_linear_4356_976" x1="14.2353" y1="50.4205" x2="54.9964" y2="37.0905" gradientUnits="userSpaceOnUse">
<stop stop-color="#FE5000"/>
<stop offset="1" stop-color="#FCA92A"/>
</linearGradient>
</defs>
</svg>
