<svg width="170" height="35" viewBox="0 0 170 35" fill="none" xmlns="http://www.w3.org/2000/svg">
<mask id="mask0_4358_1093" style="mask-type:alpha" maskUnits="userSpaceOnUse" x="0" y="0" width="170" height="35">
<rect width="170" height="35" fill="#C4C4C4"/>
</mask>
<g mask="url(#mask0_4358_1093)">
</g>
<g clip-path="url(#clip0_4358_1093)">
<path fill-rule="evenodd" clip-rule="evenodd" d="M26.2285 8.58048H15.2202C15.0734 8.58048 15 8.65304 15 8.79816V23.8904C15 24.0355 15.0734 24.108 15.2202 24.108H18.963C19.1098 24.108 19.1832 24.0355 19.1832 23.8904V12.2084H24.9808C25.0543 12.2084 25.1276 12.1359 25.201 12.0633C25.6413 11.0475 26.0817 9.9591 26.522 8.87072V8.65304C26.3753 8.65304 26.3018 8.58048 26.2285 8.58048ZM57.1985 20.4801C57.1985 20.4075 57.1251 20.335 57.0518 20.335H56.8316C55.951 20.6253 54.263 20.9881 53.0154 20.9881C50.4467 20.9881 49.1992 20.335 49.1992 16.3443C49.1992 13.2242 49.5661 11.7005 53.0154 11.7005C53.9695 11.7005 54.9235 11.8456 56.0243 12.2084C56.0977 12.2084 56.2445 12.2084 56.2445 12.0633C56.6848 11.2652 57.1985 10.3219 57.7856 9.08839V8.87072C57.7856 8.79816 57.7123 8.7256 57.6389 8.7256C56.1711 8.29025 54.3363 8.07257 52.7218 8.07257C47.2911 8.07257 44.8692 10.5396 44.8692 16.2717C44.8692 22.0764 47.2911 24.616 52.7218 24.616C54.0428 24.616 56.7582 24.3257 58.0792 23.8178C58.226 23.7452 58.226 23.6727 58.226 23.6001C58.3728 23.5276 57.1985 20.4801 57.1985 20.4801ZM34.815 8.14513C29.4576 8.14513 27.3293 10.3944 27.3293 16.3443C27.3293 22.3666 29.3842 24.616 34.815 24.616C40.2457 24.616 42.374 22.294 42.374 16.3443C42.374 10.467 40.2457 8.14513 34.815 8.14513ZM34.815 21.1332C32.3197 21.1332 31.5859 20.4801 31.5859 16.4168C31.5859 12.0633 32.3931 11.7005 34.815 11.7005C37.2368 11.7005 38.1175 12.0633 38.1175 16.4168C38.1175 20.4801 37.3102 21.1332 34.815 21.1332Z" fill="#0065B1"/>
<path fill-rule="evenodd" clip-rule="evenodd" d="M138.293 8.58047H127.284C127.138 8.58047 127.065 8.65303 127.065 8.79815V23.8903C127.065 24.0355 127.138 24.108 127.284 24.108H131.027C131.174 24.108 131.247 24.0355 131.247 23.8903V12.2084H137.045C137.119 12.2084 137.265 12.1359 137.265 12.0633C137.706 11.0475 138.146 9.95909 138.586 8.8707V8.65303C138.366 8.65303 138.366 8.58047 138.293 8.58047ZM124.349 8.65303H120.533C120.46 8.65303 120.312 8.72559 120.312 8.79815C119.725 11.12 118.552 15.0382 116.863 19.1015L113.047 8.72559C113.047 8.65303 112.901 8.58047 112.826 8.58047H109.01C108.937 8.58047 108.864 8.65303 108.791 8.65303C108.717 8.72559 108.717 8.79815 108.791 8.8707L114.515 24.2531C113.928 25.4141 113.341 26.3573 112.901 27.3732C112.533 28.0262 112.166 28.7518 111.726 29.4774C111.653 29.5499 111.726 29.6225 111.726 29.695C111.799 29.7676 111.872 29.8402 111.947 29.8402H116.056C116.129 29.8402 116.203 29.7676 116.276 29.695C116.936 28.389 117.891 26.5025 118.698 24.616C121.12 18.9564 123.101 13.7321 124.496 8.8707C124.496 8.79815 124.496 8.72559 124.422 8.65303H124.349ZM88.9021 20.4801C88.9021 20.4075 88.8288 20.335 88.7553 20.335H88.5352C87.6545 20.6252 85.9665 20.988 84.719 20.988C82.1504 20.988 80.9027 20.335 80.9027 16.3443C80.9027 13.2242 81.2697 11.7005 84.719 11.7005C85.673 11.7005 86.627 11.8456 87.7279 12.2084C87.8747 12.2084 87.9481 12.2084 87.9481 12.0633C88.3885 11.2651 88.9021 10.3219 89.4893 9.08839V8.8707C89.4893 8.79815 89.4158 8.72559 89.3425 8.72559C87.8013 8.21768 85.9665 8 84.4254 8C79.0681 8 76.6463 10.467 76.6463 16.1991C76.6463 22.0038 79.0681 24.5434 84.4988 24.5434C85.8198 24.5434 88.5352 24.2531 89.8562 23.7452C90.003 23.6727 90.003 23.6001 90.003 23.5276C90.003 23.455 88.9021 20.4801 88.9021 20.4801ZM75.3252 8.65303H71.509C71.3622 8.65303 71.2888 8.72559 71.2888 8.79815C70.7017 11.12 69.5275 15.0382 67.8396 19.1015L64.0968 8.65303C64.0968 8.58047 63.9499 8.50791 63.8766 8.50791H60.0603C59.987 8.50791 59.9136 8.58047 59.8402 8.58047C59.7668 8.65303 59.7668 8.72559 59.8402 8.79815L65.6379 24.1806C65.0508 25.3415 64.4637 26.3573 64.0234 27.3006C63.6564 27.9536 63.2895 28.6793 62.8491 29.4048C62.7758 29.4774 62.8491 29.5499 62.8491 29.6225C62.9225 29.695 62.9959 29.7676 63.0693 29.7676H67.1791C67.2524 29.7676 67.3259 29.695 67.3992 29.6225C68.0597 28.3164 69.0138 26.4299 69.821 24.5434C72.2429 18.8839 74.2243 13.6596 75.6188 8.79815C75.6188 8.72559 75.6188 8.65303 75.5454 8.58047C75.472 8.65303 75.3986 8.65303 75.3252 8.65303ZM154.218 8.58047H150.475C150.329 8.58047 150.256 8.65303 150.256 8.79815V20.4801C149.448 20.6978 148.64 20.7704 147.686 20.7704C145.191 20.7704 144.678 20.0447 144.678 16.7796V8.79815C144.678 8.65303 144.605 8.58047 144.457 8.58047H140.714C140.568 8.58047 140.494 8.65303 140.494 8.79815V17.215C140.494 22.4391 142.256 24.5434 146.879 24.5434C149.448 24.5434 152.457 23.8903 154.145 23.2374C154.218 23.2374 154.291 23.0922 154.291 23.0197V8.79815C154.438 8.65303 154.365 8.58047 154.218 8.58047ZM106.002 8.58047H94.6264C94.4797 8.58047 94.4063 8.65303 94.4063 8.79815C94.1128 13.8773 93.1586 19.3917 91.7643 23.8178V23.9629C91.8377 24.0355 91.9111 24.0355 91.9845 24.0355H95.9474C96.0209 24.0355 96.1676 23.9629 96.1676 23.8903C97.2684 20.4801 98.1491 15.9089 98.4427 12.1359H102.185V23.8903C102.185 24.0355 102.259 24.108 102.406 24.108H106.149C106.295 24.108 106.369 24.0355 106.369 23.8903V8.79815C106.222 8.65303 106.149 8.58047 106.002 8.58047Z" fill="#EE3F58"/>
</g>
<defs>
<clipPath id="clip0_4358_1093">
<rect width="140" height="22" fill="white" transform="translate(15 8)"/>
</clipPath>
</defs>
</svg>
