<svg width="214" height="46" viewBox="0 0 214 46" fill="none" xmlns="http://www.w3.org/2000/svg">
<g clip-path="url(#clip0_1_14561)">
<path d="M73.9012 10.672C73.5208 9.66003 72.9501 9.38403 71.8088 9.38403H68.575C67.4337 9.38403 66.863 9.66003 66.4826 10.764L56.591 36.524C56.2106 37.628 56.4959 38.18 57.7324 38.18H60.5857C62.6781 38.18 63.2488 37.812 63.6292 36.708L64.9608 32.936H75.2328L76.5644 36.708C76.9448 37.904 77.6106 38.18 79.703 38.18H82.7466C83.983 38.18 84.2684 37.628 83.8879 36.524L73.9012 10.672ZM66.7679 27.508L68.9555 21.16C70.0017 18.308 69.9066 16.192 69.9066 16.192H70.287C70.287 16.192 70.3821 18.216 71.3332 21.16L73.5208 27.416C73.5208 27.508 66.7679 27.508 66.7679 27.508ZM102.435 9.38403H82.5564C81.2248 9.38403 80.8444 9.75203 80.8444 11.04V13.8C80.8444 14.996 81.2248 15.456 82.5564 15.456H89.119V36.524C89.119 37.812 89.4995 38.18 90.831 38.18H94.1599C95.4915 38.18 95.8719 37.812 95.8719 36.524V15.364H102.339C103.671 15.364 104.051 14.996 104.051 13.708V11.04C104.147 9.84403 103.671 9.38403 102.435 9.38403ZM120.22 19.964H113.467V15.272H126.022C127.259 15.272 127.734 14.812 127.734 13.616V11.04C127.734 9.75203 127.259 9.38403 126.022 9.38403H108.427C107.19 9.38403 106.715 9.75203 106.715 11.04V36.524C106.715 37.72 107.19 38.088 108.427 38.088H120.315C126.117 38.088 129.827 34.592 129.827 29.072C129.827 23.368 126.022 19.964 120.22 19.964ZM119.269 32.292H113.467V25.852H119.269C121.457 25.852 122.693 27.14 122.693 29.072C122.788 30.912 121.552 32.292 119.269 32.292Z" fill="currentColor"/>
<path d="M142.857 43.148H143.332V4.41602H142.857V43.148ZM158.36 15.456C157.98 15.456 157.314 15.272 156.933 14.996L156.648 15.364C156.933 15.732 157.789 15.916 158.36 15.916C159.406 15.916 160.167 15.456 160.167 14.628C160.167 14.168 159.882 13.708 159.216 13.616C159.787 13.432 159.977 12.972 159.977 12.604C159.977 11.868 159.406 11.5 158.36 11.5C157.694 11.5 157.028 11.684 156.648 12.052L156.838 12.42C157.124 12.144 157.599 11.96 158.265 11.96C158.931 11.96 159.406 12.236 159.406 12.696C159.406 13.156 159.026 13.524 158.455 13.524H157.884V13.892H158.645C159.311 13.892 159.692 14.168 159.692 14.628C159.692 15.18 159.121 15.456 158.36 15.456ZM180.711 11.592H180.236V15.916H180.711V11.592ZM192.22 13.248H189.937V13.8H192.22V13.248ZM183.945 15.824L181.567 13.616L183.755 11.592H183.089L180.901 13.708L183.184 15.916L183.945 15.824ZM164.923 12.236V15.824H165.398V11.5H164.923L161.974 15.088V11.5H161.499V15.824H161.974L164.923 12.236ZM151.036 13.616H154.365L155.412 15.916H155.982L152.939 9.20001H152.463L149.42 15.916H149.99L151.036 13.616ZM152.748 9.84401L154.175 13.064H151.322L152.748 9.84401ZM172.436 15.824H172.912V12.052H174.719V11.592H170.629V12.052H172.436V15.824ZM186.513 11.5C185.086 11.5 184.135 12.42 184.135 13.708C184.135 14.996 185.086 15.916 186.513 15.916C187.94 15.916 188.891 14.996 188.891 13.708C188.891 12.42 187.94 11.5 186.513 11.5ZM186.513 15.456C185.467 15.456 184.706 14.72 184.706 13.708C184.706 12.696 185.467 11.96 186.513 11.96C187.559 11.96 188.32 12.696 188.32 13.708C188.32 14.72 187.654 15.456 186.513 15.456ZM168.347 11.5C167.776 11.5 167.3 11.684 166.92 11.868L167.015 12.236C167.396 12.052 167.776 11.868 168.252 11.868C169.393 11.868 169.393 12.512 169.393 13.524C169.012 13.248 168.537 13.156 168.156 13.156C167.205 13.156 166.444 13.616 166.444 14.536C166.444 15.364 167.015 15.824 167.776 15.824C168.632 15.824 169.012 15.456 169.298 15.088V15.732H169.773V13.064C169.964 12.144 169.583 11.5 168.347 11.5ZM169.488 14.812C169.203 15.088 168.917 15.456 168.156 15.456C167.586 15.456 167.205 15.18 167.205 14.628C167.205 13.984 167.776 13.708 168.442 13.708C168.917 13.708 169.298 13.8 169.583 14.076V14.812H169.488ZM179.189 15.272L178.904 14.904C178.619 15.272 178.048 15.456 177.477 15.456C176.431 15.456 175.67 14.812 175.67 13.708C175.67 12.696 176.526 11.96 177.382 11.96C177.858 11.96 178.428 12.052 178.809 12.42L179.094 12.052C178.714 11.684 178.048 11.5 177.382 11.5C176.146 11.5 175.195 12.512 175.195 13.708C175.195 15.088 176.146 15.916 177.572 15.916C178.143 15.916 178.809 15.732 179.189 15.272ZM186.798 22.264C186.228 22.264 185.752 22.448 185.372 22.632L185.467 23C185.847 22.816 186.228 22.632 186.703 22.632C187.844 22.632 187.844 23.276 187.844 24.288C187.464 24.012 186.988 23.92 186.608 23.92C185.657 23.92 184.896 24.38 184.896 25.3C184.896 26.128 185.467 26.588 186.228 26.588C187.084 26.588 187.464 26.22 187.749 25.852V26.496H188.225V23.92C188.415 22.908 188.035 22.264 186.798 22.264ZM187.94 25.576C187.654 25.852 187.369 26.22 186.608 26.22C186.037 26.22 185.657 25.944 185.657 25.392C185.657 24.748 186.228 24.472 186.893 24.472C187.369 24.472 187.749 24.564 188.035 24.84V25.576H187.94ZM179.57 22.356H178.904L176.716 24.472L178.999 26.68H179.665L177.287 24.472L179.57 22.356ZM193.266 24.196H190.412V22.356H189.937V26.68H190.412V24.748H193.266V26.68H193.741V22.356H193.266V24.196ZM182.233 22.264C180.806 22.264 179.95 23.276 179.95 24.472C179.95 25.852 180.901 26.68 182.328 26.68C182.899 26.68 183.564 26.496 183.945 26.036L183.755 25.668C183.469 25.944 182.899 26.22 182.328 26.22C181.282 26.22 180.521 25.576 180.521 24.564H184.23C184.23 24.472 184.23 24.288 184.23 24.196C184.23 23 183.374 22.264 182.233 22.264ZM180.521 24.196C180.616 23.368 181.187 22.724 182.138 22.724C183.089 22.724 183.66 23.276 183.66 24.196H180.521ZM205.155 25.944V22.356H204.679V26.68H205.155L208.103 23.092V26.68H208.579V22.356H208.103L205.155 25.944ZM213.524 22.356L210.576 25.944V22.356H210.1V26.68H210.576L213.524 23.092V26.68H214V22.356C214.095 22.356 213.524 22.356 213.524 22.356ZM212.193 21.344C212.954 21.344 213.524 20.792 213.524 20.148H213.049C213.049 20.608 212.668 20.976 212.193 20.976C211.622 20.976 211.242 20.608 211.242 20.148H210.766C210.766 20.792 211.242 21.344 212.193 21.344ZM152.083 26.588H152.653V20.424H155.221V19.964H149.515V20.424H152.083V26.588ZM197.26 26.22C196.214 26.22 195.453 25.576 195.453 24.472C195.453 23.46 196.309 22.724 197.165 22.724C197.641 22.724 198.212 22.816 198.592 23.184L198.877 22.816C198.497 22.448 197.831 22.264 197.165 22.264C195.929 22.264 194.978 23.276 194.978 24.472C194.978 25.852 195.929 26.68 197.356 26.68C198.021 26.68 198.687 26.404 199.068 25.944L198.782 25.576C198.402 26.036 197.831 26.22 197.26 26.22ZM203.538 22.356H202.872L200.684 24.472L202.967 26.68H203.633L201.255 24.472L203.538 22.356ZM199.924 26.588H200.399V22.264H199.924V26.588ZM172.436 22.264C171.01 22.264 170.059 23.184 170.059 24.472C170.059 25.76 171.01 26.68 172.436 26.68C173.863 26.68 174.814 25.76 174.814 24.472C174.814 23.184 173.863 22.264 172.436 22.264ZM172.436 26.22C171.39 26.22 170.629 25.484 170.629 24.472C170.629 23.46 171.39 22.724 172.436 22.724C173.483 22.724 174.244 23.46 174.244 24.472C174.244 25.484 173.483 26.22 172.436 26.22ZM169.203 24.472C169.203 23.184 168.252 22.264 166.825 22.264C165.398 22.264 164.447 23.184 164.447 24.472C164.447 25.76 165.398 26.68 166.825 26.68C168.252 26.68 169.203 25.76 169.203 24.472ZM165.113 24.472C165.113 23.46 165.874 22.724 166.92 22.724C167.966 22.724 168.727 23.46 168.727 24.472C168.727 25.484 167.966 26.22 166.92 26.22C165.874 26.22 165.113 25.484 165.113 24.472ZM175.956 26.588H176.431V22.264H175.956V26.588ZM163.496 26.588H164.162L162.355 24.38L164.067 22.264H163.496L162.069 24.012L160.643 22.264H159.977L161.689 24.38L159.882 26.588H160.452L161.974 24.656L163.496 26.588ZM158.36 26.588H158.836V22.264H158.36L155.412 25.852V22.264H154.936V26.588H155.412L158.36 23V26.588ZM169.488 33.12H168.822L166.635 35.236L168.917 37.444H169.583L167.205 35.236L169.488 33.12ZM157.504 33.028C156.933 33.028 156.458 33.212 156.077 33.396L156.172 33.764C156.553 33.58 156.933 33.396 157.409 33.396C158.55 33.396 158.55 34.04 158.55 35.052C158.17 34.776 157.694 34.684 157.314 34.684C156.363 34.684 155.602 35.144 155.602 36.064C155.602 36.892 156.172 37.352 156.933 37.352C157.789 37.352 158.17 36.984 158.455 36.616V37.26H158.931V34.592C159.121 33.672 158.74 33.028 157.504 33.028ZM158.645 36.34C158.36 36.616 158.075 36.984 157.314 36.984C156.743 36.984 156.363 36.708 156.363 36.156C156.363 35.512 156.933 35.236 157.599 35.236C158.075 35.236 158.455 35.328 158.74 35.604V36.34H158.645ZM165.874 37.352H166.349V33.12H165.874V37.352ZM163.972 34.96H161.118V33.12H160.643V37.444H161.118V35.512H163.972V37.444H164.447V33.12H163.972V34.96ZM152.273 33.396C151.988 33.396 151.512 33.396 151.132 33.488V31.188H154.365V30.728H150.561V37.444C150.941 37.444 151.512 37.444 152.083 37.444C153.7 37.444 154.746 36.708 154.746 35.328C154.746 34.132 153.89 33.396 152.273 33.396ZM152.178 36.892C151.797 36.892 151.417 36.892 151.132 36.892V33.948C151.512 33.856 151.988 33.856 152.273 33.856C153.604 33.856 154.27 34.408 154.27 35.328C154.175 36.34 153.509 36.892 152.178 36.892Z" fill="currentColor"/>
<path d="M39.5662 0.092041H7.89422C3.51911 0.092041 0 3.49604 0 7.72804V38.364C0 42.596 3.51911 46 7.89422 46H39.5662C43.9413 46 47.4604 42.596 47.4604 38.364V7.72804C47.4604 3.49604 43.9413 0.092041 39.5662 0.092041ZM44.9876 37.536C44.8924 37.628 44.7973 37.628 44.7022 37.628C38.6151 34.04 31.3867 32.016 23.7778 32.016C16.1689 32.016 8.94044 34.04 2.75822 37.628C2.66311 37.72 2.47289 37.628 2.47289 37.536C2.37778 37.444 2.37778 37.26 2.568 37.26C8.08444 33.12 12.9351 27.876 16.5493 21.62C20.2587 15.456 22.5413 8.83204 23.4924 2.11604C23.4924 2.02404 23.5876 1.93204 23.7778 1.93204C23.8729 1.93204 23.968 2.02404 24.0631 2.11604C25.0142 8.83204 27.2969 15.456 31.0062 21.62C34.7156 27.784 39.4711 33.028 45.0827 37.168C45.0827 37.26 45.0827 37.444 44.9876 37.536Z" fill="#FE5000"/>
</g>
<defs>
<clipPath id="clip0_1_14561">
<rect width="214" height="46" fill="white"/>
</clipPath>
</defs>
</svg>
