<svg width="405" height="47" viewBox="0 0 405 47" fill="none" xmlns="http://www.w3.org/2000/svg">
<path d="M292.598 38.2119V0.716064H300.044V35.1524C300.044 38.3204 300.885 39.9044 302.569 39.9044C303.518 39.9044 304.533 39.5139 305.612 38.7327L307.166 44.4612C305.137 46.1103 302.569 46.9349 299.461 46.9349C294.885 46.9349 292.598 44.0272 292.598 38.2119Z" fill="#464945"/>
<path d="M320.493 46.2839H313.047V16.9903H320.493V46.2839ZM312.27 6.4446C312.27 5.14266 312.702 4.10111 313.565 3.31994C314.471 2.49538 315.594 2.0831 316.932 2.0831C318.097 2.0831 319.09 2.49538 319.91 3.31994C320.774 4.14451 321.205 5.18606 321.205 6.4446C321.205 7.83333 320.774 8.96168 319.91 9.82964C319.09 10.6976 318.097 11.1316 316.932 11.1316C315.594 11.1316 314.471 10.6976 313.565 9.82964C312.702 8.96168 312.27 7.83333 312.27 6.4446Z" fill="#464945"/>
<path d="M337.673 46.2839H330.227V12.2382C330.227 8.28901 331.134 5.27285 332.947 3.18975C334.76 1.06325 337.307 0 340.587 0C344.256 0 346.976 0.911358 348.745 2.73407L346.22 8.4626C345.271 7.50785 343.846 7.03047 341.947 7.03047C339.098 7.03047 337.673 8.96168 337.673 12.8241V16.9903H345.573V24.0208H337.673V46.2839Z" fill="#464945"/>
<path d="M373.499 38.0817L375.636 43.3546C372.744 45.7849 369.032 47 364.499 47C359.838 47 356.039 45.5896 353.104 42.7687C350.255 39.9912 348.83 36.2807 348.83 31.6371C348.83 27.2973 350.233 23.6519 353.039 20.7008C355.845 17.7498 359.579 16.2742 364.24 16.2742C368.082 16.2742 371.341 17.5545 374.017 20.115C376.694 22.6754 378.032 25.9303 378.032 29.8795C378.032 31.6154 377.881 32.9608 377.578 33.9155H356.535C356.838 36.042 357.766 37.7128 359.32 38.928C360.917 40.1431 362.902 40.7507 365.276 40.7507C368.514 40.7507 371.255 39.861 373.499 38.0817ZM363.917 22.5235C359.686 22.5235 357.14 24.65 356.276 28.903H370.586C370.629 27.0369 370.025 25.518 368.773 24.3463C367.564 23.1311 365.945 22.5235 363.917 22.5235Z" fill="#464945"/>
<path fill-rule="evenodd" clip-rule="evenodd" d="M6.6043 6.77008C2.20143 11.2835 0 16.8601 0 23.5C0 30.4871 2.22302 36.1505 6.66905 40.4903C11.1151 44.8301 16.7482 47 23.5683 47C30.3453 47 35.9783 44.7867 40.4675 40.3601C44.9567 35.9335 47.2013 30.3135 47.2013 23.5C47.2013 16.5563 44.9567 10.8929 40.4675 6.5097C36.0215 2.1699 30.3884 0 23.5683 0C16.7482 0 11.0935 2.25669 6.6043 6.77008ZM12.7554 34.9571C9.86329 31.9192 8.41725 28.1002 8.41725 23.5C8.41725 18.813 9.84171 14.9723 12.6906 11.9778C15.5827 8.98338 19.2086 7.48615 23.5683 7.48615C27.8417 7.48615 31.446 8.98338 34.3812 11.9778C37.3165 15.0157 38.7841 18.8564 38.7841 23.5C38.7841 28.1002 37.4028 31.9192 34.6402 34.9571C31.9208 37.9949 28.2302 39.5139 23.5683 39.5139C19.2518 39.5139 15.6475 37.9949 12.7554 34.9571ZM64.3813 46.2839V29.2285H69.9497L82.446 46.2839H92.0935L77.9137 27.6662C80.2014 26.885 82.2302 25.4095 84 23.2396C85.7698 20.9829 86.6547 18.1187 86.6547 14.6468C86.6547 5.27285 81.1727 0.585874 70.2087 0.585874C68.5252 0.585874 66.3669 0.607573 63.7339 0.65097C61.1008 0.694367 58.6619 0.716064 56.4173 0.716064V46.2839H64.3813ZM68.7842 8.13712C69.259 8.09372 69.6043 8.07202 69.8202 8.07202C75.4317 8.07202 78.2374 10.2853 78.2374 14.7119C78.2374 16.8818 77.4173 18.596 75.777 19.8546C74.1799 21.1131 72.1079 21.7424 69.5612 21.7424H64.3813V8.20222H66.777C67.6403 8.15882 68.3094 8.13712 68.7842 8.13712ZM100.857 46.2839H92.828L111.993 0.585874H118.986L138.152 46.2839H129.67L124.943 34.6316H105.583L100.857 46.2839ZM121.9 27.1454L115.296 10.9363L108.627 27.1454H121.9ZM177.314 46.2839H183.659V0.716064H176.213V32.4183L151.285 0.716064H144.94V46.2839H152.386V14.7119L177.314 46.2839ZM226.004 29.2285H215.062V21.7424H233.45V40.6205C231.508 42.5734 228.918 44.1357 225.68 45.3075C222.443 46.4358 219.378 47 216.486 47C209.148 47 203.364 44.8735 199.134 40.6205C194.947 36.4109 192.853 30.7041 192.853 23.5C192.853 16.8167 194.925 11.2401 199.069 6.77008C203.213 2.25669 208.673 0 215.45 0C221.234 0 226.09 1.54063 230.019 4.62188L226.652 11.0014C225.529 9.91643 224.04 9.07017 222.184 8.4626C220.328 7.81163 218.407 7.48615 216.421 7.48615C211.889 7.48615 208.242 8.91828 205.479 11.7825C202.673 14.6034 201.27 18.5092 201.27 23.5C201.27 28.3172 202.673 32.2013 205.479 35.1524C208.242 38.06 211.954 39.5139 216.616 39.5139C218.256 39.5139 220.026 39.2101 221.925 38.6025C223.824 37.9515 225.184 37.2138 226.004 36.3892V29.2285ZM243.264 46.2839H270.134V38.7978H251.228V27.0152H267.544V19.5291H251.228V8.20222H269.487V0.716064H243.264V46.2839ZM398.525 46.2839C402.101 46.2839 405 43.3694 405 39.7742C405 36.179 402.101 33.2645 398.525 33.2645C394.949 33.2645 392.05 36.179 392.05 39.7742C392.05 43.3694 394.949 46.2839 398.525 46.2839Z" fill="url(#paint0_linear)"/>
<defs>
<linearGradient id="paint0_linear" x1="83.5313" y1="47" x2="130.673" y2="-80.1339" gradientUnits="userSpaceOnUse">
<stop stop-color="#FE5000"/>
<stop offset="1" stop-color="#FCA92A"/>
</linearGradient>
</defs>
</svg>
