<svg width="56" height="56" viewBox="0 0 56 56" fill="none" xmlns="http://www.w3.org/2000/svg">
<path d="M49.9116 44.3L48.1674 38.2368C48.1258 38.1122 48.0428 37.9876 47.9597 37.9045C46.88 34.6238 44.2221 32.0905 40.8583 31.2184L40.36 31.1354C39.6124 30.9277 38.7819 31.1769 38.242 31.7998C36.4147 33.8762 34.0891 34.0424 31.6389 34.0424C29.1887 34.0424 26.8631 33.8762 25.0359 31.7998C24.496 31.1769 23.6654 30.9277 22.9179 31.1354L22.4196 31.2599C19.8863 31.9244 17.7268 33.544 16.3564 35.7035H11.1237C11.0822 35.7035 11.0822 35.7035 11.0407 35.662C11.0407 35.6205 10.9992 35.5789 10.9992 35.4959L12.0789 31.6337C13.0341 28.6021 14.8613 27.6885 18.4328 26.7748C18.5989 26.7333 18.7235 26.6502 18.8066 26.5672C19.0973 26.8164 19.4295 27.024 19.7617 27.1901C19.8863 27.2732 20.0109 27.2732 20.1355 27.2732C20.4262 27.2732 20.7169 27.1071 20.883 26.8164C21.0906 26.4011 20.9245 25.9027 20.5092 25.6951C18.5989 24.6984 17.2285 21.8744 17.2285 18.9674C17.2285 16.3927 19.3464 14.2747 21.9212 14.2747C22.4196 14.2747 22.8764 14.3577 23.3332 14.4823C22.8764 15.6036 22.6272 16.8079 22.6272 18.0953C22.6272 25.1967 26.9047 31.1769 31.9712 31.1769C36.9546 31.1769 41.3567 25.0722 41.3567 18.0953C41.3567 12.9042 37.1623 8.70984 31.9712 8.70984C28.6904 8.70984 25.7834 10.4125 24.1222 12.9873C23.4162 12.7381 22.6687 12.6135 21.9212 12.6135C19.6787 12.6135 17.6853 13.8179 16.564 15.6036C16.481 15.5206 16.3979 15.479 16.3148 15.4375C15.6919 15.1053 15.069 14.9807 14.363 14.9807C12.0374 14.9391 10.1686 16.8079 10.1686 19.1335C10.1686 20.4625 10.5423 21.7083 11.1237 22.705C9.21342 23.2034 7.51074 23.9509 6.7217 26.4841L6.05724 28.8928C5.93265 29.3081 6.01571 29.7649 6.26488 30.0971C6.51405 30.4709 6.97087 30.6785 7.42769 30.6785H10.6254C10.5839 30.8447 10.5008 31.0108 10.4593 31.1769L9.37954 35.0806C9.21342 35.6205 9.33801 36.2019 9.71177 36.6587C10.044 37.1155 10.5423 37.3647 11.1237 37.3647H15.5258C15.4012 37.6554 15.3181 37.9461 15.2351 38.2368L13.4909 44.3415C13.3248 45.0475 13.4494 45.795 13.9062 46.3764C14.363 46.9578 15.0274 47.29 15.7334 47.29H40.6507H42.0626H47.669C48.375 47.29 49.081 46.9578 49.4963 46.3764C49.9531 45.795 50.1192 45.0475 49.9116 44.3ZM25.1189 14.6069C25.1605 14.5654 25.202 14.5239 25.2435 14.4408C25.285 14.3993 25.285 14.3162 25.3266 14.2747C26.614 11.9491 29.1057 10.371 31.9712 10.371C35.4181 10.371 38.3251 12.6551 39.3217 15.7697C37.8682 16.0604 36.3317 15.479 35.4181 14.2332C35.1273 13.8594 34.629 13.7763 34.2552 14.067C34.0891 14.1916 34.0061 14.3162 33.9645 14.4823C33.923 14.5239 33.923 14.5654 33.8815 14.6069C32.7187 16.9741 28.815 17.9707 24.3714 17.0986C24.496 16.2265 24.7452 15.396 25.1189 14.6069ZM27.4445 19.0505C30.7668 19.0505 33.5077 18.0123 34.9197 16.0604C35.9579 16.9741 37.2453 17.4724 38.6158 17.4724C38.948 17.4724 39.3218 17.4309 39.654 17.3478C39.6955 17.597 39.6955 17.8046 39.6955 18.0538C39.6955 24.1585 36.0825 29.5157 31.9712 29.5157C28.0259 29.5157 24.5791 24.5738 24.2884 18.7598C25.3681 18.9674 26.4478 19.0505 27.4445 19.0505ZM7.75992 29.0174L8.34132 26.941C8.83966 25.2383 9.87788 24.7399 11.9543 24.2416C12.0789 24.2001 12.2035 24.1585 12.2865 24.0755C12.4942 24.2416 12.6603 24.3662 12.9095 24.4908C13.0341 24.5738 13.1587 24.5738 13.2832 24.5738C13.5739 24.5738 13.8646 24.4077 14.0308 24.117C14.2384 23.7017 14.0723 23.2034 13.6985 22.9957C12.6188 22.4143 11.8297 20.7947 11.8297 19.1335C11.8297 17.7216 12.951 16.6003 14.363 16.6003C14.8198 16.6003 15.1936 16.6834 15.5673 16.891C15.6919 16.9325 15.775 16.9741 15.8995 16.9741C15.6919 17.597 15.5673 18.2614 15.5673 18.9674C15.5673 21.3346 16.3564 23.6602 17.6022 25.2798C15.1105 25.9027 12.9095 26.7333 11.456 29.0174H7.75992ZM48.2089 45.3797C48.1258 45.4628 47.9597 45.6289 47.669 45.6289H42.0626H40.6507H15.7334C15.4427 45.6289 15.2766 45.4628 15.1936 45.3797C15.069 45.2136 15.0274 44.9644 15.069 44.7983L16.8132 38.7351C17.6438 35.8696 19.9278 33.6271 22.8348 32.8796L23.3332 32.755C23.4578 32.7134 23.6654 32.7965 23.79 32.9211C26.0741 35.5374 28.898 35.745 31.6389 35.745C34.3798 35.745 37.2038 35.5374 39.4879 32.9211C39.6124 32.7965 39.7786 32.7134 39.9862 32.755L40.4846 32.8796C43.35 33.6271 45.6756 35.8696 46.5062 38.7351L47.2537 41.3099C47.2953 41.4345 47.3368 41.5175 47.4198 41.6006L48.3335 44.7568C48.375 44.9644 48.3335 45.2136 48.2089 45.3797Z" fill="#7F94A8"/>
</svg>
