<svg width="44" height="44" viewBox="0 0 44 44" fill="none" xmlns="http://www.w3.org/2000/svg">
<path d="M32.4478 13.527H11.2123C10.8726 13.527 10.6177 13.7818 10.6177 14.1216C10.6177 14.4614 10.8726 14.6313 11.1274 14.6313H32.4478C32.7876 14.6313 32.9575 14.3764 32.9575 14.1216C33.0424 13.7818 32.7876 13.527 32.4478 13.527ZM32.4478 19.473H11.2123C10.8726 19.473 10.7027 19.7278 10.7027 19.9826C10.7027 20.3224 10.9575 20.4923 11.2123 20.4923H32.5328C32.8725 20.4923 33.0424 20.2374 33.0424 19.9826C33.0424 19.7278 32.7876 19.473 32.4478 19.473ZM25.4826 23.3803H18.1776C17.8378 23.3803 17.6679 23.6351 17.6679 23.8899C17.6679 24.2297 17.9227 24.3996 18.1776 24.3996H25.4826C25.8224 24.3996 25.9922 24.1448 25.9922 23.8899C26.0772 23.6351 25.8224 23.3803 25.4826 23.3803ZM32.4478 16.5H16.5637C16.2239 16.5 16.054 16.7548 16.054 17.0096C16.054 17.3494 16.3088 17.5193 16.5637 17.5193H32.4478C32.7876 17.5193 32.9575 17.2645 32.9575 17.0096C33.0424 16.7548 32.7876 16.5 32.4478 16.5ZM14.0154 16.5H11.2123C10.8726 16.5 10.7027 16.7548 10.7027 17.0096C10.7027 17.3494 10.9575 17.5193 11.2123 17.5193H14.1004C14.4401 17.5193 14.61 17.2645 14.61 17.0096C14.61 16.7548 14.3552 16.5 14.0154 16.5ZM38.9884 7.07141H4.67178C3.82236 7.07141 3.14282 7.75095 3.14282 8.60037V31.7896C3.14282 32.639 3.82236 33.3185 4.67178 33.3185H27.6911L26.8417 35.0174C26.7567 35.2722 26.7567 35.527 26.9266 35.6969C27.0965 35.8668 27.3513 35.9517 27.5212 35.9517L29.0502 35.6969L29.8996 37.056C29.9845 37.2258 30.2393 37.3957 30.4942 37.3957C30.749 37.3957 30.9189 37.2258 31.0888 37.056L32.5328 33.998L33.9768 37.056C34.0617 37.3108 34.3166 37.3957 34.5714 37.3957C34.8262 37.3957 34.9961 37.3108 35.166 37.056L36.0154 35.6969L37.5444 35.9517C37.7992 35.9517 38.054 35.8668 38.139 35.6969C38.3088 35.527 38.3088 35.2722 38.2239 35.0174L37.3745 33.3185H38.9884C39.8378 33.3185 40.5173 32.639 40.5173 31.7896V8.60037C40.5173 7.75095 39.8378 7.07141 38.9884 7.07141ZM30.4092 35.7818L29.8146 34.8475C29.6448 34.5926 29.3899 34.5077 29.1351 34.5077L28.2007 34.6776L29.22 32.554C29.6448 32.9787 30.2393 33.1486 30.8339 33.1486C31.0038 33.1486 31.2586 33.1486 31.4285 33.3185C31.5135 33.3185 31.5135 33.4035 31.5984 33.4035L30.4092 35.7818ZM32.6177 32.554C32.5328 32.554 32.4478 32.554 32.3629 32.554C32.193 32.554 32.1081 32.4691 32.0231 32.3842C31.6834 32.1293 31.2587 32.0444 30.9189 32.0444C30.8339 32.0444 30.8339 32.0444 30.749 32.0444C30.4092 32.0444 30.0695 31.8745 29.8996 31.5347C29.8146 31.3648 29.7297 31.2799 29.6448 31.11C29.4749 30.9401 29.22 30.7703 28.9652 30.6004C28.6254 30.4305 28.4556 30.0907 28.4556 29.7509C28.5405 29.3262 28.3706 28.8166 28.1158 28.4768C27.9459 28.222 27.9459 27.7973 28.1158 27.4575C28.3706 27.1177 28.5405 26.6081 28.4556 26.1834C28.4556 25.8436 28.6254 25.5038 28.9652 25.334C29.3899 25.1641 29.7297 24.8243 29.8996 24.3996C30.0695 24.0598 30.4092 23.8899 30.749 23.8899C31.1737 23.9749 31.6834 23.805 32.0231 23.5502C32.278 23.3803 32.7027 23.3803 33.0424 23.5502C33.3822 23.805 33.8919 23.9749 34.3166 23.8899C34.6563 23.8899 34.9961 24.0598 35.166 24.3996C35.3359 24.8243 35.6756 25.1641 36.1003 25.334C36.4401 25.5038 36.61 25.8436 36.61 26.1834C36.5251 26.6081 36.6949 27.1177 36.9498 27.4575C37.1197 27.7123 37.1197 28.137 36.9498 28.4768C36.6949 28.8166 36.5251 29.3262 36.61 29.7509C36.61 30.0907 36.4401 30.4305 36.1003 30.6004C35.8455 30.6853 35.5907 30.8552 35.4208 31.11C35.3359 31.195 35.2509 31.3648 35.166 31.5347C34.9961 31.8745 34.6563 32.0444 34.3166 32.0444C33.8919 31.9594 33.3822 32.1293 33.0424 32.3842C32.8726 32.4691 32.7876 32.554 32.6177 32.554ZM35.8455 34.5077C35.5907 34.5077 35.3359 34.5926 35.166 34.8475L34.5714 35.7818L33.4671 33.4035C33.5521 33.4035 33.5521 33.3185 33.637 33.3185C33.8069 33.2336 33.9768 33.1486 34.2316 33.1486C34.8262 33.2336 35.4208 32.9787 35.8455 32.554L36.8648 34.6776L35.8455 34.5077ZM39.4131 31.7896C39.4131 32.0444 39.2432 32.2143 38.9884 32.2143H36.8648L36.61 31.6197C36.61 31.6197 36.61 31.6197 36.6949 31.6197C37.4594 31.2799 37.8841 30.5154 37.7992 29.666C37.7992 29.4961 37.7992 29.2413 37.9691 29.0714C38.4787 28.3919 38.4787 27.4575 37.9691 26.778C37.8841 26.6081 37.7992 26.4382 37.7992 26.1834C37.8841 25.334 37.4594 24.5695 36.6949 24.2297C36.5251 24.1448 36.3552 23.9749 36.2702 23.805C35.9305 23.0405 35.166 22.6158 34.3166 22.7008C34.1467 22.7008 33.8919 22.7008 33.722 22.5309C33.0424 22.0212 32.1081 22.0212 31.4285 22.5309C31.2586 22.6158 31.0888 22.7008 30.8339 22.7008C29.9845 22.6158 29.22 23.0405 28.8803 23.805C28.7953 23.9749 28.6254 24.1448 28.4556 24.2297C27.6911 24.5695 27.2664 25.334 27.3513 26.1834C27.3513 26.3533 27.3513 26.6081 27.1814 26.778C26.6718 27.4575 26.6718 28.3919 27.1814 29.0714C27.2664 29.2413 27.3513 29.4112 27.3513 29.666C27.2664 30.5154 27.6911 31.2799 28.4556 31.6197C28.4556 31.6197 28.4556 31.6197 28.5405 31.6197L28.2007 32.2143H4.67178C4.41695 32.2143 4.24707 32.0444 4.24707 31.7896V8.60037C4.24707 8.34554 4.41695 8.17566 4.67178 8.17566H38.9884C39.2432 8.17566 39.4131 8.34554 39.4131 8.60037V31.7896ZM32.4478 24.4845C30.5791 24.4845 29.0502 26.0135 29.0502 27.8822C29.0502 29.7509 30.5791 31.2799 32.4478 31.2799C34.3166 31.2799 35.8455 29.7509 35.8455 27.8822C35.8455 26.0135 34.3166 24.4845 32.4478 24.4845ZM32.4478 30.2606C31.1737 30.2606 30.1544 29.2413 30.1544 27.9672C30.1544 26.693 31.1737 25.6737 32.4478 25.6737C33.722 25.6737 34.7413 26.693 34.7413 27.9672C34.7413 29.1564 33.722 30.2606 32.4478 30.2606Z" fill="#7F94A8"/>
</svg>
