<svg width="56" height="56" viewBox="0 0 56 56" fill="none" xmlns="http://www.w3.org/2000/svg">
<path d="M31.8181 14.9774V11.7078C31.8181 5.43075 7 5.43075 7 11.7078V30.832C7 33.2996 10.8626 34.8378 15.5094 35.3847C13.8097 36.1469 12.7273 37.1766 12.7273 38.4817V44.219C12.7273 47.3575 18.97 49 25.1364 49C31.3028 49 37.5455 47.3574 37.5455 44.219V41.3345C43.385 41.174 49 39.5458 49 36.5693V19.3575C48.9999 15.3948 39.1118 13.9367 31.8181 14.9774ZM19.4091 8.90908C26.2028 8.90908 29.9091 10.8004 29.9091 11.7727C29.9091 12.745 26.2027 14.6364 19.4091 14.6364C12.6155 14.6364 8.90915 12.745 8.90915 11.7727C8.90906 10.8005 12.6154 8.90908 19.4091 8.90908ZM8.90906 14.429C11.2253 15.8231 15.3281 16.5455 19.409 16.5455C23.49 16.5455 27.5928 15.8231 29.9091 14.429V15.3776C26.5918 16.1133 24.1818 17.4568 24.1818 19.4091V19.9739C22.6858 20.2139 21.071 20.3636 19.4091 20.3636C12.6154 20.3636 8.90915 18.4723 8.90915 17.5V14.429H8.90906ZM26.0909 33.5199C26.2725 33.6292 26.4615 33.7354 26.6644 33.8363C26.4733 33.8284 26.2826 33.8206 26.0909 33.8156V33.5199ZM8.90906 20.1563C11.2253 21.5503 15.3281 22.2728 19.409 22.2728C21.0613 22.2728 22.6674 22.1244 24.1817 21.8982V26.6558C22.6857 26.8958 21.0709 27.0455 19.409 27.0455C12.6153 27.0455 8.90906 25.1541 8.90906 24.1818V20.1563ZM8.90906 30.8637V26.8381C11.2253 28.2322 15.3281 28.9546 19.409 28.9546C21.0613 28.9546 22.6674 28.8063 24.1817 28.58V33.3376C22.6857 33.5776 21.0709 33.7273 19.409 33.7273C12.6154 33.7273 8.90906 31.8359 8.90906 30.8637ZM35.6363 44.2273C35.6363 45.1996 31.93 47.0909 25.1364 47.0909C18.3428 47.0909 14.6363 45.1996 14.6363 44.2273V41.1562C16.9526 42.5503 21.0553 43.2727 25.1363 43.2727C29.0426 43.2727 32.9743 42.6125 35.3354 41.3336C35.4345 41.3374 35.5366 41.3378 35.6362 41.3408V44.2273H35.6363ZM25.1364 41.3637C18.3427 41.3637 14.6364 39.4723 14.6364 38.5C14.6364 37.5277 18.3428 35.6364 25.1364 35.6364C31.93 35.6364 35.6363 37.5277 35.6363 38.5C35.6363 39.4723 31.93 41.3637 25.1364 41.3637ZM47.0909 36.591C47.0909 37.5148 43.7085 39.2495 37.5454 39.4215V38.5C37.5454 37.3074 36.6429 36.3434 35.1871 35.6048C35.6539 35.6237 36.1221 35.6364 36.5908 35.6364C40.6717 35.6364 44.7746 34.9139 47.0908 33.5199V36.591H47.0909ZM47.0909 30.8637C47.0909 31.836 43.3845 33.7273 36.5909 33.7273C29.7973 33.7273 26.0909 31.836 26.0909 30.8637V27.7926C28.4071 29.1867 32.51 29.9091 36.5909 29.9091C40.6718 29.9091 44.7747 29.1867 47.0909 27.7926V30.8637ZM47.0909 25.1364C47.0909 26.1087 43.3845 28.0001 36.5909 28.0001C29.7973 28.0001 26.0909 26.1087 26.0909 25.1364V22.0653C28.4071 23.4594 32.51 24.1818 36.5909 24.1818C40.6718 24.1818 44.7747 23.4594 47.0909 22.0653V25.1364ZM36.5909 22.2728C29.7972 22.2728 26.0909 20.3814 26.0909 19.4091C26.0909 18.4369 29.7973 16.5455 36.5909 16.5455C43.3845 16.5455 47.0909 18.4369 47.0909 19.4091C47.0909 20.3814 43.3845 22.2728 36.5909 22.2728Z" fill="#7F94A8"/>
</svg>
