<svg width="44" height="44" viewBox="0 0 44 44" fill="none" xmlns="http://www.w3.org/2000/svg">
<path d="M35.2 6H8.8C6.9 6 5.3 7.6 5.3 9.5V33.1C5.3 35 6.9 36.6 8.8 36.6H25.5C25.9 36.6 26.2 36.3 26.2 35.9C26.2 35.5 25.9 35.2 25.5 35.2H8.8C7.7 35.2 6.7 34.3 6.7 33.1V12.9H37.3V27.5C37.3 27.9 37.6 28.2 38 28.2C38.4 28.2 38.7 27.9 38.7 27.5V9.5C38.7 7.6 37.1 6 35.2 6ZM37.3 11.6H6.7V9.5C6.7 8.4 7.6 7.4 8.8 7.4H35.2C36.3 7.4 37.3 8.3 37.3 9.5V11.6ZM8.8 10.2C9.2 10.2 9.5 9.9 9.5 9.5C9.5 9.1 9.2 8.8 8.8 8.8C8.4 8.8 8.1 9.1 8.1 9.5C8.1 9.9 8.4 10.2 8.8 10.2ZM11.6 10.2C12 10.2 12.3 9.9 12.3 9.5C12.3 9.1 12 8.8 11.6 8.8C11.2 8.8 10.9 9.1 10.9 9.5C10.9 9.9 11.2 10.2 11.6 10.2ZM14.4 10.2C14.8 10.2 15.1 9.9 15.1 9.5C15.1 9.1 14.8 8.8 14.4 8.8C14 8.8 13.7 9.1 13.7 9.5C13.7 9.9 14 10.2 14.4 10.2ZM38.5 31.2L28.8 21.5C28.6 21.3 28.3 21.2 28 21.3C27.7 21.4 27.6 21.7 27.6 21.9V35.8C27.6 36.1 27.8 36.3 28 36.4C28.3 36.5 28.6 36.4 28.8 36.2L30.9 34.1L32.6 37.4C32.7 37.6 32.8 37.7 33 37.7C33.1 37.7 33.1 37.7 33.2 37.7C33.3 37.7 33.4 37.7 33.5 37.6L36.2 36.2C36.5 36 36.7 35.6 36.5 35.3L34.9 32.2H37.9C38.2 32.2 38.4 32 38.5 31.8C38.7 31.7 38.7 31.4 38.5 31.2ZM33.8 31C33.6 31 33.3 31.1 33.2 31.3C33.1 31.5 33.1 31.8 33.2 32L35 35.5L33.5 36.3L31.7 32.8C31.6 32.6 31.4 32.5 31.2 32.4H31.1C30.9 32.4 30.7 32.5 30.6 32.6L29 34.2V23.6L36.4 31H33.8Z" fill="#7F94A8"/>
</svg>
