<svg width="56" height="56" viewBox="0 0 56 56" fill="none" xmlns="http://www.w3.org/2000/svg">
<g clip-path="url(#clip0_2_83287)">
<path d="M51.2969 14.5607H45.175L42.55 8.86866C42.3906 8.5194 41.9594 8.35893 41.6125 8.5194L39.0438 9.71822L31.2625 4.12058C30.9531 3.89403 30.5031 3.96955 30.2781 4.29049L23.0031 14.5607H4.70313C4.30938 14.5607 4 14.8816 4 15.2687V40.7271C4 41.1141 4.31875 41.435 4.70313 41.435H10.825L13.45 47.1271C13.6094 47.4763 14.0313 47.6368 14.3875 47.4763L16.9563 46.2775L24.7375 51.8752C25.0469 52.1017 25.4969 52.0262 25.7219 51.7053L32.9969 41.435H51.2875C51.6813 41.435 51.9906 41.1141 51.9906 40.7271V15.2687C52 14.8816 51.6813 14.5607 51.2969 14.5607ZM41.5656 10.1052L43.6188 14.5607H32.0219L41.5656 10.1052ZM31.0188 5.69698L37.5813 10.4073L28.6844 14.5607H24.7375L31.0188 5.69698ZM20.5 35.0539V39.9342C20.5 39.9625 20.5 39.9908 20.5094 40.0191H16.2813C16.2813 39.9908 16.2906 39.9625 16.2906 39.9342V35.0539V33.7324V15.9766H20.5094V33.7324V35.0539H20.5ZM5.40625 40.0191V15.9766H14.9688V33.7324H10.75C10.3844 33.7324 10.0938 34.025 10.0938 34.3932C10.0938 34.7613 10.3844 35.0539 10.75 35.0539H14.9688V39.9342C14.9688 39.9625 14.9688 39.9908 14.9781 40.0191H5.40625ZM14.4344 45.8905L12.3813 41.435H23.9781L14.4344 45.8905ZM24.9813 50.3082L18.4188 45.5979L27.3156 41.4445H31.2625L24.9813 50.3082ZM50.5938 40.0191H21.8125C21.8125 39.9908 21.8219 39.9625 21.8219 39.9342V35.0539H33.8219C34.1875 35.0539 34.4781 34.7613 34.4781 34.3932C34.4781 34.025 34.1875 33.7324 33.8219 33.7324H21.8125V15.9766H23.3594H44.7156H50.5938V40.0191ZM38.6031 24.3401H39.8313V20.0545H43.3563C45.3625 20.0545 46.4875 21.074 46.4875 22.8297C46.4875 24.5949 45.3625 25.6427 43.3563 25.6427H41.3313V26.5111H44.0313V27.3324H41.3313V29.1637H39.8313V27.3324H38.6031V26.5111H39.8313V25.6427H38.6031V24.3401ZM43.1406 24.3401C44.4813 24.3401 44.9875 23.7642 44.9875 22.8297C44.9875 21.8952 44.4813 21.3477 43.1406 21.3477H41.3313V24.3401H43.1406Z" fill="#7F94A8"/>
</g>
<defs>
<clipPath id="clip0_2_83287">
<rect width="48" height="48" fill="white" transform="translate(4 4)"/>
</clipPath>
</defs>
</svg>
