<svg width="44" height="44" viewBox="0 0 44 44" fill="none" xmlns="http://www.w3.org/2000/svg">
<path d="M26.931 16.0069H8.72412C8.34481 16.0069 7.9655 16.3103 7.9655 16.7655C7.9655 17.1448 8.26895 17.5241 8.72412 17.5241H26.931C27.3103 17.5241 27.6896 17.2207 27.6896 16.7655C27.6896 16.3103 27.3103 16.0069 26.931 16.0069ZM8.72412 11.6069H16.0069C16.3862 11.6069 16.7655 11.3034 16.7655 10.8483C16.7655 10.469 16.4621 10.0897 16.0069 10.0897H8.72412C8.34481 10.0897 7.9655 10.3931 7.9655 10.8483C8.04136 11.3034 8.34481 11.6069 8.72412 11.6069ZM26.931 21.8483H8.72412C8.34481 21.8483 7.9655 22.1517 7.9655 22.6069C7.9655 22.9862 8.26895 23.3655 8.72412 23.3655H26.931C27.3103 23.3655 27.6896 23.0621 27.6896 22.6069C27.6896 22.1517 27.3103 21.8483 26.931 21.8483ZM21.0896 27.6138H8.72412C8.34481 27.6138 7.9655 27.9172 7.9655 28.3724C7.9655 28.8276 8.26895 29.131 8.72412 29.131H21.0896C21.469 29.131 21.8483 28.8276 21.8483 28.3724C21.8483 27.9172 21.5448 27.6138 21.0896 27.6138ZM18.9655 34.8966C19.3448 34.8966 19.7241 34.5931 19.7241 34.1379C19.7241 33.6828 19.4207 33.3793 18.9655 33.3793H8.72412C8.34481 33.3793 7.9655 33.6828 7.9655 34.1379C7.9655 34.5931 8.26895 34.8966 8.72412 34.8966H18.9655ZM2.19999 1.44138H23.2896V11.6069H33.4552V24.731H34.8965V10.6207L24.2758 0H0.758606V43.6207H21.8483V42.1793H2.19999V1.44138ZM24.731 2.50345L32.3931 10.1655H24.731V2.50345ZM42.7103 27.0069L40.6621 24.9586C39.8276 24.1241 38.3862 24.1241 37.6276 24.9586L26.4 36.1103L24.8827 41.8L24.5034 42.1793C24.2 42.4828 24.2 42.9379 24.5034 43.1655C24.6552 43.3172 24.8069 43.3931 25.0345 43.3931C25.1862 43.3931 25.4138 43.3172 25.5655 43.1655L25.9448 42.7862L31.6345 41.269L42.7862 30.1172C43.1655 29.7379 43.3931 29.131 43.3931 28.6C43.3172 27.9931 43.0896 27.4621 42.7103 27.0069ZM28.069 36.4897L35.5034 29.0552L38.6138 32.1655L31.1034 39.6L28.069 36.4897ZM27.3862 37.931L29.7379 40.2828L26.5517 41.1931L27.3862 37.931ZM41.6483 29.0552L39.6 31.1034L36.4896 28.069L38.5379 26.0207C38.8414 25.7172 39.2965 25.7172 39.5241 26.0207L41.5724 28.069C41.7241 28.2207 41.8 28.3724 41.8 28.6C41.8758 28.7517 41.8 28.9034 41.6483 29.0552Z" fill="#7F94A8"/>
</svg>
