<svg xmlns="http://www.w3.org/2000/svg" width="56" height="56" viewBox="0 0 56 56" fill="none">
  <path d="M35.1194 31.8649C35.1194 31.8963 35.133 31.9232 35.1353 31.9524C35.0306 33.2648 35.4426 34.6131 36.4053 35.6652C37.359 36.7084 38.7223 37.3029 40.1471 37.3029C41.3943 37.3029 42.5915 36.8498 43.5179 36.0242L51.3337 29.0718C52.3329 28.1834 52.9224 26.9652 52.9929 25.6416C53.0635 24.318 52.6037 23.046 51.7024 22.0611C50.8057 21.0807 49.5152 20.549 48.2019 20.4885C48.1314 20.4638 48.0608 20.4324 47.9834 20.4257C45.3455 20.2238 42.917 19.0437 41.144 17.1076C39.3141 15.1087 38.3854 12.5311 38.5106 9.84792C38.5812 8.57141 38.1601 7.27023 37.2247 6.24723C35.4357 4.29545 32.0968 4.12271 30.1121 5.88828L22.2894 12.8429C20.2274 14.678 20.0635 17.8233 21.9253 19.8536C22.7651 20.7711 23.9259 21.3163 25.1618 21.4397C25.221 21.4554 25.2733 21.4801 25.337 21.4823C26.912 21.5586 28.3983 22.0162 29.7411 22.7409L4.44318 45.2469C3.68527 45.9222 3.18909 46.8016 3.04343 47.7281C2.88866 48.722 3.1504 49.6485 3.78313 50.3372C4.37262 50.9833 5.20792 51.3333 6.15019 51.3333C6.21392 51.3333 6.27765 51.3311 6.34138 51.3288C7.29048 51.2817 8.23048 50.8846 8.99067 50.2093L34.2932 27.7033C34.8485 29.009 35.1535 30.4156 35.1194 31.8649ZM51.1721 25.5496C51.1266 26.3954 50.7511 27.1739 50.1138 27.7415L42.2979 34.6938C41.0256 35.82 38.8998 35.7101 37.755 34.465C36.5692 33.1661 36.6693 31.156 37.9871 29.9849L45.8053 23.0325C46.3993 22.5053 47.1641 22.2159 47.9584 22.2159C48.8665 22.2159 49.7382 22.5973 50.3482 23.2636C50.9218 23.894 51.2154 24.7039 51.1721 25.5496ZM39.7875 18.3101C41.1667 19.8177 42.9056 20.89 44.8084 21.5429C44.7355 21.599 44.6536 21.6394 44.5853 21.7022L36.7672 28.6545C36.6921 28.7218 36.6375 28.8004 36.5669 28.8721C36.3256 27.8693 35.9615 26.9047 35.4676 25.9961C35.4403 25.8951 35.3925 25.8031 35.331 25.7157C34.9009 24.9753 34.4115 24.2642 33.8198 23.6181C33.2098 22.9518 32.5247 22.3842 31.7986 21.8772C31.7349 21.8323 31.6735 21.7874 31.6006 21.7605C30.7312 21.1772 29.7889 20.7308 28.7966 20.392C28.8762 20.3292 28.9627 20.2821 29.0378 20.2148L36.8537 13.2624C36.9242 13.1996 36.9766 13.1233 37.0426 13.056C37.5046 14.9854 38.4014 16.7958 39.7875 18.3101ZM23.5094 14.1755L31.3252 7.22312C31.917 6.69591 32.6817 6.40651 33.4783 6.40651C34.3865 6.40651 35.2582 6.78789 35.8682 7.45419C36.4486 8.08684 36.7103 8.89222 36.683 9.68415C36.6807 9.70883 36.6875 9.73351 36.6853 9.75819C36.6397 10.5613 36.287 11.351 35.636 11.9321L27.8179 18.8844C26.5524 20.0106 24.4175 19.8985 23.2772 18.6511C22.0892 17.3544 22.1938 15.3466 23.5094 14.1755ZM7.76844 48.879C7.3269 49.2716 6.77382 49.5116 6.25034 49.5363C5.7792 49.5565 5.39228 49.4152 5.13509 49.137C4.8779 48.8543 4.7732 48.4505 4.84376 47.9996C4.92342 47.4881 5.22385 46.9698 5.66313 46.5772L31.3025 23.7706C31.7076 24.0981 32.1127 24.4279 32.4701 24.8205C32.8274 25.2109 33.1256 25.6371 33.4123 26.0701L7.76844 48.879Z" fill="#7F94A8"></path>
  <rect x="30" y="49" width="22" height="2" rx="1" fill="#7F94A8"></rect>
  <rect x="30" y="45" width="22" height="2" rx="1" fill="#7F94A8"></rect>
</svg>
