<svg width="100" height="100" viewBox="0 0 100 100" fill="none" xmlns="http://www.w3.org/2000/svg">
<circle cx="50" cy="50" r="49.5" stroke="#7F94A8"/>
<path d="M75.3372 59.6661C75.3373 59.6546 75.3385 59.6434 75.3385 59.6319C75.3385 59.6293 75.3382 59.6268 75.3381 59.6242C75.338 59.6056 75.3367 59.587 75.3353 59.5683C75.3346 59.5592 75.3342 59.5501 75.3332 59.5411C75.3314 59.525 75.3286 59.5091 75.3258 59.493C75.3239 59.4815 75.3222 59.4699 75.3197 59.4585C75.317 59.4461 75.3135 59.4339 75.3102 59.4215C75.3063 59.4067 75.3025 59.3919 75.2978 59.3776C75.2948 59.3682 75.2909 59.3588 75.2875 59.3494C75.2814 59.3326 75.2752 59.3161 75.2679 59.2999C75.2668 59.2974 75.2661 59.2947 75.2649 59.2921L66.5823 40.1902V37.6865H66.637C67.5725 37.6865 68.3335 36.9254 68.3335 35.9899V35.8599C68.3335 35.0228 67.7337 34.3185 66.9073 34.185L52.5722 31.8717V30.4019C53.1163 29.7921 53.4479 28.9888 53.4479 28.1093C53.4479 26.2082 51.9012 24.6615 50.0001 24.6615C48.099 24.6615 46.5523 26.2082 46.5523 28.1093C46.5523 28.9888 46.8838 29.7921 47.4279 30.4019V31.792L33.0842 34.1826C32.2628 34.3196 31.6666 35.0233 31.6666 35.8561V35.9899C31.6666 36.9254 32.4277 37.6865 33.3632 37.6865H33.4179V40.1902L24.7352 59.2921C24.734 59.2946 24.7332 59.2974 24.7321 59.2999C24.725 59.316 24.7187 59.3326 24.7126 59.3493C24.7091 59.3587 24.7054 59.3681 24.7022 59.3776C24.6975 59.3919 24.6937 59.4067 24.6898 59.4215C24.6866 59.4339 24.6831 59.4461 24.6803 59.4585C24.6779 59.4699 24.6762 59.4815 24.6742 59.493C24.6715 59.5091 24.6686 59.525 24.6669 59.5411C24.6659 59.5501 24.6655 59.5593 24.6648 59.5684C24.6634 59.587 24.6622 59.6056 24.6619 59.6241C24.6619 59.6267 24.6615 59.6292 24.6615 59.6317C24.6615 59.6433 24.6627 59.6546 24.6628 59.6662C24.6633 59.6754 24.6631 59.6847 24.6639 59.6939C24.7151 63.0704 28.9013 65.7065 34.2388 65.7065C39.5763 65.7065 43.7624 63.0704 43.8135 59.694C43.8143 59.6848 43.8142 59.6755 43.8146 59.6662C43.8148 59.6547 43.816 59.6435 43.816 59.632C43.816 59.6295 43.8156 59.6269 43.8155 59.6243C43.8154 59.6057 43.8141 59.5871 43.8127 59.5684C43.812 59.5593 43.8116 59.5502 43.8106 59.5412C43.8088 59.5251 43.806 59.5092 43.8033 59.4931C43.8013 59.4816 43.7996 59.47 43.7971 59.4586C43.7944 59.4462 43.7909 59.434 43.7876 59.4216C43.7837 59.4068 43.7799 59.392 43.7752 59.3777C43.7722 59.3683 43.7683 59.3589 43.765 59.3495C43.7588 59.3327 43.7526 59.3162 43.7454 59.3C43.7443 59.2975 43.7435 59.2949 43.7423 59.2922L35.0597 40.1902V37.6865H47.4279V55.5213C46.9064 55.8111 46.5523 56.3672 46.5523 57.005V69.098L41.3522 70.7231C40.2726 71.0605 39.5473 72.0472 39.5473 73.1782V74.5175C39.5473 74.9709 39.9147 75.3384 40.3682 75.3384H59.632C60.0854 75.3384 60.4529 74.9709 60.4529 74.5175V73.1781C60.4529 72.047 59.7275 71.0604 58.648 70.723L53.4479 69.098V57.005C53.4479 56.3672 53.0938 55.8111 52.5722 55.5213V37.6865H64.9405V40.1902L56.2577 59.2922C56.2565 59.2947 56.2558 59.2975 56.2547 59.3C56.2476 59.3161 56.2413 59.3327 56.2352 59.3494C56.2317 59.3588 56.228 59.3682 56.2248 59.3777C56.2201 59.392 56.2163 59.4068 56.2124 59.4216C56.2091 59.434 56.2056 59.4462 56.2029 59.4586C56.2005 59.47 56.1987 59.4816 56.1968 59.4931C56.194 59.5092 56.1912 59.5251 56.1894 59.5412C56.1885 59.5502 56.1881 59.5594 56.1874 59.5685C56.1859 59.5871 56.1847 59.6057 56.1845 59.6242C56.1845 59.6268 56.1841 59.6293 56.1841 59.6319C56.1841 59.6435 56.1853 59.6547 56.1854 59.6663C56.1858 59.6755 56.1857 59.6848 56.1865 59.694C56.2377 63.0704 60.4239 65.7065 65.7614 65.7065C71.0989 65.7065 75.285 63.0704 75.3361 59.694C75.3369 59.6847 75.3368 59.6754 75.3372 59.6661ZM34.2388 42.3519L41.7201 58.811H26.7574L34.2388 42.3519ZM34.2388 64.0647C30.4377 64.0647 27.158 62.4796 26.4464 60.4528H42.0313C41.3195 62.4796 38.0399 64.0647 34.2388 64.0647ZM51.8061 57.005V68.8807H48.1941V57.005C48.1941 56.9748 48.2187 56.9502 48.2488 56.9502H51.7513C51.7814 56.9502 51.8061 56.9748 51.8061 57.005ZM49.0697 55.3084V31.4285C49.3659 31.5116 49.6777 31.5571 50.0001 31.5571C50.3224 31.5571 50.6342 31.5116 50.9304 31.4285V55.3084H49.0697ZM50.0001 26.3033C50.9959 26.3033 51.8061 27.1135 51.8061 28.1093C51.8061 29.1051 50.9959 29.9153 50.0001 29.9153C49.0043 29.9153 48.1941 29.1051 48.1941 28.1093C48.1941 27.1135 49.0043 26.3033 50.0001 26.3033ZM33.3632 36.0447C33.3331 36.0447 33.3084 36.0201 33.3084 35.9899V35.8561C33.3084 35.8291 33.3277 35.8065 33.3542 35.8021L47.4279 33.4565V36.0447H33.3632ZM58.8111 73.1781V73.6966H41.1891V73.1781C41.1891 72.769 41.4514 72.4121 41.842 72.2901L47.4985 70.5225H52.5017L58.1583 72.2901C58.5487 72.4122 58.8111 72.769 58.8111 73.1781ZM52.5722 33.5349L66.6456 35.8059C66.6723 35.8102 66.6917 35.833 66.6917 35.86V35.99C66.6917 36.0202 66.6671 36.0448 66.637 36.0448H52.5722V33.5349ZM65.7614 42.3519L73.2427 58.811H58.28L65.7614 42.3519ZM65.7614 64.0647C61.9603 64.0647 58.6806 62.4796 57.9689 60.4528H73.5539C72.8421 62.4796 69.5625 64.0647 65.7614 64.0647Z" fill="#7F94A8"/>
</svg>
