<svg width="100" height="100" viewBox="0 0 100 100" fill="none" xmlns="http://www.w3.org/2000/svg">
<circle cx="50" cy="50" r="49.5" stroke="#7F94A8"/>
<path fill-rule="evenodd" clip-rule="evenodd" d="M48.4068 24.5904C45.6042 27.7934 36.9883 36.6192 26.9474 36.9141C26.7763 36.9191 26.6047 36.9216 26.4328 36.9216H26L26.0034 37.3514C26.0038 37.3865 26.0145 37.9444 26.1114 38.9216C26.6569 44.423 29.9331 63.2135 49.4606 76.8283L49.7073 77L49.9541 76.8283C69.4815 63.2135 72.7577 44.423 73.3032 38.9216C73.4001 37.9444 73.4109 37.3865 73.4112 37.3514L73.4146 36.9216H72.9818C72.8098 36.9216 72.6382 36.9191 72.467 36.9141C62.4301 36.6189 53.811 27.7923 51.0072 24.5899C50.401 23.8976 50.0667 23.4681 50.0485 23.4445L49.7067 23L49.365 23.4445C49.347 23.4681 49.0128 23.8978 48.4068 24.5904ZM49.7073 26.1397C48.4888 27.5123 46.4347 29.6549 43.7801 31.7916C39.8403 34.9628 34.3314 38.3209 28.1135 38.8498C28.6488 44.0501 31.7605 61.5428 49.7073 74.55C67.6542 61.5428 70.7659 44.05 71.3011 38.8497C65.0856 38.3207 59.5769 34.9626 55.6367 31.7917C52.9799 29.6537 50.9246 27.5102 49.7073 26.1397Z" fill="#7F94A8"/>
<path fill-rule="evenodd" clip-rule="evenodd" d="M49.4996 29L49.2328 29.3457C49.2163 29.3674 48.8565 29.8284 48.2103 30.546C48.2099 30.5465 48.2094 30.547 48.209 30.5475C48.2015 30.5558 48.1941 30.564 48.1866 30.5724C45.733 33.2915 39.2475 39.6013 31.7411 39.822C31.607 39.8259 31.4725 39.8279 31.3377 39.8279H31L31.0027 40.1622C31.003 40.1944 31.0146 40.7939 31.135 41.8279C31.6902 46.5983 34.5593 60.6177 49.3074 70.8665L49.5 71L49.6926 70.8665C64.4407 60.6177 67.3098 46.5983 67.865 41.8279C67.9854 40.7939 67.997 40.1944 67.9973 40.1622L68 39.8279H67.6623C67.5274 39.8279 67.3929 39.8259 67.2586 39.822C59.7553 39.601 53.2675 33.2906 50.8129 30.5718C50.8059 30.564 50.7988 30.5561 50.7918 30.5484C50.7794 30.5346 50.7671 30.5209 50.7549 30.5073C50.1302 29.8118 49.7827 29.367 49.7663 29.3457L49.4996 29ZM49.5001 32.1008C48.5153 33.177 47.0208 34.6834 45.1476 36.1862C42.1413 38.598 37.9291 41.1869 33.1359 41.7261C33.6703 46.1412 36.3306 58.8953 49.5 68.547C62.6695 58.8952 65.3297 46.1411 65.8641 41.7261C61.0726 41.1866 56.8607 38.5978 53.8541 36.1863C51.9794 34.6826 50.4841 33.1757 49.5001 32.1008Z" fill="#7F94A8"/>
<path fill-rule="evenodd" clip-rule="evenodd" d="M57.8006 45.5992L49.6947 56.4289L43.3725 51.3342L44.6275 49.7769L49.3356 53.571L56.1994 44.4008L57.8006 45.5992Z" fill="#7F94A8"/>
</svg>
