<svg width="100" height="100" viewBox="0 0 100 100" fill="none" xmlns="http://www.w3.org/2000/svg">
<circle cx="50" cy="50" r="49.5" stroke="#7F94A8"/>
<path d="M73.3701 45.6824C73.2694 45.5809 73.1495 45.5003 73.0175 45.4452C72.8854 45.3902 72.7438 45.3619 72.6007 45.3619C72.4577 45.3619 72.3161 45.3902 72.184 45.4452C72.0519 45.5003 71.9321 45.5809 71.8314 45.6824L69.274 48.2398C68.9306 43.9351 67.1683 39.866 64.2635 36.6705C61.3587 33.4751 57.4756 31.334 53.223 30.5829C48.9704 29.8317 44.5888 30.5131 40.7651 32.5201C36.9414 34.5272 33.8918 37.7464 32.0946 41.673C31.9773 41.9346 31.9685 42.232 32.07 42.5001C32.1716 42.7682 32.3752 42.9851 32.6364 43.1034C32.898 43.2207 33.1954 43.2295 33.4635 43.1279C33.7316 43.0264 33.9485 42.8227 34.0668 42.5616C35.6511 39.0915 38.3355 36.2408 41.7042 34.4511C45.0729 32.6614 48.9378 32.0326 52.7001 32.6621C56.4624 33.2916 59.9121 35.1443 62.5147 37.9332C65.1173 40.722 66.7275 44.2913 67.0959 48.0881L64.7011 45.6824C64.6 45.5814 64.4801 45.5013 64.3481 45.4466C64.2161 45.3919 64.0746 45.3638 63.9317 45.3638C63.7888 45.3638 63.6473 45.3919 63.5153 45.4466C63.3833 45.5013 63.2633 45.5814 63.1623 45.6824C63.0613 45.7835 62.9811 45.9034 62.9264 46.0354C62.8718 46.1674 62.8436 46.3089 62.8436 46.4518C62.8436 46.5947 62.8718 46.7362 62.9264 46.8682C62.9811 47.0002 63.0613 47.1202 63.1623 47.2212L67.4968 51.5557C67.5976 51.6573 67.7174 51.7379 67.8495 51.7929C67.9815 51.8479 68.1232 51.8763 68.2662 51.8763C68.4093 51.8763 68.5509 51.8479 68.6829 51.7929C68.815 51.7379 68.9348 51.6573 69.0356 51.5557L73.3701 47.2212C73.4717 47.1205 73.5523 47.0006 73.6073 46.8686C73.6623 46.7365 73.6907 46.5949 73.6907 46.4518C73.6907 46.3088 73.6623 46.1671 73.6073 46.0351C73.5523 45.903 73.4717 45.7832 73.3701 45.6824Z" fill="#7F94A8"/>
<path d="M67.0524 56.3019C66.7908 56.1847 66.4934 56.1758 66.2253 56.2774C65.9572 56.3789 65.7403 56.5826 65.622 56.8437C64.0377 60.3138 61.3533 63.1645 57.9846 64.9542C54.6159 66.7439 50.751 67.3727 46.9887 66.7432C43.2264 66.1137 39.7767 64.261 37.1741 61.4721C34.5715 58.6833 32.9613 55.114 32.5929 51.3172L34.9877 53.7229C35.0885 53.8244 35.2083 53.9051 35.3404 53.9601C35.4724 54.0151 35.6141 54.0434 35.7571 54.0434C35.9002 54.0434 36.0418 54.0151 36.1739 53.9601C36.3059 53.9051 36.4258 53.8244 36.5265 53.7229C36.6281 53.6221 36.7087 53.5023 36.7637 53.3702C36.8187 53.2382 36.847 53.0965 36.847 52.9535C36.847 52.8104 36.8187 52.6688 36.7637 52.5368C36.7087 52.4047 36.6281 52.2849 36.5265 52.1841L32.192 47.8496C32.0912 47.748 31.9714 47.6674 31.8393 47.6124C31.7073 47.5574 31.5656 47.5291 31.4226 47.5291C31.2795 47.5291 31.1379 47.5574 31.0059 47.6124C30.8738 47.6674 30.754 47.748 30.6532 47.8496L26.3187 52.1841C26.1146 52.3882 26 52.6649 26 52.9535C26 53.2421 26.1146 53.5188 26.3187 53.7229C26.5227 53.9269 26.7995 54.0416 27.0881 54.0416C27.3766 54.0416 27.6534 53.9269 27.8574 53.7229L30.4148 51.1655C30.7582 55.4702 32.5205 59.5393 35.4253 62.7348C38.3301 65.9302 42.2132 68.0713 46.4658 68.8225C50.7184 69.5736 55.1 68.8922 58.9237 66.8852C62.7474 64.8782 65.797 61.659 67.5942 57.7323C67.7115 57.4707 67.7203 57.1733 67.6188 56.9052C67.5172 56.6371 67.3136 56.4202 67.0524 56.3019Z" fill="#7F94A8"/>
<path d="M51.2686 51.577H47.8057V53.317H53.1371V54.7827H47.8057V57.3455H45.8257V54.7827H44V53.317H45.8257V51.577H44V49.7684H45.8257V42.2855H51.2686C52.5714 42.2855 53.6857 42.7484 54.6029 43.6655C55.52 44.5655 55.9829 45.6627 55.9829 46.957C55.9829 48.2512 55.52 49.3398 54.6029 50.2484C53.6771 51.1312 52.5714 51.577 51.2686 51.577ZM51.2686 44.1627H47.8057V49.777H51.2686C51.9971 49.777 52.64 49.5027 53.18 48.9627C53.72 48.3884 53.9943 47.7198 53.9943 46.9655C53.9943 46.177 53.7286 45.517 53.1971 44.9855C52.6571 44.4284 52.0143 44.1627 51.2686 44.1627Z" fill="#7F94A8"/>
</svg>
