<svg width="100" height="100" viewBox="0 0 100 100" fill="none" xmlns="http://www.w3.org/2000/svg">
<circle cx="50" cy="50" r="49.5" stroke="#7F94A8"/>
<path d="M42.6766 39.7855C37.9994 39.7855 34.2083 43.5767 34.2083 48.2534C34.2083 52.9301 37.9994 56.7217 42.6761 56.7217C47.3533 56.7217 51.1445 52.9301 51.1445 48.2534C51.1391 43.5788 47.3508 39.7909 42.6766 39.7855ZM42.6766 55.0208C38.9389 55.0212 35.9087 51.991 35.9087 48.2534C35.9087 44.5158 38.9385 41.486 42.6761 41.486C46.4138 41.486 49.444 44.5158 49.444 48.2534C49.4394 51.989 46.4121 55.0163 42.6766 55.0204V55.0208Z" fill="#7F94A8"/>
<path d="M45.4376 45.3303C44.5064 44.6212 43.4681 44.2795 42.4319 44.3438C40.4612 44.4672 38.8907 46.0381 38.7673 48.0088C38.7034 49.0438 39.0447 50.0829 39.7538 51.0141C39.7998 51.0752 39.8542 51.1291 39.9148 51.1756C40.7725 51.8287 41.7216 52.1695 42.6748 52.1695C42.7566 52.1695 42.8388 52.167 42.9205 52.162C44.8913 52.0387 46.4618 50.4678 46.5855 48.4975C46.649 47.4621 46.3082 46.4229 45.5987 45.4918C45.5526 45.4307 45.4982 45.3768 45.4376 45.3303ZM44.2432 49.8197C43.5997 50.4636 42.3821 50.8564 41.0378 49.8911C40.0726 48.5473 40.4657 47.3301 41.1092 46.6861C41.7527 46.0422 42.9699 45.6495 44.3146 46.6147C45.2799 47.9582 44.8871 49.1762 44.2432 49.8197Z" fill="#7F94A8"/>
<path d="M74.7127 43.8773C75.1822 43.8773 75.5098 43.5149 75.5098 43.0453V38.5816C75.5098 38.1121 75.1822 37.7131 74.7127 37.7131H74.1281V33.3191C74.1281 30.8203 72.2246 28.7856 69.8192 28.7856H28.3795C25.9741 28.7856 23.9643 30.8203 23.9643 33.3191V63.1869C23.9643 65.6857 25.9741 67.6839 28.3795 67.6839H29.2783V70.022C29.2783 70.4916 29.659 70.8722 30.1285 70.8722H40.7564C41.226 70.8722 41.6067 70.4916 41.6067 70.022V67.6839H56.9109V70.022C56.9109 70.4916 57.2916 70.8722 57.7611 70.8722H68.389C68.8586 70.8722 69.2393 70.4916 69.2393 70.022V67.6839H69.8192C72.2246 67.6839 74.1281 65.6857 74.1281 63.1869V58.7564H74.7127C75.1822 58.7564 75.5098 58.394 75.5098 57.9244V53.4607C75.5098 52.9912 75.1822 52.5922 74.7127 52.5922H74.1281V43.8773H74.7127ZM73.8093 54.2927V57.0559H68.1765V54.2927H73.8093ZM67.3262 52.5922C66.853 52.6009 66.4748 52.9874 66.476 53.4607V57.9244C66.4768 58.1482 66.5673 58.362 66.7268 58.5185C66.8866 58.6746 67.1025 58.7606 67.3262 58.7564H67.7514V60.1185C67.7514 60.6649 67.3918 61.0946 66.8928 61.0946H31.3059C30.8064 61.0946 30.4473 60.6649 30.4473 60.1185V36.3875C30.4473 35.8412 30.8069 35.375 31.3059 35.375H66.8928C67.3923 35.375 67.7514 35.8412 67.7514 36.3875V37.7131H67.3262C66.853 37.7218 66.4748 38.1083 66.476 38.5816V43.0453C66.4768 43.2691 66.5673 43.4829 66.7268 43.6394C66.8866 43.7955 67.1025 43.8815 67.3262 43.8773H67.7514V52.5922H67.3262ZM68.1765 42.1768V39.4136H73.8093V42.1768H68.1765ZM39.9062 69.1718H30.9787V67.6839H39.9062V69.1718ZM67.5388 69.1718H58.6113V67.6839H67.5388V69.1718ZM72.4277 63.1869C72.4277 64.7483 71.2868 65.9834 69.8192 65.9834H28.3795C26.9119 65.9834 25.6648 64.7483 25.6648 63.1869V33.3191C25.6648 31.7577 26.9119 30.4861 28.3795 30.4861H69.8192C71.2868 30.4861 72.4277 31.7577 72.4277 33.3191V37.7131H69.4518V36.3875C69.4518 34.9033 68.3297 33.6745 66.8928 33.6745H31.3059C29.869 33.6745 28.7469 34.9033 28.7469 36.3875V60.1185C28.7469 61.6027 29.869 62.795 31.3059 62.795H66.8928C68.3297 62.795 69.4518 61.6027 69.4518 60.1185V58.7564H72.4277V63.1869ZM72.4277 52.5922H69.4518V43.8773H72.4277V52.5922Z" fill="#7F94A8"/>
</svg>
