<svg width="56" height="56" viewBox="0 0 56 56" fill="none" xmlns="http://www.w3.org/2000/svg">
<path fill-rule="evenodd" clip-rule="evenodd" d="M17.8539 1C20.6594 1 23.4227 1.6645 25.8695 2.93021L29.234 5.20849C32.7145 8.23565 34.7078 12.5391 34.7078 17.0112C34.7078 17.7285 34.6551 18.4352 34.5602 19.1208C35.7414 18.8782 36.9332 18.7516 38.1461 18.7516C47.4379 18.7516 55 25.9345 55 34.7628C55 40.005 52.3422 44.8463 47.8492 47.8524L49.8848 53.9595C49.9797 54.2548 49.8953 54.5818 49.6633 54.7927C49.3996 55.0353 48.9988 55.067 48.7035 54.8771L41.7531 50.4049C40.5719 50.6475 39.359 50.7741 38.1461 50.7741C28.8543 50.7741 21.2922 43.5912 21.2922 34.7628C21.2922 34.0562 21.3449 33.3495 21.4398 32.6533C20.2797 32.8959 19.0773 33.0225 17.8539 33.0225C16.641 33.0225 15.4281 32.8959 14.2469 32.6533L7.29648 37.1255C7.00117 37.3154 6.60039 37.2837 6.33672 37.0411C6.10469 36.8302 6.02031 36.5032 6.11523 36.2079L8.15078 30.1008C3.65781 27.0947 1 22.2534 1 17.0112C1 8.18291 8.56211 1 17.8539 1ZM33.1258 17.0112C33.1258 12.9926 31.3328 9.12165 28.2004 6.40037L25.1523 4.33304C22.927 3.18335 20.4062 2.58214 17.8539 2.58214C9.4375 2.58214 2.58203 9.05836 2.58203 17.0112C2.58203 21.8948 5.17656 26.4197 9.51133 29.0882C9.82773 29.2886 9.96484 29.6684 9.84883 30.0164L8.33008 34.573L13.6668 31.145C13.8461 31.029 14.057 30.9974 14.268 31.0395C15.4387 31.3032 16.641 31.4404 17.8539 31.4404C26.2809 31.4404 33.1258 24.9641 33.1258 17.0112ZM46.1512 47.7786C46.0352 47.4305 46.1723 47.0402 46.4887 46.8504C50.8234 44.1713 53.418 39.6569 53.418 34.7734C53.418 26.8205 46.5625 20.3443 38.1461 20.3443C36.8172 20.3443 35.5094 20.513 34.2332 20.8295C32.841 26.1982 28.6012 30.5227 23.1168 32.2314C22.9586 33.0647 22.8742 33.919 22.8742 34.7734C22.8742 42.7263 29.7297 49.2025 38.1461 49.2025C39.359 49.2025 40.5613 49.0654 41.732 48.8017C41.9324 48.749 42.1539 48.7911 42.3332 48.9072L47.6699 52.3351L46.1512 47.7786ZM11.75 12C11.3358 12 11 12.3358 11 12.75C11 13.1642 11.3358 13.5 11.75 13.5H24.25C24.6642 13.5 25 13.1642 25 12.75C25 12.3358 24.6642 12 24.25 12H11.75ZM11 16.75C11 16.3358 11.3358 16 11.75 16H24.25C24.6642 16 25 16.3358 25 16.75C25 17.1642 24.6642 17.5 24.25 17.5H11.75C11.3358 17.5 11 17.1642 11 16.75ZM11.75 20C11.3358 20 11 20.3358 11 20.75C11 21.1642 11.3358 21.5 11.75 21.5H18.25C18.6642 21.5 19 21.1642 19 20.75C19 20.3358 18.6642 20 18.25 20H11.75Z" fill="url(#paint0_linear_6077_2272)"/>
<defs>
<linearGradient id="paint0_linear_6077_2272" x1="12.1375" y1="55" x2="59.4988" y2="40.1775" gradientUnits="userSpaceOnUse">
<stop stop-color="#FE5000"/>
<stop offset="1" stop-color="#FCA92A"/>
</linearGradient>
</defs>
</svg>
