<svg width="56" height="56" viewBox="0 0 56 56" fill="none" xmlns="http://www.w3.org/2000/svg">
<path fill-rule="evenodd" clip-rule="evenodd" d="M34.7729 9.86307C34.7729 7.17704 32.5958 5 29.9098 5H13.0685C10.3825 5 8.20508 7.17704 8.20508 9.86307V46.3418C8.20508 49.0279 10.3825 51.2049 13.0685 51.2049H29.9098C32.5958 51.2049 34.7729 49.0279 34.7729 46.3418V9.86307ZM10.5153 13.4324H32.4626V42.6898H10.5153V13.4324ZM13.045 7.31024H29.9333C31.3407 7.31024 32.4626 8.48342 32.4626 9.89122V11.1221H10.5153V9.89122C10.5153 8.48342 11.6376 7.31024 13.045 7.31024ZM29.9333 48.8946H13.045C11.6574 48.9048 10.5251 47.7872 10.5153 46.3996V45H32.4626V46.37C32.4695 47.7576 31.3505 48.8878 29.9629 48.8946H29.9333ZM54.4412 28.2112C54.4412 23.0747 52.7212 18.3628 49.9351 14.6836C49.6447 14.2899 49.0197 14.1998 48.6299 14.4953C48.2401 14.7908 48.1582 15.4172 48.4589 15.8029C51.0076 19.1688 52.5887 23.4894 52.5887 28.2113C52.5887 32.9331 51.0076 37.2536 48.4591 40.6196C48.1584 41.0054 48.2405 41.6316 48.6301 41.9272C49.0199 42.2227 49.6449 42.1324 49.9353 41.7389C52.7211 38.0597 54.4412 33.3477 54.4412 28.2112ZM48.5747 28.2112C48.5747 24.5178 47.4565 21.0612 45.2844 18.3694C44.9988 17.9451 44.3331 17.8441 43.9347 18.165C43.5362 18.4859 43.4929 19.1577 43.8466 19.5273C45.7274 21.8585 46.7218 24.8914 46.7218 28.2112C46.7218 31.531 45.7274 34.564 43.8466 36.8951C43.4927 37.2645 43.5362 37.9365 43.9347 38.2574C44.3331 38.5783 44.9988 38.4775 45.2844 38.053C47.4565 35.361 48.5747 31.9048 48.5747 28.2112ZM43.017 28.2112C43.017 25.9285 42.3019 23.7538 40.9713 22.0746C40.6683 21.6931 40.0452 21.6216 39.6638 21.9249C39.2823 22.2281 39.211 22.851 39.5143 23.2324C40.5631 24.5561 41.1643 26.3207 41.1643 28.2113C41.1643 30.1018 40.5632 31.8664 39.5143 33.1901C39.211 33.5715 39.2823 34.1944 39.6638 34.4977C40.0452 34.8009 40.6683 34.7294 40.9713 34.348C42.3019 32.6687 43.017 30.4939 43.017 28.2112ZM23.7421 28C23.7421 29.2216 22.7518 30.212 21.5301 30.212C20.3085 30.212 19.3181 29.2216 19.3181 28C19.3181 26.7783 20.3085 25.788 21.5301 25.788C22.7518 25.788 23.7421 26.7783 23.7421 28ZM25.7421 28C25.7421 30.3262 23.8563 32.212 21.5301 32.212C19.2039 32.212 17.3181 30.3262 17.3181 28C17.3181 25.6737 19.2039 23.788 21.5301 23.788C23.8563 23.788 25.7421 25.6737 25.7421 28Z" fill="url(#paint0_linear_6077_2281)"/>
<defs>
<linearGradient id="paint0_linear_6077_2281" x1="17.7413" y1="51.2049" x2="58.2882" y2="38.5065" gradientUnits="userSpaceOnUse">
<stop stop-color="#FE5000"/>
<stop offset="1" stop-color="#FCA92A"/>
</linearGradient>
</defs>
</svg>
