<svg width="44" height="44" viewBox="0 0 44 44" fill="none" xmlns="http://www.w3.org/2000/svg">
<path d="M43.9797 27.6068L43.4626 23.2751C43.407 22.8095 42.9883 22.4745 42.522 22.5221C40.8128 22.697 39.2563 21.4509 39.0527 19.7448C38.8491 18.0388 40.0684 16.4616 41.7708 16.229C42.2354 16.1655 42.5634 15.7414 42.5078 15.2757L41.9908 10.9441C41.9014 10.1957 41.526 9.52695 40.9338 9.06091C40.3414 8.59496 39.6031 8.38759 38.8548 8.4768L8.66989 12.0797C7.92911 12.1682 7.26662 12.5373 6.80127 13.1192H2.8215C1.26569 13.1194 0 14.3851 0 15.9408V20.3033C0 20.7722 0.375977 21.1546 0.844766 21.1625C2.56274 21.1917 3.96043 22.6133 3.96043 24.3314C3.96043 26.0496 2.56274 27.4711 0.844766 27.5004C0.375977 27.5082 0 27.8906 0 28.3595V32.7219C0 34.2776 1.26569 35.5433 2.8215 35.5433H27.0328H33.2207C34.7765 35.5433 36.0422 34.2776 36.0422 32.7218V31.3957L41.5125 30.7428C42.2609 30.6535 42.9296 30.2781 43.3957 29.6857C43.8616 29.0934 44.069 28.3551 43.9797 27.6068ZM34.3234 29.8699V31.6009V32.7218C34.3234 33.3298 33.8288 33.8246 33.2207 33.8246H27.8922V32.3685V32.2133C27.8922 31.7387 27.5075 31.354 27.0328 31.354C26.5582 31.354 26.1735 31.7387 26.1735 32.2133V32.5737V33.8245H15.6941H9.3341H2.8215C2.21349 33.8245 1.71875 33.3298 1.71875 32.7217V29.1316C2.68426 28.9468 3.57105 28.4746 4.27445 27.7602C5.18031 26.8403 5.67918 25.6225 5.67918 24.3313C5.67918 23.0401 5.18031 21.8224 4.27445 20.9024C3.57096 20.188 2.68426 19.7159 1.71875 19.531V15.9408C1.71875 15.3328 2.21341 14.8381 2.8215 14.8381H6.18338H7.9035H26.1736V25.3028C26.1736 25.7774 26.5583 26.1621 27.0329 26.1621C27.5076 26.1621 27.8923 25.7774 27.8923 25.3028V14.8381H33.2208C33.8288 14.8381 34.3235 15.3328 34.3235 15.9409V19.5311C33.358 19.716 32.4712 20.1881 31.7677 20.9025C30.8619 21.8225 30.3631 23.0402 30.3631 24.3314C30.3631 25.6226 30.862 26.8404 31.7677 27.7603C32.4712 28.4747 33.358 28.9469 34.3235 29.1317V29.8699H34.3234ZM42.0448 28.6231C41.8627 28.8546 41.6013 29.0013 41.3089 29.0362L36.0422 29.6649V28.3595C36.0422 27.8905 35.6662 27.5082 35.1974 27.5002C33.4794 27.471 32.0818 26.0495 32.0818 24.3312C32.0818 22.613 33.4794 21.1915 35.1974 21.1624C35.6663 21.1544 36.0422 20.772 36.0422 20.3031V15.9406C36.0422 14.3848 34.7765 13.1191 33.2207 13.1191H27.0328H14.4629L39.0585 10.1835C39.3508 10.1485 39.6395 10.2297 39.871 10.4118C40.1026 10.5939 40.2493 10.8553 40.2841 11.1477L40.7097 14.7127C39.7729 15.0107 38.9483 15.5846 38.3345 16.3773C37.5441 17.3981 37.1931 18.6664 37.3461 19.9485C37.4992 21.2306 38.1389 22.3807 39.1473 23.1868C39.9304 23.8129 40.8669 24.1765 41.8475 24.2456L42.2731 27.8106C42.308 28.103 42.2269 28.3916 42.0448 28.6231Z" fill="#FE5000"/>
<path d="M27.8264 28.4289C27.8049 28.3774 27.7783 28.3275 27.7473 28.2811C27.7164 28.2339 27.6803 28.19 27.6408 28.1505C27.6013 28.111 27.5566 28.0749 27.5102 28.0439C27.4629 28.0121 27.413 27.9864 27.3615 27.9649C27.3099 27.9434 27.2558 27.9262 27.2008 27.915C27.0899 27.8936 26.9756 27.8936 26.8648 27.915C26.8098 27.9262 26.7565 27.9434 26.7041 27.9649C26.6525 27.9864 26.6027 28.0121 26.5563 28.0439C26.509 28.0749 26.4652 28.111 26.4256 28.1505C26.3852 28.19 26.35 28.2339 26.3182 28.2811C26.2873 28.3275 26.2606 28.3774 26.2391 28.4289C26.2177 28.4814 26.2013 28.5355 26.1902 28.5905C26.179 28.6455 26.1738 28.7022 26.1738 28.7581C26.1738 28.8139 26.179 28.8707 26.1902 28.9257C26.2013 28.9807 26.2177 29.0348 26.2391 29.0864C26.2606 29.1388 26.2873 29.1886 26.3182 29.235C26.35 29.2823 26.3852 29.3261 26.4256 29.3657C26.4652 29.4052 26.509 29.4413 26.5563 29.4722C26.6027 29.5032 26.6525 29.5298 26.7041 29.5513C26.7565 29.5728 26.8098 29.59 26.8648 29.6003C26.9206 29.6114 26.9765 29.6175 27.0332 29.6175C27.0891 29.6175 27.1449 29.6114 27.2008 29.6003C27.2558 29.59 27.3099 29.5728 27.3615 29.5513C27.413 29.5298 27.4629 29.5032 27.5102 29.4722C27.5566 29.4413 27.6013 29.4052 27.6408 29.3657C27.6803 29.3261 27.7164 29.2823 27.7473 29.235C27.7783 29.1886 27.8049 29.1388 27.8264 29.0864C27.8479 29.0348 27.8642 28.9807 27.8754 28.9257C27.8866 28.8707 27.8926 28.8139 27.8926 28.7581C27.8926 28.7022 27.8866 28.6455 27.8754 28.5905C27.8642 28.5355 27.8479 28.4814 27.8264 28.4289Z" fill="#FE5000"/>
<path d="M20.7847 22.1092L17.0096 21.5606L15.3214 18.1399C15.1766 17.8466 14.8778 17.6609 14.5508 17.6609C14.2237 17.6609 13.9249 17.8466 13.7802 18.1399L12.2947 21.1497L12.0919 21.5606L10.6629 21.7683L8.31694 22.1092C7.99321 22.1562 7.72431 22.383 7.62316 22.6941C7.52202 23.0052 7.60641 23.3467 7.84067 23.575L10.1141 25.7911L10.5722 26.2377L10.3123 27.753L9.92732 29.9975C9.87198 30.3198 10.0045 30.6457 10.2692 30.838C10.5338 31.0303 10.8847 31.0557 11.1742 30.9034L14.5508 29.1283L17.9272 30.9034C18.053 30.9696 18.1903 31.0022 18.327 31.0022C18.5052 31.0022 18.6825 30.9468 18.8323 30.838C19.0969 30.6458 19.2295 30.3199 19.1741 29.9975L18.5292 26.2377L21.2609 23.575C21.4952 23.3467 21.5795 23.0052 21.4784 22.6941C21.3774 22.383 21.1084 22.1563 20.7847 22.1092ZM17.0061 25.3223C16.8035 25.5197 16.7111 25.8042 16.7589 26.0829L17.1858 28.5718L14.9506 27.3967C14.7003 27.2651 14.4012 27.2651 14.1508 27.3967L11.9157 28.5719L12.3425 26.083C12.3645 25.955 12.3556 25.8261 12.3213 25.7046C12.2809 25.5616 12.2049 25.4291 12.0954 25.3224L11.0364 24.2902L10.2871 23.5598L11.151 23.4342L12.7861 23.1966C12.8119 23.1928 12.837 23.1868 12.8621 23.1807C13.1092 23.1217 13.3195 22.9567 13.4332 22.7265L14.5508 20.462L15.6684 22.7265C15.7936 22.9801 16.0355 23.1559 16.3154 23.1966L18.8144 23.5597L17.0061 25.3223Z" fill="#FE5000"/>
</svg>
