<svg width="44" height="44" viewBox="0 0 44 44" fill="none" xmlns="http://www.w3.org/2000/svg">
<g clip-path="url(#clip0_1_50177)">
<path d="M26.9767 17.9129L20.3656 24.1571L17.1928 20.893C16.8411 20.5309 16.2619 20.5227 15.9002 20.8744C15.538 21.2265 15.5298 21.8053 15.8815 22.1674L19.6869 26.0738C20.0404 26.4295 20.6117 26.4416 20.9799 26.101L28.2515 19.2425C28.428 19.076 28.5312 18.846 28.538 18.6035C28.5448 18.361 28.4549 18.1257 28.288 17.9495C27.9341 17.5816 27.3506 17.5655 26.9767 17.9129Z" fill="#FE5000"/>
<path d="M22.0712 8.30298C14.5157 8.30298 8.37207 14.4466 8.37207 22.0021C8.37207 29.558 14.5157 35.7016 22.0712 35.7016C29.6271 35.7016 35.7707 29.558 35.7707 22.0021C35.7707 14.4466 29.6271 8.30298 22.0712 8.30298ZM22.0712 33.8677C15.5243 33.8677 10.206 28.5401 10.206 22.0021C10.206 15.4642 15.5243 10.1369 22.0712 10.1369C28.6246 10.1369 33.9368 15.4491 33.9368 22.0021C33.9368 28.5551 28.6246 33.8677 22.0712 33.8677Z" fill="#FE5000"/>
<path d="M40.9239 16.9591L41.2265 11.5215C41.2477 11.1565 41.0492 10.8137 40.7222 10.6504L35.8806 8.20217L33.4324 3.36058C33.2659 3.03642 32.9252 2.83906 32.5613 2.85626L27.1144 3.14997L22.5755 0.151244C22.2696 -0.0504145 21.8731 -0.0504145 21.5668 0.151244L17.0279 3.14997L11.5906 2.8473C11.2253 2.82581 10.8829 3.02424 10.7195 3.35163L8.27098 8.19321L3.42975 10.6414C3.10524 10.8076 2.90824 11.1482 2.92543 11.5125L3.22774 16.9501L0.229369 21.489C0.0277104 21.7949 0.0277104 22.1914 0.229369 22.4977L3.21878 27.0456L2.91612 32.4832C2.89498 32.8482 3.09306 33.1909 3.42044 33.3543L8.26203 35.8025L10.7102 40.644C10.8764 40.9686 11.2171 41.1656 11.5813 41.1484L17.0189 40.8457L21.5579 43.8441C21.862 44.0522 22.2624 44.0522 22.5665 43.8441L27.1054 40.8457L32.543 41.1484C32.908 41.1695 33.2505 40.9711 33.4141 40.644L35.8623 35.8025L40.7039 33.3543C41.0281 33.1877 41.2254 32.8474 41.2083 32.4832L40.9056 27.0456L43.904 22.5066C44.1056 22.2007 44.1056 21.8039 43.904 21.498L40.9239 16.9591ZM39.2182 26.2937C39.1064 26.4578 39.0545 26.6551 39.0717 26.8532L39.3557 31.9971L34.7803 34.3078C34.6058 34.3952 34.4643 34.537 34.3769 34.7114L32.0659 39.2869L26.922 39.0028C26.725 38.9957 26.5305 39.0465 26.3626 39.1493L22.0711 41.9829L17.7801 39.1493C17.6311 39.0487 17.4556 38.9942 17.2758 38.9935H17.2299L12.0857 39.2779L9.775 34.7021C9.6876 34.5277 9.54612 34.3862 9.37133 34.2988L4.78656 31.9971L5.07096 26.8532C5.07812 26.6562 5.0269 26.4617 4.9241 26.2937L2.09086 22.0023L4.9241 17.7109C5.03621 17.5472 5.08815 17.3495 5.07096 17.1518L4.78656 12.0075L9.36237 9.69687C9.53681 9.60947 9.67829 9.46799 9.76569 9.29355L12.0763 4.71774L17.2206 5.00214C17.4172 5.00895 17.6117 4.95808 17.7801 4.85529L22.0711 2.02204L26.3626 4.85529C26.5266 4.9674 26.7243 5.01933 26.922 5.00214L32.0659 4.71774L34.3769 9.29355C34.4643 9.46799 34.6058 9.60947 34.7803 9.69687L39.3557 12.0075L39.0717 17.1518C39.0645 17.3484 39.1157 17.5429 39.2182 17.7109L42.0518 22.0023L39.2182 26.2937Z" fill="#FE5000"/>
</g>
<defs>
<clipPath id="clip0_1_50177">
<rect width="44" height="44" fill="white"/>
</clipPath>
</defs>
</svg>
