<svg width="44" height="44" viewBox="0 0 44 44" fill="none" xmlns="http://www.w3.org/2000/svg">
<path d="M26.9312 16.0069H8.72431C8.345 16.0069 7.96569 16.3103 7.96569 16.7655C7.96569 17.1448 8.26913 17.5241 8.72431 17.5241H26.9312C27.3105 17.5241 27.6898 17.2207 27.6898 16.7655C27.6898 16.3103 27.3105 16.0069 26.9312 16.0069ZM8.72431 11.6069H16.0071C16.3864 11.6069 16.7657 11.3034 16.7657 10.8483C16.7657 10.469 16.4622 10.0897 16.0071 10.0897H8.72431C8.345 10.0897 7.96569 10.3931 7.96569 10.8483C8.04155 11.3034 8.345 11.6069 8.72431 11.6069ZM26.9312 21.8483H8.72431C8.345 21.8483 7.96569 22.1517 7.96569 22.6069C7.96569 22.9862 8.26913 23.3655 8.72431 23.3655H26.9312C27.3105 23.3655 27.6898 23.0621 27.6898 22.6069C27.6898 22.1517 27.3105 21.8483 26.9312 21.8483ZM21.0898 27.6138H8.72431C8.345 27.6138 7.96569 27.9172 7.96569 28.3724C7.96569 28.8276 8.26913 29.131 8.72431 29.131H21.0898C21.4691 29.131 21.8484 28.8276 21.8484 28.3724C21.8484 27.9172 21.545 27.6138 21.0898 27.6138ZM18.9657 34.8966C19.345 34.8966 19.7243 34.5931 19.7243 34.1379C19.7243 33.6828 19.4209 33.3793 18.9657 33.3793H8.72431C8.345 33.3793 7.96569 33.6828 7.96569 34.1379C7.96569 34.5931 8.26913 34.8966 8.72431 34.8966H18.9657ZM2.20017 1.44138H23.2898V11.6069H33.4553V24.731H34.8967V10.6207L24.276 0H0.758789V43.6207H21.8484V42.1793H2.20017V1.44138ZM24.7312 2.50345L32.3933 10.1655H24.7312V2.50345ZM42.7105 27.0069L40.6622 24.9586C39.8278 24.1241 38.3864 24.1241 37.6278 24.9586L26.4002 36.1103L24.8829 41.8L24.5036 42.1793C24.2002 42.4828 24.2002 42.9379 24.5036 43.1655C24.6553 43.3172 24.8071 43.3931 25.0347 43.3931C25.1864 43.3931 25.414 43.3172 25.5657 43.1655L25.945 42.7862L31.6347 41.269L42.7864 30.1172C43.1657 29.7379 43.3933 29.131 43.3933 28.6C43.3174 27.9931 43.0898 27.4621 42.7105 27.0069ZM28.0691 36.4897L35.5036 29.0552L38.614 32.1655L31.1036 39.6L28.0691 36.4897ZM27.3864 37.931L29.7381 40.2828L26.5519 41.1931L27.3864 37.931ZM41.6484 29.0552L39.6002 31.1034L36.4898 28.069L38.5381 26.0207C38.8415 25.7172 39.2967 25.7172 39.5243 26.0207L41.5726 28.069C41.7243 28.2207 41.8002 28.3724 41.8002 28.6C41.876 28.7517 41.8002 28.9034 41.6484 29.0552Z" fill="#FE5000"/>
</svg>
