<svg width="44" height="44" viewBox="0 0 44 44" fill="none" xmlns="http://www.w3.org/2000/svg">
<g clip-path="url(#clip0)">
<path d="M35.9975 29.5662L31.2822 27.9254C30.9394 27.8044 30.5525 27.9016 30.305 28.1711C27.9932 30.6938 25.0433 32.0834 22 32.0834C18.9567 32.0834 16.0068 30.6937 13.695 28.1711C13.4457 27.9016 13.0625 27.8063 12.7178 27.9254L8.0025 29.5662C3.2157 31.2308 0 35.7537 0 40.821V42.1667C0 42.6727 0.410695 43.0834 0.916695 43.0834H43.0834C43.5894 43.0834 44.0001 42.6727 44.0001 42.1667V40.821C44 35.7518 40.7843 31.229 35.9975 29.5662ZM42.1667 41.25H1.8333V40.821C1.8333 36.5328 4.554 32.7048 8.6038 31.2968L12.7618 29.8503C15.3615 32.4775 18.6211 33.9166 22 33.9166C25.3789 33.9166 28.6385 32.4774 31.2382 29.8503L35.3962 31.2968C39.446 32.7048 42.1667 36.5328 42.1667 40.821V41.25Z" fill="#FE5000"/>
<path d="M32.9948 12.155C32.9985 12.0762 33.0003 11.9955 33.0003 11.9167C33.0003 5.85019 28.0668 0.916687 22.0003 0.916687C15.9338 0.916687 11.0003 5.85019 11.0003 11.9167C11.0003 11.9955 11.0021 12.0762 11.0058 12.155C9.9131 12.7527 9.16699 14.4228 9.16699 16.5C9.16699 19.0502 10.2927 20.988 11.8033 21.0797C13.4698 26.6017 17.483 30.25 22.0003 30.25C26.5176 30.25 30.5308 26.6017 32.1973 21.0797C33.708 20.988 34.8336 19.0502 34.8336 16.5C34.8336 14.4228 34.0875 12.7527 32.9948 12.155ZM32.0268 19.2097C31.7775 19.0557 31.4713 19.03 31.1981 19.14C30.9286 19.25 30.7269 19.4828 30.6554 19.767C29.3721 24.9407 25.8943 28.4167 22.0003 28.4167C18.1063 28.4167 14.6285 24.9407 13.3451 19.767C13.2736 19.4828 13.0444 19.272 12.7731 19.1602C12.6723 19.118 12.5623 19.0997 12.4504 19.0997C12.2634 19.0997 12.0727 19.1529 11.9169 19.25C11.6878 19.25 11.0003 18.2747 11.0003 16.5C11.0003 14.8188 11.6181 13.8563 11.8766 13.7573C11.8858 13.7591 11.8968 13.761 11.9041 13.761C12.1736 13.7812 12.4504 13.6913 12.6448 13.497C12.8391 13.3008 12.9363 13.0277 12.907 12.7545L12.8813 12.5253C12.8593 12.3236 12.8336 12.1238 12.8336 11.9166C12.8336 6.86219 16.9458 2.74999 22.0003 2.74999C27.0548 2.74999 31.167 6.86219 31.167 11.9167C31.167 12.1239 31.1413 12.3237 31.1193 12.5235L31.0936 12.7527C31.0661 13.0277 31.1614 13.3009 31.3558 13.4952C31.552 13.6914 31.8251 13.783 32.0965 13.761C32.1038 13.7592 32.1148 13.7592 32.124 13.7573C32.3825 13.8563 33.0003 14.8188 33.0003 16.5C33.0003 18.2747 32.3275 19.25 32.0268 19.2097Z" fill="#FE5000"/>
<path d="M21.9997 8.25C19.84 8.25 18.333 9.757 18.333 11.9167C18.333 12.4227 18.7437 12.8334 19.2497 12.8334C19.7557 12.8334 20.1664 12.4227 20.1664 11.9167C20.1664 10.263 21.4479 10.0834 21.9997 10.0834C22.5515 10.0834 23.833 10.2631 23.833 11.9167C23.833 13.4549 23.4938 14.157 22.4378 14.8005C20.3991 16.0472 20.0581 17.6953 20.1773 18.4727C20.247 18.9237 20.632 19.2335 21.0756 19.2335C21.1123 19.2335 21.1508 19.2298 21.1893 19.2262C21.6788 19.1694 22.0326 18.7165 21.9923 18.2234C21.9905 18.1849 21.9318 17.2591 23.3948 16.3662C25.0081 15.3799 25.6663 14.091 25.6663 11.9167C25.6664 9.757 24.1594 8.25 21.9997 8.25Z" fill="#FE5000"/>
<path d="M21.0837 22.9167C21.59 22.9167 22.0004 22.5063 22.0004 22C22.0004 21.4937 21.59 21.0833 21.0837 21.0833C20.5774 21.0833 20.167 21.4937 20.167 22C20.167 22.5063 20.5774 22.9167 21.0837 22.9167Z" fill="#FE5000"/>
</g>
<defs>
<clipPath id="clip0">
<rect width="44" height="44" fill="white"/>
</clipPath>
</defs>
</svg>
