<svg width="44" height="44" viewBox="0 0 44 44" fill="none" xmlns="http://www.w3.org/2000/svg">
<path d="M5.2558 38.6615H29.3134V41.0841C29.3155 42.6938 30.6198 43.9981 32.2291 43.9998H40.8683C42.478 43.9981 43.7823 42.6938 43.784 41.0841V34.8566C43.7827 33.6366 43.023 32.5462 41.879 32.1218V28.5527C41.8807 27.245 41.4061 25.9812 40.5443 24.9975V15.3303C40.541 12.515 38.2593 10.2337 35.4439 10.2307H35.2174V10.1025C35.2145 7.28718 32.9332 5.00548 30.1179 5.00211H21.9659C21.8731 5.00211 21.7849 4.9633 21.7225 4.89496L18.7646 1.6595C17.7982 0.603645 16.4323 0.00126551 15.0006 0H5.2558C2.44048 0.00337467 0.159625 2.28423 0.15625 5.09913V33.562C0.159625 36.3769 2.44048 38.6581 5.2558 38.6615ZM42.2722 41.0841C42.2713 41.8594 41.6432 42.4871 40.8683 42.488H32.2291C31.4542 42.4871 30.8261 41.8594 30.8253 41.0841V34.8566C30.8261 34.0817 31.4542 33.454 32.2291 33.4527H40.8683C41.6432 33.454 42.2713 34.0817 42.2722 34.8566V41.0841ZM40.3672 28.5527V31.9409H32.7307V28.5527C32.7307 26.4195 34.4433 24.6836 36.5487 24.6836C38.6541 24.6836 40.3672 26.4195 40.3672 28.5527ZM35.4439 11.7426C37.4249 11.7447 39.0299 13.3494 39.0325 15.3303V23.794C38.2685 23.3848 37.4152 23.1713 36.5487 23.1718C33.6098 23.1718 31.2188 25.5855 31.2188 28.5527V32.1218C30.0748 32.5462 29.3151 33.6366 29.3134 34.8566V37.1497H9.33325C10.2811 36.1963 10.8135 34.9068 10.8126 33.562V15.3303C10.8147 13.3498 12.4194 11.7451 14.3999 11.7426H35.4439ZM1.6681 5.09913C1.67063 3.11904 3.27529 1.51396 5.2558 1.51185H15.0006C16.0079 1.5127 16.9684 1.93664 17.6489 2.67949L20.6051 5.91327C20.9539 6.29587 21.4479 6.51396 21.9659 6.51396H30.1179C32.0988 6.51649 33.7034 8.12157 33.7051 10.1025V10.2307H14.4003C11.5854 10.2341 9.30414 12.5154 9.30119 15.3303V33.562C9.29866 35.5429 7.69316 37.1475 5.71265 37.1497H5.2558C3.27529 37.1471 1.67021 35.5425 1.6681 33.562V5.09913Z" fill="#FE5000"/>
</svg>
