<svg width="56" height="56" viewBox="0 0 56 56" fill="none" xmlns="http://www.w3.org/2000/svg">
<path d="M5.01486 34.1667C5.30272 38.9352 7.89348 43.244 11.9236 45.657V48.6445C11.9236 49.9084 12.9599 50.9425 14.2265 50.9425H19.5807C20.8473 50.9425 21.8836 49.9084 21.8836 48.6445V48.587C22.4017 48.6445 22.9775 48.6445 23.4956 48.6445C23.8411 48.6445 24.1865 48.6445 24.5319 48.6445C25.1652 48.6445 25.7985 48.587 26.4894 48.587V48.7019C26.4894 49.9659 27.5257 51 28.7923 51H34.1465C35.4131 51 36.4494 49.9659 36.4494 48.7019V47.3231C38.3493 46.9209 40.0765 45.8868 41.4582 44.508C41.6309 44.3356 41.7461 44.1633 41.8612 43.9909C42.5521 43.0142 43.4733 42.2099 44.5096 41.6928C44.9701 41.463 45.4307 41.2332 45.8913 41.0609C46.6397 40.8311 47.3882 40.4289 48.0791 40.0267L48.1942 39.9693C49.1154 39.3948 49.6335 38.9926 49.6911 38.4181L50.9577 32.1559C51.0728 31.5239 50.9577 30.8345 50.5547 30.3174C50.1517 29.8003 49.5759 29.3982 48.9426 29.3407C47.6761 29.2833 46.467 28.8237 45.4883 28.0768C44.9701 27.5597 44.452 26.9852 43.9914 26.4681C43.8763 26.3532 43.8187 26.2958 43.7036 26.1809C44.3944 24.8595 44.7974 23.3658 44.855 21.872C44.855 21.1251 44.3368 20.4357 43.5884 20.3208C42.9551 20.2059 42.3794 20.1485 41.7461 20.091C41.7461 19.3441 41.7461 18.6547 41.6309 17.9079C41.5158 17.161 40.8825 16.6439 40.0765 16.6439C38.8099 16.6439 35.8737 16.8737 33.9738 18.5973C33.5132 18.3675 32.9951 18.1951 32.5345 17.9653C34.2617 14.0586 32.9951 9.46246 29.5407 6.93459C26.2591 4.23436 21.4806 4.40672 18.2565 7.16439C14.9749 9.92207 14.0537 14.5757 16.0112 18.3675C15.6658 18.5398 15.3203 18.6547 15.0325 18.8271C8.64192 21.872 4.727 27.9044 5.01486 34.1667ZM31.5558 11.9903C32.5345 15.2651 31.2103 18.7122 28.3893 20.5506C25.8561 20.3208 23.3229 20.4932 20.8473 21.0102C17.6232 19.459 15.8961 15.897 16.7021 12.3925C17.5081 8.88794 20.617 6.47497 24.1865 6.47497C27.5833 6.53243 30.577 8.77304 31.5558 11.9903ZM40.3068 19.9761C39.4432 20.0336 38.5796 20.2634 37.7736 20.6081C37.0251 20.091 36.2767 19.6314 35.5858 19.1718C36.9676 18.3675 38.5796 17.9653 40.1916 17.9653C40.3068 18.6547 40.3643 19.3441 40.3068 19.9761ZM43.4157 21.6997C43.243 25.4915 41.2855 27.215 39.6159 27.215C38.4069 27.215 37.313 26.5831 36.6797 25.5489C36.3343 24.6871 36.507 23.7105 37.1403 23.0785C38.119 21.9869 39.5008 21.4124 40.9976 21.4699H41.0552C41.0552 21.4699 41.0552 21.4699 41.1128 21.4699C41.8612 21.4699 42.6097 21.5273 43.4157 21.6997ZM15.7233 20.2059C16.0688 20.0336 16.4718 19.8612 16.8748 19.6889C17.4505 20.4357 18.1414 21.1251 18.8898 21.6422C17.6232 22.1018 16.4142 22.7338 15.3203 23.5381C14.9749 23.7679 14.9173 24.285 15.1476 24.6297C15.3779 24.9744 15.8961 25.0319 16.2415 24.802C21.9987 20.4932 31.6133 22.6189 31.7285 22.6189C32.1315 22.7338 32.5345 22.4465 32.6496 22.0444C32.7648 21.6422 32.4769 21.24 32.0739 21.1251C31.9588 21.1251 31.4406 21.0102 30.577 20.8379C31.0952 20.3208 31.5558 19.8038 31.9588 19.2292C32.9375 19.5739 33.9162 20.0336 34.8374 20.5506C35.4131 20.8379 35.9313 21.24 36.507 21.5848C36.2767 21.7571 36.104 21.9869 35.9313 22.2167C34.9525 23.3658 34.7222 24.9744 35.298 26.2958C36.1616 27.847 37.8312 28.7662 39.6159 28.7662C40.8825 28.7662 42.034 28.1917 42.8975 27.3299L42.9551 27.3874C43.4733 27.9619 43.9914 28.5364 44.5096 29.0535C45.6034 30.1451 47.4458 30.6047 48.8275 30.777C49.0578 30.8345 49.2881 30.9494 49.4032 31.1217C49.5184 31.2941 49.5759 31.5813 49.5184 31.8112L48.3093 38.0159C48.0215 38.2457 47.7336 38.4755 47.4458 38.6479L47.3306 38.7628C46.7549 39.1075 46.1216 39.4522 45.4883 39.6246C44.9701 39.7969 44.3944 40.0267 43.8763 40.314C42.6097 41.0034 41.5158 41.9226 40.7098 43.0717C40.5946 43.244 40.4795 43.3589 40.3643 43.4738C39.328 44.5654 38.0039 45.3123 36.507 45.7144V44.9101C36.507 44.508 36.1616 44.1633 35.7586 44.1633C35.3555 44.1633 35.0101 44.508 35.0101 44.9101V48.7594C35.0101 49.1615 34.6647 49.5063 34.2617 49.5063H28.9074C28.5044 49.5063 28.159 49.1615 28.159 48.7594V46.4613C28.159 46.0592 27.8136 45.7144 27.4105 45.7144C27.0075 45.7144 26.6621 46.0592 26.6621 46.4613V47.1507C26.0288 47.2082 25.3379 47.2082 24.7046 47.2082C23.7835 47.2656 22.9199 47.2082 22.0563 47.1507V46.4613C22.0563 46.0592 21.7109 45.7144 21.3079 45.7144C20.9049 45.7144 20.5594 46.0592 20.5594 46.4613V48.7594C20.5594 49.1615 20.214 49.5063 19.811 49.5063H14.2265C13.8234 49.5063 13.478 49.1615 13.478 48.7594V44.1633C13.478 43.7611 13.1326 43.4164 12.7296 43.4164C12.3841 43.4164 12.0963 43.6462 11.9811 43.9909C8.75707 41.7503 6.7996 38.1308 6.56931 34.2241C6.28145 28.479 9.90852 23.021 15.7233 20.2059Z" fill="url(#paint0_linear_4094_914)"/>
<defs>
<linearGradient id="paint0_linear_4094_914" x1="14.4875" y1="51" x2="54.8323" y2="38.3734" gradientUnits="userSpaceOnUse">
<stop stop-color="#FE5000"/>
<stop offset="1" stop-color="#FCA92A"/>
</linearGradient>
</defs>
</svg>
