<svg width="56" height="56" viewBox="0 0 56 56" fill="none" xmlns="http://www.w3.org/2000/svg">
<path d="M27.2735 6.75879H14.8869C11.4717 6.75879 8.68945 9.54044 8.68945 12.9551V43.0452C8.68945 46.4516 11.4717 49.2332 14.8869 49.2332H16.6528C17.1444 49.2332 17.5359 48.8334 17.5359 48.3504C17.5359 47.859 17.136 47.4676 16.6528 47.4676H14.8869C12.4463 47.4676 10.4637 45.4855 10.4637 43.0452V12.9551C10.4637 10.5149 12.4463 8.53272 14.8869 8.53272H27.2735C29.7143 8.53272 31.6968 10.5149 31.6968 12.9551V21.808C31.6968 22.2995 32.0966 22.6909 32.5797 22.6909C33.0629 22.6909 33.4627 22.2911 33.4627 21.808V12.9551C33.4711 9.54044 30.6889 6.75879 27.2735 6.75879ZM32.5881 13.8379H9.57242C9.08927 13.8379 8.68945 14.2376 8.68945 14.7206C8.68945 15.2037 9.08927 15.6035 9.57242 15.6035H32.5797C33.0713 15.6035 33.4627 15.2037 33.4627 14.7206C33.4627 14.2376 33.0713 13.8379 32.5881 13.8379ZM24.6163 38.6146H9.57242C9.08927 38.6146 8.68945 39.0144 8.68945 39.4975C8.68945 39.9888 9.08927 40.3802 9.57242 40.3802H24.6163C25.1078 40.3802 25.4993 39.9805 25.4993 39.4975C25.5076 39.0144 25.1078 38.6146 24.6163 38.6146ZM23.7334 10.2983H18.4189C17.9273 10.2983 17.5359 10.6981 17.5359 11.1811C17.5359 11.6642 17.9357 12.0639 18.4189 12.0639H23.7334C24.2248 12.0639 24.6163 11.6642 24.6163 11.1811C24.6163 10.6981 24.2248 10.2983 23.7334 10.2983ZM27.3152 10.2983H27.2985C26.8071 10.2983 26.4239 10.6981 26.4239 11.1811C26.4239 11.6642 26.8321 12.0639 27.3152 12.0639C27.7984 12.0639 28.1982 11.6642 28.1982 11.1811C28.1982 10.6981 27.7984 10.2983 27.3152 10.2983ZM48.6399 30.178L41.9842 22.8657C40.6682 21.5499 38.519 21.5498 37.1945 22.874C36.7697 23.2989 36.4865 23.7985 36.3366 24.3399C35.0121 23.3238 33.1046 23.4237 31.88 24.648C31.4636 25.0727 31.172 25.5725 31.0221 26.1138C29.6976 25.0977 27.79 25.1977 26.5738 26.4219C26.1574 26.8384 25.8741 27.3297 25.7242 27.8461L22.5838 24.7063C21.2677 23.3904 19.1186 23.3904 17.7941 24.7146C16.478 26.0305 16.478 28.1793 17.7941 29.4951L29.8475 41.5545L22.7005 42.6788C20.7679 42.9537 19.3101 44.636 19.3101 46.5848C19.3101 48.0506 20.5013 49.2415 21.9674 49.2415H38.6607C41.2595 49.2415 43.7086 48.2255 45.5411 46.3933L48.3234 43.6116C50.1643 41.7794 51.1722 39.3308 51.1722 36.7407C51.1722 34.3006 50.2725 31.9769 48.6399 30.178ZM47.0739 42.3457L44.2916 45.1274C42.784 46.6347 40.7848 47.4593 38.6607 47.4593H21.9674C21.4759 47.4593 21.0844 47.0596 21.0844 46.5765C21.0844 45.5021 21.8841 44.5777 22.967 44.4195L31.8467 43.0286C32.1799 42.9786 32.4465 42.7454 32.5547 42.429C32.6548 42.1126 32.5714 41.7627 32.3382 41.5295L19.0436 28.2459C18.4189 27.6212 18.4189 26.5969 19.0519 25.9556C19.3685 25.6391 19.7766 25.4808 20.1931 25.4808C20.6096 25.4808 21.0178 25.6391 21.3343 25.9556L30.1891 34.8086C30.5306 35.15 31.097 35.15 31.4386 34.8086C31.6134 34.6337 31.6968 34.4088 31.6968 34.1839C31.6968 33.959 31.6134 33.7342 31.4386 33.5593L27.8234 29.9448C27.1986 29.3202 27.1986 28.2958 27.8317 27.6545C28.4564 27.0299 29.481 27.0299 30.1058 27.6545L33.721 31.269C34.0625 31.6105 34.6289 31.6105 34.9704 31.269C35.1454 31.0942 35.2287 30.8693 35.2287 30.6444C35.2287 30.4196 35.1454 30.1947 34.9787 30.0281L33.1295 28.1793C32.5048 27.5546 32.5048 26.5303 33.1379 25.889C33.7626 25.2643 34.7872 25.2643 35.412 25.889L37.2612 27.7378C37.611 28.0626 38.1525 28.0626 38.494 27.7211C38.8355 27.3797 38.8355 26.8134 38.494 26.4719L38.4191 26.3969C38.1109 26.0888 37.9442 25.6891 37.9442 25.256C37.9442 24.8229 38.1109 24.4231 38.4274 24.1067C39.0522 23.482 40.0767 23.482 40.6765 24.0734L47.3071 31.3523C48.6399 32.8181 49.373 34.717 49.373 36.7074C49.4063 38.8479 48.5732 40.8466 47.0739 42.3457Z" fill="url(#paint0_linear_3637_1706)"/>
<defs>
<linearGradient id="paint0_linear_3637_1706" x1="17.4515" y1="49.2415" x2="54.7115" y2="37.5804" gradientUnits="userSpaceOnUse">
<stop stop-color="#FE5000"/>
<stop offset="1" stop-color="#FCA92A"/>
</linearGradient>
</defs>
</svg>
