<svg width="56" height="56" viewBox="0 0 56 56" fill="none" xmlns="http://www.w3.org/2000/svg">
<path fill-rule="evenodd" clip-rule="evenodd" d="M47.3398 26.1392C47.3398 25.5357 47.7345 25.1334 48.3265 25.1334C48.9186 25.1334 49.3132 25.4351 49.2146 26.0386V30.062V35.8958V36.9017V38.2092C49.2146 39.4163 48.6225 40.7238 47.7345 41.6291L43.1956 46.256C42.4062 47.2618 41.1235 47.7647 39.8408 47.7647H38.558H33.7231H9.44986C7.87111 47.7647 6.58838 46.5577 6.58838 44.8478V26.0386C6.58838 25.4351 6.98307 25.0328 7.5751 25.0328C8.16713 25.0328 8.56181 25.4351 8.56181 26.0386V44.9484C8.56181 45.5519 8.9565 45.9542 9.54853 45.9542H33.7231H38.558C39.6434 45.9542 40.5315 45.0489 40.5315 43.9425V41.9308C40.5315 40.3215 41.7155 39.0139 43.3929 39.0139H45.3664C46.4518 39.0139 47.3398 38.1087 47.3398 37.0022V35.9964V30.062V26.1392ZM42.4481 44.2656C42.4262 44.3652 42.4062 44.4556 42.4062 44.546L46.1557 40.7238C45.8597 40.8244 45.6624 40.8244 45.465 40.8244H43.4916C42.8996 40.8244 42.5049 41.2268 42.5049 41.8303V43.8419C42.5049 44.0081 42.475 44.1437 42.4481 44.2656ZM39.6434 11.2528H46.4518C48.0305 11.2528 49.3132 12.5604 49.4119 14.1697V22.1158C49.4119 22.7194 49.0172 23.1217 48.4252 23.1217H7.67377C7.08174 23.1217 6.68705 22.7194 6.68705 22.1158V14.1697C6.68705 12.5604 7.87111 11.2528 9.54853 11.2528H16.3569V9.24113C16.3569 8.63763 16.7516 8.23529 17.3436 8.23529C17.9356 8.23529 18.3303 8.63763 18.3303 9.24113V11.2528H37.67V9.24113C37.67 8.63763 38.0647 8.23529 38.6567 8.23529C39.2487 8.23529 39.6434 8.63763 39.6434 9.24113V11.2528ZM8.66049 21.11H47.3398L47.5371 14.1697C47.5371 13.5662 47.1425 13.1639 46.5504 13.1639H39.7421V15.4773C40.3341 15.7791 40.7288 16.4832 40.7288 17.1872C40.7288 18.2937 39.8408 19.1989 38.7554 19.1989C37.67 19.1989 36.7819 18.2937 36.7819 17.1872C36.7819 16.4832 37.1766 15.7791 37.7687 15.4773V13.1639H18.429V15.4773C19.021 15.7791 19.4157 16.4832 19.4157 17.1872C19.4157 18.2937 18.5277 19.1989 17.4423 19.1989C16.3569 19.1989 15.4688 18.2937 15.4688 17.1872C15.4688 16.4832 15.8635 15.7791 16.4556 15.4773V13.1639H9.6472C9.05517 13.1639 8.66049 13.5662 8.66049 14.1697V21.11ZM23.2932 41.1765L22.1229 40.337L31.0773 28L32.2299 28.8942L23.2932 41.1765ZM23.2578 34.5517C21.2364 34.5517 19.7646 33.2377 19.7646 31.285C19.7646 29.314 21.2364 28.0365 23.2578 28.0365C25.2791 28.0365 26.7509 29.314 26.7509 31.285C26.7509 33.2377 25.2791 34.5517 23.2578 34.5517ZM23.2578 29.7337C22.3712 29.7337 21.6796 30.336 21.6796 31.285C21.6796 32.2522 22.3889 32.8545 23.2578 32.8545C24.1798 32.8545 24.8536 32.2522 24.8536 31.285C24.8536 30.336 24.1621 29.7337 23.2578 29.7337ZM31.0951 41.1582C29.0737 41.1582 27.602 39.8442 27.602 37.8915C27.602 35.9205 29.0737 34.643 31.0951 34.643C33.1165 34.643 34.5882 35.9205 34.5882 37.8915C34.5882 39.8442 33.1165 41.1582 31.0951 41.1582ZM31.0951 36.3402C30.2085 36.3402 29.517 36.9425 29.517 37.8915C29.517 38.8587 30.2262 39.461 31.0951 39.461C32.0171 39.461 32.6909 38.8587 32.6909 37.8915C32.6909 36.9425 31.9994 36.3402 31.0951 36.3402Z" fill="url(#paint0_linear_3637_1717)"/>
<defs>
<linearGradient id="paint0_linear_3637_1717" x1="15.4207" y1="47.7647" x2="52.4067" y2="35.2247" gradientUnits="userSpaceOnUse">
<stop stop-color="#FE5000"/>
<stop offset="1" stop-color="#FCA92A"/>
</linearGradient>
</defs>
</svg>
