<svg width="56" height="56" viewBox="0 0 56 56" fill="none" xmlns="http://www.w3.org/2000/svg">
<g clip-path="url(#clip0_3637_1708)">
<path d="M51.431 14.4835H45.274L42.6339 8.75876C42.4736 8.40749 42.0398 8.2461 41.691 8.40749L39.1075 9.6132L31.2815 3.98339C30.9703 3.75554 30.5178 3.83149 30.2915 4.15428L22.9746 14.4835H4.56947C4.17346 14.4835 3.8623 14.8063 3.8623 15.1955V40.8003C3.8623 41.1895 4.18289 41.5123 4.56947 41.5123H10.7265L13.3666 47.2371C13.5269 47.5883 13.9512 47.7497 14.3095 47.5883L16.893 46.3826L24.719 52.0124C25.0301 52.2403 25.4827 52.1643 25.709 51.8415L33.0258 41.5123H51.4216C51.8176 41.5123 52.1287 41.1895 52.1287 40.8003V15.1955C52.1382 14.8063 51.8176 14.4835 51.431 14.4835ZM41.6438 10.0024L43.7088 14.4835H32.0452L41.6438 10.0024ZM31.0363 5.56885L37.6366 10.3062L28.6885 14.4835H24.719L31.0363 5.56885ZM20.4571 35.0945V40.0028C20.4571 40.0313 20.4571 40.0598 20.4666 40.0882H16.2141C16.2141 40.0598 16.2236 40.0313 16.2236 40.0028V35.0945V33.7654V15.9076H20.4666V33.7654V35.0945H20.4571ZM5.27664 40.0882V15.9076H14.8941V33.7654H10.6511C10.2834 33.7654 9.99108 34.0597 9.99108 34.4299C9.99108 34.8002 10.2834 35.0945 10.6511 35.0945H14.8941V40.0028C14.8941 40.0313 14.8941 40.0598 14.9035 40.0882H5.27664ZM14.3567 45.9934L12.2917 41.5123H23.9553L14.3567 45.9934ZM24.9641 50.4365L18.3639 45.6991L27.3119 41.5218H31.2815L24.9641 50.4365ZM50.7238 40.0882H21.7772C21.7772 40.0598 21.7866 40.0313 21.7866 40.0028V35.0945H33.8556C34.2233 35.0945 34.5156 34.8002 34.5156 34.4299C34.5156 34.0597 34.2233 33.7654 33.8556 33.7654H21.7772V15.9076H23.3329H44.8119H50.7238V40.0882ZM38.6643 24.3191H39.8995V20.0089H43.4447C45.4625 20.0089 46.594 21.0342 46.594 22.8001C46.594 24.5754 45.4625 25.6292 43.4447 25.6292H41.4081V26.5026H44.1236V27.3286H41.4081V29.1704H39.8995V27.3286H38.6643V26.5026H39.8995V25.6292H38.6643V24.3191ZM43.2279 24.3191C44.5762 24.3191 45.0854 23.74 45.0854 22.8001C45.0854 21.8602 44.5762 21.3095 43.2279 21.3095H41.4081V24.3191H43.2279Z" fill="url(#paint0_linear_3637_1708)"/>
</g>
<defs>
<linearGradient id="paint0_linear_3637_1708" x1="13.8173" y1="52.1438" x2="56.154" y2="38.9007" gradientUnits="userSpaceOnUse">
<stop stop-color="#FE5000"/>
<stop offset="1" stop-color="#FCA92A"/>
</linearGradient>
<clipPath id="clip0_3637_1708">
<rect width="48.2759" height="48.2759" fill="white" transform="translate(3.8623 3.8623)"/>
</clipPath>
</defs>
</svg>
