<svg width="56" height="56" viewBox="0 0 56 56" fill="none" xmlns="http://www.w3.org/2000/svg">
<path fill-rule="evenodd" clip-rule="evenodd" d="M18.2679 24.7605C20.8914 24.7605 23.0182 22.6337 23.0182 20.0102C23.0182 17.3866 20.8914 15.2599 18.2679 15.2599C15.6444 15.2599 13.5176 17.3866 13.5176 20.0102C13.5176 22.6337 15.6444 24.7605 18.2679 24.7605ZM18.2679 27.657C22.4911 27.657 25.9147 24.2334 25.9147 20.0102C25.9147 15.7869 22.4911 12.3633 18.2679 12.3633C14.0447 12.3633 10.6211 15.7869 10.6211 20.0102C10.6211 24.2334 14.0447 27.657 18.2679 27.657ZM38.0217 13.1264C38.4877 12.5161 39.3602 12.3991 39.9705 12.865C40.5808 13.331 40.6978 14.2035 40.2319 14.8138L18.2964 43.5462C17.8304 44.1566 16.9579 44.2736 16.3476 43.8077C15.7373 43.3417 15.6202 42.4692 16.0862 41.8589L38.0217 13.1264ZM42.4833 36.6941C42.4833 39.3176 40.3565 41.4444 37.733 41.4444C35.1095 41.4444 32.9827 39.3176 32.9827 36.6941C32.9827 34.0705 35.1095 31.9438 37.733 31.9438C40.3565 31.9438 42.4833 34.0705 42.4833 36.6941ZM45.3798 36.6941C45.3798 40.9173 41.9562 44.3409 37.733 44.3409C33.5098 44.3409 30.0862 40.9173 30.0862 36.6941C30.0862 32.4709 33.5098 29.0473 37.733 29.0473C41.9562 29.0473 45.3798 32.4709 45.3798 36.6941Z" fill="url(#paint0_linear_3637_1711)"/>
<defs>
<linearGradient id="paint0_linear_3637_1711" x1="17.7901" y1="44.3409" x2="47.7898" y2="34.1354" gradientUnits="userSpaceOnUse">
<stop stop-color="#FE5000"/>
<stop offset="1" stop-color="#FCA92A"/>
</linearGradient>
</defs>
</svg>
