<svg width="56" height="56" viewBox="0 0 56 56" fill="none" xmlns="http://www.w3.org/2000/svg">
<path fill-rule="evenodd" clip-rule="evenodd" d="M52 22.0953C52 22.5325 51.695 22.87 51.2577 22.87H50.7134V30.9855H51.2577C51.695 30.9855 52 31.357 52 31.7942V35.9509C52 36.3882 51.695 36.7257 51.2577 36.7257H50.7134V40.8515C50.7134 43.1784 48.9408 45.0391 46.7009 45.0391H46.1608V47.2164C46.1608 47.6536 45.8063 48.0082 45.3691 48.0082H35.4722C35.0349 48.0082 34.6804 47.6536 34.6804 47.2164V45.0391H20.4289V47.2164C20.4289 47.6536 20.0744 48.0082 19.6371 48.0082H9.74021C9.30296 48.0082 8.94845 47.6536 8.94845 47.2164V45.0391H8.11147C5.87152 45.0391 4 43.1784 4 40.8515V13.0381C4 10.7111 5.87152 8.81641 8.11147 8.81641H46.7009C48.9408 8.81641 50.7134 10.7111 50.7134 13.0381V17.1298H51.2577C51.695 17.1298 52 17.5013 52 17.9386V22.0953ZM50.4165 35.1422V32.569H45.1711V35.1422H50.4165ZM43.5876 31.7942C43.5865 31.3535 43.9387 30.9936 44.3794 30.9855H44.7753V22.87H44.3794C44.171 22.8739 43.97 22.7939 43.8211 22.6485C43.6727 22.5027 43.5884 22.3036 43.5876 22.0953V17.9386C43.5865 17.4978 43.9387 17.1379 44.3794 17.1298H44.7753V15.8954C44.7753 15.3866 44.4408 14.9525 43.9758 14.9525H10.8366C10.3719 14.9525 10.0371 15.3866 10.0371 15.8954V37.9941C10.0371 38.5029 10.3715 38.903 10.8366 38.903H43.9758C44.4405 38.903 44.7753 38.5029 44.7753 37.9941V36.7257H44.3794C44.171 36.7296 43.97 36.6495 43.8211 36.5042C43.6727 36.3584 43.5884 36.1593 43.5876 35.9509V31.7942ZM45.1711 18.7133V21.2865H50.4165V18.7133H45.1711ZM10.532 46.4247H18.8454V45.0391H10.532V46.4247ZM36.2639 46.4247H44.5773V45.0391H36.2639V46.4247ZM46.7009 43.4556C48.0675 43.4556 49.1299 42.3055 49.1299 40.8515V36.7257H46.3588V37.9941C46.3588 39.3762 45.3138 40.4865 43.9758 40.4865H10.8366C9.49858 40.4865 8.45361 39.3762 8.45361 37.9941V15.8954C8.45361 14.5133 9.49858 13.369 10.8366 13.369H43.9758C45.3138 13.369 46.3588 14.5133 46.3588 15.8954V17.1298H49.1299V13.0381C49.1299 11.5841 48.0675 10.3999 46.7009 10.3999H8.11147C6.74485 10.3999 5.58351 11.5841 5.58351 13.0381V40.8515C5.58351 42.3055 6.74485 43.4556 8.11147 43.4556H46.7009ZM46.3588 30.9855H49.1299V22.87H46.3588V30.9855ZM21.4252 19.06C17.0697 19.06 13.5393 22.5904 13.5393 26.9454C13.5393 31.3005 17.0697 34.8313 21.4248 34.8313C25.7802 34.8313 29.3106 31.3005 29.3106 26.9454C29.3056 22.5923 25.7779 19.065 21.4252 19.06ZM21.4252 33.2474C17.9446 33.2478 15.1228 30.426 15.1228 26.9454C15.1228 23.4649 17.9442 20.6435 21.4248 20.6435C24.9053 20.6435 27.7271 23.4649 27.7271 26.9454C27.7228 30.424 24.9038 33.2431 21.4252 33.247V33.2474ZM23.9963 24.2232C23.1292 23.5629 22.1623 23.2447 21.1973 23.3046C19.3622 23.4195 17.8997 24.8823 17.7848 26.7175C17.7253 27.6813 18.0431 28.649 18.7034 29.5161C18.7463 29.5729 18.797 29.6232 18.8534 29.6665C19.6521 30.2746 20.5359 30.592 21.4235 30.592C21.4997 30.592 21.5762 30.5897 21.6524 30.5851C23.4876 30.4702 24.9501 29.0074 25.0653 27.1726C25.1244 26.2084 24.807 25.2407 24.1463 24.3736C24.1034 24.3168 24.0528 24.2665 23.9963 24.2232ZM22.8841 28.4039C22.2848 29.0035 21.151 29.3692 19.8992 28.4704C19.0003 27.2189 19.3664 26.0854 19.9656 25.4858C20.5649 24.8862 21.6984 24.5205 22.9506 25.4193C23.8494 26.6704 23.4837 27.8046 22.8841 28.4039Z" fill="url(#paint0_linear_4094_920)"/>
<defs>
<linearGradient id="paint0_linear_4094_920" x1="13.9" y1="48.0082" x2="54.2012" y2="32.5605" gradientUnits="userSpaceOnUse">
<stop stop-color="#FE5000"/>
<stop offset="1" stop-color="#FCA92A"/>
</linearGradient>
</defs>
</svg>
