<svg width="100" height="100" viewBox="0 0 100 100" fill="none" xmlns="http://www.w3.org/2000/svg">
<circle cx="50" cy="50" r="49.5" stroke="url(#paint0_linear_3985_1745)"/>
<path d="M49.9996 27.0004C49.8746 27 49.7505 27.015 49.6296 27.0445L31.1042 31.6717C30.4556 31.8316 30.0012 32.393 30 33.0366V56.5088C30 58.9256 31.3075 61.2758 33.1636 63.5212C35.0197 65.7666 37.4868 67.9135 40.1563 69.7449C44.7368 72.8873 48.3282 74.3988 49.3919 74.8712C49.7808 75.0429 50.2278 75.0429 50.6167 74.8712C51.6861 74.3965 55.2673 72.8846 59.8437 69.7449C62.5132 67.9135 64.9889 65.7666 66.845 63.5212C68.7011 61.2757 70 58.9256 70 56.5088V33.0366C69.9996 32.3949 69.5497 31.8343 68.9044 31.6717L50.3674 27.0445C50.2474 27.015 50.1241 27 50.0003 27L49.9996 27.0004ZM49.9996 29.8683L67.0743 34.1314V56.5083C67.0743 57.8741 66.1753 59.7918 64.5474 61.7614C62.9195 63.7307 60.6216 65.7393 58.1398 67.4419C54.0928 70.2184 51.3684 71.3663 50.0114 71.9643C48.66 71.3691 45.9233 70.2235 41.8685 67.4419C39.3867 65.7393 37.0889 63.7307 35.4609 61.7614C33.833 59.7918 32.937 57.8741 32.937 56.5083V34.1314L49.9996 29.8683ZM58.1195 42.5589C57.686 42.5561 57.2734 42.7377 56.9923 43.0552L48.1352 53.0292L43.4945 48.1098C43.2322 47.8305 42.8647 47.6634 42.4738 47.6461C42.0825 47.6284 41.7006 47.7615 41.4122 48.016C41.1225 48.2681 40.9496 48.6207 40.9311 48.9961C40.9131 49.3712 41.0508 49.7379 41.3147 50.0152L47.0826 56.1121C47.3657 56.4111 47.7689 56.5789 48.1897 56.5734C48.6105 56.5675 49.0084 56.3886 49.2825 56.0818L59.2237 44.8887C59.4769 44.6039 59.6015 44.234 59.5711 43.8606C59.5404 43.4872 59.3564 43.1409 59.0602 42.8978C58.798 42.682 58.4648 42.5618 58.1194 42.5587L58.1195 42.5589Z" fill="url(#paint1_linear_3985_1745)"/>
<defs>
<linearGradient id="paint0_linear_3985_1745" x1="20.625" y1="100" x2="108.331" y2="72.5509" gradientUnits="userSpaceOnUse">
<stop stop-color="#FE5000"/>
<stop offset="1" stop-color="#FCA92A"/>
</linearGradient>
<linearGradient id="paint1_linear_3985_1745" x1="38.25" y1="75" x2="74.3155" y2="65.5939" gradientUnits="userSpaceOnUse">
<stop stop-color="#FE5000"/>
<stop offset="1" stop-color="#FCA92A"/>
</linearGradient>
</defs>
</svg>
