<svg width="100" height="100" viewBox="0 0 100 100" fill="none" xmlns="http://www.w3.org/2000/svg">
<circle cx="50" cy="50" r="49.5" stroke="url(#paint0_linear_3985_1753)"/>
<path fill-rule="evenodd" clip-rule="evenodd" d="M38.6754 37.9218C38.6754 37.5823 38.6856 37.2489 38.7057 36.9218C39.1371 29.8936 44.1237 25.7729 50.2464 25.7729C56.6539 25.7729 61.6863 30.2861 61.6863 37.9218C61.6863 45.5576 56.6539 53.4245 50.2464 53.4245C44.1183 53.4245 39.1283 46.229 38.7046 38.9218C38.6853 38.5885 38.6754 38.255 38.6754 37.9218ZM43.6841 47.3721C42.0159 45.0424 40.9105 41.9938 40.7087 38.9275C42.6887 38.9224 45.133 38.852 47.3824 38.4102C49.92 37.9118 52.5437 36.8724 53.8343 34.6219C54.395 35.1125 55.08 35.6176 55.8444 36.0142C56.9205 36.5724 58.2553 36.9617 59.634 36.6788C59.6685 37.0793 59.6863 37.4936 59.6863 37.9218C59.6863 41.3304 58.5539 44.803 56.7345 47.3843C54.902 49.9841 52.5794 51.4245 50.2464 51.4245C47.9068 51.4245 45.5493 49.9769 43.6841 47.3721ZM56.9469 30.3901C58.0125 31.468 58.8499 32.9042 59.3057 34.7012C58.4947 34.891 57.632 34.6884 56.7654 34.2388C55.656 33.6633 54.7143 32.7621 54.2405 32.1999C53.9982 31.9124 53.6151 31.7851 53.249 31.8704C52.8828 31.9557 52.5955 32.2391 52.5051 32.604C51.9815 34.7194 49.923 35.873 46.997 36.4477C44.9176 36.856 42.6443 36.9216 40.7096 36.9267C40.9091 34.071 41.9674 31.8965 43.4692 30.4013C45.1494 28.7283 47.5173 27.7729 50.2464 27.7729C52.9728 27.7729 55.3018 28.7261 56.9469 30.3901ZM57.2184 55.225C58.5357 53.6382 60.0087 53.2523 60.9304 53.5136C65.4095 54.5128 68.0672 57.9798 69.6682 61.3334C70.9763 64.0735 71.6559 66.9137 72.0382 68.5114L72.0382 68.5115C72.1237 68.8686 72.1943 69.1637 72.2537 69.3816C72.433 70.039 72.4461 70.6566 72.2738 71.2145C72.1 71.7773 71.7619 72.2001 71.3726 72.5012C70.6327 73.0734 69.6917 73.2265 69.0826 73.2265H55.2581H45.3816H31.4814C30.003 73.2265 28.8667 72.8694 28.1931 72.0377C27.5236 71.211 27.5444 70.2006 27.6818 69.4619C30.2002 55.915 37.0164 53.4823 39.0256 53.4823L39.0978 53.4823C39.5895 53.4816 40.1164 53.4809 40.6956 53.7453C41.2434 53.9952 41.7839 54.4557 42.512 55.1302C43.9653 56.4765 45.8299 56.9111 47.8826 57.0401C48.7305 57.0934 49.5818 57.0934 50.4363 57.0934H50.4364H50.4482C51.2699 57.0934 52.1031 57.0552 52.9022 56.9604C54.895 56.7241 56.4398 56.1628 57.2184 55.225ZM58.7572 56.5025C59.6146 55.4698 60.2597 55.4454 60.3704 55.4412C60.3899 55.4405 60.3929 55.4404 60.3776 55.4355C60.4065 55.4447 60.4357 55.4525 60.4653 55.459C64.0855 56.2542 66.3704 59.0679 67.8633 62.1951C69.0661 64.7144 69.6798 67.2656 70.0711 68.8921L70.0711 68.8922C70.167 69.291 70.2496 69.6343 70.3242 69.9078C70.4265 70.2831 70.3998 70.5046 70.3628 70.6244C70.3273 70.7394 70.2605 70.8329 70.1491 70.9191C69.8875 71.1214 69.4437 71.2265 69.0827 71.2265H56.0442L54.0592 63.0585L55.2749 62.2007C55.6761 61.9176 55.8124 61.3852 55.5966 60.9441L54.5106 58.7246C56.1552 58.3796 57.7411 57.7265 58.7572 56.5025ZM52.3022 64.2982L53.986 71.2265H46.6676L48.4413 64.2483L49.8942 65.2151C50.2381 65.4439 50.6872 65.4378 51.0247 65.1997L52.3022 64.2982ZM46.6762 63.0738L44.604 71.2265H31.4814C30.2531 71.2265 29.864 70.923 29.7474 70.779C29.6267 70.63 29.551 70.3495 29.6481 69.8275C32.0556 56.877 38.2974 55.4823 39.0256 55.4823C39.6084 55.4823 39.7161 55.4967 39.8653 55.5648C40.0743 55.6601 40.3897 55.8904 41.1528 56.5974C42.6607 57.9942 44.4475 58.6036 46.204 58.8735L45.0695 60.894C44.8134 61.3501 44.952 61.9264 45.3874 62.2162L46.6762 63.0738ZM47.2673 61.0648L48.3888 59.0675C49.0838 59.0934 49.7666 59.0934 50.4094 59.0934H50.4482C51.0968 59.0934 51.7635 59.0713 52.4272 59.0172L53.4256 61.0578L52.3503 61.8166L50.4316 63.1704L48.3739 61.8011L47.2673 61.0648Z" fill="url(#paint1_linear_3985_1753)"/>
<defs>
<linearGradient id="paint0_linear_3985_1753" x1="20.625" y1="100" x2="108.331" y2="72.5509" gradientUnits="userSpaceOnUse">
<stop stop-color="#FE5000"/>
<stop offset="1" stop-color="#FCA92A"/>
</linearGradient>
<linearGradient id="paint1_linear_3985_1753" x1="36.8427" y1="73.2265" x2="76.5134" y2="61.5074" gradientUnits="userSpaceOnUse">
<stop stop-color="#FE5000"/>
<stop offset="1" stop-color="#FCA92A"/>
</linearGradient>
</defs>
</svg>
