<svg width="56" height="56" viewBox="0 0 56 56" fill="none" xmlns="http://www.w3.org/2000/svg">
<path d="M45.7024 53.4545H20.7107C17.795 53.4545 15.504 51.1212 15.504 48.1515V16.3333C15.504 13.3636 17.795 11.0303 20.7107 11.0303H45.7024C48.6181 11.0303 50.909 13.3636 50.909 16.3333V48.1515C50.909 51.1212 48.6181 53.4545 45.7024 53.4545ZM20.7107 13.1515C18.9404 13.1515 17.5867 14.5303 17.5867 16.3333V48.1515C17.5867 49.9545 18.9404 51.3333 20.7107 51.3333H45.7024C47.4726 51.3333 48.8264 49.9545 48.8264 48.1515V16.3333C48.8264 14.5303 47.4726 13.1515 45.7024 13.1515H20.7107ZM12.3801 47.0909H10.2974C7.38173 47.0909 5.09082 44.7575 5.09082 41.7878V7.84844C5.09082 4.87874 7.38173 2.54541 10.2974 2.54541H35.2892C38.2049 2.54541 40.4958 4.87874 40.4958 7.84844C40.4958 8.4848 40.0792 8.90905 39.4545 8.90905C38.8297 8.90905 38.4131 8.4848 38.4131 7.84844C38.4131 6.04541 37.0594 4.66662 35.2892 4.66662H10.2974C8.52718 4.66662 7.17346 6.04541 7.17346 7.84844V41.7878C7.17346 43.5909 8.52718 44.9697 10.2974 44.9697H12.3801C13.0049 44.9697 13.4214 45.3939 13.4214 46.0303C13.4214 46.6666 13.0049 47.0909 12.3801 47.0909ZM41.5371 38.606H24.8759C24.2512 38.606 23.8346 38.1818 23.8346 37.5454C23.8346 36.909 24.2512 36.4848 24.8759 36.4848H41.5371C42.1619 36.4848 42.5784 36.909 42.5784 37.5454C42.5784 38.1818 42.1619 38.606 41.5371 38.606ZM41.5371 47.0909H24.8759C24.2512 47.0909 23.8346 46.6666 23.8346 46.0303C23.8346 45.3939 24.2512 44.9697 24.8759 44.9697H41.5371C42.1619 44.9697 42.5784 45.3939 42.5784 46.0303C42.5784 46.6666 42.1619 47.0909 41.5371 47.0909ZM41.5371 30.1212H24.8759C24.2512 30.1212 23.8346 29.6969 23.8346 29.0606C23.8346 28.4242 24.2512 28 24.8759 28H41.5371C42.1619 28 42.5784 28.4242 42.5784 29.0606C42.5784 29.6969 42.1619 30.1212 41.5371 30.1212ZM41.5371 21.6363H24.8759C24.2512 21.6363 23.8346 21.2121 23.8346 20.5757C23.8346 19.9394 24.2512 19.5151 24.8759 19.5151H41.5371C42.1619 19.5151 42.5784 19.9394 42.5784 20.5757C42.5784 21.2121 42.1619 21.6363 41.5371 21.6363Z" fill="url(#paint0_linear_7177_2812)"/>
<defs>
<linearGradient id="paint0_linear_7177_2812" x1="14.5408" y1="53.4545" x2="55.419" y2="41.9403" gradientUnits="userSpaceOnUse">
<stop stop-color="#FE5000"/>
<stop offset="1" stop-color="#FCA92A"/>
</linearGradient>
</defs>
</svg>
