<svg width="44" height="44" viewBox="0 0 44 44" fill="none" xmlns="http://www.w3.org/2000/svg">
<path d="M1.2692 12.1505C1.25321 12.2374 1.2442 12.3255 1.24129 12.4136V14.2231C1.24362 14.9689 1.70676 15.6355 2.40539 15.8975V18.56C2.40858 19.4514 3.10954 20.184 3.99976 20.2262V35.608C3.10954 35.6504 2.40858 36.383 2.40539 37.2741V39.9288C1.7053 40.1977 1.24246 40.8693 1.24129 41.6188V43.3888C1.24129 43.7188 1.50935 43.9866 1.83933 43.9866H42.1616C42.4916 43.9866 42.7593 43.7188 42.7593 43.3888V41.6188C42.7582 40.869 42.2953 40.1975 41.5955 39.9288V37.2584C41.5923 36.3671 40.8911 35.6344 40.0011 35.5923V20.2262C40.8911 20.184 41.5923 19.4514 41.5955 18.56V15.8975C42.2939 15.6355 42.757 14.9689 42.7593 14.2231V12.4255C42.7567 12.3374 42.7474 12.2494 42.7314 12.1624C43.032 12.2956 43.3835 12.1601 43.5167 11.8595C43.6498 11.5592 43.5144 11.2077 43.214 11.0742L22.2755 0.0691217C22.1008 -0.0230406 21.892 -0.0230406 21.7173 0.0691217L0.779029 11.0623C0.486843 11.2167 0.374911 11.5781 0.528709 11.8702C0.669423 12.1371 0.986903 12.2575 1.2692 12.1505ZM3.60117 16.9336V16.0129H10.4968V16.9258L3.60117 16.9336ZM18.955 20.2302V35.608C18.0648 35.6504 17.3639 36.383 17.3607 37.2741V39.8172H11.6844V37.2741C11.6812 36.383 10.9802 35.6504 10.09 35.608V20.2262C10.9802 20.184 11.6812 19.4514 11.6844 18.56V16.0129H17.3525V18.5562C17.354 19.449 18.0555 20.1834 18.9472 20.2262L18.955 20.2302ZM18.5564 16.9336V16.0129H25.4523V16.9258L18.5564 16.9336ZM33.9106 20.2302V35.608C33.0204 35.6504 32.3191 36.383 32.3159 37.2741V39.8172H26.64V37.2741C26.6368 36.383 25.9355 35.6504 25.0456 35.608V20.2262C25.9355 20.184 26.6368 19.4514 26.64 18.56V16.0129H32.3081V18.5562C32.3092 19.449 33.0108 20.1834 33.9025 20.2262L33.9106 20.2302ZM33.512 16.9336V16.0129H40.4076V16.9258L33.512 16.9336ZM40.4076 38.9046V39.8172H33.5039V38.9046H40.4076ZM25.4523 38.9046V39.8172H18.5486V38.9046H25.4523ZM19.5449 19.0423H19.0268C18.7626 19.0423 18.5486 18.8283 18.5486 18.5641V18.1294H25.4442V18.5641C25.4442 18.8283 25.2302 19.0423 24.9659 19.0423H19.5449ZM23.8539 20.2381V35.6001H20.143V20.2381H23.8539ZM19.5449 36.7959H24.9659C25.2302 36.7959 25.4442 37.0099 25.4442 37.2741V37.7088H18.5486V37.2741C18.5486 37.0099 18.7626 36.7959 19.0268 36.7959H19.5449ZM10.4889 38.9046V39.8172H3.59303V38.9046H10.4889ZM3.59303 18.576V18.1294H10.4889V18.5641C10.4889 18.8283 10.2749 19.0423 10.0104 19.0423H4.05936C3.79828 19.0359 3.5907 18.8211 3.59303 18.56V18.576ZM8.89453 20.25V35.6001H5.1874V20.2381L8.89453 20.25ZM3.59303 37.2864C3.59303 37.0218 3.80701 36.8078 4.07128 36.8078H10.0104C10.2749 36.8078 10.4889 37.0218 10.4889 37.2864V37.7207H3.59303V37.2864ZM41.5635 41.643V42.8146H2.42923V41.643C2.42923 41.3017 2.70571 41.0249 3.04703 41.0249H40.9457C41.2821 41.0249 41.5571 41.2944 41.5635 41.6308V41.643ZM40.3997 37.2864V37.7207H33.5039V37.2864C33.5039 37.0218 33.7178 36.8078 33.9821 36.8078H39.9334C40.1884 36.8142 40.3933 37.0192 40.3997 37.2741V37.2864ZM35.0982 35.612V20.2381H38.8091V35.6001L35.0982 35.612ZM40.3997 18.576C40.3997 18.8403 40.1858 19.0542 39.9215 19.0542H33.9862C33.7219 19.0542 33.5079 18.8403 33.5079 18.576V18.1294H40.4035L40.3997 18.576ZM21.9964 1.2649L39.8017 10.6239H4.19106L21.9964 1.2649ZM2.42923 12.4255C2.42923 12.0956 2.69699 11.8278 3.02697 11.8278H40.9658C41.2958 11.8278 41.5635 12.0956 41.5635 12.4255V14.2353C41.5635 14.5653 41.2958 14.8331 40.9658 14.8331H3.02697C2.69699 14.8331 2.42923 14.5653 2.42923 14.2353V12.4255Z" fill="#FE5000"/>
</svg>
