<svg width="44" height="44" viewBox="0 0 44 44" fill="none" xmlns="http://www.w3.org/2000/svg">
<path d="M42.4946 11.9072L31.285 0.259359C31.1254 0.0936719 30.9052 0 30.6753 0H13.9682C12.0984 0 10.5773 1.52058 10.5773 3.38955V15.2308H3.80649C2.4076 15.2308 1.26953 16.3685 1.26953 17.7671V30.4638C1.26953 31.8623 2.4076 33 3.80649 33H10.5773V40.6164C10.5773 42.4821 12.0984 44 13.9682 44H39.3402C41.2099 44 42.7311 42.4829 42.7311 40.6183V12.494C42.7311 12.2752 42.6463 12.0649 42.4946 11.9072ZM30.885 2.2843L40.0871 11.8461H30.885V2.2843ZM3.80649 31.3077C3.34071 31.3077 2.9619 30.9292 2.9619 30.4638V17.7671C2.9619 17.3017 3.3408 16.9231 3.80649 16.9231H26.6556C27.1213 16.9231 27.5003 17.3017 27.5003 17.7671V30.4638C27.5003 30.9292 27.1213 31.3077 26.6556 31.3077H3.80649ZM41.0387 40.6183C41.0387 41.5498 40.2767 42.3077 39.3401 42.3077H13.9682C13.0315 42.3077 12.2695 41.5491 12.2695 40.6165V33H26.6556C28.0545 33 29.1926 31.8623 29.1926 30.4638V17.7671C29.1926 16.3685 28.0545 15.2308 26.6556 15.2308H12.2695V3.38955C12.2695 2.4536 13.0315 1.69228 13.9682 1.69228H29.1926V12.6923C29.1926 13.1596 29.5715 13.5384 30.0387 13.5384H41.0387V40.6183Z" fill="#FE5000"/>
<path d="M11.2428 22.6403C11.0841 22.176 10.853 21.7836 10.5488 21.4629C10.2448 21.1422 9.87948 20.9192 9.45305 20.7936C9.13577 20.7008 8.6748 20.6548 8.0698 20.6548H5.3877V27.923H8.14913C8.6913 27.923 9.12434 27.8719 9.44816 27.7692C9.8812 27.6304 10.2249 27.4371 10.4794 27.1892C10.8166 26.862 11.076 26.434 11.2579 25.9051C11.4066 25.4721 11.4808 24.9567 11.4808 24.3582C11.4807 23.6775 11.4014 23.1048 11.2428 22.6403ZM9.81485 25.6251C9.71585 25.9507 9.58763 26.1844 9.43071 26.3265C9.2737 26.4686 9.07613 26.5696 8.83817 26.629C8.6565 26.6753 8.36053 26.6984 7.95078 26.6984H6.85508V21.8841H7.51439C8.11286 21.8841 8.51436 21.9072 8.71932 21.9536C8.99372 22.0132 9.22008 22.1272 9.39857 22.2956C9.57689 22.4642 9.71585 22.699 9.81485 22.9999C9.91402 23.3005 9.96378 23.7318 9.96378 24.2938C9.96387 24.8558 9.91411 25.2995 9.81485 25.6251Z" fill="#FE5000"/>
<path d="M25.2737 25.2506C25.1512 25.7828 24.9496 26.173 24.6687 26.4206C24.3877 26.6686 24.0522 26.7926 23.6621 26.7926C23.1333 26.7926 22.7037 26.5975 22.3733 26.2077C22.0427 25.8176 21.8774 25.163 21.8774 24.2442C21.8774 23.3784 22.0451 22.752 22.3806 22.3654C22.7161 21.9785 23.1532 21.785 23.692 21.785C24.082 21.785 24.4133 21.8942 24.686 22.1123C24.9587 22.3305 25.1381 22.628 25.224 23.0047L26.6767 22.6575C26.5115 22.0758 26.2636 21.6297 25.9331 21.319C25.3778 20.7936 24.6557 20.5308 23.7666 20.5308C22.7484 20.5308 21.927 20.8654 21.3024 21.5348C20.6777 22.2041 20.3652 23.1435 20.3652 24.3533C20.3652 25.4968 20.676 26.3984 21.2975 27.0578C21.9187 27.7172 22.712 28.0469 23.6773 28.0469C24.4572 28.0469 25.1009 27.8544 25.6084 27.4693C26.1157 27.0843 26.4784 26.4952 26.6965 25.7019L25.2737 25.2506Z" fill="#FE5000"/>
<path d="M18.5137 21.5274C17.8706 20.8629 17.0139 20.5308 15.9428 20.5308C15.3512 20.5308 14.8291 20.6266 14.3762 20.8182C14.0358 20.9604 13.7226 21.1785 13.4367 21.4727C13.1507 21.7667 12.9252 22.099 12.7598 22.4692C12.5383 22.9716 12.4277 23.593 12.4277 24.3333C12.4277 25.4902 12.7467 26.3984 13.3845 27.0577C14.0225 27.7171 14.882 28.0468 15.9628 28.0468C17.0304 28.0468 17.8831 27.7156 18.5211 27.0528C19.1589 26.3901 19.4779 25.472 19.4779 24.2986C19.4779 23.1153 19.1565 22.1916 18.5137 21.5274ZM17.398 26.1605C17.023 26.5819 16.5428 26.7926 15.9576 26.7926C15.3727 26.7926 14.8902 26.5802 14.5101 26.1556C14.13 25.7308 13.9398 25.107 13.9398 24.284C13.9398 23.4477 14.1249 22.8222 14.495 22.4074C14.8653 21.9926 15.3529 21.785 15.9576 21.785C16.5626 21.785 17.0476 21.99 17.4128 22.4C17.7781 22.8097 17.9606 23.4312 17.9606 24.2641C17.9606 25.107 17.7732 25.7391 17.398 26.1605Z" fill="#FE5000"/>
</svg>
