<svg width="100" height="100" viewBox="0 0 100 100" fill="none" xmlns="http://www.w3.org/2000/svg">
<circle cx="50" cy="50" r="49.5" stroke="url(#paint0_linear)"/>
<path d="M71.4241 46.984C70.8001 46.984 70.3841 47.4 70.3841 48.024V52.08V58.216V59.256C70.3841 60.4 69.4481 61.336 68.3041 61.336H66.2241C64.4561 61.336 63.2081 62.688 63.2081 64.352V66.432C63.2081 67.576 62.2721 68.512 61.1281 68.512H56.0321H30.5521C29.9281 68.512 29.5121 68.096 29.5121 67.472V47.92C29.5121 47.296 29.0961 46.88 28.4721 46.88C27.8481 46.88 27.4321 47.296 27.4321 47.92V67.368C27.4321 69.136 28.7841 70.384 30.4481 70.384H56.0321H61.1281H62.4801C63.8321 70.384 65.1841 69.864 66.0161 68.824L70.8001 64.04C71.7361 63.104 72.3601 61.752 72.3601 60.504V59.152V58.112V52.08V47.92C72.4641 47.296 72.0481 46.984 71.4241 46.984ZM65.1841 67.056C65.1841 66.848 65.2881 66.64 65.2881 66.328V64.248C65.2881 63.624 65.7041 63.208 66.3281 63.208H68.4081C68.6161 63.208 68.8241 63.208 69.1361 63.104L65.1841 67.056ZM69.4481 32.632H62.2721V30.552C62.2721 29.928 61.8561 29.512 61.2321 29.512C60.6081 29.512 60.1921 29.928 60.1921 30.552V32.632H39.8081V30.552C39.8081 29.928 39.3921 29.512 38.7681 29.512C38.1441 29.512 37.7281 29.928 37.7281 30.552V32.632H30.5521C28.7841 32.632 27.5361 33.984 27.5361 35.648V43.864C27.5361 44.488 27.9521 44.904 28.5761 44.904H71.5281C72.1521 44.904 72.5681 44.488 72.5681 43.864V35.648C72.4641 33.984 71.1121 32.632 69.4481 32.632ZM70.3841 42.824H29.6161V35.648C29.6161 35.024 30.0321 34.608 30.6561 34.608H37.8321V37C37.2081 37.312 36.7921 38.04 36.7921 38.768C36.7921 39.912 37.7281 40.848 38.8721 40.848C40.0161 40.848 40.9521 39.912 40.9521 38.768C40.9521 38.04 40.5361 37.312 39.9121 37V34.608H60.2961V37C59.6721 37.312 59.2561 38.04 59.2561 38.768C59.2561 39.912 60.1921 40.848 61.3361 40.848C62.4801 40.848 63.4161 39.912 63.4161 38.768C63.4161 38.04 63.0001 37.312 62.3761 37V34.608H69.5521C70.1761 34.608 70.5921 35.024 70.5921 35.648L70.3841 42.824ZM45.9441 53.016C47.0881 53.016 48.0241 52.08 48.0241 50.936C48.0241 49.792 47.0881 48.856 45.9441 48.856C44.8001 48.856 43.8641 49.792 43.8641 50.936C43.8641 52.184 44.8001 53.016 45.9441 53.016ZM54.0561 53.016C55.2001 53.016 56.1361 52.08 56.1361 50.936C56.1361 49.792 55.2001 48.856 54.0561 48.856C52.9121 48.856 51.9761 49.792 51.9761 50.936C52.0801 52.184 52.9121 53.016 54.0561 53.016ZM62.2721 53.016C63.4161 53.016 64.3521 52.08 64.3521 50.936C64.3521 49.792 63.4161 48.856 62.2721 48.856C61.1281 48.856 60.1921 49.792 60.1921 50.936C60.1921 52.184 61.1281 53.016 62.2721 53.016ZM37.7281 62.272C38.8721 62.272 39.8081 61.336 39.8081 60.192C39.8081 59.048 38.8721 58.112 37.7281 58.112C36.5841 58.112 35.6481 59.048 35.6481 60.192C35.6481 61.336 36.5841 62.272 37.7281 62.272ZM45.9441 62.272C47.0881 62.272 48.0241 61.336 48.0241 60.192C48.0241 59.048 47.0881 58.112 45.9441 58.112C44.8001 58.112 43.8641 59.048 43.8641 60.192C43.8641 61.336 44.8001 62.272 45.9441 62.272ZM54.0561 62.272C55.2001 62.272 56.1361 61.336 56.1361 60.192C56.1361 59.048 55.2001 58.112 54.0561 58.112C52.9121 58.112 51.9761 59.048 51.9761 60.192C51.9761 61.336 52.9121 62.272 54.0561 62.272Z" fill="url(#paint1_linear)"/>
<defs>
<linearGradient id="paint0_linear" x1="20.625" y1="100" x2="108.331" y2="72.5509" gradientUnits="userSpaceOnUse">
<stop stop-color="#FE5000"/>
<stop offset="1" stop-color="#FCA92A"/>
</linearGradient>
<linearGradient id="paint1_linear" x1="36.7414" y1="70.384" x2="75.568" y2="56.9649" gradientUnits="userSpaceOnUse">
<stop stop-color="#FE5000"/>
<stop offset="1" stop-color="#FCA92A"/>
</linearGradient>
</defs>
</svg>
