<svg width="100" height="100" viewBox="0 0 100 100" fill="none" xmlns="http://www.w3.org/2000/svg">
<circle cx="50" cy="50" r="49.5" stroke="url(#paint0_linear)"/>
<path d="M67.3182 35.5L70.1818 32.6364L66.3637 28.8182L63.0909 32.0909C59.5455 29.9091 55.3182 28.5455 50.9546 28.4091V26.5H56.4091V23.7727C56.4091 22.2727 55.1818 21.0455 53.6818 21.0455H46.4546C44.9546 21.0455 43.7273 22.2727 43.7273 23.7727V26.5H49.1818V28.2727C44.6818 28.5455 40.4546 29.9091 36.9091 32.0909L33.6364 28.8182L29.8182 32.6364L32.6818 35.5C28.3182 39.8637 25.7273 45.8637 25.7273 52.5455C25.7273 65.9091 36.6364 76.8182 50 76.8182C63.3637 76.8182 74.2727 65.9091 74.2727 52.5455C74.2727 46 71.5455 40 67.3182 35.5ZM66.3637 31.4091L67.5909 32.6364L65.9546 34.2727C65.5455 33.8637 65 33.4546 64.5909 33.1818L66.3637 31.4091ZM45.5 24.7273V23.7727C45.5 23.2273 45.9091 22.8182 46.4546 22.8182H53.6818C54.2273 22.8182 54.6364 23.2273 54.6364 23.7727V24.7273H45.5ZM32.4091 32.6364L33.6364 31.4091L35.4091 33.1818C34.8637 33.5909 34.4546 33.8637 34.0455 34.2727L32.4091 32.6364ZM50 75.0455C37.5909 75.0455 27.5 64.9546 27.5 52.5455C27.5 40.1364 37.5909 30.1818 50 30.1818C62.4091 30.1818 72.5 40.2727 72.5 52.6818C72.5 64.9546 62.4091 75.0455 50 75.0455ZM50 33.7273C39.6364 33.7273 31.1818 42.1818 31.1818 52.5455C31.1818 62.9091 39.6364 71.3637 50 71.3637C60.3637 71.3637 68.8182 62.9091 68.8182 52.5455C68.8182 42.1818 60.3637 33.7273 50 33.7273ZM50.9546 69.5909V67.8182H49.1818V69.5909C40.4546 69.1818 33.5 62.2273 32.9546 53.5H34.7273V51.7273H32.9546C33.3637 43 40.4546 36.0455 49.0455 35.6364V37.4091H50.8182V35.6364C59.5455 36.0455 66.6364 43 67.0455 51.7273H65.2728V53.5H67.0455C66.6364 62.2273 59.5455 69.1818 50.9546 69.5909ZM50 49C47.9546 49 46.4546 50.6364 46.4546 52.5455C46.4546 54.5909 48.0909 56.0909 50 56.0909C52.0455 56.0909 53.5455 54.4546 53.5455 52.5455C53.5455 50.6364 52.0455 49 50 49ZM50 54.4546C49.0455 54.4546 48.2273 53.6364 48.2273 52.6818C48.2273 51.7273 49.0455 50.9091 50 50.9091C50.9546 50.9091 51.7727 51.7273 51.7727 52.6818C51.7727 53.6364 50.9546 54.4546 50 54.4546ZM50.9546 40H49.1818V48.0455H50.9546V40ZM45.5 51.7273H40.0455V53.5H45.5V51.7273Z" fill="url(#paint1_linear)"/>
<defs>
<linearGradient id="paint0_linear" x1="20.625" y1="100" x2="108.331" y2="72.5509" gradientUnits="userSpaceOnUse">
<stop stop-color="#FE5000"/>
<stop offset="1" stop-color="#FCA92A"/>
</linearGradient>
<linearGradient id="paint1_linear" x1="35.7398" y1="76.8182" x2="79.2581" y2="64.9633" gradientUnits="userSpaceOnUse">
<stop stop-color="#FE5000"/>
<stop offset="1" stop-color="#FCA92A"/>
</linearGradient>
</defs>
</svg>
