<svg width="44" height="44" viewBox="0 0 44 44" fill="none" xmlns="http://www.w3.org/2000/svg">
<path d="M42.4959 11.9109L31.2811 0.257812C31.1178 0.0945313 30.903 0 30.6709 0H13.9647C12.0913 0 10.5702 1.52109 10.5702 3.38594V15.2281H3.80688C2.4061 15.2281 1.27173 16.3625 1.27173 17.7633V30.4562C1.27173 31.857 2.4061 32.9914 3.80688 32.9914H10.5788V40.6055C10.5788 42.4703 12.0999 43.9914 13.9733 43.9914H39.342C41.2155 43.9914 42.7366 42.4703 42.7366 40.6055V12.4953C42.728 12.2719 42.642 12.0656 42.4959 11.9109ZM30.8858 2.28594L40.0897 11.8508H30.8858V2.28594ZM3.80688 31.307C3.34282 31.307 2.9647 30.9289 2.9647 30.4648V17.7633C2.9647 17.2992 3.34282 16.9211 3.80688 16.9211H26.6577C27.1217 16.9211 27.4999 17.2992 27.4999 17.7633V30.4562C27.4999 30.9203 27.1217 31.2984 26.6577 31.2984H3.80688V31.307ZM41.035 40.6141C41.035 41.5422 40.2702 42.307 39.3335 42.307H13.9647C13.028 42.307 12.2631 41.5508 12.2631 40.6141V33H26.6491C28.0499 33 29.1842 31.8656 29.1842 30.4648V17.7633C29.1842 16.3625 28.0499 15.2281 26.6491 15.2281H12.2717V3.38594C12.2717 2.44922 13.0366 1.68438 13.9733 1.68438H29.2014V12.6844C29.2014 13.1484 29.5795 13.5266 30.0436 13.5266H41.0436L41.035 40.6141ZM11.3866 21.4758C11.103 21.1148 10.7592 20.8742 10.3381 20.7625C10.0631 20.6938 9.48735 20.6508 8.5936 20.6508H6.23892V27.9211H7.70845V25.1797H8.66235C9.32407 25.1797 9.8311 25.1453 10.1834 25.0766C10.4413 25.0164 10.6991 24.9047 10.9483 24.7328C11.1975 24.5609 11.4038 24.3203 11.567 24.0195C11.7303 23.7188 11.8077 23.3406 11.8077 22.8937C11.8077 22.3094 11.6702 21.8367 11.3866 21.4758ZM10.1319 23.4781C10.0202 23.6414 9.86548 23.7617 9.67642 23.8391C9.48735 23.9164 9.09204 23.9508 8.51626 23.9508H7.71704V21.8883H8.42173C8.95454 21.8883 9.29829 21.9055 9.47876 21.9398C9.71939 21.9828 9.91704 22.0945 10.0717 22.2664C10.2264 22.4383 10.3038 22.6531 10.3038 22.9195C10.2952 23.1258 10.235 23.3148 10.1319 23.4781ZM18.8631 22.6445C18.7084 22.1805 18.4764 21.7852 18.167 21.4672C17.8577 21.1492 17.4967 20.9258 17.067 20.7969C16.7491 20.7023 16.285 20.6594 15.6834 20.6594H13.0022V27.9297H15.7608C16.3022 27.9297 16.7319 27.8781 17.0584 27.775C17.4881 27.6375 17.8319 27.4398 18.0897 27.1906C18.4249 26.8641 18.6827 26.4344 18.8717 25.9102C19.0178 25.4805 19.0952 24.9648 19.0952 24.3633C19.0952 23.6758 19.0178 23.1086 18.8631 22.6445ZM17.4366 25.6266C17.3334 25.9531 17.2131 26.1852 17.0499 26.3312C16.8952 26.4773 16.6975 26.5719 16.4569 26.632C16.2764 26.675 15.9756 26.7008 15.5717 26.7008H14.4717V21.8883H15.1334C15.735 21.8883 16.1303 21.9141 16.3366 21.957C16.6116 22.0172 16.835 22.1289 17.0155 22.3008C17.1959 22.4727 17.3334 22.7047 17.428 23.0055C17.5311 23.3063 17.5741 23.7359 17.5741 24.3031C17.5827 24.8531 17.5311 25.3 17.4366 25.6266ZM25.3342 21.8883V20.6594H20.3499V27.9297H21.8194V24.8359H24.853V23.607H21.8194V21.8883H25.3342Z" fill="#FE5000"/>
</svg>
