<svg width="70" height="70" viewBox="0 0 70 70" fill="none" xmlns="http://www.w3.org/2000/svg">
<path d="M33.9539 0.517242H31.1953V3.27586H33.9539V0.517242Z" fill="black"/>
<path d="M39.4715 0.517242H36.7129V3.27586H39.4715V0.517242Z" fill="black"/>
<path d="M25.6785 3.27585H22.9199V6.03448H25.6785V3.27585Z" fill="black"/>
<path d="M28.4363 3.27585H25.6777V6.03448H28.4363V3.27585Z" fill="black"/>
<path d="M33.9539 3.27585H31.1953V6.03448H33.9539V3.27585Z" fill="black"/>
<path d="M42.2303 3.27585H39.4717V6.03448H42.2303V3.27585Z" fill="black"/>
<path d="M47.7469 3.27585H44.9883V6.03448H47.7469V3.27585Z" fill="black"/>
<path d="M25.6785 6.03448H22.9199V8.79311H25.6785V6.03448Z" fill="black"/>
<path d="M31.1952 6.03448H28.4365V8.79311H31.1952V6.03448Z" fill="black"/>
<path d="M33.9539 6.03448H31.1953V8.79311H33.9539V6.03448Z" fill="black"/>
<path d="M36.7127 6.03448H33.9541V8.79311H36.7127V6.03448Z" fill="black"/>
<path d="M42.2303 6.03448H39.4717V8.79311H42.2303V6.03448Z" fill="black"/>
<path d="M25.6785 8.79309H22.9199V11.5517H25.6785V8.79309Z" fill="black"/>
<path d="M28.4363 8.79309H25.6777V11.5517H28.4363V8.79309Z" fill="black"/>
<path d="M36.7127 8.79309H33.9541V11.5517H36.7127V8.79309Z" fill="black"/>
<path d="M39.4715 8.79309H36.7129V11.5517H39.4715V8.79309Z" fill="black"/>
<path d="M42.2303 8.79309H39.4717V11.5517H42.2303V8.79309Z" fill="black"/>
<path d="M33.9539 11.5517H31.1953V14.3103H33.9539V11.5517Z" fill="black"/>
<path d="M36.7127 11.5517H33.9541V14.3103H36.7127V11.5517Z" fill="black"/>
<path d="M39.4715 11.5517H36.7129V14.3103H39.4715V11.5517Z" fill="black"/>
<path d="M47.7469 11.5517H44.9883V14.3103H47.7469V11.5517Z" fill="black"/>
<path d="M28.4363 14.3103H25.6777V17.069H28.4363V14.3103Z" fill="black"/>
<path d="M39.4715 14.3103H36.7129V17.069H39.4715V14.3103Z" fill="black"/>
<path d="M42.2303 14.3103H39.4717V17.069H42.2303V14.3103Z" fill="black"/>
<path d="M25.6785 17.069H22.9199V19.8276H25.6785V17.069Z" fill="black"/>
<path d="M31.1952 17.069H28.4365V19.8276H31.1952V17.069Z" fill="black"/>
<path d="M36.7127 17.069H33.9541V19.8276H36.7127V17.069Z" fill="black"/>
<path d="M42.2303 17.069H39.4717V19.8276H42.2303V17.069Z" fill="black"/>
<path d="M47.7469 17.069H44.9883V19.8276H47.7469V17.069Z" fill="black"/>
<path d="M25.6785 19.8276H22.9199V22.5862H25.6785V19.8276Z" fill="black"/>
<path d="M28.4363 19.8276H25.6777V22.5862H28.4363V19.8276Z" fill="black"/>
<path d="M42.2303 19.8276H39.4717V22.5862H42.2303V19.8276Z" fill="black"/>
<path d="M44.9881 19.8276H42.2295V22.5862H44.9881V19.8276Z" fill="black"/>
<path d="M47.7469 19.8276H44.9883V22.5862H47.7469V19.8276Z" fill="black"/>
<path d="M3.6092 22.5862H0.850586V25.3448H3.6092V22.5862Z" fill="black"/>
<path d="M20.161 22.5862H17.4023V25.3448H20.161V22.5862Z" fill="black"/>
<path d="M25.6785 22.5862H22.9199V25.3448H25.6785V22.5862Z" fill="black"/>
<path d="M31.1952 22.5862H28.4365V25.3448H31.1952V22.5862Z" fill="black"/>
<path d="M33.9539 22.5862H31.1953V25.3448H33.9539V22.5862Z" fill="black"/>
<path d="M36.7127 22.5862H33.9541V25.3448H36.7127V22.5862Z" fill="black"/>
<path d="M39.4715 22.5862H36.7129V25.3448H39.4715V22.5862Z" fill="black"/>
<path d="M42.2303 22.5862H39.4717V25.3448H42.2303V22.5862Z" fill="black"/>
<path d="M50.5057 22.5862H47.7471V25.3448H50.5057V22.5862Z" fill="black"/>
<path d="M53.2645 22.5862H50.5059V25.3448H53.2645V22.5862Z" fill="black"/>
<path d="M61.5398 22.5862H58.7812V25.3448H61.5398V22.5862Z" fill="black"/>
<path d="M64.2987 22.5862H61.54V25.3448H64.2987V22.5862Z" fill="black"/>
<path d="M67.0574 22.5862H64.2988V25.3448H67.0574V22.5862Z" fill="black"/>
<path d="M6.368 25.3448H3.60938V28.1034H6.368V25.3448Z" fill="black"/>
<path d="M17.4022 25.3448H14.6436V28.1034H17.4022V25.3448Z" fill="black"/>
<path d="M22.9198 25.3448H20.1611V28.1034H22.9198V25.3448Z" fill="black"/>
<path d="M25.6785 25.3448H22.9199V28.1034H25.6785V25.3448Z" fill="black"/>
<path d="M42.2303 25.3448H39.4717V28.1034H42.2303V25.3448Z" fill="black"/>
<path d="M44.9881 25.3448H42.2295V28.1034H44.9881V25.3448Z" fill="black"/>
<path d="M47.7469 25.3448H44.9883V28.1034H47.7469V25.3448Z" fill="black"/>
<path d="M50.5057 25.3448H47.7471V28.1034H50.5057V25.3448Z" fill="black"/>
<path d="M56.0232 25.3448H53.2646V28.1034H56.0232V25.3448Z" fill="black"/>
<path d="M58.7821 25.3448H56.0234V28.1034H58.7821V25.3448Z" fill="black"/>
<path d="M61.5398 25.3448H58.7812V28.1034H61.5398V25.3448Z" fill="black"/>
<path d="M64.2987 25.3448H61.54V28.1034H64.2987V25.3448Z" fill="black"/>
<path d="M67.0574 25.3448H64.2988V28.1034H67.0574V25.3448Z" fill="black"/>
<path d="M3.6092 28.1034H0.850586V30.8621H3.6092V28.1034Z" fill="black"/>
<path d="M20.161 28.1034H17.4023V30.8621H20.161V28.1034Z" fill="black"/>
<path d="M25.6785 28.1034H22.9199V30.8621H25.6785V28.1034Z" fill="black"/>
<path d="M28.4363 28.1034H25.6777V30.8621H28.4363V28.1034Z" fill="black"/>
<path d="M33.9539 28.1034H31.1953V30.8621H33.9539V28.1034Z" fill="black"/>
<path d="M36.7127 28.1034H33.9541V30.8621H36.7127V28.1034Z" fill="black"/>
<path d="M39.4715 28.1034H36.7129V30.8621H39.4715V28.1034Z" fill="black"/>
<path d="M42.2303 28.1034H39.4717V30.8621H42.2303V28.1034Z" fill="black"/>
<path d="M44.9881 28.1034H42.2295V30.8621H44.9881V28.1034Z" fill="black"/>
<path d="M50.5057 28.1034H47.7471V30.8621H50.5057V28.1034Z" fill="black"/>
<path d="M53.2645 28.1034H50.5059V30.8621H53.2645V28.1034Z" fill="black"/>
<path d="M56.0232 28.1034H53.2646V30.8621H56.0232V28.1034Z" fill="black"/>
<path d="M58.7821 28.1034H56.0234V30.8621H58.7821V28.1034Z" fill="black"/>
<path d="M61.5398 28.1034H58.7812V30.8621H61.5398V28.1034Z" fill="black"/>
<path d="M67.0574 28.1034H64.2988V30.8621H67.0574V28.1034Z" fill="black"/>
<path d="M69.8162 28.1034H67.0576V30.8621H69.8162V28.1034Z" fill="black"/>
<path d="M6.368 30.8621H3.60938V33.6207H6.368V30.8621Z" fill="black"/>
<path d="M9.12679 30.8621H6.36816V33.6207H9.12679V30.8621Z" fill="black"/>
<path d="M14.6434 30.8621H11.8848V33.6207H14.6434V30.8621Z" fill="black"/>
<path d="M17.4022 30.8621H14.6436V33.6207H17.4022V30.8621Z" fill="black"/>
<path d="M22.9198 30.8621H20.1611V33.6207H22.9198V30.8621Z" fill="black"/>
<path d="M33.9539 30.8621H31.1953V33.6207H33.9539V30.8621Z" fill="black"/>
<path d="M36.7127 30.8621H33.9541V33.6207H36.7127V30.8621Z" fill="black"/>
<path d="M42.2303 30.8621H39.4717V33.6207H42.2303V30.8621Z" fill="black"/>
<path d="M44.9881 30.8621H42.2295V33.6207H44.9881V30.8621Z" fill="black"/>
<path d="M50.5057 30.8621H47.7471V33.6207H50.5057V30.8621Z" fill="black"/>
<path d="M56.0232 30.8621H53.2646V33.6207H56.0232V30.8621Z" fill="black"/>
<path d="M61.5398 30.8621H58.7812V33.6207H61.5398V30.8621Z" fill="black"/>
<path d="M69.8162 30.8621H67.0576V33.6207H69.8162V30.8621Z" fill="black"/>
<path d="M6.368 33.6207H3.60938V36.3793H6.368V33.6207Z" fill="black"/>
<path d="M14.6434 33.6207H11.8848V36.3793H14.6434V33.6207Z" fill="black"/>
<path d="M17.4022 33.6207H14.6436V36.3793H17.4022V33.6207Z" fill="black"/>
<path d="M20.161 33.6207H17.4023V36.3793H20.161V33.6207Z" fill="black"/>
<path d="M22.9198 33.6207H20.1611V36.3793H22.9198V33.6207Z" fill="black"/>
<path d="M25.6785 33.6207H22.9199V36.3793H25.6785V33.6207Z" fill="black"/>
<path d="M36.7127 33.6207H33.9541V36.3793H36.7127V33.6207Z" fill="black"/>
<path d="M44.9881 33.6207H42.2295V36.3793H44.9881V33.6207Z" fill="black"/>
<path d="M47.7469 33.6207H44.9883V36.3793H47.7469V33.6207Z" fill="black"/>
<path d="M53.2645 33.6207H50.5059V36.3793H53.2645V33.6207Z" fill="black"/>
<path d="M69.8162 33.6207H67.0576V36.3793H69.8162V33.6207Z" fill="black"/>
<path d="M3.6092 36.3793H0.850586V39.1379H3.6092V36.3793Z" fill="black"/>
<path d="M6.368 36.3793H3.60938V39.1379H6.368V36.3793Z" fill="black"/>
<path d="M14.6434 36.3793H11.8848V39.1379H14.6434V36.3793Z" fill="black"/>
<path d="M22.9198 36.3793H20.1611V39.1379H22.9198V36.3793Z" fill="black"/>
<path d="M31.1952 36.3793H28.4365V39.1379H31.1952V36.3793Z" fill="black"/>
<path d="M44.9881 36.3793H42.2295V39.1379H44.9881V36.3793Z" fill="black"/>
<path d="M47.7469 36.3793H44.9883V39.1379H47.7469V36.3793Z" fill="black"/>
<path d="M50.5057 36.3793H47.7471V39.1379H50.5057V36.3793Z" fill="black"/>
<path d="M56.0232 36.3793H53.2646V39.1379H56.0232V36.3793Z" fill="black"/>
<path d="M67.0574 36.3793H64.2988V39.1379H67.0574V36.3793Z" fill="black"/>
<path d="M3.6092 39.1379H0.850586V41.8966H3.6092V39.1379Z" fill="black"/>
<path d="M20.161 39.1379H17.4023V41.8966H20.161V39.1379Z" fill="black"/>
<path d="M22.9198 39.1379H20.1611V41.8966H22.9198V39.1379Z" fill="black"/>
<path d="M31.1952 39.1379H28.4365V41.8966H31.1952V39.1379Z" fill="black"/>
<path d="M33.9539 39.1379H31.1953V41.8966H33.9539V39.1379Z" fill="black"/>
<path d="M36.7127 39.1379H33.9541V41.8966H36.7127V39.1379Z" fill="black"/>
<path d="M42.2303 39.1379H39.4717V41.8966H42.2303V39.1379Z" fill="black"/>
<path d="M44.9881 39.1379H42.2295V41.8966H44.9881V39.1379Z" fill="black"/>
<path d="M50.5057 39.1379H47.7471V41.8966H50.5057V39.1379Z" fill="black"/>
<path d="M53.2645 39.1379H50.5059V41.8966H53.2645V39.1379Z" fill="black"/>
<path d="M56.0232 39.1379H53.2646V41.8966H56.0232V39.1379Z" fill="black"/>
<path d="M58.7821 39.1379H56.0234V41.8966H58.7821V39.1379Z" fill="black"/>
<path d="M61.5398 39.1379H58.7812V41.8966H61.5398V39.1379Z" fill="black"/>
<path d="M67.0574 39.1379H64.2988V41.8966H67.0574V39.1379Z" fill="black"/>
<path d="M69.8162 39.1379H67.0576V41.8966H69.8162V39.1379Z" fill="black"/>
<path d="M3.6092 41.8965H0.850586V44.6552H3.6092V41.8965Z" fill="black"/>
<path d="M9.12679 41.8965H6.36816V44.6552H9.12679V41.8965Z" fill="black"/>
<path d="M11.8846 41.8965H9.12598V44.6552H11.8846V41.8965Z" fill="black"/>
<path d="M17.4022 41.8965H14.6436V44.6552H17.4022V41.8965Z" fill="black"/>
<path d="M25.6785 41.8965H22.9199V44.6552H25.6785V41.8965Z" fill="black"/>
<path d="M28.4363 41.8965H25.6777V44.6552H28.4363V41.8965Z" fill="black"/>
<path d="M33.9539 41.8965H31.1953V44.6552H33.9539V41.8965Z" fill="black"/>
<path d="M50.5057 41.8965H47.7471V44.6552H50.5057V41.8965Z" fill="black"/>
<path d="M56.0232 41.8965H53.2646V44.6552H56.0232V41.8965Z" fill="black"/>
<path d="M61.5398 41.8965H58.7812V44.6552H61.5398V41.8965Z" fill="black"/>
<path d="M64.2987 41.8965H61.54V44.6552H64.2987V41.8965Z" fill="black"/>
<path d="M69.8162 41.8965H67.0576V44.6552H69.8162V41.8965Z" fill="black"/>
<path d="M3.6092 44.6552H0.850586V47.4138H3.6092V44.6552Z" fill="black"/>
<path d="M11.8846 44.6552H9.12598V47.4138H11.8846V44.6552Z" fill="black"/>
<path d="M17.4022 44.6552H14.6436V47.4138H17.4022V44.6552Z" fill="black"/>
<path d="M20.161 44.6552H17.4023V47.4138H20.161V44.6552Z" fill="black"/>
<path d="M22.9198 44.6552H20.1611V47.4138H22.9198V44.6552Z" fill="black"/>
<path d="M25.6785 44.6552H22.9199V47.4138H25.6785V44.6552Z" fill="black"/>
<path d="M28.4363 44.6552H25.6777V47.4138H28.4363V44.6552Z" fill="black"/>
<path d="M33.9539 44.6552H31.1953V47.4138H33.9539V44.6552Z" fill="black"/>
<path d="M36.7127 44.6552H33.9541V47.4138H36.7127V44.6552Z" fill="black"/>
<path d="M39.4715 44.6552H36.7129V47.4138H39.4715V44.6552Z" fill="black"/>
<path d="M42.2303 44.6552H39.4717V47.4138H42.2303V44.6552Z" fill="black"/>
<path d="M44.9881 44.6552H42.2295V47.4138H44.9881V44.6552Z" fill="black"/>
<path d="M47.7469 44.6552H44.9883V47.4138H47.7469V44.6552Z" fill="black"/>
<path d="M50.5057 44.6552H47.7471V47.4138H50.5057V44.6552Z" fill="black"/>
<path d="M53.2645 44.6552H50.5059V47.4138H53.2645V44.6552Z" fill="black"/>
<path d="M56.0232 44.6552H53.2646V47.4138H56.0232V44.6552Z" fill="black"/>
<path d="M58.7821 44.6552H56.0234V47.4138H58.7821V44.6552Z" fill="black"/>
<path d="M64.2987 44.6552H61.54V47.4138H64.2987V44.6552Z" fill="black"/>
<path d="M25.6785 47.4138H22.9199V50.1724H25.6785V47.4138Z" fill="black"/>
<path d="M28.4363 47.4138H25.6777V50.1724H28.4363V47.4138Z" fill="black"/>
<path d="M36.7127 47.4138H33.9541V50.1724H36.7127V47.4138Z" fill="black"/>
<path d="M42.2303 47.4138H39.4717V50.1724H42.2303V47.4138Z" fill="black"/>
<path d="M44.9881 47.4138H42.2295V50.1724H44.9881V47.4138Z" fill="black"/>
<path d="M47.7469 47.4138H44.9883V50.1724H47.7469V47.4138Z" fill="black"/>
<path d="M58.7821 47.4138H56.0234V50.1724H58.7821V47.4138Z" fill="black"/>
<path d="M33.9539 50.1724H31.1953V52.9311H33.9539V50.1724Z" fill="black"/>
<path d="M36.7127 50.1724H33.9541V52.9311H36.7127V50.1724Z" fill="black"/>
<path d="M39.4715 50.1724H36.7129V52.9311H39.4715V50.1724Z" fill="black"/>
<path d="M47.7469 50.1724H44.9883V52.9311H47.7469V50.1724Z" fill="black"/>
<path d="M53.2645 50.1724H50.5059V52.9311H53.2645V50.1724Z" fill="black"/>
<path d="M58.7821 50.1724H56.0234V52.9311H58.7821V50.1724Z" fill="black"/>
<path d="M69.8162 50.1724H67.0576V52.9311H69.8162V50.1724Z" fill="black"/>
<path d="M28.4363 52.9311H25.6777V55.6897H28.4363V52.9311Z" fill="black"/>
<path d="M36.7127 52.9311H33.9541V55.6897H36.7127V52.9311Z" fill="black"/>
<path d="M44.9881 52.9311H42.2295V55.6897H44.9881V52.9311Z" fill="black"/>
<path d="M47.7469 52.9311H44.9883V55.6897H47.7469V52.9311Z" fill="black"/>
<path d="M58.7821 52.9311H56.0234V55.6897H58.7821V52.9311Z" fill="black"/>
<path d="M67.0574 52.9311H64.2988V55.6897H67.0574V52.9311Z" fill="black"/>
<path d="M69.8162 52.9311H67.0576V55.6897H69.8162V52.9311Z" fill="black"/>
<path d="M28.4363 55.6897H25.6777V58.4483H28.4363V55.6897Z" fill="black"/>
<path d="M39.4715 55.6897H36.7129V58.4483H39.4715V55.6897Z" fill="black"/>
<path d="M42.2303 55.6897H39.4717V58.4483H42.2303V55.6897Z" fill="black"/>
<path d="M44.9881 55.6897H42.2295V58.4483H44.9881V55.6897Z" fill="black"/>
<path d="M47.7469 55.6897H44.9883V58.4483H47.7469V55.6897Z" fill="black"/>
<path d="M50.5057 55.6897H47.7471V58.4483H50.5057V55.6897Z" fill="black"/>
<path d="M53.2645 55.6897H50.5059V58.4483H53.2645V55.6897Z" fill="black"/>
<path d="M56.0232 55.6897H53.2646V58.4483H56.0232V55.6897Z" fill="black"/>
<path d="M58.7821 55.6897H56.0234V58.4483H58.7821V55.6897Z" fill="black"/>
<path d="M64.2987 55.6897H61.54V58.4483H64.2987V55.6897Z" fill="black"/>
<path d="M28.4363 58.4483H25.6777V61.2068H28.4363V58.4483Z" fill="black"/>
<path d="M33.9539 58.4483H31.1953V61.2068H33.9539V58.4483Z" fill="black"/>
<path d="M42.2303 58.4483H39.4717V61.2068H42.2303V58.4483Z" fill="black"/>
<path d="M44.9881 58.4483H42.2295V61.2068H44.9881V58.4483Z" fill="black"/>
<path d="M47.7469 58.4483H44.9883V61.2068H47.7469V58.4483Z" fill="black"/>
<path d="M53.2645 58.4483H50.5059V61.2068H53.2645V58.4483Z" fill="black"/>
<path d="M67.0574 58.4483H64.2988V61.2068H67.0574V58.4483Z" fill="black"/>
<path d="M69.8162 58.4483H67.0576V61.2068H69.8162V58.4483Z" fill="black"/>
<path d="M28.4363 61.2068H25.6777V63.9655H28.4363V61.2068Z" fill="black"/>
<path d="M31.1952 61.2068H28.4365V63.9655H31.1952V61.2068Z" fill="black"/>
<path d="M36.7127 61.2068H33.9541V63.9655H36.7127V61.2068Z" fill="black"/>
<path d="M44.9881 61.2068H42.2295V63.9655H44.9881V61.2068Z" fill="black"/>
<path d="M61.5398 61.2068H58.7812V63.9655H61.5398V61.2068Z" fill="black"/>
<path d="M64.2987 61.2068H61.54V63.9655H64.2987V61.2068Z" fill="black"/>
<path d="M69.8162 61.2068H67.0576V63.9655H69.8162V61.2068Z" fill="black"/>
<path d="M28.4363 63.9655H25.6777V66.7241H28.4363V63.9655Z" fill="black"/>
<path d="M36.7127 63.9655H33.9541V66.7241H36.7127V63.9655Z" fill="black"/>
<path d="M42.2303 63.9655H39.4717V66.7241H42.2303V63.9655Z" fill="black"/>
<path d="M47.7469 63.9655H44.9883V66.7241H47.7469V63.9655Z" fill="black"/>
<path d="M50.5057 63.9655H47.7471V66.7241H50.5057V63.9655Z" fill="black"/>
<path d="M56.0232 63.9655H53.2646V66.7241H56.0232V63.9655Z" fill="black"/>
<path d="M58.7821 63.9655H56.0234V66.7241H58.7821V63.9655Z" fill="black"/>
<path d="M69.8162 63.9655H67.0576V66.7241H69.8162V63.9655Z" fill="black"/>
<path d="M25.6785 66.7241H22.9199V69.4827H25.6785V66.7241Z" fill="black"/>
<path d="M31.1952 66.7241H28.4365V69.4827H31.1952V66.7241Z" fill="black"/>
<path d="M33.9539 66.7241H31.1953V69.4827H33.9539V66.7241Z" fill="black"/>
<path d="M47.7469 66.7241H44.9883V69.4827H47.7469V66.7241Z" fill="black"/>
<path d="M50.5057 66.7241H47.7471V69.4827H50.5057V66.7241Z" fill="black"/>
<path d="M61.5398 66.7241H58.7812V69.4827H61.5398V66.7241Z" fill="black"/>
<path d="M69.8162 66.7241H67.0576V69.4827H69.8162V66.7241Z" fill="black"/>
<path d="M13.5682 0.518799H7.44333C4.45834 0.518799 1.92945 2.49096 1.12093 5.1865C1.03732 5.46534 0.972048 5.7519 0.926669 6.04484C0.876655 6.3681 0.850586 6.69908 0.850586 7.03604V13.3063C0.850586 16.9017 3.80893 19.8255 7.44333 19.8255L10.5058 19.8261L13.5682 19.8253C17.2024 19.8253 20.1609 16.9015 20.1609 13.3061V7.03604C20.1609 3.44239 17.2026 0.518799 13.5682 0.518799ZM17.2644 13.3063C17.2644 15.3038 15.6064 16.9289 13.5674 16.9289L10.5058 16.9295L7.4441 16.9287C5.40512 16.9287 3.74714 15.3036 3.74714 13.3063V7.03604C3.74714 6.41212 3.90896 5.8247 4.19379 5.31143C4.46799 4.81767 4.85594 4.39303 5.32305 4.07152C5.92361 3.65808 6.65489 3.41535 7.44314 3.41535H13.5682C15.6064 3.41535 17.2644 5.03954 17.2644 7.03604V13.3063Z" fill="black"/>
<path d="M63.2235 0.518799H57.0986C54.1136 0.518799 51.5847 2.49096 50.7762 5.1865C50.6926 5.46534 50.6273 5.7519 50.5819 6.04484C50.5319 6.3681 50.5059 6.69908 50.5059 7.03604V13.3063C50.5059 16.9017 53.4642 19.8255 57.0986 19.8255L60.161 19.8261L63.2235 19.8253C66.8577 19.8253 69.8162 16.9015 69.8162 13.3061V7.03604C69.8162 3.44239 66.8579 0.518799 63.2235 0.518799ZM66.9196 13.3063C66.9196 15.3038 65.2617 16.9289 63.2227 16.9289L60.161 16.9295L57.0994 16.9287C55.0604 16.9287 53.4024 15.3036 53.4024 13.3063V7.03604C53.4024 6.41212 53.5642 5.8247 53.8491 5.31143C54.1233 4.81767 54.5112 4.39303 54.9783 4.07152C55.5789 3.65808 56.3102 3.41535 57.0984 3.41535H63.2235C65.2617 3.41535 66.9196 5.03954 66.9196 7.03604V13.3063Z" fill="black"/>
<path d="M13.5682 50.174H7.44333C4.45834 50.174 1.92945 52.1461 1.12093 54.8417C1.03732 55.1205 0.972048 55.4071 0.926669 55.7C0.876655 56.0233 0.850586 56.3542 0.850586 56.6912V62.9615C0.850586 66.5569 3.80893 69.4807 7.44333 69.4807L10.5058 69.4812L13.5682 69.4805C17.2024 69.4805 20.1609 66.5567 20.1609 62.9613V56.6912C20.1609 53.0975 17.2026 50.174 13.5682 50.174ZM17.2644 62.9615C17.2644 64.9589 15.6064 66.5841 13.5674 66.5841L10.5058 66.5847L7.4441 66.5839C5.40512 66.5839 3.74714 64.9587 3.74714 62.9615V56.6912C3.74714 56.0673 3.90896 55.4799 4.19379 54.9666C4.46799 54.4728 4.85594 54.0482 5.32305 53.7267C5.92361 53.3132 6.65489 53.0705 7.44314 53.0705H13.5682C15.6064 53.0705 17.2644 54.6947 17.2644 56.6912V62.9615Z" fill="black"/>
<path d="M8.6309 14.3103C7.38207 14.3103 6.36621 13.3146 6.36621 12.0918V8.25192C6.36621 7.86991 6.46552 7.5104 6.6394 7.19584C6.80731 6.89311 7.045 6.63291 7.33126 6.43661C7.69896 6.18353 8.14718 6.03448 8.62966 6.03448H12.3809C13.6285 6.03448 14.6444 7.02908 14.6444 8.25184V12.0917C14.6444 13.3144 13.6286 14.3103 12.3809 14.3103H10.5053H8.6309V14.3103Z" fill="black"/>
<path d="M58.2862 14.3103C57.0374 14.3103 56.0215 13.3146 56.0215 12.0918V8.25192C56.0215 7.86991 56.1208 7.5104 56.2947 7.19584C56.4626 6.89311 56.7003 6.63291 56.9865 6.43661C57.3542 6.18353 57.8025 6.03448 58.2849 6.03448H62.0362C63.2838 6.03448 64.2997 7.02908 64.2997 8.25184V12.0917C64.2997 13.3144 63.2839 14.3103 62.0362 14.3103H60.1606H58.2862V14.3103Z" fill="black"/>
<path d="M8.6309 63.9655C7.38207 63.9655 6.36621 62.9698 6.36621 61.7469V57.9071C6.36621 57.5251 6.46552 57.1656 6.6394 56.851C6.80731 56.5483 7.045 56.2881 7.33126 56.0918C7.69896 55.8387 8.14718 55.6897 8.62966 55.6897H12.3809C13.6285 55.6897 14.6444 56.6843 14.6444 57.907V61.7469C14.6444 62.9696 13.6286 63.9654 12.3809 63.9654H10.5053H8.6309V63.9655Z" fill="black"/>
</svg>
