<svg width="56" height="56" viewBox="0 0 56 56" fill="none" xmlns="http://www.w3.org/2000/svg">
<path fill-rule="evenodd" clip-rule="evenodd" d="M34.3065 2.7813C34.6066 2.5729 35.0046 2.5729 35.3046 2.7813L52.8046 14.9341C53.0401 15.0976 53.1806 15.3661 53.1806 15.6528V18.6667H54.25C54.7332 18.6667 55.125 19.0584 55.125 19.5417V22.9444C55.125 23.4277 54.7332 23.8194 54.25 23.8194H51.2361V38.1111H52.3056C52.7888 38.1111 53.1806 38.5029 53.1806 38.9861V41.5139H54.25C54.7332 41.5139 55.125 41.9056 55.125 42.3889V46.2778C55.125 46.761 54.7332 47.1528 54.25 47.1528H28C27.5168 47.1528 27.125 46.761 27.125 46.2778C27.125 45.7945 27.5168 45.4028 28 45.4028H53.375V43.2639H52.3056H30.9167C30.4334 43.2639 30.0417 42.8721 30.0417 42.3889C30.0417 41.9056 30.4334 41.5139 30.9167 41.5139H51.4306V39.8611H50.3611H45.5H37.7222H32.375C31.8918 39.8611 31.5 39.4694 31.5 38.9861V23.8194H24.9861V30.5047C26.8741 32.8353 28.0052 35.8042 28.0052 39.0373C28.0052 46.5291 21.9319 52.6024 14.4401 52.6024C6.94829 52.6024 0.875 46.5291 0.875 39.0373C0.875 31.5455 6.94829 25.4722 14.4401 25.4722C15.6318 25.4722 16.7877 25.6259 17.8889 25.9145V23.8194H15.3611C14.8779 23.8194 14.4861 23.4277 14.4861 22.9444V19.5417C14.4861 19.0584 14.8779 18.6667 15.3611 18.6667H16.4306V15.6528C16.4306 15.3661 16.571 15.0976 16.8065 14.9341L34.3065 2.7813ZM51.4306 18.6667V16.1104L34.8056 4.56529L18.1806 16.1104V18.6667H51.4306ZM19.6389 23.8194V26.5041C20.9555 27.0509 22.1674 27.7991 23.2361 28.7102V23.8194H19.6389ZM33.25 23.8194V38.1111H36.8472V23.8194H33.25ZM38.5972 23.8194V38.1111H44.625V23.8194H38.5972ZM46.375 23.8194V38.1111H49.4861V23.8194H46.375ZM16.2361 20.4167V22.0694H18.7639H24.1111H32.375H37.7222H45.5H50.3611H53.375V20.4167H52.3056H17.3056H16.2361ZM14.4401 27.2222C7.91479 27.2222 2.625 32.512 2.625 39.0373C2.625 45.5626 7.91479 50.8524 14.4401 50.8524C20.9654 50.8524 26.2552 45.5626 26.2552 39.0373C26.2552 32.512 20.9654 27.2222 14.4401 27.2222ZM13.4546 32.3013H15.4546V40.9656H13.4546V32.3013ZM15.4543 43.9655H13.4543V46.0905H15.4543V43.9655Z" fill="url(#paint0_linear_7175_1376)"/>
<defs>
<linearGradient id="paint0_linear_7175_1376" x1="0.875" y1="52.6024" x2="50.6847" y2="-1.46559" gradientUnits="userSpaceOnUse">
<stop stop-color="#FE5000"/>
<stop offset="1" stop-color="#FE9800"/>
</linearGradient>
</defs>
</svg>
