<svg width="56" height="56" viewBox="0 0 56 56" fill="none" xmlns="http://www.w3.org/2000/svg">
<path fill-rule="evenodd" clip-rule="evenodd" d="M36.586 17.4557L47.1924 6.84927L47.5045 11.5367C47.5188 11.75 47.6172 11.9603 47.7781 12.1212C47.939 12.2821 48.1493 12.3805 48.3626 12.3948C48.5759 12.409 48.7749 12.3379 48.9156 12.1971C49.0564 12.0564 49.1275 11.8574 49.1133 11.6441L48.6581 4.82744C48.6512 4.72178 48.6235 4.61574 48.5766 4.51539C48.5297 4.41505 48.4646 4.32237 48.3848 4.24266C48.3051 4.16295 48.2125 4.09778 48.1121 4.05089C48.0118 4.00399 47.9057 3.97629 47.8001 3.96937L40.9834 3.51424C40.7701 3.5 40.5711 3.57109 40.4304 3.71186C40.2896 3.85264 40.2185 4.05157 40.2327 4.2649C40.247 4.47824 40.3454 4.68849 40.5063 4.84941C40.6672 5.01033 40.8775 5.10873 41.0908 5.12298L45.7782 5.43506L35.1718 16.0415C35.0071 16.2062 34.9237 16.4386 34.9398 16.6877C34.956 16.9367 35.0704 17.182 35.2579 17.3696C35.4455 17.5571 35.6908 17.6715 35.9398 17.6877C36.1889 17.7038 36.4213 17.6204 36.586 17.4557ZM30.8181 17.7077V20.9774C38.1118 19.9367 47.9999 21.3948 48 25.3575V42.5693C48 45.5458 42.385 47.1739 36.5455 47.3345V50.219C36.5455 53.3574 30.3028 55 24.1364 55C17.97 55 11.7273 53.3575 11.7273 50.219V44.4817C11.7273 43.1766 12.8097 42.1469 14.5094 41.3846C9.86259 40.8378 6 39.2996 6 36.832V17.7077C6 11.4307 30.8181 11.4307 30.8181 17.7077ZM28.9091 17.7727C28.9091 16.8004 25.2028 14.9091 18.4091 14.9091C11.6154 14.9091 7.90906 16.8005 7.90915 17.7727C7.90915 18.745 11.6155 20.6363 18.4091 20.6363C25.2027 20.6363 28.9091 18.745 28.9091 17.7727ZM18.409 22.5455C14.3281 22.5455 10.2253 21.8231 7.90906 20.429L7.90915 23.5C7.90915 24.4723 11.6154 26.3636 18.4091 26.3636C20.071 26.3636 21.6858 26.2139 23.1818 25.9739V25.4091C23.1818 23.4568 25.5918 22.1133 28.9091 21.3776V20.429C26.5928 21.8231 22.49 22.5455 18.409 22.5455ZM25.6644 39.8363C25.4615 39.7354 25.2725 39.6291 25.0909 39.5199V39.8156C25.2826 39.8206 25.4733 39.8284 25.6644 39.8363ZM18.409 28.2728C14.3281 28.2728 10.2253 27.5503 7.90906 26.1563V30.1818C7.90906 31.1541 11.6153 33.0455 18.409 33.0455C20.0709 33.0455 21.6857 32.8958 23.1817 32.6557V27.8982C21.6674 28.1244 20.0613 28.2728 18.409 28.2728ZM7.90906 32.8381V36.8637C7.90906 37.8359 11.6154 39.7273 18.409 39.7273C20.0709 39.7273 21.6857 39.5776 23.1817 39.3376V34.58C21.6674 34.8062 20.0613 34.9546 18.409 34.9546C14.3281 34.9546 10.2253 34.2322 7.90906 32.8381ZM24.1364 53.0909C30.93 53.0909 34.6363 51.1996 34.6363 50.2273L34.6362 47.3408C34.5925 47.3395 34.5482 47.3387 34.504 47.3378C34.4475 47.3368 34.391 47.3357 34.3354 47.3336C31.9743 48.6125 28.0426 49.2727 24.1363 49.2727C20.0553 49.2727 15.9526 48.5503 13.6363 47.1562V50.2273C13.6363 51.1996 17.3428 53.0909 24.1364 53.0909ZM13.6364 44.5C13.6364 45.4723 17.3427 47.3637 24.1364 47.3637C30.93 47.3637 34.6363 45.4723 34.6363 44.5C34.6363 43.5277 30.93 41.6364 24.1364 41.6364C17.3428 41.6364 13.6364 43.5277 13.6364 44.5ZM36.5454 45.4215C42.7085 45.2495 46.0909 43.5148 46.0909 42.591L46.0908 39.5199C43.7746 40.9139 39.6717 41.6364 35.5908 41.6364C35.1221 41.6364 34.6539 41.6237 34.1871 41.6048C35.6429 42.3434 36.5454 43.3074 36.5454 44.5V45.4215ZM35.5909 39.7273C42.3845 39.7273 46.0909 37.836 46.0909 36.8637V33.7926C43.7747 35.1867 39.6718 35.9091 35.5909 35.9091C31.51 35.9091 27.4071 35.1867 25.0909 33.7926V36.8637C25.0909 37.836 28.7973 39.7273 35.5909 39.7273ZM35.5909 34C42.3845 34 46.0909 32.1087 46.0909 31.1364V28.0653C43.7747 29.4594 39.6718 30.1818 35.5909 30.1818C31.51 30.1818 27.4071 29.4594 25.0909 28.0653V31.1364C25.0909 32.1087 28.7973 34 35.5909 34ZM25.0909 25.4091C25.0909 26.3814 28.7972 28.2728 35.5909 28.2728C42.3845 28.2728 46.0909 26.3814 46.0909 25.4091C46.0909 24.4368 42.3845 22.5455 35.5909 22.5455C28.7973 22.5455 25.0909 24.4368 25.0909 25.4091Z" fill="url(#paint0_linear_7149_5769)"/>
<defs>
<linearGradient id="paint0_linear_7149_5769" x1="14.8925" y1="55" x2="53.7425" y2="44.8184" gradientUnits="userSpaceOnUse">
<stop stop-color="#FE5000"/>
<stop offset="1" stop-color="#FCA92A"/>
</linearGradient>
</defs>
</svg>
