<svg width="56" height="56" viewBox="0 0 56 56" fill="none" xmlns="http://www.w3.org/2000/svg">
<path fill-rule="evenodd" clip-rule="evenodd" d="M46.3519 12.2387H35.4451V7.27734C35.4442 6.58845 35.1701 5.92804 34.6829 5.44097C34.1958 4.95389 33.5353 4.6799 32.8464 4.67908H9.5987C8.90981 4.6799 8.24936 4.95389 7.7622 5.44097C7.27504 5.92804 7.00094 6.58845 7 7.27734V48.723C7.00094 49.4119 7.27504 50.0723 7.7622 50.5594C8.24936 51.0465 8.90981 51.3205 9.5987 51.3213H32.8464C33.5353 51.3205 34.1958 51.0465 34.6829 50.5594C35.1701 50.0723 35.4442 49.4119 35.4451 48.723V39.078H46.3519C47.054 39.0769 47.7269 38.7974 48.2233 38.3009C48.7197 37.8045 48.999 37.1315 49.0001 36.4294V14.8873C48.999 14.1852 48.7197 13.5122 48.2233 13.0157C47.7269 12.5193 47.054 12.2398 46.3519 12.2387ZM43.2315 13.786V37.5307H41.7084V13.786H43.2315ZM33.8977 48.723C33.8974 49.0017 33.7865 49.2689 33.5894 49.4659C33.3923 49.6629 33.1251 49.7737 32.8464 49.7739H9.5987C9.31998 49.7738 9.05271 49.6631 8.85558 49.466C8.65846 49.269 8.54761 49.0018 8.54737 48.723V7.27734C8.54761 6.99862 8.65846 6.73139 8.85558 6.53435C9.05271 6.33731 9.31998 6.22657 9.5987 6.22645H32.8464C33.1251 6.22668 33.3923 6.33746 33.5894 6.53448C33.7865 6.73149 33.8974 6.99866 33.8977 7.27734V48.723ZM35.4451 13.786H40.1611V37.5307H35.4451V13.786ZM47.4527 36.4294C47.4524 36.7213 47.3363 37.0011 47.1299 37.2076C46.9236 37.414 46.6438 37.5302 46.3519 37.5307H44.7789V13.786H46.3519C46.6438 13.7864 46.9237 13.9025 47.1301 14.109C47.3365 14.3155 47.4525 14.5954 47.4527 14.8873V36.4294ZM31.2589 8.43687H11.1873C10.9821 8.43687 10.7853 8.51839 10.6402 8.66348C10.4951 8.80857 10.4136 9.00536 10.4136 9.21056V18.2432C10.4136 18.4484 10.4951 18.6452 10.6402 18.7903C10.7853 18.9354 10.9821 19.0169 11.1873 19.0169H31.2589C31.4641 19.0169 31.6609 18.9354 31.806 18.7903C31.951 18.6452 32.0326 18.4484 32.0326 18.2432V9.21056C32.0326 9.00536 31.951 8.80857 31.806 8.66348C31.6609 8.51839 31.4641 8.43687 31.2589 8.43687ZM30.4852 17.4695H11.9609V9.98424H30.4852V17.4695ZM24.1332 21.6843H31.259C31.4642 21.6843 31.661 21.7658 31.8061 21.9109C31.9512 22.056 32.0327 22.2528 32.0327 22.458V26.1717C32.0327 26.3769 31.9512 26.5736 31.8061 26.7187C31.661 26.8638 31.4642 26.9453 31.259 26.9453H24.1332C23.928 26.9453 23.7312 26.8638 23.5861 26.7187C23.441 26.5736 23.3595 26.3769 23.3595 26.1717V22.458C23.3595 22.2528 23.441 22.056 23.5861 21.9109C23.7312 21.7658 23.928 21.6843 24.1332 21.6843ZM24.9055 25.398H30.4853V23.2317H24.9055V25.398ZM31.259 28.4422H24.1332C24.0315 28.4421 23.9309 28.4621 23.837 28.501C23.7431 28.5398 23.6578 28.5968 23.586 28.6687C23.5141 28.7405 23.4571 28.8258 23.4183 28.9197C23.3794 29.0136 23.3594 29.1143 23.3595 29.2159V32.9296C23.3595 33.1348 23.441 33.3316 23.5861 33.4766C23.7312 33.6217 23.928 33.7033 24.1332 33.7033H31.259C31.4642 33.7033 31.661 33.6217 31.8061 33.4766C31.9512 33.3316 32.0327 33.1348 32.0327 32.9296V29.2159C32.0328 29.1143 32.0128 29.0136 31.9739 28.9197C31.9351 28.8258 31.8781 28.7405 31.8062 28.6687C31.7344 28.5968 31.6491 28.5398 31.5552 28.501C31.4613 28.4621 31.3607 28.4421 31.259 28.4422ZM30.4853 32.1559H24.9055V29.9896H30.4853V32.1559ZM24.1332 35.1992H31.259C31.3607 35.1991 31.4613 35.2191 31.5552 35.2579C31.6491 35.2968 31.7344 35.3538 31.8062 35.4256C31.8781 35.4975 31.9351 35.5828 31.9739 35.6767C32.0128 35.7706 32.0328 35.8712 32.0327 35.9728V46.5644C32.0328 46.666 32.0128 46.7666 31.9739 46.8605C31.9351 46.9544 31.8781 47.0397 31.8062 47.1116C31.7344 47.1835 31.6491 47.2404 31.5552 47.2793C31.4613 47.3182 31.3607 47.3381 31.259 47.3381H24.1332C24.0315 47.3381 23.9309 47.3182 23.837 47.2793C23.7431 47.2404 23.6578 47.1835 23.586 47.1116C23.5141 47.0397 23.4571 46.9544 23.4183 46.8605C23.3794 46.7666 23.3594 46.666 23.3595 46.5644V35.9728C23.3594 35.8712 23.3794 35.7706 23.4183 35.6767C23.4571 35.5828 23.5141 35.4975 23.586 35.4256C23.6578 35.3538 23.7431 35.2968 23.837 35.2579C23.9309 35.2191 24.0315 35.1991 24.1332 35.1992ZM24.9055 45.7907H30.4853V36.7465H24.9055V45.7907ZM14.8996 21.6843H11.186C10.9808 21.6843 10.784 21.7658 10.6389 21.9109C10.4938 22.056 10.4123 22.2528 10.4123 22.458V26.1717C10.4123 26.3769 10.4938 26.5736 10.6389 26.7187C10.784 26.8638 10.9808 26.9453 11.186 26.9453H14.8996C15.1048 26.9453 15.3016 26.8638 15.4467 26.7187C15.5918 26.5736 15.6733 26.3769 15.6733 26.1717V22.458C15.6733 22.2528 15.5918 22.056 15.4467 21.9109C15.3016 21.7658 15.1048 21.6843 14.8996 21.6843ZM14.126 25.398H11.9596V23.2317H14.126V25.398ZM17.6598 21.6843H21.3735C21.5787 21.6843 21.7755 21.7658 21.9206 21.9109C22.0657 22.056 22.1472 22.2528 22.1472 22.458V26.1717C22.1472 26.3769 22.0657 26.5736 21.9206 26.7187C21.7755 26.8638 21.5787 26.9453 21.3735 26.9453H17.6598C17.4546 26.9452 17.2579 26.8637 17.1128 26.7186C16.9678 26.5735 16.8862 26.3768 16.8861 26.1717V22.458C16.8862 22.2528 16.9678 22.0561 17.1128 21.911C17.2579 21.7659 17.4546 21.6844 17.6598 21.6843ZM18.4335 25.398H20.5998V23.2317H18.4335V25.398ZM14.8996 28.4422H11.186C11.0843 28.4421 10.9837 28.4621 10.8898 28.501C10.7959 28.5398 10.7106 28.5968 10.6387 28.6687C10.5669 28.7405 10.5099 28.8258 10.471 28.9197C10.4322 29.0136 10.4122 29.1143 10.4123 29.2159V32.9296C10.4123 33.1348 10.4938 33.3316 10.6389 33.4766C10.784 33.6217 10.9808 33.7033 11.186 33.7033H14.8996C15.1048 33.7033 15.3016 33.6217 15.4467 33.4766C15.5918 33.3316 15.6733 33.1348 15.6733 32.9296V29.2159C15.6734 29.1143 15.6534 29.0136 15.6146 28.9197C15.5757 28.8258 15.5187 28.7405 15.4469 28.6687C15.375 28.5968 15.2897 28.5398 15.1958 28.501C15.1019 28.4621 15.0013 28.4421 14.8996 28.4422ZM14.126 32.1559H11.9596V29.9896H14.126V32.1559ZM17.6598 28.4422H21.3735C21.4751 28.4421 21.5757 28.4621 21.6696 28.501C21.7635 28.5398 21.8488 28.5968 21.9207 28.6687C21.9926 28.7405 22.0495 28.8258 22.0884 28.9197C22.1273 29.0136 22.1472 29.1143 22.1472 29.2159V32.9296C22.1472 33.1348 22.0657 33.3316 21.9206 33.4766C21.7755 33.6217 21.5787 33.7033 21.3735 33.7033H17.6598C17.4546 33.7031 17.2579 33.6216 17.1128 33.4765C16.9678 33.3315 16.8862 33.1347 16.8861 32.9296V29.2159C16.8861 29.0107 16.9676 28.8139 17.1127 28.6688C17.2578 28.5237 17.4546 28.4422 17.6598 28.4422ZM18.4335 32.1559H20.5998V29.9896H18.4335V32.1559ZM14.8996 35.1992H11.186C11.0843 35.1991 10.9837 35.2191 10.8898 35.2579C10.7959 35.2968 10.7106 35.3538 10.6387 35.4256C10.5669 35.4975 10.5099 35.5828 10.471 35.6767C10.4322 35.7706 10.4122 35.8712 10.4123 35.9728V39.6865C10.4123 39.8917 10.4938 40.0885 10.6389 40.2336C10.784 40.3787 10.9808 40.4602 11.186 40.4602H14.8996C15.1048 40.4602 15.3016 40.3787 15.4467 40.2336C15.5918 40.0885 15.6733 39.8917 15.6733 39.6865V35.9728C15.6734 35.8712 15.6534 35.7706 15.6146 35.6767C15.5757 35.5828 15.5187 35.4975 15.4469 35.4256C15.375 35.3538 15.2897 35.2968 15.1958 35.2579C15.1019 35.2191 15.0013 35.1991 14.8996 35.1992ZM14.126 38.9129H11.9596V36.7465H14.126V38.9129ZM17.6598 35.1992H21.3735C21.4751 35.1991 21.5757 35.2191 21.6696 35.2579C21.7635 35.2968 21.8488 35.3538 21.9207 35.4256C21.9926 35.4975 22.0495 35.5828 22.0884 35.6767C22.1273 35.7706 22.1472 35.8712 22.1472 35.9728V39.6865C22.1472 39.8917 22.0657 40.0885 21.9206 40.2336C21.7755 40.3787 21.5787 40.4602 21.3735 40.4602H17.6598C17.4546 40.4601 17.2579 40.3786 17.1128 40.2335C16.9678 40.0884 16.8862 39.8917 16.8861 39.6865V35.9728C16.8861 35.7677 16.9676 35.5709 17.1127 35.4258C17.2578 35.2807 17.4546 35.1992 17.6598 35.1992ZM18.4335 38.9129H20.5998V36.7465H18.4335V38.9129ZM14.8996 42.0776H11.186C11.0843 42.0776 10.9837 42.0975 10.8898 42.1364C10.7959 42.1753 10.7106 42.2322 10.6387 42.3041C10.5669 42.376 10.5099 42.4613 10.471 42.5552C10.4322 42.6491 10.4122 42.7497 10.4123 42.8513V46.565C10.4122 46.6666 10.4322 46.7673 10.471 46.8611C10.5099 46.955 10.5669 47.0404 10.6387 47.1122C10.7106 47.1841 10.7959 47.2411 10.8898 47.2799C10.9837 47.3188 11.0843 47.3387 11.186 47.3387H14.8996C15.0013 47.3387 15.1019 47.3188 15.1958 47.2799C15.2897 47.2411 15.375 47.1841 15.4469 47.1122C15.5187 47.0404 15.5757 46.955 15.6146 46.8611C15.6534 46.7673 15.6734 46.6666 15.6733 46.565V42.8513C15.6734 42.7497 15.6534 42.6491 15.6146 42.5552C15.5757 42.4613 15.5187 42.376 15.4469 42.3041C15.375 42.2322 15.2897 42.1753 15.1958 42.1364C15.1019 42.0975 15.0013 42.0776 14.8996 42.0776ZM14.126 45.7913H11.9596V43.625H14.126V45.7913ZM17.6598 42.0776H21.3735C21.4751 42.0776 21.5757 42.0975 21.6696 42.1364C21.7635 42.1753 21.8488 42.2322 21.9207 42.3041C21.9926 42.376 22.0495 42.4613 22.0884 42.5552C22.1273 42.6491 22.1472 42.7497 22.1472 42.8513V46.565C22.1472 46.6666 22.1273 46.7673 22.0884 46.8611C22.0495 46.955 21.9926 47.0404 21.9207 47.1122C21.8488 47.1841 21.7635 47.2411 21.6696 47.2799C21.5757 47.3188 21.4751 47.3387 21.3735 47.3387H17.6598C17.4546 47.3387 17.2578 47.2572 17.1127 47.1121C16.9676 46.967 16.8861 46.7702 16.8861 46.565V42.8513C16.8861 42.6461 16.9676 42.4493 17.1127 42.3042C17.2578 42.1591 17.4546 42.0776 17.6598 42.0776ZM18.4335 45.7913H20.5998V43.625H18.4335V45.7913Z" fill="url(#paint0_linear_9769_15037)"/>
<defs>
<linearGradient id="paint0_linear_9769_15037" x1="15.6625" y1="51.3213" x2="53.1314" y2="40.7619" gradientUnits="userSpaceOnUse">
<stop stop-color="#FE5000"/>
<stop offset="1" stop-color="#FCA92A"/>
</linearGradient>
</defs>
</svg>
