<svg width="65" height="65" viewBox="0 0 65 65" fill="none" xmlns="http://www.w3.org/2000/svg">
<path d="M25.329 21.9506C20.2477 21.9506 16.1289 26.0694 16.1289 31.1502C16.1289 36.2311 20.2477 40.3504 25.3286 40.3504C30.4099 40.3504 34.5287 36.2311 34.5287 31.1502C34.5229 26.0716 30.4072 21.9564 25.329 21.9506ZM25.329 38.5025C21.2684 38.5029 17.9763 35.2109 17.9763 31.1502C17.9763 27.0896 21.268 23.798 25.3286 23.798C29.3892 23.798 32.6813 27.0896 32.6813 31.1502C32.6763 35.2086 29.3874 38.4975 25.329 38.502V38.5025Z" fill="url(#paint0_linear)"/>
<path d="M28.3292 27.9745C27.3175 27.2041 26.1895 26.8329 25.0637 26.9028C22.9227 27.0368 21.2164 28.7435 21.0825 30.8845C21.013 32.0089 21.3837 33.1379 22.1541 34.1495C22.2042 34.2158 22.2633 34.2745 22.3291 34.325C23.2609 35.0344 24.292 35.4047 25.3276 35.4047C25.4164 35.4047 25.5057 35.402 25.5946 35.3966C27.7356 35.2627 29.4419 33.556 29.5763 31.4154C29.6453 30.2905 29.275 29.1616 28.5042 28.1499C28.4541 28.0836 28.395 28.025 28.3292 27.9745ZM27.0316 32.8519C26.3325 33.5515 25.0096 33.9781 23.5491 32.9295C22.5005 31.4695 22.9276 30.1471 23.6267 29.4475C24.3258 28.748 25.6482 28.3213 27.1091 29.3699C28.1578 30.8295 27.7311 32.1528 27.0316 32.8519Z" fill="url(#paint1_linear)"/>
<path d="M60.134 26.3959C60.6441 26.3959 61 26.0021 61 25.492V20.6425C61 20.1324 60.6441 19.699 60.134 19.699H59.499V14.9253C59.499 12.2105 57.431 10 54.8177 10H9.79671C7.18344 10 5 12.2105 5 14.9253V47.3742C5 50.089 7.18344 52.2598 9.79671 52.2598H10.7732V54.8C10.7732 55.3101 11.1868 55.7237 11.6969 55.7237H23.2433C23.7534 55.7237 24.167 55.3101 24.167 54.8V52.2598H40.7938V54.8C40.7938 55.3101 41.2074 55.7237 41.7175 55.7237H53.2639C53.774 55.7237 54.1876 55.3101 54.1876 54.8V52.2598H54.8177C57.431 52.2598 59.499 50.089 59.499 47.3742V42.5608H60.134C60.6441 42.5608 61 42.1671 61 41.657V36.8075C61 36.2974 60.6441 35.8639 60.134 35.8639H59.499V26.3959H60.134ZM59.1526 37.7113V40.7134H53.033V37.7113H59.1526ZM52.1093 35.8639C51.5951 35.8734 51.1842 36.2933 51.1856 36.8075V41.657C51.1865 41.9001 51.2848 42.1323 51.458 42.3024C51.6316 42.472 51.8662 42.5653 52.1093 42.5608H52.5711V44.0407C52.5711 44.6342 52.1805 45.101 51.6384 45.101H12.976C12.4334 45.101 12.0433 44.6342 12.0433 44.0407V18.2588C12.0433 17.6653 12.4339 17.1588 12.976 17.1588H51.6384C52.181 17.1588 52.5711 17.6653 52.5711 18.2588V19.699H52.1093C51.5951 19.7084 51.1842 20.1283 51.1856 20.6425V25.492C51.1865 25.7351 51.2848 25.9674 51.458 26.1374C51.6316 26.307 51.8662 26.4004 52.1093 26.3959H52.5711V35.8639H52.1093ZM53.033 24.5485V21.5464H59.1526V24.5485H53.033ZM22.3196 53.8763H12.6206V52.2598H22.3196V53.8763ZM52.3402 53.8763H42.6412V52.2598H52.3402V53.8763ZM57.6515 47.3742C57.6515 49.0705 56.4121 50.4124 54.8177 50.4124H9.79671C8.20232 50.4124 6.84742 49.0705 6.84742 47.3742V14.9253C6.84742 13.2289 8.20232 11.8474 9.79671 11.8474H54.8177C56.4121 11.8474 57.6515 13.2289 57.6515 14.9253V19.699H54.4186V18.2588C54.4186 16.6464 53.1994 15.3113 51.6384 15.3113H12.976C11.415 15.3113 10.1959 16.6464 10.1959 18.2588V44.0407C10.1959 45.6531 11.415 46.9484 12.976 46.9484H51.6384C53.1994 46.9484 54.4186 45.6531 54.4186 44.0407V42.5608H57.6515V47.3742ZM57.6515 35.8639H54.4186V26.3959H57.6515V35.8639Z" fill="url(#paint2_linear)"/>
<defs>
<linearGradient id="paint0_linear" x1="19.9239" y1="40.3504" x2="36.0616" y2="35.2998" gradientUnits="userSpaceOnUse">
<stop stop-color="#FE5000"/>
<stop offset="1" stop-color="#FCA92A"/>
</linearGradient>
<linearGradient id="paint1_linear" x1="22.8294" y1="35.4047" x2="30.2934" y2="33.0688" gradientUnits="userSpaceOnUse">
<stop stop-color="#FE5000"/>
<stop offset="1" stop-color="#FCA92A"/>
</linearGradient>
<linearGradient id="paint2_linear" x1="16.55" y1="55.7237" x2="63.5681" y2="37.7014" gradientUnits="userSpaceOnUse">
<stop stop-color="#FE5000"/>
<stop offset="1" stop-color="#FCA92A"/>
</linearGradient>
</defs>
</svg>
