<svg width="65" height="65" viewBox="0 0 65 65" fill="none" xmlns="http://www.w3.org/2000/svg">
<g clip-path="url(#clip0)">
<path d="M53.7817 8.30661C53.5341 7.78385 53.0975 7.37446 52.5598 7.1611C52.0222 6.94773 51.4237 6.94626 50.885 7.157L46.2197 8.98925C45.9297 9.10281 45.6662 9.27478 45.4454 9.49446C45.2247 9.71415 45.0514 9.97687 44.9365 10.2663C44.8215 10.5558 44.7672 10.8657 44.7771 11.177C44.7869 11.4883 44.8607 11.7942 44.9937 12.0758L45.64 13.4418L45.1236 13.6613C43.2648 14.0496 41.9773 13.9974 40.0644 13.4615L35.4034 12.1557C34.0861 11.7853 32.6892 11.8078 31.3845 12.2205L26.8864 13.6388C25.9751 13.9264 25.1321 14.397 24.4091 15.0218C23.6195 14.732 22.1125 14.3598 20.046 14.6577L20.658 13.496C20.9268 12.9836 20.9902 12.3881 20.8355 11.8305C20.6807 11.273 20.3193 10.7954 19.8248 10.4949L15.5415 7.89638C15.2753 7.73485 14.9788 7.62953 14.6704 7.58693C14.3619 7.54432 14.048 7.56533 13.748 7.64865C13.4479 7.73197 13.1681 7.87585 12.9258 8.07141C12.6835 8.26698 12.4838 8.51009 12.339 8.78576L0.262801 31.8334C-0.0141997 32.3566 -0.0749681 32.9676 0.0935488 33.535C0.262066 34.1025 0.646425 34.5813 1.16407 34.8685L5.47414 37.2897C5.81384 37.4819 6.1974 37.5831 6.58768 37.5835C6.80807 37.5833 7.0273 37.5514 7.23862 37.4888C7.5308 37.4037 7.80278 37.2604 8.03824 37.0676C8.2737 36.8747 8.46778 36.6363 8.60884 36.3667L9.27394 35.1036L11.4096 36.8791L8.3346 41.1331C8.05841 41.5151 7.86039 41.9479 7.75189 42.4067C7.6434 42.8654 7.62656 43.3411 7.70236 43.8063C7.77816 44.2716 7.9451 44.7173 8.19359 45.1179C8.44208 45.5185 8.76724 45.8661 9.1504 46.1407L9.52384 46.4088C10.1341 46.8481 10.8672 47.084 11.6192 47.0831C11.9149 47.0828 12.2096 47.0463 12.4965 46.9744C12.5043 47.0735 12.5153 47.1726 12.5315 47.2723C12.606 47.7383 12.7725 48.1848 13.0211 48.5859C13.2698 48.987 13.5956 49.3347 13.9798 49.6088L14.3532 49.8776C14.9635 50.3169 15.6966 50.5528 16.4486 50.5519C16.7444 50.5515 17.039 50.515 17.3259 50.4432C17.3338 50.5423 17.3447 50.6414 17.3609 50.7411C17.4354 51.2071 17.6019 51.6536 17.8505 52.0547C18.0991 52.4558 18.425 52.8034 18.8092 53.0774L19.1827 53.3463C19.793 53.7854 20.5261 54.0214 21.278 54.0206C21.5738 54.0202 21.8684 53.9837 22.1553 53.9119C22.1633 54.011 22.1742 54.11 22.1903 54.2091C22.2648 54.675 22.4313 55.1216 22.6799 55.5226C22.9286 55.9237 23.2544 56.2714 23.6386 56.5454L24.0121 56.8143C24.7861 57.3687 25.7481 57.5943 26.6879 57.442C27.6277 57.2896 28.4691 56.7717 29.0284 56.0011L30.2355 54.3313L32.1393 55.8477C32.7303 56.3539 33.4527 56.682 34.2226 56.794C34.9926 56.906 35.7785 56.7972 36.4892 56.4803C37.1998 56.1634 37.8059 55.6515 38.2372 55.0039C38.6685 54.3563 38.9071 53.5996 38.9255 52.8217C39.7248 53.1572 40.6096 53.2318 41.4538 53.0349C42.2979 52.8379 43.0583 52.3795 43.6266 51.7249C44.254 51.0051 44.6081 50.0874 44.6268 49.1327C45.426 49.4682 46.3108 49.5427 47.1549 49.3457C47.9991 49.1487 48.7594 48.6903 49.3277 48.0358C49.9272 47.3477 50.2777 46.4778 50.3228 45.5663C51.1471 45.9975 52.0929 46.1376 53.0068 45.9639C53.9208 45.7902 54.7492 45.3129 55.3578 44.6093L55.4116 44.5473C55.7568 44.1493 56.0199 43.687 56.186 43.1869C56.352 42.6869 56.4176 42.159 56.379 41.6336C56.3405 41.1081 56.1985 40.5955 55.9612 40.125C55.724 39.6546 55.3961 39.2357 54.9965 38.8923L53.6522 37.7351C54.594 37.1615 55.4239 36.4218 56.1016 35.5519L56.1221 35.595C56.3051 35.9853 56.5955 36.3154 56.9593 36.5466C57.323 36.7779 57.7452 36.9007 58.1762 36.9007C58.4896 36.9004 58.7997 36.8358 59.0871 36.711L63.6267 34.7506C63.9065 34.6302 64.1591 34.4547 64.3697 34.2346C64.5803 34.0145 64.7444 33.7543 64.8524 33.4695C64.9604 33.1847 65.01 32.881 64.9983 32.5767C64.9866 32.2723 64.9138 31.9734 64.7843 31.6977L53.7817 8.30661ZM7.10588 35.5749C7.06943 35.6435 7.01962 35.7041 6.95939 35.7532C6.89916 35.8022 6.82973 35.8388 6.75517 35.8606C6.68062 35.8824 6.60246 35.8891 6.52528 35.8803C6.44811 35.8714 6.37348 35.8472 6.30579 35.8091L1.99572 33.3878C1.86488 33.3154 1.76764 33.1946 1.72486 33.0513C1.68208 32.908 1.69717 32.7536 1.7669 32.6214L13.8435 9.57411C13.88 9.50384 13.9307 9.44189 13.9924 9.39218C14.054 9.34247 14.1253 9.30607 14.2017 9.28529C14.2532 9.27084 14.3064 9.26346 14.3599 9.26336C14.4662 9.2634 14.5704 9.29278 14.661 9.34826L18.9446 11.9468C19.0697 12.0225 19.1611 12.143 19.2004 12.2838C19.2397 12.4246 19.2238 12.5751 19.1561 12.7046L7.10588 35.5749ZM10.5144 45.0295L10.141 44.7614C9.93929 44.6171 9.76812 44.4344 9.63728 44.2237C9.50645 44.0131 9.41853 43.7787 9.37858 43.5339C9.33863 43.2892 9.34744 43.039 9.4045 42.7977C9.46155 42.5564 9.56574 42.3287 9.71106 42.1278L14.4694 35.5442C14.7649 35.1374 15.2093 34.864 15.7056 34.7837C16.202 34.7034 16.7099 34.8227 17.1186 35.1156L17.4922 35.3845C17.6938 35.5287 17.865 35.7114 17.9958 35.9221C18.1266 36.1327 18.2146 36.3671 18.2545 36.6118C18.2944 36.8566 18.2856 37.1067 18.2286 37.3481C18.1716 37.5894 18.0674 37.817 17.9221 38.0179L16.689 39.724L16.6874 39.7261L13.1639 44.6015C12.8683 45.0083 12.4238 45.2816 11.9274 45.3618C11.431 45.442 10.923 45.3226 10.5144 45.0295ZM15.3435 48.4976L14.9701 48.2288C14.7684 48.0845 14.5972 47.9018 14.4664 47.6911C14.3356 47.4805 14.2477 47.2461 14.2077 47.0013C14.1678 46.7566 14.1766 46.5064 14.2336 46.2651C14.2907 46.0237 14.3949 45.7961 14.5402 45.5952L18.0656 40.7174C18.3614 40.3113 18.8057 40.0387 19.3017 39.9589C19.7976 39.879 20.3051 39.9985 20.7134 40.2911L21.0868 40.56C21.2885 40.7043 21.4596 40.887 21.5904 41.0977C21.7213 41.3083 21.8092 41.5427 21.8491 41.7875C21.889 42.0322 21.8802 42.2824 21.8231 42.5237C21.7661 42.765 21.6619 42.9927 21.5166 43.1936L17.993 48.069C17.6975 48.4759 17.253 48.7493 16.7566 48.8296C16.2602 48.91 15.7522 48.7906 15.3435 48.4976ZM20.1727 51.9657L19.7992 51.6969C19.5976 51.5526 19.4264 51.3699 19.2956 51.1592C19.1648 50.9486 19.0769 50.7142 19.0369 50.4695C18.997 50.2248 19.0058 49.9746 19.0628 49.7333C19.1198 49.492 19.224 49.2643 19.3693 49.0634L21.8829 45.5853C22.1785 45.1785 22.623 44.9051 23.1193 44.8249C23.6157 44.7446 24.1237 44.8639 24.5324 45.1568L24.906 45.4256C25.1076 45.5699 25.2788 45.7526 25.4096 45.9633C25.5404 46.1739 25.6283 46.4083 25.6682 46.653C25.7081 46.8978 25.6993 47.148 25.6423 47.3893C25.5852 47.6305 25.481 47.8582 25.3357 48.0591L22.822 51.5373C22.5265 51.944 22.082 52.2174 21.5857 52.2977C21.0893 52.378 20.5813 52.2586 20.1727 51.9657ZM27.6511 55.0052C27.3556 55.4122 26.9111 55.6857 26.4146 55.7661C25.9181 55.8464 25.4099 55.7269 25.0012 55.4338L24.6278 55.165C24.4261 55.0207 24.2549 54.838 24.1241 54.6273C23.9933 54.4167 23.9053 54.1823 23.8654 53.9375C23.8254 53.6928 23.8343 53.4426 23.8913 53.2013C23.9484 52.9599 24.0525 52.7323 24.1979 52.5313L25.7015 50.4512C25.997 50.0444 26.4415 49.771 26.9378 49.6908C27.4341 49.6105 27.9421 49.7298 28.3507 50.0227L28.7243 50.2915C28.926 50.4358 29.0972 50.6185 29.228 50.8292C29.3588 51.0398 29.4467 51.2743 29.4867 51.519C29.5266 51.7637 29.5178 52.0139 29.4608 52.2553C29.4037 52.4966 29.2995 52.7242 29.1542 52.9252L27.6511 55.0052ZM54.6847 41.7572C54.7076 42.0595 54.6702 42.3635 54.5745 42.6513C54.4789 42.939 54.327 43.2049 54.1277 43.4335L54.0739 43.4956C53.6538 43.9818 53.0584 44.282 52.4178 44.3307C51.7771 44.3795 51.1431 44.1727 50.6543 43.7557C50.1104 43.287 49.517 42.7759 48.9183 42.2604L48.9029 42.2462L44.4728 38.4313L44.4089 38.3761L44.3353 38.3127L44.2823 38.2673C44.1115 38.1224 43.8902 38.0509 43.6668 38.0684C43.4435 38.086 43.2361 38.1911 43.0899 38.3609C42.9437 38.5306 42.8705 38.7513 42.8863 38.9748C42.9022 39.1983 43.0057 39.4065 43.1743 39.554L43.2461 39.6158C43.6504 39.964 45.755 41.7763 47.8027 43.5399C48.0408 43.746 48.2359 43.997 48.377 44.2785C48.518 44.5601 48.6021 44.8667 48.6246 45.1808C48.647 45.4949 48.6074 45.8104 48.5078 46.1091C48.4082 46.4079 48.2507 46.6841 48.0444 46.9219C47.6241 47.4048 47.03 47.7018 46.3916 47.7483C45.7532 47.7947 45.1223 47.5867 44.6367 47.1697L43.2028 45.9349L40.0153 43.1912C39.931 43.1174 39.8328 43.0611 39.7266 43.0254C39.6204 42.9898 39.5082 42.9755 39.3964 42.9834C39.2846 42.9913 39.1755 43.0213 39.0754 43.0715C38.9753 43.1218 38.8861 43.1914 38.813 43.2763C38.7399 43.3612 38.6843 43.4598 38.6494 43.5662C38.6146 43.6727 38.6011 43.7851 38.6099 43.8968C38.6187 44.0085 38.6495 44.1173 38.7005 44.2171C38.7515 44.3168 38.8218 44.4055 38.9073 44.4779L42.0943 47.2221C42.3339 47.4278 42.5304 47.6789 42.6726 47.9609C42.8149 48.2428 42.9 48.5501 42.9231 48.865C42.9462 49.18 42.9068 49.4964 42.8073 49.7961C42.7077 50.0958 42.5499 50.3728 42.343 50.6114C41.9228 51.0943 41.3286 51.3914 40.6902 51.4378C40.0517 51.4843 39.4208 51.2763 38.9352 50.8593L35.7484 48.1151C35.6639 48.0424 35.5659 47.987 35.46 47.9521C35.3541 47.9172 35.2423 47.9036 35.1311 47.9119C35.0199 47.9202 34.9115 47.9503 34.8119 48.0005C34.7124 48.0507 34.6237 48.1201 34.5509 48.2046C34.4782 48.2891 34.4228 48.3871 34.3879 48.493C34.353 48.5989 34.3393 48.7106 34.3476 48.8218C34.356 48.933 34.3861 49.0415 34.4363 49.141C34.4865 49.2406 34.5559 49.3293 34.6404 49.402L35.6734 50.2913L36.3934 50.9112C36.6329 51.117 36.8295 51.368 36.9717 51.65C37.1139 51.932 37.199 52.2392 37.2221 52.5542C37.2452 52.8691 37.2059 53.1855 37.1063 53.4852C37.0068 53.7849 36.849 54.062 36.642 54.3005C36.2218 54.7834 35.6277 55.0804 34.9893 55.1269C34.3509 55.1733 33.72 54.9654 33.2343 54.5484C33.2263 54.5413 33.2178 54.5343 33.2094 54.5276L31.0688 52.8234C31.275 52.1115 31.2555 51.3532 31.0132 50.6528C30.7709 49.9524 30.3175 49.3442 29.7154 48.912L29.3419 48.6431C28.7312 48.2041 27.9979 47.9685 27.2458 47.9698C27.4554 47.2566 27.4381 46.4959 27.1964 45.7929C26.9546 45.0899 26.5004 44.4794 25.8965 44.0459L25.523 43.7771C24.9123 43.338 24.1789 43.1025 23.4268 43.1039C23.6364 42.3906 23.6191 41.6299 23.3773 40.9269C23.1356 40.2239 22.6813 39.6134 22.0774 39.1799L21.7039 38.911C21.1256 38.4949 20.4363 38.2608 19.7242 38.2387C20.0196 37.4954 20.0578 36.6747 19.8328 35.9072C19.6079 35.1396 19.1326 34.4694 18.4828 34.0032L18.1092 33.7343C17.3351 33.18 16.3732 32.9544 15.4334 33.1067C14.4936 33.2591 13.6523 33.777 13.093 34.5474L12.4069 35.4994L10.0834 33.5676L19.0202 16.6061C20.8839 16.0906 22.2984 16.214 23.1732 16.4175C22.9216 16.7904 22.7062 17.1866 22.53 17.6006L21.1554 20.939C20.8059 21.788 20.4838 22.6593 20.1976 23.53L18.8259 27.7034C18.7602 27.9033 18.7711 28.1205 18.8565 28.3129C18.9418 28.5052 19.0956 28.659 19.2879 28.7444L19.5833 28.8756C20.6268 29.3517 21.7739 29.5555 22.9175 29.4681C24.0612 29.3806 25.164 29.0047 26.123 28.3755C26.9501 27.8316 27.6449 27.1094 28.1565 26.2619C28.668 25.4144 28.9833 24.4631 29.0792 23.4778C29.0863 23.4038 29.0934 23.3292 29.0983 23.2536C29.1585 22.9584 29.6382 20.8608 31.1077 20.7577L33.0889 21.3148C33.8581 21.5315 34.56 21.939 35.1297 22.4995L47.3995 34.5914C47.4137 34.6047 47.4278 34.6178 47.442 34.6302L53.889 40.1774C54.1197 40.3748 54.3089 40.6161 54.4455 40.8873C54.5821 41.1586 54.6634 41.4542 54.6847 41.7572ZM52.2776 36.5519L48.5701 33.3619L36.3219 21.29C35.5477 20.5284 34.5937 19.9746 33.5483 19.6802L31.4399 19.0875C31.3651 19.0664 31.2878 19.0557 31.2101 19.0556H31.2065C29.8926 19.0611 28.8123 19.7762 28.0827 21.1236C27.7694 21.7134 27.5453 22.3463 27.4176 23.0017C27.4129 23.03 27.4096 23.0583 27.4076 23.0866C27.4023 23.164 27.396 23.2403 27.3889 23.3153C27.3168 24.0491 27.0814 24.7575 26.6998 25.3884C26.3182 26.0194 25.8002 26.5568 25.1838 26.9614C24.5237 27.3867 23.775 27.6551 22.9952 27.7462C22.2153 27.8373 21.4249 27.7486 20.6846 27.487L21.8108 24.0608C22.0839 23.2293 22.3909 22.3968 22.7255 21.5862L24.0967 18.2558C24.397 17.5469 24.8477 16.9118 25.4177 16.3943C25.9877 15.8769 26.6633 15.4895 27.3978 15.2589L31.8958 13.8406C32.8859 13.5278 33.9458 13.5107 34.9455 13.7914L39.6065 15.0972C41.8198 15.7174 43.3773 15.772 45.5575 15.3059C45.6105 15.2946 45.6623 15.2783 45.7122 15.2571L46.3672 14.9789L55.261 33.7771C54.545 34.9623 53.5115 35.9235 52.2776 36.5519ZM63.2636 32.8646C63.2364 32.9371 63.1948 33.0033 63.1413 33.0592C63.0878 33.1152 63.0235 33.1597 62.9523 33.1901L58.4127 35.1505C58.2745 35.2112 58.1182 35.2156 57.9768 35.1627C57.8355 35.1099 57.7204 35.004 57.6559 34.8675L57.066 33.6205C57.0388 33.4791 56.9763 33.3469 56.8841 33.2362L46.5287 11.3498C46.4951 11.2785 46.4765 11.2011 46.4741 11.1224C46.4717 11.0437 46.4856 10.9653 46.5148 10.8922C46.544 10.819 46.5879 10.7527 46.6439 10.6972C46.6998 10.6418 46.7666 10.5984 46.84 10.5699L51.5058 8.73751C51.6431 8.6836 51.7957 8.68372 51.9329 8.73787C52.0701 8.79202 52.1817 8.89615 52.2452 9.0293L63.2464 32.419C63.2793 32.4882 63.2978 32.5634 63.3007 32.64C63.3037 32.7166 63.2911 32.793 63.2636 32.8646Z" fill="url(#paint0_linear)"/>
</g>
<defs>
<linearGradient id="paint0_linear" x1="13.4063" y1="57.4884" x2="67.2567" y2="35.791" gradientUnits="userSpaceOnUse">
<stop stop-color="#FE5000"/>
<stop offset="1" stop-color="#FCA92A"/>
</linearGradient>
<clipPath id="clip0">
<rect width="65" height="65" fill="white"/>
</clipPath>
</defs>
</svg>
