<svg width="65" height="65" viewBox="0 0 65 65" fill="none" xmlns="http://www.w3.org/2000/svg">
<path fill-rule="evenodd" clip-rule="evenodd" d="M54.3765 10.7648C59.7202 16.1438 62.8979 23.2215 63.3239 30.6939C63.6327 36.1126 62.525 41.5131 60.1205 46.3113C59.8967 46.7579 59.3535 46.9388 58.9067 46.7147C58.46 46.4909 58.2794 45.9474 58.5031 45.5008C60.7661 40.9847 61.8085 35.8999 61.5176 30.7966C61.1167 23.7659 58.1248 17.1046 53.093 12.0394C48.0605 6.97375 41.4193 3.93904 34.3925 3.49437C30.1152 3.22409 25.9492 3.85981 22.0105 5.38476C18.2239 6.85061 14.8405 9.05651 11.9539 11.9414C9.06731 14.8265 6.85924 18.2086 5.39109 21.9943C3.86385 25.9323 3.22536 30.0977 3.49347 34.3745C3.93284 41.3857 6.95211 48.0178 11.995 53.0494C17.0377 58.0805 23.6769 61.0856 30.6896 61.5111C34.3776 61.735 38.0035 61.2783 41.4673 60.1547C43.4528 59.5106 45.0419 58.0097 45.8273 56.037C46.5654 54.1831 46.5232 52.1383 45.732 50.3324C44.9801 50.6477 44.1108 50.8055 43.1394 50.8055C41.5051 50.8055 39.5824 50.3591 37.4444 49.465C33.3033 47.7333 28.7496 44.5064 24.622 40.3788C20.4942 36.2513 17.2674 31.6975 15.5357 27.5564C13.6974 23.1604 13.7515 19.6729 15.6884 17.7363L18.3221 15.1025C19.0101 14.4146 19.9578 14.0929 20.9222 14.2208C21.8867 14.3484 22.7183 14.9051 23.2036 15.7481L28.3129 24.6221C29.0112 25.8351 28.8077 27.3734 27.818 28.3631L25.5217 30.6595C25.1472 31.0341 25.117 31.6291 25.4516 32.0437C26.5406 33.3925 27.7373 34.7211 29.0087 35.9924C30.2801 37.264 31.6086 38.4608 32.9573 39.5495C33.3718 39.8841 33.967 39.854 34.3416 39.4793L36.6377 37.1831C37.6277 36.1932 39.1659 35.9898 40.3788 36.6882L49.2528 41.7975C50.0959 42.2828 50.6526 43.1144 50.7802 44.0789C50.9077 45.0432 50.5863 45.991 49.8983 46.6789L47.2646 49.3127C47.2628 49.3144 47.261 49.316 47.2592 49.3178C48.3706 51.6344 48.466 54.2999 47.508 56.7063C46.523 59.1806 44.5248 61.0648 42.0256 61.8756C38.9515 62.873 35.7578 63.3757 32.5077 63.3757C31.867 63.3757 31.2247 63.3562 30.58 63.3171C23.1267 62.8648 16.0725 59.6732 10.7174 54.3302C5.36191 48.9867 2.1551 41.9398 1.68811 34.4881C1.4036 29.948 2.08201 25.5245 3.70465 21.3407C5.26446 17.3188 7.60953 13.7263 10.6754 10.6623C13.7411 7.59837 17.3349 5.25523 21.3576 3.69807C25.5424 2.07796 29.9664 1.40196 34.507 1.68937C41.9757 2.16191 49.0321 5.385 54.3765 10.7648ZM38.1426 47.7962C41.7633 49.3104 44.6222 49.3969 45.9856 48.0334L47.0562 46.9629L40.7531 43.3656L37.8435 41.569C37.6914 41.569 37.5374 41.5306 37.3959 41.4499L35.8258 40.5538L35.6209 40.7587C34.5906 41.7889 32.9571 41.8743 31.8212 40.9572C30.423 39.8284 29.0463 38.5884 27.7296 37.2717C26.4132 35.9554 25.1731 34.5788 24.044 33.1801C23.1272 32.0441 23.2124 30.4106 24.2425 29.3804L24.5701 29.0529L20.4814 21.9513L18.467 18.4529L18.1249 17.8585L16.9678 19.0157C15.6043 20.3791 15.6908 23.2377 17.205 26.8585C18.848 30.7874 21.9364 35.1348 25.9015 39.0997C29.8663 43.0648 34.2137 46.1532 38.1426 47.7962ZM20.0349 17.5502L19.4496 16.5336L19.6015 16.3818C19.8468 16.1364 20.1716 16.003 20.5122 16.003C20.5694 16.003 20.6271 16.0067 20.6851 16.0144C21.087 16.0676 21.4336 16.2995 21.6359 16.651L26.7451 25.525C27.0363 26.0304 26.9515 26.6716 26.5389 27.0841L25.895 27.728L22.0493 21.0485L20.0349 17.5502ZM37.152 39.2277L38.2927 39.8787L41.6498 41.7945L48.3823 45.6369L48.6193 45.3999C48.9061 45.1131 49.04 44.7182 48.9869 44.3162C48.9337 43.9142 48.7018 43.5677 48.3503 43.3655L39.4763 38.2562C38.9709 37.9654 38.3297 38.05 37.9173 38.4625L37.152 39.2277Z" fill="url(#paint0_linear)"/>
<defs>
<linearGradient id="paint0_linear" x1="14.3608" y1="63.3757" x2="68.5191" y2="46.4263" gradientUnits="userSpaceOnUse">
<stop stop-color="#FE5000"/>
<stop offset="1" stop-color="#FCA92A"/>
</linearGradient>
</defs>
</svg>
