<svg width="56" height="56" viewBox="0 0 56 56" fill="none" xmlns="http://www.w3.org/2000/svg">
<g clip-path="url(#clip0)">
<path d="M55.8874 48.7454L53.6675 41.0286C53.6146 40.8701 53.5089 40.7115 53.4032 40.6058C52.029 36.4303 48.6463 33.2061 44.3651 32.0962L43.7308 31.9905C42.7794 31.7262 41.7223 32.0433 41.0352 32.8362C38.7096 35.4789 35.7497 35.6903 32.6313 35.6903C29.5129 35.6903 26.553 35.4789 24.2274 32.8362C23.5403 32.0433 22.4832 31.7262 21.5318 31.9905L20.8976 32.149C17.6734 32.9947 14.925 35.0561 13.1808 37.8045H6.52107C6.46821 37.8045 6.46821 37.8045 6.41536 37.7516C6.41536 37.6988 6.3625 37.6459 6.3625 37.5402L7.73673 32.6247C8.95239 28.7663 11.278 27.6035 15.8235 26.4407C16.0349 26.3879 16.1935 26.2822 16.2992 26.1765C16.6692 26.4936 17.092 26.7579 17.5149 26.9693C17.6734 27.075 17.832 27.075 17.9905 27.075C18.3605 27.075 18.7305 26.8636 18.9419 26.4936C19.2062 25.965 18.9948 25.3308 18.4662 25.0665C16.0349 23.798 14.2907 20.2039 14.2907 16.504C14.2907 13.227 16.9863 10.5314 20.2633 10.5314C20.8976 10.5314 21.479 10.6372 22.0604 10.7957C21.479 12.2228 21.1618 13.7556 21.1618 15.3941C21.1618 24.4322 26.6059 32.0433 33.0541 32.0433C39.3967 32.0433 44.9993 24.2737 44.9993 15.3941C44.9993 8.78724 39.661 3.44891 33.0541 3.44891C28.8786 3.44891 25.1788 5.61596 23.0646 8.89295C22.1661 8.57582 21.2147 8.41726 20.2633 8.41726C17.4091 8.41726 14.8721 9.95005 13.445 12.2228C13.3393 12.1171 13.2336 12.0642 13.1279 12.0114C12.3351 11.5885 11.5423 11.43 10.6437 11.43C7.68387 11.3771 5.30541 13.7556 5.30541 16.7155C5.30541 18.4068 5.7811 19.9924 6.52107 21.261C4.08975 21.8952 1.9227 22.8466 0.918464 26.0707L0.0727883 29.1363C-0.0857759 29.6649 0.0199336 30.2463 0.337062 30.6691C0.654191 31.1448 1.23559 31.4091 1.817 31.4091H5.88681C5.83396 31.6205 5.72825 31.8319 5.67539 32.0433L4.30117 37.0117C4.08975 37.6988 4.24831 38.4388 4.72401 39.0202C5.14684 39.6016 5.7811 39.9187 6.52107 39.9187H12.1237C11.9651 40.2887 11.8594 40.6587 11.7537 41.0286L9.53379 48.7983C9.32237 49.6968 9.48093 50.6482 10.0623 51.3882C10.6437 52.1281 11.4894 52.551 12.3879 52.551H44.1008H45.8979H53.0332C53.9318 52.551 54.8303 52.1281 55.3588 51.3882C55.9403 50.6482 56.1517 49.6968 55.8874 48.7454ZM24.3331 10.9543C24.386 10.9014 24.4388 10.8486 24.4917 10.7429C24.5445 10.69 24.5445 10.5843 24.5974 10.5314C26.2359 7.57158 29.4072 5.5631 33.0541 5.5631C37.4411 5.5631 41.1409 8.47011 42.4094 12.4342C40.5595 12.8042 38.6039 12.0642 37.4411 10.4786C37.0711 10.0029 36.4369 9.89719 35.9612 10.2672C35.7497 10.4257 35.644 10.5843 35.5912 10.7957C35.5383 10.8486 35.5383 10.9014 35.4855 10.9543C34.0055 13.967 29.0372 15.2355 23.3817 14.1256C23.5403 13.0156 23.8574 11.9585 24.3331 10.9543ZM27.293 16.6097C31.5214 16.6097 35.0098 15.2884 36.8068 12.8042C38.1282 13.967 39.7667 14.6013 41.5109 14.6013C41.9337 14.6013 42.4094 14.5484 42.8323 14.4427C42.8851 14.7598 42.8851 15.0241 42.8851 15.3412C42.8851 23.1109 38.2868 29.9291 33.0541 29.9291C28.0329 29.9291 23.646 23.6394 23.276 16.2398C24.6502 16.504 26.0245 16.6097 27.293 16.6097ZM2.23983 29.2949L2.9798 26.6521C3.61406 24.4851 4.93543 23.8508 7.57816 23.2166C7.73673 23.1637 7.89529 23.1109 8.001 23.0052C8.26527 23.2166 8.47669 23.3752 8.79382 23.5337C8.95239 23.6394 9.11095 23.6394 9.26952 23.6394C9.6395 23.6394 10.0095 23.428 10.2209 23.058C10.4852 22.5295 10.2738 21.8952 9.79806 21.6309C8.42384 20.891 7.4196 18.8296 7.4196 16.7155C7.4196 14.9184 8.84668 13.4913 10.6437 13.4913C11.2251 13.4913 11.7008 13.597 12.1765 13.8613C12.3351 13.9142 12.4408 13.967 12.5994 13.967C12.3351 14.7598 12.1765 15.6055 12.1765 16.504C12.1765 19.5168 13.1808 22.4766 14.7664 24.538C11.5951 25.3308 8.79382 26.3879 6.9439 29.2949H2.23983ZM53.7204 50.1197C53.6146 50.2254 53.4032 50.4368 53.0332 50.4368H45.8979H44.1008H12.3879C12.018 50.4368 11.8065 50.2254 11.7008 50.1197C11.5423 49.9082 11.4894 49.5911 11.5423 49.3797L13.7622 41.6629C14.8193 38.0159 17.7263 35.1618 21.4261 34.2104L22.0604 34.0518C22.2189 33.999 22.4832 34.1047 22.6418 34.2632C25.5488 37.5931 29.1429 37.8574 32.6313 37.8574C36.1197 37.8574 39.7138 37.5931 42.6209 34.2632C42.7794 34.1047 42.9908 33.999 43.2551 34.0518L43.8894 34.2104C47.5364 35.1618 50.4962 38.0159 51.5533 41.6629L52.5047 44.9399C52.5576 45.0985 52.6104 45.2042 52.7161 45.3099L53.8789 49.3268C53.9318 49.5911 53.8789 49.9082 53.7204 50.1197Z" fill="#FE5000"/>
</g>
<defs>
<clipPath id="clip0">
<rect width="56" height="56" fill="white"/>
</clipPath>
</defs>
</svg>
