<svg width="56" height="56" viewBox="0 0 56 56" fill="none" xmlns="http://www.w3.org/2000/svg">
<path d="M55.5748 26.135L45.2423 17.3114C45.2544 17.2511 45.2665 17.1907 45.2785 17.1183V5.5788C45.2665 4.89078 44.7233 4.33553 44.0353 4.31139H38.2655C37.6016 4.31139 37.0585 4.90285 37.0585 5.5788V10.3588L28.7901 3.30953C28.3435 2.92327 27.6796 2.92327 27.2209 3.30953L0.436251 26.123C-0.0827854 26.5454 -0.143138 27.3059 0.279333 27.8249C0.701804 28.3439 1.46225 28.4043 1.98129 27.9818C1.99336 27.9698 1.99336 27.9698 2.00543 27.9577L28.0055 5.82021L37.312 13.7506L42.8765 18.4823L54.0177 27.9698C54.5246 28.4043 55.2851 28.3439 55.7196 27.837C56.1421 27.33 56.0817 26.5696 55.5748 26.135ZM42.8524 15.2715L39.4726 12.4228V6.73758H42.8524V15.2715Z" fill="#FE5000"/>
<path d="M50.2516 28.5733L46.8598 25.6764L28.7901 10.2381C28.3435 9.8518 27.6796 9.8518 27.2209 10.2381L9.15121 25.6764L5.75937 28.5733C5.25241 29.0078 5.19205 29.7683 5.6266 30.2753C6.04907 30.7822 6.79745 30.8426 7.29234 30.4201L7.30441 30.408L8.81324 29.1044V51.7368C8.82531 52.4127 9.38055 52.968 10.0565 52.9801H45.9424C46.6184 52.968 47.1736 52.4248 47.1857 51.7368V29.1044L48.6945 30.408C48.9118 30.5891 49.1773 30.6977 49.467 30.6977C49.8171 30.6977 50.1551 30.5408 50.3844 30.2753C50.831 29.7562 50.7586 28.9958 50.2516 28.5733ZM32.8337 50.5539H23.1773V37.5176H32.8337V50.5539ZM35.2479 50.5539V36.3468C35.2479 35.6829 34.753 35.1035 34.0891 35.1035H21.9219C21.258 35.1035 20.7631 35.6829 20.7631 36.3468V50.5539H11.2274V27.0403L28.0055 12.7487L44.7836 27.0403V50.5539H35.2479Z" fill="#FE5000"/>
</svg>
