<svg width="100" height="100" viewBox="0 0 100 100" fill="none" xmlns="http://www.w3.org/2000/svg">
<circle cx="50" cy="50" r="49.5" stroke="url(#paint0_linear_1655_879)"/>
<path fill-rule="evenodd" clip-rule="evenodd" d="M39.2144 30.096C39.2144 29.6358 38.8413 29.2627 38.3811 29.2627C37.9208 29.2627 37.5477 29.6358 37.5477 30.096V31.3192H34.5983C32.2971 31.3192 30.4316 33.1847 30.4316 35.4858V66.2879C30.4316 68.5891 32.2971 70.4546 34.5983 70.4546H65.4004C67.7016 70.4546 69.5671 68.5891 69.5671 66.2879V35.4858C69.5671 33.1847 67.7016 31.3192 65.4004 31.3192H61.8397V30.096C61.8397 29.6358 61.4666 29.2627 61.0064 29.2627C60.5462 29.2627 60.1731 29.6358 60.1731 30.096V31.3192H39.2144V30.096ZM60.1731 36.2109V32.9858H39.2144V36.2109C39.2144 36.6712 38.8413 37.0443 38.3811 37.0443C37.9208 37.0443 37.5477 36.6712 37.5477 36.2109V32.9858H34.5983C33.2176 32.9858 32.0983 34.1051 32.0983 35.4858V39.6578H67.9004V35.4858C67.9004 34.1051 66.7811 32.9858 65.4004 32.9858H61.8397V36.2109C61.8397 36.6712 61.4666 37.0443 61.0064 37.0443C60.5462 37.0443 60.1731 36.6712 60.1731 36.2109ZM32.0983 66.2879V41.3245H67.9004V66.2879C67.9004 67.6686 66.7811 68.7879 65.4004 68.7879H34.5983C33.2176 68.7879 32.0983 67.6686 32.0983 66.2879ZM47.4337 60.58C48.1804 60.9933 49.047 61.2 50.0337 61.2C51.327 61.2 52.3804 60.8333 53.1937 60.1C54.0204 59.3533 54.4337 58.3667 54.4337 57.14C54.4337 56.2733 54.187 55.5267 53.6937 54.9C53.2004 54.2733 52.5404 53.8933 51.7137 53.76V53.7C52.4204 53.4067 52.9604 52.9667 53.3337 52.38C53.707 51.7933 53.8937 51.1133 53.8937 50.34C53.8937 49.26 53.5404 48.4 52.8337 47.76C52.1404 47.12 51.207 46.8 50.0337 46.8C49.127 46.8 48.327 47 47.6337 47.4C46.9537 47.7867 46.4537 48.3333 46.1337 49.04L47.0337 50.14C47.687 48.98 48.647 48.4 49.9137 48.4C50.6204 48.4 51.1737 48.6 51.5737 49C51.987 49.3867 52.1937 49.9267 52.1937 50.62C52.1937 51.3267 51.947 51.9067 51.4537 52.36C50.987 52.8133 50.427 53.04 49.7737 53.04H48.7737V54.64H49.8737C50.727 54.64 51.4137 54.86 51.9337 55.3C52.467 55.74 52.7337 56.3333 52.7337 57.08C52.7337 57.8267 52.4804 58.4333 51.9737 58.9C51.4804 59.3667 50.8137 59.6 49.9737 59.6C49.2937 59.6 48.6604 59.4333 48.0737 59.1C47.487 58.7533 47.0337 58.2733 46.7137 57.66L45.7937 58.8C46.1537 59.5733 46.7004 60.1667 47.4337 60.58Z" fill="url(#paint1_linear_1655_879)"/>
<defs>
<linearGradient id="paint0_linear_1655_879" x1="20.625" y1="100" x2="108.331" y2="72.5509" gradientUnits="userSpaceOnUse">
<stop stop-color="#FE5000"/>
<stop offset="1" stop-color="#FCA92A"/>
</linearGradient>
<linearGradient id="paint1_linear_1655_879" x1="38.5033" y1="70.4546" x2="73.1282" y2="60.1592" gradientUnits="userSpaceOnUse">
<stop stop-color="#FE5000"/>
<stop offset="1" stop-color="#FCA92A"/>
</linearGradient>
</defs>
</svg>
