<svg width="100" height="100" viewBox="0 0 100 100" fill="none" xmlns="http://www.w3.org/2000/svg">
<circle cx="50" cy="50" r="49.5" stroke="url(#paint0_linear)"/>
<g clip-path="url(#clip0)">
<path d="M71.2057 33.3385L50.1585 22.1234C49.8462 21.9567 49.472 21.9591 49.1621 22.1292L28.6972 33.3443C28.3616 33.5285 28.1534 33.8805 28.1534 34.2635V48.9132C28.1657 60.9557 35.3006 71.8503 46.3344 76.6749L49.175 77.9128C49.4404 78.0286 49.7427 78.0291 50.0088 77.914L53.2096 76.5317C64.448 71.8117 71.7595 60.8119 71.7606 48.6226V34.2635C71.7606 33.8764 71.5472 33.5203 71.2057 33.3385ZM69.665 48.6226C69.6626 59.9716 62.8535 70.2119 52.3892 74.6038L52.3822 74.6073L49.5948 75.8107L47.1729 74.7541C36.9021 70.2634 30.2602 60.123 30.2485 48.9132V34.8839L49.6726 24.2384L69.665 34.8915V48.6226Z" fill="url(#paint1_linear)"/>
<path d="M41.9419 48.2338C41.5659 47.7935 40.9046 47.7414 40.4643 48.1174C40.024 48.4928 39.9719 49.1547 40.3479 49.5944L45.8829 56.0761C46.2525 56.5088 46.8998 56.5679 47.3407 56.2089L60.2315 45.7212C60.6806 45.3563 60.7484 44.6962 60.383 44.2471C60.0181 43.7986 59.358 43.7302 58.9089 44.0957L46.8121 53.9366L41.9419 48.2338Z" fill="url(#paint2_linear)"/>
</g>
<defs>
<linearGradient id="paint0_linear" x1="20.625" y1="100" x2="108.331" y2="72.5509" gradientUnits="userSpaceOnUse">
<stop stop-color="#FE5000"/>
<stop offset="1" stop-color="#FCA92A"/>
</linearGradient>
<linearGradient id="paint1_linear" x1="37.1474" y1="78" x2="76.7855" y2="68.3399" gradientUnits="userSpaceOnUse">
<stop stop-color="#FE5000"/>
<stop offset="1" stop-color="#FCA92A"/>
</linearGradient>
<linearGradient id="paint2_linear" x1="44.3293" y1="56.4437" x2="60.0066" y2="48.4419" gradientUnits="userSpaceOnUse">
<stop stop-color="#FE5000"/>
<stop offset="1" stop-color="#FCA92A"/>
</linearGradient>
<clipPath id="clip0">
<rect width="56" height="56" fill="white" transform="translate(22 22)"/>
</clipPath>
</defs>
</svg>
