<svg width="100" height="100" viewBox="0 0 100 100" fill="none" xmlns="http://www.w3.org/2000/svg">
<circle cx="50" cy="50" r="49.5" stroke="url(#paint0_linear)"/>
<path d="M60.8276 43.9172H39.3104C38.8621 43.9172 38.4138 44.2759 38.4138 44.8138C38.4138 45.2621 38.7725 45.7103 39.3104 45.7103H60.8276C61.2759 45.7103 61.7242 45.3517 61.7242 44.8138C61.7242 44.2759 61.2759 43.9172 60.8276 43.9172ZM39.3104 38.7172H47.9173C48.3656 38.7172 48.8138 38.3586 48.8138 37.8207C48.8138 37.3724 48.4552 36.9241 47.9173 36.9241H39.3104C38.8621 36.9241 38.4138 37.2828 38.4138 37.8207C38.5035 38.3586 38.8621 38.7172 39.3104 38.7172ZM60.8276 50.8207H39.3104C38.8621 50.8207 38.4138 51.1793 38.4138 51.7172C38.4138 52.1655 38.7725 52.6138 39.3104 52.6138H60.8276C61.2759 52.6138 61.7242 52.2552 61.7242 51.7172C61.7242 51.1793 61.2759 50.8207 60.8276 50.8207ZM53.9242 57.6345H39.3104C38.8621 57.6345 38.4138 57.9931 38.4138 58.531C38.4138 59.069 38.7725 59.4276 39.3104 59.4276H53.9242C54.3725 59.4276 54.8207 59.069 54.8207 58.531C54.8207 57.9931 54.4621 57.6345 53.9242 57.6345ZM51.4138 66.2414C51.8621 66.2414 52.3104 65.8828 52.3104 65.3448C52.3104 64.8069 51.9518 64.4483 51.4138 64.4483H39.3104C38.8621 64.4483 38.4138 64.8069 38.4138 65.3448C38.4138 65.8828 38.7725 66.2414 39.3104 66.2414H51.4138ZM31.6001 26.7034H56.5242V38.7172H68.538V54.2276H70.2414V37.5517L57.6897 25H29.8966V76.5517H54.8207V74.8483H31.6001V26.7034ZM58.2276 27.9586L67.2828 37.0138H58.2276V27.9586ZM79.4759 56.9172L77.0552 54.4966C76.069 53.5103 74.3656 53.5103 73.469 54.4966L60.2001 67.6759L58.4069 74.4L57.9587 74.8483C57.6001 75.2069 57.6001 75.7448 57.9587 76.0138C58.138 76.1931 58.3173 76.2828 58.5863 76.2828C58.7656 76.2828 59.0345 76.1931 59.2138 76.0138L59.6621 75.5655L66.3863 73.7724L79.5656 60.5931C80.0139 60.1448 80.2828 59.4276 80.2828 58.8C80.1932 58.0828 79.9242 57.4552 79.4759 56.9172ZM62.1725 68.1241L70.9587 59.3379L74.6345 63.0138L65.7587 71.8L62.1725 68.1241ZM61.3656 69.8276L64.1449 72.6069L60.3794 73.6828L61.3656 69.8276ZM78.2207 59.3379L75.8001 61.7586L72.1242 58.1724L74.5449 55.7517C74.9035 55.3931 75.4414 55.3931 75.7104 55.7517L78.1311 58.1724C78.3104 58.3517 78.4001 58.531 78.4001 58.8C78.4897 58.9793 78.4001 59.1586 78.2207 59.3379Z" fill="url(#paint1_linear)"/>
<defs>
<linearGradient id="paint0_linear" x1="20.625" y1="100" x2="108.331" y2="72.5509" gradientUnits="userSpaceOnUse">
<stop stop-color="#FE5000"/>
<stop offset="1" stop-color="#FCA92A"/>
</linearGradient>
<linearGradient id="paint1_linear" x1="40.2888" y1="76.5517" x2="84.6575" y2="62.9797" gradientUnits="userSpaceOnUse">
<stop stop-color="#FE5000"/>
<stop offset="1" stop-color="#FCA92A"/>
</linearGradient>
</defs>
</svg>
