<svg width="100" height="100" viewBox="0 0 100 100" fill="none" xmlns="http://www.w3.org/2000/svg">
<circle cx="50" cy="50" r="49.5" stroke="url(#paint0_linear)"/>
<path d="M71.7635 48.2546V41.5091C71.7635 39.2182 69.9817 37.3091 67.6908 37.1818L61.4544 26.2364C60.818 25.2182 59.9271 24.4546 58.7817 24.2C57.6362 23.9455 56.4908 24.0728 55.4726 24.5818L34.0908 37.0546H30.2726C27.8544 37.0546 25.9453 38.9637 25.9453 41.3818V67.6C25.9453 70.0182 27.8544 71.9273 30.2726 71.9273H67.3089C69.7271 71.9273 71.6362 70.0182 71.6362 67.6V60.8546C72.909 60.3455 73.7999 59.2 73.7999 57.8V51.3091C74.0544 49.9091 73.0362 48.6364 71.7635 48.2546ZM56.7453 26.4909C57.2544 26.2364 57.7635 26.1091 58.3999 26.2364C58.9089 26.3637 59.418 26.7455 59.6726 27.2546L61.8362 30.9455C60.818 31.3273 59.7999 31.5818 58.7817 31.5818C56.4908 31.5818 54.3271 30.5637 52.7999 28.6546L56.7453 26.4909ZM50.8908 29.8C52.7999 32.3455 55.5999 33.7455 58.6544 33.7455C60.0544 33.7455 61.4544 33.3637 62.7271 32.8546L65.1453 37.0546H38.418L50.8908 29.8ZM69.5999 67.6C69.5999 68.7455 68.5817 69.7637 67.4362 69.7637H30.3999C29.2544 69.7637 28.2362 68.7455 28.2362 67.6V41.5091C28.2362 40.3637 29.2544 39.3455 30.3999 39.3455H67.4362C68.5817 39.3455 69.5999 40.3637 69.5999 41.5091V48H63.1089C59.5453 48 56.618 50.9273 56.618 54.4909C56.618 58.0546 59.5453 60.9818 63.1089 60.9818H69.5999V67.6ZM71.7635 57.8C71.7635 58.4364 71.2544 58.9455 70.618 58.9455H62.9817C60.5635 58.9455 58.6544 57.0364 58.6544 54.6182C58.6544 52.2 60.5635 50.2909 62.9817 50.2909H70.618C71.2544 50.2909 71.7635 50.8 71.7635 51.4364V57.8ZM63.1089 52.3273C61.9635 52.3273 60.9453 53.3455 60.9453 54.4909C60.9453 55.6364 61.9635 56.6546 63.1089 56.6546C64.2544 56.6546 65.2726 55.6364 65.2726 54.4909C65.2726 53.3455 64.2544 52.3273 63.1089 52.3273Z" fill="url(#paint1_linear)"/>
<defs>
<linearGradient id="paint0_linear" x1="20.625" y1="100" x2="108.331" y2="72.5509" gradientUnits="userSpaceOnUse">
<stop stop-color="#FE5000"/>
<stop offset="1" stop-color="#FCA92A"/>
</linearGradient>
<linearGradient id="paint1_linear" x1="35.8234" y1="71.9273" x2="77.823" y2="58.772" gradientUnits="userSpaceOnUse">
<stop stop-color="#FE5000"/>
<stop offset="1" stop-color="#FCA92A"/>
</linearGradient>
</defs>
</svg>
