<svg width="100" height="100" viewBox="0 0 100 100" fill="none" xmlns="http://www.w3.org/2000/svg">
<circle cx="50" cy="50" r="49.5" stroke="url(#paint0_linear_1655_875)"/>
<path d="M70.6008 47.1C70.0008 47.1 69.6008 47.5 69.6008 48.1V52V57.9001V58.9001C69.6008 60.0001 68.7008 60.9001 67.6008 60.9001H65.6008C63.9008 60.9001 62.7008 62.2 62.7008 63.8V65.8C62.7008 66.9 61.8008 67.8 60.7008 67.8H55.8008H31.3008C30.7008 67.8 30.3008 67.4 30.3008 66.8V48C30.3008 47.4 29.9008 47 29.3008 47C28.7008 47 28.3008 47.4 28.3008 48V66.7001C28.3008 68.4001 29.6008 69.6 31.2008 69.6H55.8008H60.7008H62.0008C63.3008 69.6 64.6008 69.1 65.4008 68.1L70.0008 63.5C70.9008 62.6 71.5008 61.3 71.5008 60.1V58.8V57.8V52V48C71.6008 47.4 71.2008 47.1 70.6008 47.1ZM64.6008 66.4001C64.6008 66.2001 64.7008 66 64.7008 65.7001V63.7001C64.7008 63.1001 65.1008 62.7001 65.7008 62.7001H67.7008C67.9008 62.7001 68.1008 62.7 68.4008 62.6L64.6008 66.4001ZM68.7008 33.3H61.8008V31.3C61.8008 30.7 61.4008 30.3 60.8008 30.3C60.2008 30.3 59.8008 30.7 59.8008 31.3V33.3H40.2008V31.3C40.2008 30.7 39.8008 30.3 39.2008 30.3C38.6008 30.3 38.2008 30.7 38.2008 31.3V33.3H31.3008C29.6008 33.3 28.4008 34.6 28.4008 36.2V44.1C28.4008 44.7 28.8008 45.1 29.4008 45.1H70.7008C71.3008 45.1 71.7008 44.7 71.7008 44.1V36.2C71.6008 34.6 70.3008 33.3 68.7008 33.3ZM69.6008 43.1H30.4008V36.2C30.4008 35.6 30.8008 35.2 31.4008 35.2H38.3008V37.5C37.7008 37.8 37.3008 38.5 37.3008 39.2C37.3008 40.3 38.2008 41.2 39.3008 41.2C40.4008 41.2 41.3008 40.3 41.3008 39.2C41.3008 38.5 40.9008 37.8 40.3008 37.5V35.2H59.9008V37.5C59.3008 37.8 58.9008 38.5 58.9008 39.2C58.9008 40.3 59.8008 41.2 60.9008 41.2C62.0008 41.2 62.9008 40.3 62.9008 39.2C62.9008 38.5 62.5008 37.8 61.9008 37.5V35.2H68.8008C69.4008 35.2 69.8008 35.6 69.8008 36.2L69.6008 43.1ZM46.1008 52.9C47.2008 52.9 48.1008 52 48.1008 50.9C48.1008 49.8 47.2008 48.9 46.1008 48.9C45.0008 48.9 44.1008 49.8 44.1008 50.9C44.1008 52.1 45.0008 52.9 46.1008 52.9ZM53.9008 52.9C55.0008 52.9 55.9008 52 55.9008 50.9C55.9008 49.8 55.0008 48.9 53.9008 48.9C52.8008 48.9 51.9008 49.8 51.9008 50.9C52.0008 52.1 52.8008 52.9 53.9008 52.9ZM61.8008 52.9C62.9008 52.9 63.8008 52 63.8008 50.9C63.8008 49.8 62.9008 48.9 61.8008 48.9C60.7008 48.9 59.8008 49.8 59.8008 50.9C59.8008 52.1 60.7008 52.9 61.8008 52.9ZM38.2008 61.8C39.3008 61.8 40.2008 60.9 40.2008 59.8C40.2008 58.7 39.3008 57.8 38.2008 57.8C37.1008 57.8 36.2008 58.7 36.2008 59.8C36.2008 60.9 37.1008 61.8 38.2008 61.8ZM46.1008 61.8C47.2008 61.8 48.1008 60.9 48.1008 59.8C48.1008 58.7 47.2008 57.8 46.1008 57.8C45.0008 57.8 44.1008 58.7 44.1008 59.8C44.1008 60.9 45.0008 61.8 46.1008 61.8ZM53.9008 61.8C55.0008 61.8 55.9008 60.9 55.9008 59.8C55.9008 58.7 55.0008 57.8 53.9008 57.8C52.8008 57.8 51.9008 58.7 51.9008 59.8C51.9008 60.9 52.8008 61.8 53.9008 61.8Z" fill="url(#paint1_linear_1655_875)"/>
<defs>
<linearGradient id="paint0_linear_1655_875" x1="20.625" y1="100" x2="108.331" y2="72.5509" gradientUnits="userSpaceOnUse">
<stop stop-color="#FE5000"/>
<stop offset="1" stop-color="#FCA92A"/>
</linearGradient>
<linearGradient id="paint1_linear_1655_875" x1="37.252" y1="69.6" x2="74.5853" y2="56.697" gradientUnits="userSpaceOnUse">
<stop stop-color="#FE5000"/>
<stop offset="1" stop-color="#FCA92A"/>
</linearGradient>
</defs>
</svg>
