<svg width="100" height="100" viewBox="0 0 100 100" fill="none" xmlns="http://www.w3.org/2000/svg">
<circle cx="50" cy="50" r="49.5" stroke="url(#paint0_linear)"/>
<path d="M67.3184 36.5L70.1821 33.6364L66.3639 29.8182L63.0912 33.0909C59.5457 30.9091 55.3184 29.5455 50.9548 29.4091V27.5H56.4094V24.7727C56.4094 23.2727 55.1821 22.0455 53.6821 22.0455H46.4548C44.9548 22.0455 43.7275 23.2727 43.7275 24.7727V27.5H49.1821V29.2727C44.6821 29.5455 40.4548 30.9091 36.9094 33.0909L33.6366 29.8182L29.8184 33.6364L32.6821 36.5C28.3184 40.8637 25.7275 46.8637 25.7275 53.5455C25.7275 66.9091 36.6366 77.8182 50.0003 77.8182C63.3639 77.8182 74.273 66.9091 74.273 53.5455C74.273 47 71.5457 41 67.3184 36.5ZM66.3639 32.4091L67.5912 33.6364L65.9548 35.2727C65.5457 34.8637 65.0003 34.4546 64.5912 34.1818L66.3639 32.4091ZM45.5003 25.7273V24.7727C45.5003 24.2273 45.9094 23.8182 46.4548 23.8182H53.6821C54.2275 23.8182 54.6366 24.2273 54.6366 24.7727V25.7273H45.5003ZM32.4094 33.6364L33.6366 32.4091L35.4094 34.1818C34.8639 34.5909 34.4548 34.8637 34.0457 35.2727L32.4094 33.6364ZM50.0003 76.0455C37.5912 76.0455 27.5003 65.9546 27.5003 53.5455C27.5003 41.1364 37.5912 31.1818 50.0003 31.1818C62.4094 31.1818 72.5003 41.2727 72.5003 53.6818C72.5003 65.9546 62.4094 76.0455 50.0003 76.0455ZM50.0003 34.7273C39.6366 34.7273 31.1821 43.1818 31.1821 53.5455C31.1821 63.9091 39.6366 72.3637 50.0003 72.3637C60.3639 72.3637 68.8184 63.9091 68.8184 53.5455C68.8184 43.1818 60.3639 34.7273 50.0003 34.7273ZM50.9548 70.5909V68.8182H49.1821V70.5909C40.4548 70.1818 33.5003 63.2273 32.9548 54.5H34.7275V52.7273H32.9548C33.3639 44 40.4548 37.0455 49.0457 36.6364V38.4091H50.8185V36.6364C59.5457 37.0455 66.6366 44 67.0457 52.7273H65.273V54.5H67.0457C66.6366 63.2273 59.5457 70.1818 50.9548 70.5909ZM50.0003 50C47.9548 50 46.4548 51.6364 46.4548 53.5455C46.4548 55.5909 48.0912 57.0909 50.0003 57.0909C52.0457 57.0909 53.5457 55.4546 53.5457 53.5455C53.5457 51.6364 52.0457 50 50.0003 50ZM50.0003 55.4546C49.0457 55.4546 48.2275 54.6364 48.2275 53.6818C48.2275 52.7273 49.0457 51.9091 50.0003 51.9091C50.9548 51.9091 51.773 52.7273 51.773 53.6818C51.773 54.6364 50.9548 55.4546 50.0003 55.4546ZM50.9548 41H49.1821V49.0455H50.9548V41ZM45.5003 52.7273H40.0457V54.5H45.5003V52.7273Z" fill="url(#paint1_linear)"/>
<defs>
<linearGradient id="paint0_linear" x1="20.625" y1="100" x2="108.331" y2="72.5509" gradientUnits="userSpaceOnUse">
<stop stop-color="#FE5000"/>
<stop offset="1" stop-color="#FCA92A"/>
</linearGradient>
<linearGradient id="paint1_linear" x1="35.74" y1="77.8182" x2="79.2583" y2="65.9633" gradientUnits="userSpaceOnUse">
<stop stop-color="#FE5000"/>
<stop offset="1" stop-color="#FCA92A"/>
</linearGradient>
</defs>
</svg>
