<svg width="100" height="100" viewBox="0 0 100 100" fill="none" xmlns="http://www.w3.org/2000/svg">
<circle cx="50" cy="50" r="49.5" stroke="url(#paint0_linear)"/>
<g clip-path="url(#clip0)">
<path d="M74.7088 35.7462H68.2159L65.4318 29.7091C65.2627 29.3387 64.8054 29.1685 64.4375 29.3387L61.713 30.6102L53.4602 24.6733C53.1321 24.433 52.6548 24.5131 52.4162 24.8535L44.7002 35.7462H25.2911C24.8735 35.7462 24.5454 36.0865 24.5454 36.497V63.4984C24.5454 63.9089 24.8835 64.2492 25.2911 64.2492H31.784L34.5681 70.2863C34.7372 70.6567 35.1846 70.8269 35.5625 70.6567L38.2869 69.3852L46.5397 75.3221C46.8679 75.5624 47.3451 75.4823 47.5838 75.1419L55.2997 64.2492H74.6988C75.1164 64.2492 75.4446 63.9089 75.4446 63.4984V36.497C75.4545 36.0865 75.1164 35.7462 74.7088 35.7462ZM64.3877 31.0207L66.5653 35.7462H54.2656L64.3877 31.0207ZM53.2017 26.3452L60.1619 31.341L50.7258 35.7462H46.5397L53.2017 26.3452ZM42.0454 57.4814V62.6574C42.0454 62.6874 42.0454 62.7175 42.0554 62.7475H37.571C37.571 62.7175 37.5809 62.6874 37.5809 62.6574V57.4814V56.0798V37.2479H42.0554V56.0798V57.4814H42.0454ZM26.0369 62.7475V37.2479H36.1789V56.0798H31.7045C31.3167 56.0798 31.0085 56.3901 31.0085 56.7806C31.0085 57.171 31.3167 57.4814 31.7045 57.4814H36.1789V62.6574C36.1789 62.6874 36.1789 62.7175 36.1889 62.7475H26.0369ZM35.6122 68.9747L33.4346 64.2492H45.7343L35.6122 68.9747ZM46.7983 73.6602L39.838 68.6644L49.2741 64.2593H53.4602L46.7983 73.6602ZM73.963 62.7475H43.4375C43.4375 62.7175 43.4474 62.6874 43.4474 62.6574V57.4814H56.1747C56.5625 57.4814 56.8707 57.171 56.8707 56.7806C56.8707 56.3901 56.5625 56.0798 56.1747 56.0798H43.4375V37.2479H45.0781H67.7287H73.963V62.7475ZM61.2457 46.1182H62.5483V41.5729H66.2869C68.4147 41.5729 69.6079 42.6542 69.6079 44.5163C69.6079 46.3885 68.4147 47.4998 66.2869 47.4998H64.1392V48.4209H67.0028V49.2919H64.1392V51.2341H62.5483V49.2919H61.2457V48.4209H62.5483V47.4998H61.2457V46.1182ZM66.0582 46.1182C67.4801 46.1182 68.017 45.5075 68.017 44.5163C68.017 43.5252 67.4801 42.9445 66.0582 42.9445H64.1392V46.1182H66.0582Z" fill="url(#paint1_linear)"/>
</g>
<defs>
<linearGradient id="paint0_linear" x1="20.625" y1="100" x2="108.331" y2="72.5509" gradientUnits="userSpaceOnUse">
<stop stop-color="#FE5000"/>
<stop offset="1" stop-color="#FCA92A"/>
</linearGradient>
<linearGradient id="paint1_linear" x1="35.0434" y1="75.4606" x2="79.6894" y2="61.4952" gradientUnits="userSpaceOnUse">
<stop stop-color="#FE5000"/>
<stop offset="1" stop-color="#FCA92A"/>
</linearGradient>
<clipPath id="clip0">
<rect width="50.9091" height="50.9091" fill="white" transform="translate(24.5454 24.5454)"/>
</clipPath>
</defs>
</svg>
