<svg width="100" height="100" viewBox="0 0 100 100" fill="none" xmlns="http://www.w3.org/2000/svg">
<circle cx="50" cy="50" r="49.5" stroke="url(#paint0_linear)"/>
<path d="M71.7636 47.2546V40.5091C71.7636 38.2182 69.9818 36.3091 67.6909 36.1818L61.4546 25.2364C60.8182 24.2182 59.9273 23.4546 58.7818 23.2C57.6364 22.9455 56.4909 23.0728 55.4727 23.5818L34.0909 36.0546H30.2727C27.8546 36.0546 25.9455 37.9637 25.9455 40.3818V66.6C25.9455 69.0182 27.8546 70.9273 30.2727 70.9273H67.3091C69.7273 70.9273 71.6364 69.0182 71.6364 66.6V59.8546C72.9091 59.3455 73.8 58.2 73.8 56.8V50.3091C74.0546 48.9091 73.0364 47.6364 71.7636 47.2546ZM56.7455 25.4909C57.2546 25.2364 57.7636 25.1091 58.4 25.2364C58.9091 25.3637 59.4182 25.7455 59.6727 26.2546L61.8364 29.9455C60.8182 30.3273 59.8 30.5818 58.7818 30.5818C56.4909 30.5818 54.3273 29.5637 52.8 27.6546L56.7455 25.4909ZM50.8909 28.8C52.8 31.3455 55.6 32.7455 58.6546 32.7455C60.0546 32.7455 61.4546 32.3637 62.7273 31.8546L65.1455 36.0546H38.4182L50.8909 28.8ZM69.6 66.6C69.6 67.7455 68.5818 68.7637 67.4364 68.7637H30.4C29.2546 68.7637 28.2364 67.7455 28.2364 66.6V40.5091C28.2364 39.3637 29.2546 38.3455 30.4 38.3455H67.4364C68.5818 38.3455 69.6 39.3637 69.6 40.5091V47H63.1091C59.5455 47 56.6182 49.9273 56.6182 53.4909C56.6182 57.0546 59.5455 59.9818 63.1091 59.9818H69.6V66.6ZM71.7636 56.8C71.7636 57.4364 71.2546 57.9455 70.6182 57.9455H62.9818C60.5636 57.9455 58.6546 56.0364 58.6546 53.6182C58.6546 51.2 60.5636 49.2909 62.9818 49.2909H70.6182C71.2546 49.2909 71.7636 49.8 71.7636 50.4364V56.8ZM63.1091 51.3273C61.9636 51.3273 60.9455 52.3455 60.9455 53.4909C60.9455 54.6364 61.9636 55.6546 63.1091 55.6546C64.2546 55.6546 65.2727 54.6364 65.2727 53.4909C65.2727 52.3455 64.2546 51.3273 63.1091 51.3273Z" fill="url(#paint1_linear)"/>
<defs>
<linearGradient id="paint0_linear" x1="20.625" y1="100" x2="108.331" y2="72.5509" gradientUnits="userSpaceOnUse">
<stop stop-color="#FE5000"/>
<stop offset="1" stop-color="#FCA92A"/>
</linearGradient>
<linearGradient id="paint1_linear" x1="35.8236" y1="70.9273" x2="77.8232" y2="57.772" gradientUnits="userSpaceOnUse">
<stop stop-color="#FE5000"/>
<stop offset="1" stop-color="#FCA92A"/>
</linearGradient>
</defs>
</svg>
