<svg width="100" height="100" viewBox="0 0 100 100" fill="none" xmlns="http://www.w3.org/2000/svg">
<circle cx="50" cy="50" r="49.5" stroke="url(#paint0_linear_1655_901)"/>
<path d="M52.8104 28H40.2729C36.8161 28 34 30.8155 34 34.2717V64.7283C34 68.176 36.8161 70.9916 40.2729 70.9916H42.0604C42.5578 70.9916 42.9541 70.5869 42.9541 70.098C42.9541 69.6007 42.5494 69.2045 42.0604 69.2045H40.2729C37.8025 69.2045 35.7959 67.1982 35.7959 64.7283V34.2717C35.7959 31.8018 37.8025 29.7955 40.2729 29.7955H52.8104C55.2808 29.7955 57.2875 31.8018 57.2875 34.2717V43.2325C57.2875 43.7299 57.6922 44.1261 58.1812 44.1261C58.6702 44.1261 59.0749 43.7214 59.0749 43.2325V34.2717C59.0833 30.8155 56.2673 28 52.8104 28ZM58.1896 35.1653H34.8937C34.4047 35.1653 34 35.5699 34 36.0588C34 36.5477 34.4047 36.9524 34.8937 36.9524H58.1812C58.6786 36.9524 59.0749 36.5477 59.0749 36.0588C59.0749 35.5699 58.6786 35.1653 58.1896 35.1653ZM50.1208 60.2437H34.8937C34.4047 60.2437 34 60.6483 34 61.1372C34 61.6346 34.4047 62.0308 34.8937 62.0308H50.1208C50.6182 62.0308 51.0145 61.6262 51.0145 61.1372C51.0229 60.6483 50.6182 60.2437 50.1208 60.2437ZM49.2271 31.5826H43.8478C43.3504 31.5826 42.9541 31.9873 42.9541 32.4762C42.9541 32.9651 43.3588 33.3697 43.8478 33.3697H49.2271C49.7245 33.3697 50.1208 32.9651 50.1208 32.4762C50.1208 31.9873 49.7245 31.5826 49.2271 31.5826ZM52.8526 31.5826H52.8357C52.3382 31.5826 51.9504 31.9873 51.9504 32.4762C51.9504 32.9651 52.3635 33.3697 52.8526 33.3697C53.3416 33.3697 53.7463 32.9651 53.7463 32.4762C53.7463 31.9873 53.3416 31.5826 52.8526 31.5826ZM74.4369 51.7044L67.7002 44.3031C66.368 42.9712 64.1927 42.9712 62.8522 44.3115C62.4222 44.7414 62.1355 45.2472 61.9837 45.7951C60.6431 44.7667 58.7124 44.8679 57.4729 46.107C57.0514 46.537 56.7563 47.0427 56.6045 47.5907C55.2639 46.5622 53.3331 46.6634 52.1022 47.9026C51.6806 48.3241 51.3939 48.8214 51.2422 49.344L48.0635 46.166C46.7314 44.8342 44.5561 44.8342 43.2155 46.1745C41.8833 47.5064 41.8833 49.6812 43.2155 51.0131L55.4157 63.2194L48.1816 64.3574C46.2255 64.6356 44.75 66.3384 44.75 68.3109C44.75 69.7946 45.9557 71 47.4396 71H64.3361C66.9667 71 69.4455 69.9716 71.3004 68.117L74.1165 65.3015C75.9798 63.447 77 60.9686 77 58.347C77 55.8771 76.0894 53.5252 74.4369 51.7044ZM72.8518 64.0202L70.0357 66.8357C68.5096 68.3615 66.4861 69.196 64.3361 69.196H47.4396C46.9422 69.196 46.5459 68.7914 46.5459 68.3025C46.5459 67.2151 47.3553 66.2794 48.4514 66.1192L57.4392 64.7114C57.7765 64.6609 58.0463 64.4248 58.1559 64.1045C58.2571 63.7842 58.1727 63.4301 57.9367 63.1941L44.4802 49.7487C43.8478 49.1164 43.8478 48.0796 44.4886 47.4305C44.809 47.1102 45.2222 46.95 45.6437 46.95C46.0653 46.95 46.4784 47.1102 46.7988 47.4305L55.7614 56.3913C56.1071 56.7369 56.6804 56.7369 57.0261 56.3913C57.2031 56.2143 57.2875 55.9867 57.2875 55.7591C57.2875 55.5315 57.2031 55.3039 57.0261 55.1268L53.3669 51.4683C52.7345 50.8361 52.7345 49.7993 53.3753 49.1502C54.0076 48.5179 55.0447 48.5179 55.6771 49.1502L59.3363 52.8087C59.682 53.1543 60.2553 53.1543 60.601 52.8087C60.778 52.6316 60.8624 52.404 60.8624 52.1764C60.8624 51.9488 60.778 51.7212 60.6094 51.5526L58.7376 49.6812C58.1053 49.049 58.1053 48.0122 58.7461 47.3631C59.3784 46.7308 60.4155 46.7308 61.0478 47.3631L62.9196 49.2345C63.2737 49.5632 63.8218 49.5632 64.1674 49.2176C64.5131 48.872 64.5131 48.2988 64.1674 47.9531L64.0916 47.8773C63.7796 47.5654 63.611 47.1608 63.611 46.7224C63.611 46.2841 63.7796 45.8794 64.1 45.5591C64.7324 44.9269 65.7694 44.9269 66.3765 45.5254L73.0878 52.893C74.4369 54.3766 75.1788 56.2986 75.1788 58.3133C75.2126 60.4797 74.3694 62.5028 72.8518 64.0202Z" fill="url(#paint1_linear_1655_901)"/>
<defs>
<linearGradient id="paint0_linear_1655_901" x1="20.625" y1="100" x2="108.331" y2="72.5509" gradientUnits="userSpaceOnUse">
<stop stop-color="#FE5000"/>
<stop offset="1" stop-color="#FCA92A"/>
</linearGradient>
<linearGradient id="paint1_linear_1655_901" x1="42.8688" y1="71" x2="80.5823" y2="59.1969" gradientUnits="userSpaceOnUse">
<stop stop-color="#FE5000"/>
<stop offset="1" stop-color="#FCA92A"/>
</linearGradient>
</defs>
</svg>
