<svg width="100" height="100" viewBox="0 0 100 100" fill="none" xmlns="http://www.w3.org/2000/svg">
<circle cx="50" cy="50" r="49.5" stroke="url(#paint0_linear)"/>
<path d="M50.0243 27.3269C50.8176 27.3269 51.4666 27.976 51.4666 28.7692C51.4666 29.5625 50.8176 30.2115 50.0243 30.2115C49.2311 30.2115 48.582 29.5625 48.582 28.7692C48.582 27.976 49.2311 27.3269 50.0243 27.3269ZM69.2311 34.5385C69.2311 32.4111 67.5123 30.6923 65.3849 30.6923H60.0484C59.3392 29.899 58.4258 29.2981 57.3681 28.9976C56.4787 28.7452 55.8056 28.0601 55.5412 27.1707C54.8561 24.7668 52.6325 23 50.0003 23C47.3681 23 45.1445 24.7668 44.4594 27.1707C44.207 28.0601 43.5219 28.7332 42.6325 28.9976C41.5868 29.2981 40.6734 29.899 39.9522 30.6923H34.6157C32.4883 30.6923 30.7695 32.4111 30.7695 34.5385V69.1538C30.7695 71.2812 32.4883 73 34.6157 73C43.4498 73 54.3032 73 65.3849 73C67.5123 73 69.2311 71.2812 69.2311 69.1538C69.2311 58.2284 69.2311 47.7716 69.2311 34.5385ZM40.3849 34.5024C40.3969 32.8077 41.5388 31.3053 43.1614 30.8365C44.6878 30.3918 45.8657 29.226 46.2984 27.6995C46.7791 26.0649 48.2936 24.9231 50.0003 24.9231C51.707 24.9231 53.2215 26.0649 53.7022 27.6995C54.1469 29.226 55.3128 30.4038 56.8392 30.8365C58.4739 31.3173 59.6157 32.8317 59.6157 34.5385V36.4615H40.3849V34.5024ZM65.3849 71.0769C55.1085 71.0769 44.8561 71.0769 34.6157 71.0769C33.558 71.0769 32.6926 70.2115 32.6926 69.1538V34.5385C32.6926 33.4808 33.558 32.6154 34.6157 32.6154H38.7864C38.582 33.2043 38.4618 33.8293 38.4618 34.4904V38.3846H61.5388V34.5385C61.5388 33.8654 61.4186 33.2163 61.2022 32.6154H65.3849C66.4426 32.6154 67.308 33.4808 67.308 34.5385C67.308 40.0312 67.308 65.8245 67.308 69.1538C67.308 70.2115 66.4426 71.0769 65.3849 71.0769ZM57.9931 46.3774L46.4306 57.9399L41.3465 52.8438L39.9883 54.2019L46.4426 60.6562L59.3633 47.7356L57.9931 46.3774Z" fill="url(#paint1_linear)"/>
<defs>
<linearGradient id="paint0_linear" x1="20.625" y1="100" x2="108.331" y2="72.5509" gradientUnits="userSpaceOnUse">
<stop stop-color="#FE5000"/>
<stop offset="1" stop-color="#FCA92A"/>
</linearGradient>
<linearGradient id="paint1_linear" x1="38.7022" y1="73" x2="73.7104" y2="64.572" gradientUnits="userSpaceOnUse">
<stop stop-color="#FE5000"/>
<stop offset="1" stop-color="#FCA92A"/>
</linearGradient>
</defs>
</svg>
