<svg width="100" height="100" viewBox="0 0 100 100" fill="none" xmlns="http://www.w3.org/2000/svg">
<circle cx="50" cy="50" r="49.5" stroke="url(#paint0_linear_1655_895)"/>
<path d="M29.3267 38.7025C29.31 38.7934 29.3006 38.8855 29.2976 38.9776V40.8693C29.3 41.6489 29.7842 42.3458 30.5145 42.6197V45.4032C30.5179 46.335 31.2507 47.101 32.1813 47.145V63.2256C31.2507 63.27 30.5179 64.0359 30.5145 64.9675V67.7428C29.7826 68.0239 29.2988 68.726 29.2976 69.5096V71.36C29.2976 71.7049 29.5778 71.9849 29.9228 71.9849H72.0768C72.4218 71.9849 72.7017 71.7049 72.7017 71.36V69.5096C72.7005 68.7257 72.2166 68.0236 71.4851 67.7428V64.9511C71.4817 64.0192 70.7486 63.2533 69.8183 63.2092V47.145C70.7486 47.101 71.4817 46.335 71.4851 45.4032V42.6197C72.2151 42.3458 72.6993 41.6489 72.7017 40.8693V38.99C72.699 38.8979 72.6893 38.8058 72.6726 38.715C72.9868 38.8542 73.3543 38.7125 73.4935 38.3983C73.6327 38.0843 73.4911 37.7168 73.1771 37.5773L51.2873 26.0723C51.1047 25.9759 50.8864 25.9759 50.7038 26.0723L28.8143 37.5648C28.5088 37.7262 28.3918 38.104 28.5526 38.4095C28.6997 38.6885 29.0316 38.8143 29.3267 38.7025ZM31.7646 43.7029V42.7403H38.9735V43.6947L31.7646 43.7029ZM47.816 47.1493V63.2256C46.8854 63.27 46.1526 64.0359 46.1492 64.9675V67.6261H40.2151V64.9675C40.2117 64.0359 39.4789 63.27 38.5483 63.2256V47.145C39.4789 47.101 40.2117 46.335 40.2151 45.4032V42.7403H46.1407V45.3992C46.1422 46.3326 46.8756 47.1004 47.8078 47.145L47.816 47.1493ZM47.3993 43.7029V42.7403H54.6085V43.6947L47.3993 43.7029ZM63.451 47.1493V63.2256C62.5203 63.27 61.7872 64.0359 61.7839 64.9675V67.6261H55.8501V64.9675C55.8467 64.0359 55.1136 63.27 54.1833 63.2256V47.145C55.1136 47.101 55.8467 46.335 55.8501 45.4032V42.7403H61.7757V45.3992C61.7769 46.3326 62.5103 47.1004 63.4425 47.145L63.451 47.1493ZM63.0343 43.7029V42.7403H70.2432V43.6947L63.0343 43.7029ZM70.2432 66.672V67.6261H63.0258V66.672H70.2432ZM54.6085 66.672V67.6261H47.3911V66.672H54.6085ZM48.4327 45.9074H47.8911C47.6148 45.9074 47.3911 45.6837 47.3911 45.4074V44.953H54.6V45.4074C54.6 45.6837 54.3763 45.9074 54.1 45.9074H48.4327ZM52.9374 47.1575V63.2174H49.0579V47.1575H52.9374ZM48.4327 64.4675H54.1C54.3763 64.4675 54.6 64.6912 54.6 64.9675V65.4219H47.3911V64.9675C47.3911 64.6912 47.6148 64.4675 47.8911 64.4675H48.4327ZM38.9653 66.672V67.6261H31.7561V66.672H38.9653ZM31.7561 45.4199V44.953H38.9653V45.4074C38.9653 45.6837 38.7416 45.9074 38.465 45.9074H32.2436C31.9707 45.9007 31.7537 45.6761 31.7561 45.4032V45.4199ZM37.2985 47.17V63.2174H33.4229V47.1575L37.2985 47.17ZM31.7561 64.9803C31.7561 64.7037 31.9798 64.48 32.2561 64.48H38.465C38.7416 64.48 38.9653 64.7037 38.9653 64.9803V65.4343H31.7561V64.9803ZM71.4516 69.5348V70.7597H30.5395V69.5348C30.5395 69.178 30.8285 68.8886 31.1853 68.8886H70.8058C71.1574 68.8886 71.4449 69.1704 71.4516 69.522V69.5348ZM70.235 64.9803V65.4343H63.0258V64.9803C63.0258 64.7037 63.2495 64.48 63.5258 64.48H69.7474C70.014 64.4867 70.2283 64.7009 70.235 64.9675V64.9803ZM64.6926 63.2299V47.1575H68.5721V63.2174L64.6926 63.2299ZM70.235 45.4199C70.235 45.6962 70.0113 45.9199 69.735 45.9199H63.53C63.2538 45.9199 63.0301 45.6962 63.0301 45.4199V44.953H70.2389L70.235 45.4199ZM50.9955 27.3224L69.6097 37.1065H32.3813L50.9955 27.3224ZM30.5395 38.99C30.5395 38.6451 30.8194 38.3651 31.1644 38.3651H70.8267C71.1717 38.3651 71.4516 38.6451 71.4516 38.99V40.8821C71.4516 41.227 71.1717 41.507 70.8267 41.507H31.1644C30.8194 41.507 30.5395 41.227 30.5395 40.8821V38.99Z" fill="url(#paint1_linear_1655_895)"/>
<defs>
<linearGradient id="paint0_linear_1655_895" x1="20.625" y1="100" x2="108.331" y2="72.5509" gradientUnits="userSpaceOnUse">
<stop stop-color="#FE5000"/>
<stop offset="1" stop-color="#FCA92A"/>
</linearGradient>
<linearGradient id="paint1_linear_1655_895" x1="37.7754" y1="71.9849" x2="77.4415" y2="59.8186" gradientUnits="userSpaceOnUse">
<stop stop-color="#FE5000"/>
<stop offset="1" stop-color="#FCA92A"/>
</linearGradient>
</defs>
</svg>
