<svg width="100" height="100" viewBox="0 0 100 100" fill="none" xmlns="http://www.w3.org/2000/svg">
<circle cx="50" cy="50" r="49.5" stroke="url(#paint0_linear_1655_888)"/>
<path d="M65.8053 72.7272H43.4912C40.8879 72.7272 38.8424 70.6439 38.8424 67.9924V39.5833C38.8424 36.9318 40.8879 34.8485 43.4912 34.8485H65.8053C68.4086 34.8485 70.454 36.9318 70.454 39.5833V67.9924C70.454 70.6439 68.4086 72.7272 65.8053 72.7272ZM43.4912 36.7424C41.9106 36.7424 40.7019 37.9735 40.7019 39.5833V67.9924C40.7019 69.6022 41.9106 70.8333 43.4912 70.8333H65.8053C67.3858 70.8333 68.5945 69.6022 68.5945 67.9924V39.5833C68.5945 37.9735 67.3858 36.7424 65.8053 36.7424H43.4912ZM36.0532 67.0454H34.1937C31.5904 67.0454 29.5449 64.9621 29.5449 62.3106V32.0076C29.5449 29.356 31.5904 27.2727 34.1937 27.2727H56.5077C59.111 27.2727 61.1565 29.356 61.1565 32.0076C61.1565 32.5757 60.7846 32.9545 60.2267 32.9545C59.6689 32.9545 59.297 32.5757 59.297 32.0076C59.297 30.3977 58.0883 29.1666 56.5077 29.1666H34.1937C32.6131 29.1666 31.4044 30.3977 31.4044 32.0076V62.3106C31.4044 63.9204 32.6131 65.1515 34.1937 65.1515H36.0532C36.611 65.1515 36.9829 65.5303 36.9829 66.0985C36.9829 66.6666 36.611 67.0454 36.0532 67.0454ZM62.0862 59.4697H47.2102C46.6524 59.4697 46.2805 59.0909 46.2805 58.5227C46.2805 57.9545 46.6524 57.5757 47.2102 57.5757H62.0862C62.6441 57.5757 63.016 57.9545 63.016 58.5227C63.016 59.0909 62.6441 59.4697 62.0862 59.4697ZM62.0862 67.0454H47.2102C46.6524 67.0454 46.2805 66.6666 46.2805 66.0985C46.2805 65.5303 46.6524 65.1515 47.2102 65.1515H62.0862C62.6441 65.1515 63.016 65.5303 63.016 66.0985C63.016 66.6666 62.6441 67.0454 62.0862 67.0454ZM62.0862 51.8939H47.2102C46.6524 51.8939 46.2805 51.5151 46.2805 50.9469C46.2805 50.3788 46.6524 50 47.2102 50H62.0862C62.6441 50 63.016 50.3788 63.016 50.9469C63.016 51.5151 62.6441 51.8939 62.0862 51.8939ZM62.0862 44.3182H47.2102C46.6524 44.3182 46.2805 43.9394 46.2805 43.3712C46.2805 42.803 46.6524 42.4242 47.2102 42.4242H62.0862C62.6441 42.4242 63.016 42.803 63.016 43.3712C63.016 43.9394 62.6441 44.3182 62.0862 44.3182Z" fill="url(#paint1_linear_1655_888)"/>
<defs>
<linearGradient id="paint0_linear_1655_888" x1="20.625" y1="100" x2="108.331" y2="72.5509" gradientUnits="userSpaceOnUse">
<stop stop-color="#FE5000"/>
<stop offset="1" stop-color="#FCA92A"/>
</linearGradient>
<linearGradient id="paint1_linear_1655_888" x1="37.9824" y1="72.7272" x2="74.4808" y2="62.4467" gradientUnits="userSpaceOnUse">
<stop stop-color="#FE5000"/>
<stop offset="1" stop-color="#FCA92A"/>
</linearGradient>
</defs>
</svg>
