<svg width="100" height="100" viewBox="0 0 100 100" fill="none" xmlns="http://www.w3.org/2000/svg">
<circle cx="50" cy="50" r="49.5" stroke="url(#paint0_linear)"/>
<path d="M71.4236 46.984C70.7996 46.984 70.3836 47.4 70.3836 48.024V52.08V58.216V59.256C70.3836 60.4 69.4476 61.336 68.3036 61.336H66.2236C64.4556 61.336 63.2076 62.688 63.2076 64.352V66.432C63.2076 67.576 62.2716 68.512 61.1276 68.512H56.0316H30.5516C29.9276 68.512 29.5116 68.096 29.5116 67.472V47.92C29.5116 47.296 29.0956 46.88 28.4716 46.88C27.8476 46.88 27.4316 47.296 27.4316 47.92V67.368C27.4316 69.136 28.7836 70.384 30.4476 70.384H56.0316H61.1276H62.4796C63.8316 70.384 65.1836 69.864 66.0156 68.824L70.7996 64.04C71.7356 63.104 72.3596 61.752 72.3596 60.504V59.152V58.112V52.08V47.92C72.4636 47.296 72.0476 46.984 71.4236 46.984ZM65.1836 67.056C65.1836 66.848 65.2876 66.64 65.2876 66.328V64.248C65.2876 63.624 65.7036 63.208 66.3276 63.208H68.4076C68.6156 63.208 68.8236 63.208 69.1356 63.104L65.1836 67.056ZM69.4476 32.632H62.2716V30.552C62.2716 29.928 61.8556 29.512 61.2316 29.512C60.6076 29.512 60.1916 29.928 60.1916 30.552V32.632H39.8076V30.552C39.8076 29.928 39.3916 29.512 38.7676 29.512C38.1436 29.512 37.7276 29.928 37.7276 30.552V32.632H30.5516C28.7836 32.632 27.5356 33.984 27.5356 35.648V43.864C27.5356 44.488 27.9516 44.904 28.5756 44.904H71.5276C72.1516 44.904 72.5676 44.488 72.5676 43.864V35.648C72.4636 33.984 71.1116 32.632 69.4476 32.632ZM70.3836 42.824H29.6156V35.648C29.6156 35.024 30.0316 34.608 30.6556 34.608H37.8316V37C37.2076 37.312 36.7916 38.04 36.7916 38.768C36.7916 39.912 37.7276 40.848 38.8716 40.848C40.0156 40.848 40.9516 39.912 40.9516 38.768C40.9516 38.04 40.5356 37.312 39.9116 37V34.608H60.2956V37C59.6716 37.312 59.2556 38.04 59.2556 38.768C59.2556 39.912 60.1916 40.848 61.3356 40.848C62.4796 40.848 63.4156 39.912 63.4156 38.768C63.4156 38.04 62.9996 37.312 62.3756 37V34.608H69.5516C70.1756 34.608 70.5916 35.024 70.5916 35.648L70.3836 42.824ZM45.9436 53.016C47.0876 53.016 48.0236 52.08 48.0236 50.936C48.0236 49.792 47.0876 48.856 45.9436 48.856C44.7996 48.856 43.8636 49.792 43.8636 50.936C43.8636 52.184 44.7996 53.016 45.9436 53.016ZM54.0556 53.016C55.1996 53.016 56.1356 52.08 56.1356 50.936C56.1356 49.792 55.1996 48.856 54.0556 48.856C52.9116 48.856 51.9756 49.792 51.9756 50.936C52.0796 52.184 52.9116 53.016 54.0556 53.016ZM62.2716 53.016C63.4156 53.016 64.3516 52.08 64.3516 50.936C64.3516 49.792 63.4156 48.856 62.2716 48.856C61.1276 48.856 60.1916 49.792 60.1916 50.936C60.1916 52.184 61.1276 53.016 62.2716 53.016ZM37.7276 62.272C38.8716 62.272 39.8076 61.336 39.8076 60.192C39.8076 59.048 38.8716 58.112 37.7276 58.112C36.5836 58.112 35.6476 59.048 35.6476 60.192C35.6476 61.336 36.5836 62.272 37.7276 62.272ZM45.9436 62.272C47.0876 62.272 48.0236 61.336 48.0236 60.192C48.0236 59.048 47.0876 58.112 45.9436 58.112C44.7996 58.112 43.8636 59.048 43.8636 60.192C43.8636 61.336 44.7996 62.272 45.9436 62.272ZM54.0556 62.272C55.1996 62.272 56.1356 61.336 56.1356 60.192C56.1356 59.048 55.1996 58.112 54.0556 58.112C52.9116 58.112 51.9756 59.048 51.9756 60.192C51.9756 61.336 52.9116 62.272 54.0556 62.272Z" fill="url(#paint1_linear)"/>
<defs>
<linearGradient id="paint0_linear" x1="20.625" y1="100" x2="108.331" y2="72.5509" gradientUnits="userSpaceOnUse">
<stop stop-color="#FE5000"/>
<stop offset="1" stop-color="#FCA92A"/>
</linearGradient>
<linearGradient id="paint1_linear" x1="36.7409" y1="70.384" x2="75.5675" y2="56.9649" gradientUnits="userSpaceOnUse">
<stop stop-color="#FE5000"/>
<stop offset="1" stop-color="#FCA92A"/>
</linearGradient>
</defs>
</svg>
