<svg width="66" height="66" viewBox="0 0 66 66" fill="none" xmlns="http://www.w3.org/2000/svg">
<path fill-rule="evenodd" clip-rule="evenodd" d="M53.9978 13.5236C53.9973 13.51 53.9968 13.4963 53.9959 13.4826C53.992 13.4285 53.9866 13.3752 53.9759 13.3225C53.9759 13.3225 53.9759 13.3225 53.9759 13.322C53.9651 13.2693 53.95 13.2171 53.9329 13.1663C53.9285 13.1536 53.9241 13.1409 53.9192 13.1282C53.9012 13.0799 53.8807 13.0326 53.8572 12.9867C53.8558 12.9842 53.8548 12.9818 53.8533 12.9793C53.8279 12.9315 53.7987 12.8861 53.7669 12.8417C53.7591 12.8305 53.7508 12.8197 53.7425 12.8085C53.7088 12.7645 53.6737 12.7221 53.6341 12.6825L42.3253 1.37369C42.2858 1.33415 42.2433 1.299 42.1994 1.26532C42.1881 1.25702 42.1769 1.24823 42.1657 1.24042C42.1212 1.20869 42.0763 1.1794 42.029 1.15451C42.0256 1.15255 42.0222 1.15158 42.0192 1.14962C41.9743 1.12619 41.9274 1.10618 41.8801 1.08812C41.8669 1.08323 41.8542 1.07884 41.8406 1.07445C41.7898 1.05736 41.7385 1.04223 41.6853 1.03149C41.6848 1.03149 41.6843 1.03149 41.6843 1.03149C41.6321 1.02124 41.5789 1.01538 41.5252 1.01147C41.5115 1.01099 41.4979 1.01001 41.4842 1.00952C41.47 1.00903 41.4559 1.00757 41.4417 1.00757H13.1276C12.4374 1.00757 11.8779 1.56701 11.8779 2.25727V55.7475C11.8779 56.4378 12.4374 56.9972 13.1276 56.9972H31.9425V63.7427C31.9425 64.1972 32.1895 64.616 32.5874 64.8362C32.9857 65.0564 33.4714 65.0432 33.8566 64.8015L38.6162 61.8154L43.3758 64.8015C43.5784 64.9285 43.8093 64.9924 44.0402 64.9924C44.2482 64.9924 44.4566 64.9407 44.6451 64.8367C45.0429 64.6165 45.2899 64.1977 45.2899 63.7427V56.9972H52.7501C53.4403 56.9972 53.9998 56.4378 53.9998 55.7475V13.5661C53.9998 13.552 53.9983 13.5378 53.9978 13.5236ZM42.6914 5.27462L49.7332 12.3164H42.6914V5.27462ZM31.326 39.6073C31.2381 39.3686 31.0951 38.9786 31.0916 38.8189C31.1893 38.6979 31.5281 38.4836 31.7355 38.3527C32.1807 38.0715 32.6855 37.7523 33.0516 37.2534C33.4212 36.7491 33.5715 36.1667 33.7043 35.6532C33.7624 35.4286 33.8561 35.0659 33.9362 34.9287C33.9801 34.9195 34.0724 34.9063 34.2457 34.9063C34.3848 34.9063 34.5405 34.9141 34.7055 34.9224C34.8949 34.9317 35.0902 34.9414 35.2943 34.9414C35.7443 34.9414 36.1075 34.8907 36.437 34.7808C37.0126 34.5895 37.4729 34.2189 37.8791 33.8919C38.1036 33.7112 38.4795 33.4086 38.6104 33.39C38.7534 33.4086 39.1288 33.7112 39.3533 33.8919C39.7595 34.2189 40.2203 34.5895 40.7959 34.7808C41.1254 34.8907 41.4881 34.9414 41.9387 34.9414C42.1422 34.9414 42.338 34.9317 42.5269 34.9224C42.6919 34.9141 42.8476 34.9063 42.9873 34.9063C43.1606 34.9063 43.2523 34.919 43.2967 34.9287C43.3768 35.0659 43.4705 35.4286 43.5281 35.6532C43.6609 36.1667 43.8118 36.7491 44.1813 37.2534C44.5469 37.7523 45.0517 38.0711 45.4974 38.3527C45.7044 38.484 46.0432 38.6979 46.1408 38.8189C46.1374 38.9786 45.9944 39.3686 45.907 39.6073C45.721 40.1135 45.5106 40.6876 45.5106 41.3237C45.5106 41.9598 45.721 42.5339 45.9065 43.0406C45.9944 43.2793 46.1374 43.6693 46.1408 43.829C46.0432 43.95 45.7044 44.1638 45.4974 44.2952C45.0517 44.5764 44.5469 44.8956 44.1813 45.3945C43.8118 45.8988 43.6609 46.4812 43.5281 46.9947C43.4705 47.2188 43.3763 47.582 43.2967 47.7192C43.2523 47.7284 43.1606 47.7416 42.9873 47.7416C42.8476 47.7416 42.6919 47.7338 42.5269 47.7255C42.338 47.7162 42.1422 47.7065 41.9387 47.7065C41.4881 47.7065 41.1254 47.7572 40.7959 47.8671C40.2203 48.0584 39.7595 48.4294 39.3533 48.756C39.1322 48.9347 38.7632 49.231 38.6162 49.2574C38.4693 49.231 38.1007 48.9347 37.8796 48.756C37.4729 48.4294 37.0126 48.0584 36.437 47.8671C36.1075 47.7572 35.7443 47.7065 35.2943 47.7065C35.0907 47.7065 34.8949 47.7162 34.7055 47.7255C34.541 47.7338 34.3853 47.7416 34.2457 47.7416C34.0724 47.7416 33.9806 47.7284 33.9362 47.7192C33.8561 47.582 33.7624 47.2193 33.7043 46.9947C33.572 46.4812 33.4212 45.8988 33.0516 45.3945C32.686 44.8956 32.1812 44.5764 31.7355 44.2952C31.5285 44.1643 31.1898 43.95 31.0921 43.829C31.0955 43.6698 31.2386 43.2793 31.326 43.0406C31.5119 42.5344 31.7223 41.9603 31.7223 41.3242C31.7223 40.6876 31.5115 40.1135 31.326 39.6073ZM42.7905 61.4835L39.2806 59.2814C38.8745 59.027 38.358 59.027 37.9518 59.2814L34.4419 61.4835V50.2371C34.5747 50.2332 34.705 50.2283 34.8315 50.222C34.997 50.2132 35.1532 50.2054 35.2943 50.2054C35.5159 50.2054 35.6106 50.2259 35.6472 50.2381C35.7961 50.2879 36.0822 50.5183 36.3121 50.7033C36.8954 51.1729 37.6213 51.7573 38.6162 51.7573C39.6111 51.7573 40.337 51.1729 40.9204 50.7033C41.1503 50.5183 41.4364 50.2879 41.5848 50.2386C41.6219 50.2264 41.7166 50.2059 41.9382 50.2059C42.0793 50.2059 42.2355 50.2137 42.401 50.222C42.5274 50.2283 42.6577 50.2337 42.79 50.2371V61.4835H42.7905ZM45.2899 54.4978V49.23C45.6614 48.7253 45.8167 48.1278 45.948 47.6201C46.0168 47.3535 46.111 46.9889 46.1969 46.8722C46.2824 46.755 46.6002 46.5544 46.832 46.4079C47.4471 46.0194 48.2126 45.5356 48.5167 44.6208C48.8174 43.7182 48.5045 42.8653 48.2531 42.1799C48.1389 41.869 48.0095 41.516 48.0095 41.3237C48.0095 41.1314 48.1389 40.7789 48.2531 40.4679C48.5045 39.7826 48.8174 38.9292 48.5167 38.0266C48.2126 37.1123 47.4471 36.6285 46.832 36.2399C46.6002 36.0935 46.2824 35.8924 46.1969 35.7762C46.111 35.659 46.0168 35.2944 45.948 35.0278C45.7683 34.3322 45.5448 33.4662 44.7793 32.9048C44.1701 32.4586 43.4647 32.4069 42.9868 32.4069C42.7847 32.4069 42.5894 32.4166 42.401 32.4264C42.2355 32.4347 42.0793 32.4425 41.9387 32.4425C41.7166 32.4425 41.6219 32.422 41.5852 32.4098C41.4368 32.3605 41.1508 32.1301 40.9208 31.9446C40.337 31.4754 39.6111 30.8911 38.6162 30.8911C37.6218 30.8911 36.8954 31.4754 36.3121 31.9446C36.0822 32.1296 35.7961 32.3605 35.6477 32.4098C35.6111 32.422 35.5159 32.4425 35.2943 32.4425C35.1537 32.4425 34.997 32.4347 34.8315 32.4259C34.643 32.4166 34.4483 32.4069 34.2457 32.4069C33.7682 32.4069 33.0628 32.4586 32.4541 32.9048C31.6882 33.4662 31.4641 34.3322 31.2845 35.0278C31.2156 35.2944 31.1214 35.659 31.036 35.7757C30.9501 35.8924 30.6323 36.0935 30.4004 36.2399C29.7853 36.6285 29.0203 37.1123 28.7157 38.0266C28.415 38.9297 28.7279 39.7826 28.9793 40.4679C29.0936 40.7789 29.2229 41.1314 29.2229 41.3237C29.2229 41.516 29.0936 41.869 28.9793 42.1799C28.7279 42.8653 28.415 43.7182 28.7157 44.6213C29.0203 45.5356 29.7858 46.0194 30.4004 46.4079C30.6328 46.5544 30.9501 46.7555 31.036 46.8722C31.1214 46.9889 31.2156 47.3535 31.2845 47.6201C31.4158 48.1278 31.5715 48.7258 31.943 49.23V54.4978H14.3773V3.50698H40.192V13.5661C40.192 14.2564 40.7515 14.8158 41.4417 14.8158H51.5004V54.4978H45.2899Z" fill="url(#paint0_linear)"/>
<path fill-rule="evenodd" clip-rule="evenodd" d="M19.2341 14.8158H35.3348C36.0246 14.8158 36.5845 14.2564 36.5845 13.5661C36.5845 12.8758 36.0246 12.3164 35.3348 12.3164H19.2341C18.5438 12.3164 17.9844 12.8758 17.9844 13.5661C17.9844 14.2564 18.5443 14.8158 19.2341 14.8158Z" fill="url(#paint1_linear)"/>
<path fill-rule="evenodd" clip-rule="evenodd" d="M46.7833 18.6245H19.2341C18.5438 18.6245 17.9844 19.184 17.9844 19.8742C17.9844 20.5645 18.5438 21.1239 19.2341 21.1239H46.7833C47.4735 21.1239 48.033 20.5645 48.033 19.8742C48.033 19.184 47.4735 18.6245 46.7833 18.6245Z" fill="url(#paint2_linear)"/>
<path fill-rule="evenodd" clip-rule="evenodd" d="M41.7844 24.9326H19.2341C18.5438 24.9326 17.9844 25.4925 17.9844 26.1823C17.9844 26.8726 18.5438 27.432 19.2341 27.432H41.7844C42.4747 27.432 43.0342 26.8726 43.0342 26.1823C43.0342 25.4925 42.4747 24.9326 41.7844 24.9326Z" fill="url(#paint3_linear)"/>
<path fill-rule="evenodd" clip-rule="evenodd" d="M46.7829 24.9326C46.0946 24.9326 45.5332 25.494 45.5332 26.1823C45.5332 26.8706 46.0946 27.432 46.7829 27.432C47.4717 27.432 48.0326 26.8706 48.0326 26.1823C48.0326 25.494 47.4717 24.9326 46.7829 24.9326Z" fill="url(#paint4_linear)"/>
<defs>
<linearGradient id="paint0_linear" x1="20.5656" y1="64.9925" x2="59.4758" y2="56.9759" gradientUnits="userSpaceOnUse">
<stop stop-color="#FE5000"/>
<stop offset="1" stop-color="#FCA92A"/>
</linearGradient>
<linearGradient id="paint1_linear" x1="21.8207" y1="14.8158" x2="24.6087" y2="8.32244" gradientUnits="userSpaceOnUse">
<stop stop-color="#FE5000"/>
<stop offset="1" stop-color="#FCA92A"/>
</linearGradient>
<linearGradient id="paint2_linear" x1="24.1819" y1="21.1239" x2="26.091" y2="13.9409" gradientUnits="userSpaceOnUse">
<stop stop-color="#FE5000"/>
<stop offset="1" stop-color="#FCA92A"/>
</linearGradient>
<linearGradient id="paint3_linear" x1="23.1509" y1="27.432" x2="25.3765" y2="20.4512" gradientUnits="userSpaceOnUse">
<stop stop-color="#FE5000"/>
<stop offset="1" stop-color="#FCA92A"/>
</linearGradient>
<linearGradient id="paint4_linear" x1="46.0487" y1="27.432" x2="48.2408" y2="26.746" gradientUnits="userSpaceOnUse">
<stop stop-color="#FE5000"/>
<stop offset="1" stop-color="#FCA92A"/>
</linearGradient>
</defs>
</svg>
