<svg width="66" height="66" viewBox="0 0 66 66" fill="none" xmlns="http://www.w3.org/2000/svg">
<path d="M34.4925 5H18.1678C13.6667 5 10 8.66673 10 13.1678V52.8322C10 57.3223 13.6667 60.989 18.1678 60.989H20.4952C21.1429 60.989 21.6589 60.4621 21.6589 59.8253C21.6589 59.1776 21.1319 58.6616 20.4952 58.6616H18.1678C14.9512 58.6616 12.3384 56.0488 12.3384 52.8322V13.1678C12.3384 9.95119 14.9512 7.33837 18.1678 7.33837H34.4925C37.7091 7.33837 40.3219 9.95119 40.3219 13.1678V24.8377C40.3219 25.4854 40.8489 26.0014 41.4856 26.0014C42.1223 26.0014 42.6493 25.4744 42.6493 24.8377V13.1678C42.6603 8.66673 38.9935 5 34.4925 5ZM41.4966 14.3315H11.1637C10.527 14.3315 10 14.8585 10 15.4952C10 16.1319 10.527 16.6589 11.1637 16.6589H41.4856C42.1333 16.6589 42.6493 16.1319 42.6493 15.4952C42.6493 14.8585 42.1333 14.3315 41.4966 14.3315ZM30.9904 46.9918H11.1637C10.527 46.9918 10 47.5187 10 48.1555C10 48.8032 10.527 49.3192 11.1637 49.3192H30.9904C31.6381 49.3192 32.1541 48.7922 32.1541 48.1555C32.1651 47.5187 31.6381 46.9918 30.9904 46.9918ZM29.8267 9.66575H22.8226C22.1749 9.66575 21.6589 10.1927 21.6589 10.8294C21.6589 11.4662 22.1858 11.9931 22.8226 11.9931H29.8267C30.4744 11.9931 30.9904 11.4662 30.9904 10.8294C30.9904 10.1927 30.4744 9.66575 29.8267 9.66575ZM34.5473 9.66575H34.5254C33.8777 9.66575 33.3727 10.1927 33.3727 10.8294C33.3727 11.4662 33.9106 11.9931 34.5473 11.9931C35.1841 11.9931 35.711 11.4662 35.711 10.8294C35.711 10.1927 35.1841 9.66575 34.5473 9.66575ZM62.6516 35.8708L53.88 26.2319C52.1455 24.4974 49.3131 24.4974 47.5675 26.2429C47.0076 26.8028 46.6344 27.4615 46.4368 28.1751C44.6912 26.8357 42.1772 26.9675 40.5634 28.5813C40.0145 29.1411 39.6303 29.7998 39.4327 30.5134C37.6871 29.1741 35.1731 29.3058 33.5703 30.9196C33.0214 31.4685 32.6481 32.1163 32.4505 32.7969L28.3117 28.6581C26.5771 26.9235 23.7448 26.9235 21.9992 28.6691C20.2647 30.4036 20.2647 33.236 21.9992 34.9706L37.8847 50.8671L28.4654 52.3491C25.9184 52.7114 23.9973 54.929 23.9973 57.4979C23.9973 59.4301 25.5671 61 27.4993 61H49.4997C52.9249 61 56.1525 59.6607 58.5677 57.2454L62.2345 53.5787C64.6607 51.1635 65.989 47.9359 65.989 44.5217C65.989 41.305 64.8034 38.2421 62.6516 35.8708ZM60.5877 51.91L56.921 55.5768C54.9339 57.5638 52.2992 58.6507 49.4997 58.6507H27.4993C26.8516 58.6507 26.3356 58.1237 26.3356 57.487C26.3356 56.0708 27.3895 54.8522 28.8167 54.6436L40.5195 52.8102C40.9586 52.7444 41.3099 52.437 41.4527 52.0198C41.5844 51.6026 41.4746 51.1415 41.1672 50.8342L23.646 33.3239C22.8226 32.5005 22.8226 31.1502 23.6569 30.3048C24.0741 29.8877 24.612 29.6791 25.1609 29.6791C25.7099 29.6791 26.2478 29.8877 26.665 30.3048L38.3348 41.9747C38.7849 42.4248 39.5315 42.4248 39.9816 41.9747C40.2121 41.7442 40.3219 41.4478 40.3219 41.1513C40.3219 40.8549 40.2121 40.5585 39.9816 40.328L35.217 35.5634C34.3936 34.7401 34.3936 33.3897 35.228 32.5444C36.0514 31.721 37.4017 31.721 38.2251 32.5444L42.9896 37.309C43.4397 37.7591 44.1862 37.7591 44.6363 37.309C44.8669 37.0784 44.9767 36.782 44.9767 36.4856C44.9767 36.1892 44.8669 35.8928 44.6473 35.6732L42.2102 33.236C41.3868 32.4127 41.3868 31.0623 42.2211 30.217C43.0445 29.3936 44.3948 29.3936 45.2182 30.217L47.6554 32.6542C48.1164 33.0823 48.83 33.0823 49.2801 32.6322C49.7302 32.1821 49.7302 31.4356 49.2801 30.9855L49.1813 30.8867C48.7751 30.4805 48.5556 29.9535 48.5556 29.3827C48.5556 28.8118 48.7751 28.2848 49.1923 27.8677C50.0157 27.0443 51.366 27.0443 52.1564 27.8238L60.8951 37.4187C62.6516 39.3509 63.6177 41.854 63.6177 44.4777C63.6616 47.2992 62.5638 49.9339 60.5877 51.91Z" fill="url(#paint0_linear)"/>
<defs>
<linearGradient id="paint0_linear" x1="21.5477" y1="61" x2="70.6552" y2="45.634" gradientUnits="userSpaceOnUse">
<stop stop-color="#FE5000"/>
<stop offset="1" stop-color="#FCA92A"/>
</linearGradient>
</defs>
</svg>
