<svg width="66" height="66" viewBox="0 0 66 66" fill="none" xmlns="http://www.w3.org/2000/svg">
<path d="M51.9665 60.2728H25.1896C22.0657 60.2728 19.6111 57.7727 19.6111 54.5909V20.5C19.6111 17.3182 22.0657 14.8182 25.1896 14.8182H51.9665C55.0905 14.8182 57.545 17.3182 57.545 20.5V54.5909C57.545 57.7727 55.0905 60.2728 51.9665 60.2728ZM25.1896 17.0909C23.2929 17.0909 21.8425 18.5682 21.8425 20.5V54.5909C21.8425 56.5228 23.2929 58 25.1896 58H51.9665C53.8632 58 55.3136 56.5228 55.3136 54.5909V20.5C55.3136 18.5682 53.8632 17.0909 51.9665 17.0909H25.1896ZM16.264 53.4546H14.0326C10.9086 53.4546 8.4541 50.9546 8.4541 47.7728V11.4091C8.4541 8.22729 10.9086 5.72729 14.0326 5.72729H40.8095C43.9334 5.72729 46.388 8.22729 46.388 11.4091C46.388 12.0909 45.9417 12.5455 45.2723 12.5455C44.6029 12.5455 44.1566 12.0909 44.1566 11.4091C44.1566 9.47729 42.7062 8.00002 40.8095 8.00002H14.0326C12.1359 8.00002 10.6855 9.47729 10.6855 11.4091V47.7728C10.6855 49.7046 12.1359 51.1818 14.0326 51.1818H16.264C16.9334 51.1818 17.3797 51.6364 17.3797 52.3182C17.3797 53 16.9334 53.4546 16.264 53.4546ZM47.5037 44.3637H29.6524C28.983 44.3637 28.5367 43.9091 28.5367 43.2273C28.5367 42.5455 28.983 42.0909 29.6524 42.0909H47.5037C48.1731 42.0909 48.6194 42.5455 48.6194 43.2273C48.6194 43.9091 48.1731 44.3637 47.5037 44.3637ZM47.5037 53.4546H29.6524C28.983 53.4546 28.5367 53 28.5367 52.3182C28.5367 51.6364 28.983 51.1818 29.6524 51.1818H47.5037C48.1731 51.1818 48.6194 51.6364 48.6194 52.3182C48.6194 53 48.1731 53.4546 47.5037 53.4546ZM47.5037 35.2727H29.6524C28.983 35.2727 28.5367 34.8182 28.5367 34.1364C28.5367 33.4546 28.983 33 29.6524 33H47.5037C48.1731 33 48.6194 33.4546 48.6194 34.1364C48.6194 34.8182 48.1731 35.2727 47.5037 35.2727ZM47.5037 26.1818H29.6524C28.983 26.1818 28.5367 25.7273 28.5367 25.0455C28.5367 24.3637 28.983 23.9091 29.6524 23.9091H47.5037C48.1731 23.9091 48.6194 24.3637 48.6194 25.0455C48.6194 25.7273 48.1731 26.1818 47.5037 26.1818Z" fill="url(#paint0_linear)"/>
<defs>
<linearGradient id="paint0_linear" x1="18.5791" y1="60.2727" x2="62.3772" y2="47.9361" gradientUnits="userSpaceOnUse">
<stop stop-color="#FE5000"/>
<stop offset="1" stop-color="#FCA92A"/>
</linearGradient>
</defs>
</svg>
