<svg width="56" height="56" viewBox="0 0 56 56" fill="none" xmlns="http://www.w3.org/2000/svg">
<path d="M51.0713 24.752C50.3993 24.752 49.9513 25.2 49.9513 25.872V30.24V36.848V37.968C49.9513 39.2 48.9433 40.208 47.7113 40.208H45.4713C43.5673 40.208 42.2233 41.664 42.2233 43.456V45.696C42.2233 46.928 41.2153 47.936 39.9833 47.936H34.4953H7.05531C6.38331 47.936 5.93531 47.488 5.93531 46.816V25.76C5.93531 25.088 5.48731 24.64 4.81531 24.64C4.14331 24.64 3.69531 25.088 3.69531 25.76V46.704C3.69531 48.608 5.15131 49.952 6.94331 49.952H34.4953H39.9833H41.4393C42.8953 49.952 44.3513 49.392 45.2473 48.272L50.3993 43.12C51.4073 42.112 52.0793 40.656 52.0793 39.312V37.856V36.736V30.24V25.76C52.1913 25.088 51.7433 24.752 51.0713 24.752ZM44.3513 46.368C44.3513 46.144 44.4633 45.92 44.4633 45.584V43.344C44.4633 42.672 44.9113 42.224 45.5833 42.224H47.8233C48.0473 42.224 48.2713 42.224 48.6073 42.112L44.3513 46.368ZM48.9433 9.29604H41.2153V7.05604C41.2153 6.38404 40.7673 5.93604 40.0953 5.93604C39.4233 5.93604 38.9753 6.38404 38.9753 7.05604V9.29604H17.0233V7.05604C17.0233 6.38404 16.5753 5.93604 15.9033 5.93604C15.2313 5.93604 14.7833 6.38404 14.7833 7.05604V9.29604H7.05531C5.15131 9.29604 3.80731 10.752 3.80731 12.544V21.392C3.80731 22.064 4.25531 22.512 4.92731 22.512H51.1833C51.8553 22.512 52.3033 22.064 52.3033 21.392V12.544C52.1913 10.752 50.7353 9.29604 48.9433 9.29604ZM49.9513 20.272H6.04731V12.544C6.04731 11.872 6.49531 11.424 7.16731 11.424H14.8953V14C14.2233 14.336 13.7753 15.12 13.7753 15.904C13.7753 17.136 14.7833 18.144 16.0153 18.144C17.2473 18.144 18.2553 17.136 18.2553 15.904C18.2553 15.12 17.8073 14.336 17.1353 14V11.424H39.0873V14C38.4153 14.336 37.9673 15.12 37.9673 15.904C37.9673 17.136 38.9753 18.144 40.2073 18.144C41.4393 18.144 42.4473 17.136 42.4473 15.904C42.4473 15.12 41.9993 14.336 41.3273 14V11.424H49.0553C49.7273 11.424 50.1753 11.872 50.1753 12.544L49.9513 20.272ZM23.6313 31.248C24.8633 31.248 25.8713 30.24 25.8713 29.008C25.8713 27.776 24.8633 26.768 23.6313 26.768C22.3993 26.768 21.3913 27.776 21.3913 29.008C21.3913 30.352 22.3993 31.248 23.6313 31.248ZM32.3673 31.248C33.5993 31.248 34.6073 30.24 34.6073 29.008C34.6073 27.776 33.5993 26.768 32.3673 26.768C31.1353 26.768 30.1273 27.776 30.1273 29.008C30.2393 30.352 31.1353 31.248 32.3673 31.248ZM41.2153 31.248C42.4473 31.248 43.4553 30.24 43.4553 29.008C43.4553 27.776 42.4473 26.768 41.2153 26.768C39.9833 26.768 38.9753 27.776 38.9753 29.008C38.9753 30.352 39.9833 31.248 41.2153 31.248ZM14.7833 41.216C16.0153 41.216 17.0233 40.208 17.0233 38.976C17.0233 37.744 16.0153 36.736 14.7833 36.736C13.5513 36.736 12.5433 37.744 12.5433 38.976C12.5433 40.208 13.5513 41.216 14.7833 41.216ZM23.6313 41.216C24.8633 41.216 25.8713 40.208 25.8713 38.976C25.8713 37.744 24.8633 36.736 23.6313 36.736C22.3993 36.736 21.3913 37.744 21.3913 38.976C21.3913 40.208 22.3993 41.216 23.6313 41.216ZM32.3673 41.216C33.5993 41.216 34.6073 40.208 34.6073 38.976C34.6073 37.744 33.5993 36.736 32.3673 36.736C31.1353 36.736 30.1273 37.744 30.1273 38.976C30.1273 40.208 31.1353 41.216 32.3673 41.216Z" fill="url(#paint0_linear_1655_943)"/>
<defs>
<linearGradient id="paint0_linear_1655_943" x1="13.7207" y1="49.952" x2="55.534" y2="35.5007" gradientUnits="userSpaceOnUse">
<stop stop-color="#FE5000"/>
<stop offset="1" stop-color="#FCA92A"/>
</linearGradient>
</defs>
</svg>
