<svg width="56" height="56" viewBox="0 0 56 56" fill="none" xmlns="http://www.w3.org/2000/svg">
<path fill-rule="evenodd" clip-rule="evenodd" d="M15.9872 5.70752C15.9872 5.15523 15.5395 4.70752 14.9872 4.70752C14.4349 4.70752 13.9872 5.15523 13.9872 5.70752V7.07719H11.084C8.32256 7.07719 6.08398 9.31577 6.08398 12.0772V45.9089C6.08398 48.6703 8.32256 50.9089 11.084 50.9089H44.9157C47.6771 50.9089 49.9157 48.6703 49.9157 45.9089V12.0772C49.9157 9.31577 47.6771 7.07719 44.9157 7.07719H41.3276V5.70752C41.3276 5.15523 40.8799 4.70752 40.3276 4.70752C39.7754 4.70752 39.3276 5.15523 39.3276 5.70752V7.07719H15.9872V5.70752ZM39.3276 12.5562V9.07719H15.9872V12.5562C15.9872 13.1085 15.5395 13.5562 14.9872 13.5562C14.4349 13.5562 13.9872 13.1085 13.9872 12.5562V9.07719H11.084C9.42713 9.07719 8.08398 10.4203 8.08398 12.0772V16.3503H47.9157V12.0772C47.9157 10.4203 46.5725 9.07719 44.9157 9.07719H41.3276V12.5562C41.3276 13.1085 40.8799 13.5562 40.3276 13.5562C39.7754 13.5562 39.3276 13.1085 39.3276 12.5562ZM8.08398 45.9089V18.3503H47.9157V45.9089C47.9157 47.5657 46.5725 48.9089 44.9157 48.9089H11.084C9.42713 48.9089 8.08398 47.5657 8.08398 45.9089ZM37.7072 26.1637C38.0357 25.7197 37.9421 25.0935 37.4981 24.765C37.0542 24.4365 36.428 24.5301 36.0995 24.9741L26.0857 38.5077L21.1039 34.3865C20.6783 34.0345 20.048 34.0941 19.6959 34.5196C19.3439 34.9452 19.4035 35.5755 19.8291 35.9276L25.6242 40.7217C25.8358 40.8967 26.1101 40.977 26.3827 40.9438C26.6552 40.9105 26.9022 40.7667 27.0655 40.5459L37.7072 26.1637Z" fill="url(#paint0_linear_1655_954)"/>
<defs>
<linearGradient id="paint0_linear_1655_954" x1="15.1243" y1="50.9089" x2="53.9131" y2="39.3919" gradientUnits="userSpaceOnUse">
<stop stop-color="#FE5000"/>
<stop offset="1" stop-color="#FCA92A"/>
</linearGradient>
</defs>
</svg>
