<svg width="56" height="56" viewBox="0 0 56 56" fill="none" xmlns="http://www.w3.org/2000/svg">
<path d="M29.3782 11.9112V7.91146H32.1059C33.9284 7.91146 33.9301 5.09082 32.1059 5.09082H23.8924C22.0698 5.09082 22.0681 7.91146 23.8924 7.91146H26.6201V11.9112C16.7334 12.6362 8.9082 21.0929 8.9082 31.3851C8.9082 42.1503 17.4717 50.909 27.9993 50.909C38.5265 50.909 47.09 42.1503 47.09 31.3851C47.09 21.0929 39.2648 12.6362 29.3782 11.9112ZM27.9993 48.0884C18.9935 48.0884 11.6663 40.5951 11.6663 31.3851C11.6663 22.1744 18.9935 14.6811 27.9993 14.6811C37.0051 14.6811 44.3319 22.1744 44.3319 31.3851C44.3319 40.5951 37.0051 48.0884 27.9993 48.0884Z" fill="url(#paint0_linear_1655_948)"/>
<path d="M34.4842 22.1328L27.0874 30.7799C25.8808 32.1914 27.9908 33.965 29.1566 32.6024L36.5534 23.9556C37.7389 22.5686 35.6731 20.7437 34.4842 22.1328Z" fill="url(#paint1_linear_1655_948)"/>
<defs>
<linearGradient id="paint0_linear_1655_948" x1="16.7832" y1="50.909" x2="51.2094" y2="41.9305" gradientUnits="userSpaceOnUse">
<stop stop-color="#FE5000"/>
<stop offset="1" stop-color="#FCA92A"/>
</linearGradient>
<linearGradient id="paint1_linear_1655_948" x1="28.8266" y1="33.091" x2="37.927" y2="30.5593" gradientUnits="userSpaceOnUse">
<stop stop-color="#FE5000"/>
<stop offset="1" stop-color="#FCA92A"/>
</linearGradient>
</defs>
</svg>
