<svg width="56" height="56" viewBox="0 0 56 56" fill="none" xmlns="http://www.w3.org/2000/svg">
<path d="M45.7034 53.4545H20.7116C17.7959 53.4545 15.505 51.1212 15.505 48.1515V16.3333C15.505 13.3636 17.7959 11.0303 20.7116 11.0303H45.7034C48.6191 11.0303 50.91 13.3636 50.91 16.3333V48.1515C50.91 51.1212 48.6191 53.4545 45.7034 53.4545ZM20.7116 13.1515C18.9414 13.1515 17.5877 14.5303 17.5877 16.3333V48.1515C17.5877 49.9545 18.9414 51.3333 20.7116 51.3333H45.7034C47.4736 51.3333 48.8273 49.9545 48.8273 48.1515V16.3333C48.8273 14.5303 47.4736 13.1515 45.7034 13.1515H20.7116ZM12.3811 47.0909H10.2984C7.38271 47.0909 5.0918 44.7575 5.0918 41.7878V7.84844C5.0918 4.87874 7.38271 2.54541 10.2984 2.54541H35.2901C38.2058 2.54541 40.4968 4.87874 40.4968 7.84844C40.4968 8.4848 40.0802 8.90905 39.4554 8.90905C38.8306 8.90905 38.4141 8.4848 38.4141 7.84844C38.4141 6.04541 37.0604 4.66662 35.2901 4.66662H10.2984C8.52816 4.66662 7.17444 6.04541 7.17444 7.84844V41.7878C7.17444 43.5909 8.52816 44.9697 10.2984 44.9697H12.3811C13.0058 44.9697 13.4224 45.3939 13.4224 46.0303C13.4224 46.6666 13.0058 47.0909 12.3811 47.0909ZM41.5381 38.606H24.8769C24.2521 38.606 23.8356 38.1818 23.8356 37.5454C23.8356 36.909 24.2521 36.4848 24.8769 36.4848H41.5381C42.1629 36.4848 42.5794 36.909 42.5794 37.5454C42.5794 38.1818 42.1629 38.606 41.5381 38.606ZM41.5381 47.0909H24.8769C24.2521 47.0909 23.8356 46.6666 23.8356 46.0303C23.8356 45.3939 24.2521 44.9697 24.8769 44.9697H41.5381C42.1629 44.9697 42.5794 45.3939 42.5794 46.0303C42.5794 46.6666 42.1629 47.0909 41.5381 47.0909ZM41.5381 30.1212H24.8769C24.2521 30.1212 23.8356 29.6969 23.8356 29.0606C23.8356 28.4242 24.2521 28 24.8769 28H41.5381C42.1629 28 42.5794 28.4242 42.5794 29.0606C42.5794 29.6969 42.1629 30.1212 41.5381 30.1212ZM41.5381 21.6363H24.8769C24.2521 21.6363 23.8356 21.2121 23.8356 20.5757C23.8356 19.9393 24.2521 19.5151 24.8769 19.5151H41.5381C42.1629 19.5151 42.5794 19.9393 42.5794 20.5757C42.5794 21.2121 42.1629 21.6363 41.5381 21.6363Z" fill="url(#paint0_linear_1655_1000)"/>
<defs>
<linearGradient id="paint0_linear_1655_1000" x1="14.5418" y1="53.4545" x2="55.42" y2="41.9403" gradientUnits="userSpaceOnUse">
<stop stop-color="#FE5000"/>
<stop offset="1" stop-color="#FCA92A"/>
</linearGradient>
</defs>
</svg>
