<svg width="56" height="56" viewBox="0 0 56 56" fill="none" xmlns="http://www.w3.org/2000/svg">
<path fill-rule="evenodd" clip-rule="evenodd" d="M17.414 16.6791C17.414 16.3617 17.4235 16.05 17.4423 15.7443C17.8455 9.1746 22.5068 5.32275 28.23 5.32275C34.2196 5.32275 38.9236 9.54145 38.9236 16.6791C38.9236 23.8167 34.2196 31.1703 28.23 31.1703C22.5018 31.1703 17.8373 24.4443 17.4412 17.6138C17.4232 17.3022 17.414 16.9904 17.414 16.6791ZM22.0959 25.5128C20.5365 23.3351 19.5032 20.4854 19.3146 17.6191C21.1654 17.6143 23.4503 17.5485 25.5529 17.1356C27.925 16.6697 30.3775 15.6981 31.5839 13.5944C32.108 14.053 32.7483 14.5251 33.4629 14.8958C34.4688 15.4177 35.7164 15.7815 37.0053 15.5172C37.0375 15.8915 37.0541 16.2788 37.0541 16.6791C37.0541 19.8652 35.9956 23.1113 34.2948 25.5242C32.5819 27.9543 30.4109 29.3008 28.23 29.3008C26.0431 29.3008 23.8394 27.9476 22.0959 25.5128ZM34.4934 9.63866C35.4895 10.6462 36.2723 11.9888 36.6984 13.6686C35.9402 13.8459 35.1339 13.6566 34.3238 13.2363C33.2867 12.6983 32.4065 11.8559 31.9636 11.3304C31.7371 11.0617 31.379 10.9427 31.0368 11.0224C30.6945 11.1021 30.4259 11.3671 30.3414 11.7082C29.852 13.6856 27.9278 14.7639 25.1927 15.3011C23.2489 15.6828 21.1239 15.7441 19.3154 15.7489C19.502 13.0795 20.4912 11.0468 21.895 9.64911C23.4656 8.08528 25.679 7.19228 28.23 7.19228C30.7786 7.19228 32.9557 8.08322 34.4934 9.63866ZM34.7473 32.8533C35.9787 31.37 37.3556 31.0093 38.2172 31.2535C42.4041 32.1876 44.8884 35.4284 46.3849 38.5632C47.6077 41.1245 48.243 43.7794 48.6003 45.2729L48.6004 45.2732C48.6803 45.6069 48.7462 45.8826 48.8018 46.0863C48.9694 46.7008 48.9816 47.2782 48.8205 47.7997C48.6581 48.3257 48.3421 48.721 47.9782 49.0024C47.2865 49.5373 46.4069 49.6804 45.8376 49.6804H10.6894C9.30751 49.6804 8.24528 49.3466 7.61566 48.5691C6.98985 47.7963 7.00929 46.8519 7.13767 46.1614C9.49178 33.4983 15.8633 31.2243 17.7415 31.2243L17.8089 31.2242C18.2686 31.2236 18.761 31.223 19.3025 31.4701C19.8146 31.7038 20.3198 32.1341 21.0004 32.7647C22.3589 34.0231 24.1018 34.4294 26.0206 34.55C26.8132 34.5998 27.609 34.5998 28.4078 34.5998H28.4188C29.1869 34.5998 29.9658 34.5641 30.7127 34.4755C32.5755 34.2546 34.0196 33.7299 34.7473 32.8533ZM36.1858 34.0475C36.9872 33.0821 37.5903 33.0593 37.6938 33.0554C37.7119 33.0547 37.7147 33.0546 37.7004 33.0501C37.7274 33.0587 37.7548 33.066 37.7825 33.0721C41.1665 33.8154 43.3023 36.4455 44.6978 39.3686C45.8221 41.7236 46.3958 44.1084 46.7615 45.6288C46.8512 46.0017 46.9284 46.3225 46.9981 46.5782C47.0938 46.9291 47.0688 47.1361 47.0342 47.2481C47.001 47.3556 46.9386 47.443 46.8344 47.5235C46.5899 47.7126 46.1751 47.8109 45.8376 47.8108H33.6498L31.7942 40.1758L32.9306 39.3739C33.3056 39.1093 33.4331 38.6116 33.2313 38.1993L32.2162 36.1246C33.7535 35.8021 35.236 35.1916 36.1858 34.0475ZM30.1519 41.3346L31.7258 47.8108H24.8849L26.5429 41.2879L27.901 42.1917C28.2224 42.4056 28.6423 42.3998 28.9578 42.1772L30.1519 41.3346ZM24.8929 40.19L22.9559 47.8108H10.6894C9.5412 47.8108 9.17751 47.5271 9.06852 47.3926C8.95572 47.2533 8.88498 46.9911 8.9757 46.5031C11.2262 34.3975 17.0607 33.0938 17.7415 33.0938C18.2862 33.0938 18.3869 33.1073 18.5264 33.1709C18.7217 33.26 19.0166 33.4753 19.7299 34.1361C21.1394 35.4419 22.8096 36.0114 24.4515 36.2638L23.391 38.1525C23.1516 38.5788 23.2812 39.1175 23.6882 39.3884L24.8929 40.19ZM25.4455 38.3121L26.4938 36.4451C27.1434 36.4694 27.7817 36.4693 28.3825 36.4693H28.3826H28.4188C29.0251 36.4693 29.6483 36.4486 30.2687 36.3981L31.202 38.3056L28.4033 40.2803L25.4455 38.3121Z" fill="url(#paint0_linear_6060_2354)"/>
<defs>
<linearGradient id="paint0_linear_6060_2354" x1="15.701" y1="49.6804" x2="52.7836" y2="38.7258" gradientUnits="userSpaceOnUse">
<stop stop-color="#FE5000"/>
<stop offset="1" stop-color="#FCA92A"/>
</linearGradient>
</defs>
</svg>
