<svg width="56" height="56" viewBox="0 0 56 56" fill="none" xmlns="http://www.w3.org/2000/svg">
<path d="M44.1634 15.4001L46.8361 12.7274L43.2725 9.16372L40.2179 12.2183C36.9089 10.1819 32.9634 8.90918 28.8907 8.78191V7.00009H33.9816V4.45463C33.9816 3.05463 32.8361 1.90918 31.4361 1.90918H24.6907C23.2907 1.90918 22.1452 3.05463 22.1452 4.45463V7.00009H27.2361V8.65463C23.0361 8.90918 19.0907 10.1819 15.7816 12.2183L12.727 9.16372L9.1634 12.7274L11.8361 15.4001C7.7634 19.4728 5.34521 25.0728 5.34521 31.3092C5.34521 43.7819 15.527 53.9637 27.9998 53.9637C40.4725 53.9637 50.6543 43.7819 50.6543 31.3092C50.6543 25.2001 48.1089 19.6001 44.1634 15.4001ZM43.2725 11.5819L44.4179 12.7274L42.8907 14.2546C42.5089 13.8728 41.9998 13.491 41.6179 13.2365L43.2725 11.5819ZM23.7998 5.34554V4.45463C23.7998 3.94554 24.1816 3.56373 24.6907 3.56373H31.4361C31.9452 3.56373 32.327 3.94554 32.327 4.45463V5.34554H23.7998ZM11.5816 12.7274L12.727 11.5819L14.3816 13.2365C13.8725 13.6183 13.4907 13.8728 13.1089 14.2546L11.5816 12.7274ZM27.9998 52.3092C16.4179 52.3092 6.99976 42.891 6.99976 31.3092C6.99976 19.7274 16.4179 10.4365 27.9998 10.4365C39.5816 10.4365 48.9998 19.8546 48.9998 31.4365C48.9998 42.891 39.5816 52.3092 27.9998 52.3092ZM27.9998 13.7455C18.327 13.7455 10.4361 21.6365 10.4361 31.3092C10.4361 40.9819 18.327 48.8728 27.9998 48.8728C37.6725 48.8728 45.5634 40.9819 45.5634 31.3092C45.5634 21.6365 37.6725 13.7455 27.9998 13.7455ZM28.8907 47.2183V45.5637H27.2361V47.2183C19.0907 46.8364 12.5998 40.3455 12.0907 32.2001H13.7452V30.5455H12.0907C12.4725 22.4001 19.0907 15.9092 27.1088 15.5274V17.1819H28.7634V15.5274C36.9089 15.9092 43.527 22.4001 43.9088 30.5455H42.2543V32.2001H43.9088C43.527 40.3455 36.9089 46.8364 28.8907 47.2183ZM27.9998 28.0001C26.0907 28.0001 24.6907 29.5274 24.6907 31.3092C24.6907 33.2183 26.2179 34.6183 27.9998 34.6183C29.9088 34.6183 31.3089 33.091 31.3089 31.3092C31.3089 29.5274 29.9088 28.0001 27.9998 28.0001ZM27.9998 33.091C27.1088 33.091 26.3452 32.3274 26.3452 31.4365C26.3452 30.5455 27.1088 29.7819 27.9998 29.7819C28.8907 29.7819 29.6543 30.5455 29.6543 31.4365C29.6543 32.3274 28.8907 33.091 27.9998 33.091ZM28.8907 19.6001H27.2361V27.1092H28.8907V19.6001ZM23.7998 30.5455H18.7089V32.2001H23.7998V30.5455Z" fill="url(#paint0_linear_6060_2360)"/>
<defs>
<linearGradient id="paint0_linear_6060_2360" x1="14.6902" y1="53.9637" x2="55.3073" y2="42.8992" gradientUnits="userSpaceOnUse">
<stop stop-color="#FE5000"/>
<stop offset="1" stop-color="#FCA92A"/>
</linearGradient>
</defs>
</svg>
