<svg width="56" height="56" viewBox="0 0 56 56" fill="none" xmlns="http://www.w3.org/2000/svg">
<path d="M31.6355 16.5631V13.449C31.6355 7.47077 7.99854 7.47077 7.99854 13.449V31.6631C7.99854 34.0132 11.6773 35.4783 16.1029 35.9991C14.4842 36.7251 13.4532 37.7057 13.4532 38.9487V44.413C13.4532 47.4021 19.3989 48.9664 25.2718 48.9664C31.1447 48.9664 37.0903 47.4021 37.0903 44.413V41.6658C42.6519 41.5129 47.9997 39.9622 47.9997 37.1274V20.7347C47.9996 16.9606 38.5821 15.5719 31.6355 16.5631ZM19.8171 10.7836C26.2875 10.7836 29.8173 12.5849 29.8173 13.5109C29.8173 14.4369 26.2874 16.2383 19.8171 16.2383C13.3468 16.2383 9.81682 14.4369 9.81682 13.5109C9.81674 12.585 13.3467 10.7836 19.8171 10.7836ZM9.81674 16.0408C12.0227 17.3685 15.9303 18.0565 19.817 18.0565C23.7037 18.0565 27.6113 17.3685 29.8173 16.0408V16.9442C26.6579 17.6449 24.3626 18.9244 24.3626 20.7839V21.3218C22.9378 21.5504 21.3999 21.693 19.8171 21.693C13.3467 21.693 9.81682 19.8916 9.81682 18.9656V16.0408H9.81674ZM26.1808 34.2231C26.3538 34.3271 26.5339 34.4283 26.7271 34.5244C26.5451 34.5169 26.3635 34.5094 26.1808 34.5047V34.2231ZM9.81674 21.4955C12.0227 22.8232 15.9303 23.5112 19.817 23.5112C21.3907 23.5112 22.9203 23.3699 24.3625 23.1545V27.6856C22.9378 27.9142 21.3998 28.0568 19.817 28.0568C13.3466 28.0568 9.81674 26.2555 9.81674 25.3294V21.4955ZM9.81674 31.6933V27.8593C12.0227 29.187 15.9303 29.8751 19.817 29.8751C21.3907 29.8751 22.9203 29.7338 24.3625 29.5183V34.0495C22.9378 34.2781 21.3998 34.4206 19.817 34.4206C13.3467 34.4206 9.81674 32.6192 9.81674 31.6933ZM35.272 44.4209C35.272 45.3469 31.7421 47.1482 25.2718 47.1482C18.8015 47.1482 15.2714 45.3469 15.2714 44.4209V41.496C17.4774 42.8237 21.385 43.5117 25.2717 43.5117C28.9921 43.5117 32.7367 42.8829 34.9854 41.6649C35.0798 41.6685 35.1771 41.6689 35.2719 41.6718V44.4209H35.272ZM25.2718 41.6935C18.8014 41.6935 15.2715 39.8922 15.2715 38.9662C15.2715 38.0402 18.8015 36.2388 25.2718 36.2388C31.7421 36.2388 35.272 38.0402 35.272 38.9662C35.272 39.8922 31.7421 41.6935 25.2718 41.6935ZM46.1814 37.148C46.1814 38.0279 42.9601 39.68 37.0902 39.8438V38.9662C37.0902 37.8303 36.2307 36.9122 34.8442 36.2088C35.2887 36.2267 35.7347 36.2388 36.1811 36.2388C40.0678 36.2388 43.9754 35.5508 46.1813 34.2231V37.148H46.1814ZM46.1814 31.6933C46.1814 32.6193 42.6515 34.4206 36.1812 34.4206C29.7109 34.4206 26.1809 32.6193 26.1809 31.6933V28.7684C28.3868 30.0961 32.2944 30.7841 36.1812 30.7841C40.0679 30.7841 43.9755 30.0961 46.1814 28.7684V31.6933ZM46.1814 26.2386C46.1814 27.1646 42.6515 28.9659 36.1812 28.9659C29.7109 28.9659 26.1809 27.1646 26.1809 26.2386V23.3137C28.3868 24.6414 32.2944 25.3294 36.1812 25.3294C40.0679 25.3294 43.9755 24.6414 46.1814 23.3137V26.2386ZM36.1812 23.5112C29.7108 23.5112 26.1809 21.7099 26.1809 20.7839C26.1809 19.8579 29.7109 18.0565 36.1812 18.0565C42.6515 18.0565 46.1814 19.8579 46.1814 20.7839C46.1814 21.7099 42.6515 23.5112 36.1812 23.5112Z" fill="url(#paint0_linear_6064_1165)"/>
<defs>
<linearGradient id="paint0_linear_6064_1165" x1="16.2488" y1="48.9664" x2="51.3322" y2="37.9865" gradientUnits="userSpaceOnUse">
<stop stop-color="#FE5000"/>
<stop offset="1" stop-color="#FCA92A"/>
</linearGradient>
</defs>
</svg>
