<svg width="56" height="56" viewBox="0 0 56 56" fill="none" xmlns="http://www.w3.org/2000/svg">
<path d="M47.4926 25.2928C46.9249 25.2928 46.5464 25.6728 46.5464 26.2427V29.9476V35.5523V36.5023C46.5464 37.5472 45.6948 38.4022 44.6539 38.4022H42.7614C41.1528 38.4022 40.0173 39.6371 40.0173 41.1571V43.057C40.0173 44.1019 39.1657 44.9569 38.1249 44.9569H33.4883H10.3055C9.73776 44.9569 9.35927 44.5769 9.35927 44.0069V26.1477C9.35927 25.5778 8.98078 25.1978 8.41303 25.1978C7.84529 25.1978 7.4668 25.5778 7.4668 26.1477V43.912C7.4668 45.5269 8.6969 46.6668 10.2109 46.6668H33.4883H38.1249H39.355C40.5851 46.6668 41.8152 46.1918 42.5722 45.2419L46.9249 40.8721C47.7765 40.0171 48.3442 38.7822 48.3442 37.6422V36.4073V35.4573V29.9476V26.1477C48.4388 25.5778 48.0603 25.2928 47.4926 25.2928ZM41.8152 43.627C41.8152 43.437 41.9098 43.247 41.9098 42.962V41.0621C41.9098 40.4921 42.2883 40.1121 42.856 40.1121H44.7485C44.9378 40.1121 45.127 40.1121 45.4109 40.0171L41.8152 43.627ZM45.6948 12.1834H39.1657V10.2835C39.1657 9.71348 38.7872 9.3335 38.2195 9.3335C37.6517 9.3335 37.2732 9.71348 37.2732 10.2835V12.1834H18.727V10.2835C18.727 9.71348 18.3485 9.3335 17.7808 9.3335C17.213 9.3335 16.8345 9.71348 16.8345 10.2835V12.1834H10.3055C8.6969 12.1834 7.56142 13.4183 7.56142 14.9382V22.4429C7.56142 23.0129 7.93992 23.3929 8.50766 23.3929H47.5872C48.155 23.3929 48.5335 23.0129 48.5335 22.4429V14.9382C48.4388 13.4183 47.2087 12.1834 45.6948 12.1834ZM46.5464 21.493H9.45389V14.9382C9.45389 14.3683 9.83239 13.9883 10.4001 13.9883H16.9292V16.1732C16.3614 16.4582 15.9829 17.1231 15.9829 17.7881C15.9829 18.8331 16.8345 19.688 17.8754 19.688C18.9163 19.688 19.7679 18.8331 19.7679 17.7881C19.7679 17.1231 19.3894 16.4582 18.8216 16.1732V13.9883H37.3679V16.1732C36.8001 16.4582 36.4216 17.1231 36.4216 17.7881C36.4216 18.8331 37.2732 19.688 38.3141 19.688C39.355 19.688 40.2066 18.8331 40.2066 17.7881C40.2066 17.1231 39.8281 16.4582 39.2603 16.1732V13.9883H45.7894C46.3571 13.9883 46.7356 14.3683 46.7356 14.9382L46.5464 21.493ZM24.3098 30.8025C25.3507 30.8025 26.2023 29.9476 26.2023 28.9026C26.2023 27.8577 25.3507 27.0027 24.3098 27.0027C23.2689 27.0027 22.4173 27.8577 22.4173 28.9026C22.4173 30.0426 23.2689 30.8025 24.3098 30.8025ZM31.6905 30.8025C32.7313 30.8025 33.5829 29.9476 33.5829 28.9026C33.5829 27.8577 32.7313 27.0027 31.6905 27.0027C30.6496 27.0027 29.798 27.8577 29.798 28.9026C29.8926 30.0426 30.6496 30.8025 31.6905 30.8025ZM39.1657 30.8025C40.2066 30.8025 41.0582 29.9476 41.0582 28.9026C41.0582 27.8577 40.2066 27.0027 39.1657 27.0027C38.1249 27.0027 37.2732 27.8577 37.2732 28.9026C37.2732 30.0426 38.1249 30.8025 39.1657 30.8025ZM16.8345 39.2572C17.8754 39.2572 18.727 38.4022 18.727 37.3572C18.727 36.3123 17.8754 35.4573 16.8345 35.4573C15.7937 35.4573 14.9421 36.3123 14.9421 37.3572C14.9421 38.4022 15.7937 39.2572 16.8345 39.2572ZM24.3098 39.2572C25.3507 39.2572 26.2023 38.4022 26.2023 37.3572C26.2023 36.3123 25.3507 35.4573 24.3098 35.4573C23.2689 35.4573 22.4173 36.3123 22.4173 37.3572C22.4173 38.4022 23.2689 39.2572 24.3098 39.2572ZM31.6905 39.2572C32.7313 39.2572 33.5829 38.4022 33.5829 37.3572C33.5829 36.3123 32.7313 35.4573 31.6905 35.4573C30.6496 35.4573 29.798 36.3123 29.798 37.3572C29.798 38.4022 30.6496 39.2572 31.6905 39.2572Z" fill="url(#paint0_linear_6064_1172)"/>
<defs>
<linearGradient id="paint0_linear_6064_1172" x1="15.9368" y1="46.6668" x2="51.2924" y2="34.4952" gradientUnits="userSpaceOnUse">
<stop stop-color="#FE5000"/>
<stop offset="1" stop-color="#FCA92A"/>
</linearGradient>
</defs>
</svg>
