<svg width="66" height="66" viewBox="0 0 66 66" fill="none" xmlns="http://www.w3.org/2000/svg">
<path fill-rule="evenodd" clip-rule="evenodd" d="M13.2399 20.791H15.3521V42.0849C13.1617 40.5512 10.4126 38.7244 8.59366 37.8213C7.32645 37.2341 6.14371 37.1501 5.21441 37.5695C4.03168 38.073 3.52479 39.2475 3.35583 39.7508C3.18687 39.9185 3.0179 40.1703 3.0179 40.5059C2.93342 41.2609 3.35583 42.687 7.74885 45.7911C9.94536 47.3012 11.3815 48.8111 12.8177 50.3212C15.0987 52.7541 17.1263 54.8515 21.5192 55.942C22.1112 56.138 22.6743 56.2767 23.2086 56.4083C23.5894 56.5021 23.9556 56.5923 24.3071 56.6971C29.0381 57.9554 31.3191 58.5427 38.5844 58.5427H54.7908C55.1494 60.4489 56.839 61.8982 58.8602 61.8982C61.1412 61.8982 62.9998 60.0526 62.9998 57.7875V39.3311C62.9998 37.066 61.1412 35.2204 58.8602 35.2204C56.7952 35.2204 55.0764 36.733 54.7694 38.7002C52.6295 36.6918 49.4525 36.1975 46.9479 36.2968V20.791H49.5668C49.9048 20.791 50.1583 20.5393 50.3271 20.2877C50.4116 19.9521 50.3271 19.6165 50.0738 19.4488L32.3326 5.187C32.0793 5.01921 31.6568 5.01921 31.4033 5.187L12.8175 19.4488C12.5641 19.7004 12.4796 19.9521 12.5641 20.2877C12.6486 20.6233 12.902 20.791 13.2399 20.791ZM45.4273 20.791H16.8728V43.0225C16.8728 43.0684 16.8687 43.1133 16.861 43.1568C17.9692 43.9559 18.7329 44.5341 18.8159 44.6166L18.9003 44.7004C18.9848 44.7843 20.4211 46.1266 23.4623 46.1266H26.0401C25.8737 45.4766 25.3071 43.0941 26.3347 41.3449C26.9261 40.3381 27.8554 39.7509 29.207 39.4153C30.417 39.175 31.2874 39.0035 31.9947 38.8812V25.4049C31.9947 24.9016 32.4171 24.3983 32.9239 24.3983H39.8514C40.3584 24.3983 40.7807 24.8177 40.7807 25.4049V38.0878C41.7637 37.7948 42.561 37.399 43.3998 36.9825L43.3999 36.9824C43.796 36.7764 44.5163 36.5704 45.4273 36.4363V20.791ZM39.4291 38.3962V25.6566H33.0929V38.7143C34.1983 38.5764 35.0817 38.5764 36.9793 38.5764C37.9273 38.5764 38.7279 38.5106 39.4291 38.3962ZM47.5393 19.2809H15.4364L31.8258 6.69707L47.5393 19.2809ZM56.2468 57.955C56.335 59.3045 57.4807 60.3881 58.8602 60.3881C60.2964 60.3881 61.4791 59.2137 61.4791 57.7875V39.3311C61.4791 37.9049 60.2964 36.7304 58.8602 36.7304C57.4241 36.7304 56.2413 37.9049 56.2413 39.3311V40.6742C56.334 40.8587 56.3246 41.0937 56.2413 41.2959V57.2721C56.2952 57.3759 56.3256 57.4941 56.3256 57.6199C56.3256 57.7293 56.2968 57.8445 56.2468 57.955ZM54.7206 41.0244C53.4785 38.8374 51.0843 38.0655 49.2291 37.9052C46.8636 37.5697 44.6671 38.0731 44.0757 38.3247L43.9383 38.3898L43.8345 38.4391C42.1373 39.2454 40.3668 40.0865 36.9793 40.0865C35.5335 40.0865 34.7221 40.0865 33.917 40.1574C32.8874 40.248 31.868 40.4546 29.545 40.9254C28.7002 41.0931 28.0243 41.5126 27.6864 42.0999C26.9417 43.3569 27.4442 45.2658 27.5738 45.7582C27.5912 45.8245 27.6019 45.8651 27.6019 45.875C27.636 45.9598 27.6529 46.0446 27.6547 46.1266H36.8948C37.5707 46.0428 44.3292 45.4555 45.2585 50.0696C45.343 50.4891 45.0896 50.8246 44.6671 50.9085C44.2447 50.9924 43.9068 50.7407 43.8223 50.3212C43.1465 46.7977 37.0638 47.5528 37.0638 47.5528H36.9793H23.4623C20.2754 47.5528 18.4409 46.135 17.9591 45.7626C17.93 45.7402 17.9059 45.7215 17.8866 45.7072C17.3797 45.2877 11.0436 40.6736 7.91781 39.0796C7.073 38.6602 6.39715 38.5763 5.89027 38.828C5.04545 39.1635 4.792 40.2541 4.792 40.2541C4.792 40.422 4.70752 40.5059 4.62304 40.5897C4.62717 40.5979 4.6321 40.6085 4.63818 40.6216C4.75645 40.8756 5.30738 42.059 8.76262 44.5327C10.8203 45.9706 12.328 47.4768 13.5958 48.7433C13.7334 48.8807 13.8681 49.0153 14.0004 49.1467L14.2087 49.3614C16.3923 51.613 18.1771 53.4535 22.0262 54.3481C23.04 54.5998 23.9693 54.8515 24.8141 55.1031L24.8143 55.1032L24.8144 55.1032L24.8144 55.1032L24.8144 55.1032C29.3761 56.2776 31.6573 56.8649 38.6689 56.8649H54.7206V41.0244ZM28.1091 33.291H21.1816C20.6747 33.291 20.2523 32.8715 20.2523 32.3682V25.489C20.2523 24.9856 20.6747 24.5662 21.1816 24.5662H28.1091C28.6159 24.5662 29.0384 24.9856 29.0384 25.489V32.3682C29.1229 32.7877 28.6159 33.291 28.1091 33.291ZM21.5195 31.9488H27.8556V25.6568H21.5195V31.9488Z" fill="url(#paint0_linear_5689_2052)"/>
<defs>
<linearGradient id="paint0_linear_5689_2052" x1="15.3819" y1="61.8982" x2="67.4676" y2="44.6925" gradientUnits="userSpaceOnUse">
<stop stop-color="#FE5000"/>
<stop offset="1" stop-color="#FCA92A"/>
</linearGradient>
</defs>
</svg>
