<svg width="66" height="66" viewBox="0 0 66 66" fill="none" xmlns="http://www.w3.org/2000/svg">
<path d="M52.7909 9H13.2082C10.3375 9 8 11.3375 8 14.2083V49.6244C8 52.4951 10.3375 54.8326 13.2082 54.8326H38.2078C38.7828 54.8326 39.2495 54.3659 39.2495 53.7909C39.2495 53.2159 38.7828 52.7492 38.2078 52.7492H13.2082C11.4853 52.7492 10.0833 51.3472 10.0833 49.6243V19.4165H55.9158V41.2911C55.9158 41.8661 56.3825 42.3328 56.9574 42.3328C57.5324 42.3328 57.9991 41.8661 57.9991 41.2911V14.2083C57.9991 11.3375 55.6617 9 52.7909 9ZM55.9159 17.3333H10.0833V14.2083C10.0833 12.4854 11.4853 11.0834 13.2082 11.0834H52.7908C54.5137 11.0834 55.9158 12.4854 55.9158 14.2083V17.3333H55.9159Z" fill="url(#paint0_linear_5689_2084)"/>
<path d="M13.2082 15.25C13.7835 15.25 14.2499 14.7836 14.2499 14.2083C14.2499 13.633 13.7835 13.1666 13.2082 13.1666C12.6329 13.1666 12.1665 13.633 12.1665 14.2083C12.1665 14.7836 12.6329 15.25 13.2082 15.25Z" fill="url(#paint1_linear_5689_2084)"/>
<path d="M17.3747 15.25C17.95 15.25 18.4164 14.7836 18.4164 14.2083C18.4164 13.633 17.95 13.1666 17.3747 13.1666C16.7994 13.1666 16.333 13.633 16.333 14.2083C16.333 14.7836 16.7994 15.25 17.3747 15.25Z" fill="url(#paint2_linear_5689_2084)"/>
<path d="M21.5417 15.25C22.117 15.25 22.5834 14.7836 22.5834 14.2083C22.5834 13.633 22.117 13.1666 21.5417 13.1666C20.9664 13.1666 20.5 13.633 20.5 14.2083C20.5 14.7836 20.9664 15.25 21.5417 15.25Z" fill="url(#paint3_linear_5689_2084)"/>
<path d="M57.6947 46.8034L43.1117 32.2203C42.8137 31.9245 42.3679 31.8349 41.9763 31.9953C41.5867 32.1558 41.3325 32.537 41.3325 32.9578V53.7908C41.3325 54.2116 41.5867 54.5928 41.9763 54.7512C42.3679 54.9157 42.8117 54.8262 43.1117 54.5262L46.2679 51.37L48.8241 56.3491C48.9511 56.5991 49.1741 56.7846 49.4386 56.8679C49.5407 56.8991 49.6469 56.9158 49.7511 56.9158C49.9199 56.9158 50.0866 56.8741 50.2407 56.7929L54.3219 54.6241C54.8218 54.3596 55.0198 53.7409 54.7614 53.2346L52.4031 48.5827H56.9573C57.3781 48.5827 57.7593 48.3285 57.9197 47.9389C58.0822 47.5492 57.9927 47.1013 57.6947 46.8034ZM50.7074 46.4992C50.3449 46.4992 50.0094 46.6867 49.8199 46.995C49.6303 47.3033 49.6136 47.6887 49.7782 48.0117L52.4406 53.2658L50.1949 54.4595L47.4679 49.1491C47.3158 48.8534 47.0324 48.6471 46.7033 48.595C46.6491 48.5867 46.595 48.5825 46.5408 48.5825C46.2679 48.5825 46.0013 48.6908 45.8033 48.8887L43.4159 51.2762V35.4723L54.4428 46.4992H50.7074Z" fill="url(#paint4_linear_5689_2084)"/>
<defs>
<linearGradient id="paint0_linear_5689_2084" x1="8" y1="54.8326" x2="53.6597" y2="5.02215" gradientUnits="userSpaceOnUse">
<stop stop-color="#FE5000"/>
<stop offset="1" stop-color="#FE9800"/>
</linearGradient>
<linearGradient id="paint1_linear_5689_2084" x1="12.1665" y1="15.25" x2="14.2499" y2="13.1666" gradientUnits="userSpaceOnUse">
<stop stop-color="#FE5000"/>
<stop offset="1" stop-color="#FE9800"/>
</linearGradient>
<linearGradient id="paint2_linear_5689_2084" x1="16.333" y1="15.25" x2="18.4164" y2="13.1666" gradientUnits="userSpaceOnUse">
<stop stop-color="#FE5000"/>
<stop offset="1" stop-color="#FE9800"/>
</linearGradient>
<linearGradient id="paint3_linear_5689_2084" x1="20.5" y1="15.25" x2="22.5834" y2="13.1666" gradientUnits="userSpaceOnUse">
<stop stop-color="#FE5000"/>
<stop offset="1" stop-color="#FE9800"/>
</linearGradient>
<linearGradient id="paint4_linear_5689_2084" x1="41.3325" y1="56.9158" x2="64.4093" y2="41.5302" gradientUnits="userSpaceOnUse">
<stop stop-color="#FE5000"/>
<stop offset="1" stop-color="#FE9800"/>
</linearGradient>
</defs>
</svg>
