<svg width="66" height="66" viewBox="0 0 66 66" fill="none" xmlns="http://www.w3.org/2000/svg">
<path fill-rule="evenodd" clip-rule="evenodd" d="M45.6024 60.5969H58.0648V24.487H45.6024V60.5969ZM44.1969 60.5969V5.40323H21.99V60.5969H28.3619V51.7096H37.7319V60.5969H44.1969ZM29.7674 60.5969V53.1129H36.2327V60.5969H29.7674ZM20.5845 60.5969V24.487H8.12296V60.5969H20.5845ZM6.71746 60.5969V23.0838H20.5845V4H45.6024V23.0838H59.4702V60.5969H62V62.0001H4V60.5969H6.71746ZM24.9888 19.4353H40.6366V10.7353H24.9888V19.4353ZM39.2311 18.0321H26.4879V12.1385H39.2311V18.0321ZM24.9888 32.4387H40.6366V23.7387H24.9888V32.4387ZM39.2311 31.0354H26.4879V25.1419H39.2311V31.0354ZM25.1763 36.7418H40.543H40.6366V45.4418H24.9888V36.7418H25.1763ZM39.2311 43.9451H26.4879V38.1451H39.2311V43.9451ZM48.226 33.6547H55.3472V32.2516H48.226V33.6547ZM48.226 40.016H55.3472V38.6128H48.226V40.016ZM48.226 46.3773H55.3472V44.974H48.226V46.3773ZM48.226 52.7386H55.3472V51.2418H48.226V52.7386ZM10.7462 33.7483H17.8674V32.345H10.7462V33.7483ZM10.7462 40.1097H17.8674V38.7065H10.7462V40.1097ZM10.7462 46.3773H17.8674V44.974H10.7462V46.3773ZM10.7462 52.7385H17.8674V51.3354H10.7462V52.7385Z" fill="url(#paint0_linear_5689_2173)"/>
<defs>
<linearGradient id="paint0_linear_5689_2173" x1="15.9625" y1="62" x2="66.832" y2="46.0795" gradientUnits="userSpaceOnUse">
<stop stop-color="#FE5000"/>
<stop offset="1" stop-color="#FCA92A"/>
</linearGradient>
</defs>
</svg>
