<svg width="44" height="112" viewBox="0 0 44 112" fill="none" xmlns="http://www.w3.org/2000/svg">
<path d="M43.2143 13.8858H41.6429V11.5287C41.6429 11.3203 41.5601 11.1204 41.4127 10.9731C41.2654 10.8257 41.0655 10.743 40.8571 10.743H39.2857V8.38581C39.2857 8.17743 39.2029 7.97758 39.0556 7.83023C38.9082 7.68288 38.7084 7.6001 38.5 7.6001H5.5C5.29162 7.6001 5.09177 7.68288 4.94442 7.83023C4.79707 7.97758 4.71429 8.17743 4.71429 8.38581V10.743H3.14286C2.93447 10.743 2.73462 10.8257 2.58727 10.9731C2.43992 11.1204 2.35714 11.3203 2.35714 11.5287V13.8858H0.785714C0.57733 13.8858 0.377481 13.9686 0.230131 14.1159C0.0827805 14.2633 0 14.4631 0 14.6715V38.243C0 38.4513 0.0827805 38.6512 0.230131 38.7985C0.377481 38.9459 0.57733 39.0287 0.785714 39.0287H43.2143C43.4227 39.0287 43.6225 38.9459 43.7699 38.7985C43.9172 38.6512 44 38.4513 44 38.243V14.6715C44 14.4631 43.9172 14.2633 43.7699 14.1159C43.6225 13.9686 43.4227 13.8858 43.2143 13.8858ZM36.19 15.4572C36.3688 17.0503 37.0835 18.5353 38.217 19.6688C39.3506 20.8023 40.8356 21.517 42.4286 21.6958V31.2187C40.8356 31.3975 39.3506 32.1122 38.217 33.2457C37.0835 34.3792 36.3688 35.8642 36.19 37.4572H7.81C7.6312 35.8642 6.91646 34.3792 5.78295 33.2457C4.64945 32.1122 3.16445 31.3975 1.57143 31.2187V21.6958C3.16445 21.517 4.64945 20.8023 5.78295 19.6688C6.91646 18.5353 7.6312 17.0503 7.81 15.4572H36.19ZM42.4286 20.1165C41.253 19.9471 40.1638 19.4017 39.324 18.5618C38.4841 17.722 37.9387 16.6328 37.7693 15.4572H42.4286V20.1165ZM6.28571 9.17153H37.7143V10.743H6.28571V9.17153ZM3.92857 12.3144H40.0714V13.8858H3.92857V12.3144ZM1.57143 15.4572H6.23071C6.0613 16.6328 5.51589 17.722 4.67604 18.5618C3.83618 19.4017 2.74702 19.9471 1.57143 20.1165V15.4572ZM1.57143 37.4572V32.798C2.74702 32.9674 3.83618 33.5128 4.67604 34.3526C5.51589 35.1925 6.0613 36.2817 6.23071 37.4572H1.57143ZM42.4286 37.4572H37.7693C37.9387 36.2817 38.4841 35.1925 39.324 34.3526C40.1638 33.5128 41.253 32.9674 42.4286 32.798V37.4572Z" fill="#449099"/>
<path d="M21.9997 34.3144C23.5537 34.3144 25.0728 33.8536 26.3649 32.9902C27.657 32.1269 28.6641 30.8997 29.2588 29.464C29.8535 28.0283 30.0091 26.4485 29.7059 24.9244C29.4027 23.4003 28.6544 22.0002 27.5556 20.9014C26.4567 19.8026 25.0567 19.0542 23.5326 18.7511C22.0084 18.4479 20.4286 18.6035 18.9929 19.1982C17.5572 19.7929 16.3301 20.7999 15.4667 22.092C14.6034 23.3842 14.1426 24.9032 14.1426 26.4572C14.1426 27.4891 14.3458 28.5108 14.7407 29.464C15.1355 30.4173 15.7143 31.2835 16.4439 32.0131C17.9174 33.4866 19.9159 34.3144 21.9997 34.3144ZM21.9997 20.1715C23.2429 20.1715 24.4582 20.5402 25.4919 21.2309C26.5256 21.9215 27.3312 22.9032 27.807 24.0518C28.2827 25.2004 28.4072 26.4642 28.1647 27.6835C27.9221 28.9028 27.3235 30.0228 26.4444 30.9019C25.5653 31.781 24.4453 32.3796 23.226 32.6222C22.0067 32.8647 20.7428 32.7402 19.5943 32.2645C18.4457 31.7887 17.464 30.9831 16.7733 29.9494C16.0827 28.9157 15.714 27.7004 15.714 26.4572C15.714 24.7902 16.3762 23.1914 17.555 22.0126C18.7338 20.8338 20.3326 20.1715 21.9997 20.1715Z" fill="#449099"/>
<path d="M43.2143 81.8858H41.6429V79.5287C41.6429 79.3203 41.5601 79.1204 41.4127 78.9731C41.2654 78.8257 41.0655 78.743 40.8571 78.743H39.2857V76.3858C39.2857 76.1774 39.2029 75.9776 39.0556 75.8302C38.9082 75.6829 38.7084 75.6001 38.5 75.6001H5.5C5.29162 75.6001 5.09177 75.6829 4.94442 75.8302C4.79707 75.9776 4.71429 76.1774 4.71429 76.3858V78.743H3.14286C2.93447 78.743 2.73462 78.8257 2.58727 78.9731C2.43992 79.1204 2.35714 79.3203 2.35714 79.5287V81.8858H0.785714C0.57733 81.8858 0.377481 81.9686 0.230131 82.1159C0.0827805 82.2633 0 82.4631 0 82.6715V106.243C0 106.451 0.0827805 106.651 0.230131 106.799C0.377481 106.946 0.57733 107.029 0.785714 107.029H43.2143C43.4227 107.029 43.6225 106.946 43.7699 106.799C43.9172 106.651 44 106.451 44 106.243V82.6715C44 82.4631 43.9172 82.2633 43.7699 82.1159C43.6225 81.9686 43.4227 81.8858 43.2143 81.8858ZM36.19 83.4572C36.3688 85.0503 37.0835 86.5353 38.217 87.6688C39.3506 88.8023 40.8356 89.517 42.4286 89.6958V99.2187C40.8356 99.3975 39.3506 100.112 38.217 101.246C37.0835 102.379 36.3688 103.864 36.19 105.457H7.81C7.6312 103.864 6.91646 102.379 5.78295 101.246C4.64945 100.112 3.16445 99.3975 1.57143 99.2187V89.6958C3.16445 89.517 4.64945 88.8023 5.78295 87.6688C6.91646 86.5353 7.6312 85.0503 7.81 83.4572H36.19ZM42.4286 88.1165C41.253 87.9471 40.1638 87.4017 39.324 86.5618C38.4841 85.722 37.9387 84.6328 37.7693 83.4572H42.4286V88.1165ZM6.28571 77.1715H37.7143V78.743H6.28571V77.1715ZM3.92857 80.3144H40.0714V81.8858H3.92857V80.3144ZM1.57143 83.4572H6.23071C6.0613 84.6328 5.51589 85.722 4.67604 86.5618C3.83618 87.4017 2.74702 87.9471 1.57143 88.1165V83.4572ZM1.57143 105.457V100.798C2.74702 100.967 3.83618 101.513 4.67604 102.353C5.51589 103.192 6.0613 104.282 6.23071 105.457H1.57143ZM42.4286 105.457H37.7693C37.9387 104.282 38.4841 103.192 39.324 102.353C40.1638 101.513 41.253 100.967 42.4286 100.798V105.457Z" fill="#6093CA"/>
<path d="M21.9997 102.314C23.5537 102.314 25.0728 101.854 26.3649 100.99C27.657 100.127 28.6641 98.8997 29.2588 97.464C29.8535 96.0283 30.0091 94.4485 29.7059 92.9244C29.4027 91.4003 28.6544 90.0002 27.5556 88.9014C26.4567 87.8026 25.0567 87.0542 23.5326 86.7511C22.0084 86.4479 20.4286 86.6035 18.9929 87.1982C17.5572 87.7929 16.3301 88.7999 15.4667 90.092C14.6034 91.3842 14.1426 92.9032 14.1426 94.4572C14.1426 95.4891 14.3458 96.5108 14.7407 97.464C15.1355 98.4173 15.7143 99.2835 16.4439 100.013C17.9174 101.487 19.9159 102.314 21.9997 102.314ZM21.9997 88.1715C23.2429 88.1715 24.4582 88.5402 25.4919 89.2309C26.5256 89.9215 27.3312 90.9032 27.807 92.0518C28.2827 93.2004 28.4072 94.4642 28.1647 95.6835C27.9221 96.9028 27.3235 98.0228 26.4444 98.9019C25.5653 99.781 24.4453 100.38 23.226 100.622C22.0067 100.865 20.7428 100.74 19.5943 100.264C18.4457 99.7887 17.464 98.9831 16.7733 97.9494C16.0827 96.9157 15.714 95.7004 15.714 94.4572C15.714 92.7902 16.3762 91.1914 17.555 90.0126C18.7338 88.8338 20.3326 88.1715 21.9997 88.1715Z" fill="#6093CA"/>
</svg>
