<svg width="482.7" height="270" xmlns="http://www.w3.org/2000/svg">
 <style type="text/css">.st0{fill:#3D8889;}
	.st1{fill:#5497CA;}</style>

 <g>
  <title>background</title>
  <rect fill="none" id="canvas_background" height="402" width="582" y="-1" x="-1"/>
 </g>
 <g>
  <title>Layer 1</title>
  <path id="svg_14" d="m23.5,0.599999c3.199997,3.200005 6.5,6.5 10,10c0,-2.099998 0,-4.099998 0,-6.099998c2.300003,0 4.600006,0 7,0c0,0.699997 0,1.400002 0,2.099998c0,3.400002 0,6.700005 0,10.099998c0,0.5 0.300003,1.200005 0.699997,1.600006c1.600006,1.699997 3.300003,3.399994 5,5c-1,1 -1.899994,1.799995 -3,2.899994c-0.699997,-0.799995 -1.5,-1.799995 -2.399994,-2.699997c-0.100006,0.099998 -0.199997,0.099998 -0.300003,0.199997c0,7.400002 0,14.900002 0,22.400002c-11.5,0 -22.899994,0 -34.399994,0c0,-7.5 0,-14.900002 0,-22.299995c-0.100006,-0.100006 -0.200012,-0.100006 -0.300003,-0.200005c-0.800003,1 -1.5,2 -2.300003,3c-1.300003,-1.299995 -2.100006,-2.199997 -2.899994,-3c7.5,-7.599998 15.099991,-15.199997 22.899994,-23zm-0.300003,5.700005c-0.300003,0.299995 -0.599991,0.5 -0.800003,0.699997c-4.699997,4.699997 -9.399994,9.400002 -14.199997,14.099998c-0.5,0.5 -0.800003,1.099998 -0.800003,1.800003c0,6.799995 0,13.699997 0,20.5c0,0.400002 0,0.799995 0.100006,1.099998c1.100006,0 2.100006,0 3.300003,0c0,-6.099998 0,-12.099998 0,-18.199997c3.5,0 7,0 10.599991,0c0,6.099998 0,12.099998 0,18.199997c5.900009,0 11.600006,0 17.5,0c0,-0.400002 0.100006,-0.699997 0.100006,-1c0,-7 0,-14 0,-21c0,-0.5 -0.300003,-1.099998 -0.699997,-1.5c-4.699997,-4.800003 -9.5,-9.5 -14.199997,-14.300003c-0.300003,0 -0.600006,-0.199997 -0.900009,-0.399994zm-10.899994,21.599998c0,5.599998 0,11.099998 0,16.699997c2.599991,0 5,0 7.599991,0c0,-5.599998 0,-11.099998 0,-16.699997c-2.599991,0 -5,0 -7.599991,0zm22.599991,-13.700005c-4,-4 -7.800003,-7.799995 -11.5,-11.499996c-7,6.999996 -14,13.999996 -20.900009,20.899998c0.100006,0.099998 0.300003,0.300003 0.700012,0.599998c6.699997,-6.699997 13.399994,-13.399994 20.199997,-20.199997c6.699997,6.699997 13.300003,13.300003 20.100006,20.099998c0.199997,-0.299995 0.399994,-0.5 0.600006,-0.799995c-1.5,-1.5 -3.100006,-2.900002 -4.5,-4.5c-0.400009,-0.400002 -0.700012,-1.100006 -0.700012,-1.600006c-0.099991,-2.699997 0,-5.299995 0,-8c0,-1.099998 0,-2.199997 0,-3.399994c-1.399994,0 -2.699997,0 -4,0c0,2.899994 0,5.5 0,8.399994z" class="st0"/>
  <path id="svg_15" d="m35.600006,26.5c0,3.5 0,6.900002 0,10.5c-3.5,0 -6.899994,0 -10.5,0c0,-3.5 0,-6.900002 0,-10.5c3.5,0 6.899994,0 10.5,0zm-9.100006,8.900002c2.600006,0 5.100006,0 7.600006,0c0,-2.599998 0,-5 0,-7.5c-2.600006,0 -5.100006,0 -7.600006,0c0,2.599998 0,5 0,7.5z" class="st0"/>
  <path id="svg_78" d="m24,80.399994c3.199997,3.199997 6.5,6.5 10,10c0,-2.100006 0,-4.100006 0,-6.100006c2.300003,0 4.600006,0 7,0c0,0.699997 0,1.400009 0,2.100006c0,3.399994 0,6.699997 0,10.099991c0,0.5 0.300003,1.200012 0.699997,1.600006c1.600006,1.699997 3.300003,3.399994 5,5c-1,1 -1.899994,1.800003 -3,2.899994c-0.699997,-0.799988 -1.5,-1.799988 -2.399994,-2.699997c-0.100006,0.100006 -0.199997,0.100006 -0.300003,0.199997c0,7.400009 0,14.900009 0,22.400009c-11.5,0 -22.899994,0 -34.399994,0c0,-7.5 0,-14.900009 0,-22.300003c-0.100006,-0.100006 -0.200012,-0.100006 -0.300003,-0.199997c-0.800003,1 -1.5,2 -2.300003,3c-1.300003,-1.300003 -2.100006,-2.199997 -2.899994,-3c7.5,-7.599991 15.099991,-15.199997 22.899994,-23zm-0.300003,5.700012c-0.300003,0.300003 -0.599991,0.5 -0.800003,0.699997c-4.699997,4.700012 -9.399994,9.400009 -14.199997,14.100006c-0.5,0.5 -0.800003,1.100006 -0.800003,1.800003c0,6.800003 0,13.699997 0,20.5c0,0.399994 0,0.800003 0.100006,1.099991c1.100006,0 2.100006,0 3.300003,0c0,-6.099991 0,-12.099991 0,-18.199997c3.5,0 7,0 10.599991,0c0,6.100006 0,12.100006 0,18.199997c5.900009,0 11.600006,0 17.5,0c0,-0.399994 0.100006,-0.699997 0.100006,-1c0,-7 0,-14 0,-21c0,-0.5 -0.300003,-1.099991 -0.699997,-1.5c-4.699997,-4.799988 -9.5,-9.5 -14.199997,-14.299988c-0.300003,-0.000015 -0.600006,-0.200012 -0.900009,-0.400009zm-10.899994,21.599991c0,5.600006 0,11.100006 0,16.699997c2.599991,0 5,0 7.599991,0c0,-5.599991 0,-11.099991 0,-16.699997c-2.599991,0 -5,0 -7.599991,0zm22.599991,-13.699997c-4,-4 -7.800003,-7.800003 -11.5,-11.5c-7,7 -14,14 -20.900009,20.899994c0.100006,0.100006 0.300003,0.300003 0.700012,0.600006c6.699997,-6.699997 13.399994,-13.399994 20.199997,-20.199997c6.699997,6.699997 13.300003,13.300003 20.100006,20.099991c0.199997,-0.299988 0.399994,-0.5 0.600006,-0.799988c-1.5,-1.5 -3.100006,-2.900009 -4.5,-4.5c-0.400009,-0.400009 -0.700012,-1.100006 -0.700012,-1.600006c-0.099991,-2.699997 0,-5.300003 0,-8c0,-1.100006 0,-2.199997 0,-3.399994c-1.399994,0 -2.699997,0 -4,0c0,2.899994 0,5.5 0,8.399994z" class="st1"/>
  <path id="svg_79" d="m36.100006,106.300003c0,3.5 0,6.899994 0,10.5c-3.5,0 -6.899994,0 -10.5,0c0,-3.5 0,-6.900009 0,-10.5c3.5,0 6.899994,0 10.5,0zm-9.100006,8.899994c2.600006,0 5.100006,0 7.600006,0c0,-2.599991 0,-5 0,-7.5c-2.600006,0 -5.100006,0 -7.600006,0c0,2.600006 0,5 0,7.5z" class="st1"/>
 </g>
</svg>