<svg width="44" height="112" viewBox="0 0 44 112" fill="none" xmlns="http://www.w3.org/2000/svg">
<path d="M43 41H36.7368M24.0263 41H1V36.2941M24.0263 41H32.6842M24.0263 41V36.2941M8.55263 26.8824H1V31.2262M8.55263 26.8824V12.2217M8.55263 26.8824H10.7632M8.55263 12.2217H7.07895V10.2308M8.55263 12.2217H12.2368V10.2308M10.7632 26.8824H24.0263V31.2262M10.7632 26.8824V12.2217M7.07895 10.2308H3.76316L7.81579 6.97285H20.7105M7.07895 10.2308H37.8421M32.1316 10.2308L27.8947 6.97285H20.7105M20.7105 6.97285L31.5789 2.99095L32.6842 2.13769M32.6842 2.13769L34.1579 1L36.7368 2.74208M32.6842 2.13769V6.61086M32.6842 41H36.7368M32.6842 41V39.552M36.7368 41V35.7511M36.7368 2.74208L42.1962 6.42986M36.7368 2.74208V6.61086M42.1962 6.42986L43 6.97285V10.2308H37.8421M42.1962 6.42986L37.8421 10.2308M32.6842 6.61086H36.7368M32.6842 6.61086V10.7738M36.7368 6.61086V14.0317M1 31.2262H24.0263M1 31.2262V36.2941M24.0263 31.2262V36.2941M1 36.2941H24.0263M32.6842 10.7738L36.7368 14.0317M32.6842 10.7738V17.4706M36.7368 14.0317L32.6842 17.4706M36.7368 14.0317V21.0905M32.6842 17.4706L36.7368 21.0905M32.6842 17.4706V24.7104M36.7368 21.0905L32.6842 24.7104M36.7368 21.0905V28.6923M32.6842 24.7104L36.7368 28.6923M32.6842 24.7104V32.1312M36.7368 28.6923L32.6842 32.1312M36.7368 28.6923V35.7511M32.6842 32.1312L36.7368 35.7511M32.6842 32.1312V39.552M36.7368 35.7511L32.6842 39.552" stroke="#449099" stroke-width="1.4"/>
<path d="M43 109H36.7368M24.0263 109H1V104.294M24.0263 109H32.6842M24.0263 109V104.294M8.55263 94.8824H1V99.2262M8.55263 94.8824V80.2217M8.55263 94.8824H10.7632M8.55263 80.2217H7.07895V78.2308M8.55263 80.2217H12.2368V78.2308M10.7632 94.8824H24.0263V99.2262M10.7632 94.8824V80.2217M7.07895 78.2308H3.76316L7.81579 74.9729H20.7105M7.07895 78.2308H37.8421M32.1316 78.2308L27.8947 74.9729H20.7105M20.7105 74.9729L31.5789 70.991L32.6842 70.1377M32.6842 70.1377L34.1579 69L36.7368 70.7421M32.6842 70.1377V74.6109M32.6842 109H36.7368M32.6842 109V107.552M36.7368 109V103.751M36.7368 70.7421L42.1962 74.4299M36.7368 70.7421V74.6109M42.1962 74.4299L43 74.9729V78.2308H37.8421M42.1962 74.4299L37.8421 78.2308M32.6842 74.6109H36.7368M32.6842 74.6109V78.7738M36.7368 74.6109V82.0317M1 99.2262H24.0263M1 99.2262V104.294M24.0263 99.2262V104.294M1 104.294H24.0263M32.6842 78.7738L36.7368 82.0317M32.6842 78.7738V85.4706M36.7368 82.0317L32.6842 85.4706M36.7368 82.0317V89.0905M32.6842 85.4706L36.7368 89.0905M32.6842 85.4706V92.7104M36.7368 89.0905L32.6842 92.7104M36.7368 89.0905V96.6923M32.6842 92.7104L36.7368 96.6923M32.6842 92.7104V100.131M36.7368 96.6923L32.6842 100.131M36.7368 96.6923V103.751M32.6842 100.131L36.7368 103.751M32.6842 100.131V107.552M36.7368 103.751L32.6842 107.552" stroke="#6093CA" stroke-width="1.4"/>
</svg>
