<svg width="44" height="112" viewBox="0 0 44 112" fill="none" xmlns="http://www.w3.org/2000/svg">
<g clip-path="url(#clip0_3269_1108)">
<path d="M37.1643 20.2L41.1175 24.0031L43 22.1852L37.1643 16.5674V5.64253L32.2698 5.64253V11.8557L22.0318 2L1 22.3098L2.86357 24.1094L6.29139 20.807M37.1643 20.2L22.0318 5.64253L6.29139 20.807M37.1643 20.2V42L19.4687 42M6.29139 20.807V42H10.8093M10.8093 42L10.8093 25.2756H19.4687V42M10.8093 42L19.4687 42M24.3632 25.2756H32.6462V33.6378H24.3632V25.2756Z" stroke="#449099" stroke-width="1.6"/>
</g>
<g clip-path="url(#clip1_3269_1108)">
<path d="M37.1643 88.2L41.1175 92.0031L43 90.1852L37.1643 84.5674V73.6425L32.2698 73.6425V79.8557L22.0318 70L1 90.3098L2.86357 92.1094L6.29139 88.807M37.1643 88.2L22.0318 73.6425L6.29139 88.807M37.1643 88.2V110L19.4687 110M6.29139 88.807V110H10.8093M10.8093 110L10.8093 93.2756H19.4687V110M10.8093 110L19.4687 110M24.3632 93.2756H32.6462V101.638H24.3632V93.2756Z" stroke="#6093CA" stroke-width="1.6"/>
</g>
<defs>
<clipPath id="clip0_3269_1108">
<rect width="44" height="44" fill="white"/>
</clipPath>
<clipPath id="clip1_3269_1108">
<rect width="44" height="44" fill="white" transform="translate(0 68)"/>
</clipPath>
</defs>
</svg>
