<svg width="44" height="44" viewBox="0 0 44 44" fill="none" xmlns="http://www.w3.org/2000/svg">
<path fill-rule="evenodd" clip-rule="evenodd" d="M35.998 9.01483C35.9977 9.00572 35.9974 8.9966 35.9967 8.98749C35.9941 8.95136 35.9905 8.91589 35.9834 8.88074C35.9834 8.88074 35.9834 8.88074 35.9834 8.88041C35.9762 8.84526 35.9661 8.81044 35.9547 8.77659C35.9518 8.76813 35.9489 8.75966 35.9456 8.7512C35.9336 8.71898 35.9199 8.68741 35.9043 8.65682C35.9033 8.65519 35.9026 8.65356 35.9017 8.65193C35.8847 8.62004 35.8652 8.58977 35.8441 8.56015C35.8389 8.55267 35.8333 8.54551 35.8278 8.53802C35.8053 8.50873 35.7819 8.48041 35.7555 8.45405L28.2158 0.914267C28.1894 0.887904 28.1611 0.86447 28.1318 0.842013C28.1243 0.83648 28.1168 0.830622 28.1093 0.825414C28.0797 0.804259 28.0498 0.784731 28.0182 0.768132C28.0159 0.76683 28.0136 0.766179 28.0117 0.764877C27.9817 0.749255 27.9505 0.73591 27.9189 0.723868C27.9101 0.720614 27.9017 0.717684 27.8926 0.714755C27.8587 0.703364 27.8245 0.693274 27.7891 0.686114C27.7887 0.686114 27.7884 0.686114 27.7884 0.686114C27.7536 0.679279 27.7181 0.675373 27.6823 0.67277C27.6732 0.672444 27.6641 0.671793 27.655 0.671468C27.6455 0.671142 27.6361 0.670166 27.6267 0.670166H8.74921C8.289 0.670166 7.91602 1.04315 7.91602 1.50336V37.1662C7.91602 37.6264 8.289 37.9993 8.74921 37.9993H21.2934V42.4967C21.2934 42.7997 21.4581 43.0789 21.7233 43.2257C21.9889 43.3725 22.3127 43.3637 22.5695 43.2026L25.7429 41.2117L28.9162 43.2026C29.0512 43.2872 29.2052 43.3299 29.3591 43.3299C29.4978 43.3299 29.6367 43.2954 29.7624 43.226C30.0276 43.0792 30.1923 42.8 30.1923 42.4967V37.9993H35.1661C35.6263 37.9993 35.9993 37.6264 35.9993 37.1662V9.04315C35.9993 9.03371 35.9983 9.02427 35.998 9.01483ZM28.4599 3.51508L33.1547 8.20995H28.4599V3.51508ZM20.8823 26.4052C20.8237 26.2461 20.7284 25.986 20.7261 25.8796C20.7912 25.7989 21.0171 25.656 21.1554 25.5688C21.4522 25.3813 21.7887 25.1684 22.0328 24.8358C22.2792 24.4996 22.3795 24.1113 22.468 23.7689C22.5067 23.6192 22.5692 23.3774 22.6226 23.2859C22.6519 23.2798 22.7134 23.271 22.8289 23.271C22.9217 23.271 23.0255 23.2762 23.1355 23.2817C23.2618 23.2879 23.392 23.2944 23.528 23.2944C23.8281 23.2944 24.0703 23.2605 24.29 23.1873C24.6737 23.0597 24.9806 22.8127 25.2514 22.5946C25.4011 22.4742 25.6517 22.2724 25.7389 22.2601C25.8343 22.2724 26.0846 22.4742 26.2343 22.5946C26.5051 22.8127 26.8123 23.0597 27.1961 23.1873C27.4158 23.2605 27.6576 23.2944 27.958 23.2944C28.0937 23.2944 28.2242 23.2879 28.3502 23.2817C28.4602 23.2762 28.564 23.271 28.6571 23.271C28.7726 23.271 28.8338 23.2794 28.8634 23.2859C28.9168 23.3774 28.9793 23.6192 29.0177 23.7689C29.1062 24.1113 29.2068 24.4996 29.4532 24.8358C29.697 25.1684 30.0335 25.381 30.3306 25.5688C30.4686 25.6563 30.6945 25.7989 30.7596 25.8796C30.7573 25.986 30.662 26.2461 30.6037 26.4052C30.4797 26.7427 30.3394 27.1255 30.3394 27.5496C30.3394 27.9736 30.4797 28.3564 30.6034 28.6942C30.662 28.8534 30.7573 29.1134 30.7596 29.2199C30.6945 29.3006 30.4686 29.4431 30.3306 29.5307C30.0335 29.7182 29.697 29.931 29.4532 30.2636C29.2068 30.5998 29.1062 30.9881 29.0177 31.3305C28.9793 31.4799 28.9165 31.7221 28.8634 31.8135C28.8338 31.8197 28.7726 31.8285 28.6571 31.8285C28.564 31.8285 28.4602 31.8233 28.3502 31.8177C28.2242 31.8116 28.0937 31.805 27.958 31.805C27.6576 31.805 27.4158 31.8389 27.1961 31.9121C26.8123 32.0397 26.5051 32.2871 26.2343 32.5048C26.0869 32.6239 25.8408 32.8215 25.7429 32.8391C25.6449 32.8215 25.3992 32.6239 25.2517 32.5048C24.9806 32.2871 24.6737 32.0397 24.29 31.9121C24.0703 31.8389 23.8281 31.805 23.528 31.805C23.3923 31.805 23.2618 31.8116 23.1355 31.8177C23.0258 31.8233 22.922 31.8285 22.8289 31.8285C22.7134 31.8285 22.6522 31.8197 22.6226 31.8135C22.5692 31.7221 22.5067 31.4802 22.468 31.3305C22.3798 30.9881 22.2792 30.5998 22.0328 30.2636C21.7891 29.931 21.4525 29.7182 21.1554 29.5307C21.0174 29.4435 20.7915 29.3006 20.7264 29.2199C20.7287 29.1138 20.8241 28.8534 20.8823 28.6942C21.0063 28.3567 21.1466 27.974 21.1466 27.5499C21.1466 27.1255 21.006 26.7427 20.8823 26.4052ZM28.5259 40.9904L26.1858 39.5222C25.915 39.3526 25.5707 39.3526 25.2999 39.5222L22.9598 40.9904V33.4923C23.0483 33.4897 23.1352 33.4864 23.2195 33.4822C23.3298 33.4763 23.434 33.4711 23.528 33.4711C23.6758 33.4711 23.7389 33.4848 23.7634 33.4929C23.8626 33.5261 24.0533 33.6797 24.2066 33.8031C24.5956 34.1162 25.0795 34.5058 25.7429 34.5058C26.4062 34.5058 26.8901 34.1162 27.2791 33.8031C27.4324 33.6797 27.6231 33.5261 27.722 33.4932C27.7468 33.4851 27.8099 33.4714 27.9577 33.4714C28.0517 33.4714 28.1559 33.4767 28.2662 33.4822C28.3505 33.4864 28.4374 33.49 28.5256 33.4923V40.9904H28.5259ZM30.1923 36.333V32.8208C30.44 32.4843 30.5435 32.0859 30.6311 31.7474C30.6769 31.5697 30.7398 31.3266 30.797 31.2488C30.854 31.1707 31.0659 31.0369 31.2205 30.9393C31.6306 30.6802 32.1409 30.3577 32.3437 29.7478C32.5441 29.146 32.3355 28.5774 32.1679 28.1204C32.0917 27.9131 32.0055 27.6778 32.0055 27.5496C32.0055 27.4213 32.0917 27.1863 32.1679 26.979C32.3355 26.5221 32.5441 25.9531 32.3437 25.3514C32.1409 24.7418 31.6306 24.4192 31.2205 24.1601C31.0659 24.0625 30.854 23.9284 30.797 23.8509C30.7398 23.7728 30.6769 23.5297 30.6311 23.352C30.5113 22.8882 30.3622 22.3108 29.8519 21.9365C29.4457 21.6391 28.9754 21.6046 28.6568 21.6046C28.522 21.6046 28.3918 21.6111 28.2662 21.6176C28.1559 21.6231 28.0517 21.6283 27.958 21.6283C27.8099 21.6283 27.7468 21.6147 27.7223 21.6065C27.6234 21.5736 27.4327 21.42 27.2794 21.2964C26.8901 20.9836 26.4062 20.594 25.7429 20.594C25.0799 20.594 24.5956 20.9836 24.2066 21.2964C24.0533 21.4197 23.8626 21.5736 23.7637 21.6065C23.7393 21.6147 23.6758 21.6283 23.528 21.6283C23.4343 21.6283 23.3298 21.6231 23.2195 21.6173C23.0939 21.6111 22.964 21.6046 22.8289 21.6046C22.5106 21.6046 22.0403 21.6391 21.6345 21.9365C21.1238 22.3108 20.9744 22.8882 20.8547 23.352C20.8088 23.5297 20.7459 23.7728 20.689 23.8506C20.6317 23.9284 20.4198 24.0625 20.2652 24.1601C19.8551 24.4192 19.3451 24.7418 19.142 25.3514C18.9416 25.9535 19.1502 26.5221 19.3178 26.979C19.394 27.1863 19.4802 27.4213 19.4802 27.5496C19.4802 27.6778 19.394 27.9131 19.3178 28.1204C19.1502 28.5774 18.9416 29.146 19.142 29.7481C19.3451 30.3577 19.8555 30.6802 20.2652 30.9393C20.4202 31.0369 20.6317 31.171 20.689 31.2488C20.7459 31.3266 20.8088 31.5697 20.8547 31.7474C20.9422 32.0859 21.046 32.4846 21.2937 32.8208V36.333H9.58241V2.33656H26.7935V9.04315C26.7935 9.50336 27.1664 9.87634 27.6267 9.87634H34.3329V36.333H30.1923Z" fill="url(#paint0_linear_7804_1925)"/>
<path fill-rule="evenodd" clip-rule="evenodd" d="M12.8215 9.87636H23.5561C24.016 9.87636 24.3893 9.50337 24.3893 9.04316C24.3893 8.58295 24.016 8.20996 23.5561 8.20996H12.8215C12.3613 8.20996 11.9883 8.58295 11.9883 9.04316C11.9883 9.50337 12.3616 9.87636 12.8215 9.87636Z" fill="url(#paint1_linear_7804_1925)"/>
<path fill-rule="evenodd" clip-rule="evenodd" d="M31.189 12.4158H12.8215C12.3613 12.4158 11.9883 12.7888 11.9883 13.249C11.9883 13.7092 12.3613 14.0822 12.8215 14.0822H31.189C31.6492 14.0822 32.0222 13.7092 32.0222 13.249C32.0222 12.7888 31.6492 12.4158 31.189 12.4158Z" fill="url(#paint2_linear_7804_1925)"/>
<path fill-rule="evenodd" clip-rule="evenodd" d="M27.8562 16.6213H12.8215C12.3613 16.6213 11.9883 16.9946 11.9883 17.4545C11.9883 17.9147 12.3613 18.2877 12.8215 18.2877H27.8562C28.3164 18.2877 28.6894 17.9147 28.6894 17.4545C28.6894 16.9946 28.3164 16.6213 27.8562 16.6213Z" fill="url(#paint3_linear_7804_1925)"/>
<path fill-rule="evenodd" clip-rule="evenodd" d="M31.1867 16.6213C30.7278 16.6213 30.3535 16.9956 30.3535 17.4545C30.3535 17.9134 30.7278 18.2877 31.1867 18.2877C31.646 18.2877 32.0199 17.9134 32.0199 17.4545C32.0199 16.9956 31.646 16.6213 31.1867 16.6213Z" fill="url(#paint4_linear_7804_1925)"/>
<defs>
<linearGradient id="paint0_linear_7804_1925" x1="13.7082" y1="43.3299" x2="39.6503" y2="37.9851" gradientUnits="userSpaceOnUse">
<stop stop-color="#FE5000"/>
<stop offset="1" stop-color="#FCA92A"/>
</linearGradient>
<linearGradient id="paint1_linear_7804_1925" x1="14.546" y1="9.87636" x2="16.4048" y2="5.54713" gradientUnits="userSpaceOnUse">
<stop stop-color="#FE5000"/>
<stop offset="1" stop-color="#FCA92A"/>
</linearGradient>
<linearGradient id="paint2_linear_7804_1925" x1="16.1203" y1="14.0822" x2="17.3931" y2="9.29312" gradientUnits="userSpaceOnUse">
<stop stop-color="#FE5000"/>
<stop offset="1" stop-color="#FCA92A"/>
</linearGradient>
<linearGradient id="paint3_linear_7804_1925" x1="15.4329" y1="18.2877" x2="16.9167" y2="13.6335" gradientUnits="userSpaceOnUse">
<stop stop-color="#FE5000"/>
<stop offset="1" stop-color="#FCA92A"/>
</linearGradient>
<linearGradient id="paint4_linear_7804_1925" x1="30.6972" y1="18.2877" x2="32.1587" y2="17.8303" gradientUnits="userSpaceOnUse">
<stop stop-color="#FE5000"/>
<stop offset="1" stop-color="#FCA92A"/>
</linearGradient>
</defs>
</svg>
