<svg width="44" height="44" viewBox="0 0 44 44" fill="none" xmlns="http://www.w3.org/2000/svg">
<path d="M40.1283 19.4481C39.6003 19.4481 39.2483 19.8001 39.2483 20.3281V23.7601V28.9521V29.8321C39.2483 30.8001 38.4563 31.5921 37.4883 31.5921H35.7283C34.2323 31.5921 33.1763 32.7361 33.1763 34.1441V35.9041C33.1763 36.8721 32.3843 37.6641 31.4163 37.6641H27.1043H5.5443C5.0163 37.6641 4.6643 37.3121 4.6643 36.7841V20.2401C4.6643 19.7121 4.3123 19.3601 3.7843 19.3601C3.2563 19.3601 2.9043 19.7121 2.9043 20.2401V36.6961C2.9043 38.1921 4.0483 39.2481 5.4563 39.2481H27.1043H31.4163H32.5603C33.7043 39.2481 34.8483 38.8081 35.5523 37.9281L39.6003 33.8801C40.3923 33.0881 40.9203 31.9441 40.9203 30.8881V29.7441V28.8641V23.7601V20.2401C41.0083 19.7121 40.6563 19.4481 40.1283 19.4481ZM34.8483 36.4321C34.8483 36.2561 34.9363 36.0801 34.9363 35.8161V34.0561C34.9363 33.5281 35.2883 33.1761 35.8163 33.1761H37.5763C37.7523 33.1761 37.9283 33.1761 38.1923 33.0881L34.8483 36.4321ZM38.4563 7.30406H32.3843V5.54406C32.3843 5.01606 32.0323 4.66406 31.5043 4.66406C30.9763 4.66406 30.6243 5.01606 30.6243 5.54406V7.30406H13.3763V5.54406C13.3763 5.01606 13.0243 4.66406 12.4963 4.66406C11.9683 4.66406 11.6163 5.01606 11.6163 5.54406V7.30406H5.5443C4.0483 7.30406 2.9923 8.44806 2.9923 9.85606V16.8081C2.9923 17.3361 3.3443 17.6881 3.8723 17.6881H40.2163C40.7443 17.6881 41.0963 17.3361 41.0963 16.8081V9.85606C41.0083 8.44806 39.8643 7.30406 38.4563 7.30406ZM39.2483 15.9281H4.7523V9.85606C4.7523 9.32806 5.1043 8.97606 5.6323 8.97606H11.7043V11.0001C11.1763 11.2641 10.8243 11.8801 10.8243 12.4961C10.8243 13.4641 11.6163 14.2561 12.5843 14.2561C13.5523 14.2561 14.3443 13.4641 14.3443 12.4961C14.3443 11.8801 13.9923 11.2641 13.4643 11.0001V8.97606H30.7123V11.0001C30.1843 11.2641 29.8323 11.8801 29.8323 12.4961C29.8323 13.4641 30.6243 14.2561 31.5923 14.2561C32.5603 14.2561 33.3523 13.4641 33.3523 12.4961C33.3523 11.8801 33.0003 11.2641 32.4723 11.0001V8.97606H38.5443C39.0723 8.97606 39.4243 9.32806 39.4243 9.85606L39.2483 15.9281ZM15.1363 28.52C16.1043 28.52 16.8963 27.728 16.8963 26.76C16.8963 25.792 16.1043 25 15.1363 25C14.1683 25 13.3763 25.792 13.3763 26.76C13.3763 27.816 14.1683 28.52 15.1363 28.52ZM22.0003 28.52C22.9683 28.52 23.7603 27.728 23.7603 26.76C23.7603 25.792 22.9683 25 22.0003 25C21.0323 25 20.2403 25.792 20.2403 26.76C20.3283 27.816 21.0323 28.52 22.0003 28.52ZM28.9523 28.52C29.9203 28.52 30.7123 27.728 30.7123 26.76C30.7123 25.792 29.9203 25 28.9523 25C27.9843 25 27.1923 25.792 27.1923 26.76C27.1923 27.816 27.9843 28.52 28.9523 28.52Z" fill="url(#paint0_linear_7853_1645)"/>
<defs>
<linearGradient id="paint0_linear_7853_1645" x1="10.7814" y1="39.2481" x2="43.6347" y2="27.8934" gradientUnits="userSpaceOnUse">
<stop stop-color="#FE5000"/>
<stop offset="1" stop-color="#FCA92A"/>
</linearGradient>
</defs>
</svg>
