<svg width="56" height="56" viewBox="0 0 56 56" fill="none" xmlns="http://www.w3.org/2000/svg">
<path d="M45.7727 53H20.6818C17.7545 53 15.4545 50.7083 15.4545 47.7917V16.5417C15.4545 13.625 17.7545 11.3333 20.6818 11.3333H45.7727C48.7 11.3333 51 13.625 51 16.5417V47.7917C51 50.7083 48.7 53 45.7727 53ZM20.6818 13.4167C18.9045 13.4167 17.5455 14.7708 17.5455 16.5417V47.7917C17.5455 49.5625 18.9045 50.9167 20.6818 50.9167H45.7727C47.55 50.9167 48.9091 49.5625 48.9091 47.7917V16.5417C48.9091 14.7708 47.55 13.4167 45.7727 13.4167H20.6818ZM12.3182 46.75H10.2273C7.3 46.75 5 44.4583 5 41.5417V8.20833C5 5.29167 7.3 3 10.2273 3H35.3182C38.2455 3 40.5455 5.29167 40.5455 8.20833C40.5455 8.83333 40.1273 9.25 39.5 9.25C38.8727 9.25 38.4545 8.83333 38.4545 8.20833C38.4545 6.4375 37.0955 5.08333 35.3182 5.08333H10.2273C8.45 5.08333 7.09091 6.4375 7.09091 8.20833V41.5417C7.09091 43.3125 8.45 44.6667 10.2273 44.6667H12.3182C12.9455 44.6667 13.3636 45.0833 13.3636 45.7083C13.3636 46.3333 12.9455 46.75 12.3182 46.75ZM41.5909 38.4167H24.8636C24.2364 38.4167 23.8182 38 23.8182 37.375C23.8182 36.75 24.2364 36.3333 24.8636 36.3333H41.5909C42.2182 36.3333 42.6364 36.75 42.6364 37.375C42.6364 38 42.2182 38.4167 41.5909 38.4167ZM41.5909 46.75H24.8636C24.2364 46.75 23.8182 46.3333 23.8182 45.7083C23.8182 45.0833 24.2364 44.6667 24.8636 44.6667H41.5909C42.2182 44.6667 42.6364 45.0833 42.6364 45.7083C42.6364 46.3333 42.2182 46.75 41.5909 46.75ZM41.5909 30.0833H24.8636C24.2364 30.0833 23.8182 29.6667 23.8182 29.0417C23.8182 28.4167 24.2364 28 24.8636 28H41.5909C42.2182 28 42.6364 28.4167 42.6364 29.0417C42.6364 29.6667 42.2182 30.0833 41.5909 30.0833ZM41.5909 21.75H24.8636C24.2364 21.75 23.8182 21.3333 23.8182 20.7083C23.8182 20.0833 24.2364 19.6667 24.8636 19.6667H41.5909C42.2182 19.6667 42.6364 20.0833 42.6364 20.7083C42.6364 21.3333 42.2182 21.75 41.5909 21.75Z" fill="url(#paint0_linear_8425_9737)"/>
<defs>
<linearGradient id="paint0_linear_8425_9737" x1="14.4875" y1="53" x2="55.3928" y2="41.2222" gradientUnits="userSpaceOnUse">
<stop stop-color="#FE5000"/>
<stop offset="1" stop-color="#FCA92A"/>
</linearGradient>
</defs>
</svg>
