<svg width="56" height="56" viewBox="0 0 56 56" fill="none" xmlns="http://www.w3.org/2000/svg">
<g clip-path="url(#clip0_8425_9687)">
<path d="M52.7088 13.746H46.2159L43.4318 7.70902C43.2627 7.33859 42.8054 7.16839 42.4375 7.33859L39.713 8.61007L31.4602 2.67317C31.1321 2.43289 30.6548 2.51299 30.4162 2.85338L22.7002 13.746H3.29115C2.87354 13.746 2.54541 14.0864 2.54541 14.4969V41.4983C2.54541 41.9087 2.88348 42.2491 3.29115 42.2491H9.78405L12.5681 48.2861C12.7372 48.6566 13.1846 48.8268 13.5625 48.6566L16.2869 47.3851L24.5397 53.322C24.8679 53.5623 25.3451 53.4822 25.5838 53.1418L33.2997 42.2491H52.6988C53.1164 42.2491 53.4446 41.9087 53.4446 41.4983V14.4969C53.4545 14.0864 53.1164 13.746 52.7088 13.746ZM42.3877 9.02054L44.5653 13.746H32.2656L42.3877 9.02054ZM31.2017 4.34511L38.1619 9.34091L28.7258 13.746H24.5397L31.2017 4.34511ZM20.0454 35.4813V40.6573C20.0454 40.6873 20.0454 40.7174 20.0554 40.7474H15.571C15.571 40.7174 15.5809 40.6873 15.5809 40.6573V35.4813V34.0796V15.2478H20.0554V34.0796V35.4813H20.0454ZM4.03689 40.7474V15.2478H14.1789V34.0796H9.7045C9.31672 34.0796 9.00848 34.39 9.00848 34.7805C9.00848 35.1709 9.31672 35.4813 9.7045 35.4813H14.1789V40.6573C14.1789 40.6873 14.1789 40.7174 14.1889 40.7474H4.03689ZM13.6122 46.9746L11.4346 42.2491H23.7343L13.6122 46.9746ZM24.7983 51.6601L17.838 46.6643L27.2741 42.2591H31.4602L24.7983 51.6601ZM51.963 40.7474H21.4375C21.4375 40.7174 21.4474 40.6873 21.4474 40.6573V35.4813H34.1747C34.5625 35.4813 34.8707 35.1709 34.8707 34.7805C34.8707 34.39 34.5625 34.0796 34.1747 34.0796H21.4375V15.2478H23.0781H45.7287H51.963V40.7474ZM39.2457 24.1181H40.5483V19.5728H44.2869C46.4147 19.5728 47.6079 20.6541 47.6079 22.5162C47.6079 24.3884 46.4147 25.4997 44.2869 25.4997H42.1392V26.4207H45.0028V27.2918H42.1392V29.234H40.5483V27.2918H39.2457V26.4207H40.5483V25.4997H39.2457V24.1181ZM44.0582 24.1181C45.4801 24.1181 46.017 23.5074 46.017 22.5162C46.017 21.5251 45.4801 20.9444 44.0582 20.9444H42.1392V24.1181H44.0582Z" fill="url(#paint0_linear_8425_9687)"/>
</g>
<defs>
<linearGradient id="paint0_linear_8425_9687" x1="13.0434" y1="53.4605" x2="57.6894" y2="39.495" gradientUnits="userSpaceOnUse">
<stop stop-color="#FE5000"/>
<stop offset="1" stop-color="#FCA92A"/>
</linearGradient>
<clipPath id="clip0_8425_9687">
<rect width="50.9091" height="50.9091" fill="white" transform="translate(2.54541 2.54547)"/>
</clipPath>
</defs>
</svg>
