<svg width="56" height="56" viewBox="0 0 56 56" fill="none" xmlns="http://www.w3.org/2000/svg">
<path d="M48.282 28.2361V21.9757C48.282 19.8495 46.6296 18.0776 44.5052 17.9595L38.7219 7.80104C38.1318 6.85607 37.3056 6.14733 36.2434 5.91109C35.1812 5.67485 34.119 5.79297 33.1748 6.26546L13.3466 17.8414H9.80582C7.56334 17.8414 5.79297 19.6132 5.79297 21.8575V46.1906C5.79297 48.4349 7.56334 50.2068 9.80582 50.2068H44.1511C46.3936 50.2068 48.1639 48.4349 48.1639 46.1906V39.9302C49.3442 39.4577 50.1704 38.3946 50.1704 37.0952V31.071C50.4064 29.7717 49.4622 28.5905 48.282 28.2361ZM34.355 8.03728C34.8271 7.80104 35.2992 7.68292 35.8893 7.80104C36.3614 7.91916 36.8335 8.27353 37.0696 8.74601L39.076 12.1715C38.1318 12.5259 37.1876 12.7622 36.2434 12.7622C34.119 12.7622 32.1125 11.8172 30.6962 10.0454L34.355 8.03728ZM28.9259 11.1084C30.6962 13.4709 33.2928 14.7702 36.1254 14.7702C37.4237 14.7702 38.7219 14.4159 39.9022 13.9434L42.1447 17.8414H17.3594L28.9259 11.1084ZM46.2755 46.1906C46.2755 47.2537 45.3313 48.1987 44.2691 48.1987H9.92384C8.86162 48.1987 7.91742 47.2537 7.91742 46.1906V21.9757C7.91742 20.9126 8.86162 19.9676 9.92384 19.9676H44.2691C45.3313 19.9676 46.2755 20.9126 46.2755 21.9757V27.9999H40.2563C36.9516 27.9999 34.237 30.7167 34.237 34.0241C34.237 37.3315 36.9516 40.0483 40.2563 40.0483H46.2755V46.1906ZM48.282 37.0952C48.282 37.6859 47.8099 38.1583 47.2197 38.1583H40.1382C37.8958 38.1583 36.1254 36.3865 36.1254 34.1422C36.1254 31.8979 37.8958 30.1261 40.1382 30.1261H47.2197C47.8099 30.1261 48.282 30.5985 48.282 31.1892V37.0952ZM40.2563 32.016C39.194 32.016 38.2498 32.961 38.2498 34.0241C38.2498 35.0872 39.194 36.0321 40.2563 36.0321C41.3185 36.0321 42.2627 35.0872 42.2627 34.0241C42.2627 32.961 41.3185 32.016 40.2563 32.016Z" fill="url(#paint0_linear_8425_9766)"/>
<defs>
<linearGradient id="paint0_linear_8425_9766" x1="14.9533" y1="50.2068" x2="53.9069" y2="38.0156" gradientUnits="userSpaceOnUse">
<stop stop-color="#FE5000"/>
<stop offset="1" stop-color="#FCA92A"/>
</linearGradient>
</defs>
</svg>
