<svg width="56" height="56" viewBox="0 0 56 56" fill="none" xmlns="http://www.w3.org/2000/svg">
<path fill-rule="evenodd" clip-rule="evenodd" d="M5.0999 9.21055C5.0999 8.6796 5.26428 7.8627 5.72201 7.21159C6.13943 6.61782 6.83629 6.10002 8.11101 6.10002H8.13044H8.15016H8.17019H8.19052H8.21115H8.23208H8.25331H8.27483H8.29666H8.31877H8.34119H8.36389H8.38689H8.41018H8.43376H8.45763H8.48179H8.50624H8.53098H8.556H8.5813H8.60689H8.63277H8.65892H8.68536H8.71208H8.73907H8.76635H8.7939H8.82173H8.84983H8.87821H8.90686H8.93578H8.96498H8.99445H9.02418H9.05419H9.08446H9.115H9.1458H9.17687H9.20821H9.2398H9.27166H9.30378H9.33616H9.3688H9.4017H9.43485H9.46826H9.50193H9.53585H9.57002H9.60445H9.63913H9.67406H9.70923H9.74466H9.78033H9.81625H9.85242H9.88883H9.92548H9.96238H9.99952H10.0369H10.0745H10.1124H10.1505H10.1888H10.2274H10.2662H10.3052H10.3445H10.384H10.4237H10.4637H10.5039H10.5443H10.585H10.6258H10.6669H10.7083H10.7498H10.7916H10.8336H10.8758H10.9182H10.9609H11.0038H11.0469H11.0902H11.1337H11.1774H11.2214H11.2655H11.3099H11.3545H11.3993H11.4443H11.4895H11.5349H11.5805H11.6263H11.6723H11.7186H11.765H11.8116H11.8585H11.9055H11.9527H12.0001H12.0478H12.0956H12.1436H12.1918H12.2402H12.2887H12.3375H12.3865H12.4356H12.485H12.5345H12.5842H12.6341H12.6842H12.7344H12.7848H12.8355H12.8863H12.9372H12.9884H13.0397H13.0912H13.1429H13.1948H13.2468H13.299H13.3514H13.4039H13.4566H13.5095H13.5625H13.6157H13.6691H13.7226H13.7763H13.8302H13.8842H13.9384H13.9928H14.0473H14.1019H14.1567H14.2117H14.2668H14.3221H14.3775H14.4331H14.4889H14.5447H14.6008H14.657H14.7133H14.7698H14.8264H14.8831H14.94H14.9971H15.0543H15.1116H15.1691H15.2267H15.2844H15.3423H15.4003H15.4584H15.5167H15.5751H15.6337H15.6924H15.7512H15.8101H15.8692H15.9283H15.9876H16.0471H16.1066H16.1663H16.2261H16.2861H16.3461H16.4063H16.4666H16.527H16.5875H16.6481H16.7088H16.7697H16.8307H16.8918H16.9529H17.0142H17.0757H17.1372H17.1988H17.2605H17.3224H17.3843H17.4463H17.5085H17.5707H17.6331H17.6955H17.758H17.8207H17.8834H17.9462H18.0092H18.0722H18.1353H18.1985H18.2617H18.3251H18.3886H18.4521H18.5158H18.5795H18.6433H18.7072H18.7712H18.8352H18.8994H18.9636H19.0279H19.0922H19.1567H19.2212H19.2858H19.3505H19.4152H19.48H19.5449H19.6099H19.6749H19.74H19.8051H19.8704H19.9357H20.001H20.0664H20.1319H20.1975H20.2631H20.3287H20.3944H20.4602H20.5261H20.5919H20.6579H20.7239H20.7899H20.856H20.9222H20.9884H21.0546H21.1209H21.1873H21.2537H21.3201H21.3866H21.4531H21.5197H21.5863H21.653H21.7196H21.7864H21.8531H21.9199H21.9868H22.0536H22.1205H22.1875H22.2544H22.3214H22.3885H22.4555H22.5226H22.5897H22.6568H22.724H22.7912H22.8584H22.9256H22.9929H23.0601H23.1274H23.1947H23.2621H23.3294H23.3968H23.4641H23.5315H23.5989H23.6663H23.7337H23.8012H23.8686H23.936H24.0035H24.0709H24.1384H24.2059H24.2733H24.3408H24.4083H24.4757H24.5432H24.6107H24.6781H24.7456H24.813H24.8805H24.9479H25.0154H25.0828H25.1502H25.2176H25.285H25.3524H25.4197H25.4871H25.5544H25.6217H25.689H25.7563H25.8236H25.8908H25.958H26.0252H26.0924H26.1596H26.2267H26.2938H26.3609H26.4279H26.4949H26.5619H26.6289H26.6958H26.7627H26.8296H26.8964H26.9632H27.0299H27.0966H27.1633H27.2299H27.2965H27.3631H27.4296H27.4961H27.5625H27.6289H27.6952H27.7615H27.8277H27.8939H27.96H28.0261H28.0922H28.1581H28.2241H28.2899H28.3558H28.4215H28.4872H28.5529H28.6184H28.684H28.7494H28.8148H28.8802H28.9454H29.0106H29.0758H29.1408H29.2058H29.2708H29.3356H29.4004H29.4651H29.5298H29.5944H29.6589H29.7233H29.7876H29.8519H29.9161H29.9802H30.0442H30.1082H30.172H30.2358H30.2995H30.3631H30.4266H30.4901H30.5534H30.6167H30.6798H30.7429H30.8059H30.8688H30.9316H30.9943H31.0569H31.1194H31.1818H31.2441H31.3063H31.3684H31.4304H31.4923H31.5541H31.6158H31.6774H31.7389H31.8003H31.8615H31.9227H31.9837H32.0447H32.1055H32.1662H32.2268H32.2873H32.3476H32.4079H32.468H32.528H32.5879H32.6476H32.7073H32.7668H32.8262H32.8855H32.9446H33.0036H33.0625H33.1213H33.1799H33.2384H33.2968H33.355H33.4131H33.4711H33.5289H33.5866H33.6442H33.7016H33.7589H33.816H33.873H33.9299H33.9866H34.0432H34.0996H34.1559H34.212H34.268H34.3238H34.3795H34.435H34.4904H34.5457H34.6007H34.6556H34.7104H34.765H34.8195H34.8738H34.9279H34.9819H35.0357H35.0893H35.1428H35.1961H35.2493H35.3023H35.3551H35.4077H35.4602H35.5125H35.5647H35.6166H35.6684H35.7201H35.7715H35.8228H35.8739H35.9248H35.9755H36.0261H36.0765H36.1267H36.1767H36.2265H36.2762H36.3256H36.3749C37.2358 6.10002 38.0982 6.32247 38.7325 6.87931C39.3381 7.41091 39.8999 8.39171 39.8999 10.2632V10.269V10.2748V10.2806V10.2865V10.2924V10.2983V10.3042V10.3102V10.3161V10.3221V10.3281V10.3342V10.3402V10.3463V10.3524V10.3585V10.3647V10.3709V10.377V10.3833V10.3895V10.3957V10.402V10.4083V10.4146V10.421V10.4273V10.4337V10.4401V10.4466V10.453V10.4595V10.466V10.4725V10.479V10.4856V10.4921V10.4987V10.5054V10.512V10.5187V10.5254V10.5321V10.5388V10.5455V10.5523V10.5591V10.5659V10.5727V10.5796V10.5865V10.5934V10.6003V10.6072V10.6142V10.6212V10.6282V10.6352V10.6422V10.6493V10.6564V10.6635V10.6706V10.6778V10.6849V10.6921V10.6993V10.7066V10.7138V10.7211V10.7284V10.7357V10.743V10.7504V10.7578V10.7652V10.7726V10.78V10.7875V10.795V10.8025V10.81V10.8175V10.8251V10.8327V10.8403V10.8479V10.8556V10.8632V10.8709V10.8786V10.8864V10.8941V10.9019V10.9097V10.9175V10.9253V10.9331V10.941V10.9489V10.9568V10.9647V10.9727V10.9807V10.9887V10.9967V11.0047V11.0128V11.0208V11.0289V11.037V11.0452V11.0533V11.0615V11.0697V11.0779V11.0861V11.0944V11.1026V11.1109V11.1192V11.1276V11.1359V11.1443V11.1527V11.1611V11.1695V11.178V11.1865V11.1949V11.2035V11.212V11.2205V11.2291V11.2377V11.2463V11.2549V11.2636V11.2722V11.2809V11.2896V11.2984V11.3071V11.3159V11.3246V11.3334V11.3423V11.3511V11.36V11.3689V11.3778V11.3867V11.3956V11.4046V11.4135V11.4225V11.4316V11.4406V11.4496V11.4587V11.4678V11.4769V11.486V11.4952V11.5044V11.5136V11.5228V11.532V11.5412V11.5505V11.5598V11.5691V11.5784V11.5877V11.5971V11.6065V11.6159V11.6253V11.6347V11.6442V11.6536V11.6631V11.6726V11.6822V11.6917V11.7013V11.7109V11.7205V11.7301V11.7397V11.7494V11.7591V11.7688V11.7785V11.7882V11.798V11.8077V11.8175V11.8273V11.8372V11.847V11.8569V11.8667V11.8766V11.8866V11.8965V11.9064V11.9164V11.9264V11.9364V11.9464V11.9565V11.9665V11.9766V11.9867V11.9968V12.007V12.0171V12.0273V12.0375V12.0477V12.0579V12.0682V12.0784V12.0887V12.099V12.1093V12.1197V12.13V12.1404V12.1508V12.1612V12.1716V12.1821V12.1925V12.203V12.2135V12.224V12.2345V12.2451V12.2556V12.2662V12.2768V12.2874V12.2981V12.3087V12.3194V12.3301V12.3408V12.3515V12.3623V12.373V12.3838V12.3946V12.4054V12.4162V12.4271V12.438V12.4488V12.4597V12.4707V12.4816V12.4925V12.5035V12.5145V12.5255V12.5365V12.5476V12.5586V12.5697V12.5808V12.5919V12.603V12.6141V12.6253V12.6365V12.6477V12.6589V12.6701V12.6813V12.6926V12.7039V12.7152V12.7265V12.7378V12.7491V12.7605V12.7719V12.7833V12.7947V12.8061V12.8176V12.829V12.8405V12.852V12.8635V12.875V12.8866V12.8981V12.9097V12.9213V12.9329V12.9446V12.9562V12.9679V12.9795V12.9912V13.0029V13.0147V13.0264V13.0382V13.05V13.0617V13.0736V13.0854V13.0972V13.1091V13.121V13.1328V13.1448V13.1567V13.1686V13.1806V13.1925V13.2045V13.2165V13.2286V13.2406V13.2526V13.2647V13.2768V13.2889V13.301V13.3132V13.3253V13.3375V13.3496V13.3618V13.3741V13.3863V13.3985V13.4108V13.4231V13.4354V13.4477V13.46V13.4723V13.4847V13.4971V13.5094V13.5218V13.5343V13.5467V13.5591V13.5716V13.5841V13.5966V13.6091V13.6216V13.6342V13.6467V13.6593V13.6719V13.6845V13.6971V13.7098V13.7224V13.7351V13.7478V13.7605V13.7732V13.7859V13.7986V13.8114V13.8242V13.837V13.8498V13.8626V13.8754V13.8883V13.9011V13.914V13.9269V13.9398V13.9527V13.9657V13.9786V13.9916V14.0046V14.0176V14.0306V14.0436V14.0567V14.0697V14.0828V14.0959V14.109V14.1221V14.1353V14.1484V14.1616V14.1748V14.188V14.2012V14.2144V14.2276V14.2409V14.2542V14.2674V14.2807V14.294V14.3074V14.3207V14.3341V14.3474V14.3608V14.3742V14.3876V14.4011V14.4145V14.428V14.4414V14.4549V14.4684V14.4819V14.4955V14.509V14.5226V14.5361V14.5497V14.5633V14.5769V14.5906V14.6042V14.6179V14.6315V14.6452V14.6589V14.6726V14.6864V14.7001V14.7138V14.7276V14.7414V14.7552V14.769V14.7828V14.7967V14.8105V14.8244V14.8383V14.8522V14.8661V14.88V14.8939V14.9H39.8802H39.8148H39.7494H39.684H39.6184H39.5529H39.4872H39.4215H39.3558H39.2899H39.2241H39.1581H39.0922H39.0261H38.96H38.8939H38.8277H38.7615H38.6952H38.6289H38.5625H38.4961H38.4296H38.3631H38.2965H38.2299H38.1633H38.0966H38.0299H37.9632H37.8964H37.8296H37.7627H37.6958H37.6289H37.5619H37.4949H37.4279H37.3609H37.2938H37.2267H37.1596H37.0924H37.0252H36.958H36.8908H36.8236H36.7563H36.689H36.6217H36.5544H36.4871H36.4197H36.3524H36.285H36.2176H36.1502H36.0828H36.0154H35.9479H35.8805H35.813H35.7456H35.6781H35.6107H35.5432H35.4757H35.4083H35.3408H35.2733H35.2059H35.1384H35.0709H35.0035H34.936H34.8686H34.8012H34.7337H34.6663H34.5989H34.5315H34.4641H34.3968H34.3294H34.2621H34.1947H34.1274H34.0601H33.9929H33.9256H33.8584H33.7912H33.724H33.6568H33.5897H33.5226H33.4555H33.3885H33.3214H33.2544H33.1875H33.1205H33.0536H32.9868H32.9199H32.8531H32.7864H32.7196H32.653H32.5863H32.5197H32.4531H32.3866H32.3201H32.2537H32.1873H32.1209H32.0546H31.9884H31.9222H31.856H31.7899H31.7239H31.6579H31.5919H31.5261H31.4602H31.3944H31.3287H31.2631H31.1975H31.1319H31.0664H31.001H30.9357H30.8704H30.8051H30.74H30.6749H30.6099H30.5449H30.48H30.4152H30.3505H30.2858H30.2212H30.1567H30.0922H30.0279H29.9636H29.8994H29.8352H29.7712H29.7072H29.6433H29.5795H29.5158H29.4521H29.3886H29.3251H29.2617H29.1985H29.1353H29.0722H29.0092H28.9462H28.8834H28.8207H28.758H28.6955H28.6331H28.5707H28.5085H28.4463H28.3843H28.3224H28.2605H28.1988H28.1372H28.0757H28.0143H27.9529H27.8918H27.8307H27.7697H27.7088H27.6481H27.5875H27.527H27.4666H27.4063H27.3461H27.2861H27.2261H27.1663H27.1066H27.0471H26.9877H26.9283H26.8692H26.8101H26.7512H26.6924H26.6337H26.5751H26.5167H26.4584H26.4003H26.3423H26.2844H26.2267H26.1691H26.1116H26.0543H25.9971H25.94H25.8831H25.8264H25.7698H25.7133H25.657H25.6008H25.5447H25.4889H25.4331H25.3775H25.3221H25.2668H25.2117H25.1567H25.1019H25.0473H24.9928H24.9384H24.8842H24.8302H24.7763H24.7226H24.6691H24.6157H24.5625H24.5095H24.4566H24.4039H24.3514H24.299H24.2468H24.1948H24.1429H24.0912H24.0397H23.9884H23.9372H23.8863H23.8355H23.7848H23.7344H23.6842H23.6341H23.5842H23.5345H23.485H23.4356H23.3865H23.3375H23.2887H23.2402H23.1918H23.1436H23.0956H23.0478H23.0001H22.9527H22.9055H22.8585H22.8116H22.765H22.7186H22.6723H22.6263H22.5805H22.5349H22.4895H22.4443H22.3993H22.3545H22.3099H22.2655H22.2214H22.1774H22.1337H22.0902H22.0469H22.0038H21.9609H21.9182H21.8758H21.8336H21.7916H21.7498H21.7083H21.6669H21.6258H21.585H21.5443H21.5039H21.4637H21.4237H21.384H21.3445H21.3052H21.2662H21.2274H21.1888H21.1505H21.1124H21.0745H21.0369H20.9995H20.9624H20.9255H20.8888H20.8524H20.8163H20.7803H20.7447H20.7092H20.6741H20.6391H20.6045H20.57H20.5359H20.5019H20.4683H20.4349H20.4017H20.3688H20.3362H20.3038H20.2717H20.2398H20.2082H20.1769H20.1458H20.115H20.0845H20.0542H20.0242H19.9944H19.965H19.9358H19.9069H19.8782H19.8498H19.8217H19.7939H19.7663H19.7391H19.7121H19.6854H19.6589H19.6328H19.6069H19.5813H19.556H19.531H19.5062H19.4818H19.4576H19.4338H19.4102H19.3869H19.3639H19.3412H19.3188H19.2967H19.2748H19.2533H19.2321H19.2112H19.1905H19.1702H19.1502H19.1304H19.111C17.1084 14.9 15.7504 15.7584 14.9297 16.8975C14.1493 17.9806 13.8999 19.2473 13.8999 20.1081V33.9H13.8919H13.8784H13.865H13.8515H13.8381H13.8246H13.8112H13.7978H13.7844H13.771H13.7576H13.7442H13.7308H13.7174H13.704H13.6907H13.6773H13.6639H13.6506H13.6373H13.6239H13.6106H13.5973H13.584H13.5707H13.5574H13.5441H13.5308H13.5175H13.5042H13.491H13.4777H13.4645H13.4513H13.438H13.4248H13.4116H13.3984H13.3852H13.372H13.3588H13.3456H13.3324H13.3193H13.3061H13.293H13.2798H13.2667H13.2536H13.2405H13.2273H13.2142H13.2012H13.1881H13.175H13.1619H13.1488H13.1358H13.1227H13.1097H13.0967H13.0837H13.0706H13.0576H13.0446H13.0316H13.0186H13.0057H12.9927H12.9797H12.9668H12.9538H12.9409H12.928H12.9151H12.9022H12.8892H12.8764H12.8635H12.8506H12.8377H12.8249H12.812H12.7992H12.7863H12.7735H12.7607H12.7479H12.7351H12.7223H12.7095H12.6967H12.6839H12.6712H12.6584H12.6457H12.6329H12.6202H12.6075H12.5948H12.5821H12.5694H12.5567H12.544H12.5314H12.5187H12.5061H12.4934H12.4808H12.4682H12.4556H12.4429H12.4304H12.4178H12.4052H12.3926H12.3801H12.3675H12.355H12.3424H12.3299H12.3174H12.3049H12.2924H12.2799H12.2674H12.255H12.2425H12.2301H12.2176H12.2052H12.1928H12.1803H12.1679H12.1555H12.1432H12.1308H12.1184H12.1061H12.0937H12.0814H12.069H12.0567H12.0444H12.0321H12.0198H12.0075H11.9953H11.983H11.9707H11.9585H11.9463H11.934H11.9218H11.9096H11.8974H11.8852H11.8731H11.8609H11.8488H11.8366H11.8245H11.8123H11.8002H11.7881H11.776H11.7639H11.7519H11.7398H11.7277H11.7157H11.7037H11.6916H11.6796H11.6676H11.6556H11.6436H11.6316H11.6197H11.6077H11.5958H11.5838H11.5719H11.56H11.5481H11.5362H11.5243H11.5124H11.5006H11.4887H11.4769H11.4651H11.4532H11.4414H11.4296H11.4178H11.406H11.3943H11.3825H11.3708H11.359H11.3473H11.3356H11.3239H11.3122H11.3005H11.2888H11.2772H11.2655H11.2539H11.2422H11.2306H11.219H11.2074H11.1958H11.1843H11.1727H11.1611H11.1496H11.1381H11.1265H11.115H11.1035H11.092H11.0806H11.0691H11.0576H11.0462H11.0348H11.0233H11.0119H11.0005H10.9891H10.9778H10.9664H10.955H10.9437H10.9324H10.921H10.9097H10.8984H10.8871H10.8759H10.8646H10.8534H10.8421H10.8309H10.8197H10.8085H10.7973H10.7861H10.7749H10.7637H10.7526H10.7415H10.7303H10.7192H10.7081H10.697H10.686H10.6749H10.6638H10.6528H10.6418H10.6307H10.6197H10.6087H10.5977H10.5868H10.5758H10.5649H10.5539H10.543H10.5321H10.5212H10.5103H10.4994H10.4886H10.4777H10.4669H10.456H10.4452H10.4344H10.4236H10.4128H10.4021H10.3913H10.3806H10.3699H10.3591H10.3484H10.3377H10.3271H10.3164H10.3057H10.2951H10.2845H10.2738H10.2632H10.2526H10.2421H10.2315H10.2209H10.2104H10.1999H10.1893H10.1788H10.1683H10.1579H10.1474H10.1369H10.1265H10.1161H10.1056H10.0952H10.0848H10.0745H10.0641H10.0538H10.0434H10.0331H10.0228H10.0125H10.0022H9.9919H9.98164H9.97139H9.96116H9.95093H9.94072H9.93053H9.92034H9.91017H9.90001H9.88987H9.87974H9.86962H9.85952H9.84942H9.83935H9.82928H9.81923H9.80919H9.79917H9.78915H9.77916H9.76917H9.7592H9.74924H9.7393H9.72937H9.71945H9.70954H9.69965H9.68978H9.67991H9.67006H9.66023H9.6504H9.6406H9.6308H9.62102H9.61125H9.6015H9.59176H9.58203H9.57232H9.56262H9.55293H9.54326H9.5336H9.52396H9.51433H9.50472H9.49511H9.48553H9.47595H9.46639H9.45685H9.44732H9.4378H9.42829H9.4188H9.40933H9.39987H9.39042H9.38099H9.37157H9.36216H9.35277H9.3434H9.33404H9.32469H9.31536H9.30604H9.29673H9.28744H9.27817H9.26891H9.25966H9.25043H9.24121H9.232H9.22282H9.21364H9.20448H9.19534H9.1862H9.17709H9.16799H9.1589H9.14983H9.14077H9.13173H9.1227H9.11369H9.10469H9.0957H9.08673H9.07778H9.06884H9.05992H9.05101H9.04211H9.03323H9.02437H9.01552H9.00668H8.99786H8.98906H8.98027H8.97149H8.96273H8.95399H8.94526H8.93654H8.92784H8.91916H8.91049H8.90183H8.89319H8.88457H8.87596H8.86737H8.85879H8.85023H8.84168H8.83315H8.82463H8.81613H8.80765H8.79918H8.79072H8.78228H8.77386H8.76545H8.75706H8.74868H8.74032H8.73197H8.72364H8.71533H8.70703H8.69875H8.69048H8.68223H8.67399H8.66577H8.65756H8.64937H8.6412H8.63304H8.6249C7.94496 33.9 7.05114 33.7777 6.35455 33.3021C5.73329 32.8779 5.0999 32.0591 5.0999 30.2632V9.21055ZM13.8999 36.1H13.8919H13.8784H13.865H13.8515H13.8381H13.8246H13.8112H13.7978H13.7844H13.771H13.7576H13.7442H13.7308H13.7174H13.704H13.6907H13.6773H13.6639H13.6506H13.6373H13.6239H13.6106H13.5973H13.584H13.5707H13.5574H13.5441H13.5308H13.5175H13.5042H13.491H13.4777H13.4645H13.4513H13.438H13.4248H13.4116H13.3984H13.3852H13.372H13.3588H13.3456H13.3324H13.3193H13.3061H13.293H13.2798H13.2667H13.2536H13.2405H13.2273H13.2142H13.2012H13.1881H13.175H13.1619H13.1488H13.1358H13.1227H13.1097H13.0967H13.0837H13.0706H13.0576H13.0446H13.0316H13.0186H13.0057H12.9927H12.9797H12.9668H12.9538H12.9409H12.928H12.9151H12.9022H12.8892H12.8764H12.8635H12.8506H12.8377H12.8249H12.812H12.7992H12.7863H12.7735H12.7607H12.7479H12.7351H12.7223H12.7095H12.6967H12.6839H12.6712H12.6584H12.6457H12.6329H12.6202H12.6075H12.5948H12.5821H12.5694H12.5567H12.544H12.5314H12.5187H12.5061H12.4934H12.4808H12.4682H12.4556H12.4429H12.4304H12.4178H12.4052H12.3926H12.3801H12.3675H12.355H12.3424H12.3299H12.3174H12.3049H12.2924H12.2799H12.2674H12.255H12.2425H12.2301H12.2176H12.2052H12.1928H12.1803H12.1679H12.1555H12.1432H12.1308H12.1184H12.1061H12.0937H12.0814H12.069H12.0567H12.0444H12.0321H12.0198H12.0075H11.9953H11.983H11.9707H11.9585H11.9463H11.934H11.9218H11.9096H11.8974H11.8852H11.8731H11.8609H11.8488H11.8366H11.8245H11.8123H11.8002H11.7881H11.776H11.7639H11.7519H11.7398H11.7277H11.7157H11.7037H11.6916H11.6796H11.6676H11.6556H11.6436H11.6316H11.6197H11.6077H11.5958H11.5838H11.5719H11.56H11.5481H11.5362H11.5243H11.5124H11.5006H11.4887H11.4769H11.4651H11.4532H11.4414H11.4296H11.4178H11.406H11.3943H11.3825H11.3708H11.359H11.3473H11.3356H11.3239H11.3122H11.3005H11.2888H11.2772H11.2655H11.2539H11.2422H11.2306H11.219H11.2074H11.1958H11.1843H11.1727H11.1611H11.1496H11.1381H11.1265H11.115H11.1035H11.092H11.0806H11.0691H11.0576H11.0462H11.0348H11.0233H11.0119H11.0005H10.9891H10.9778H10.9664H10.955H10.9437H10.9324H10.921H10.9097H10.8984H10.8871H10.8759H10.8646H10.8534H10.8421H10.8309H10.8197H10.8085H10.7973H10.7861H10.7749H10.7637H10.7526H10.7415H10.7303H10.7192H10.7081H10.697H10.686H10.6749H10.6638H10.6528H10.6418H10.6307H10.6197H10.6087H10.5977H10.5868H10.5758H10.5649H10.5539H10.543H10.5321H10.5212H10.5103H10.4994H10.4886H10.4777H10.4669H10.456H10.4452H10.4344H10.4236H10.4128H10.4021H10.3913H10.3806H10.3699H10.3591H10.3484H10.3377H10.3271H10.3164H10.3057H10.2951H10.2845H10.2738H10.2632H10.2526H10.2421H10.2315H10.2209H10.2104H10.1999H10.1893H10.1788H10.1683H10.1579H10.1474H10.1369H10.1265H10.1161H10.1056H10.0952H10.0848H10.0745H10.0641H10.0538H10.0434H10.0331H10.0228H10.0125H10.0022H9.9919H9.98164H9.97139H9.96116H9.95093H9.94072H9.93053H9.92034H9.91017H9.90001H9.88987H9.87974H9.86962H9.85952H9.84942H9.83935H9.82928H9.81923H9.80919H9.79917H9.78915H9.77916H9.76917H9.7592H9.74924H9.7393H9.72937H9.71945H9.70954H9.69965H9.68978H9.67991H9.67006H9.66023H9.6504H9.6406H9.6308H9.62102H9.61125H9.6015H9.59176H9.58203H9.57232H9.56262H9.55293H9.54326H9.5336H9.52396H9.51433H9.50472H9.49511H9.48553H9.47595H9.46639H9.45685H9.44732H9.4378H9.42829H9.4188H9.40933H9.39987H9.39042H9.38099H9.37157H9.36216H9.35277H9.3434H9.33404H9.32469H9.31536H9.30604H9.29673H9.28744H9.27817H9.26891H9.25966H9.25043H9.24121H9.232H9.22282H9.21364H9.20448H9.19534H9.1862H9.17709H9.16799H9.1589H9.14983H9.14077H9.13173H9.1227H9.11369H9.10469H9.0957H9.08673H9.07778H9.06884H9.05992H9.05101H9.04211H9.03323H9.02437H9.01552H9.00668H8.99786H8.98906H8.98027H8.97149H8.96273H8.95399H8.94526H8.93654H8.92784H8.91916H8.91049H8.90183H8.89319H8.88457H8.87596H8.86737H8.85879H8.85023H8.84168H8.83315H8.82463H8.81613H8.80765H8.79918H8.79072H8.78228H8.77386H8.76545H8.75706H8.74868H8.74032H8.73197H8.72364H8.71533H8.70703H8.69875H8.69048H8.68223H8.67399H8.66577H8.65756H8.64937H8.6412H8.63304H8.6249C7.76318 36.1 6.3445 35.9592 5.11401 35.119C3.80818 34.2274 2.8999 32.6778 2.8999 30.2632V9.21055C2.8999 8.33799 3.14664 7.04963 3.92224 5.94635C4.73815 4.78573 6.09685 3.90002 8.11101 3.90002H8.13044H8.15016H8.17019H8.19052H8.21115H8.23208H8.25331H8.27483H8.29666H8.31877H8.34119H8.36389H8.38689H8.41018H8.43376H8.45763H8.48179H8.50624H8.53098H8.556H8.5813H8.60689H8.63277H8.65892H8.68536H8.71208H8.73907H8.76635H8.7939H8.82173H8.84983H8.87821H8.90686H8.93578H8.96498H8.99445H9.02418H9.05419H9.08446H9.115H9.1458H9.17687H9.20821H9.2398H9.27166H9.30378H9.33616H9.3688H9.4017H9.43485H9.46826H9.50193H9.53585H9.57002H9.60445H9.63913H9.67406H9.70923H9.74466H9.78033H9.81625H9.85242H9.88883H9.92548H9.96238H9.99952H10.0369H10.0745H10.1124H10.1505H10.1888H10.2274H10.2662H10.3052H10.3445H10.384H10.4237H10.4637H10.5039H10.5443H10.585H10.6258H10.6669H10.7083H10.7498H10.7916H10.8336H10.8758H10.9182H10.9609H11.0038H11.0469H11.0902H11.1337H11.1774H11.2214H11.2655H11.3099H11.3545H11.3993H11.4443H11.4895H11.5349H11.5805H11.6263H11.6723H11.7186H11.765H11.8116H11.8585H11.9055H11.9527H12.0001H12.0478H12.0956H12.1436H12.1918H12.2402H12.2887H12.3375H12.3865H12.4356H12.485H12.5345H12.5842H12.6341H12.6842H12.7344H12.7848H12.8355H12.8863H12.9372H12.9884H13.0397H13.0912H13.1429H13.1948H13.2468H13.299H13.3514H13.4039H13.4566H13.5095H13.5625H13.6157H13.6691H13.7226H13.7763H13.8302H13.8842H13.9384H13.9928H14.0473H14.1019H14.1567H14.2117H14.2668H14.3221H14.3775H14.4331H14.4889H14.5447H14.6008H14.657H14.7133H14.7698H14.8264H14.8831H14.94H14.9971H15.0543H15.1116H15.1691H15.2267H15.2844H15.3423H15.4003H15.4584H15.5167H15.5751H15.6337H15.6924H15.7512H15.8101H15.8692H15.9283H15.9876H16.0471H16.1066H16.1663H16.2261H16.2861H16.3461H16.4063H16.4666H16.527H16.5875H16.6481H16.7088H16.7697H16.8307H16.8918H16.9529H17.0142H17.0757H17.1372H17.1988H17.2605H17.3224H17.3843H17.4463H17.5085H17.5707H17.6331H17.6955H17.758H17.8207H17.8834H17.9462H18.0092H18.0722H18.1353H18.1985H18.2617H18.3251H18.3886H18.4521H18.5158H18.5795H18.6433H18.7072H18.7712H18.8352H18.8994H18.9636H19.0279H19.0922H19.1567H19.2212H19.2858H19.3505H19.4152H19.48H19.5449H19.6099H19.6749H19.74H19.8051H19.8704H19.9357H20.001H20.0664H20.1319H20.1975H20.2631H20.3287H20.3944H20.4602H20.5261H20.5919H20.6579H20.7239H20.7899H20.856H20.9222H20.9884H21.0546H21.1209H21.1873H21.2537H21.3201H21.3866H21.4531H21.5197H21.5863H21.653H21.7196H21.7864H21.8531H21.9199H21.9868H22.0536H22.1205H22.1875H22.2544H22.3214H22.3885H22.4555H22.5226H22.5897H22.6568H22.724H22.7912H22.8584H22.9256H22.9929H23.0601H23.1274H23.1947H23.2621H23.3294H23.3968H23.4641H23.5315H23.5989H23.6663H23.7337H23.8012H23.8686H23.936H24.0035H24.0709H24.1384H24.2059H24.2733H24.3408H24.4083H24.4757H24.5432H24.6107H24.6781H24.7456H24.813H24.8805H24.9479H25.0154H25.0828H25.1502H25.2176H25.285H25.3524H25.4197H25.4871H25.5544H25.6217H25.689H25.7563H25.8236H25.8908H25.958H26.0252H26.0924H26.1596H26.2267H26.2938H26.3609H26.4279H26.4949H26.5619H26.6289H26.6958H26.7627H26.8296H26.8964H26.9632H27.0299H27.0966H27.1633H27.2299H27.2965H27.3631H27.4296H27.4961H27.5625H27.6289H27.6952H27.7615H27.8277H27.8939H27.96H28.0261H28.0922H28.1581H28.2241H28.2899H28.3558H28.4215H28.4872H28.5529H28.6184H28.684H28.7494H28.8148H28.8802H28.9454H29.0106H29.0758H29.1408H29.2058H29.2708H29.3356H29.4004H29.4651H29.5298H29.5944H29.6589H29.7233H29.7876H29.8519H29.9161H29.9802H30.0442H30.1082H30.172H30.2358H30.2995H30.3631H30.4266H30.4901H30.5534H30.6167H30.6798H30.7429H30.8059H30.8688H30.9316H30.9943H31.0569H31.1194H31.1818H31.2441H31.3063H31.3684H31.4304H31.4923H31.5541H31.6158H31.6774H31.7389H31.8003H31.8615H31.9227H31.9837H32.0447H32.1055H32.1662H32.2268H32.2873H32.3476H32.4079H32.468H32.528H32.5879H32.6476H32.7073H32.7668H32.8262H32.8855H32.9446H33.0036H33.0625H33.1213H33.1799H33.2384H33.2968H33.355H33.4131H33.4711H33.5289H33.5866H33.6442H33.7016H33.7589H33.816H33.873H33.9299H33.9866H34.0432H34.0996H34.1559H34.212H34.268H34.3238H34.3795H34.435H34.4904H34.5457H34.6007H34.6556H34.7104H34.765H34.8195H34.8738H34.9279H34.9819H35.0357H35.0893H35.1428H35.1961H35.2493H35.3023H35.3551H35.4077H35.4602H35.5125H35.5647H35.6166H35.6684H35.7201H35.7715H35.8228H35.8739H35.9248H35.9755H36.0261H36.0765H36.1267H36.1767H36.2265H36.2762H36.3256H36.3749C37.5696 3.90002 39.0196 4.20389 40.1839 5.226C41.377 6.27335 42.0999 7.92412 42.0999 10.2632V10.269V10.2748V10.2806V10.2865V10.2924V10.2983V10.3042V10.3102V10.3161V10.3221V10.3281V10.3342V10.3402V10.3463V10.3524V10.3585V10.3647V10.3709V10.377V10.3833V10.3895V10.3957V10.402V10.4083V10.4146V10.421V10.4273V10.4337V10.4401V10.4466V10.453V10.4595V10.466V10.4725V10.479V10.4856V10.4921V10.4987V10.5054V10.512V10.5187V10.5254V10.5321V10.5388V10.5455V10.5523V10.5591V10.5659V10.5727V10.5796V10.5865V10.5934V10.6003V10.6072V10.6142V10.6212V10.6282V10.6352V10.6422V10.6493V10.6564V10.6635V10.6706V10.6778V10.6849V10.6921V10.6993V10.7066V10.7138V10.7211V10.7284V10.7357V10.743V10.7504V10.7578V10.7652V10.7726V10.78V10.7875V10.795V10.8025V10.81V10.8175V10.8251V10.8327V10.8403V10.8479V10.8556V10.8632V10.8709V10.8786V10.8864V10.8941V10.9019V10.9097V10.9175V10.9253V10.9331V10.941V10.9489V10.9568V10.9647V10.9727V10.9807V10.9887V10.9967V11.0047V11.0128V11.0208V11.0289V11.037V11.0452V11.0533V11.0615V11.0697V11.0779V11.0861V11.0944V11.1026V11.1109V11.1192V11.1276V11.1359V11.1443V11.1527V11.1611V11.1695V11.178V11.1865V11.1949V11.2035V11.212V11.2205V11.2291V11.2377V11.2463V11.2549V11.2636V11.2722V11.2809V11.2896V11.2984V11.3071V11.3159V11.3246V11.3334V11.3423V11.3511V11.36V11.3689V11.3778V11.3867V11.3956V11.4046V11.4135V11.4225V11.4316V11.4406V11.4496V11.4587V11.4678V11.4769V11.486V11.4952V11.5044V11.5136V11.5228V11.532V11.5412V11.5505V11.5598V11.5691V11.5784V11.5877V11.5971V11.6065V11.6159V11.6253V11.6347V11.6442V11.6536V11.6631V11.6726V11.6822V11.6917V11.7013V11.7109V11.7205V11.7301V11.7397V11.7494V11.7591V11.7688V11.7785V11.7882V11.798V11.8077V11.8175V11.8273V11.8372V11.847V11.8569V11.8667V11.8766V11.8866V11.8965V11.9064V11.9164V11.9264V11.9364V11.9464V11.9565V11.9665V11.9766V11.9867V11.9968V12.007V12.0171V12.0273V12.0375V12.0477V12.0579V12.0682V12.0784V12.0887V12.099V12.1093V12.1197V12.13V12.1404V12.1508V12.1612V12.1716V12.1821V12.1925V12.203V12.2135V12.224V12.2345V12.2451V12.2556V12.2662V12.2768V12.2874V12.2981V12.3087V12.3194V12.3301V12.3408V12.3515V12.3623V12.373V12.3838V12.3946V12.4054V12.4162V12.4271V12.438V12.4488V12.4597V12.4707V12.4816V12.4925V12.5035V12.5145V12.5255V12.5365V12.5476V12.5586V12.5697V12.5808V12.5919V12.603V12.6141V12.6253V12.6365V12.6477V12.6589V12.6701V12.6813V12.6926V12.7039V12.7152V12.7265V12.7378V12.7491V12.7605V12.7719V12.7833V12.7947V12.8061V12.8176V12.829V12.8405V12.852V12.8635V12.875V12.8866V12.8981V12.9097V12.9213V12.9329V12.9446V12.9562V12.9679V12.9795V12.9912V13.0029V13.0147V13.0264V13.0382V13.05V13.0617V13.0736V13.0854V13.0972V13.1091V13.121V13.1328V13.1448V13.1567V13.1686V13.1806V13.1925V13.2045V13.2165V13.2286V13.2406V13.2526V13.2647V13.2768V13.2889V13.301V13.3132V13.3253V13.3375V13.3496V13.3618V13.3741V13.3863V13.3985V13.4108V13.4231V13.4354V13.4477V13.46V13.4723V13.4847V13.4971V13.5094V13.5218V13.5343V13.5467V13.5591V13.5716V13.5841V13.5966V13.6091V13.6216V13.6342V13.6467V13.6593V13.6719V13.6845V13.6971V13.7098V13.7224V13.7351V13.7478V13.7605V13.7732V13.7859V13.7986V13.8114V13.8242V13.837V13.8498V13.8626V13.8754V13.8883V13.9011V13.914V13.9269V13.9398V13.9527V13.9657V13.9786V13.9916V14.0046V14.0176V14.0306V14.0436V14.0567V14.0697V14.0828V14.0959V14.109V14.1221V14.1353V14.1484V14.1616V14.1748V14.188V14.2012V14.2144V14.2276V14.2409V14.2542V14.2674V14.2807V14.294V14.3074V14.3207V14.3341V14.3474V14.3608V14.3742V14.3876V14.4011V14.4145V14.428V14.4414V14.4549V14.4684V14.4819V14.4955V14.509V14.5226V14.5361V14.5497V14.5633V14.5769V14.5906V14.6042V14.6179V14.6315V14.6452V14.6589V14.6726V14.6864V14.7001V14.7138V14.7276V14.7414V14.7552V14.769V14.7828V14.7967V14.8105V14.8244V14.8383V14.8522V14.8661V14.88V14.8939V14.9H42.1194H42.1818H42.2441H42.3063H42.3684H42.4304H42.4923H42.5541H42.6158H42.6774H42.7389H42.8003H42.8615H42.9227H42.9837H43.0447H43.1055H43.1662H43.2268H43.2873H43.3476H43.4079H43.468H43.528H43.5879H43.6476H43.7073H43.7668H43.8262H43.8855H43.9446H44.0036H44.0625H44.1213H44.1799H44.2384H44.2968H44.355H44.4131H44.4711H44.5289H44.5866H44.6442H44.7016H44.7589H44.816H44.873H44.9299H44.9866H45.0432H45.0996H45.1559H45.212H45.268H45.3238H45.3795H45.435H45.4904H45.5457H45.6007H45.6556H45.7104H45.765H45.8195H45.8738H45.9279H45.9819H46.0357H46.0893H46.1428H46.1961H46.2493H46.3023H46.3551H46.4077H46.4602H46.5125H46.5647H46.6166H46.6684H46.7201H46.7715H46.8228H46.8739H46.9248H46.9755H47.0261H47.0765H47.1267H47.1767H47.2265H47.2762H47.3256H47.3749C48.5636 14.9 50.0096 15.1945 51.1738 16.1916C52.3711 17.2171 53.0999 18.8385 53.0999 21.1352V21.1594V21.1841V21.2091V21.2346V21.2604V21.2866V21.3132V21.3401V21.3675V21.3952V21.4233V21.4518V21.4807V21.5099V21.5395V21.5695V21.5998V21.6306V21.6616V21.6931V21.7249V21.7571V21.7896V21.8225V21.8558V21.8894V21.9234V21.9577V21.9924V22.0274V22.0628V22.0985V22.1346V22.171V22.2078V22.2449V22.2823V22.3201V22.3583V22.3967V22.4355V22.4747V22.5142V22.554V22.5941V22.6346V22.6754V22.7165V22.758V22.7997V22.8418V22.8843V22.927V22.9701V23.0134V23.0571V23.1011V23.1455V23.1901V23.235V23.2803V23.3258V23.3717V23.4179V23.4644V23.5111V23.5582V23.6056V23.6533V23.7012V23.7495V23.7981V23.8469V23.8961V23.9455V23.9952V24.0453V24.0956V24.1461V24.197V24.2481V24.2996V24.3513V24.4033V24.4555V24.5081V24.5609V24.6139V24.6673V24.7209V24.7748V24.8289V24.8834V24.938V24.993V25.0482V25.1037V25.1594V25.2154V25.2716V25.3281V25.3848V25.4418V25.4991V25.5566V25.6143V25.6723V25.7305V25.789V25.8477V25.9066V25.9658V26.0253V26.0849V26.1448V26.205V26.2653V26.3259V26.3868V26.4478V26.5091V26.5706V26.6323V26.6943V26.7565V26.8188V26.8815V26.9443V27.0073V27.0706V27.1341V27.1977V27.2616V27.3257V27.39V27.4545V27.5193V27.5842V27.6493V27.7146V27.7801V27.8459V27.9118V27.9779V28.0442V28.1107V28.1774V28.2443V28.3113V28.3786V28.446V28.5136V28.5814V28.6494V28.7176V28.7859V28.8544V28.9231V28.992V29.061V29.1302V29.1996V29.2692V29.3389V29.4088V29.4788V29.549V29.6194V29.6899V29.7606V29.8315V29.9025V29.9736V30.0449V30.1164V30.188V30.2598V30.3317V30.4038V30.476V30.5483V30.6208V30.6935V30.7662V30.8391V30.9122V30.9854V31.0587V31.1321V31.2057V31.2794V31.3533V31.4272V31.5013V31.5756V31.6499V31.7244V31.799V31.8737V31.9485V32.0234V32.0985V32.1736V32.2489V32.3243V32.3998V32.4754V32.5511V32.6269V32.7029V32.7789V32.855V32.9312V33.0076V33.084V33.1605V33.2371V33.3138V33.3906V33.4675V33.5445V33.6215V33.6987V33.7759V33.8532V33.9306V34.0081V34.0857V34.1633V34.241V34.3188V34.3967V34.4746V34.5526V34.6307V34.7088V34.787V34.8653V34.9436V35.022V35.1005V35.179V35.2576V35.3362V35.4149V35.4937V35.5725V35.6513V35.7302V35.8092V35.8882V35.9672V36.0463V36.1254V36.2046V36.2838V36.3631V36.4424V36.5217V36.601V36.6804V36.7599V36.8393V36.9188V36.9983V37.0779V37.1574V37.237V37.3167V37.3963V37.4759V37.5556V37.6353V37.715V37.7947V37.8745V37.9542V38.034V38.1137V38.1935V38.2733V38.3531V38.4329V38.5127V38.5925V38.6722V38.752V38.8318V38.9116V38.9914V39.0711V39.1509V39.2306V39.3104V39.3901V39.4698V39.5495V39.6292V39.7088V39.7885V39.8681V39.9477V40.0272V40.1068V40.1863V40.2658V40.3452V40.4246V40.504V40.5834V40.6627V40.742V40.8213V40.9005V40.9796V41.0588V41.1378V41.2169V41.2959V41.3748V41.4537V41.5326V41.6113V41.6901V41.7688V41.8474V41.926V42.0045V42.0829V42.1613V42.2397V42.3179V42.3961V42.4743V42.5523V42.6303V42.7083V42.7861V42.8639V42.9416V43.0192V43.0968V43.1742V43.2516V43.3289V43.4062V43.4833V43.5603V43.6373V43.7142V43.791V43.8677V43.9443V44.0208V44.0972V44.1735V44.2497V44.3258V44.4018V44.4777V44.5536V44.6293V44.7048V44.7803V44.8557V44.931V45.0061V45.0812V45.1561V45.2309V45.3056V45.3802V45.4546V45.5289V45.6032V45.6772V45.7512V45.825V45.8987V45.9723V46.0457V46.119V46.1922V46.2652V46.3381V46.4109V46.4835V46.556V46.6283V46.7005V46.7725V46.8444V46.9162V46.9878V47.0592V47.1305V47.2017V47.2727V47.3435V47.4142V47.4847V47.555V47.6252V47.6953V47.7651V47.8348V47.9044V47.9737V48.0429V48.1119V48.1808V48.2495V48.318V48.3863V48.4544V48.5224V48.5902V48.6578V48.7252V48.7924V48.8594V48.9263V48.993V49.0594V49.1257V49.1918V49.2577V49.3234V49.3889V49.4542V49.5193V49.5842V49.6489V49.7134V49.7777V49.8417V49.9056V49.9693V50.0327V50.0959V50.159V50.2218V50.2844V50.3467V50.4089V50.4708V50.5325V50.594V50.6552V50.7163V50.7771V50.8376V50.898V50.9581V51.018V51.0776V51.137V51.1962V51.2551V51.3138V51.3722V51.4304V51.4884V51.5461V51.6036V51.6608V51.7178V51.7745V51.8309V51.8871V51.9431V51.9988V52.0542V52.1094V52.1643V52.219V52.2733V52.3275V52.3813V52.4349V52.4882V52.5413V52.5941V52.6466V52.6988V52.7507V52.8024V52.8538V52.9049V52.9558V53.0063V53.0566V53.1066V53.1562V53.2057V53.2548V53.3036V53.3521V53.4004V53.4483V53.4959V53.5433V53.5903V53.6371V53.6835V53.7297V53.7755V53.821V53.8662V53.9111V53.9557V54C53.0999 54.4574 52.8169 54.867 52.3891 55.0289C51.9613 55.1907 51.4781 55.0709 51.1753 54.7281C49.9396 53.3286 47.7427 51.2076 45.2169 49.4462C42.6552 47.6598 39.9341 46.3703 37.611 46.3703H37.5797H37.5482H37.5167H37.4851H37.4534H37.4217H37.3899H37.3579H37.326H37.2939H37.2617H37.2295H37.1972H37.1649H37.1324H37.0999H37.0673H37.0346H37.0019H36.9691H36.9362H36.9032H36.8702H36.8371H36.8039H36.7707H36.7373H36.7039H36.6705H36.637H36.6034H36.5697H36.5359H36.5021H36.4683H36.4343H36.4003H36.3663H36.3321H36.2979H36.2636H36.2293H36.1949H36.1604H36.1259H36.0913H36.0567H36.022H35.9872H35.9523H35.9174H35.8825H35.8475H35.8124H35.7772H35.742H35.7068H35.6714H35.6361H35.6006H35.5651H35.5296H35.494H35.4583H35.4226H35.3868H35.351H35.3151H35.2791H35.2431H35.2071H35.171H35.1348H35.0986H35.0624H35.0261H34.9897H34.9533H34.9168H34.8803H34.8437H34.8071H34.7704H34.7337H34.697H34.6602H34.6233H34.5864H34.5494H34.5124H34.4754H34.4383H34.4012H34.364H34.3268H34.2895H34.2522H34.2148H34.1774H34.14H34.1025H34.065H34.0274H33.9898H33.9522H33.9145H33.8768H33.839H33.8012H33.7633H33.7255H33.6875H33.6496H33.6116H33.5735H33.5355H33.4974H33.4592H33.4211H33.3828H33.3446H33.3063H33.268H33.2297H33.1913H33.1529H33.1144H33.0759H33.0374H32.9989H32.9603H32.9217H32.8831H32.8444H32.8058H32.767H32.7283H32.6895H32.6507H32.6119H32.573H32.5342H32.4953H32.4563H32.4174H32.3784H32.3394H32.3004H32.2613H32.2222H32.1831H32.144H32.1049H32.0657H32.0265H31.9873H31.9481H31.9088H31.8696H31.8303H31.791H31.7516H31.7123H31.6729H31.6335H31.5942H31.5547H31.5153H31.4759H31.4364H31.3969H31.3574H31.3179H31.2784H31.2389H31.1993H31.1598H31.1202H31.0806H31.041H31.0014H30.9618H30.9222H30.8825H30.8429H30.8032H30.7636H30.7239H30.6842H30.6445H30.6048H30.5651H30.5254H30.4857H30.446H30.4062H30.3665H30.3268H30.287H30.2473H30.2075H30.1678H30.128H30.0882H30.0485H30.0087H29.969H29.9292H29.8894H29.8497H29.8099H29.7701H29.7304H29.6906H29.6508H29.6111H29.5713H29.5316H29.4918H29.4521H29.4123H29.3726H29.3329H29.2931H29.2534H29.2137H29.174H29.1343H29.0946H29.0549H29.0152H28.9756H28.9359H28.8962H28.8566H28.817H28.7773H28.7377H28.6981H28.6585H28.619H28.5794H28.5398H28.5003H28.4608H28.4213H28.3818H28.3423H28.3028H28.2634H28.2239H28.1845H28.1451H28.1057H28.0663H28.027H27.9877H27.9483H27.909H27.8698H27.8305H27.7913H27.752H27.7128H27.6737H27.6345H27.5954H27.5563H27.5172H27.4781H27.4391H27.4H27.361H27.3221H27.2831H27.2442H27.2053H27.1665H27.1276H27.0888H27.05H27.0113H26.9725H26.9338H26.8951H26.8565H26.8179H26.7793H26.7407H26.7022H26.6637H26.6253H26.5868H26.5484H26.5101H26.4717H26.4334H26.3952H26.357H26.3188H26.2806H26.2425H26.2044H26.1663H26.1283H26.0903H26.0524H26.0145H25.9766H25.9388H25.901H25.8633H25.8256H25.7879H25.7503H25.7127H25.6751H25.6376H25.6002H25.5627H25.5253H25.488H25.4507H25.4135H25.3763H25.3391H25.302H25.2649H25.2279H25.1909H25.154H25.1171H25.0803H25.0435H25.0068H24.9701H24.9334H24.8968H24.8603H24.8238H24.7873H24.751H24.7146H24.6783H24.6421H24.6059H24.5698H24.5337H24.4977H24.4617H24.4258H24.3899H24.3541H24.3184H24.2827H24.247H24.2114H24.1759H24.1404H24.105H24.0697H24.0344H23.9992H23.964H23.9289H23.8938H23.8588H23.8239H23.789H23.7542H23.7194H23.6848H23.6501H23.6156H23.5811H23.5466H23.5123H23.478H23.4437H23.4095H23.3754H23.3414H23.3074H23.2735H23.2397H23.2059H23.1722H23.1386H23.105H23.0715H23.0381H23.0047H22.9714H22.9382H22.9051H22.872H22.839H22.8061H22.7732H22.7404H22.7077H22.6751H22.6425H22.61H22.5776H22.5453H22.513H22.4808H22.4487H22.4167H22.3847H22.3529H22.3211H22.2894H22.2577H22.2262H22.1947H22.1633H22.132H22.1007H22.0696H22.0385H22.0075H21.9766H21.9458H21.915H21.8844H21.8538H21.8233H21.7929H21.7626H21.7323H21.7022H21.6721H21.6421H21.6123H21.5825H21.5527H21.5231H21.4936H21.4641H21.4348H21.4055H21.3763H21.3472H21.3182H21.2893H21.2605H21.2318H21.2032H21.1746H21.1462H21.1178H21.0896H21.0614H21.0333H21.0054H20.9775H20.9497H20.922H20.8945H20.867H20.8396H20.8123H20.7851H20.758H20.731H20.7041H20.6773H20.6506H20.624H20.5975H20.5711H20.5448H20.5186H20.4925H20.4665H20.4407H20.4149H20.3892H20.3636H20.3382H20.3128H20.2876H20.2624H20.2374H20.2124H20.1876H20.1629H20.1383H20.1138H20.0894H20.0651H20.0409H20.0168H19.9929H19.969H19.9453H19.9217H19.8982H19.8748H19.8515H19.8283H19.8053H19.7823H19.7595H19.7368H19.7142H19.6917H19.6693H19.647H19.6249C18.7667 46.3703 17.3526 46.2337 16.1244 45.4155C14.8174 44.5448 13.8999 43.0235 13.8999 40.6487V36.1ZM16.0999 20.1081C16.0999 19.5996 16.2616 18.8123 16.7146 18.1836C17.1272 17.611 17.8247 17.1 19.111 17.1H19.1304H19.1502H19.1702H19.1905H19.2112H19.2321H19.2533H19.2748H19.2967H19.3188H19.3412H19.3639H19.3869H19.4102H19.4338H19.4576H19.4818H19.5062H19.531H19.556H19.5813H19.6069H19.6328H19.6589H19.6854H19.7121H19.7391H19.7663H19.7939H19.8217H19.8498H19.8782H19.9069H19.9358H19.965H19.9944H20.0242H20.0542H20.0845H20.115H20.1458H20.1769H20.2082H20.2398H20.2717H20.3038H20.3362H20.3688H20.4017H20.4349H20.4683H20.5019H20.5359H20.57H20.6045H20.6391H20.6741H20.7092H20.7447H20.7803H20.8163H20.8524H20.8888H20.9255H20.9624H20.9995H21.0369H21.0745H21.1124H21.1505H21.1888H21.2274H21.2662H21.3052H21.3445H21.384H21.4237H21.4637H21.5039H21.5443H21.585H21.6258H21.6669H21.7083H21.7498H21.7916H21.8336H21.8758H21.9182H21.9609H22.0038H22.0469H22.0902H22.1337H22.1774H22.2214H22.2655H22.3099H22.3545H22.3993H22.4443H22.4895H22.5349H22.5805H22.6263H22.6723H22.7186H22.765H22.8116H22.8585H22.9055H22.9527H23.0001H23.0478H23.0956H23.1436H23.1918H23.2402H23.2887H23.3375H23.3865H23.4356H23.485H23.5345H23.5842H23.6341H23.6842H23.7344H23.7848H23.8355H23.8863H23.9372H23.9884H24.0397H24.0912H24.1429H24.1948H24.2468H24.299H24.3514H24.4039H24.4566H24.5095H24.5625H24.6157H24.6691H24.7226H24.7763H24.8302H24.8842H24.9384H24.9928H25.0473H25.1019H25.1567H25.2117H25.2668H25.3221H25.3775H25.4331H25.4889H25.5447H25.6008H25.657H25.7133H25.7698H25.8264H25.8831H25.94H25.9971H26.0543H26.1116H26.1691H26.2267H26.2844H26.3423H26.4003H26.4584H26.5167H26.5751H26.6337H26.6924H26.7512H26.8101H26.8692H26.9283H26.9877H27.0471H27.1066H27.1663H27.2261H27.2861H27.3461H27.4063H27.4666H27.527H27.5875H27.6481H27.7088H27.7697H27.8307H27.8918H27.9529H28.0143H28.0757H28.1372H28.1988H28.2605H28.3224H28.3843H28.4463H28.5085H28.5707H28.6331H28.6955H28.758H28.8207H28.8834H28.9462H29.0092H29.0722H29.1353H29.1985H29.2617H29.3251H29.3886H29.4521H29.5158H29.5795H29.6433H29.7072H29.7712H29.8352H29.8994H29.9636H30.0279H30.0922H30.1567H30.2212H30.2858H30.3505H30.4152H30.48H30.5449H30.6099H30.6749H30.74H30.8051H30.8704H30.9357H31.001H31.0664H31.1319H31.1975H31.2631H31.3287H31.3944H31.4602H31.5261H31.5919H31.6579H31.7239H31.7899H31.856H31.9222H31.9884H32.0546H32.1209H32.1873H32.2537H32.3201H32.3866H32.4531H32.5197H32.5863H32.653H32.7196H32.7864H32.8531H32.9199H32.9868H33.0536H33.1205H33.1875H33.2544H33.3214H33.3885H33.4555H33.5226H33.5897H33.6568H33.724H33.7912H33.8584H33.9256H33.9929H34.0601H34.1274H34.1947H34.2621H34.3294H34.3968H34.4641H34.5315H34.5989H34.6663H34.7337H34.8012H34.8686H34.936H35.0035H35.0709H35.1384H35.2059H35.2733H35.3408H35.4083H35.4757H35.5432H35.6107H35.6781H35.7456H35.813H35.8805H35.9479H36.0154H36.0828H36.1502H36.2176H36.285H36.3524H36.4197H36.4871H36.5544H36.6217H36.689H36.7563H36.8236H36.8908H36.958H37.0252H37.0924H37.1596H37.2267H37.2938H37.3609H37.4279H37.4949H37.5619H37.6289H37.6958H37.7627H37.8296H37.8964H37.9632H38.0299H38.0966H38.1633H38.2299H38.2965H38.3631H38.4296H38.4961H38.5625H38.6289H38.6952H38.7615H38.8277H38.8939H38.96H39.0261H39.0922H39.1581H39.2241H39.2899H39.3558H39.4215H39.4872H39.5529H39.6184H39.684H39.7494H39.8148H39.8802H39.9454H40.0106H40.0758H40.1408H40.2058H40.2708H40.3356H40.4004H40.4651H40.5298H40.5944H40.6589H40.7233H40.7876H40.8519H40.9161H40.9802H41.0442H41.1082H41.172H41.2358H41.2995H41.3631H41.4266H41.4901H41.5534H41.6167H41.6798H41.7429H41.8059H41.8688H41.9316H41.9943H42.0569H42.1194H42.1818H42.2441H42.3063H42.3684H42.4304H42.4923H42.5541H42.6158H42.6774H42.7389H42.8003H42.8615H42.9227H42.9837H43.0447H43.1055H43.1662H43.2268H43.2873H43.3476H43.4079H43.468H43.528H43.5879H43.6476H43.7073H43.7668H43.8262H43.8855H43.9446H44.0036H44.0625H44.1213H44.1799H44.2384H44.2968H44.355H44.4131H44.4711H44.5289H44.5866H44.6442H44.7016H44.7589H44.816H44.873H44.9299H44.9866H45.0432H45.0996H45.1559H45.212H45.268H45.3238H45.3795H45.435H45.4904H45.5457H45.6007H45.6556H45.7104H45.765H45.8195H45.8738H45.9279H45.9819H46.0357H46.0893H46.1428H46.1961H46.2493H46.3023H46.3551H46.4077H46.4602H46.5125H46.5647H46.6166H46.6684H46.7201H46.7715H46.8228H46.8739H46.9248H46.9755H47.0261H47.0765H47.1267H47.1767H47.2265H47.2762H47.3256H47.3749C48.2418 17.1 49.1082 17.3191 49.7427 17.8625C50.344 18.3775 50.8999 19.3237 50.8999 21.1352V21.1594V21.1841V21.2091V21.2346V21.2604V21.2866V21.3132V21.3401V21.3675V21.3952V21.4233V21.4518V21.4807V21.5099V21.5395V21.5695V21.5998V21.6306V21.6616V21.6931V21.7249V21.7571V21.7896V21.8225V21.8558V21.8894V21.9234V21.9577V21.9924V22.0274V22.0628V22.0985V22.1346V22.171V22.2078V22.2449V22.2823V22.3201V22.3583V22.3967V22.4355V22.4747V22.5142V22.554V22.5941V22.6346V22.6754V22.7165V22.758V22.7997V22.8418V22.8843V22.927V22.9701V23.0134V23.0571V23.1011V23.1455V23.1901V23.235V23.2803V23.3258V23.3717V23.4179V23.4644V23.5111V23.5582V23.6056V23.6533V23.7012V23.7495V23.7981V23.8469V23.8961V23.9455V23.9952V24.0453V24.0956V24.1461V24.197V24.2481V24.2996V24.3513V24.4033V24.4555V24.5081V24.5609V24.6139V24.6673V24.7209V24.7748V24.8289V24.8834V24.938V24.993V25.0482V25.1037V25.1594V25.2154V25.2716V25.3281V25.3848V25.4418V25.4991V25.5566V25.6143V25.6723V25.7305V25.789V25.8477V25.9066V25.9658V26.0253V26.0849V26.1448V26.205V26.2653V26.3259V26.3868V26.4478V26.5091V26.5706V26.6323V26.6943V26.7565V26.8188V26.8815V26.9443V27.0073V27.0706V27.1341V27.1977V27.2616V27.3257V27.39V27.4545V27.5193V27.5842V27.6493V27.7146V27.7801V27.8459V27.9118V27.9779V28.0442V28.1107V28.1774V28.2443V28.3113V28.3786V28.446V28.5136V28.5814V28.6494V28.7176V28.7859V28.8544V28.9231V28.992V29.061V29.1302V29.1996V29.2692V29.3389V29.4088V29.4788V29.549V29.6194V29.6899V29.7606V29.8315V29.9025V29.9736V30.0449V30.1164V30.188V30.2598V30.3317V30.4038V30.476V30.5483V30.6208V30.6935V30.7662V30.8391V30.9122V30.9854V31.0587V31.1321V31.2057V31.2794V31.3533V31.4272V31.5013V31.5756V31.6499V31.7244V31.799V31.8737V31.9485V32.0234V32.0985V32.1736V32.2489V32.3243V32.3998V32.4754V32.5511V32.6269V32.7029V32.7789V32.855V32.9312V33.0076V33.084V33.1605V33.2371V33.3138V33.3906V33.4675V33.5445V33.6215V33.6987V33.7759V33.8532V33.9306V34.0081V34.0857V34.1633V34.241V34.3188V34.3967V34.4746V34.5526V34.6307V34.7088V34.787V34.8653V34.9436V35.022V35.1005V35.179V35.2576V35.3362V35.4149V35.4937V35.5725V35.6513V35.7302V35.8092V35.8882V35.9672V36.0463V36.1254V36.2046V36.2838V36.3631V36.4424V36.5217V36.601V36.6804V36.7599V36.8393V36.9188V36.9983V37.0779V37.1574V37.237V37.3167V37.3963V37.4759V37.5556V37.6353V37.715V37.7947V37.8745V37.9542V38.034V38.1137V38.1935V38.2733V38.3531V38.4329V38.5127V38.5925V38.6722V38.752V38.8318V38.9116V38.9914V39.0711V39.1509V39.2306V39.3104V39.3901V39.4698V39.5495V39.6292V39.7088V39.7885V39.8681V39.9477V40.0272V40.1068V40.1863V40.2658V40.3452V40.4246V40.504V40.5834V40.6627V40.742V40.8213V40.9005V40.9796V41.0588V41.1378V41.2169V41.2959V41.3748V41.4537V41.5326V41.6113V41.6901V41.7688V41.8474V41.926V42.0045V42.0829V42.1613V42.2397V42.3179V42.3961V42.4743V42.5523V42.6303V42.7083V42.7861V42.8639V42.9416V43.0192V43.0968V43.1742V43.2516V43.3289V43.4062V43.4833V43.5603V43.6373V43.7142V43.791V43.8677V43.9443V44.0208V44.0972V44.1735V44.2497V44.3258V44.4018V44.4777V44.5536V44.6293V44.7048V44.7803V44.8557V44.931V45.0061V45.0812V45.1561V45.2309V45.3056V45.3802V45.4546V45.5289V45.6032V45.6772V45.7512V45.825V45.8987V45.9723V46.0457V46.119V46.1922V46.2652V46.3381V46.4109V46.4835V46.556V46.6283V46.7005V46.7725V46.8444V46.9162V46.9878V47.0592V47.1305V47.2017V47.2727V47.3435V47.4142V47.4847V47.555V47.6252V47.6953V47.7651V47.8348V47.9044V47.9737V48.0429V48.1119V48.1808V48.2495V48.318V48.3863V48.4544V48.5224V48.5902V48.6578V48.7252V48.7924V48.8594V48.9263V48.993V49.0594V49.1257V49.1918V49.2577V49.3234V49.3889V49.4542V49.5193V49.5842V49.6489V49.7134V49.7777V49.8417V49.9056V49.9693V50.0327V50.0959V50.159V50.2218V50.2844V50.3467V50.4089V50.4708V50.5325V50.594V50.6552V50.7163V50.7771V50.8376V50.898V50.9581V51.018V51.0776V51.137V51.1962V51.2551V51.2842C49.6635 50.103 48.1392 48.802 46.4753 47.6417C43.821 45.7907 40.6324 44.1703 37.611 44.1703H37.5797H37.5482H37.5167H37.4851H37.4534H37.4217H37.3899H37.3579H37.326H37.2939H37.2617H37.2295H37.1972H37.1649H37.1324H37.0999H37.0673H37.0346H37.0019H36.9691H36.9362H36.9032H36.8702H36.8371H36.8039H36.7707H36.7373H36.7039H36.6705H36.637H36.6034H36.5697H36.5359H36.5021H36.4683H36.4343H36.4003H36.3663H36.3321H36.2979H36.2636H36.2293H36.1949H36.1604H36.1259H36.0913H36.0567H36.022H35.9872H35.9523H35.9174H35.8825H35.8475H35.8124H35.7772H35.742H35.7068H35.6714H35.6361H35.6006H35.5651H35.5296H35.494H35.4583H35.4226H35.3868H35.351H35.3151H35.2791H35.2431H35.2071H35.171H35.1348H35.0986H35.0624H35.0261H34.9897H34.9533H34.9168H34.8803H34.8437H34.8071H34.7704H34.7337H34.697H34.6602H34.6233H34.5864H34.5494H34.5124H34.4754H34.4383H34.4012H34.364H34.3268H34.2895H34.2522H34.2148H34.1774H34.14H34.1025H34.065H34.0274H33.9898H33.9522H33.9145H33.8768H33.839H33.8012H33.7633H33.7255H33.6875H33.6496H33.6116H33.5735H33.5355H33.4974H33.4592H33.4211H33.3828H33.3446H33.3063H33.268H33.2297H33.1913H33.1529H33.1144H33.0759H33.0374H32.9989H32.9603H32.9217H32.8831H32.8444H32.8058H32.767H32.7283H32.6895H32.6507H32.6119H32.573H32.5342H32.4953H32.4563H32.4174H32.3784H32.3394H32.3004H32.2613H32.2222H32.1831H32.144H32.1049H32.0657H32.0265H31.9873H31.9481H31.9088H31.8696H31.8303H31.791H31.7516H31.7123H31.6729H31.6335H31.5942H31.5547H31.5153H31.4759H31.4364H31.3969H31.3574H31.3179H31.2784H31.2389H31.1993H31.1598H31.1202H31.0806H31.041H31.0014H30.9618H30.9222H30.8825H30.8429H30.8032H30.7636H30.7239H30.6842H30.6445H30.6048H30.5651H30.5254H30.4857H30.446H30.4062H30.3665H30.3268H30.287H30.2473H30.2075H30.1678H30.128H30.0882H30.0485H30.0087H29.969H29.9292H29.8894H29.8497H29.8099H29.7701H29.7304H29.6906H29.6508H29.6111H29.5713H29.5316H29.4918H29.4521H29.4123H29.3726H29.3329H29.2931H29.2534H29.2137H29.174H29.1343H29.0946H29.0549H29.0152H28.9756H28.9359H28.8962H28.8566H28.817H28.7773H28.7377H28.6981H28.6585H28.619H28.5794H28.5398H28.5003H28.4608H28.4213H28.3818H28.3423H28.3028H28.2634H28.2239H28.1845H28.1451H28.1057H28.0663H28.027H27.9877H27.9483H27.909H27.8698H27.8305H27.7913H27.752H27.7128H27.6737H27.6345H27.5954H27.5563H27.5172H27.4781H27.4391H27.4H27.361H27.3221H27.2831H27.2442H27.2053H27.1665H27.1276H27.0888H27.05H27.0113H26.9725H26.9338H26.8951H26.8565H26.8179H26.7793H26.7407H26.7022H26.6637H26.6253H26.5868H26.5484H26.5101H26.4717H26.4334H26.3952H26.357H26.3188H26.2806H26.2425H26.2044H26.1663H26.1283H26.0903H26.0524H26.0145H25.9766H25.9388H25.901H25.8633H25.8256H25.7879H25.7503H25.7127H25.6751H25.6376H25.6002H25.5627H25.5253H25.488H25.4507H25.4135H25.3763H25.3391H25.302H25.2649H25.2279H25.1909H25.154H25.1171H25.0803H25.0435H25.0068H24.9701H24.9334H24.8968H24.8603H24.8238H24.7873H24.751H24.7146H24.6783H24.6421H24.6059H24.5698H24.5337H24.4977H24.4617H24.4258H24.3899H24.3541H24.3184H24.2827H24.247H24.2114H24.1759H24.1404H24.105H24.0697H24.0344H23.9992H23.964H23.9289H23.8938H23.8588H23.8239H23.789H23.7542H23.7194H23.6848H23.6501H23.6156H23.5811H23.5466H23.5123H23.478H23.4437H23.4095H23.3754H23.3414H23.3074H23.2735H23.2397H23.2059H23.1722H23.1386H23.105H23.0715H23.0381H23.0047H22.9714H22.9382H22.9051H22.872H22.839H22.8061H22.7732H22.7404H22.7077H22.6751H22.6425H22.61H22.5776H22.5453H22.513H22.4808H22.4487H22.4167H22.3847H22.3529H22.3211H22.2894H22.2577H22.2262H22.1947H22.1633H22.132H22.1007H22.0696H22.0385H22.0075H21.9766H21.9458H21.915H21.8844H21.8538H21.8233H21.7929H21.7626H21.7323H21.7022H21.6721H21.6421H21.6123H21.5825H21.5527H21.5231H21.4936H21.4641H21.4348H21.4055H21.3763H21.3472H21.3182H21.2893H21.2605H21.2318H21.2032H21.1746H21.1462H21.1178H21.0896H21.0614H21.0333H21.0054H20.9775H20.9497H20.922H20.8945H20.867H20.8396H20.8123H20.7851H20.758H20.731H20.7041H20.6773H20.6506H20.624H20.5975H20.5711H20.5448H20.5186H20.4925H20.4665H20.4407H20.4149H20.3892H20.3636H20.3382H20.3128H20.2876H20.2624H20.2374H20.2124H20.1876H20.1629H20.1383H20.1138H20.0894H20.0651H20.0409H20.0168H19.9929H19.969H19.9453H19.9217H19.8982H19.8748H19.8515H19.8283H19.8053H19.7823H19.7595H19.7368H19.7142H19.6917H19.6693H19.647H19.6249C18.9414 44.1703 18.043 44.0502 17.3441 43.5846C16.7241 43.1715 16.0999 42.3819 16.0999 40.6487V20.1081Z" fill="url(#paint0_linear_8425_9754)"/>
<path fill-rule="evenodd" clip-rule="evenodd" d="M24.8513 30.5555C26.2391 28.8592 28.7788 26.8447 31.8304 26.2646C34.7871 25.7024 38.413 26.4486 42.186 30.5989C42.5947 31.0484 43.2904 31.0815 43.7399 30.6729C44.1894 30.2642 44.2225 29.5685 43.8139 29.119C39.5869 24.4693 35.2128 23.3821 31.4195 24.1033C27.7211 24.8064 24.7607 27.1919 23.1486 29.1624C22.7639 29.6326 22.8332 30.3256 23.3034 30.7103C23.7736 31.095 24.4666 31.0257 24.8513 30.5555ZM33.4999 33C34.8806 33 35.9999 31.8807 35.9999 30.5C35.9999 29.1193 34.8806 28 33.4999 28C32.1192 28 30.9999 29.1193 30.9999 30.5C30.9999 31.8807 32.1192 33 33.4999 33Z" fill="url(#paint1_linear_8425_9754)"/>
<defs>
<linearGradient id="paint0_linear_8425_9754" x1="13.2537" y1="55.1001" x2="57.4345" y2="41.543" gradientUnits="userSpaceOnUse">
<stop stop-color="#FE5000"/>
<stop offset="1" stop-color="#FCA92A"/>
</linearGradient>
<linearGradient id="paint1_linear_8425_9754" x1="11.9999" y1="41.5" x2="46.4983" y2="19.9002" gradientUnits="userSpaceOnUse">
<stop stop-color="#FE5000"/>
<stop offset="1" stop-color="#FCA92A"/>
</linearGradient>
</defs>
</svg>
