<svg width="56" height="56" viewBox="0 0 56 56" fill="none" xmlns="http://www.w3.org/2000/svg">
<path fill-rule="evenodd" clip-rule="evenodd" d="M12.5902 3.03668C12.1103 3.03668 11.7212 3.42573 11.7212 3.90565V30.433H6.31186C5.9604 30.433 5.64354 30.6448 5.50904 30.9695C5.37454 31.2942 5.44889 31.6679 5.69741 31.9165L27.3862 53.6053C27.5492 53.7682 27.7702 53.8598 28.0006 53.8598C28.2311 53.8598 28.4521 53.7682 28.6151 53.6053L50.3039 31.9165C50.5524 31.6679 50.6268 31.2942 50.4923 30.9695C50.3578 30.6448 50.0409 30.433 49.6894 30.433H44.2801V3.90565C44.2801 3.42573 43.891 3.03668 43.4111 3.03668H12.5902ZM13.4592 31.302V4.77461H42.5421V31.302C42.5421 31.7819 42.9312 32.171 43.4111 32.171H47.5916L28.0006 51.7619L8.40973 32.171H12.5902C13.0701 32.171 13.4592 31.7819 13.4592 31.302ZM19.2097 24.036C20.0723 24.8046 21.1859 25.1889 22.5505 25.1889C23.8994 25.1889 25.0052 24.8046 25.8678 24.036C26.7462 23.2518 27.1853 22.2323 27.1853 20.9775C27.1853 19.7384 26.7462 18.7268 25.8678 17.9425C25.0052 17.174 23.8994 16.7897 22.5505 16.7897C21.1859 16.7897 20.0723 17.174 19.2097 17.9425C18.347 18.7111 17.9157 19.7227 17.9157 20.9775C17.9157 22.248 18.347 23.2675 19.2097 24.036ZM21.0448 22.4597C20.6527 22.0833 20.4566 21.5892 20.4566 20.9775C20.4566 20.3815 20.6527 19.9031 21.0448 19.5424C21.4369 19.1659 21.9388 18.9777 22.5505 18.9777C23.1622 18.9777 23.6641 19.1659 24.0562 19.5424C24.4641 19.9031 24.668 20.3815 24.668 20.9775C24.668 21.5892 24.4719 22.0833 24.0798 22.4597C23.6877 22.8205 23.1779 23.0008 22.5505 23.0008C21.9388 23.0008 21.4369 22.8205 21.0448 22.4597ZM29.6086 32.5528C30.4713 33.3214 31.5849 33.7057 32.9495 33.7057C34.2984 33.7057 35.4041 33.3214 36.2668 32.5528C37.1451 31.7686 37.5843 30.7491 37.5843 29.4943C37.5843 28.2552 37.1451 27.2436 36.2668 26.4593C35.4041 25.6908 34.2984 25.3065 32.9495 25.3065C31.5849 25.3065 30.4713 25.6908 29.6086 26.4593C28.746 27.2279 28.3146 28.2395 28.3146 29.4943C28.3146 30.7648 28.746 31.7843 29.6086 32.5528ZM31.4437 30.9765C31.0516 30.6001 30.8556 30.106 30.8556 29.4943C30.8556 28.8983 31.0516 28.4199 31.4437 28.0592C31.8359 27.6827 32.3378 27.4945 32.9495 27.4945C33.5612 27.4945 34.0631 27.6827 34.4552 28.0592C34.863 28.4199 35.0669 28.8983 35.0669 29.4943C35.0669 30.106 34.8709 30.6001 34.4787 30.9765C34.0866 31.3373 33.5769 31.5176 32.9495 31.5176C32.3378 31.5176 31.8359 31.3373 31.4437 30.9765ZM21.0448 32.6469L22.5976 33.7292L34.4552 17.8955L32.926 16.7426L21.0448 32.6469Z" fill="url(#paint0_linear_8425_9748)"/>
<defs>
<linearGradient id="paint0_linear_8425_9748" x1="5.44287" y1="53.8598" x2="55.9075" y2="9.06243" gradientUnits="userSpaceOnUse">
<stop stop-color="#FE5000"/>
<stop offset="1" stop-color="#FE9800"/>
</linearGradient>
</defs>
</svg>
