<svg width="56" height="56" viewBox="0 0 56 56" fill="none" xmlns="http://www.w3.org/2000/svg">
<path fill-rule="evenodd" clip-rule="evenodd" d="M9.88406 5.87417C6.57035 5.87417 3.88406 8.56046 3.88406 11.8742V12.9426V17.787V32.6955C3.88406 36.0092 6.57035 38.6955 9.88406 38.6955H11.5531C12.1054 38.6955 12.5531 38.2478 12.5531 37.6955C12.5531 37.1432 12.1054 36.6955 11.5531 36.6955H9.88406C7.67492 36.6955 5.88406 34.9046 5.88406 32.6955V18.787H50.116V32.6955C50.116 34.9046 48.3252 36.6955 46.116 36.6955H45.6547L45.6546 31.5724L45.6547 31.5648V26.3082C45.6547 25.3866 45.0934 24.6678 44.4474 24.1587C43.7902 23.6408 42.9011 23.218 41.8916 22.8815C39.8622 22.2051 37.1222 21.8038 34.1415 21.8038C31.1608 21.8038 28.4208 22.2051 26.3913 22.8815C25.3818 23.218 24.4928 23.6408 23.8355 24.1587C23.1895 24.6678 22.6283 25.3866 22.6283 26.3082V31.5648V36.8213V38.4649C20.0378 38.5438 17.6784 38.9273 15.8782 39.5274C14.8687 39.8639 13.9796 40.2866 13.3223 40.8045C12.6764 41.3136 12.1151 42.0324 12.1151 42.954V49.0868C12.1151 50.0084 12.6764 50.7272 13.3223 51.2363C13.9796 51.7542 14.8686 52.1769 15.8781 52.5134C17.9076 53.1899 20.6476 53.5912 23.6283 53.5912C26.609 53.5912 29.349 53.1899 31.3785 52.5134C32.3879 52.1769 33.277 51.7542 33.9343 51.2363C34.5802 50.7272 35.1415 50.0084 35.1415 49.0868V46.5671C37.732 46.4882 40.0914 46.1046 41.8916 45.5046C42.9011 45.1681 43.7902 44.7454 44.4474 44.2274C45.0934 43.7183 45.6546 42.9995 45.6546 42.0779L45.6546 38.6955H46.116C49.4298 38.6955 52.116 36.0092 52.116 32.6955V17.787V12.9426V11.8742C52.116 8.56046 49.4297 5.87417 46.116 5.87417H9.88406ZM50.116 16.787H5.88406V13.9426H50.116V16.787ZM50.116 11.9426H5.88406V11.8742C5.88406 9.66503 7.67492 7.87417 9.88406 7.87417H46.116C48.3252 7.87417 50.116 9.66503 50.116 11.8742V11.9426ZM24.6283 26.3082C24.6283 26.2621 24.6554 26.059 25.0735 25.7295C25.4802 25.409 26.1308 25.0766 27.0238 24.7789C28.7994 24.187 31.3159 23.8038 34.1415 23.8038C36.967 23.8038 39.4836 24.187 41.2592 24.7789C42.1522 25.0766 42.8028 25.409 43.2095 25.7295C43.6275 26.059 43.6547 26.2621 43.6547 26.3082C43.6547 26.3543 43.6275 26.5574 43.2095 26.8869C42.8028 27.2074 42.1522 27.5398 41.2592 27.8375C39.4836 28.4294 36.967 28.8126 34.1415 28.8126C31.3159 28.8126 28.7994 28.4294 27.0238 27.8375C26.1308 27.5398 25.4802 27.2074 25.0735 26.8869C24.6554 26.5574 24.6283 26.3543 24.6283 26.3082ZM41.8916 29.7349C42.5385 29.5192 43.136 29.2682 43.6546 28.9794L43.6547 31.5648L43.6546 31.5666C43.6539 31.616 43.6223 31.8182 43.2095 32.1435C42.8028 32.464 42.1522 32.7965 41.2592 33.0941C39.4836 33.686 36.967 34.0692 34.1415 34.0692C31.3159 34.0692 28.7994 33.686 27.0238 33.0941C26.1308 32.7965 25.4802 32.464 25.0735 32.1435C24.6554 31.8141 24.6283 31.611 24.6283 31.5648V28.9794C25.147 29.2682 25.7444 29.5192 26.3913 29.7349C28.4208 30.4113 31.1608 30.8126 34.1415 30.8126C37.1222 30.8126 39.8622 30.4113 41.8916 29.7349ZM41.8916 34.9915C42.5385 34.7759 43.136 34.5248 43.6546 34.236L43.6547 36.8213L43.6546 36.8239C43.6536 36.8746 43.6202 37.0763 43.2095 37.4C42.8028 37.7205 42.1522 38.0529 41.2592 38.3506C39.4836 38.9425 36.967 39.3257 34.1415 39.3257C31.3159 39.3257 28.7994 38.9425 27.0238 38.3506C26.1308 38.0529 25.4802 37.7205 25.0735 37.4C24.6554 37.0705 24.6283 36.8674 24.6283 36.8213V34.236C25.147 34.5248 25.7444 34.7759 26.3913 34.9915C28.4208 35.668 31.1608 36.0692 34.1415 36.0692C37.1222 36.0692 39.8622 35.668 41.8916 34.9915ZM41.8916 40.248C42.5385 40.0323 43.1359 39.7813 43.6546 39.4925L43.6546 42.0779C43.6546 42.124 43.6275 42.3271 43.2095 42.6566C42.8027 42.9771 42.1522 43.3095 41.2591 43.6072C39.696 44.1283 37.5585 44.4876 35.1415 44.5661V42.954C35.1415 42.3112 34.8684 41.7671 34.484 41.3239C37.3317 41.2945 39.9402 40.8985 41.8916 40.248ZM32.6963 42.3754C33.1143 42.7048 33.1415 42.9079 33.1415 42.954C33.1415 43.0001 33.1143 43.2032 32.6963 43.5327C32.2896 43.8532 31.639 44.1856 30.746 44.4833C28.9704 45.0752 26.4539 45.4584 23.6283 45.4584C20.8027 45.4584 18.2862 45.0752 16.5106 44.4833C15.6176 44.1856 14.967 43.8532 14.5603 43.5327C14.1423 43.2032 14.1151 43.0001 14.1151 42.954C14.1151 42.9079 14.1422 42.7048 14.5603 42.3754C14.967 42.0548 15.6176 41.7224 16.5106 41.4248C18.2862 40.8329 20.8027 40.4497 23.6283 40.4497C26.4539 40.4497 28.9704 40.8329 30.746 41.4248C31.639 41.7224 32.2896 42.0548 32.6963 42.3754ZM15.8781 46.3807C15.2312 46.165 14.6338 45.914 14.1151 45.6252V49.0868C14.1151 49.1329 14.1423 49.336 14.5603 49.6654C14.967 49.986 15.6176 50.3184 16.5106 50.6161C18.2862 51.2079 20.8027 51.5912 23.6283 51.5912C26.4539 51.5912 28.9704 51.2079 30.746 50.6161C31.639 50.3184 32.2896 49.986 32.6963 49.6654C33.1143 49.336 33.1415 49.1329 33.1415 49.0868V45.6252C32.6228 45.914 32.0253 46.165 31.3785 46.3807C29.349 47.0571 26.609 47.4584 23.6283 47.4584C20.6476 47.4584 17.9076 47.0571 15.8781 46.3807Z" fill="url(#paint0_linear_8425_9784)"/>
<defs>
<linearGradient id="paint0_linear_8425_9784" x1="13.7732" y1="53.6912" x2="56.1692" y2="40.28" gradientUnits="userSpaceOnUse">
<stop stop-color="#FE5000"/>
<stop offset="1" stop-color="#FCA92A"/>
</linearGradient>
</defs>
</svg>
