<svg width="56" height="56" viewBox="0 0 56 56" fill="none" xmlns="http://www.w3.org/2000/svg">
<path fill-rule="evenodd" clip-rule="evenodd" d="M24.2001 18.4249L28.3704 6.42748L32.5407 18.4249C33.1406 20.1508 34.7513 21.3209 36.5781 21.3582L49.277 21.617L39.1554 29.2905C37.6994 30.3944 37.0842 32.2878 37.6133 34.0367L41.2914 46.194L30.8656 38.9392C29.3659 37.8955 27.375 37.8955 25.8752 38.9392L15.4495 46.1941L19.1275 34.0367C19.6567 32.2878 19.0414 30.3944 17.5854 29.2905L7.46391 21.617L20.1628 21.3582C21.9896 21.3209 23.6002 20.1507 24.2001 18.4249ZM26.4166 5.04329C27.0605 3.19081 29.6804 3.19081 30.3243 5.04329L34.7132 17.6697C34.9973 18.4869 35.7599 19.041 36.6249 19.0587L49.9896 19.331C51.9504 19.371 52.76 21.8626 51.1972 23.0474L40.545 31.1234C39.8556 31.646 39.5642 32.5426 39.8148 33.3707L43.6857 46.1654C44.2536 48.0426 42.1341 49.5825 40.5243 48.4623L29.5519 40.8271C28.8418 40.3329 27.8991 40.3329 27.1889 40.8271L16.2166 48.4623C14.6068 49.5825 12.4873 48.0426 13.0552 46.1654L16.9261 33.3707C17.1766 32.5426 16.8853 31.646 16.1959 31.1233L5.5437 23.0474C3.98087 21.8626 4.79044 19.371 6.75124 19.331L20.1159 19.0587C20.9809 19.041 21.7436 18.4869 22.0276 17.6697L26.4166 5.04329ZM15.1319 8.84325C14.4387 9.24349 14.2012 10.1299 14.6014 10.8231L15.3261 12.0783C15.7263 12.7716 16.6128 13.0091 17.306 12.6088C17.9992 12.2086 18.2367 11.3222 17.8365 10.629L17.1118 9.37376C16.7116 8.68053 15.8252 8.44302 15.1319 8.84325ZM8.2552 36.9028C7.68919 37.4688 6.77149 37.4688 6.20547 36.9028C5.63945 36.3368 5.63945 35.4191 6.20547 34.853L7.23034 33.8282C7.79635 33.2622 8.71405 33.2622 9.28007 33.8282C9.84609 34.3942 9.84609 35.3119 9.28007 35.8779L8.2552 36.9028ZM28.3704 53.0493C29.1709 53.0493 29.8198 52.4004 29.8198 51.5999V50.1505C29.8198 49.35 29.1709 48.7011 28.3704 48.7011C27.5699 48.7011 26.921 49.35 26.921 50.1505V51.5999C26.921 52.4004 27.5699 53.0493 28.3704 53.0493ZM42.4758 10.8231C42.8761 10.1299 42.6385 9.24349 41.9453 8.84325C41.2521 8.44302 40.3657 8.68053 39.9654 9.37376L39.2407 10.629C38.8405 11.3222 39.078 12.2086 39.7712 12.6088C40.4645 13.0091 41.3509 12.7716 41.7511 12.0783L42.4758 10.8231ZM49.8624 34.853C50.4284 35.4191 50.4284 36.3368 49.8624 36.9028C49.2964 37.4688 48.3787 37.4688 47.8127 36.9028L46.7878 35.8779C46.2218 35.3119 46.2218 34.3942 46.7878 33.8282C47.3538 33.2622 48.2715 33.2622 48.8376 33.8282L49.8624 34.853Z" fill="url(#paint0_linear_8425_9727)"/>
<defs>
<linearGradient id="paint0_linear_8425_9727" x1="14.4765" y1="53.0493" x2="56.27" y2="40.5246" gradientUnits="userSpaceOnUse">
<stop stop-color="#FE5000"/>
<stop offset="1" stop-color="#FCA92A"/>
</linearGradient>
</defs>
</svg>
