<svg width="56" height="56" viewBox="0 0 56 56" fill="none" xmlns="http://www.w3.org/2000/svg">
<path fill-rule="evenodd" clip-rule="evenodd" d="M27.4345 3.72406C27.7311 3.51809 28.1244 3.51809 28.421 3.72406L47.5074 16.9785C47.7401 17.1401 47.8789 17.4055 47.8789 17.6888V21.0654H49.1348C49.6124 21.0654 49.9996 21.4526 49.9996 21.9302V25.6415C49.9996 26.1191 49.6124 26.5063 49.1348 26.5063H45.7582V42.2725H47.0141C47.4917 42.2725 47.8789 42.6597 47.8789 43.1373V45.9837H49.1348C49.6124 45.9837 49.9996 46.3709 49.9996 46.8485V51.0899C49.9996 51.5676 49.6124 51.9547 49.1348 51.9547H6.65217C6.17454 51.9547 5.78735 51.5676 5.78735 51.0899V46.8547C5.78735 46.3786 6.1722 45.992 6.64831 45.9899L7.17265 45.9875V43.1373C7.17265 42.6597 7.55984 42.2725 8.03747 42.2725H9.94842V26.5063H6.72071C6.24309 26.5063 5.8559 26.1191 5.8559 25.6415V21.9302C5.8559 21.4526 6.24309 21.0654 6.72071 21.0654H7.9766V17.6888C7.9766 17.4055 8.1154 17.1401 8.34813 16.9785L27.4345 3.72406ZM9.70623 21.0654H46.1493V18.1411L27.9278 5.48728L9.70623 18.1411V21.0654ZM11.678 26.5063V42.2725H15.7804V26.5063H11.678ZM17.51 26.5063V42.2725H24.4121V26.5063H17.51ZM26.1417 26.5063V42.2725H30.244V26.5063H26.1417ZM31.9736 26.5063V42.2725H38.7268V26.5063H31.9736ZM40.4565 26.5063V42.2725H44.0286V26.5063H40.4565ZM16.6452 44.0021H10.8132H8.90228V45.9837H46.1493V44.0021H44.8934H39.5916H31.1088H25.2769H16.6452ZM8.03747 47.7133L7.51698 47.7157V50.2251H48.27V47.7133H47.0141H8.03876H8.03747ZM7.58552 22.795V24.7766H10.8132H16.6452H25.2769H31.1088H39.5916H44.8934H48.27V22.795H47.0141H8.84142H7.58552Z" fill="url(#paint0_linear_8425_9730)"/>
<defs>
<linearGradient id="paint0_linear_8425_9730" x1="14.9061" y1="51.9547" x2="54.2625" y2="40.6998" gradientUnits="userSpaceOnUse">
<stop stop-color="#FE5000"/>
<stop offset="1" stop-color="#FCA92A"/>
</linearGradient>
</defs>
</svg>
