<svg width="56" height="56" viewBox="0 0 56 56" fill="none" xmlns="http://www.w3.org/2000/svg">
<path d="M44.1636 15.4001L46.8364 12.7274L43.2727 9.16372L40.2182 12.2183C36.9091 10.1819 32.9636 8.90918 28.8909 8.78191V7.00009H33.9818V4.45463C33.9818 3.05463 32.8364 1.90918 31.4364 1.90918H24.6909C23.2909 1.90918 22.1455 3.05463 22.1455 4.45463V7.00009H27.2364V8.65463C23.0364 8.90918 19.0909 10.1819 15.7818 12.2183L12.7273 9.16372L9.16364 12.7274L11.8364 15.4001C7.76364 19.4728 5.34546 25.0728 5.34546 31.3092C5.34546 43.7819 15.5273 53.9637 28 53.9637C40.4727 53.9637 50.6545 43.7819 50.6545 31.3092C50.6545 25.2001 48.1091 19.6001 44.1636 15.4001ZM43.2727 11.5819L44.4182 12.7274L42.8909 14.2546C42.5091 13.8728 42 13.491 41.6182 13.2365L43.2727 11.5819ZM23.8 5.34554V4.45463C23.8 3.94554 24.1818 3.56372 24.6909 3.56372H31.4364C31.9455 3.56372 32.3273 3.94554 32.3273 4.45463V5.34554H23.8ZM11.5818 12.7274L12.7273 11.5819L14.3818 13.2365C13.8727 13.6183 13.4909 13.8728 13.1091 14.2546L11.5818 12.7274ZM28 52.3092C16.4182 52.3092 7 42.891 7 31.3092C7 19.7274 16.4182 10.4365 28 10.4365C39.5818 10.4365 49 19.8546 49 31.4365C49 42.891 39.5818 52.3092 28 52.3092ZM28 13.7455C18.3273 13.7455 10.4364 21.6365 10.4364 31.3092C10.4364 40.9819 18.3273 48.8728 28 48.8728C37.6727 48.8728 45.5636 40.9819 45.5636 31.3092C45.5636 21.6365 37.6727 13.7455 28 13.7455ZM28.8909 47.2183V45.5637H27.2364V47.2183C19.0909 46.8364 12.6 40.3455 12.0909 32.2001H13.7455V30.5455H12.0909C12.4727 22.4001 19.0909 15.9092 27.1091 15.5274V17.1819H28.7636V15.5274C36.9091 15.9092 43.5273 22.4001 43.9091 30.5455H42.2546V32.2001H43.9091C43.5273 40.3455 36.9091 46.8364 28.8909 47.2183ZM28 28.0001C26.0909 28.0001 24.6909 29.5274 24.6909 31.3092C24.6909 33.2183 26.2182 34.6183 28 34.6183C29.9091 34.6183 31.3091 33.091 31.3091 31.3092C31.3091 29.5274 29.9091 28.0001 28 28.0001ZM28 33.091C27.1091 33.091 26.3455 32.3274 26.3455 31.4365C26.3455 30.5455 27.1091 29.7819 28 29.7819C28.8909 29.7819 29.6545 30.5455 29.6545 31.4365C29.6545 32.3274 28.8909 33.091 28 33.091ZM28.8909 19.6001H27.2364V27.1092H28.8909V19.6001ZM23.8 30.5455H18.7091V32.2001H23.8V30.5455Z" fill="url(#paint0_linear_3701_996)"/>
<defs>
<linearGradient id="paint0_linear_3701_996" x1="14.6905" y1="53.9637" x2="55.3075" y2="42.8992" gradientUnits="userSpaceOnUse">
<stop stop-color="#FE5000"/>
<stop offset="1" stop-color="#FCA92A"/>
</linearGradient>
</defs>
</svg>
