<svg width="56" height="56" viewBox="0 0 56 56" fill="none" xmlns="http://www.w3.org/2000/svg">
<path fill-rule="evenodd" clip-rule="evenodd" d="M16.6063 20.8002C15.7017 20.8002 14.8894 21.3539 14.5586 22.1958L11.6133 29.6928H31.5474C32.0499 27.3667 34.2889 25.6926 36.8519 25.6926C39.4149 25.6926 41.6539 27.3667 42.1564 29.6928H45.1364C45.1715 29.6928 45.2066 29.6933 45.2415 29.6943L42.2957 22.1958L43.0403 21.9032L42.2957 22.1958C41.9649 21.3539 41.1526 20.8002 40.248 20.8002H34V19.2002H40.248C41.8104 19.2002 43.2136 20.1565 43.7849 21.6107L45.7391 26.5851L48.8623 26.8975C48.9542 26.9066 49.04 26.9473 49.1053 27.0126L49.8326 27.7399C50.0356 27.9429 49.9649 28.2875 49.6983 28.3941L46.8909 29.517L47.1594 30.2005L47.0843 30.23C47.5664 30.5178 47.986 30.9131 48.3053 31.3956L49.2067 32.7576C49.6183 33.3796 49.8378 34.109 49.8378 34.8548V42.4825L49.8377 42.5103V48.4234C49.8377 50.522 48.1364 52.2234 46.0377 52.2234H43.0439C40.9452 52.2234 39.2439 50.522 39.2439 48.4234V46.2825H16.8607V48.4234C16.8607 50.5221 15.1594 52.2234 13.0607 52.2234H10.0668C7.96813 52.2234 6.26683 50.5222 6.26678 48.4235L6.26663 42.4981L6.2666 42.4825V41.2212V35.0864C6.2666 34.1604 6.60467 33.2664 7.21732 32.5721L8.62351 30.9785C8.93851 30.6216 9.31385 30.3312 9.72754 30.1173L9.97524 29.4868L7.24352 28.3941C6.97689 28.2875 6.90617 27.9429 7.10923 27.7399L7.83648 27.0126C7.90177 26.9473 7.98764 26.9066 8.07952 26.8975L11.1116 26.5942L13.0694 21.6107C13.6407 20.1565 15.0439 19.2002 16.6063 19.2002H19.5V20.8002H16.6063ZM40.4937 29.6928C40.0247 28.3368 38.6176 27.2926 36.8519 27.2926C35.0863 27.2926 33.6792 28.3368 33.2101 29.6928H40.4937ZM48.2377 40.4625H48.2378V34.8548C48.2378 34.423 48.1108 34.0007 47.8724 33.6406L46.9711 32.2786C46.5636 31.6631 45.8746 31.2928 45.1364 31.2928H11.4728C10.8416 31.2928 10.2408 31.5639 9.8232 32.0372L8.41702 33.6307C8.06233 34.0327 7.8666 34.5503 7.8666 35.0864V41.2211L7.86663 42.4944C7.87301 43.704 8.85553 44.6825 10.0666 44.6825H15.2607V44.6705H16.8607V44.6825H39.2439V44.6704H40.8439V44.6825H46.0378C47.2458 44.6825 48.2264 43.709 48.2377 42.5037V40.4625ZM46.0378 46.2825H40.8439V48.4234C40.8439 49.6384 41.8289 50.6234 43.0439 50.6234H46.0377C47.2528 50.6234 48.2377 49.6384 48.2377 48.4234V45.5814C47.6169 46.0229 46.8577 46.2825 46.0378 46.2825ZM7.86671 45.5814L7.86678 48.4235C7.86681 49.6385 8.85177 50.6234 10.0668 50.6234H13.0607C14.2757 50.6234 15.2607 49.6385 15.2607 48.4234V46.2825H10.0666C9.24675 46.2825 8.48754 46.0229 7.86671 45.5814ZM13.5632 35.7596C12.0168 35.7596 10.7632 37.0132 10.7632 38.5596V39.1419C10.7632 40.6883 12.0168 41.9419 13.5632 41.9419H16.6811C18.2275 41.9419 19.4811 40.6883 19.4811 39.1419V38.5596C19.4811 37.0132 18.2275 35.7596 16.6811 35.7596H13.5632ZM12.3632 38.5596C12.3632 37.8969 12.9005 37.3596 13.5632 37.3596H16.6811C17.3438 37.3596 17.8811 37.8969 17.8811 38.5596V39.1419C17.8811 39.8046 17.3438 40.3419 16.6811 40.3419H13.5632C12.9005 40.3419 12.3632 39.8046 12.3632 39.1419V38.5596ZM36.6232 38.5596C36.6232 37.0132 37.8768 35.7596 39.4232 35.7596H42.5411C44.0875 35.7596 45.3411 37.0132 45.3411 38.5596V39.1419C45.3411 40.6883 44.0875 41.9419 42.5411 41.9419H39.4232C37.8768 41.9419 36.6232 40.6883 36.6232 39.1419V38.5596ZM39.4232 37.3596C38.7605 37.3596 38.2232 37.8969 38.2232 38.5596V39.1419C38.2232 39.8046 38.7605 40.3419 39.4232 40.3419H42.5411C43.2038 40.3419 43.7411 39.8046 43.7411 39.1419V38.5596C43.7411 37.8969 43.2038 37.3596 42.5411 37.3596H39.4232ZM23.6009 36.5179C23.1002 36.5179 22.6942 36.9238 22.6942 37.4246C22.6942 37.9253 23.1002 38.3313 23.6009 38.3313H32.5041C33.0048 38.3313 33.4108 37.9253 33.4108 37.4246C33.4108 36.9238 33.0048 36.5179 32.5041 36.5179H23.6009ZM22.6942 40.2839C22.6942 39.7831 23.1002 39.3772 23.6009 39.3772H32.5041C33.0048 39.3772 33.4108 39.7831 33.4108 40.2839C33.4108 40.7846 33.0048 41.1906 32.5041 41.1906H23.6009C23.1002 41.1906 22.6942 40.7846 22.6942 40.2839Z" fill="url(#paint0_linear_5973_2123)"/>
<path fill-rule="evenodd" clip-rule="evenodd" d="M15.5731 4.24452C15.596 4.14747 15.6869 4.08215 15.7862 4.0914L22.7 4.73512C22.7576 4.74048 22.8101 4.77056 22.8439 4.81758L33.3902 19.4998C33.4546 19.5896 33.4341 19.7145 33.3444 19.779L24.8332 25.8926C24.7434 25.9571 24.6185 25.9366 24.554 25.8469L14.0077 11.1646C13.974 11.1176 13.9622 11.0583 13.9755 11.0019L15.5731 4.24452ZM15.9346 2.49829C15.0409 2.41508 14.2225 3.00295 14.016 3.87641L12.4185 10.6338C12.2986 11.1408 12.4043 11.6749 12.7082 12.098L23.2545 26.7803C23.8345 27.5877 24.9592 27.7721 25.7666 27.1921L34.2779 21.0785C35.0853 20.4985 35.2697 19.3738 34.6897 18.5664L24.1434 3.88414C23.8394 3.461 23.3671 3.19031 22.8483 3.14201L15.9346 2.49829ZM20.5875 10.7051C21.3431 10.1624 21.5156 9.10996 20.9729 8.35443C20.4302 7.5989 19.3778 7.42637 18.6222 7.96906C17.8667 8.51176 17.6942 9.56419 18.2369 10.3197C18.7796 11.0752 19.832 11.2478 20.5875 10.7051Z" fill="url(#paint1_linear_5973_2123)"/>
<defs>
<linearGradient id="paint0_linear_5973_2123" x1="15.2763" y1="52.2234" x2="51.187" y2="37.3566" gradientUnits="userSpaceOnUse">
<stop stop-color="#FE5000"/>
<stop offset="1" stop-color="#FCA92A"/>
</linearGradient>
<linearGradient id="paint1_linear_5973_2123" x1="26.6631" y1="26.5481" x2="36.0806" y2="17.0566" gradientUnits="userSpaceOnUse">
<stop stop-color="#FE5000"/>
<stop offset="1" stop-color="#FCA92A"/>
</linearGradient>
</defs>
</svg>
