<svg width="56" height="56" viewBox="0 0 56 56" fill="none" xmlns="http://www.w3.org/2000/svg">
<path d="M53.8996 46.5899L51.9175 39.6749C51.8703 39.5328 51.7759 39.3907 51.6815 39.296C50.4546 35.5544 47.4343 32.6652 43.6118 31.6706L43.0454 31.5759C42.196 31.3391 41.2522 31.6233 40.6387 32.3337C38.5622 34.7018 35.9195 34.8913 33.1352 34.8913C30.3509 34.8913 27.7081 34.7018 25.6317 32.3337C25.0182 31.6233 24.0744 31.3391 23.2249 31.5759L22.6586 31.718C19.7799 32.4758 17.3259 34.3229 15.7686 36.7858H9.82244C9.77525 36.7858 9.77525 36.7858 9.72806 36.7384C9.72806 36.6911 9.68087 36.6437 9.68087 36.549L10.9079 32.1442C11.9933 28.6868 14.0697 27.6448 18.1282 26.6028C18.317 26.5554 18.4585 26.4607 18.5529 26.366C18.8833 26.6502 19.2608 26.887 19.6383 27.0764C19.7799 27.1712 19.9215 27.1712 20.0631 27.1712C20.3934 27.1712 20.7237 26.9817 20.9125 26.6502C21.1485 26.1765 20.9597 25.6082 20.4878 25.3714C18.317 24.2347 16.7596 21.014 16.7596 17.6986C16.7596 14.7621 19.1664 12.3466 22.0923 12.3466C22.6586 12.3466 23.1777 12.4413 23.6968 12.5834C23.1777 13.8622 22.8946 15.2357 22.8946 16.704C22.8946 24.803 27.7553 31.6233 33.5127 31.6233C39.1757 31.6233 44.1781 24.6609 44.1781 16.704C44.1781 10.7836 39.4117 6 33.5127 6C29.7846 6 26.4811 7.94187 24.5935 10.8784C23.7912 10.5942 22.9418 10.4521 22.0923 10.4521C19.5439 10.4521 17.2787 11.8256 16.0046 13.8622C15.9102 13.7675 15.8158 13.7201 15.7214 13.6728C15.0135 13.2939 14.3057 13.1518 13.5034 13.1518C10.8607 13.1044 8.73703 15.2357 8.73703 17.8881C8.73703 19.4037 9.16176 20.8245 9.82244 21.9613C7.65162 22.5296 5.71676 23.3821 4.82011 26.2713L4.06504 29.0183C3.92347 29.4919 4.01785 30.0129 4.301 30.3918C4.58415 30.8181 5.10326 31.0549 5.62237 31.0549H9.25614C9.20895 31.2444 9.11456 31.4338 9.06737 31.6233L7.84039 36.0754C7.65162 36.6911 7.79319 37.3541 8.21792 37.8751C8.59545 38.3961 9.16176 38.6803 9.82244 38.6803H14.8248C14.6832 39.0118 14.5888 39.3434 14.4944 39.6749L12.5124 46.6372C12.3236 47.4424 12.4652 48.2949 12.9843 48.958C13.5034 49.6211 14.2585 50 15.0607 50H43.3758H44.9803H51.3512C52.1535 50 52.9557 49.6211 53.4276 48.958C53.9468 48.2949 54.1355 47.4424 53.8996 46.5899ZM25.7261 12.7255C25.7733 12.6781 25.8205 12.6308 25.8676 12.5361C25.9148 12.4887 25.9148 12.394 25.962 12.3466C27.425 9.6943 30.2565 7.89451 33.5127 7.89451C37.4296 7.89451 40.7331 10.4995 41.8657 14.0517C40.2139 14.3832 38.4678 13.7201 37.4296 12.2992C37.0993 11.873 36.533 11.7783 36.1083 12.1098C35.9195 12.2519 35.8251 12.394 35.7779 12.5834C35.7307 12.6308 35.7307 12.6781 35.6835 12.7255C34.3622 15.4252 29.9261 16.5619 24.8766 15.5673C25.0182 14.5727 25.3013 13.6254 25.7261 12.7255ZM28.3688 17.7933C32.1442 17.7933 35.2588 16.6093 36.8633 14.3832C38.0431 15.4252 39.5061 15.9935 41.0634 15.9935C41.4409 15.9935 41.8657 15.9462 42.2432 15.8515C42.2904 16.1356 42.2904 16.3724 42.2904 16.6566C42.2904 23.6189 38.1847 29.7287 33.5127 29.7287C29.0295 29.7287 25.1126 24.0926 24.7822 17.4618C26.0092 17.6986 27.2362 17.7933 28.3688 17.7933ZM5.99991 29.1604L6.66059 26.7923C7.22689 24.8504 8.40669 24.282 10.7663 23.7137C10.9079 23.6663 11.0494 23.6189 11.1438 23.5242C11.3798 23.7137 11.5685 23.8558 11.8517 23.9978C11.9933 24.0926 12.1348 24.0926 12.2764 24.0926C12.6068 24.0926 12.9371 23.9031 13.1259 23.5716C13.3618 23.098 13.1731 22.5296 12.7483 22.2928C11.5213 21.6297 10.6247 19.7826 10.6247 17.8881C10.6247 16.2777 11.8989 14.9989 13.5034 14.9989C14.0225 14.9989 14.4472 15.0936 14.872 15.3305C15.0135 15.3778 15.1079 15.4252 15.2495 15.4252C15.0135 16.1356 14.872 16.8934 14.872 17.6986C14.872 20.3983 15.7686 23.0506 17.1844 24.8977C14.3529 25.6082 11.8517 26.5554 10.2 29.1604H5.99991ZM51.9647 47.8213C51.8703 47.916 51.6815 48.1055 51.3512 48.1055H44.9803H43.3758H15.0607C14.7304 48.1055 14.5416 47.916 14.4472 47.8213C14.3057 47.6319 14.2585 47.3477 14.3057 47.1582L16.2877 40.2433C17.2316 36.9752 19.8271 34.4177 23.1305 33.5651L23.6968 33.423C23.8384 33.3757 24.0744 33.4704 24.2159 33.6125C26.8115 36.5963 30.0205 36.8332 33.1352 36.8332C36.2498 36.8332 39.4589 36.5963 42.0544 33.6125C42.196 33.4704 42.3848 33.3757 42.6207 33.423L43.187 33.5651C46.4433 34.4177 49.086 36.9752 50.0298 40.2433L50.8793 43.1798C50.9265 43.3219 50.9737 43.4166 51.0681 43.5113L52.1063 47.1109C52.1535 47.3477 52.1063 47.6319 51.9647 47.8213Z" fill="url(#paint0_linear_5983_5080)"/>
<defs>
<linearGradient id="paint0_linear_5983_5080" x1="14.3125" y1="50" x2="57.0547" y2="34.799" gradientUnits="userSpaceOnUse">
<stop stop-color="#FE5000"/>
<stop offset="1" stop-color="#FCA92A"/>
</linearGradient>
</defs>
</svg>
