<svg width="56" height="56" viewBox="0 0 56 56" fill="none" xmlns="http://www.w3.org/2000/svg">
<path d="M43.1455 49.4668H21.7636C19.2691 49.4668 17.3091 47.499 17.3091 44.9946V18.1612C17.3091 15.6568 19.2691 13.689 21.7636 13.689H43.1455C45.64 13.689 47.6 15.6568 47.6 18.1612V44.9946C47.6 47.499 45.64 49.4668 43.1455 49.4668ZM21.7636 15.4779C20.2491 15.4779 19.0909 16.6407 19.0909 18.1612V44.9946C19.0909 46.5151 20.2491 47.6779 21.7636 47.6779H43.1455C44.66 47.6779 45.8182 46.5151 45.8182 44.9946V18.1612C45.8182 16.6407 44.66 15.4779 43.1455 15.4779H21.7636ZM14.6364 44.1001H12.8545C10.36 44.1001 8.39999 42.1323 8.39999 39.6279V11.0057C8.39999 8.50123 10.36 6.53345 12.8545 6.53345H34.2364C36.7309 6.53345 38.6909 8.50123 38.6909 11.0057C38.6909 11.5423 38.3345 11.9001 37.8 11.9001C37.2654 11.9001 36.9091 11.5423 36.9091 11.0057C36.9091 9.48511 35.7509 8.32234 34.2364 8.32234H12.8545C11.34 8.32234 10.1818 9.48511 10.1818 11.0057V39.6279C10.1818 41.1484 11.34 42.3112 12.8545 42.3112H14.6364C15.1709 42.3112 15.5273 42.669 15.5273 43.2057C15.5273 43.7423 15.1709 44.1001 14.6364 44.1001ZM39.5818 36.9446H25.3273C24.7927 36.9446 24.4364 36.5868 24.4364 36.0501C24.4364 35.5134 24.7927 35.1557 25.3273 35.1557H39.5818C40.1164 35.1557 40.4727 35.5134 40.4727 36.0501C40.4727 36.5868 40.1164 36.9446 39.5818 36.9446ZM39.5818 44.1001H25.3273C24.7927 44.1001 24.4364 43.7423 24.4364 43.2057C24.4364 42.669 24.7927 42.3112 25.3273 42.3112H39.5818C40.1164 42.3112 40.4727 42.669 40.4727 43.2057C40.4727 43.7423 40.1164 44.1001 39.5818 44.1001ZM39.5818 29.789H25.3273C24.7927 29.789 24.4364 29.4312 24.4364 28.8946C24.4364 28.3579 24.7927 28.0001 25.3273 28.0001H39.5818C40.1164 28.0001 40.4727 28.3579 40.4727 28.8946C40.4727 29.4312 40.1164 29.789 39.5818 29.789ZM39.5818 22.6334H25.3273C24.7927 22.6334 24.4364 22.2757 24.4364 21.739C24.4364 21.2023 24.7927 20.8446 25.3273 20.8446H39.5818C40.1164 20.8446 40.4727 21.2023 40.4727 21.739C40.4727 22.2757 40.1164 22.6334 39.5818 22.6334Z" fill="url(#paint0_linear_3701_1015)"/>
<defs>
<linearGradient id="paint0_linear_3701_1015" x1="16.485" y1="49.4668" x2="51.3837" y2="39.4944" gradientUnits="userSpaceOnUse">
<stop stop-color="#FE5000"/>
<stop offset="1" stop-color="#FCA92A"/>
</linearGradient>
</defs>
</svg>
