<svg width="44" height="44" viewBox="0 0 44 44" fill="none" xmlns="http://www.w3.org/2000/svg">
<path d="M40.9486 10.2108C40.946 10.2108 40.9434 10.2108 40.9409 10.2108H38.3503V9.32431C38.3642 8.97345 38.1373 8.65812 37.8001 8.56012C36.0016 8.0888 34.1495 7.85247 32.2903 7.85706C29.2335 7.85706 25.0686 8.54483 21.989 11.678C18.9322 8.51427 14.7368 7.85706 11.6876 7.85706C9.82837 7.85247 7.97635 8.0888 6.17782 8.56012C5.84062 8.65812 5.61366 8.97345 5.6276 9.32431V10.2031H3.05228C2.63025 10.2031 2.28809 10.5453 2.28809 10.9673V35.3756C2.28809 35.7976 2.63025 36.1398 3.05228 36.1398C3.18353 36.1394 3.31249 36.1052 3.42673 36.0405C3.50315 36.0022 11.1451 31.8221 21.8132 34.5121H21.9278H21.9966C22.0575 34.5194 22.1191 34.5194 22.18 34.5121C32.8787 31.7992 40.5206 35.9717 40.5665 36.0405C40.8029 36.177 41.0942 36.177 41.3307 36.0405C41.5656 35.9048 41.7111 35.6546 41.7127 35.3832V10.975C41.7127 10.5529 41.3707 10.2108 40.9486 10.2108ZM3.81647 34.1605V11.7392H5.64289V30.9051C5.63811 31.3271 5.97636 31.6731 6.39839 31.6779C6.43965 31.6784 6.48092 31.6755 6.52171 31.6693C8.10263 31.4279 9.69874 31.3002 11.2979 31.2872C13.5131 31.2488 15.719 31.582 17.8241 32.273C13.0704 31.6981 8.2485 32.3479 3.81647 34.1605ZM11.2979 29.7664C9.90794 29.7696 8.51959 29.8589 7.1407 30.0339V9.92802C8.62859 9.59655 10.148 9.42738 11.6724 9.42365C14.5304 9.42365 18.4737 10.0809 21.2095 13.1682L21.2324 32.2042C19.6429 31.1649 16.5403 29.7664 11.2979 29.7664ZM22.7608 13.1682C25.4966 10.1114 29.4398 9.42365 32.2979 9.42365C33.8222 9.42814 35.3416 9.59722 36.8296 9.92802V30.0339C35.4584 29.8573 34.0777 29.7654 32.6953 29.7588C27.4835 29.7588 24.3732 31.1573 22.7608 32.1966V13.1682ZM40.1767 34.1605C35.7352 32.3429 30.9023 31.6931 26.1385 32.273C28.2535 31.5795 30.47 31.2462 32.6953 31.2872C34.3045 31.2962 35.9109 31.4213 37.502 31.6616C37.9193 31.725 38.3089 31.438 38.3723 31.0208C38.3785 30.98 38.3813 30.9387 38.3809 30.8974V11.7392H40.2073L40.1767 34.1605Z" fill="url(#paint0_linear_1_3562)"/>
<defs>
<linearGradient id="paint0_linear_1_3562" x1="10.4194" y1="36.1428" x2="42.315" y2="22.2296" gradientUnits="userSpaceOnUse">
<stop stop-color="#FE5000"/>
<stop offset="1" stop-color="#FCA92A"/>
</linearGradient>
</defs>
</svg>
