<svg width="56" height="56" viewBox="0 0 56 56" fill="none" xmlns="http://www.w3.org/2000/svg">
<path d="M47.4925 25.2925C46.9247 25.2925 46.5462 25.6725 46.5462 26.2425V29.9473V35.5521V36.502C46.5462 37.547 45.6946 38.402 44.6538 38.402H42.7613C41.1527 38.402 40.0172 39.6369 40.0172 41.1568V43.0567C40.0172 44.1017 39.1656 44.9567 38.1247 44.9567H33.4882H10.3054C9.73764 44.9567 9.35915 44.5767 9.35915 44.0067V26.1475C9.35915 25.5775 8.98065 25.1975 8.41291 25.1975C7.84517 25.1975 7.46667 25.5775 7.46667 26.1475V43.9117C7.46667 45.5266 8.69678 46.6666 10.2108 46.6666H33.4882H38.1247H39.3548C40.585 46.6666 41.8151 46.1916 42.5721 45.2416L46.9247 40.8718C47.7764 40.0169 48.3441 38.7819 48.3441 37.642V36.407V35.4571V29.9473V26.1475C48.4387 25.5775 48.0602 25.2925 47.4925 25.2925ZM41.8151 43.6267C41.8151 43.4367 41.9097 43.2467 41.9097 42.9617V41.0618C41.9097 40.4919 42.2882 40.1119 42.8559 40.1119H44.7484C44.9376 40.1119 45.1269 40.1119 45.4108 40.0169L41.8151 43.6267ZM45.6946 12.1831H39.1656V10.2832C39.1656 9.71323 38.7871 9.33325 38.2194 9.33325C37.6516 9.33325 37.2731 9.71323 37.2731 10.2832V12.1831H18.7269V10.2832C18.7269 9.71323 18.3484 9.33325 17.7807 9.33325C17.2129 9.33325 16.8344 9.71323 16.8344 10.2832V12.1831H10.3054C8.69678 12.1831 7.5613 13.4181 7.5613 14.938V22.4427C7.5613 23.0126 7.93979 23.3926 8.50754 23.3926H47.5871C48.1548 23.3926 48.5333 23.0126 48.5333 22.4427V14.938C48.4387 13.4181 47.2086 12.1831 45.6946 12.1831ZM46.5462 21.4927H9.45377V14.938C9.45377 14.368 9.83227 13.988 10.4 13.988H16.929V16.1729C16.3613 16.4579 15.9828 17.1229 15.9828 17.7879C15.9828 18.8328 16.8344 19.6878 17.8753 19.6878C18.9161 19.6878 19.7677 18.8328 19.7677 17.7879C19.7677 17.1229 19.3893 16.4579 18.8215 16.1729V13.988H37.3678V16.1729C36.8 16.4579 36.4215 17.1229 36.4215 17.7879C36.4215 18.8328 37.2731 19.6878 38.314 19.6878C39.3548 19.6878 40.2065 18.8328 40.2065 17.7879C40.2065 17.1229 39.828 16.4579 39.2602 16.1729V13.988H45.7893C46.357 13.988 46.7355 14.368 46.7355 14.938L46.5462 21.4927ZM24.3097 30.8023C25.3505 30.8023 26.2022 29.9473 26.2022 28.9024C26.2022 27.8574 25.3505 27.0025 24.3097 27.0025C23.2688 27.0025 22.4172 27.8574 22.4172 28.9024C22.4172 30.0423 23.2688 30.8023 24.3097 30.8023ZM31.6903 30.8023C32.7312 30.8023 33.5828 29.9473 33.5828 28.9024C33.5828 27.8574 32.7312 27.0025 31.6903 27.0025C30.6495 27.0025 29.7979 27.8574 29.7979 28.9024C29.8925 30.0423 30.6495 30.8023 31.6903 30.8023ZM39.1656 30.8023C40.2065 30.8023 41.0581 29.9473 41.0581 28.9024C41.0581 27.8574 40.2065 27.0025 39.1656 27.0025C38.1247 27.0025 37.2731 27.8574 37.2731 28.9024C37.2731 30.0423 38.1247 30.8023 39.1656 30.8023ZM16.8344 39.2569C17.8753 39.2569 18.7269 38.402 18.7269 37.357C18.7269 36.312 17.8753 35.4571 16.8344 35.4571C15.7936 35.4571 14.9419 36.312 14.9419 37.357C14.9419 38.402 15.7936 39.2569 16.8344 39.2569ZM24.3097 39.2569C25.3505 39.2569 26.2022 38.402 26.2022 37.357C26.2022 36.312 25.3505 35.4571 24.3097 35.4571C23.2688 35.4571 22.4172 36.312 22.4172 37.357C22.4172 38.402 23.2688 39.2569 24.3097 39.2569ZM31.6903 39.2569C32.7312 39.2569 33.5828 38.402 33.5828 37.357C33.5828 36.312 32.7312 35.4571 31.6903 35.4571C30.6495 35.4571 29.7979 36.312 29.7979 37.357C29.7979 38.402 30.6495 39.2569 31.6903 39.2569Z" fill="url(#paint0_linear_3701_984)"/>
<defs>
<linearGradient id="paint0_linear_3701_984" x1="15.9367" y1="46.6666" x2="51.2923" y2="34.4949" gradientUnits="userSpaceOnUse">
<stop stop-color="#FE5000"/>
<stop offset="1" stop-color="#FCA92A"/>
</linearGradient>
</defs>
</svg>
