<svg width="56" height="56" viewBox="0 0 56 56" fill="none" xmlns="http://www.w3.org/2000/svg">
<path fill-rule="evenodd" clip-rule="evenodd" d="M36.0769 26.612C36.0769 32.1894 35.1754 36.6175 33.3725 39.8963C31.6029 43.1413 28.8484 44.7638 25.1089 44.7638C21.3361 44.7638 18.5315 43.1244 16.6951 39.8456C14.8588 36.5667 13.9406 32.1556 13.9406 26.612C13.9406 21.0684 14.8421 16.6572 16.645 13.3784C18.4814 10.0996 21.2693 8.46021 25.0088 8.46021C28.7482 8.46021 31.5194 10.0996 33.3224 13.3784C35.1587 16.6572 36.0769 21.0684 36.0769 26.612ZM25.1089 42.2793C30.5846 42.2793 33.3224 37.0569 33.3224 26.612C33.3224 16.1671 30.5512 10.9447 25.0088 10.9447C19.4663 10.9447 16.6951 16.1671 16.6951 26.612C16.6951 37.0569 19.4997 42.2793 25.1089 42.2793ZM52.0002 27.6275C52.2535 27.2957 52.7278 27.2321 53.0595 27.4854C53.3913 27.7387 53.4549 28.2129 53.2016 28.5447L41.278 44.163C41.0247 44.4948 40.5504 44.5584 40.2187 44.3051C39.8869 44.0518 39.8233 43.5776 40.0766 43.2458L52.0002 27.6275ZM43.5858 31.3693C43.5858 32.6524 42.5457 33.6926 41.2625 33.6926C39.9794 33.6926 38.9392 32.6524 38.9392 31.3693C38.9392 30.0862 39.9794 29.046 41.2625 29.046C42.5457 29.046 43.5858 30.0862 43.5858 31.3693ZM45.4192 31.3693C45.4192 33.665 43.5582 35.5259 41.2625 35.5259C38.9669 35.5259 37.1059 33.665 37.1059 31.3693C37.1059 29.0737 38.9669 27.2127 41.2625 27.2127C43.5582 27.2127 45.4192 29.0737 45.4192 31.3693ZM51.8433 42.7614C53.1265 42.7614 54.1667 41.7212 54.1667 40.4381C54.1667 39.155 53.1265 38.1148 51.8433 38.1148C50.5602 38.1148 49.52 39.155 49.52 40.4381C49.52 41.7212 50.5602 42.7614 51.8433 42.7614ZM51.8433 44.5947C54.139 44.5947 56 42.7337 56 40.4381C56 38.1424 54.139 36.2814 51.8433 36.2814C49.5477 36.2814 47.6867 38.1424 47.6867 40.4381C47.6867 42.7337 49.5477 44.5947 51.8433 44.5947ZM0.0585327 41.4739C0.0585327 42.4165 0.366533 43.2052 0.982533 43.8399C1.6172 44.4559 2.4292 44.7639 3.41853 44.7639C4.4172 44.7639 5.22453 44.4559 5.84053 43.8399C6.46587 43.2145 6.77853 42.4259 6.77853 41.4739C6.77853 40.5219 6.46587 39.7379 5.84053 39.1219C5.22453 38.4965 4.4172 38.1839 3.41853 38.1839C2.41987 38.1839 1.60787 38.4965 0.982533 39.1219C0.366533 39.7379 0.0585327 40.5219 0.0585327 41.4739ZM1.24853 41.4739C1.24853 40.8112 1.45387 40.2745 1.86453 39.8639C2.26587 39.4439 2.78387 39.2339 3.41853 39.2339C4.0532 39.2339 4.5712 39.4439 4.97253 39.8639C5.3832 40.2932 5.58853 40.8299 5.58853 41.4739C5.58853 42.1365 5.3832 42.6779 4.97253 43.0979C4.5712 43.5085 4.0532 43.7139 3.41853 43.7139C2.78387 43.7139 2.2612 43.5039 1.85053 43.0839C1.4492 42.6732 1.24853 42.1365 1.24853 41.4739ZM7.35045 39.4439H9.66045V44.6239H10.7805V39.4439H13.0905V38.3239H7.35045V39.4439Z" fill="url(#paint0_linear_3701_952)"/>
<defs>
<linearGradient id="paint0_linear_3701_952" x1="11.5965" y1="44.7639" x2="55.3015" y2="23.6867" gradientUnits="userSpaceOnUse">
<stop stop-color="#FE5000"/>
<stop offset="1" stop-color="#FCA92A"/>
</linearGradient>
</defs>
</svg>
