<svg width="56" height="56" viewBox="0 0 56 56" fill="none" xmlns="http://www.w3.org/2000/svg">
<path fill-rule="evenodd" clip-rule="evenodd" d="M17.4424 15.7443C17.4236 16.0501 17.4141 16.3617 17.4141 16.6791C17.4141 16.9905 17.4233 17.3023 17.4413 17.6139C17.8374 24.4443 22.5019 31.1703 28.2302 31.1703C34.2197 31.1703 38.9237 23.8167 38.9237 16.6791C38.9237 9.54148 34.2197 5.32278 28.2302 5.32278C22.507 5.32278 17.8456 9.17463 17.4424 15.7443ZM19.3148 17.6191C19.5033 20.4854 20.5366 23.3351 22.096 25.5129C23.8395 27.9477 26.0432 29.3008 28.2302 29.3008C30.411 29.3008 32.582 27.9544 34.295 25.5242C35.9957 23.1113 37.0542 19.8653 37.0542 16.6791C37.0542 16.2788 37.0376 15.8915 37.0054 15.5172C35.7166 15.7816 34.4689 15.4177 33.463 14.8959C32.7485 14.5252 32.1081 14.053 31.5841 13.5945C30.3776 15.6981 27.9251 16.6697 25.5531 17.1356C23.4504 17.5485 21.1656 17.6143 19.3148 17.6191ZM36.6985 13.6686C36.2724 11.9888 35.4896 10.6463 34.4935 9.63869C32.9558 8.08325 30.7787 7.19231 28.2302 7.19231C25.6792 7.19231 23.4658 8.08531 21.8951 9.64915C20.4913 11.0469 19.5021 13.0795 19.3155 15.7489C21.124 15.7441 23.2491 15.6828 25.1928 15.3011C27.9279 14.764 29.8521 13.6856 30.3416 11.7082C30.426 11.3671 30.6946 11.1022 31.0369 11.0224C31.3791 10.9427 31.7372 11.0617 31.9637 11.3304C32.4066 11.8559 33.2869 12.6984 34.3239 13.2364C35.134 13.6566 35.9404 13.8459 36.6985 13.6686Z" fill="url(#paint0_linear_0_63)"/>
<path d="M25.9621 35.4831C26.7926 35.5352 27.6216 35.5347 28.4189 35.5347C29.2146 35.5347 30.0313 35.4977 30.8229 35.4039M25.9621 35.4831C23.9648 35.3575 21.9591 34.9271 20.3653 33.4505C18.9713 32.1592 18.7651 32.1592 17.7416 32.1592C16.4621 32.1592 10.3591 33.948 8.05678 46.3324C7.83769 47.5108 8.15938 48.7457 10.6895 48.7457H23.6829M25.9621 35.4831L24.2062 38.6103L25.9621 39.7787M30.8229 35.4039C32.7324 35.1774 34.496 34.6197 35.4666 33.4505C36.5651 32.1274 37.602 32.0383 37.9831 32.1592C45.5744 33.8266 47.2419 43.919 47.9001 46.3324C48.4266 48.2631 46.7445 48.7457 45.8377 48.7457H32.9151M30.8229 35.4039L32.3918 38.6103L30.7358 39.7787M25.9621 39.7787L28.4189 41.4136L30.7358 39.7787M25.9621 39.7787L23.6829 48.7457M23.6829 48.7457H32.9151M30.7358 39.7787L32.9151 48.7457" stroke="url(#paint1_linear_0_63)" stroke-width="1.86952" stroke-linejoin="round"/>
<defs>
<linearGradient id="paint0_linear_0_63" x1="21.8505" y1="31.1703" x2="41.2478" y2="26.1184" gradientUnits="userSpaceOnUse">
<stop stop-color="#FE5000"/>
<stop offset="1" stop-color="#FCA92A"/>
</linearGradient>
<linearGradient id="paint1_linear_0_63" x1="16.25" y1="48.7457" x2="40.8317" y2="30.2364" gradientUnits="userSpaceOnUse">
<stop stop-color="#FE5000"/>
<stop offset="1" stop-color="#FCA92A"/>
</linearGradient>
</defs>
</svg>
