<svg width="66" height="68" viewBox="0 0 66 68" fill="none" xmlns="http://www.w3.org/2000/svg">
<path fill-rule="evenodd" clip-rule="evenodd" d="M15.2248 19.7909C15.8262 18.2602 17.3032 17.2535 18.9478 17.2535H47.9465C49.5911 17.2535 51.0681 18.2602 51.6695 19.7909L54.1541 26.1154L57.8579 26.4858C57.9498 26.495 58.0357 26.5357 58.101 26.601L59.0711 27.5711C59.2741 27.7741 59.2034 28.1186 58.9368 28.2253L55.5199 29.592L55.8346 30.393C56.3051 30.6906 56.715 31.0874 57.0315 31.5656L58.3751 33.5958C58.8084 34.2506 59.0395 35.0183 59.0395 35.8034V42.6684V45.6586V52.7467C59.0395 54.9559 57.2486 56.7467 55.0395 56.7467H50.3083C48.0992 56.7467 46.3083 54.9559 46.3083 52.7467V49.6586H19.692V52.7467C19.692 54.9558 17.9012 56.7467 15.692 56.7467H10.9607C8.75164 56.7467 6.96079 54.9559 6.96074 52.7468L6.96056 45.6791L6.96051 45.6586V43.5736V36.035C6.96051 35.0603 7.31638 34.1192 7.96126 33.3884L9.95711 31.1266C10.2914 30.7478 10.6902 30.4403 11.1298 30.2146L11.3887 29.5555L8.06323 28.2253C7.7966 28.1186 7.72589 27.7741 7.92894 27.5711L8.89904 26.601C8.96433 26.5357 9.0502 26.495 9.14208 26.4858L12.7359 26.1264L15.2248 19.7909ZM57.0395 35.8034V42.6684V45.6586C57.0395 46.7632 56.1441 47.6586 55.0395 47.6586H10.9605C9.86078 47.6586 8.96836 46.771 8.96056 45.6731L8.96051 45.6586V43.5736V36.035C8.96051 35.5477 9.13844 35.0771 9.46089 34.7117L11.4567 32.4499C11.8364 32.0197 12.3825 31.7732 12.9564 31.7732H53.6959C54.367 31.7732 54.9933 32.1098 55.3637 32.6694L56.7073 34.6996C56.924 35.027 57.0395 35.4109 57.0395 35.8034ZM55.0395 49.6586C55.7681 49.6586 56.4511 49.4638 57.0395 49.1235V52.7467C57.0395 53.8513 56.1441 54.7467 55.0395 54.7467H50.3083C49.2037 54.7467 48.3083 53.8513 48.3083 52.7467V49.6586H55.0395ZM8.96065 49.1235L8.96074 52.7467C8.96076 53.8513 9.85619 54.7467 10.9607 54.7467H15.692C16.7966 54.7467 17.692 53.8513 17.692 52.7467V49.6586H10.9605C10.232 49.6586 9.54896 49.4638 8.96065 49.1235ZM49.808 20.5222L53.4423 29.7732H49.8659C49.2466 26.9933 46.5636 25 43.5 25C40.4364 25 37.7534 26.9933 37.1341 29.7732H13.452L17.0863 20.5222C17.387 19.7569 18.1255 19.2535 18.9478 19.2535H47.9465C48.7688 19.2535 49.5073 19.7569 49.808 20.5222ZM39.2192 29.7732H47.7808C47.2074 28.2042 45.5634 27 43.5 27C41.4366 27 39.7926 28.2042 39.2192 29.7732ZM15.3261 37.012C13.6693 37.012 12.3261 38.3551 12.3261 40.012V41.4794C12.3261 43.1362 13.6693 44.4794 15.3261 44.4794H19.819C21.4758 44.4794 22.819 43.1362 22.819 41.4794V40.012C22.819 38.3551 21.4758 37.012 19.819 37.012H15.3261ZM14.3261 40.012C14.3261 39.4597 14.7738 39.012 15.3261 39.012H19.819C20.3713 39.012 20.819 39.4597 20.819 40.012V41.4794C20.819 42.0316 20.3713 42.4794 19.819 42.4794H15.3261C14.7738 42.4794 14.3261 42.0316 14.3261 41.4794V40.012ZM43.1811 40.012C43.1811 38.3551 44.5242 37.012 46.1811 37.012H50.6739C52.3308 37.012 53.6739 38.3551 53.6739 40.012V41.4794C53.6739 43.1362 52.3308 44.4794 50.6739 44.4794H46.1811C44.5242 44.4794 43.1811 43.1362 43.1811 41.4794V40.012ZM46.1811 39.012C45.6288 39.012 45.1811 39.4597 45.1811 40.012V41.4794C45.1811 42.0316 45.6288 42.4794 46.1811 42.4794H50.6739C51.2262 42.4794 51.6739 42.0316 51.6739 41.4794V40.012C51.6739 39.4597 51.2262 39.012 50.6739 39.012H46.1811ZM27.6884 37.9618C27.091 37.9618 26.6066 38.4462 26.6066 39.0436C26.6066 39.6411 27.091 40.1255 27.6884 40.1255H38.3115C38.909 40.1255 39.3933 39.6411 39.3933 39.0436C39.3933 38.4462 38.909 37.9618 38.3115 37.9618H27.6884ZM26.6066 42.4556C26.6066 41.8581 27.091 41.3738 27.6884 41.3738H38.3115C38.909 41.3738 39.3933 41.8581 39.3933 42.4556C39.3933 43.0531 38.909 43.5374 38.3115 43.5374H27.6884C27.091 43.5374 26.6066 43.0531 26.6066 42.4556Z" fill="url(#paint0_linear_3703_1171)"/>
<path d="M15.9511 6.69098L15 3.76393L14.0489 6.69098L12.4773 11.5279H7.39155H4.31386L6.80376 13.3369L10.9183 16.3262L9.34666 21.1631L8.3956 24.0902L10.8855 22.2812L15 19.2918L19.1145 22.2812L21.6044 24.0902L20.6533 21.1631L19.0817 16.3262L23.1962 13.3369L25.6861 11.5279H22.6085H17.5227L15.9511 6.69098Z" fill="url(#paint1_linear_3703_1171)" stroke="#F8F8F8" stroke-width="2"/>
<defs>
<linearGradient id="paint0_linear_3703_1171" x1="17.7325" y1="56.7467" x2="60.6708" y2="38.9752" gradientUnits="userSpaceOnUse">
<stop stop-color="#FE5000"/>
<stop offset="1" stop-color="#FCA92A"/>
</linearGradient>
<linearGradient id="paint1_linear_3703_1171" x1="10.3" y1="23" x2="24.333" y2="18.6081" gradientUnits="userSpaceOnUse">
<stop stop-color="#FE5000"/>
<stop offset="1" stop-color="#FCA92A"/>
</linearGradient>
</defs>
</svg>
