<svg width="66" height="66" viewBox="0 0 66 66" fill="none" xmlns="http://www.w3.org/2000/svg">
<path fill-rule="evenodd" clip-rule="evenodd" d="M32.3488 5.42993C32.6885 5.19401 33.1391 5.19401 33.4788 5.42993L55.141 20.4731C55.4076 20.6582 55.5666 20.9622 55.5666 21.2867V25.11H56.9829C57.53 25.11 57.9735 25.5535 57.9735 26.1006V30.3127C57.9735 30.8597 57.53 31.3032 56.9829 31.3032H53.1597V49.1791H54.576C55.1231 49.1791 55.5666 49.6226 55.5666 50.1697V53.3912H56.9829C57.53 53.3912 57.9735 53.8347 57.9735 54.3818V59.1956C57.9735 59.7427 57.53 60.1861 56.9829 60.1861H8.76692C8.21985 60.1861 7.77637 59.7427 7.77637 59.1956V54.3888C7.77637 53.8434 8.21716 53.4007 8.7625 53.3982L9.34862 53.3956V50.1697C9.34862 49.6226 9.79211 49.1791 10.3392 49.1791H12.499V31.3032H8.84471C8.29764 31.3032 7.85416 30.8597 7.85416 30.3127V26.1006C7.85416 25.5535 8.29764 25.11 8.84471 25.11H10.2611V21.2867C10.2611 20.9622 10.42 20.6582 10.6866 20.4731L32.3488 5.42993ZM12.2422 25.11H53.5855V21.8048L32.9138 7.44951L12.2422 21.8048V25.11ZM14.4801 31.3032V49.1791H19.118V31.3032H14.4801ZM21.0991 31.3032V49.1791H28.9146V31.3032H21.0991ZM30.8957 31.3032V49.1791H35.5336V31.3032H30.8957ZM37.5147 31.3032V49.1791H45.1613V31.3032H37.5147ZM47.1424 31.3032V49.1791H51.1786V31.3032H47.1424ZM20.1086 51.1602H13.4895H11.3297V53.3912H53.5855V51.1602H52.1691H46.1518H36.5242H29.9052H20.1086ZM10.3392 55.3723L9.75746 55.3749V58.205H55.9924V55.3723H54.576H10.341H10.3392ZM9.83526 27.0911V29.3221H13.4895H20.1086H29.9052H36.5242H46.1518H52.1691H55.9924V27.0911H54.576H11.2516H9.83526Z" fill="url(#paint0_linear_8019_2760)"/>
<defs>
<linearGradient id="paint0_linear_8019_2760" x1="18.1295" y1="60.1861" x2="62.8131" y2="47.4073" gradientUnits="userSpaceOnUse">
<stop stop-color="#FE5000"/>
<stop offset="1" stop-color="#FCA92A"/>
</linearGradient>
</defs>
</svg>
