<svg width="66" height="66" viewBox="0 0 66 66" fill="none" xmlns="http://www.w3.org/2000/svg">
<path d="M33.0262 9.84615C33.8925 9.84615 34.6012 10.5731 34.6012 11.4615C34.6012 12.35 33.8925 13.0769 33.0262 13.0769C32.16 13.0769 31.4512 12.35 31.4512 11.4615C31.4512 10.5731 32.16 9.84615 33.0262 9.84615ZM54 17.9231C54 15.5404 52.1231 13.6154 49.8 13.6154H43.9725C43.1981 12.7269 42.2006 12.0538 41.0456 11.7173C40.0744 11.4346 39.3394 10.6673 39.0506 9.67115C38.3025 6.97885 35.8744 5 33 5C30.1256 5 27.6975 6.97885 26.9494 9.67115C26.6737 10.6673 25.9256 11.4212 24.9544 11.7173C23.8125 12.0538 22.815 12.7269 22.0275 13.6154H16.2C13.8769 13.6154 12 15.5404 12 17.9231V56.6923C12 59.075 13.8769 61 16.2 61C25.8469 61 37.6987 61 49.8 61C52.1231 61 54 59.075 54 56.6923C54 44.4558 54 32.7442 54 17.9231ZM22.5 17.8827C22.5131 15.9846 23.76 14.3019 25.5319 13.7769C27.1988 13.2788 28.485 11.9731 28.9575 10.2635C29.4825 8.43269 31.1362 7.15385 33 7.15385C34.8637 7.15385 36.5175 8.43269 37.0425 10.2635C37.5281 11.9731 38.8012 13.2923 40.4681 13.7769C42.2531 14.3154 43.5 16.0115 43.5 17.9231V20.0769H22.5V17.8827ZM49.8 58.8462C38.5781 58.8462 27.3825 58.8462 16.2 58.8462C15.045 58.8462 14.1 57.8769 14.1 56.6923V17.9231C14.1 16.7385 15.045 15.7692 16.2 15.7692H20.7544C20.5312 16.4288 20.4 17.1288 20.4 17.8692V22.2308H45.6V17.9231C45.6 17.1692 45.4688 16.4423 45.2325 15.7692H49.8C50.955 15.7692 51.9 16.7385 51.9 17.9231C51.9 24.075 51.9 52.9635 51.9 56.6923C51.9 57.8769 50.955 58.8462 49.8 58.8462ZM41.7281 31.1827L29.1019 44.1327L23.55 38.425L22.0669 39.9462L29.115 47.175L43.2244 32.7038L41.7281 31.1827Z" fill="url(#paint0_linear_3703_1193)"/>
<defs>
<linearGradient id="paint0_linear_3703_1193" x1="20.6625" y1="61" x2="58.9951" y2="52.0024" gradientUnits="userSpaceOnUse">
<stop stop-color="#FE5000"/>
<stop offset="1" stop-color="#FCA92A"/>
</linearGradient>
</defs>
</svg>
