<svg width="66" height="66" viewBox="0 0 66 66" fill="none" xmlns="http://www.w3.org/2000/svg">
<path fill-rule="evenodd" clip-rule="evenodd" d="M33 8.02069L37.7572 21.7067C38.4208 23.6158 40.2024 24.9102 42.2231 24.9514L56.7094 25.2466L45.1633 34.0002C43.5527 35.2213 42.8722 37.3157 43.4575 39.2502L47.6532 53.1187L35.7601 44.8427C34.1011 43.6883 31.8989 43.6883 30.2399 44.8427L18.3467 53.1187L22.5425 39.2502C23.1277 37.3157 22.4472 35.2213 20.8366 34.0002L9.29054 25.2466L23.7768 24.9514C25.7975 24.9102 27.5791 23.6158 28.2427 21.7067L33 8.02069ZM30.7178 7.22739C31.4699 5.0636 34.53 5.06361 35.2822 7.2274L40.0394 20.9134C40.3712 21.868 41.262 22.5152 42.2724 22.5358L56.7586 22.831C59.0489 22.8776 59.9945 25.788 58.1691 27.1719L46.623 35.9256C45.8177 36.5361 45.4774 37.5833 45.7701 38.5506L49.9658 52.419C50.6292 54.6117 48.1535 56.4104 46.2731 55.1019L34.38 46.8259C33.5505 46.2487 32.4494 46.2487 31.6199 46.8259L19.7268 55.1019C17.8464 56.4104 15.3708 54.6117 16.0341 52.419L20.2299 38.5506C20.5225 37.5833 20.1822 36.5361 19.3769 35.9256L7.83084 27.1719C6.00538 25.788 6.95101 22.8776 9.24132 22.831L23.7276 22.5358C24.7379 22.5152 25.6287 21.868 25.9605 20.9134L30.7178 7.22739ZM18.2545 11.1558C17.4823 11.6016 17.2178 12.589 17.6636 13.3611L18.4708 14.7593C18.9166 15.5314 19.904 15.796 20.6761 15.3502C21.4483 14.9044 21.7128 13.917 21.267 13.1448L20.4598 11.7467C20.014 10.9745 19.0267 10.71 18.2545 11.1558ZM8.313 42.4114C7.68253 41.7809 7.68253 40.7587 8.313 40.1282L9.45457 38.9867C10.085 38.3562 11.1072 38.3562 11.7377 38.9867C12.3682 39.6171 12.3682 40.6393 11.7377 41.2698L10.5961 42.4114C9.96567 43.0418 8.94347 43.0418 8.313 42.4114ZM33.0006 60.3954C33.8922 60.3954 34.615 59.6726 34.615 58.781V57.1666C34.615 56.2749 33.8922 55.5521 33.0006 55.5521C32.109 55.5521 31.3862 56.2749 31.3862 57.1666V58.781C31.3862 59.6726 32.109 60.3954 33.0006 60.3954ZM48.7117 13.3611C49.1575 12.589 48.8929 11.6016 48.1207 11.1558C47.3486 10.71 46.3612 10.9745 45.9154 11.7467L45.1082 13.1448C44.6624 13.917 44.9269 14.9044 45.6991 15.3502C46.4713 15.796 47.4586 15.5314 47.9044 14.7593L48.7117 13.3611ZM55.8 38.9867L56.9415 40.1282C57.572 40.7587 57.572 41.7809 56.9415 42.4114C56.3111 43.0418 55.2889 43.0418 54.6584 42.4114L53.5168 41.2698C52.8864 40.6393 52.8864 39.6171 53.5168 38.9867C54.1473 38.3562 55.1695 38.3562 55.8 38.9867Z" fill="url(#paint0_linear_8019_2721)"/>
<path fill-rule="evenodd" clip-rule="evenodd" d="M36.6916 26.429C36.8312 26.2461 37.0927 26.211 37.2756 26.3506L38.2905 27.1254C38.4734 27.2651 38.5085 27.5266 38.3689 27.7095L29.3133 39.571C29.1737 39.7539 28.9122 39.7889 28.7293 39.6493L27.7144 38.8745C27.5315 38.7349 27.4964 38.4734 27.6361 38.2905L36.6916 26.429ZM29.0618 30.8609C29.777 30.8609 30.3568 30.2811 30.3568 29.5659C30.3568 28.8507 29.777 28.2709 29.0618 28.2709C28.3466 28.2709 27.7668 28.8507 27.7668 29.5659C27.7668 30.2811 28.3466 30.8609 29.0618 30.8609ZM29.0618 32.6609C30.7711 32.6609 32.1568 31.2753 32.1568 29.5659C32.1568 27.8566 30.7711 26.4709 29.0618 26.4709C27.3525 26.4709 25.9668 27.8566 25.9668 29.5659C25.9668 31.2753 27.3525 32.6609 29.0618 32.6609ZM38.2348 36.318C38.2348 37.0332 37.655 37.613 36.9398 37.613C36.2245 37.613 35.6447 37.0332 35.6447 36.318C35.6447 35.6028 36.2245 35.023 36.9398 35.023C37.655 35.023 38.2348 35.6028 38.2348 36.318ZM40.0348 36.318C40.0348 38.0273 38.6491 39.413 36.9398 39.413C35.2304 39.413 33.8447 38.0273 33.8447 36.318C33.8447 34.6087 35.2304 33.223 36.9398 33.223C38.6491 33.223 40.0348 34.6087 40.0348 36.318Z" fill="url(#paint1_linear_8019_2721)"/>
<defs>
<linearGradient id="paint0_linear_8019_2721" x1="17.6487" y1="60.3954" x2="63.8556" y2="46.6022" gradientUnits="userSpaceOnUse">
<stop stop-color="#FE5000"/>
<stop offset="1" stop-color="#FCA92A"/>
</linearGradient>
<linearGradient id="paint1_linear_8019_2721" x1="28.8683" y1="39.7348" x2="41.1076" y2="35.7342" gradientUnits="userSpaceOnUse">
<stop stop-color="#FE5000"/>
<stop offset="1" stop-color="#FCA92A"/>
</linearGradient>
</defs>
</svg>
