<svg width="66" height="66" viewBox="0 0 66 66" fill="none" xmlns="http://www.w3.org/2000/svg">
<path fill-rule="evenodd" clip-rule="evenodd" d="M15.2253 15.5374C15.8266 14.0066 17.3036 13 18.9483 13H47.9469C49.5915 13 51.0686 14.0067 51.6699 15.5374L54.1545 21.8619L57.8583 22.2323C57.9502 22.2414 58.0361 22.2821 58.1014 22.3474L59.0715 23.3175C59.2745 23.5206 59.2038 23.8651 58.9372 23.9718L55.5204 25.3385L55.835 26.1395C56.3055 26.4371 56.7154 26.8339 57.0319 27.3121L58.3756 29.3423C58.8089 29.997 59.0399 30.7648 59.0399 31.5499V38.4149V41.405V48.4932C59.0399 50.7023 57.2491 52.4932 55.0399 52.4932H50.3087C48.0996 52.4932 46.3087 50.7023 46.3087 48.4932V45.405H19.6924V48.4932C19.6924 50.7023 17.9016 52.4932 15.6924 52.4932H10.9612C8.75207 52.4932 6.96122 50.7024 6.96116 48.4933L6.96099 41.4256L6.96094 41.405V39.3201V31.7815C6.96094 30.8068 7.3168 29.8657 7.96169 29.1349L9.95754 26.8731C10.2918 26.4943 10.6906 26.1867 11.1302 25.9611L11.3892 25.302L8.06366 23.9718C7.79703 23.8651 7.72631 23.5206 7.92937 23.3175L8.89946 22.3474C8.96475 22.2821 9.05063 22.2414 9.1425 22.2323L12.7363 21.8729L15.2253 15.5374ZM57.0399 31.5499V38.4149V41.405C57.0399 42.5096 56.1445 43.405 55.0399 43.405H10.9609C9.86121 43.405 8.96879 42.5174 8.96099 41.4195L8.96094 41.405V39.3201V31.7815C8.96094 31.2941 9.13887 30.8236 9.46131 30.4582L11.4572 28.1964C11.8368 27.7661 12.383 27.5197 12.9568 27.5197H53.6963C54.3674 27.5197 54.9937 27.8563 55.3641 28.4159L56.7077 30.4461C56.9244 30.7735 57.0399 31.1573 57.0399 31.5499ZM55.0399 45.405C55.7685 45.405 56.4516 45.2103 57.0399 44.8699V48.4932C57.0399 49.5977 56.1445 50.4932 55.0399 50.4932H50.3087C49.2041 50.4932 48.3087 49.5977 48.3087 48.4932V45.405H55.0399ZM8.96107 44.87L8.96116 48.4932C8.96119 49.5978 9.85661 50.4932 10.9612 50.4932H15.6924C16.797 50.4932 17.6924 49.5977 17.6924 48.4932V45.405H10.9609C10.2324 45.405 9.54939 45.2103 8.96107 44.87ZM49.8084 16.2687L53.4427 25.5197H49.8663C49.2471 22.7397 46.564 20.7465 43.5004 20.7465C40.4369 20.7465 37.7538 22.7397 37.1346 25.5197H13.4524L17.0868 16.2687C17.3874 15.5033 18.1259 15 18.9483 15H47.9469C48.7692 15 49.5077 15.5033 49.8084 16.2687ZM39.2196 25.5197H47.7813C47.2078 23.9507 45.5638 22.7465 43.5004 22.7465C41.437 22.7465 39.793 23.9507 39.2196 25.5197ZM15.3265 32.7584C13.6697 32.7584 12.3265 34.1016 12.3265 35.7584V37.2258C12.3265 38.8827 13.6697 40.2258 15.3265 40.2258H19.8194C21.4762 40.2258 22.8194 38.8827 22.8194 37.2258V35.7584C22.8194 34.1016 21.4762 32.7584 19.8194 32.7584H15.3265ZM14.3265 35.7584C14.3265 35.2061 14.7743 34.7584 15.3265 34.7584H19.8194C20.3717 34.7584 20.8194 35.2061 20.8194 35.7584V37.2258C20.8194 37.7781 20.3717 38.2258 19.8194 38.2258H15.3265C14.7743 38.2258 14.3265 37.7781 14.3265 37.2258V35.7584ZM43.1815 35.7584C43.1815 34.1016 44.5247 32.7584 46.1815 32.7584H50.6744C52.3312 32.7584 53.6744 34.1016 53.6744 35.7584V37.2258C53.6744 38.8827 52.3312 40.2258 50.6744 40.2258H46.1815C44.5247 40.2258 43.1815 38.8827 43.1815 37.2258V35.7584ZM46.1815 34.7584C45.6292 34.7584 45.1815 35.2061 45.1815 35.7584V37.2258C45.1815 37.7781 45.6292 38.2258 46.1815 38.2258H50.6744C51.2267 38.2258 51.6744 37.7781 51.6744 37.2258V35.7584C51.6744 35.2061 51.2267 34.7584 50.6744 34.7584H46.1815ZM27.6889 33.7083C27.0914 33.7083 26.607 34.1926 26.607 34.7901C26.607 35.3876 27.0914 35.8719 27.6889 35.8719H38.3119C38.9094 35.8719 39.3938 35.3876 39.3938 34.7901C39.3938 34.1926 38.9094 33.7083 38.3119 33.7083H27.6889ZM26.607 38.2021C26.607 37.6046 27.0914 37.1202 27.6889 37.1202H38.3119C38.9094 37.1202 39.3938 37.6046 39.3938 38.2021C39.3938 38.7996 38.9094 39.2839 38.3119 39.2839H27.6889C27.0914 39.2839 26.607 38.7996 26.607 38.2021Z" fill="url(#paint0_linear_8019_2737)"/>
<defs>
<linearGradient id="paint0_linear_8019_2737" x1="17.7329" y1="52.4932" x2="60.6713" y2="34.7217" gradientUnits="userSpaceOnUse">
<stop stop-color="#FE5000"/>
<stop offset="1" stop-color="#FCA92A"/>
</linearGradient>
</defs>
</svg>
