<svg width="66" height="66" viewBox="0 0 66 66" fill="none" xmlns="http://www.w3.org/2000/svg">
<path d="M43.1495 25.1826H20.089C19.6085 25.1826 19.1281 25.5652 19.1281 26.1391C19.1281 26.6174 19.5125 27.0957 20.089 27.0957H43.1495C43.6299 27.0957 44.1103 26.713 44.1103 26.1391C44.1103 25.5652 43.6299 25.1826 43.1495 25.1826ZM20.089 19.6348H29.3132C29.7936 19.6348 30.274 19.2522 30.274 18.6783C30.274 18.2 29.8897 17.7217 29.3132 17.7217H20.089C19.6085 17.7217 19.1281 18.1043 19.1281 18.6783C19.2242 19.2522 19.6085 19.6348 20.089 19.6348ZM43.1495 32.5478H20.089C19.6085 32.5478 19.1281 32.9304 19.1281 33.5043C19.1281 33.9826 19.5125 34.4609 20.089 34.4609H43.1495C43.6299 34.4609 44.1103 34.0783 44.1103 33.5043C44.1103 32.9304 43.6299 32.5478 43.1495 32.5478ZM35.7509 39.8174H20.089C19.6085 39.8174 19.1281 40.2 19.1281 40.7739C19.1281 41.3478 19.5125 41.7304 20.089 41.7304H35.7509C36.2313 41.7304 36.7117 41.3478 36.7117 40.7739C36.7117 40.2 36.3274 39.8174 35.7509 39.8174ZM33.0605 49C33.5409 49 34.0214 48.6174 34.0214 48.0435C34.0214 47.4696 33.637 47.087 33.0605 47.087H20.089C19.6085 47.087 19.1281 47.4696 19.1281 48.0435C19.1281 48.6174 19.5125 49 20.089 49H33.0605ZM11.8256 6.81739H38.5374V19.6348H51.4128V36.1826H53.2384V18.3913L39.7865 5H10V60H36.7117V58.1826H11.8256V6.81739ZM40.363 8.15652L50.0676 17.8174H40.363V8.15652ZM63.1352 39.0522L60.5409 36.4696C59.484 35.4174 57.6584 35.4174 56.6975 36.4696L42.4769 50.5304L40.5552 57.7043L40.0747 58.1826C39.6904 58.5652 39.6904 59.1391 40.0747 59.4261C40.2669 59.6174 40.4591 59.713 40.7473 59.713C40.9395 59.713 41.2278 59.6174 41.4199 59.4261L41.9004 58.9478L49.1068 57.0348L63.2313 42.9739C63.7117 42.4957 64 41.7304 64 41.0609C63.9039 40.2957 63.6157 39.6261 63.1352 39.0522ZM44.5907 51.0087L54.0071 41.6348L57.9466 45.5565L48.4342 54.9304L44.5907 51.0087ZM43.726 52.8261L46.7046 55.7913L42.669 56.9391L43.726 52.8261ZM61.79 41.6348L59.1957 44.2174L55.2562 40.3913L57.8505 37.8087C58.2349 37.4261 58.8114 37.4261 59.0996 37.8087L61.6939 40.3913C61.8861 40.5826 61.9822 40.7739 61.9822 41.0609C62.0783 41.2522 61.9822 41.4435 61.79 41.6348Z" fill="url(#paint0_linear)"/>
<defs>
<linearGradient id="paint0_linear" x1="21.1375" y1="60" x2="68.6515" y2="45.4001" gradientUnits="userSpaceOnUse">
<stop stop-color="#FE5000"/>
<stop offset="1" stop-color="#FCA92A"/>
</linearGradient>
</defs>
</svg>
