<svg width="28" height="28" viewBox="0 0 28 28" fill="none" xmlns="http://www.w3.org/2000/svg">
<path d="M25.3167 2.52777H5.72315C4.24537 2.53425 3.0463 3.73333 3.0463 5.21759V5.24999H2.68333C1.20556 5.24999 0.00648148 6.44259 0 7.92036V22.7824C0.00648148 24.2602 1.19907 25.4657 2.68333 25.4722H22.2769C23.7546 25.4657 24.9537 24.2667 24.9537 22.7824V22.75H25.3167C26.7944 22.75 27.9935 21.5574 28 20.0796V5.21759C27.9935 3.73333 26.8009 2.53425 25.3167 2.52777ZM22.2769 24.1759H2.68333C1.91852 24.1694 1.30278 23.5472 1.2963 22.7824V7.92036C1.30278 7.16203 1.91852 6.54629 2.68333 6.54629H22.2769C23.0352 6.54629 23.6574 7.15555 23.6574 7.92036V11.6278C23.5407 11.6537 23.4241 11.6667 23.3139 11.6667H19.5741C17.5389 11.6667 15.8861 13.3194 15.8861 15.3546C15.8861 17.3898 17.5389 19.0426 19.5741 19.0491H23.3074C23.4241 19.0426 23.5407 19.0296 23.6509 19.0167L23.6574 22.7824C23.6574 23.5472 23.0417 24.1694 22.2769 24.1759ZM26.7037 20.0796C26.6972 20.838 26.0815 21.4537 25.3167 21.4537H24.9537V18.55C25.2324 18.362 25.4852 18.1287 25.6991 17.8694L26.7037 16.5731V20.0796ZM24.675 17.0852C24.3509 17.5065 23.8454 17.7528 23.3139 17.7593H19.5741C18.2519 17.7528 17.1824 16.6833 17.1824 15.3611C17.1824 14.0389 18.2519 12.9694 19.5741 12.963H23.3074C23.7546 12.963 24.1954 12.8657 24.5972 12.6713C25.025 12.4704 25.4009 12.1657 25.6926 11.7898L26.6972 10.4935L26.7037 14.4537L24.675 17.0852ZM26.7037 8.37407L24.9537 10.6296V7.92036C24.9537 6.44259 23.7546 5.24999 22.2769 5.24999H4.34259V5.21759C4.34259 4.45277 4.95833 3.83055 5.72315 3.82407H25.3167C26.0815 3.83055 26.6972 4.45277 26.7037 5.21759V8.37407Z" fill="url(#paint0_linear)"/>
<path d="M21.026 14.713H19.4704C19.1139 14.713 18.8223 15.0046 18.8223 15.3611C18.8223 15.7176 19.1139 16.0092 19.4704 16.0092H21.026C21.3825 16.0092 21.6741 15.7176 21.6741 15.3611C21.6741 15.0046 21.3825 14.713 21.026 14.713Z" fill="url(#paint1_linear)"/>
<defs>
<linearGradient id="paint0_linear" x1="5.775" y1="25.4722" x2="29.3057" y2="16.4852" gradientUnits="userSpaceOnUse">
<stop stop-color="#FE5000"/>
<stop offset="1" stop-color="#FCA92A"/>
</linearGradient>
<linearGradient id="paint1_linear" x1="19.4105" y1="16.0092" x2="21.2735" y2="14.7265" gradientUnits="userSpaceOnUse">
<stop stop-color="#FE5000"/>
<stop offset="1" stop-color="#FCA92A"/>
</linearGradient>
</defs>
</svg>
