<svg width="28" height="28" viewBox="0 0 28 28" fill="none" xmlns="http://www.w3.org/2000/svg">
<g clip-path="url(#clip0_6225_1868)">
<path fill-rule="evenodd" clip-rule="evenodd" d="M9.20813 -0.0290474C9.61728 -0.0936341 10.0013 0.185687 10.0659 0.594835L10.7975 5.22944C10.8621 5.63858 10.5828 6.02262 10.1736 6.08721C9.76448 6.15179 9.38044 5.87247 9.31586 5.46333L8.58425 0.828724C8.51967 0.419576 8.79899 0.0355393 9.20813 -0.0290474ZM14.6358 3.79056C15.1749 3.32495 16.1106 3.48227 16.3818 4.26254L17.9802 8.86077L22.8473 8.95996C23.8817 8.98104 24.3089 10.2956 23.4844 10.9207L19.6051 13.8617L21.0148 18.5212C21.148 18.9618 21.0008 19.3671 20.7215 19.6293C20.6371 19.7474 20.5177 19.8423 20.3713 19.8963L0.941363 27.068C0.661004 27.1715 0.345966 27.0986 0.139479 26.8826C-0.0670074 26.6666 -0.125533 26.3486 -0.00948812 26.0732L6.7911 9.93408C6.84905 9.43101 7.24713 8.97234 7.85478 8.95996L10.2839 8.91045L14.4309 3.95635C14.4896 3.88615 14.5595 3.83075 14.6358 3.79056ZM13.1593 7.60227L12.0952 8.87354L12.7219 8.86077L13.1593 7.60227ZM15.351 16.9525L18.3539 19.042L5.35409 23.8403L10.6407 19.9288C10.8763 19.95 11.1256 19.8928 11.3552 19.733L15.351 16.9525ZM9.68729 18.5212C9.65811 18.6177 9.64238 18.7125 9.63853 18.8044L2.43541 24.1339L7.81295 11.3719L11.097 13.8617L9.68729 18.5212ZM15.351 5.86562L14.0453 9.6219C13.8955 10.053 13.4931 10.3454 13.0368 10.3547L9.06087 10.4357L12.2298 12.8382C12.5936 13.114 12.7472 13.587 12.6151 14.0239L11.4635 17.8302L14.7277 15.5588C15.1024 15.2981 15.5997 15.2981 15.9744 15.5588L19.2386 17.8302L18.087 14.0239C17.9548 13.587 18.1085 13.114 18.4722 12.8382L21.6412 10.4357L17.6653 10.3547C17.2089 10.3454 16.8066 10.053 16.6567 9.6219L15.351 5.86562ZM22.9768 15.2351C22.5625 15.2352 22.2268 15.571 22.2268 15.9852C22.2268 16.3994 22.5626 16.7352 22.9768 16.7351L27.0803 16.735C27.4945 16.735 27.8303 16.3992 27.8303 15.985C27.8303 15.5708 27.4945 15.235 27.0803 15.235L22.9768 15.2351ZM20.0134 21.4018C20.1765 21.021 20.6174 20.8446 20.9981 21.0077L23.3198 22.0021C23.7005 22.1652 23.877 22.6061 23.7139 22.9869C23.5508 23.3676 23.1099 23.5441 22.7292 23.381L20.4075 22.3865C20.0268 22.2234 19.8503 21.7825 20.0134 21.4018ZM22.4072 3.90349C22.6203 3.5483 22.5051 3.08761 22.1499 2.8745C21.7947 2.6614 21.334 2.77658 21.1209 3.13177L19.5355 5.77421C19.3224 6.1294 19.4376 6.59009 19.7928 6.8032C20.148 7.0163 20.6087 6.90112 20.8218 6.54593L22.4072 3.90349Z" fill="url(#paint0_linear_6225_1868)"/>
</g>
<defs>
<linearGradient id="paint0_linear_6225_1868" x1="5.68574" y1="27.1144" x2="30.0336" y2="19.285" gradientUnits="userSpaceOnUse">
<stop stop-color="#FE5000"/>
<stop offset="1" stop-color="#FCA92A"/>
</linearGradient>
<clipPath id="clip0_6225_1868">
<rect width="28" height="28" fill="white"/>
</clipPath>
</defs>
</svg>
