<svg width="70" height="70" viewBox="0 0 70 70" fill="none" xmlns="http://www.w3.org/2000/svg">
<circle cx="35" cy="35" r="34.5" stroke="url(#paint0_linear)"/>
<path fill-rule="evenodd" clip-rule="evenodd" d="M35.195 16C24.6104 16 16.0298 24.5806 16.0298 35.1652H14.0298C14.0298 23.476 23.5058 14 35.195 14C44.2701 14 52.009 19.7109 55.0182 27.7328L57.3365 22.8225L59.1451 23.6764L55.9245 30.4976L55.851 30.6534L55.7294 30.7756L55.7224 30.7828C55.6542 30.8525 55.3574 31.1559 54.8507 31.1559H54.766H54.5353L54.328 31.0549L47.5895 27.7722L48.4654 25.9742L53.0606 28.2128C50.2768 21.0643 43.3262 16 35.195 16ZM35.195 54.3305C45.7797 54.3305 54.3603 45.7499 54.3603 35.1652H56.3603C56.3603 46.8545 46.8843 56.3305 35.195 56.3305C27.3984 56.3305 20.5881 52.1147 16.9163 45.842L15.9679 51.0744L14 50.7177L15.3453 43.2954L15.3761 43.1258L15.4618 42.9763L15.4667 42.9676C15.5146 42.8826 15.7227 42.5127 16.2121 42.3816L16.294 42.3596L16.5168 42.2999L16.7432 42.3438L24.1017 43.7706L23.721 45.7341L18.5884 44.7389C21.9019 50.4739 28.0989 54.3305 35.195 54.3305Z" fill="url(#paint1_linear)"/>
<rect x="29.0693" y="34.1653" width="12" height="2" fill="#FE5000"/>
<defs>
<linearGradient id="paint0_linear" x1="14.4375" y1="70" x2="75.8317" y2="50.7857" gradientUnits="userSpaceOnUse">
<stop stop-color="#FE5000"/>
<stop offset="1" stop-color="#FCA92A"/>
</linearGradient>
<linearGradient id="paint1_linear" x1="23.3112" y1="56.3305" x2="62.4266" y2="43.2747" gradientUnits="userSpaceOnUse">
<stop stop-color="#FE5000"/>
<stop offset="1" stop-color="#FCA92A"/>
</linearGradient>
</defs>
</svg>
