<svg width="44" height="44" viewBox="0 0 44 44" fill="none" xmlns="http://www.w3.org/2000/svg">
<g clip-path="url(#clip0_7714_1902)">
<path fill-rule="evenodd" clip-rule="evenodd" d="M29.2855 0.746428L29.2855 13.6036L26.5079 11.1727C26.3814 11.0621 26.2099 11 26.0311 11C25.8523 11 25.6808 11.0621 25.5544 11.1727C25.428 11.2834 25.3569 11.4334 25.3569 11.5898C25.3569 11.7462 25.428 11.8962 25.5544 12.0069L29.5945 15.5412C29.657 15.5961 29.7313 15.6396 29.8131 15.6693C29.895 15.699 29.9827 15.7143 30.0712 15.7143C30.1598 15.7143 30.2475 15.699 30.3293 15.6693C30.4111 15.6396 30.4854 15.5961 30.5479 15.5412L34.588 12.0069C34.7145 11.8963 34.7855 11.7462 34.7855 11.5898C34.7855 11.4334 34.7145 11.2834 34.588 11.1727C34.4616 11.0621 34.2901 11 34.1113 11C33.9325 11 33.761 11.0621 33.6346 11.1727L30.8569 13.6036V0.746428C30.8569 0.548463 30.7742 0.358606 30.6268 0.218623C30.4795 0.0786408 30.2796 0 30.0712 0C29.8628 0 29.663 0.0786407 29.5156 0.218623C29.3683 0.358606 29.2855 0.548463 29.2855 0.746428ZM24.909 15.5869V18.078C30.4661 17.2851 37.9999 18.396 38 21.4152V34.529C38 36.7968 33.7219 38.0373 29.2727 38.1596V40.3573C29.2727 42.7485 24.5164 44 19.8182 44C15.12 44 10.3636 42.7486 10.3636 40.3573V35.986C10.3636 34.9917 11.1884 34.2072 12.4833 33.6264C8.94293 33.2098 6 32.0378 6 30.1577V15.5869C6 10.8044 24.909 10.8044 24.909 15.5869ZM23.4545 15.6364C23.4545 14.8956 20.6307 13.4545 15.4546 13.4545C10.2784 13.4545 7.45452 14.8956 7.45459 15.6364C7.45459 16.3772 10.2785 17.8182 15.4546 17.8182C20.6306 17.8182 23.4545 16.3772 23.4545 15.6364ZM15.4545 19.2728C12.3452 19.2728 9.21927 18.7223 7.45452 17.6602L7.45459 20C7.45459 20.7408 10.2784 22.1818 15.4546 22.1818C16.7208 22.1818 17.9511 22.0677 19.0909 21.8849V21.4546C19.0909 19.9671 20.9271 18.9435 23.4545 18.3829V17.6602C21.6898 18.7223 18.5638 19.2728 15.4545 19.2728ZM20.9824 32.4467C20.8278 32.3698 20.6838 32.2889 20.5454 32.2056V32.4309C20.6915 32.4347 20.8368 32.4407 20.9824 32.4467ZM15.4545 23.6364C12.3452 23.6364 9.21927 23.086 7.45452 22.0238V25.0909C7.45452 25.8317 10.2783 27.2727 15.4545 27.2727C16.7207 27.2727 17.951 27.1587 19.0908 26.9758V23.351C17.9371 23.5234 16.7134 23.6364 15.4545 23.6364ZM7.45452 27.1148V30.1819C7.45452 30.9226 10.2784 32.3637 15.4545 32.3637C16.7207 32.3637 17.951 32.2496 19.0908 32.0667V28.4419C17.9371 28.6143 16.7134 28.7273 15.4545 28.7273C12.3452 28.7273 9.21927 28.1769 7.45452 27.1148ZM19.8182 42.5455C24.9943 42.5455 27.8182 41.1045 27.8182 40.3637L27.8181 38.1645C27.7847 38.1634 27.751 38.1628 27.7172 38.1622C27.6742 38.1614 27.6312 38.1605 27.5889 38.1589C25.7899 39.1333 22.7944 39.6364 19.8181 39.6364C16.7088 39.6364 13.5829 39.0859 11.8182 38.0238V40.3637C11.8182 41.1045 14.6421 42.5455 19.8182 42.5455ZM11.8182 36C11.8182 36.7408 14.642 38.1818 19.8182 38.1818C24.9943 38.1818 27.8182 36.7408 27.8182 36C27.8182 35.2592 24.9943 33.8182 19.8182 33.8182C14.6421 33.8182 11.8182 35.2592 11.8182 36ZM29.2727 36.7021C33.9684 36.571 36.5454 35.2494 36.5454 34.5455L36.5453 32.2056C34.7807 33.2678 31.6547 33.8182 28.5454 33.8182C28.1882 33.8182 27.8315 33.8085 27.4759 33.7941C28.5851 34.3569 29.2727 35.0914 29.2727 36V36.7021ZM28.5454 32.3637C33.7215 32.3637 36.5454 30.9227 36.5454 30.1819V27.842C34.7807 28.9041 31.6547 29.4546 28.5454 29.4546C25.4362 29.4546 22.3102 28.9041 20.5455 27.842V30.1819C20.5455 30.9227 23.3694 32.3637 28.5454 32.3637ZM28.5454 28C33.7215 28 36.5454 26.559 36.5454 25.8182V23.4784C34.7807 24.5405 31.6547 25.0909 28.5454 25.0909C25.4362 25.0909 22.3102 24.5405 20.5455 23.4784V25.8182C20.5455 26.559 23.3694 28 28.5454 28ZM20.5455 21.4546C20.5455 22.1954 23.3693 23.6364 28.5454 23.6364C33.7215 23.6364 36.5454 22.1954 36.5454 21.4546C36.5454 20.7138 33.7215 19.2728 28.5454 19.2728C23.3694 19.2728 20.5455 20.7138 20.5455 21.4546Z" fill="url(#paint0_linear_7714_1902)"/>
</g>
<defs>
<linearGradient id="paint0_linear_7714_1902" x1="12.6" y1="44" x2="41.8971" y2="37.3316" gradientUnits="userSpaceOnUse">
<stop stop-color="#FE5000"/>
<stop offset="1" stop-color="#FCA92A"/>
</linearGradient>
<clipPath id="clip0_7714_1902">
<rect width="44" height="44" fill="white"/>
</clipPath>
</defs>
</svg>
