<svg width="44" height="44" viewBox="0 0 44 44" fill="none" xmlns="http://www.w3.org/2000/svg">
<g clip-path="url(#clip0_7714_1884)">
<path d="M41.4141 10.8001H36.3125L34.125 6.05677C33.9922 5.76572 33.6328 5.63199 33.3438 5.76572L31.2031 6.76474L24.7188 2.10004C24.4609 1.91125 24.0859 1.97418 23.8984 2.24163L17.8359 10.8001H2.58594C2.25781 10.8001 2 11.0676 2 11.3901V32.6055C2 32.928 2.26563 33.1954 2.58594 33.1954H7.6875L9.875 37.9388C10.0078 38.2298 10.3594 38.3636 10.6563 38.2298L12.7969 37.2308L19.2813 41.8955C19.5391 42.0843 19.9141 42.0214 20.1016 41.7539L26.1641 33.1954H41.4063C41.7344 33.1954 41.9922 32.928 41.9922 32.6055V11.3901C42 11.0676 41.7344 10.8001 41.4141 10.8001ZM33.3047 7.08725L35.0156 10.8001H25.3516L33.3047 7.08725ZM24.5156 3.4137L29.9844 7.33898L22.5703 10.8001H19.2813L24.5156 3.4137ZM15.75 27.8778V31.9447C15.75 31.9683 15.75 31.9919 15.7578 32.0155H12.2344C12.2344 31.9919 12.2422 31.9683 12.2422 31.9447V27.8778V26.7765V11.9801H15.7578V26.7765V27.8778H15.75ZM3.17188 32.0155V11.9801H11.1406V26.7765H7.625C7.32031 26.7765 7.07813 27.0204 7.07813 27.3272C7.07813 27.634 7.32031 27.8778 7.625 27.8778H11.1406V31.9447C11.1406 31.9683 11.1406 31.9919 11.1484 32.0155H3.17188V32.0155ZM10.6953 36.9083L8.98438 33.1954H18.6484L10.6953 36.9083ZM19.4844 40.5897L14.0156 36.6645L21.4297 33.2033H24.7188L19.4844 40.5897ZM40.8281 32.0155H16.8438C16.8438 31.9919 16.8516 31.9683 16.8516 31.9447V27.8778H26.8516C27.1563 27.8778 27.3984 27.634 27.3984 27.3272C27.3984 27.0204 27.1563 26.7765 26.8516 26.7765H16.8438V11.9801H18.1328H35.9297H40.8281V32.0155ZM30.8359 18.9496H31.8594V15.3783H34.7969C36.4688 15.3783 37.4063 16.2279 37.4063 17.691C37.4063 19.162 36.4688 20.0351 34.7969 20.0351H33.1094V20.7588H35.3594V21.4432H33.1094V22.9693H31.8594V21.4432H30.8359V20.7588H31.8594V20.0351H30.8359V18.9496V18.9496ZM34.6172 18.9496C35.7344 18.9496 36.1563 18.4698 36.1563 17.691C36.1563 16.9122 35.7344 16.456 34.6172 16.456H33.1094V18.9496H34.6172Z" fill="url(#paint0_linear_7714_1884)"/>
</g>
<defs>
<linearGradient id="paint0_linear_7714_1884" x1="10.2484" y1="42.0044" x2="45.3274" y2="31.0315" gradientUnits="userSpaceOnUse">
<stop stop-color="#FE5000"/>
<stop offset="1" stop-color="#FCA92A"/>
</linearGradient>
<clipPath id="clip0_7714_1884">
<rect width="40" height="40" fill="white" transform="translate(2 2)"/>
</clipPath>
</defs>
</svg>
