<svg width="56" height="56" viewBox="0 0 56 56" fill="none" xmlns="http://www.w3.org/2000/svg">
<path d="M42.0533 25.4512L34.8 16.3845V9.13114C34.8 7.03447 33.1 5.33447 31.0033 5.33447H15.93C13.8333 5.33447 12.1333 7.03447 12.1333 9.13114V36.3312C12.1333 38.4278 13.8333 40.1278 15.93 40.1278H22.73V42.1112C22.73 46.8712 26.5833 50.7245 31.3433 50.7245H43.13C43.5267 50.7245 43.8667 50.3845 43.8667 49.9878V30.7212C43.8667 28.7945 43.2433 26.9245 42.0533 25.4512ZM31.0033 6.86447C32.25 6.86447 33.27 7.88447 33.27 9.13114V28.9645L30.2667 25.7345V6.86447H31.0033ZM28.7367 24.0912L27.4333 22.7311C27.15 22.4478 26.81 22.1645 26.47 21.9945V6.86447H28.7367V24.0912ZM13.6633 36.3312V9.13114C13.6633 7.88447 14.6833 6.86447 15.93 6.86447H24.9966V21.6545C24.09 21.6545 23.1833 21.9945 22.56 22.6178L22.5033 22.6745C21.2 23.9778 21.1433 26.0178 22.2766 27.3778L24.9966 30.6078V38.5978H15.93C14.6833 38.5978 13.6633 37.5778 13.6633 36.3312ZM28.85 38.5978H26.5267V32.4212L28.7933 35.0845V37.4078C28.7367 37.8045 28.7933 38.2012 28.85 38.5978ZM42.3367 49.1378H31.2867C27.3767 49.1378 24.2033 45.9645 24.2033 42.0545V40.0712H29.1333C29.9833 43.1312 32.25 45.6812 35.31 46.8145L35.82 45.3978C32.4767 44.1512 30.2667 40.9212 30.2667 37.4078V34.8012C30.2667 34.6312 30.21 34.4612 30.0967 34.2912L23.41 26.4145C22.73 25.6212 22.7866 24.4878 23.58 23.6945C23.9766 23.3545 24.4866 23.1278 24.9966 23.1278C25.5066 23.1278 26.0166 23.3545 26.3566 23.7512L36.5 34.5178L37.5767 33.4978L34.7433 30.4945V18.8211L40.8067 26.4145C41.77 27.6045 42.28 29.1345 42.28 30.6645V49.1378H42.3367ZM17.4033 18.9345H15.8733V9.13114H17.4033V18.9345ZM21.2 15.1378H19.67V9.13114H21.2V15.1378ZM21.2 30.2678H16.6666C16.27 30.2678 15.93 30.6078 15.93 31.0045V35.5378C15.93 35.9345 16.27 36.2745 16.6666 36.2745H21.2C21.5966 36.2745 21.9366 35.9345 21.9366 35.5378V31.0045C21.9366 30.6078 21.5966 30.2678 21.2 30.2678ZM20.4633 34.8012H17.46V31.7978H20.4633V34.8012Z" fill="url(#paint0_linear)"/>
<defs>
<linearGradient id="paint0_linear" x1="18.6783" y1="50.7245" x2="47.8404" y2="44.3437" gradientUnits="userSpaceOnUse">
<stop stop-color="#FE5000"/>
<stop offset="1" stop-color="#FCA92A"/>
</linearGradient>
</defs>
</svg>
