<svg width="56" height="56" viewBox="0 0 56 56" fill="none" xmlns="http://www.w3.org/2000/svg">
<path d="M34.4662 20.9809H13.968C13.5409 20.9809 13.1139 21.3217 13.1139 21.833C13.1139 22.2591 13.4555 22.6852 13.968 22.6852H34.4662C34.8932 22.6852 35.3203 22.3443 35.3203 21.833C35.3203 21.3217 34.8932 20.9809 34.4662 20.9809ZM13.968 16.0383H22.1673C22.5943 16.0383 23.0214 15.6974 23.0214 15.1861C23.0214 14.76 22.6797 14.3339 22.1673 14.3339H13.968C13.5409 14.3339 13.1139 14.6748 13.1139 15.1861C13.1993 15.6974 13.5409 16.0383 13.968 16.0383ZM34.4662 27.5426H13.968C13.5409 27.5426 13.1139 27.8835 13.1139 28.3948C13.1139 28.8209 13.4555 29.247 13.968 29.247H34.4662C34.8932 29.247 35.3203 28.9061 35.3203 28.3948C35.3203 27.8835 34.8932 27.5426 34.4662 27.5426ZM27.8897 34.0191H13.968C13.5409 34.0191 13.1139 34.36 13.1139 34.8713C13.1139 35.3826 13.4555 35.7235 13.968 35.7235H27.8897C28.3167 35.7235 28.7438 35.3826 28.7438 34.8713C28.7438 34.36 28.4021 34.0191 27.8897 34.0191ZM25.4982 42.2C25.9253 42.2 26.3523 41.8591 26.3523 41.3478C26.3523 40.8365 26.0107 40.4957 25.4982 40.4957H13.968C13.5409 40.4957 13.1139 40.8365 13.1139 41.3478C13.1139 41.8591 13.4555 42.2 13.968 42.2H25.4982ZM6.62278 4.61913H30.3665V16.0383H41.8114V30.7809H43.4342V14.9304L31.4769 3H5V52H28.7438V50.3809H6.62278V4.61913ZM31.9893 5.81217L40.6157 14.4191H31.9893V5.81217ZM52.2313 33.3374L49.9253 31.0365C48.9858 30.0991 47.363 30.0991 46.5089 31.0365L33.8683 43.5635L32.1601 49.9548L31.7331 50.3809C31.3915 50.7217 31.3915 51.233 31.7331 51.4887C31.9039 51.6591 32.0747 51.7444 32.331 51.7444C32.5018 51.7444 32.758 51.6591 32.9288 51.4887L33.3559 51.0626L39.7616 49.3583L52.3167 36.8313C52.7438 36.4052 53 35.7235 53 35.127C52.9146 34.4452 52.6584 33.8487 52.2313 33.3374ZM35.7473 43.9896L44.1174 35.6383L47.6192 39.1322L39.1637 47.4835L35.7473 43.9896ZM34.9786 45.6087L37.6263 48.2504L34.0391 49.273L34.9786 45.6087ZM51.0356 35.6383L48.7295 37.9391L45.2278 34.5304L47.5338 32.2296C47.8754 31.8887 48.3879 31.8887 48.6441 32.2296L50.9502 34.5304C51.121 34.7009 51.2064 34.8713 51.2064 35.127C51.2918 35.2974 51.2064 35.4678 51.0356 35.6383Z" fill="url(#paint0_linear_8837_2456)"/>
<defs>
<linearGradient id="paint0_linear_8837_2456" x1="14.9" y1="52" x2="57.1512" y2="39.0466" gradientUnits="userSpaceOnUse">
<stop stop-color="#FE5000"/>
<stop offset="1" stop-color="#FCA92A"/>
</linearGradient>
</defs>
</svg>
