<svg width="44" height="44" viewBox="0 0 44 44" fill="none" xmlns="http://www.w3.org/2000/svg">
<path fill-rule="evenodd" clip-rule="evenodd" d="M8.5 20.5652C7.98213 20.4111 7.481 20.2181 7 19.9896V33.5208C7 35.6792 8.65 37.375 10.75 37.375H12.25C12.7 37.375 13 37.0667 13 36.6042C13 36.1417 12.7 35.8333 12.25 35.8333H10.75C9.475 35.8333 8.5 34.8312 8.5 33.5208V20.5652ZM21.2283 6.54167H28.75C30.025 6.54167 31 7.54375 31 8.85417C31 9.31667 31.3 9.625 31.75 9.625C32.2 9.625 32.5 9.31667 32.5 8.85417C32.5 6.69583 30.85 5 28.75 5H20.446C20.7471 5.48878 21.0094 6.00411 21.2283 6.54167ZM21.7674 12.7083C21.8747 12.2068 21.9463 11.692 21.9792 11.1667H36.25C38.35 11.1667 40 12.8625 40 15.0208V38.1458C40 40.3042 38.35 42 36.25 42H18.25C16.15 42 14.5 40.3042 14.5 38.1458V20.5652C15.0179 20.4111 15.519 20.2181 16 19.9896V38.1458C16 39.4562 16.975 40.4583 18.25 40.4583H36.25C37.525 40.4583 38.5 39.4562 38.5 38.1458V15.0208C38.5 13.7104 37.525 12.7083 36.25 12.7083H21.7674ZM21.25 31.2083H33.25C33.7 31.2083 34 30.9 34 30.4375C34 29.975 33.7 29.6667 33.25 29.6667H21.25C20.8 29.6667 20.5 29.975 20.5 30.4375C20.5 30.9 20.8 31.2083 21.25 31.2083ZM21.25 37.375H33.25C33.7 37.375 34 37.0667 34 36.6042C34 36.1417 33.7 35.8333 33.25 35.8333H21.25C20.8 35.8333 20.5 36.1417 20.5 36.6042C20.5 37.0667 20.8 37.375 21.25 37.375ZM21.25 25.0417H33.25C33.7 25.0417 34 24.7333 34 24.2708C34 23.8083 33.7 23.5 33.25 23.5H21.25C20.8 23.5 20.5 23.8083 20.5 24.2708C20.5 24.7333 20.8 25.0417 21.25 25.0417ZM21.25 18.875H33.25C33.7 18.875 34 18.5667 34 18.1042C34 17.6417 33.7 17.3333 33.25 17.3333H21.25C20.8 17.3333 20.5 17.6417 20.5 18.1042C20.5 18.5667 20.8 18.875 21.25 18.875Z" fill="url(#paint0_linear_7714_1892)"/>
<circle cx="11.5" cy="10.5" r="9.75" stroke="url(#paint1_linear_7714_1892)" stroke-width="1.5"/>
<path d="M7.5 10.5L11.5 10.5M15.5 10.5L11.5 10.5M11.5 10.5L11.5 6.5M11.5 10.5L11.5 14.5" stroke="url(#paint2_linear_7714_1892)" stroke-width="1.5" stroke-linecap="round"/>
<defs>
<linearGradient id="paint0_linear_7714_1892" x1="13.8063" y1="42" x2="43.2871" y2="33.7709" gradientUnits="userSpaceOnUse">
<stop stop-color="#FE5000"/>
<stop offset="1" stop-color="#FCA92A"/>
</linearGradient>
<linearGradient id="paint1_linear_7714_1892" x1="1" y1="21" x2="22" y2="0" gradientUnits="userSpaceOnUse">
<stop stop-color="#FE5000"/>
<stop offset="1" stop-color="#FE9800"/>
</linearGradient>
<linearGradient id="paint2_linear_7714_1892" x1="15.5" y1="14.5" x2="7.5" y2="6.5" gradientUnits="userSpaceOnUse">
<stop stop-color="#FE5000"/>
<stop offset="1" stop-color="#FE9800"/>
</linearGradient>
</defs>
</svg>
