<svg width="56" height="56" viewBox="0 0 56 56" fill="none" xmlns="http://www.w3.org/2000/svg">
<path d="M31.2727 16.8378V14.0352C31.2727 8.65493 10 8.65493 10 14.0352V30.4274C10 32.5425 13.3108 33.861 17.2937 34.3297C15.8369 34.9831 14.9091 35.8656 14.9091 36.9843V41.902C14.9091 44.5922 20.26 46 25.5455 46C30.8309 46 36.1818 44.5921 36.1818 41.902V39.4296C41.1871 39.292 46 37.8964 46 35.3451V20.5922C45.9999 17.1955 37.5244 15.9458 31.2727 16.8378ZM20.6364 11.6364C26.4595 11.6364 29.6363 13.2575 29.6363 14.0909C29.6363 14.9243 26.4595 16.5454 20.6364 16.5454C14.8133 16.5454 11.6364 14.9243 11.6364 14.0909C11.6363 13.2576 14.8132 11.6364 20.6364 11.6364ZM11.6363 16.3677C13.6217 17.5626 17.1383 18.1819 20.6363 18.1819C24.1342 18.1819 27.651 17.5626 29.6363 16.3677V17.1808C26.793 17.8114 24.7273 18.9629 24.7273 20.6364V21.1205C23.445 21.3262 22.0609 21.4545 20.6364 21.4545C14.8132 21.4545 11.6364 19.8334 11.6364 19L11.6363 16.3677ZM26.3636 32.7313C26.5193 32.825 26.6813 32.916 26.8552 33.0026C26.6914 32.9957 26.528 32.9891 26.3636 32.9848V32.7313ZM11.6363 21.2768C13.6217 22.4717 17.1383 23.091 20.6363 23.091C22.0526 23.091 23.4292 22.9638 24.7272 22.7699V26.8478C23.4449 27.0535 22.0608 27.1818 20.6363 27.1818C14.8131 27.1818 11.6363 25.5607 11.6363 24.7273V21.2768ZM11.6363 30.4546V27.0041C13.6217 28.199 17.1383 28.8183 20.6363 28.8183C22.0526 28.8183 23.4292 28.6911 24.7272 28.4972V32.5751C23.4449 32.7808 22.0608 32.9091 20.6363 32.9091C14.8132 32.9091 11.6363 31.2879 11.6363 30.4546ZM34.5454 41.9091C34.5454 42.7425 31.3686 44.3637 25.5455 44.3637C19.7224 44.3637 16.5454 42.7425 16.5454 41.9091V39.2768C18.5308 40.4717 22.0474 41.0909 25.5454 41.0909C28.8937 41.0909 32.2637 40.525 34.2875 39.4288C34.3725 39.432 34.46 39.4324 34.5453 39.435L34.5454 41.9091ZM25.5455 39.4546C19.7223 39.4546 16.5455 37.8334 16.5455 37C16.5455 36.1666 19.7224 34.5455 25.5455 34.5455C31.3686 34.5455 34.5454 36.1666 34.5454 37C34.5454 37.8334 31.3686 39.4546 25.5455 39.4546ZM44.3636 35.3637C44.3636 36.1556 41.4645 37.6424 36.1818 37.7899V37C36.1818 35.9778 35.4082 35.1515 34.1604 34.5184C34.5605 34.5346 34.9618 34.5455 35.3635 34.5455C38.8615 34.5455 42.3782 33.9262 44.3635 32.7313L44.3636 35.3637ZM44.3636 30.4546C44.3636 31.288 41.1867 32.9091 35.3636 32.9091C29.5405 32.9091 26.3637 31.288 26.3637 30.4546V27.8222C28.3489 29.0172 31.8657 29.6364 35.3636 29.6364C38.8616 29.6364 42.3783 29.0172 44.3636 27.8222V30.4546ZM44.3636 25.5455C44.3636 26.3789 41.1867 28 35.3636 28C29.5405 28 26.3637 26.3789 26.3637 25.5455V22.9132C28.3489 24.1081 31.8657 24.7273 35.3636 24.7273C38.8616 24.7273 42.3783 24.1081 44.3636 22.9132V25.5455ZM35.3636 23.091C29.5405 23.091 26.3637 21.4698 26.3637 20.6364C26.3637 19.803 29.5405 18.1819 35.3636 18.1819C41.1867 18.1819 44.3636 19.803 44.3636 20.6364C44.3636 21.4698 41.1867 23.091 35.3636 23.091Z" fill="url(#paint0_linear_2838_1811)"/>
<defs>
<linearGradient id="paint0_linear_2838_1811" x1="17.425" y1="46" x2="48.9992" y2="36.1183" gradientUnits="userSpaceOnUse">
<stop stop-color="#FE5000"/>
<stop offset="1" stop-color="#FCA92A"/>
</linearGradient>
</defs>
</svg>
