<svg width="44" height="44" viewBox="0 0 44 44" fill="none" xmlns="http://www.w3.org/2000/svg">
<path d="M40.1278 19.4481C39.5998 19.4481 39.2478 19.8001 39.2478 20.3281V23.7601V28.9521V29.8321C39.2478 30.8001 38.4558 31.5921 37.4878 31.5921H35.7278C34.2318 31.5921 33.1758 32.7361 33.1758 34.1441V35.9041C33.1758 36.8721 32.3838 37.6641 31.4158 37.6641H27.1038H5.54381C5.01581 37.6641 4.66381 37.3121 4.66381 36.7841V20.2401C4.66381 19.7121 4.31181 19.3601 3.78381 19.3601C3.25581 19.3601 2.90381 19.7121 2.90381 20.2401V36.6961C2.90381 38.1921 4.04781 39.2481 5.45581 39.2481H27.1038H31.4158H32.5598C33.7038 39.2481 34.8478 38.8081 35.5518 37.9281L39.5998 33.8801C40.3918 33.0881 40.9198 31.9441 40.9198 30.8881V29.7441V28.8641V23.7601V20.2401C41.0078 19.7121 40.6558 19.4481 40.1278 19.4481ZM34.8478 36.4321C34.8478 36.2561 34.9358 36.0801 34.9358 35.8161V34.0561C34.9358 33.5281 35.2878 33.1761 35.8158 33.1761H37.5758C37.7518 33.1761 37.9278 33.1761 38.1918 33.0881L34.8478 36.4321ZM38.4558 7.30406H32.3838V5.54406C32.3838 5.01606 32.0318 4.66406 31.5038 4.66406C30.9758 4.66406 30.6238 5.01606 30.6238 5.54406V7.30406H13.3758V5.54406C13.3758 5.01606 13.0238 4.66406 12.4958 4.66406C11.9678 4.66406 11.6158 5.01606 11.6158 5.54406V7.30406H5.54381C4.04781 7.30406 2.99181 8.44806 2.99181 9.85606V16.8081C2.99181 17.3361 3.34381 17.6881 3.87181 17.6881H40.2158C40.7438 17.6881 41.0958 17.3361 41.0958 16.8081V9.85606C41.0078 8.44806 39.8638 7.30406 38.4558 7.30406ZM39.2478 15.9281H4.75181V9.85606C4.75181 9.32806 5.10381 8.97606 5.63181 8.97606H11.7038V11.0001C11.1758 11.2641 10.8238 11.8801 10.8238 12.4961C10.8238 13.4641 11.6158 14.2561 12.5838 14.2561C13.5518 14.2561 14.3438 13.4641 14.3438 12.4961C14.3438 11.8801 13.9918 11.2641 13.4638 11.0001V8.97606H30.7118V11.0001C30.1838 11.2641 29.8318 11.8801 29.8318 12.4961C29.8318 13.4641 30.6238 14.2561 31.5918 14.2561C32.5598 14.2561 33.3518 13.4641 33.3518 12.4961C33.3518 11.8801 32.9998 11.2641 32.4718 11.0001V8.97606H38.5438C39.0718 8.97606 39.4238 9.32806 39.4238 9.85606L39.2478 15.9281ZM18.5678 24.5521C19.5358 24.5521 20.3278 23.7601 20.3278 22.7921C20.3278 21.8241 19.5358 21.0321 18.5678 21.0321C17.5998 21.0321 16.8078 21.8241 16.8078 22.7921C16.8078 23.8481 17.5998 24.5521 18.5678 24.5521ZM25.4318 24.5521C26.3998 24.5521 27.1918 23.7601 27.1918 22.7921C27.1918 21.8241 26.3998 21.0321 25.4318 21.0321C24.4638 21.0321 23.6718 21.8241 23.6718 22.7921C23.7598 23.8481 24.4638 24.5521 25.4318 24.5521ZM32.3838 24.5521C33.3518 24.5521 34.1438 23.7601 34.1438 22.7921C34.1438 21.8241 33.3518 21.0321 32.3838 21.0321C31.4158 21.0321 30.6238 21.8241 30.6238 22.7921C30.6238 23.8481 31.4158 24.5521 32.3838 24.5521ZM11.6158 32.3841C12.5838 32.3841 13.3758 31.5921 13.3758 30.6241C13.3758 29.6561 12.5838 28.8641 11.6158 28.8641C10.6478 28.8641 9.85581 29.6561 9.85581 30.6241C9.85581 31.5921 10.6478 32.3841 11.6158 32.3841ZM18.5678 32.3841C19.5358 32.3841 20.3278 31.5921 20.3278 30.6241C20.3278 29.6561 19.5358 28.8641 18.5678 28.8641C17.5998 28.8641 16.8078 29.6561 16.8078 30.6241C16.8078 31.5921 17.5998 32.3841 18.5678 32.3841ZM25.4318 32.3841C26.3998 32.3841 27.1918 31.5921 27.1918 30.6241C27.1918 29.6561 26.3998 28.8641 25.4318 28.8641C24.4638 28.8641 23.6718 29.6561 23.6718 30.6241C23.6718 31.5921 24.4638 32.3841 25.4318 32.3841Z" fill="url(#paint0_linear_7714_1889)"/>
<defs>
<linearGradient id="paint0_linear_7714_1889" x1="10.7809" y1="39.2481" x2="43.6342" y2="27.8934" gradientUnits="userSpaceOnUse">
<stop stop-color="#FE5000"/>
<stop offset="1" stop-color="#FCA92A"/>
</linearGradient>
</defs>
</svg>
