<svg width="44" height="44" viewBox="0 0 44 44" fill="none" xmlns="http://www.w3.org/2000/svg">
<path fill-rule="evenodd" clip-rule="evenodd" d="M40.401 22.0002C40.401 32.1619 32.1634 40.3996 22.0017 40.3996C11.84 40.3996 3.60238 32.1619 3.60238 22.0002C3.60238 11.8386 11.84 3.60092 22.0017 3.60092C32.1634 3.60092 40.401 11.8386 40.401 22.0002ZM42.001 22.0002C42.001 33.0455 33.047 41.9995 22.0017 41.9995C10.9564 41.9995 2.00244 33.0455 2.00244 22.0002C2.00244 10.955 10.9564 2.00098 22.0017 2.00098C33.047 2.00098 42.001 10.955 42.001 22.0002ZM28.4457 13.8972C28.1049 13.637 27.6177 13.7024 27.3574 14.0432L15.6346 29.3985C15.3744 29.7393 15.4397 30.2266 15.7806 30.4868L15.7931 30.4964C16.1339 30.7566 16.6212 30.6912 16.8814 30.3504L28.6043 14.9951C28.8645 14.6542 28.7991 14.167 28.4583 13.9068L28.4457 13.8972ZM16.7862 20.2402C18.1841 20.2402 19.3174 19.107 19.3174 17.709C19.3174 16.3111 18.1841 15.1779 16.7862 15.1779C15.3882 15.1779 14.255 16.3111 14.255 17.709C14.255 19.107 15.3882 20.2402 16.7862 20.2402ZM16.7862 21.8088C19.0504 21.8088 20.8859 19.9733 20.8859 17.709C20.8859 15.4448 19.0504 13.6093 16.7862 13.6093C14.5219 13.6093 12.6864 15.4448 12.6864 17.709C12.6864 19.9733 14.5219 21.8088 16.7862 21.8088ZM29.754 26.6536C29.754 28.0516 28.6207 29.1848 27.2228 29.1848C25.8248 29.1848 24.6916 28.0516 24.6916 26.6536C24.6916 25.2557 25.8248 24.1225 27.2228 24.1225C28.6207 24.1225 29.754 25.2557 29.754 26.6536ZM31.3225 26.6536C31.3225 28.9179 29.487 30.7534 27.2228 30.7534C24.9585 30.7534 23.123 28.9179 23.123 26.6536C23.123 24.3894 24.9585 22.5539 27.2228 22.5539C29.487 22.5539 31.3225 24.3894 31.3225 26.6536Z" fill="url(#paint0_linear_7714_1911)"/>
<defs>
<linearGradient id="paint0_linear_7714_1911" x1="2.00244" y1="41.9995" x2="42.001" y2="2.00098" gradientUnits="userSpaceOnUse">
<stop stop-color="#FE5000"/>
<stop offset="1" stop-color="#FE9800"/>
</linearGradient>
</defs>
</svg>
