<svg width="56" height="56" viewBox="0 0 56 56" fill="none" xmlns="http://www.w3.org/2000/svg">
<path d="M44.1639 15.4001L46.8366 12.7274L43.273 9.16372L40.2184 12.2183C36.9093 10.1819 32.9639 8.90918 28.8912 8.78191V7.00009H33.9821V4.45463C33.9821 3.05463 32.8366 1.90918 31.4366 1.90918H24.6912C23.2912 1.90918 22.1457 3.05463 22.1457 4.45463V7.00009H27.2366V8.65463C23.0366 8.90918 19.0912 10.1819 15.7821 12.2183L12.7275 9.16372L9.16388 12.7274L11.8366 15.4001C7.76389 19.4728 5.3457 25.0728 5.3457 31.3092C5.3457 43.7819 15.5275 53.9637 28.0002 53.9637C40.473 53.9637 50.6548 43.7819 50.6548 31.3092C50.6548 25.2001 48.1093 19.6001 44.1639 15.4001ZM43.273 11.5819L44.4184 12.7274L42.8912 14.2546C42.5093 13.8728 42.0002 13.491 41.6184 13.2365L43.273 11.5819ZM23.8002 5.34554V4.45463C23.8002 3.94554 24.1821 3.56372 24.6912 3.56372H31.4366C31.9457 3.56372 32.3275 3.94554 32.3275 4.45463V5.34554H23.8002ZM11.5821 12.7274L12.7275 11.5819L14.3821 13.2365C13.873 13.6183 13.4912 13.8728 13.1093 14.2546L11.5821 12.7274ZM28.0002 52.3092C16.4184 52.3092 7.00025 42.891 7.00025 31.3092C7.00025 19.7274 16.4184 10.4365 28.0002 10.4365C39.5821 10.4365 49.0002 19.8546 49.0002 31.4365C49.0002 42.891 39.5821 52.3092 28.0002 52.3092ZM28.0002 13.7455C18.3275 13.7455 10.4366 21.6365 10.4366 31.3092C10.4366 40.9819 18.3275 48.8728 28.0002 48.8728C37.673 48.8728 45.5639 40.9819 45.5639 31.3092C45.5639 21.6365 37.673 13.7455 28.0002 13.7455ZM28.8912 47.2183V45.5637H27.2366V47.2183C19.0912 46.8364 12.6002 40.3455 12.0912 32.2001H13.7457V30.5455H12.0912C12.473 22.4001 19.0912 15.9092 27.1093 15.5274V17.1819H28.7639V15.5274C36.9093 15.9092 43.5275 22.4001 43.9093 30.5455H42.2548V32.2001H43.9093C43.5275 40.3455 36.9093 46.8364 28.8912 47.2183ZM28.0002 28.0001C26.0912 28.0001 24.6912 29.5274 24.6912 31.3092C24.6912 33.2183 26.2184 34.6183 28.0002 34.6183C29.9093 34.6183 31.3093 33.091 31.3093 31.3092C31.3093 29.5274 29.9093 28.0001 28.0002 28.0001ZM28.0002 33.091C27.1093 33.091 26.3457 32.3274 26.3457 31.4365C26.3457 30.5455 27.1093 29.7819 28.0002 29.7819C28.8912 29.7819 29.6548 30.5455 29.6548 31.4365C29.6548 32.3274 28.8912 33.091 28.0002 33.091ZM28.8912 19.6001H27.2366V27.1092H28.8912V19.6001ZM23.8002 30.5455H18.7093V32.2001H23.8002V30.5455Z" fill="url(#paint0_linear)"/>
<defs>
<linearGradient id="paint0_linear" x1="14.6907" y1="53.9637" x2="55.3077" y2="42.8992" gradientUnits="userSpaceOnUse">
<stop stop-color="#FE5000"/>
<stop offset="1" stop-color="#FCA92A"/>
</linearGradient>
</defs>
</svg>
