<svg width="56" height="56" viewBox="0 0 56 56" fill="none" xmlns="http://www.w3.org/2000/svg">
<path fill-rule="evenodd" clip-rule="evenodd" d="M26.2844 43.1221C28.2538 39.5407 29.2384 34.704 29.2384 28.612C29.2384 22.5569 28.2355 17.7386 26.2297 14.1572C24.2604 10.5758 21.2335 8.78516 17.1489 8.78516C13.0644 8.78516 10.0192 10.5758 8.01338 14.1572C6.04405 17.7386 5.05939 22.5569 5.05939 28.612C5.05939 34.6671 6.06228 39.4853 8.06809 43.0667C10.0739 46.6481 13.1373 48.4388 17.2583 48.4388C21.3429 48.4388 24.3516 46.6666 26.2844 43.1221ZM26.2297 28.612C26.2297 40.0207 23.2393 45.7251 17.2583 45.7251C11.1315 45.7251 8.06809 40.0207 8.06809 28.612C8.06809 17.2032 11.095 11.4989 17.1489 11.4989C23.2028 11.4989 26.2297 17.2032 26.2297 28.612ZM47.7882 29.5657C47.4258 29.2891 46.9078 29.3586 46.6311 29.7209L33.6071 46.7805C33.3305 47.1429 33.4 47.6609 33.7623 47.9376C34.1247 48.2142 34.6428 48.1447 34.9194 47.7824L47.9434 30.7228C48.22 30.3604 48.1505 29.8424 47.7882 29.5657ZM34.9026 36.3459C36.3041 36.3459 37.4403 35.2098 37.4403 33.8082C37.4403 32.4067 36.3041 31.2705 34.9026 31.2705C33.501 31.2705 32.3648 32.4067 32.3648 33.8082C32.3648 35.2098 33.501 36.3459 34.9026 36.3459ZM34.9026 38.3484C37.41 38.3484 39.4428 36.3157 39.4428 33.8082C39.4428 31.3007 37.41 29.268 34.9026 29.268C32.3951 29.268 30.3623 31.3007 30.3623 33.8082C30.3623 36.3157 32.3951 38.3484 34.9026 38.3484ZM48.9975 43.7134C48.9975 45.1149 47.8613 46.2511 46.4598 46.2511C45.0582 46.2511 43.922 45.1149 43.922 43.7134C43.922 42.3119 45.0582 41.1757 46.4598 41.1757C47.8613 41.1757 48.9975 42.3119 48.9975 43.7134ZM51 43.7134C51 46.2209 48.9673 48.2536 46.4598 48.2536C43.9523 48.2536 41.9195 46.2209 41.9195 43.7134C41.9195 41.2059 43.9523 39.1732 46.4598 39.1732C48.9673 39.1732 51 41.2059 51 43.7134Z" fill="url(#paint0_linear_8837_1683)"/>
<defs>
<linearGradient id="paint0_linear_8837_1683" x1="14.5346" y1="48.4388" x2="53.6336" y2="34.262" gradientUnits="userSpaceOnUse">
<stop stop-color="#FE5000"/>
<stop offset="1" stop-color="#FCA92A"/>
</linearGradient>
</defs>
</svg>
