<svg width="44" height="44" viewBox="0 0 44 44" fill="none" xmlns="http://www.w3.org/2000/svg">
<path d="M1.30732 27.5514C1.56647 31.8443 3.89882 35.7234 7.52691 37.8956V40.5851C7.52691 41.723 8.45985 42.654 9.60011 42.654H14.4203C15.5606 42.654 16.4935 41.723 16.4935 40.5851V40.5334C16.96 40.5851 17.4783 40.5851 17.9447 40.5851C18.2557 40.5851 18.5667 40.5851 18.8777 40.5851C19.4478 40.5851 20.0179 40.5334 20.6399 40.5334V40.6369C20.6399 41.7747 21.5728 42.7057 22.7131 42.7057H27.5333C28.6735 42.7057 29.6065 41.7747 29.6065 40.6369V39.3956C31.3169 39.0335 32.8718 38.1025 34.1157 36.8612C34.2712 36.7061 34.3748 36.5509 34.4785 36.3957C35.1004 35.5165 35.9297 34.7924 36.8627 34.3269C37.2773 34.12 37.6919 33.9131 38.1066 33.7579C38.7804 33.5511 39.4542 33.189 40.0761 32.827L40.1798 32.7752C41.0091 32.258 41.4755 31.896 41.5274 31.3788L42.6676 25.7412C42.7713 25.1722 42.6676 24.5516 42.3048 24.0861C41.942 23.6206 41.4237 23.2585 40.8536 23.2068C39.7133 23.1551 38.6249 22.7413 37.7438 22.069C37.2773 21.6035 36.8108 21.0863 36.3962 20.6208C36.2925 20.5173 36.2407 20.4656 36.137 20.3622C36.759 19.1726 37.1218 17.8278 37.1736 16.4831C37.1736 15.8107 36.7072 15.19 36.0334 15.0866C35.4633 14.9832 34.945 14.9314 34.3748 14.8797C34.3748 14.2073 34.3748 13.5867 34.2712 12.9143C34.1675 12.2419 33.5974 11.7764 32.8718 11.7764C31.7315 11.7764 29.0882 11.9833 27.3778 13.535C26.9631 13.3281 26.4967 13.1729 26.082 12.966C27.6369 9.44899 26.4967 5.3113 23.3869 3.03557C20.4326 0.604674 16.1307 0.759837 13.2282 3.24245C10.2739 5.72507 9.44462 9.91449 11.2068 13.3281C10.8959 13.4832 10.5849 13.5867 10.3257 13.7419C4.57261 16.4831 1.04817 21.9138 1.30732 27.5514ZM25.2009 7.58703C26.082 10.5351 24.8899 13.6384 22.3503 15.2935C20.0698 15.0866 17.7892 15.2418 15.5606 15.7073C12.6581 14.3108 11.1032 11.1041 11.8288 7.94908C12.5544 4.79409 15.3532 2.6218 18.5667 2.6218C21.6247 2.67352 24.3198 4.69065 25.2009 7.58703ZM33.0791 14.7763C32.3016 14.828 31.5242 15.0349 30.7986 15.3452C30.1248 14.8797 29.451 14.4659 28.829 14.0522C30.0729 13.3281 31.5242 12.966 32.9754 12.966C33.0791 13.5867 33.1309 14.2073 33.0791 14.7763ZM35.8779 16.3279C35.7224 19.7415 33.9602 21.2931 32.4571 21.2931C31.3687 21.2931 30.3839 20.7242 29.8138 19.7932C29.5028 19.0174 29.6583 18.1382 30.2284 17.5692C31.1095 16.5865 32.3535 16.0693 33.701 16.121H33.7529C33.7529 16.121 33.7529 16.121 33.8047 16.121C34.4785 16.121 35.1523 16.1727 35.8779 16.3279ZM10.9477 14.9832C11.2587 14.828 11.6215 14.6728 11.9843 14.5177C12.5026 15.19 13.1245 15.8107 13.7983 16.2762C12.6581 16.69 11.5696 17.2589 10.5849 17.983C10.2739 18.1899 10.2221 18.6554 10.4294 18.9657C10.6367 19.276 11.1032 19.3277 11.4142 19.1209C16.5972 15.2418 25.2528 17.1554 25.3564 17.1554C25.7192 17.2589 26.082 17.0003 26.1857 16.6382C26.2894 16.2762 26.0302 15.9141 25.6674 15.8107C25.5637 15.8107 25.0973 15.7073 24.3198 15.5521C24.7863 15.0866 25.2009 14.6211 25.5637 14.1039C26.4448 14.4142 27.326 14.828 28.1552 15.2935C28.6735 15.5521 29.14 15.9141 29.6583 16.2245C29.451 16.3796 29.2955 16.5865 29.14 16.7934C28.2589 17.8278 28.0516 19.276 28.5699 20.4656C29.3473 21.8621 30.8504 22.6896 32.4571 22.6896C33.5974 22.6896 34.634 22.1724 35.4114 21.3966L35.4633 21.4483C35.9297 21.9655 36.3962 22.4827 36.8627 22.9482C37.8474 23.9309 39.506 24.3447 40.7499 24.4999C40.9572 24.5516 41.1645 24.655 41.2682 24.8102C41.3719 24.9653 41.4237 25.224 41.3719 25.4308L40.2834 31.0167C40.0243 31.2236 39.7651 31.4305 39.506 31.5857L39.4023 31.6891C38.884 31.9994 38.3139 32.3098 37.7438 32.4649C37.2773 32.6201 36.759 32.827 36.2925 33.0856C35.1523 33.7062 34.1675 34.5338 33.4419 35.5682C33.3382 35.7234 33.2346 35.8268 33.1309 35.9302C32.198 36.9129 31.0059 37.5853 29.6583 37.9474V37.2233C29.6583 36.8612 29.3473 36.5509 28.9845 36.5509C28.6217 36.5509 28.3107 36.8612 28.3107 37.2233V40.6886C28.3107 41.0506 27.9997 41.361 27.6369 41.361H22.8167C22.4539 41.361 22.143 41.0506 22.143 40.6886V38.6197C22.143 38.2577 21.832 37.9474 21.4692 37.9474C21.1064 37.9474 20.7954 38.2577 20.7954 38.6197V39.2404C20.2252 39.2921 19.6033 39.2921 19.0332 39.2921C18.2039 39.3438 17.4264 39.2921 16.649 39.2404V38.6197C16.649 38.2577 16.338 37.9474 15.9752 37.9474C15.6124 37.9474 15.3014 38.2577 15.3014 38.6197V40.6886C15.3014 41.0506 14.9904 41.361 14.6276 41.361H9.60011C9.2373 41.361 8.92632 41.0506 8.92632 40.6886V36.5509C8.92632 36.1888 8.61534 35.8785 8.25253 35.8785C7.94155 35.8785 7.6824 36.0854 7.57874 36.3957C4.67627 34.3786 2.91405 31.1202 2.70673 27.6031C2.44758 22.431 5.71287 17.5175 10.9477 14.9832Z" fill="url(#paint0_linear_7714_1899)"/>
<defs>
<linearGradient id="paint0_linear_7714_1899" x1="9.83512" y1="42.7057" x2="46.1557" y2="31.3386" gradientUnits="userSpaceOnUse">
<stop stop-color="#FE5000"/>
<stop offset="1" stop-color="#FCA92A"/>
</linearGradient>
</defs>
</svg>
