<svg width="56" height="56" viewBox="0 0 56 56" fill="none" xmlns="http://www.w3.org/2000/svg">
<path d="M49.8341 24.9542C49.1982 24.9542 48.7742 25.3817 48.7742 26.0229V30.1908V36.4962V37.5649C48.7742 38.7405 47.8203 39.7023 46.6544 39.7023H44.5346C42.7327 39.7023 41.4608 41.0916 41.4608 42.8015V44.9389C41.4608 46.1145 40.5069 47.0763 39.341 47.0763H34.1475H8.17972C7.54378 47.0763 7.11982 46.6489 7.11982 46.0076V25.916C7.11982 25.2748 6.69585 24.8473 6.05991 24.8473C5.42396 24.8473 5 25.2748 5 25.916V45.9008C5 47.7176 6.37788 49 8.07373 49H34.1475H39.341H40.7189C42.0968 49 43.4747 48.4656 44.3226 47.3969L49.1982 42.4809C50.1521 41.5191 50.788 40.1298 50.788 38.8473V37.458V36.3893V30.1908V25.916C50.894 25.2748 50.47 24.9542 49.8341 24.9542ZM43.4747 45.5802C43.4747 45.3664 43.5806 45.1527 43.5806 44.8321V42.6947C43.5806 42.0534 44.0046 41.626 44.6406 41.626H46.7604C46.9724 41.626 47.1843 41.626 47.5023 41.5191L43.4747 45.5802ZM47.8203 10.2061H40.5069V8.0687C40.5069 7.42748 40.0829 7 39.447 7C38.8111 7 38.3871 7.42748 38.3871 8.0687V10.2061H17.6129V8.0687C17.6129 7.42748 17.1889 7 16.553 7C15.917 7 15.4931 7.42748 15.4931 8.0687V10.2061H8.17972C6.37788 10.2061 5.10599 11.5954 5.10599 13.3053V21.7481C5.10599 22.3893 5.52995 22.8168 6.1659 22.8168H49.9401C50.576 22.8168 51 22.3893 51 21.7481V13.3053C50.894 11.5954 49.5161 10.2061 47.8203 10.2061ZM48.7742 20.6794H7.22581V13.3053C7.22581 12.6641 7.64977 12.2366 8.28571 12.2366H15.5991V14.6947C14.9631 15.0153 14.5392 15.7634 14.5392 16.5115C14.5392 17.687 15.4931 18.6489 16.659 18.6489C17.8249 18.6489 18.7788 17.687 18.7788 16.5115C18.7788 15.7634 18.3548 15.0153 17.7189 14.6947V12.2366H38.4931V14.6947C37.8571 15.0153 37.4332 15.7634 37.4332 16.5115C37.4332 17.687 38.3871 18.6489 39.553 18.6489C40.7189 18.6489 41.6728 17.687 41.6728 16.5115C41.6728 15.7634 41.2488 15.0153 40.6129 14.6947V12.2366H47.9263C48.5622 12.2366 48.9862 12.6641 48.9862 13.3053L48.7742 20.6794ZM23.8664 31.1527C25.0323 31.1527 25.9862 30.1908 25.9862 29.0153C25.9862 27.8397 25.0323 26.8779 23.8664 26.8779C22.7005 26.8779 21.7465 27.8397 21.7465 29.0153C21.7465 30.2977 22.7005 31.1527 23.8664 31.1527ZM32.1336 31.1527C33.2995 31.1527 34.2535 30.1908 34.2535 29.0153C34.2535 27.8397 33.2995 26.8779 32.1336 26.8779C30.9677 26.8779 30.0138 27.8397 30.0138 29.0153C30.1198 30.2977 30.9677 31.1527 32.1336 31.1527ZM40.5069 31.1527C41.6728 31.1527 42.6267 30.1908 42.6267 29.0153C42.6267 27.8397 41.6728 26.8779 40.5069 26.8779C39.341 26.8779 38.3871 27.8397 38.3871 29.0153C38.3871 30.2977 39.341 31.1527 40.5069 31.1527ZM15.4931 40.6641C16.659 40.6641 17.6129 39.7023 17.6129 38.5267C17.6129 37.3511 16.659 36.3893 15.4931 36.3893C14.3272 36.3893 13.3733 37.3511 13.3733 38.5267C13.3733 39.7023 14.3272 40.6641 15.4931 40.6641ZM23.8664 40.6641C25.0323 40.6641 25.9862 39.7023 25.9862 38.5267C25.9862 37.3511 25.0323 36.3893 23.8664 36.3893C22.7005 36.3893 21.7465 37.3511 21.7465 38.5267C21.7465 39.7023 22.7005 40.6641 23.8664 40.6641ZM32.1336 40.6641C33.2995 40.6641 34.2535 39.7023 34.2535 38.5267C34.2535 37.3511 33.2995 36.3893 32.1336 36.3893C30.9677 36.3893 30.0138 37.3511 30.0138 38.5267C30.0138 39.7023 30.9677 40.6641 32.1336 40.6641Z" fill="url(#paint0_linear_8837_2458)"/>
<defs>
<linearGradient id="paint0_linear_8837_2458" x1="14.4875" y1="49" x2="54.1266" y2="35.4128" gradientUnits="userSpaceOnUse">
<stop stop-color="#FE5000"/>
<stop offset="1" stop-color="#FCA92A"/>
</linearGradient>
</defs>
</svg>
