<svg width="66" height="66" viewBox="0 0 66 66" fill="none" xmlns="http://www.w3.org/2000/svg">
<path d="M25.4945 23.3309V33.5887H27.2092V23.3309H25.4945ZM26.6033 34.4407V34.8723C26.9577 34.7701 27.2207 34.4407 27.2207 34.0544V33.6228C26.8548 33.7364 26.6033 34.0544 26.6033 34.4407ZM27.2092 33.5887V33.6228C27.2892 33.6 27.3693 33.5887 27.4493 33.5887H27.2092ZM26.6033 35.2926V58.296H28.3181V35.2926H26.6033ZM27.4607 33.5887C27.9294 33.5887 28.3181 33.9749 28.3181 34.4407V35.2926H36.8348V34.4407C36.8348 33.9749 37.212 33.5887 37.6922 33.5887H27.4607ZM37.6807 33.5887C37.7607 33.5887 37.8408 33.6 37.9208 33.6228V33.5887H37.6807ZM37.9322 33.6228V34.0544C37.9322 34.4407 38.1952 34.7701 38.5495 34.8723V34.4407C38.5381 34.0544 38.2866 33.7364 37.9322 33.6228ZM36.8233 35.2926V58.296H38.5381V35.2926H36.8233ZM37.9322 23.3309V33.5887H39.647V23.3309H37.9322ZM25.4945 23.3309V33.5887H27.2092V23.3309H25.4945ZM26.6033 34.4407V34.8723C26.9577 34.7701 27.2207 34.4407 27.2207 34.0544V33.6228C26.8548 33.7364 26.6033 34.0544 26.6033 34.4407ZM27.2092 33.5887V33.6228C27.2892 33.6 27.3693 33.5887 27.4493 33.5887H27.2092ZM26.6033 35.2926V58.296H28.3181V35.2926H26.6033ZM27.4607 33.5887C27.9294 33.5887 28.3181 33.9749 28.3181 34.4407V35.2926H36.8348V34.4407C36.8348 33.9749 37.212 33.5887 37.6922 33.5887H27.4607ZM37.6807 33.5887C37.7607 33.5887 37.8408 33.6 37.9208 33.6228V33.5887H37.6807ZM37.9322 33.6228V34.0544C37.9322 34.4407 38.1952 34.7701 38.5495 34.8723V34.4407C38.5381 34.0544 38.2866 33.7364 37.9322 33.6228ZM36.8233 35.2926V58.296H38.5381V35.2926H36.8233ZM37.9322 23.3309V33.5887H39.647V23.3309H37.9322ZM25.4945 23.3309V33.5887H27.2092V23.3309H25.4945ZM26.6033 34.4407V34.8723C26.9577 34.7701 27.2207 34.4407 27.2207 34.0544V33.6228C26.8548 33.7364 26.6033 34.0544 26.6033 34.4407ZM27.2092 33.5887V33.6228C27.2892 33.6 27.3693 33.5887 27.4493 33.5887H27.2092ZM26.6033 35.2926V58.296H28.3181V35.2926H26.6033ZM27.4607 33.5887C27.9294 33.5887 28.3181 33.9749 28.3181 34.4407V35.2926H36.8348V34.4407C36.8348 33.9749 37.212 33.5887 37.6922 33.5887H27.4607ZM37.6807 33.5887C37.7607 33.5887 37.8408 33.6 37.9208 33.6228V33.5887H37.6807ZM37.9322 33.6228V34.0544C37.9322 34.4407 38.1952 34.7701 38.5495 34.8723V34.4407C38.5381 34.0544 38.2866 33.7364 37.9322 33.6228ZM36.8233 35.2926V58.296H38.5381V35.2926H36.8233ZM37.9322 23.3309V33.5887H39.647V23.3309H37.9322ZM25.4945 23.3309V33.5887H27.2092V23.3309H25.4945ZM26.6033 34.4407V34.8723C26.9577 34.7701 27.2207 34.4407 27.2207 34.0544V33.6228C26.8548 33.7364 26.6033 34.0544 26.6033 34.4407ZM27.2092 33.5887V33.6228C27.2892 33.6 27.3693 33.5887 27.4493 33.5887H27.2092ZM26.6033 35.2926V58.296H28.3181V35.2926H26.6033ZM27.4607 33.5887C27.9294 33.5887 28.3181 33.9749 28.3181 34.4407V35.2926H36.8348V34.4407C36.8348 33.9749 37.212 33.5887 37.6922 33.5887H27.4607ZM37.6807 33.5887C37.7607 33.5887 37.8408 33.6 37.9208 33.6228V33.5887H37.6807ZM37.9322 33.6228V34.0544C37.9322 34.4407 38.1952 34.7701 38.5495 34.8723V34.4407C38.5381 34.0544 38.2866 33.7364 37.9322 33.6228ZM36.8233 35.2926V58.296H38.5381V35.2926H36.8233ZM37.9322 23.3309V33.5887H39.647V23.3309H37.9322ZM25.4945 23.3309V33.5887H27.2092V23.3309H25.4945ZM26.6033 34.4407V34.8723C26.9577 34.7701 27.2207 34.4407 27.2207 34.0544V33.6228C26.8548 33.7364 26.6033 34.0544 26.6033 34.4407ZM27.2092 33.5887V33.6228C27.2892 33.6 27.3693 33.5887 27.4493 33.5887H27.2092ZM26.6033 35.2926V58.296H28.3181V35.2926H26.6033ZM27.4607 33.5887C27.9294 33.5887 28.3181 33.9749 28.3181 34.4407V35.2926H36.8348V34.4407C36.8348 33.9749 37.212 33.5887 37.6922 33.5887H27.4607ZM37.6807 33.5887C37.7607 33.5887 37.8408 33.6 37.9208 33.6228V33.5887H37.6807ZM37.9322 33.6228V34.0544C37.9322 34.4407 38.1952 34.7701 38.5495 34.8723V34.4407C38.5381 34.0544 38.2866 33.7364 37.9322 33.6228ZM36.8233 35.2926V58.296H38.5381V35.2926H36.8233ZM37.9322 23.3309V33.5887H39.647V23.3309H37.9322ZM57.4348 21.6269H7.96956C7.50085 21.6269 7.11217 22.0131 7.11217 22.4789V34.4407C7.11217 34.9064 7.50085 35.2926 7.96956 35.2926H10.8618V34.8269C10.8618 34.3498 11.2505 33.9749 11.7192 33.9749C12.1879 33.9749 12.5766 34.3498 12.5766 34.8269V35.2926H26.5919V34.8723C26.5119 34.8951 26.4319 34.9064 26.3518 34.9064C25.8831 34.9064 25.4945 34.5202 25.4945 34.0544V33.5887H8.82694V23.3309H25.4945V22.7402C25.4945 22.2744 25.8831 21.8882 26.3518 21.8882C26.8205 21.8882 27.2092 22.2744 27.2092 22.7402V23.3309H37.9208V22.7402C37.9208 22.2744 38.3095 21.8882 38.7782 21.8882C39.2583 21.8882 39.6356 22.2744 39.6356 22.7402V23.3309H56.566V33.5887H39.647V34.0544C39.647 34.5202 39.2697 34.9064 38.7896 34.9064C38.7096 34.9064 38.6296 34.8951 38.5495 34.8723V35.2926H52.8164V34.8269C52.8164 34.3498 53.2051 33.9749 53.6738 33.9749C54.1425 33.9749 54.5311 34.3498 54.5311 34.8269V35.2926H57.4234C57.8921 35.2926 58.2808 34.9064 58.2808 34.4407V22.4789C58.2922 22.0131 57.9035 21.6269 57.4348 21.6269ZM39.647 33.5887V23.3309H37.9322V33.5887H39.647ZM36.8233 58.296H38.5381V35.2926H36.8233V58.296ZM37.9322 33.6228V34.0544C37.9322 34.4407 38.1952 34.7701 38.5495 34.8723V34.4407C38.5381 34.0544 38.2866 33.7364 37.9322 33.6228ZM37.6807 33.5887C37.7607 33.5887 37.8408 33.6 37.9208 33.6228V33.5887H37.6807ZM37.6807 33.5887H27.4493C27.918 33.5887 28.3067 33.9749 28.3067 34.4407V35.2926H36.8233V34.4407C36.8233 33.9749 37.212 33.5887 37.6807 33.5887ZM26.6033 58.296H28.3181V35.2926H26.6033V58.296ZM27.2092 33.6228C27.2892 33.6 27.3693 33.5887 27.4493 33.5887H27.2092V33.6228ZM27.2092 34.0544V33.6228C26.8548 33.725 26.5919 34.0544 26.5919 34.4407V34.8723C26.9577 34.7701 27.2092 34.4407 27.2092 34.0544ZM27.2092 23.3309H25.4945V33.5887H27.2092V23.3309ZM37.9322 23.3309V33.5887H39.647V23.3309H37.9322ZM36.8233 35.2926V58.296H38.5381V35.2926H36.8233ZM37.9322 33.6228V34.0544C37.9322 34.4407 38.1952 34.7701 38.5495 34.8723V34.4407C38.5381 34.0544 38.2866 33.7364 37.9322 33.6228ZM37.6807 33.5887C37.7607 33.5887 37.8408 33.6 37.9208 33.6228V33.5887H37.6807ZM27.4607 33.5887C27.9294 33.5887 28.3181 33.9749 28.3181 34.4407V35.2926H36.8348V34.4407C36.8348 33.9749 37.212 33.5887 37.6922 33.5887H27.4607ZM26.6033 35.2926V58.296H28.3181V35.2926H26.6033ZM27.2092 33.5887V33.6228C27.2892 33.6 27.3693 33.5887 27.4493 33.5887H27.2092ZM26.6033 34.4407V34.8723C26.9577 34.7701 27.2207 34.4407 27.2207 34.0544V33.6228C26.8548 33.7364 26.6033 34.0544 26.6033 34.4407ZM25.4945 23.3309V33.5887H27.2092V23.3309H25.4945ZM37.9322 23.3309V33.5887H39.647V23.3309H37.9322ZM36.8233 35.2926V58.296H38.5381V35.2926H36.8233ZM37.9322 33.6228V34.0544C37.9322 34.4407 38.1952 34.7701 38.5495 34.8723V34.4407C38.5381 34.0544 38.2866 33.7364 37.9322 33.6228ZM37.6807 33.5887C37.7607 33.5887 37.8408 33.6 37.9208 33.6228V33.5887H37.6807ZM27.4607 33.5887C27.9294 33.5887 28.3181 33.9749 28.3181 34.4407V35.2926H36.8348V34.4407C36.8348 33.9749 37.212 33.5887 37.6922 33.5887H27.4607ZM26.6033 35.2926V58.296H28.3181V35.2926H26.6033ZM27.2092 33.5887V33.6228C27.2892 33.6 27.3693 33.5887 27.4493 33.5887H27.2092ZM26.6033 34.4407V34.8723C26.9577 34.7701 27.2207 34.4407 27.2207 34.0544V33.6228C26.8548 33.7364 26.6033 34.0544 26.6033 34.4407ZM25.4945 23.3309V33.5887H27.2092V23.3309H25.4945ZM37.9322 23.3309V33.5887H39.647V23.3309H37.9322ZM36.8233 35.2926V58.296H38.5381V35.2926H36.8233ZM37.9322 33.6228V34.0544C37.9322 34.4407 38.1952 34.7701 38.5495 34.8723V34.4407C38.5381 34.0544 38.2866 33.7364 37.9322 33.6228ZM37.6807 33.5887C37.7607 33.5887 37.8408 33.6 37.9208 33.6228V33.5887H37.6807ZM27.4607 33.5887C27.9294 33.5887 28.3181 33.9749 28.3181 34.4407V35.2926H36.8348V34.4407C36.8348 33.9749 37.212 33.5887 37.6922 33.5887H27.4607ZM26.6033 35.2926V58.296H28.3181V35.2926H26.6033ZM27.2092 33.5887V33.6228C27.2892 33.6 27.3693 33.5887 27.4493 33.5887H27.2092ZM26.6033 34.4407V34.8723C26.9577 34.7701 27.2207 34.4407 27.2207 34.0544V33.6228C26.8548 33.7364 26.6033 34.0544 26.6033 34.4407ZM25.4945 23.3309V33.5887H27.2092V23.3309H25.4945ZM37.9322 23.3309V33.5887H39.647V23.3309H37.9322ZM36.8233 35.2926V58.296H38.5381V35.2926H36.8233ZM37.9322 33.6228V34.0544C37.9322 34.4407 38.1952 34.7701 38.5495 34.8723V34.4407C38.5381 34.0544 38.2866 33.7364 37.9322 33.6228ZM37.6807 33.5887C37.7607 33.5887 37.8408 33.6 37.9208 33.6228V33.5887H37.6807ZM27.4607 33.5887C27.9294 33.5887 28.3181 33.9749 28.3181 34.4407V35.2926H36.8348V34.4407C36.8348 33.9749 37.212 33.5887 37.6922 33.5887H27.4607ZM26.6033 35.2926V58.296H28.3181V35.2926H26.6033ZM27.2092 33.5887V33.6228C27.2892 33.6 27.3693 33.5887 27.4493 33.5887H27.2092ZM26.6033 34.4407V34.8723C26.9577 34.7701 27.2207 34.4407 27.2207 34.0544V33.6228C26.8548 33.7364 26.6033 34.0544 26.6033 34.4407ZM25.4945 23.3309V33.5887H27.2092V23.3309H25.4945ZM25.4945 23.3309V33.5887H27.2092V23.3309H25.4945ZM27.2092 33.5887V33.6228C27.2892 33.6 27.3693 33.5887 27.4493 33.5887H27.2092ZM37.9322 23.3309V33.5887H39.647V23.3309H37.9322ZM52.8164 35.2926V58.296H12.5766V35.2926H10.8618V59.148C10.8618 59.6138 11.2505 60 11.7192 60H53.6738C54.1425 60 54.5311 59.6138 54.5311 59.148V35.2926H52.8164ZM37.9322 33.6228V34.0544C37.9322 34.4407 38.1952 34.7701 38.5495 34.8723V34.4407C38.5381 34.0544 38.2866 33.7364 37.9322 33.6228ZM37.9322 23.3309V33.5887H39.647V23.3309H37.9322ZM25.4945 23.3309V33.5887H27.2092V23.3309H25.4945ZM26.6033 34.4407V34.8723C26.9577 34.7701 27.2207 34.4407 27.2207 34.0544V33.6228C26.8548 33.7364 26.6033 34.0544 26.6033 34.4407ZM27.4607 33.5887C27.9294 33.5887 28.3181 33.9749 28.3181 34.4407V35.2926H36.8348V34.4407C36.8348 33.9749 37.212 33.5887 37.6922 33.5887H27.4607ZM37.6807 33.5887C37.7607 33.5887 37.8408 33.6 37.9208 33.6228V33.5887H37.6807ZM37.9322 33.6228V34.0544C37.9322 34.4407 38.1952 34.7701 38.5495 34.8723V34.4407C38.5381 34.0544 38.2866 33.7364 37.9322 33.6228ZM36.8233 35.2926V58.864C36.8233 59.3411 37.2006 59.716 37.6807 59.716C38.1494 59.716 38.5381 59.3411 38.5381 58.864V35.2926H36.8233ZM26.6033 34.4407V34.8723C26.9577 34.7701 27.2207 34.4407 27.2207 34.0544V33.6228C26.8548 33.7364 26.6033 34.0544 26.6033 34.4407ZM26.6033 35.2926V58.864C26.6033 59.3411 26.9806 59.716 27.4607 59.716C27.9294 59.716 28.3181 59.3411 28.3181 58.864V35.2926H26.6033ZM33.3481 14.6748C33.2338 13.039 32.9823 11.2896 32.4564 9.91506C32.2621 9.40387 32.022 8.94948 31.7476 8.56325C30.7416 7.18873 29.2441 6.30267 27.5179 6.06412C25.746 5.8142 23.9169 6.30267 22.4993 7.3932C21.1161 8.46101 20.2244 10.0059 20.0072 11.744C19.79 13.4706 20.2587 15.186 21.3447 16.5718C21.4362 16.6968 21.5391 16.8104 21.6419 16.924C21.722 16.9581 21.8134 16.9922 21.8934 17.0149C26.0546 18.5257 29.6442 18.5712 29.6785 18.5712C30.1472 18.5712 30.5359 18.9574 30.5244 19.4345C30.5244 19.8775 30.1815 20.2297 29.7585 20.2751C30.6616 20.366 31.4161 20.3887 31.9077 20.3887C32.182 20.3887 32.3764 20.3773 32.4678 20.3773C32.4907 20.3773 32.5021 20.3773 32.5021 20.3773C32.9365 20.3546 33.2795 20.0138 33.3138 19.5935C33.3252 19.4572 33.3481 19.1391 33.3595 18.6847C33.3824 18.2417 33.3938 17.6737 33.3938 17.0262C33.4281 16.2992 33.4052 15.504 33.3481 14.6748ZM22.7051 15.5154C21.9049 14.493 21.5619 13.2321 21.722 11.9484C21.882 10.6648 22.5336 9.52883 23.5625 8.73365C24.4313 8.06342 25.5173 7.69991 26.6033 7.69991C26.832 7.69991 27.0606 7.71127 27.2892 7.74535C27.918 7.83623 28.501 8.04071 29.0269 8.34742C29.5527 8.65413 29.9986 9.06308 30.3644 9.56291C31.1417 10.6194 31.4847 12.7095 31.6219 14.7543C31.6105 14.8565 31.6105 14.9701 31.599 15.0724C31.5304 16.5037 31.5533 17.8214 31.5762 18.6507C29.6328 18.628 24.8314 18.2417 22.7051 15.5154ZM31.6333 14.7656C31.6219 14.8679 31.6219 14.9815 31.6104 15.0837C31.5419 16.515 31.5647 17.8328 31.5876 18.662C31.6105 18.662 31.6447 18.662 31.6676 18.662C31.7133 17.6397 31.7248 16.2083 31.6333 14.7656ZM44.9513 11.7326C44.7341 10.0059 43.8539 8.46101 42.4592 7.38184C41.0874 6.31403 39.3726 5.85964 37.6464 6.0982C36.8119 6.21179 36.0002 6.48443 35.2572 6.88202C34.5141 7.29096 33.8396 7.83623 33.2681 8.49509C32.9594 8.84724 32.6965 9.31299 32.4678 9.9037C32.0334 11.051 31.7476 12.6641 31.6333 14.7543C31.6219 14.8565 31.6219 14.9701 31.6104 15.0724C31.5419 16.5037 31.5647 17.8214 31.5876 18.6507C31.599 19.1846 31.6219 19.514 31.6333 19.5481C31.6562 19.9798 32.0106 20.3205 32.445 20.3433C32.4564 20.3433 32.4678 20.3433 32.4907 20.3433C32.5821 20.3433 32.7765 20.3546 33.0509 20.3546C33.5653 20.3546 34.3541 20.3319 35.2915 20.241C34.9028 20.1729 34.6056 19.8434 34.5941 19.4345C34.5941 19.4231 34.5941 19.4118 34.5941 19.4004C34.5941 18.946 34.96 18.5712 35.4172 18.5484C35.4515 18.5484 39.0983 18.378 43.2594 16.799C43.3394 16.765 43.4195 16.7422 43.4995 16.7082C43.5452 16.6514 43.5909 16.6059 43.6252 16.5491C44.6998 15.186 45.1685 13.4706 44.9513 11.7326ZM42.2649 15.5154C40.15 18.2304 35.3486 18.6166 33.3938 18.662C33.4167 18.219 33.4281 17.651 33.4281 17.0035C33.4281 16.2992 33.4052 15.504 33.3595 14.6748C33.4967 12.4937 33.8625 10.4262 34.5598 9.6197C36.3889 7.51816 39.3383 7.13193 41.4189 8.73365C42.4478 9.52883 43.0994 10.6648 43.2594 11.9484C43.408 13.2321 43.0651 14.493 42.2649 15.5154ZM33.3481 14.6748C33.2566 16.0493 33.2566 17.4693 33.3024 18.662C33.3252 18.662 33.3595 18.662 33.3938 18.662C33.4167 18.219 33.4281 17.651 33.4281 17.0035C33.4281 16.2992 33.4052 15.504 33.3481 14.6748ZM21.6419 16.9126C16.2462 14.8906 12.5194 11.4145 10.576 6.59802C10.4502 6.27995 10.1416 6.06412 9.78721 6.06412H9.77577C9.43282 6.06412 9.12416 6.26859 8.98698 6.5753C8.96412 6.60938 8.56401 7.55224 8.24392 8.75637C7.98099 9.7333 7.85524 10.5966 7.84381 11.3577L5.12305 10.4717C4.81439 10.3694 4.48287 10.449 4.25423 10.6762C4.0256 10.9034 3.94557 11.2328 4.03703 11.5395C4.12848 11.8121 6.27765 18.3099 13.514 20.1502C13.9712 20.2637 14.4399 19.9911 14.5543 19.5367C14.6686 19.0823 14.3942 18.6166 13.9369 18.503C11.3076 17.8328 9.12416 16.3787 7.44369 14.1863C7.03215 13.6524 6.71206 13.1412 6.44913 12.6868L8.60973 13.3798C8.91839 13.482 9.24991 13.4025 9.47855 13.1753C9.70718 12.9481 9.78721 12.6187 9.69575 12.312C9.44425 11.4941 9.62716 10.2672 9.91296 9.18804C12.245 13.4934 16.1433 16.7309 21.3104 18.6052C25.746 20.2183 29.5184 20.2637 29.6785 20.2637H29.6899C29.7242 20.2637 29.7471 20.2637 29.7814 20.2637C27.2892 20.0138 23.734 19.2414 21.6419 16.9126ZM60.75 10.6762C60.5214 10.449 60.1899 10.3694 59.8812 10.4717L57.149 11.3464C57.149 10.5966 57.0118 9.72194 56.7489 8.74501C56.4288 7.54088 56.0287 6.60938 56.0058 6.56394C55.8687 6.24587 55.56 6.05276 55.217 6.05276C54.8741 6.05276 54.5654 6.26859 54.4283 6.58666C52.542 11.2214 48.861 14.6293 43.4881 16.7195C41.4418 19.1732 37.8293 19.9911 35.2915 20.2524C35.3372 20.2637 35.3944 20.2637 35.4401 20.2637H35.4744C35.6344 20.2524 39.3955 20.0934 43.8081 18.4235C48.9296 16.4923 52.7935 13.3116 55.0799 9.17668V9.18804C55.4343 10.5285 55.5143 11.6417 55.2971 12.3233C55.2056 12.63 55.2856 12.9595 55.5143 13.1867C55.7429 13.4138 56.0744 13.4934 56.3831 13.3911L58.5323 12.6982C58.2579 13.1753 57.9149 13.7206 57.4805 14.2772C55.7429 16.515 53.468 17.9691 50.7472 18.5939C50.29 18.6961 49.9927 19.1505 50.107 19.6162C50.2099 20.0706 50.6672 20.3546 51.1359 20.2524C58.6351 18.5371 60.8643 11.8348 60.9558 11.5509C61.0587 11.2441 60.9787 10.9034 60.75 10.6762ZM12.5766 34.8269V35.2926H10.8618V34.8269C10.8618 34.3498 11.2505 33.9749 11.7192 33.9749C12.1993 33.9749 12.5766 34.3611 12.5766 34.8269ZM54.5311 34.8269V35.2926H52.8164V34.8269C52.8164 34.3498 53.2051 33.9749 53.6738 33.9749C54.1539 33.9749 54.5311 34.3611 54.5311 34.8269ZM27.2092 33.5887V33.6228C26.8548 33.725 26.5919 34.0544 26.5919 34.4407V34.8723C26.5119 34.8951 26.4319 34.9064 26.3518 34.9064C25.8831 34.9064 25.4945 34.5202 25.4945 34.0544V33.5887H27.2092ZM28.3181 34.4407V35.2926H26.6033V34.8723C26.9577 34.7701 27.2207 34.4407 27.2207 34.0544V33.6228C27.3007 33.6 27.3807 33.5887 27.4607 33.5887C27.9294 33.5887 28.3181 33.9749 28.3181 34.4407ZM38.5381 34.8723V35.2926H36.8233V34.4407C36.8233 33.9749 37.2006 33.5887 37.6807 33.5887C37.7607 33.5887 37.8408 33.6 37.9208 33.6228V34.0544C37.9322 34.4407 38.1837 34.7701 38.5381 34.8723ZM39.647 33.5887V34.0544C39.647 34.5202 39.2697 34.9064 38.7896 34.9064C38.7096 34.9064 38.6296 34.8951 38.5495 34.8723V34.4407C38.5495 34.0544 38.2866 33.725 37.9322 33.6228V33.5887H39.647ZM39.647 22.7402V23.3309H37.9322V22.7402C37.9322 22.2744 38.3209 21.8882 38.7896 21.8882C39.2583 21.8882 39.647 22.2631 39.647 22.7402ZM27.2092 22.7402V23.3309H25.4945V22.7402C25.4945 22.2744 25.8831 21.8882 26.3518 21.8882C26.832 21.8882 27.2092 22.2631 27.2092 22.7402ZM43.4881 16.7195C41.4418 19.1732 37.8293 19.9911 35.2915 20.2524C34.9028 20.1842 34.6056 19.8548 34.5941 19.4458C34.5941 19.4345 34.5941 19.4231 34.5941 19.4118C34.5941 18.9574 34.96 18.5825 35.4172 18.5598C35.4515 18.5598 39.0983 18.3894 43.2594 16.8104C43.328 16.7877 43.408 16.7536 43.4881 16.7195ZM30.5359 19.4231C30.5359 19.8662 30.1929 20.2183 29.7699 20.2637C27.2892 20.0138 23.734 19.2414 21.6419 16.9126C21.722 16.9467 21.8134 16.9808 21.8934 17.0035C26.0546 18.5144 29.6442 18.5598 29.6785 18.5598C30.1586 18.5712 30.5473 18.9574 30.5359 19.4231Z" fill="url(#paint0_linear_5699_1540)"/>
<defs>
<linearGradient id="paint0_linear_5699_1540" x1="15.7563" y1="60" x2="65.2445" y2="43.6514" gradientUnits="userSpaceOnUse">
<stop stop-color="#FE5000"/>
<stop offset="1" stop-color="#FCA92A"/>
</linearGradient>
</defs>
</svg>
