<svg width="66" height="66" viewBox="0 0 66 66" fill="none" xmlns="http://www.w3.org/2000/svg">
<path d="M33.0275 8.01923C33.935 8.01923 34.6775 8.77212 34.6775 9.69231C34.6775 10.6125 33.935 11.3654 33.0275 11.3654C32.12 11.3654 31.3775 10.6125 31.3775 9.69231C31.3775 8.77212 32.12 8.01923 33.0275 8.01923ZM55 16.3846C55 13.9168 53.0338 11.9231 50.6 11.9231H44.495C43.6838 11.0029 42.6387 10.3058 41.4287 9.95721C40.4112 9.66442 39.6413 8.86971 39.3388 7.83798C38.555 5.04952 36.0112 3 33 3C29.9888 3 27.445 5.04952 26.6612 7.83798C26.3725 8.86971 25.5887 9.65048 24.5712 9.95721C23.375 10.3058 22.33 11.0029 21.505 11.9231H15.4C12.9662 11.9231 11 13.9168 11 16.3846V56.5385C11 59.0062 12.9662 61 15.4 61C25.5063 61 37.9225 61 50.6 61C53.0338 61 55 59.0062 55 56.5385C55 43.8649 55 31.7351 55 16.3846ZM22 16.3428C22.0138 14.3769 23.32 12.6341 25.1763 12.0904C26.9225 11.5745 28.27 10.2221 28.765 8.45144C29.315 6.55529 31.0475 5.23077 33 5.23077C34.9525 5.23077 36.685 6.55529 37.235 8.45144C37.7438 10.2221 39.0775 11.5885 40.8237 12.0904C42.6938 12.6481 44 14.4048 44 16.3846V18.6154H22V16.3428ZM50.6 58.7692C38.8438 58.7692 27.115 58.7692 15.4 58.7692C14.19 58.7692 13.2 57.7654 13.2 56.5385V16.3846C13.2 15.1577 14.19 14.1538 15.4 14.1538H20.1712C19.9375 14.837 19.8 15.562 19.8 16.3288V20.8462H46.2V16.3846C46.2 15.6038 46.0625 14.851 45.815 14.1538H50.6C51.81 14.1538 52.8 15.1577 52.8 16.3846C52.8 22.7563 52.8 52.6764 52.8 56.5385C52.8 57.7654 51.81 58.7692 50.6 58.7692ZM42.1438 30.1178L28.9163 43.5303L23.1 37.6187L21.5462 39.1942L28.93 46.6812L43.7113 31.6933L42.1438 30.1178Z" fill="url(#paint0_linear_5699_1538)"/>
<defs>
<linearGradient id="paint0_linear_5699_1538" x1="20.075" y1="61" x2="60.1846" y2="51.4771" gradientUnits="userSpaceOnUse">
<stop stop-color="#FE5000"/>
<stop offset="1" stop-color="#FCA92A"/>
</linearGradient>
</defs>
</svg>
