<svg width="119" height="35" viewBox="0 0 119 35" fill="none" xmlns="http://www.w3.org/2000/svg">
  <path d="M7.57708 34.9982C7.27219 34.9982 6.97466 34.9946 6.67216 34.9884C6.04551 34.9809 5.42032 34.931 4.80172 34.8391C4.22491 34.7483 3.66614 34.5794 3.14383 34.3378C2.62632 34.0983 2.1543 33.7842 1.74586 33.4077C1.33152 33.0355 0.986552 32.6039 0.724643 32.1299C0.459849 31.6528 0.276595 31.1414 0.181266 30.6136C0.0783187 30.0464 0.0226201 29.4729 0.0146502 28.898C0.0083058 28.705 0 28.0625 0 28.0625V6.92583C0 6.92583 0.00884618 6.2932 0.0147002 6.10734C0.0223314 5.53335 0.0777062 4.96073 0.180345 4.39443C0.27585 3.86512 0.459246 3.35227 0.724183 2.87363C0.985129 2.39995 1.32818 1.968 1.74003 1.59453C2.15142 1.2175 2.62494 0.901813 3.14334 0.658981C3.66445 0.418234 4.22217 0.250461 4.79781 0.161284C5.41844 0.0684739 6.0458 0.0182961 6.67462 0.011172L7.57757 0H110.418L111.331 0.0116203C111.954 0.0183905 112.576 0.0681206 113.191 0.160388C113.772 0.250683 114.336 0.419626 114.863 0.661662C115.902 1.15104 116.747 1.92528 117.28 2.87586C117.54 3.3512 117.721 3.85987 117.815 4.3846C117.919 4.95555 117.977 5.53267 117.989 6.11137C117.992 6.37049 117.992 6.64883 117.992 6.92583C118 7.26895 118 7.59554 118 7.9248V27.0742C118 27.4066 118 27.731 117.992 28.058C117.992 28.3556 117.992 28.6281 117.988 28.9087C117.977 29.477 117.919 30.0439 117.817 30.6046C117.724 31.1363 117.542 31.6516 117.277 32.1326C117.013 32.6015 116.67 33.0294 116.26 33.4005C115.852 33.7791 115.379 34.095 114.86 34.3361C114.335 34.5795 113.772 34.7491 113.191 34.8391C112.572 34.9315 111.947 34.9814 111.32 34.9884C111.027 34.9946 110.72 34.9982 110.422 34.9982L109.338 35L7.57708 34.9982Z" fill="#373A36"></path>
  <path d="M28.6976 17.2639C28.7071 16.5336 28.901 15.8175 29.2616 15.1823C29.6221 14.5471 30.1374 14.0134 30.7596 13.6308C30.3644 13.0663 29.8429 12.6017 29.2367 12.274C28.6305 11.9463 27.9562 11.7644 27.2674 11.7429C25.798 11.5886 24.3736 12.6221 23.6248 12.6221C22.8616 12.6221 21.7088 11.7582 20.4674 11.7837C19.6644 11.8097 18.8819 12.0432 18.196 12.4615C17.5101 12.8798 16.9443 13.4686 16.5536 14.1706C14.8613 17.1005 16.1236 21.4064 17.7446 23.7747C18.5557 24.9344 19.5036 26.2298 20.7438 26.1838C21.9575 26.1335 22.4108 25.4099 23.8758 25.4099C25.3272 25.4099 25.7525 26.1838 27.0179 26.1546C28.3202 26.1335 29.1408 24.9898 29.9234 23.8191C30.5061 22.9928 30.9545 22.0795 31.252 21.1132C30.4954 20.7931 29.8497 20.2575 29.3954 19.573C28.9412 18.8885 28.6985 18.0854 28.6976 17.2639Z" fill="white"></path>
  <path d="M26.3075 10.1854C27.0176 9.33296 27.3675 8.23731 27.2827 7.1311C26.1979 7.24505 25.1958 7.76354 24.4761 8.58326C24.1242 8.98372 23.8547 9.4496 23.683 9.95427C23.5113 10.4589 23.4407 10.9925 23.4754 11.5245C24.018 11.5301 24.5548 11.4125 25.0454 11.1805C25.536 10.9486 25.9675 10.6083 26.3075 10.1854Z" fill="white"></path>
  <path d="M44.0396 23.2481H39.8978L38.9032 26.185H37.1489L41.0719 15.3192H42.8945L46.8175 26.185H45.0333L44.0396 23.2481ZM40.3268 21.8928H43.6098L41.9914 17.1265H41.9461L40.3268 21.8928Z" fill="white"></path>
  <path d="M55.2899 22.2244C55.2899 24.6862 53.9723 26.2678 51.9839 26.2678C51.4802 26.2942 50.9793 26.1781 50.5385 25.933C50.0976 25.6879 49.7348 25.3236 49.4914 24.8818H49.4537V28.8057H47.8276V18.2629H49.4016V19.5806H49.4315C49.6861 19.1409 50.0551 18.7785 50.4993 18.5319C50.9435 18.2853 51.4462 18.1637 51.954 18.18C53.9646 18.1801 55.2899 19.7694 55.2899 22.2244ZM53.6186 22.2244C53.6186 20.6205 52.7897 19.566 51.525 19.566C50.2826 19.566 49.4469 20.6427 49.4469 22.2244C49.4469 23.8206 50.2826 24.8895 51.525 24.8895C52.7897 24.8895 53.6186 23.8428 53.6186 22.2244Z" fill="white"></path>
  <path d="M64.0092 22.2244C64.0092 24.6862 62.6916 26.2678 60.7031 26.2678C60.1995 26.2942 59.6985 26.1781 59.2577 25.933C58.8169 25.6879 58.454 25.3236 58.2106 24.8818H58.173V28.8056H56.5469V18.2629H58.1208V19.5806H58.1507C58.4053 19.1409 58.7743 18.7785 59.2185 18.5319C59.6627 18.2853 60.1654 18.1637 60.6732 18.18C62.6839 18.18 64.0092 19.7694 64.0092 22.2244ZM62.3378 22.2244C62.3378 20.6205 61.5089 19.566 60.2443 19.566C59.0019 19.566 58.1662 20.6427 58.1662 22.2244C58.1662 23.8206 59.0019 24.8895 60.2443 24.8895C61.5089 24.8895 62.3378 23.8428 62.3378 22.2244H62.3378Z" fill="white"></path>
  <path d="M69.7715 23.1575C69.892 24.235 70.9388 24.9425 72.3692 24.9425C73.7398 24.9425 74.7259 24.235 74.7259 23.2634C74.7259 22.42 74.1311 21.9151 72.7229 21.569L71.3147 21.2297C69.3195 20.7478 68.3932 19.8147 68.3932 18.3005C68.3932 16.4258 70.027 15.1381 72.347 15.1381C74.643 15.1381 76.2169 16.4258 76.2699 18.3005H74.6284C74.5302 17.2162 73.6338 16.5617 72.3239 16.5617C71.0139 16.5617 70.1176 17.2239 70.1176 18.1878C70.1176 18.9559 70.6901 19.408 72.0906 19.754L73.2877 20.0479C75.5171 20.5752 76.4434 21.4707 76.4434 23.06C76.4434 25.0929 74.8241 26.3661 72.2487 26.3661C69.839 26.3661 68.212 25.1228 68.1069 23.1574L69.7715 23.1575Z" fill="white"></path>
  <path d="M79.9531 16.3882V18.2629H81.4596V19.5507H79.9531V23.918C79.9531 24.5964 80.2548 24.9126 80.917 24.9126C81.0958 24.9095 81.2744 24.8969 81.4519 24.875V26.155C81.1542 26.2106 80.8515 26.2358 80.5487 26.2302C78.9448 26.2302 78.3193 25.6278 78.3193 24.0914V19.5507H77.1675V18.2629H78.3193V16.3882H79.9531Z" fill="white"></path>
  <path d="M82.332 22.2244C82.332 19.7318 83.8 18.1655 86.0892 18.1655C88.3861 18.1655 89.8473 19.7318 89.8473 22.2244C89.8473 24.7238 88.3938 26.2832 86.0892 26.2832C83.7855 26.2832 82.332 24.7237 82.332 22.2244ZM88.1904 22.2244C88.1904 20.5145 87.4069 19.5054 86.0892 19.5054C84.7716 19.5054 83.9889 20.5222 83.9889 22.2244C83.9889 23.941 84.7716 24.9425 86.0892 24.9425C87.4069 24.9425 88.1904 23.941 88.1904 22.2244H88.1904Z" fill="white"></path>
  <path d="M91.188 18.263H92.7389V19.6114H92.7765C92.8815 19.1902 93.1282 18.8181 93.4752 18.5574C93.8222 18.2968 94.2484 18.1635 94.682 18.1801C94.8694 18.1794 95.0563 18.1998 95.2392 18.2408V19.7618C95.0026 19.6895 94.7558 19.6563 94.5085 19.6635C94.2723 19.6539 94.0368 19.6956 93.8182 19.7856C93.5996 19.8756 93.403 20.0119 93.2421 20.185C93.0811 20.3582 92.9595 20.5641 92.8856 20.7887C92.8117 21.0133 92.7873 21.2512 92.8141 21.4861V26.185H91.188L91.188 18.263Z" fill="white"></path>
  <path d="M102.736 23.8582C102.518 25.2963 101.117 26.2832 99.3253 26.2832C97.0208 26.2832 95.5903 24.7391 95.5903 22.262C95.5903 19.7771 97.0284 18.1655 99.257 18.1655C101.449 18.1655 102.827 19.6711 102.827 22.0731V22.6302H97.2318V22.7285C97.206 23.0201 97.2425 23.3138 97.3389 23.5901C97.4353 23.8665 97.5894 24.1192 97.791 24.3314C97.9925 24.5436 98.2369 24.7106 98.508 24.8211C98.779 24.9316 99.0704 24.9832 99.3629 24.9724C99.7472 25.0084 100.133 24.9194 100.462 24.7187C100.792 24.5179 101.048 24.2161 101.192 23.8581L102.736 23.8582ZM97.2395 21.4938H101.2C101.215 21.2316 101.175 20.9693 101.083 20.7232C100.992 20.4772 100.85 20.2527 100.668 20.0639C100.485 19.8751 100.266 19.7261 100.023 19.6261C99.7803 19.5262 99.5195 19.4775 99.257 19.4832C98.9922 19.4816 98.7297 19.5325 98.4846 19.6329C98.2396 19.7332 98.0169 19.8812 97.8293 20.0681C97.6417 20.255 97.493 20.4773 97.3918 20.722C97.2906 20.9667 97.2388 21.229 97.2395 21.4938V21.4938Z" fill="white"></path>
  <path d="M39.171 9.34769H39.8691C39.9893 9.36266 40.1113 9.35257 40.2274 9.31805C40.3435 9.28354 40.4511 9.22535 40.5436 9.14716C40.6361 9.06897 40.7114 8.97247 40.7647 8.86374C40.818 8.75501 40.8483 8.63641 40.8535 8.51542C40.8535 8.03392 40.4912 7.72288 39.8768 7.72288C39.7537 7.70567 39.6284 7.71331 39.5083 7.74535C39.3881 7.77738 39.2756 7.83316 39.1774 7.90938C39.0792 7.98561 38.9973 8.08074 38.9364 8.18916C38.8756 8.29758 38.8371 8.41709 38.8232 8.54063H38.0567C38.0699 8.31637 38.1291 8.09722 38.2307 7.89684C38.3323 7.69645 38.474 7.51912 38.647 7.37588C38.8201 7.23264 39.0208 7.12655 39.2366 7.06423C39.4525 7.00192 39.6788 6.9847 39.9016 7.01365C40.9295 7.01365 41.6533 7.58914 41.6533 8.41758C41.6557 8.69511 41.5629 8.96507 41.3903 9.1824C41.2177 9.39972 40.9757 9.55127 40.7048 9.61173V9.67325C41.026 9.6875 41.3284 9.8283 41.546 10.0649C41.7636 10.3015 41.8787 10.6146 41.8661 10.9358C41.8423 11.1667 41.7727 11.3905 41.6613 11.5942C41.5499 11.7978 41.399 11.9772 41.2174 12.1217C41.0358 12.2663 40.8271 12.3732 40.6037 12.436C40.3802 12.4989 40.1465 12.5166 39.9161 12.488C39.6853 12.5194 39.4505 12.5041 39.2257 12.4429C39.0009 12.3817 38.7908 12.2758 38.6078 12.1316C38.4248 11.9875 38.2727 11.8079 38.1605 11.6037C38.0484 11.3995 37.9785 11.1748 37.9551 10.943H38.7335C38.7805 11.4425 39.2394 11.7647 39.9161 11.7647C40.5929 11.7647 41.0347 11.4028 41.0347 10.8927C41.0347 10.3753 40.6185 10.0565 39.8914 10.0565H39.171V9.34769Z" fill="white"></path>
  <path d="M42.7505 11.2472C42.7505 10.538 43.2794 10.1291 44.2159 10.071L45.2832 10.0095V9.66937C45.2832 9.25323 45.0089 9.01825 44.4766 9.01825C44.0425 9.01825 43.7426 9.17761 43.6554 9.45618H42.9026C42.9821 8.77942 43.6195 8.34534 44.5133 8.34534C45.5011 8.34534 46.0582 8.83709 46.0582 9.66937V12.3614H45.3088V11.8077H45.2473C45.1224 12.0064 44.9471 12.1683 44.7392 12.277C44.5312 12.3856 44.2982 12.4372 44.0638 12.4264C43.8984 12.4436 43.7313 12.4259 43.5731 12.3746C43.4149 12.3232 43.2693 12.2393 43.1455 12.1282C43.0218 12.0171 42.9227 11.8813 42.8547 11.7295C42.7866 11.5778 42.7511 11.4135 42.7505 11.2472ZM45.2832 10.9105V10.5811L44.321 10.6426C43.7784 10.6789 43.5323 10.8635 43.5323 11.2109C43.5323 11.5655 43.8399 11.7718 44.2629 11.7718C44.3869 11.7844 44.5121 11.7719 44.6311 11.7351C44.7501 11.6982 44.8605 11.6378 44.9557 11.5575C45.0509 11.4771 45.1289 11.3784 45.1852 11.2673C45.2414 11.1561 45.2748 11.0348 45.2832 10.9105Z" fill="white"></path>
  <path d="M48.1218 9.07593V12.3615H47.3442V8.42139H49.9385V9.07589L48.1218 9.07593Z" fill="white"></path>
  <path d="M54.6511 10.3898C54.6511 11.6416 54.0179 12.4265 53.0233 12.4265C52.7792 12.4432 52.5353 12.3897 52.3205 12.2725C52.1057 12.1552 51.9288 11.979 51.8108 11.7647H51.7493V13.6715H50.9717V8.42147H51.7202V9.07262H51.7783C51.8985 8.85076 52.0776 8.66643 52.296 8.53999C52.5143 8.41355 52.7634 8.34992 53.0156 8.35613C54.0179 8.3561 54.6511 9.13753 54.6511 10.3898ZM53.8513 10.3898C53.8513 9.55752 53.4574 9.05465 52.7986 9.05465C52.1441 9.05465 51.7348 9.5682 51.7348 10.3932C51.7348 11.2144 52.144 11.7284 52.7952 11.7284C53.4574 11.7284 53.8513 11.2255 53.8513 10.3898Z" fill="white"></path>
  <path d="M55.6868 13.7727V13.1032C55.7709 13.1138 55.8557 13.1187 55.9405 13.1177C56.1062 13.1299 56.2706 13.0806 56.4021 12.9791C56.5336 12.8776 56.623 12.7312 56.6532 12.5678L56.7113 12.376L55.2852 8.42139H56.132L57.1198 11.551H57.1813L58.1657 8.42139H58.9903L57.5214 12.5242C57.1847 13.483 56.8122 13.7906 56.009 13.7906C55.944 13.7906 55.7594 13.7833 55.6868 13.7727Z" fill="white"></path>
  <path d="M59.5957 11.2433H60.3699C60.4459 11.5907 60.7715 11.7718 61.2269 11.7718C61.7448 11.7718 62.0626 11.5437 62.0626 11.1891C62.0626 10.8092 61.7772 10.6281 61.2269 10.6281H60.6373V10.024H61.2167C61.6866 10.024 61.9259 9.84325 61.9259 9.51384C61.9259 9.22459 61.6943 9.00372 61.2167 9.00372C60.7817 9.00372 60.4639 9.18829 60.4134 9.49933H59.6641C59.7201 9.14192 59.9141 8.82078 60.2045 8.60498C60.4948 8.38917 60.8583 8.29594 61.2167 8.34533C62.1532 8.34533 62.689 8.76874 62.689 9.43438C62.6933 9.61975 62.6339 9.80099 62.5207 9.94782C62.4075 10.0946 62.2473 10.1982 62.0669 10.241V10.3026C62.2817 10.3303 62.4788 10.4358 62.6209 10.5992C62.7629 10.7627 62.8401 10.9726 62.8377 11.1891C62.8377 11.9381 62.2002 12.4336 61.2269 12.4336C60.3665 12.4336 59.6675 12.0393 59.5957 11.2433Z" fill="white"></path>
  <path d="M63.9575 12.3614V8.42139H64.7283V11.1314H64.7898L66.6056 8.4214H67.3763V12.3615H66.6056V9.63692H66.5475L64.7283 12.3615L63.9575 12.3614Z" fill="white"></path>
  <path d="M71.6222 9.07601H70.3815V12.3615H69.6031V9.07601H68.3623V8.42151H71.6222V9.07601Z" fill="white"></path>
  <path d="M75.8111 11.2977C75.7052 11.6578 75.4761 11.9692 75.1639 12.1775C74.8517 12.3859 74.4762 12.4779 74.103 12.4376C73.8434 12.4444 73.5854 12.3947 73.347 12.2919C73.1086 12.189 72.8954 12.0355 72.7222 11.842C72.549 11.6485 72.42 11.4197 72.3442 11.1713C72.2683 10.923 72.2474 10.6611 72.2829 10.4039C72.2484 10.1459 72.2696 9.88341 72.3453 9.63432C72.421 9.38523 72.5493 9.15531 72.7215 8.96012C72.8938 8.76493 73.106 8.60903 73.3437 8.50298C73.5815 8.39692 73.8393 8.34318 74.0996 8.3454C75.1959 8.3454 75.8581 9.0944 75.8581 10.3317V10.603H73.0759V10.6466C73.0636 10.7912 73.0816 10.9368 73.129 11.074C73.1763 11.2112 73.2517 11.337 73.3506 11.4433C73.4494 11.5496 73.5694 11.6341 73.7028 11.6913C73.8362 11.7484 73.9801 11.7771 74.1252 11.7753C74.3111 11.7975 74.4994 11.764 74.6661 11.6789C74.8329 11.5939 74.9706 11.4612 75.0617 11.2977L75.8111 11.2977ZM73.0759 10.0279H75.0651C75.075 9.89574 75.057 9.76297 75.0125 9.63814C74.968 9.51331 74.8978 9.39917 74.8066 9.30305C74.7153 9.20693 74.605 9.13096 74.4826 9.08001C74.3603 9.02907 74.2286 9.00427 74.0961 9.00722C73.9616 9.00539 73.8281 9.03054 73.7034 9.08119C73.5788 9.13185 73.4656 9.20697 73.3705 9.30212C73.2754 9.39727 73.2003 9.51052 73.1497 9.63518C73.0991 9.75984 73.074 9.89338 73.0759 10.0279H73.0759Z" fill="white"></path>
  <path d="M79.1079 8.42139H80.8844C81.6551 8.42139 82.1072 8.81189 82.1072 9.42326C82.1084 9.61726 82.0429 9.80578 81.9217 9.95728C81.8006 10.1088 81.631 10.2141 81.4415 10.2555V10.3171C81.6716 10.3316 81.8874 10.434 82.0442 10.603C82.2009 10.772 82.2868 10.9948 82.2841 11.2254C82.2841 11.9128 81.7671 12.3614 80.9023 12.3614H79.1079V8.42139ZM79.8787 9.01825V10.0385H80.6494C81.1194 10.0385 81.3441 9.85778 81.3441 9.52453C81.3441 9.21734 81.1484 9.01824 80.7357 9.01824L79.8787 9.01825ZM79.8787 10.6102V11.7646H80.8007C81.2604 11.7646 81.5065 11.5617 81.5065 11.1891C81.5065 10.7948 81.2279 10.6102 80.7033 10.6102L79.8787 10.6102Z" fill="white"></path>
</svg>
