<svg width="44" height="44" viewBox="0 0 44 44" fill="none" xmlns="http://www.w3.org/2000/svg">
<path d="M21.6586 3.80769C22.3567 3.80769 22.9278 4.37885 22.9278 5.07692C22.9278 5.775 22.3567 6.34615 21.6586 6.34615C20.9605 6.34615 20.3894 5.775 20.3894 5.07692C20.3894 4.37885 20.9605 3.80769 21.6586 3.80769ZM38.5605 10.1538C38.5605 8.28173 37.048 6.76923 35.1759 6.76923H30.4797C29.8557 6.07115 29.0519 5.54231 28.1211 5.27788C27.3384 5.05577 26.7461 4.45288 26.5134 3.67019C25.9105 1.55481 23.9538 0 21.6374 0C19.3211 0 17.3644 1.55481 16.7615 3.67019C16.5394 4.45288 15.9365 5.04519 15.1538 5.27788C14.2336 5.54231 13.4297 6.07115 12.7951 6.76923H8.09897C6.22686 6.76923 4.71436 8.28173 4.71436 10.1538V40.6154C4.71436 42.4875 6.22686 44 8.09897 44C15.873 44 25.424 44 35.1759 44C37.048 44 38.5605 42.4875 38.5605 40.6154C38.5605 31.001 38.5605 21.799 38.5605 10.1538ZM13.1759 10.1221C13.1865 8.63077 14.1913 7.30865 15.6192 6.89615C16.9624 6.50481 17.999 5.47885 18.3797 4.13558C18.8028 2.69711 20.1355 1.69231 21.6374 1.69231C23.1394 1.69231 24.472 2.69711 24.8951 4.13558C25.2865 5.47885 26.3124 6.51538 27.6557 6.89615C29.0942 7.31923 30.099 8.65192 30.099 10.1538V11.8462H13.1759V10.1221ZM35.1759 42.3077C26.1326 42.3077 17.1105 42.3077 8.09897 42.3077C7.1682 42.3077 6.40666 41.5462 6.40666 40.6154V10.1538C6.40666 9.22308 7.1682 8.46154 8.09897 8.46154H11.7692C11.5894 8.97981 11.4836 9.52981 11.4836 10.1115V13.5385H31.7913V10.1538C31.7913 9.56154 31.6855 8.99039 31.4951 8.46154H35.1759C36.1067 8.46154 36.8682 9.22308 36.8682 10.1538C36.8682 14.9875 36.8682 37.6856 36.8682 40.6154C36.8682 41.5462 36.1067 42.3077 35.1759 42.3077ZM28.6711 20.5721L18.4961 30.7471L14.022 26.2625L12.8269 27.4577L18.5067 33.1375L29.8769 21.7673L28.6711 20.5721Z" fill="url(#paint0_linear)"/>
<defs>
<linearGradient id="paint0_linear" x1="11.6951" y1="44" x2="42.5023" y2="36.5834" gradientUnits="userSpaceOnUse">
<stop stop-color="#FE5000"/>
<stop offset="1" stop-color="#FCA92A"/>
</linearGradient>
</defs>
</svg>
