<svg width="119" height="35" viewBox="0 0 119 35" fill="none" xmlns="http://www.w3.org/2000/svg">
  <g clip-path="url(#clip0)">
    <path d="M113.875 35H4.5C2.05 35 0.125 33.075 0.125 30.625V4.375C0.125 1.925 2.05 0 4.5 0H113.875C116.325 0 118.25 1.925 118.25 4.375V30.625C118.25 33.075 116.325 35 113.875 35Z" fill="#373A36"></path>
    <path d="M59.7124 19.075C57.6124 19.075 55.9499 20.65 55.9499 22.8375C55.9499 24.9375 57.6124 26.6 59.7124 26.6C61.8124 26.6 63.4749 25.025 63.4749 22.8375C63.4749 20.5625 61.8124 19.075 59.7124 19.075ZM59.7124 25.025C58.5749 25.025 57.6124 24.0625 57.6124 22.75C57.6124 21.4375 58.5749 20.475 59.7124 20.475C60.8499 20.475 61.8124 21.35 61.8124 22.75C61.8124 24.0625 60.8499 25.025 59.7124 25.025ZM51.5749 19.075C49.4749 19.075 47.8124 20.65 47.8124 22.8375C47.8124 24.9375 49.4749 26.6 51.5749 26.6C53.6749 26.6 55.3374 25.025 55.3374 22.8375C55.3374 20.5625 53.6749 19.075 51.5749 19.075ZM51.5749 25.025C50.4374 25.025 49.4749 24.0625 49.4749 22.75C49.4749 21.4375 50.4374 20.475 51.5749 20.475C52.7124 20.475 53.6749 21.35 53.6749 22.75C53.6749 24.0625 52.7124 25.025 51.5749 25.025ZM41.8624 20.2125V21.7875H45.6249C45.5374 22.6625 45.1874 23.3625 44.7499 23.8C44.2249 24.325 43.3499 24.9375 41.8624 24.9375C39.4999 24.9375 37.7499 23.1 37.7499 20.7375C37.7499 18.375 39.5874 16.5375 41.8624 16.5375C43.0874 16.5375 44.0499 17.0625 44.7499 17.675L45.8874 16.5375C44.9249 15.6625 43.6999 14.9625 41.9499 14.9625C38.7999 14.9625 36.0874 17.5875 36.0874 20.7375C36.0874 23.8875 38.7999 26.5125 41.9499 26.5125C43.6999 26.5125 44.9249 25.9875 45.9749 24.85C47.0249 23.8 47.3749 22.3125 47.3749 21.175C47.3749 20.825 47.3749 20.475 47.2874 20.2125H41.8624ZM81.5874 21.4375C81.2374 20.5625 80.3624 19.075 78.4374 19.075C76.5124 19.075 74.9374 20.5625 74.9374 22.8375C74.9374 24.9375 76.5124 26.6 78.6124 26.6C80.2749 26.6 81.3249 25.55 81.6749 24.9375L80.4499 24.0625C80.0124 24.675 79.4874 25.1125 78.6124 25.1125C77.7374 25.1125 77.2124 24.7625 76.7749 23.975L81.7624 21.875L81.5874 21.4375ZM76.5124 22.6625C76.5124 21.2625 77.6499 20.475 78.4374 20.475C79.0499 20.475 79.6624 20.825 79.8374 21.2625L76.5124 22.6625ZM72.3999 26.25H74.0624V15.3125H72.3999V26.25ZM69.7749 19.8625C69.3374 19.425 68.6374 18.9875 67.7624 18.9875C65.9249 18.9875 64.1749 20.65 64.1749 22.75C64.1749 24.85 65.8374 26.425 67.7624 26.425C68.6374 26.425 69.3374 25.9875 69.6874 25.55H69.7749V26.075C69.7749 27.475 68.9874 28.2625 67.7624 28.2625C66.7999 28.2625 66.0999 27.5625 65.9249 26.95L64.5249 27.5625C64.9624 28.525 66.0124 29.75 67.8499 29.75C69.7749 29.75 71.3499 28.6125 71.3499 25.9V19.25H69.7749V19.8625ZM67.8499 25.025C66.7124 25.025 65.7499 24.0625 65.7499 22.75C65.7499 21.4375 66.7124 20.475 67.8499 20.475C68.9874 20.475 69.8624 21.4375 69.8624 22.75C69.8624 24.0625 68.9874 25.025 67.8499 25.025ZM89.1999 15.3125H85.2624V26.25H86.9249V22.1375H89.1999C91.0374 22.1375 92.7874 20.825 92.7874 18.725C92.7874 16.625 91.0374 15.3125 89.1999 15.3125ZM89.2874 20.5625H86.9249V16.8H89.2874C90.5124 16.8 91.2124 17.85 91.2124 18.6375C91.1249 19.6 90.4249 20.5625 89.2874 20.5625ZM99.3499 18.9875C98.1249 18.9875 96.8999 19.5125 96.4624 20.65L97.9499 21.2625C98.2999 20.65 98.8249 20.475 99.4374 20.475C100.312 20.475 101.1 21 101.187 21.875V21.9625C100.925 21.7875 100.225 21.525 99.5249 21.525C97.9499 21.525 96.3749 22.4 96.3749 23.975C96.3749 25.4625 97.6874 26.425 99.0874 26.425C100.225 26.425 100.75 25.9 101.187 25.375H101.275V26.25H102.85V22.05C102.675 20.125 101.187 18.9875 99.3499 18.9875ZM99.1749 25.025C98.6499 25.025 97.8624 24.7625 97.8624 24.0625C97.8624 23.1875 98.8249 22.925 99.6124 22.925C100.312 22.925 100.662 23.1 101.1 23.275C100.925 24.325 100.05 25.025 99.1749 25.025ZM108.362 19.25L106.525 23.975H106.437L104.512 19.25H102.762L105.65 25.9L103.987 29.575H105.65L110.112 19.25H108.362ZM93.6624 26.25H95.3249V15.3125H93.6624V26.25Z" fill="white"></path>
    <g clip-path="url(#clip1)">
      <path d="M12.5835 7.3356C11.7619 6.8815 10.7973 6.892 9.98096 7.34217L19.5485 16.1682L22.7627 12.9541L12.5835 7.3356Z" fill="white"></path>
      <path d="M9.02422 8.24524C8.79061 8.62716 8.65674 9.06419 8.65674 9.52748V25.4682C8.65674 25.917 8.77879 26.3449 8.99928 26.7189L18.6207 17.0975L9.02422 8.24524Z" fill="white"></path>
      <path d="M27.0241 15.3063L23.9583 13.6146L20.5132 17.0584L24.7353 20.9524L27.0254 19.6885C27.8496 19.2318 28.3431 18.4129 28.3431 17.4968C28.3418 16.5807 27.8496 15.7618 27.0241 15.3063Z" fill="white"></path>
      <path d="M19.5851 17.9877L9.9375 27.6353C10.3562 27.8742 10.8155 28.0002 11.2775 28.0002C11.7237 28.0002 12.1726 27.8873 12.5834 27.6602L23.525 21.6218L19.5851 17.9877Z" fill="white"></path>
    </g>
    <path d="M36.9626 12.5125H36.3501V10.7625H36.8751C37.3126 10.4125 37.5751 9.7125 37.5751 8.75V6.125H41.0751V10.7625H41.6876V12.5125H41.0751V11.375H37.0501V12.5125H36.9626ZM38.1876 8.75C38.1876 9.5375 38.0126 10.2375 37.6626 10.7625H40.2876V6.7375H38.1001V8.75H38.1876Z" fill="white" stroke="white" stroke-width="0.2" stroke-miterlimit="10"></path>
    <path d="M46.8499 10.675C46.3249 11.2 45.7124 11.4625 44.9249 11.4625C44.1374 11.4625 43.5249 11.2 42.9999 10.675C42.4749 10.15 42.2124 9.53747 42.2124 8.74997C42.2124 7.96248 42.4749 7.34998 42.9999 6.82498C43.5249 6.29998 44.1374 6.03748 44.9249 6.03748C45.7124 6.03748 46.3249 6.29998 46.8499 6.82498C47.3749 7.34998 47.6374 7.96248 47.6374 8.74997C47.6374 9.53747 47.3749 10.15 46.8499 10.675ZM43.5249 10.2375C43.8749 10.5875 44.3999 10.85 44.9249 10.85C45.4499 10.85 45.9749 10.675 46.3249 10.2375C46.6749 9.88747 46.9374 9.36247 46.9374 8.74997C46.9374 8.13748 46.7624 7.61248 46.3249 7.26248C45.9749 6.91248 45.4499 6.64998 44.9249 6.64998C44.3999 6.64998 43.8749 6.82498 43.5249 7.26248C43.1749 7.61248 42.9124 8.13748 42.9124 8.74997C42.9124 9.36247 43.0874 9.88747 43.5249 10.2375Z" fill="white" stroke="white" stroke-width="0.2" stroke-miterlimit="10"></path>
    <path d="M51.0499 11.4625C50.2624 11.4625 49.6499 11.2 49.1249 10.675C48.5999 10.15 48.3374 9.53747 48.3374 8.74997C48.3374 7.96248 48.5999 7.34998 49.1249 6.82498C49.6499 6.29998 50.2624 6.03748 51.0499 6.03748C51.8374 6.03748 52.4499 6.29998 52.9749 6.91248L52.5374 7.34997C52.1874 6.91247 51.6624 6.64998 51.0499 6.64998C50.4374 6.64998 49.9999 6.82498 49.5624 7.26248C49.1249 7.61248 48.9499 8.13748 48.9499 8.74997C48.9499 9.36247 49.1249 9.88747 49.5624 10.2375C49.9124 10.5875 50.4374 10.85 51.0499 10.85C51.6624 10.85 52.1874 10.5875 52.6249 10.0625L53.0624 10.5C52.7999 10.7625 52.5374 11.025 52.1874 11.2C51.8374 11.375 51.4874 11.4625 51.0499 11.4625Z" fill="white" stroke="white" stroke-width="0.2" stroke-miterlimit="10"></path>
    <path d="M55.8628 11.375H55.1628V6.7375H53.6753V6.125H57.2628V6.7375H55.7753V11.375H55.8628Z" fill="white" stroke="white" stroke-width="0.2" stroke-miterlimit="10"></path>
    <path d="M61.9002 6.125L59.8877 10.5875C59.6252 11.2 59.1877 11.55 58.6627 11.55C58.4877 11.55 58.3127 11.55 58.1377 11.4625L58.3127 10.85C58.4002 10.9375 58.5752 10.9375 58.6627 10.9375C58.8377 10.9375 58.9252 10.9375 59.0127 10.85C59.1002 10.7625 59.1877 10.675 59.2752 10.5L59.4502 10.0625L57.7002 6.2125H58.4877L59.8002 9.1875L61.1127 6.125H61.9002Z" fill="white" stroke="white" stroke-width="0.2" stroke-miterlimit="10"></path>
    <path d="M62.6875 11.375V6.125H66.45V11.375H65.75V6.7375H63.3V11.375H62.6875Z" fill="white" stroke="white" stroke-width="0.2" stroke-miterlimit="10"></path>
    <path d="M67.6753 11.375V6.125H68.3753V8.4H71.0003V6.125H71.7003V11.375H71.0003V9.0125H68.3753V11.375H67.6753Z" fill="white" stroke="white" stroke-width="0.2" stroke-miterlimit="10"></path>
    <path d="M77.2127 10.675C76.6877 11.2 76.0752 11.4625 75.2877 11.4625C74.5002 11.4625 73.8877 11.2 73.3627 10.675C72.8377 10.15 72.5752 9.53747 72.5752 8.74997C72.5752 7.96248 72.8377 7.34998 73.3627 6.82498C73.8877 6.29998 74.5002 6.03748 75.2877 6.03748C76.0752 6.03748 76.6877 6.29998 77.2127 6.82498C77.7377 7.34998 78.0002 7.96248 78.0002 8.74997C77.9127 9.53747 77.6502 10.15 77.2127 10.675ZM73.8002 10.2375C74.1502 10.5875 74.6752 10.85 75.2002 10.85C75.7252 10.85 76.2502 10.675 76.6002 10.2375C76.9502 9.88747 77.2127 9.36247 77.2127 8.74997C77.2127 8.13748 77.0377 7.61248 76.6002 7.26248C76.2502 6.91248 75.7252 6.64998 75.2002 6.64998C74.6752 6.64998 74.1502 6.82498 73.8002 7.26248C73.4502 7.61248 73.1877 8.13748 73.1877 8.74997C73.1877 9.36247 73.4502 9.88747 73.8002 10.2375Z" fill="white" stroke="white" stroke-width="0.2" stroke-miterlimit="10"></path>
    <path d="M80.7124 11.375V6.125H82.6374C83.0749 6.125 83.4249 6.3 83.6874 6.5625C83.9499 6.825 84.1249 7.175 84.1249 7.525C84.1249 7.7875 84.0374 7.9625 83.9499 8.225C83.8624 8.4 83.6874 8.575 83.4249 8.6625C83.6874 8.75 83.8624 8.925 84.0374 9.1C84.2124 9.275 84.2999 9.5375 84.2999 9.8875C84.2999 10.325 84.1249 10.675 83.8624 10.9375C83.5124 11.2 83.1624 11.375 82.7249 11.375H80.7124ZM81.4124 8.4H82.6374C82.8999 8.4 83.0749 8.3125 83.2499 8.1375C83.4249 7.9625 83.5124 7.7875 83.5124 7.6125C83.5124 7.4375 83.3374 7.175 83.2499 7C83.0749 6.825 82.8999 6.7375 82.6374 6.7375H81.4124V8.4ZM81.4124 10.7625H82.8124C83.0749 10.7625 83.2499 10.675 83.4249 10.5C83.5999 10.325 83.6874 10.15 83.6874 9.8875C83.6874 9.7125 83.5999 9.45 83.4249 9.275C83.2499 9.1 83.0749 9.0125 82.8124 9.0125H81.4999V10.7625H81.4124Z" fill="white" stroke="white" stroke-width="0.2" stroke-miterlimit="10"></path>
  </g>
  <defs>
    <clipPath id="clip0">
      <rect width="118.125" height="35" fill="white" transform="translate(0.125)"></rect>
    </clipPath>
    <clipPath id="clip1">
      <rect width="21" height="21" fill="white" transform="translate(8 7)"></rect>
    </clipPath>
  </defs>
</svg>
