<svg width="44" height="44" viewBox="0 0 44 44" fill="none" xmlns="http://www.w3.org/2000/svg">
<path fill-rule="evenodd" clip-rule="evenodd" d="M28.2855 0.746428L28.2855 13.6036L25.5079 11.1727C25.3814 11.0621 25.2099 11 25.0311 11C24.8523 11 24.6808 11.0621 24.5544 11.1727C24.428 11.2834 24.3569 11.4334 24.3569 11.5898C24.3569 11.7462 24.428 11.8962 24.5544 12.0069L28.5945 15.5412C28.657 15.5961 28.7313 15.6396 28.8131 15.6693C28.895 15.699 28.9827 15.7143 29.0712 15.7143C29.1598 15.7143 29.2475 15.699 29.3293 15.6693C29.4111 15.6396 29.4854 15.5961 29.5479 15.5412L33.588 12.0069C33.7145 11.8963 33.7855 11.7462 33.7855 11.5898C33.7855 11.4334 33.7145 11.2834 33.588 11.1727C33.4616 11.0621 33.2901 11 33.1113 11C32.9325 11 32.761 11.0621 32.6346 11.1727L29.8569 13.6036L29.8569 0.746428C29.8569 0.548463 29.7742 0.358606 29.6268 0.218623C29.4795 0.0786408 29.2796 0 29.0712 0C28.8628 0 28.663 0.0786407 28.5156 0.218623C28.3683 0.358606 28.2855 0.548463 28.2855 0.746428ZM24.5712 18.0991V20.3011C29.4832 19.6002 36.1426 20.5822 36.1426 23.251V34.8426C36.1426 36.8472 32.3611 37.9437 28.4284 38.0518V39.9944C28.4284 42.1081 24.2241 43.2143 20.0712 43.2143C15.9184 43.2143 11.7141 42.1081 11.7141 39.9944V36.1305C11.7141 35.2516 12.4431 34.5581 13.5877 34.0448C10.4583 33.6765 7.85693 32.6405 7.85693 30.9787V18.0991C7.85693 13.8717 24.5712 13.8717 24.5712 18.0991ZM23.2855 18.1429C23.2855 17.488 20.7894 16.2143 16.2141 16.2143C11.6387 16.2143 9.14263 17.4881 9.14269 18.1429C9.14269 18.7977 11.6388 20.0714 16.2141 20.0714C20.7894 20.0714 23.2855 18.7977 23.2855 18.1429ZM16.214 21.3572C13.4656 21.3572 10.7025 20.8706 9.14263 19.9318L9.14269 22C9.14269 22.6548 11.6387 23.9286 16.2141 23.9286C17.3333 23.9286 18.4208 23.8277 19.4283 23.6661V23.2857C19.4283 21.9709 21.0514 21.0661 23.2855 20.5706V19.9318C21.7256 20.8706 18.9624 21.3572 16.214 21.3572ZM21.1003 33.002C20.9637 32.934 20.8364 32.8625 20.714 32.7889V32.988C20.8432 32.9914 20.9716 32.9967 21.1003 33.002ZM16.214 25.2143C13.4656 25.2143 10.7025 24.7278 9.14263 23.7889V26.5C9.14263 27.1548 11.6387 28.4286 16.214 28.4286C17.3333 28.4286 18.4208 28.3278 19.4283 28.1661V24.962C18.4084 25.1144 17.3268 25.2143 16.214 25.2143ZM9.14263 28.2889V31C9.14263 31.6548 11.6387 32.9286 16.214 32.9286C17.3333 32.9286 18.4208 32.8278 19.4283 32.6661V29.4621C18.4084 29.6144 17.3268 29.7143 16.214 29.7143C13.4656 29.7143 10.7025 29.2278 9.14263 28.2889ZM20.0712 41.9286C24.6465 41.9286 27.1426 40.6548 27.1426 40L27.1426 38.0561C27.1131 38.0552 27.0833 38.0546 27.0535 38.0541C27.0154 38.0533 26.9774 38.0526 26.9399 38.0512C25.3498 38.9125 22.702 39.3571 20.0712 39.3571C17.3228 39.3571 14.5597 38.8706 12.9998 37.9317V40C12.9998 40.6548 15.4959 41.9286 20.0712 41.9286ZM12.9998 36.1429C12.9998 36.7977 15.4959 38.0714 20.0712 38.0714C24.6465 38.0714 27.1426 36.7977 27.1426 36.1429C27.1426 35.4881 24.6465 34.2143 20.0712 34.2143C15.4959 34.2143 12.9998 35.4881 12.9998 36.1429ZM28.4283 36.7635C32.579 36.6476 34.8569 35.4794 34.8569 34.8572L34.8568 32.7889C33.297 33.7278 30.5338 34.2143 27.7854 34.2143C27.4698 34.2143 27.1544 34.2057 26.8401 34.193C27.8205 34.6905 28.4283 35.3397 28.4283 36.1429V36.7635ZM27.7855 32.9286C32.3608 32.9286 34.8569 31.6548 34.8569 31V28.9318C33.297 29.8706 30.5339 30.3572 27.7855 30.3572C25.0371 30.3572 22.274 29.8706 20.7141 28.9318V31C20.7141 31.6548 23.2102 32.9286 27.7855 32.9286ZM27.7855 29.0715C32.3608 29.0715 34.8569 27.7977 34.8569 27.1429V25.0746C33.297 26.0135 30.5339 26.5 27.7855 26.5C25.0371 26.5 22.274 26.0135 20.7141 25.0746V27.1429C20.7141 27.7977 23.2102 29.0715 27.7855 29.0715ZM20.7141 23.2857C20.7141 23.9406 23.2101 25.2143 27.7855 25.2143C32.3608 25.2143 34.8569 23.9406 34.8569 23.2857C34.8569 22.6309 32.3608 21.3572 27.7855 21.3572C23.2102 21.3572 20.7141 22.6309 20.7141 23.2857Z" fill="url(#paint0_linear_3898_1462)"/>
<defs>
<linearGradient id="paint0_linear_3898_1462" x1="13.6909" y1="43.2143" x2="39.8321" y2="37.8592" gradientUnits="userSpaceOnUse">
<stop stop-color="#FE5000"/>
<stop offset="1" stop-color="#FCA92A"/>
</linearGradient>
</defs>
</svg>
