<svg width="44" height="44" viewBox="0 0 44 44" fill="none" xmlns="http://www.w3.org/2000/svg">
<path fill-rule="evenodd" clip-rule="evenodd" d="M38.9123 20.3597C38.9123 19.8419 39.2574 19.4968 39.7752 19.4968C40.2929 19.4968 40.6381 19.7556 40.5518 20.2734V23.725V28.7298V29.5927V30.7145C40.5518 31.75 40.034 32.8717 39.2574 33.6484L35.2881 37.6177C34.5978 38.4806 33.476 38.9121 32.3542 38.9121H31.2324H27.0042H5.77683C4.39619 38.9121 3.27441 37.8766 3.27441 36.4096V20.2734C3.27441 19.7556 3.61958 19.4105 4.13732 19.4105C4.65506 19.4105 5.00022 19.7556 5.00022 20.2734V36.4959C5.00022 37.0137 5.34538 37.3588 5.86312 37.3588H27.0042H31.2324C32.1816 37.3588 32.9582 36.5822 32.9582 35.633V33.9072C32.9582 32.5266 33.9937 31.4048 35.4607 31.4048H37.1865C38.1357 31.4048 38.9123 30.6282 38.9123 29.679V28.8161V23.725V20.3597ZM34.6344 35.9102C34.6152 35.9956 34.5978 36.0732 34.5978 36.1508L37.8768 32.8717C37.6179 32.958 37.4453 32.958 37.2728 32.958H35.547C35.0292 32.958 34.6841 33.3032 34.6841 33.8209V35.5467C34.6841 35.6892 34.6579 35.8056 34.6344 35.9102ZM32.1816 7.58871H38.1357C39.5163 7.58871 40.6381 8.71048 40.7244 10.0911V16.9081C40.7244 17.4258 40.3792 17.771 39.8615 17.771H4.22361C3.70587 17.771 3.3607 17.4258 3.3607 16.9081V10.0911C3.3607 8.71048 4.39619 7.58871 5.86312 7.58871H11.8171V5.8629C11.8171 5.34516 12.1623 5 12.68 5C13.1978 5 13.5429 5.34516 13.5429 5.8629V7.58871H30.4558V5.8629C30.4558 5.34516 30.801 5 31.3187 5C31.8365 5 32.1816 5.34516 32.1816 5.8629V7.58871ZM5.08651 16.0451H38.9123L39.0849 10.0911C39.0849 9.57338 38.7397 9.22822 38.222 9.22822H32.2679V11.2129C32.7857 11.4718 33.1308 12.0758 33.1308 12.6798C33.1308 13.629 32.3542 14.4056 31.405 14.4056C30.4558 14.4056 29.6792 13.629 29.6792 12.6798C29.6792 12.0758 30.0244 11.4718 30.5421 11.2129V9.22822H13.6292V11.2129C14.147 11.4718 14.4921 12.0758 14.4921 12.6798C14.4921 13.629 13.7155 14.4056 12.7663 14.4056C11.8171 14.4056 11.0405 13.629 11.0405 12.6798C11.0405 12.0758 11.3857 11.4718 11.9034 11.2129V9.22822H5.94941C5.43167 9.22822 5.08651 9.57338 5.08651 10.0911V16.0451ZM19.0732 24.2266L19.9779 25.6356L21.2534 24.6716V32.6507H22.959V22.2393H21.728L19.0732 24.2266Z" fill="url(#paint0_linear_3898_1529)"/>
<defs>
<linearGradient id="paint0_linear_3898_1529" x1="10.9985" y1="38.9121" x2="43.2134" y2="27.778" gradientUnits="userSpaceOnUse">
<stop stop-color="#FE5000"/>
<stop offset="1" stop-color="#FCA92A"/>
</linearGradient>
</defs>
</svg>
