<svg width="44" height="44" viewBox="0 0 44 44" fill="none" xmlns="http://www.w3.org/2000/svg">
<g clip-path="url(#clip0_3898_1575)">
<path d="M40.4101 11.3799H35.5724L33.498 6.88189C33.3721 6.60589 33.0313 6.47908 32.7572 6.60589L30.7273 7.55323L24.5783 3.12981C24.3338 2.95078 23.9782 3.01046 23.8004 3.26408L18.0515 11.3799H3.5903C3.27915 11.3799 3.03467 11.6335 3.03467 11.9394V32.0574C3.03467 32.3632 3.28655 32.6168 3.5903 32.6168H8.42799L10.5023 37.1148C10.6283 37.3908 10.9617 37.5176 11.2432 37.3908L13.2731 36.4435L19.4221 40.8669C19.6665 41.0459 20.0221 40.9863 20.1999 40.7326L25.9489 32.6168H40.4027C40.7138 32.6168 40.9583 32.3632 40.9583 32.0574V11.9394C40.9657 11.6335 40.7138 11.3799 40.4101 11.3799ZM32.7202 7.85907L34.3426 11.3799H25.1784L32.7202 7.85907ZM24.3857 4.37553L29.5716 8.09777L22.541 11.3799H19.4221L24.3857 4.37553ZM16.0735 27.5743V31.4308C16.0735 31.4531 16.0735 31.4755 16.0809 31.4979H12.7397C12.7397 31.4755 12.7471 31.4531 12.7471 31.4308V27.5743V26.5299V12.4988H16.0809V26.5299V27.5743H16.0735ZM4.14593 31.4979V12.4988H11.7025V26.5299H8.36872C8.07979 26.5299 7.85013 26.7612 7.85013 27.0521C7.85013 27.343 8.07979 27.5743 8.36872 27.5743H11.7025V31.4308C11.7025 31.4531 11.7025 31.4755 11.7099 31.4979H4.14593V31.4979ZM11.2802 36.1376L9.65778 32.6168H18.822L11.2802 36.1376ZM19.6147 39.6286L14.4288 35.9064L21.4594 32.6243H24.5783L19.6147 39.6286ZM39.8545 31.4979H17.1106C17.1106 31.4755 17.1181 31.4531 17.1181 31.4308V27.5743H26.6008C26.8897 27.5743 27.1194 27.343 27.1194 27.0521C27.1194 26.7612 26.8897 26.5299 26.6008 26.5299H17.1106V12.4988H18.333H35.2094H39.8545V31.4979ZM30.3791 19.1078H31.3496V15.7213H34.1352C35.7206 15.7213 36.6096 16.5269 36.6096 17.9143C36.6096 19.3092 35.7206 20.1372 34.1352 20.1372H32.5349V20.8235H34.6686V21.4725H32.5349V22.9196H31.3496V21.4725H30.3791V20.8235H31.3496V20.1372H30.3791V19.1078V19.1078ZM33.9648 19.1078C35.0242 19.1078 35.4242 18.6528 35.4242 17.9143C35.4242 17.1759 35.0242 16.7432 33.9648 16.7432H32.5349V19.1078H33.9648Z" fill="url(#paint0_linear_3898_1575)"/>
</g>
<defs>
<linearGradient id="paint0_linear_3898_1575" x1="10.8565" y1="40.9701" x2="44.121" y2="30.5648" gradientUnits="userSpaceOnUse">
<stop stop-color="#FE5000"/>
<stop offset="1" stop-color="#FCA92A"/>
</linearGradient>
<clipPath id="clip0_3898_1575">
<rect width="37.931" height="37.931" fill="white" transform="translate(3.03467 3.03467)"/>
</clipPath>
</defs>
</svg>
