<svg width="44" height="44" viewBox="0 0 44 44" fill="none" xmlns="http://www.w3.org/2000/svg">
<path d="M42.4462 37.21L40.8186 31.5523C40.7799 31.4361 40.7024 31.3198 40.6249 31.2423C39.6173 28.1809 37.1372 25.8171 33.9984 25.0033L33.5333 24.9258C32.8358 24.7321 32.0608 24.9646 31.557 25.5458C29.8519 27.4834 27.6819 27.6384 25.3955 27.6384C23.1092 27.6384 20.9391 27.4834 19.234 25.5458C18.7303 24.9646 17.9552 24.7321 17.2577 24.9258L16.7927 25.0421C14.4289 25.6621 12.4138 27.1734 11.135 29.1885H6.25229C6.21353 29.1885 6.21353 29.1885 6.17478 29.1497C6.17478 29.111 6.13603 29.0722 6.13603 28.9947L7.14357 25.3908C8.03485 22.562 9.73992 21.7094 13.0725 20.8569C13.2276 20.8182 13.3438 20.7406 13.4213 20.6631C13.6926 20.8957 14.0026 21.0894 14.3126 21.2444C14.4289 21.3219 14.5451 21.3219 14.6614 21.3219C14.9326 21.3219 15.2039 21.1669 15.3589 20.8957C15.5526 20.5081 15.3976 20.0431 15.0101 19.8494C13.2276 18.9193 11.9488 16.2842 11.9488 13.5716C11.9488 11.169 13.9251 9.1927 16.3277 9.1927C16.7927 9.1927 17.219 9.2702 17.6452 9.38646C17.219 10.4327 16.9865 11.5565 16.9865 12.7578C16.9865 19.3843 20.9779 24.9646 25.7055 24.9646C30.3557 24.9646 34.4634 19.2681 34.4634 12.7578C34.4634 7.9139 30.5495 4 25.7055 4C22.6442 4 19.9316 5.58881 18.3815 7.99141C17.7227 7.7589 17.0252 7.64264 16.3277 7.64264C14.2351 7.64264 12.375 8.76643 11.3287 10.4327C11.2512 10.3552 11.1737 10.3165 11.0962 10.2777C10.515 9.96773 9.93368 9.85148 9.2749 9.85148C7.10482 9.81273 5.361 11.5565 5.361 13.7266C5.361 14.9667 5.70976 16.1292 6.25229 17.0593C4.46972 17.5243 2.8809 18.2218 2.14463 20.5856L1.5246 22.8332C1.40835 23.2207 1.48585 23.647 1.71836 23.957C1.95087 24.3058 2.37714 24.4995 2.8034 24.4995H5.78727C5.74852 24.6546 5.67101 24.8096 5.63226 24.9646L4.62472 28.6072C4.46972 29.111 4.58597 29.6535 4.93473 30.0798C5.24475 30.506 5.70976 30.7385 6.25229 30.7385H10.3599C10.2437 31.0098 10.1662 31.2811 10.0887 31.5523L8.46112 37.2488C8.30612 37.9076 8.42237 38.6051 8.84864 39.1476C9.2749 39.6901 9.89493 40.0001 10.5537 40.0001H33.8046H35.1222H40.3536C41.0124 40.0001 41.6712 39.6901 42.0587 39.1476C42.4849 38.6051 42.6399 37.9076 42.4462 37.21ZM19.3115 9.50271C19.3503 9.46396 19.389 9.42521 19.4278 9.34771C19.4665 9.30896 19.4665 9.23145 19.5053 9.1927C20.7066 7.02262 23.0317 5.55006 25.7055 5.55006C28.9219 5.55006 31.6345 7.68139 32.5646 10.5878C31.2082 10.859 29.7744 10.3165 28.9219 9.15395C28.6507 8.80519 28.1856 8.72768 27.8369 8.99894C27.6819 9.1152 27.6044 9.23145 27.5656 9.38646C27.5269 9.42521 27.5269 9.46396 27.4881 9.50271C26.4031 11.7115 22.7604 12.6416 18.614 11.8278C18.7303 11.014 18.9628 10.239 19.3115 9.50271ZM21.4816 13.6491C24.5817 13.6491 27.1393 12.6803 28.4569 10.859C29.4257 11.7115 30.627 12.1766 31.9058 12.1766C32.2158 12.1766 32.5646 12.1378 32.8746 12.0603C32.9133 12.2928 32.9133 12.4866 32.9133 12.7191C32.9133 18.4156 29.5419 23.4145 25.7055 23.4145C22.0241 23.4145 18.8078 18.8031 18.5365 13.3779C19.5441 13.5716 20.5516 13.6491 21.4816 13.6491ZM3.11341 22.9495L3.65593 21.0119C4.12095 19.4231 5.08974 18.9581 7.02732 18.4931C7.14357 18.4543 7.25982 18.4156 7.33733 18.3381C7.53108 18.4931 7.68609 18.6093 7.9186 18.7256C8.03486 18.8031 8.15111 18.8031 8.26736 18.8031C8.53862 18.8031 8.80988 18.6481 8.96489 18.3768C9.15865 17.9893 9.00364 17.5243 8.65488 17.3305C7.64734 16.788 6.91106 15.2767 6.91106 13.7266C6.91106 12.4091 7.95735 11.3628 9.2749 11.3628C9.70117 11.3628 10.0499 11.4403 10.3987 11.634C10.515 11.6728 10.5925 11.7115 10.7087 11.7115C10.515 12.2928 10.3987 12.9128 10.3987 13.5716C10.3987 15.7805 11.135 17.9505 12.2975 19.4618C9.97243 20.0431 7.9186 20.8182 6.5623 22.9495H3.11341ZM40.8574 38.2176C40.7799 38.2951 40.6249 38.4501 40.3536 38.4501H35.1222H33.8046H10.5537C10.2824 38.4501 10.1274 38.2951 10.0499 38.2176C9.93368 38.0626 9.89493 37.8301 9.93368 37.6751L11.5612 32.0173C12.3363 29.3435 14.4676 27.2509 17.1802 26.5534L17.6452 26.4371C17.7615 26.3984 17.9552 26.4759 18.0715 26.5921C20.2028 29.0335 22.8379 29.2272 25.3955 29.2272C27.9531 29.2272 30.5882 29.0335 32.7196 26.5921C32.8358 26.4759 32.9908 26.3984 33.1846 26.4371L33.6496 26.5534C36.3234 27.2509 38.4935 29.3435 39.2686 32.0173L39.9661 34.4199C40.0048 34.5362 40.0436 34.6137 40.1211 34.6912L40.9736 37.6363C41.0124 37.8301 40.9736 38.0626 40.8574 38.2176Z" fill="url(#paint0_linear_3898_1525)"/>
<defs>
<linearGradient id="paint0_linear_3898_1525" x1="9.9393" y1="40.0001" x2="45.0084" y2="27.4828" gradientUnits="userSpaceOnUse">
<stop stop-color="#FE5000"/>
<stop offset="1" stop-color="#FCA92A"/>
</linearGradient>
</defs>
</svg>
