<svg width="44" height="44" viewBox="0 0 44 44" fill="none" xmlns="http://www.w3.org/2000/svg">
<path d="M21.9997 3.00031C21.8997 3 21.8004 3.01185 21.7037 3.03524L6.88338 6.69841C6.36448 6.82502 6.00092 7.26943 6 7.77901V26.3611C6 28.2744 7.04601 30.135 8.53089 31.9126C10.0158 33.6902 11.9895 35.3899 14.125 36.8397C17.7895 39.3275 20.6626 40.5241 21.5135 40.898C21.8246 41.034 22.1822 41.034 22.4933 40.898C23.3489 40.5222 26.2138 39.3253 29.875 36.8397C32.0105 35.3899 33.9911 33.6902 35.476 31.9126C36.9609 30.1349 38 28.2744 38 26.3611V7.77901C37.9997 7.27098 37.6397 6.82719 37.1235 6.69841L22.294 3.03524C22.1979 3.01185 22.0992 3 22.0003 3L21.9997 3.00031ZM21.9997 5.27072L35.6595 8.64568V26.3607C35.6595 27.442 34.9403 28.9602 33.6379 30.5195C32.3356 32.0784 30.4973 33.6686 28.5119 35.0165C25.2742 37.2145 23.0947 38.1233 22.0091 38.5968C20.928 38.1255 18.7386 37.2186 15.4948 35.0165C13.5094 33.6686 11.6711 32.0784 10.3688 30.5195C9.06638 28.9602 8.34958 27.442 8.34958 26.3607V8.64568L21.9997 5.27072ZM28.4956 15.3174C28.1488 15.3152 27.8187 15.459 27.5938 15.7104L20.5082 23.6064L16.7956 19.7119C16.5858 19.4908 16.2918 19.3586 15.979 19.3448C15.666 19.3308 15.3605 19.4362 15.1297 19.6377C14.898 19.8373 14.7597 20.1164 14.7449 20.4136C14.7305 20.7105 14.8406 21.0008 15.0517 21.2204L19.6661 26.0471C19.8926 26.2838 20.2151 26.4166 20.5518 26.4123C20.8884 26.4076 21.2067 26.266 21.426 26.0231L29.3789 17.1619C29.5815 16.9364 29.6812 16.6436 29.6569 16.348C29.6323 16.0523 29.4852 15.7782 29.2482 15.5858C29.0384 15.4149 28.7719 15.3198 28.4955 15.3173L28.4956 15.3174Z" fill="url(#paint0_linear_3898_1512)"/>
<defs>
<linearGradient id="paint0_linear_3898_1512" x1="12.6" y1="41" x2="41.4136" y2="33.4062" gradientUnits="userSpaceOnUse">
<stop stop-color="#FE5000"/>
<stop offset="1" stop-color="#FCA92A"/>
</linearGradient>
</defs>
</svg>
