<svg width="44" height="44" viewBox="0 0 44 44" fill="none" xmlns="http://www.w3.org/2000/svg">
<path d="M37.936 22.1854V17.2665C37.936 15.5959 36.6377 14.2038 34.9685 14.1109L30.4245 6.12928C29.9608 5.3868 29.3117 4.82994 28.4771 4.64432C27.6425 4.4587 26.8079 4.55151 26.066 4.92275L10.4867 14.0181H7.70471C5.94277 14.0181 4.55176 15.4103 4.55176 17.1737V36.2925C4.55176 38.0559 5.94277 39.4481 7.70471 39.4481H34.6903C36.4522 39.4481 37.8432 38.0559 37.8432 36.2925V31.3736C38.7706 31.0024 39.4197 30.1671 39.4197 29.1462V24.4129C39.6052 23.3919 38.8633 22.4638 37.936 22.1854ZM26.9934 6.3149C27.3643 6.12928 27.7352 6.03647 28.1989 6.12928C28.5698 6.22209 28.9408 6.50052 29.1262 6.87176L30.7027 9.56325C29.9608 9.84168 29.219 10.0273 28.4771 10.0273C26.8079 10.0273 25.2314 9.28482 24.1186 7.89267L26.9934 6.3149ZM22.7276 8.72796C24.1186 10.5842 26.1588 11.6051 28.3844 11.6051C29.4044 11.6051 30.4245 11.3266 31.3519 10.9554L33.1138 14.0181H13.6397L22.7276 8.72796ZM36.3595 36.2925C36.3595 37.1278 35.6176 37.8703 34.783 37.8703H7.79744C6.96284 37.8703 6.22097 37.1278 6.22097 36.2925V17.2665C6.22097 16.4312 6.96284 15.6887 7.79744 15.6887H34.783C35.6176 15.6887 36.3595 16.4312 36.3595 17.2665V21.9998H31.6301C29.0335 21.9998 26.9006 24.1344 26.9006 26.7331C26.9006 29.3318 29.0335 31.4664 31.6301 31.4664H36.3595V36.2925V36.2925ZM37.936 29.1462C37.936 29.6102 37.565 29.9814 37.1014 29.9814H31.5373C29.7754 29.9814 28.3844 28.5893 28.3844 26.8259C28.3844 25.0625 29.7754 23.6704 31.5373 23.6704H37.1014C37.565 23.6704 37.936 24.0416 37.936 24.5057V29.1462ZM31.6301 25.1553C30.7954 25.1553 30.0536 25.8978 30.0536 26.7331C30.0536 27.5684 30.7954 28.3109 31.6301 28.3109C32.4647 28.3109 33.2065 27.5684 33.2065 26.7331C33.2065 25.8978 32.4647 25.1553 31.6301 25.1553Z" fill="url(#paint0_linear_3898_1489)"/>
<defs>
<linearGradient id="paint0_linear_3898_1489" x1="11.7492" y1="39.4481" x2="42.3556" y2="29.8693" gradientUnits="userSpaceOnUse">
<stop stop-color="#FE5000"/>
<stop offset="1" stop-color="#FCA92A"/>
</linearGradient>
</defs>
</svg>
