<svg width="56" height="56" viewBox="0 0 56 56" fill="none" xmlns="http://www.w3.org/2000/svg">
<g clip-path="url(#clip0_5718_1563)">
<path d="M52.7093 13.746H46.2164L43.4323 7.70902C43.2632 7.33859 42.8058 7.16839 42.438 7.33859L39.7135 8.61007L31.4607 2.67317C31.1325 2.43289 30.6553 2.51299 30.4166 2.85338L22.7007 13.746H3.29164C2.87402 13.746 2.5459 14.0864 2.5459 14.4969V41.4983C2.5459 41.9087 2.88397 42.2491 3.29164 42.2491H9.78454L12.5686 48.2861C12.7377 48.6566 13.1851 48.8268 13.5629 48.6566L16.2874 47.3851L24.5402 53.322C24.8683 53.5623 25.3456 53.4822 25.5843 53.1418L33.3002 42.2491H52.6993C53.1169 42.2491 53.445 41.9087 53.445 41.4983V14.4969C53.455 14.0864 53.1169 13.746 52.7093 13.746ZM42.3882 9.02054L44.5658 13.746H32.2661L42.3882 9.02054ZM31.2022 4.34511L38.1624 9.34091L28.7263 13.746H24.5402L31.2022 4.34511ZM20.0459 35.4813V40.6573C20.0459 40.6873 20.0459 40.7174 20.0558 40.7474H15.5715C15.5715 40.7174 15.5814 40.6873 15.5814 40.6573V35.4813V34.0796V15.2478H20.0558V34.0796V35.4813H20.0459ZM4.03738 40.7474V15.2478H14.1794V34.0796H9.70499C9.31721 34.0796 9.00897 34.39 9.00897 34.7805C9.00897 35.1709 9.31721 35.4813 9.70499 35.4813H14.1794V40.6573C14.1794 40.6873 14.1794 40.7174 14.1894 40.7474H4.03738ZM13.6127 46.9746L11.4351 42.2491H23.7348L13.6127 46.9746ZM24.7987 51.6601L17.8385 46.6643L27.2746 42.2591H31.4607L24.7987 51.6601ZM51.9635 40.7474H21.4379C21.4379 40.7174 21.4479 40.6873 21.4479 40.6573V35.4813H34.1752C34.5629 35.4813 34.8712 35.1709 34.8712 34.7805C34.8712 34.39 34.5629 34.0796 34.1752 34.0796H21.4379V15.2478H23.0786H45.7291H51.9635V40.7474ZM39.2462 24.1181H40.5487V19.5728H44.2874C46.4152 19.5728 47.6084 20.6541 47.6084 22.5162C47.6084 24.3884 46.4152 25.4997 44.2874 25.4997H42.1397V26.4207H45.0033V27.2918H42.1397V29.234H40.5487V27.2918H39.2462V26.4207H40.5487V25.4997H39.2462V24.1181ZM44.0587 24.1181C45.4806 24.1181 46.0175 23.5074 46.0175 22.5162C46.0175 21.5251 45.4806 20.9444 44.0587 20.9444H42.1397V24.1181H44.0587Z" fill="url(#paint0_linear_5718_1563)"/>
</g>
<defs>
<linearGradient id="paint0_linear_5718_1563" x1="13.0439" y1="53.4605" x2="57.6898" y2="39.495" gradientUnits="userSpaceOnUse">
<stop stop-color="#FE5000"/>
<stop offset="1" stop-color="#FCA92A"/>
</linearGradient>
<clipPath id="clip0_5718_1563">
<rect width="50.9091" height="50.9091" fill="white" transform="translate(2.5459 2.54541)"/>
</clipPath>
</defs>
</svg>
