<svg width="56" height="56" viewBox="0 0 56 56" fill="none" xmlns="http://www.w3.org/2000/svg">
<path d="M47.6951 11H8.17334C5.25563 11 3.00104 13.4382 3.00104 16.2829V39.7171C3.00104 42.6972 5.38825 45 8.17334 45H47.8277C50.7454 45 53 42.5618 53 39.7171V16.4183C53 13.4382 50.6128 11 47.6951 11ZM50.878 39.7171C50.878 41.4781 49.4192 42.9681 47.6951 42.9681H8.17334C6.44924 42.9681 4.99038 41.4781 4.99038 39.7171V16.4183C4.99038 14.6574 6.44924 13.1673 8.17334 13.1673H47.8277C49.5518 13.1673 51.0107 14.6574 51.0107 16.4183L50.878 39.7171ZM51.939 17.3665H3.9294C3.39891 17.3665 3 18.0438 3 18.5856V24.9522C3 25.494 3.39891 25.9004 3.9294 25.9004H51.8064C52.3369 25.9004 53 25.3313 53 24.7894L52.8674 18.4502C53 17.9084 52.4695 17.3665 51.939 17.3665ZM50.878 23.8685H4.99038V19.6693H50.878V23.8685ZM22.7619 32.2669H10.1627C9.63219 32.2669 9.1017 32.8088 9.1017 33.3506C9.1017 33.8924 9.63219 34.4343 10.1627 34.4343H22.6293C23.1598 34.4343 23.6902 33.8924 23.6902 33.3506C23.6902 32.8088 23.2924 32.2669 22.7619 32.2669ZM22.7619 36.6016H10.1627C9.63219 36.6016 9.1017 37.1434 9.1017 37.6853C9.1017 38.2271 9.63219 38.7689 10.1627 38.7689H22.6293C23.1598 38.7689 23.6902 38.2271 23.6902 37.6853C23.8229 37.008 23.2924 36.6016 22.7619 36.6016ZM43.5837 30.2351H41.4618C39.7377 30.2351 38.2788 31.7251 38.2788 33.4861V35.6534C38.2788 37.4143 39.7377 38.9044 41.4618 38.9044H43.5837C45.3078 38.9044 46.7667 37.4143 46.7667 35.6534V33.4861C46.6341 31.5896 45.3078 30.2351 43.5837 30.2351ZM44.6447 35.5179C44.6447 36.0598 44.1142 36.6016 43.5837 36.6016H41.4618C40.9313 36.6016 40.4008 36.0598 40.4008 35.5179V33.3506C40.4008 32.8088 40.9313 32.2669 41.4618 32.2669H43.5837C44.1142 32.2669 44.6447 32.8088 44.6447 33.3506V35.5179Z" fill="url(#paint0_linear_5718_1566)"/>
<defs>
<linearGradient id="paint0_linear_5718_1566" x1="13.3125" y1="45" x2="53.0446" y2="26.7135" gradientUnits="userSpaceOnUse">
<stop stop-color="#FE5000"/>
<stop offset="1" stop-color="#FCA92A"/>
</linearGradient>
</defs>
</svg>
