<svg width="44" height="44" viewBox="0 0 44 44" fill="none" xmlns="http://www.w3.org/2000/svg">
<path fill-rule="evenodd" clip-rule="evenodd" d="M8.99961 7.79996C5.74113 7.79996 3.09961 10.4415 3.09961 13.7V30.7C3.09961 33.9584 5.74113 36.6 8.99961 36.6H34.9996C38.2581 36.6 40.8996 33.9584 40.8996 30.7V13.7C40.8996 10.4415 38.2581 7.79996 34.9996 7.79996H8.99961ZM6.97711 10.1327C7.57391 9.79361 8.26414 9.59996 8.99961 9.59996H34.9996C35.7351 9.59996 36.4253 9.79361 37.0221 10.1327L24.344 18.969C22.9353 19.9508 21.064 19.9508 19.6553 18.969L6.97711 10.1327ZM5.61867 11.38C5.16509 12.0397 4.89961 12.8388 4.89961 13.7V30.7C4.89961 32.9643 6.73524 34.8 8.99961 34.8H34.9996C37.264 34.8 39.0996 32.9643 39.0996 30.7V13.7C39.0996 12.8388 38.8341 12.0397 38.3806 11.38L25.3732 20.4457C23.346 21.8586 20.6532 21.8586 18.626 20.4457L5.61867 11.38ZM8.61036 26.1965C8.61036 25.6994 9.0133 25.2965 9.51036 25.2965H18.5104C19.0074 25.2965 19.4104 25.6994 19.4104 26.1965C19.4104 26.6936 19.0074 27.0965 18.5104 27.0965H9.51036C9.0133 27.0965 8.61036 26.6936 8.61036 26.1965ZM9.51036 29.2965C9.0133 29.2965 8.61036 29.6994 8.61036 30.1965C8.61036 30.6936 9.0133 31.0965 9.51036 31.0965H15.5104C16.0074 31.0965 16.4104 30.6936 16.4104 30.1965C16.4104 29.6994 16.0074 29.2965 15.5104 29.2965H9.51036Z" fill="url(#paint0_linear_7594_1500)"/>
<defs>
<linearGradient id="paint0_linear_7594_1500" x1="10.8959" y1="36.6" x2="42.0409" y2="23.8066" gradientUnits="userSpaceOnUse">
<stop stop-color="#FE5000"/>
<stop offset="1" stop-color="#FCA92A"/>
</linearGradient>
</defs>
</svg>
