<svg width="44" height="44" viewBox="0 0 44 44" fill="none" xmlns="http://www.w3.org/2000/svg">
<path fill-rule="evenodd" clip-rule="evenodd" d="M21.5423 2.19538C21.7844 2.02728 22.1054 2.02728 22.3475 2.19538L37.924 13.0124C38.1139 13.1443 38.2272 13.3609 38.2272 13.5921V16.3478H39.2521C39.6419 16.3478 39.9579 16.6638 39.9579 17.0535V20.0823C39.9579 20.4721 39.6419 20.7881 39.2521 20.7881H36.4965V33.655H37.5214C37.9112 33.655 38.2272 33.971 38.2272 34.3608V36.6838H39.2521C39.6419 36.6838 39.9579 36.9997 39.9579 37.3895V40.851C39.9579 41.2408 39.6419 41.5568 39.2521 41.5568H4.58176C4.19197 41.5568 3.87598 41.2408 3.87598 40.851V37.3946C3.87598 37.006 4.19005 36.6905 4.57861 36.6888L5.00653 36.6869V34.3608C5.00653 33.971 5.32252 33.655 5.71231 33.655H7.27185V20.7881H4.6377C4.2479 20.7881 3.93192 20.4721 3.93192 20.0823V17.0535C3.93192 16.6638 4.2479 16.3478 4.6377 16.3478H5.66264V13.5921C5.66264 13.3609 5.77591 13.1443 5.96584 13.0124L21.5423 2.19538ZM7.0742 16.3478H36.8156V13.9612L21.9449 3.63436L7.0742 13.9612V16.3478ZM8.68341 20.7881V33.655H12.0313V20.7881H8.68341ZM13.4429 20.7881V33.655H19.0757V20.7881H13.4429ZM20.4873 20.7881V33.655H23.8352V20.7881H20.4873ZM25.2468 20.7881V33.655H30.7581V20.7881H25.2468ZM32.1697 20.7881V33.655H35.0849V20.7881H32.1697ZM12.7371 35.0666H7.97763H6.41809V36.6838H36.8156V35.0666H35.7907H31.4639H24.541H19.7815H12.7371ZM5.71231 38.0953L5.28754 38.0972V40.1452H38.5464V38.0953H37.5214H5.71374H5.71231ZM5.34348 17.7593V19.3765H7.97763H12.7371H19.7815H24.541H31.4639H35.7907H38.5464V17.7593H37.5214H6.36842H5.34348Z" fill="url(#paint0_linear_7594_1493)"/>
<defs>
<linearGradient id="paint0_linear_7594_1493" x1="11.3179" y1="41.5568" x2="43.4368" y2="32.3715" gradientUnits="userSpaceOnUse">
<stop stop-color="#FE5000"/>
<stop offset="1" stop-color="#FCA92A"/>
</linearGradient>
</defs>
</svg>
