<svg width="56" height="56" viewBox="0 0 56 56" fill="none" xmlns="http://www.w3.org/2000/svg">
<path fill-rule="evenodd" clip-rule="evenodd" d="M27.4342 3.72406C27.7308 3.51809 28.1242 3.51809 28.4208 3.72406L47.5072 16.9785C47.7399 17.1401 47.8787 17.4055 47.8787 17.6888V21.0654H49.1346C49.6122 21.0654 49.9994 21.4526 49.9994 21.9302V25.6415C49.9994 26.1191 49.6122 26.5063 49.1346 26.5063H45.758V42.2725H47.0139C47.4915 42.2725 47.8787 42.6597 47.8787 43.1373V45.9837H49.1346C49.6122 45.9837 49.9994 46.3709 49.9994 46.8485V51.0899C49.9994 51.5676 49.6122 51.9547 49.1346 51.9547H6.65192C6.1743 51.9547 5.78711 51.5676 5.78711 51.0899V46.8547C5.78711 46.3786 6.17195 45.992 6.64807 45.9899L7.17241 45.9875V43.1373C7.17241 42.6597 7.5596 42.2725 8.03722 42.2725H9.94818V26.5063H6.72047C6.24284 26.5063 5.85565 26.1191 5.85565 25.6415V21.9302C5.85565 21.4526 6.24284 21.0654 6.72047 21.0654H7.97636V17.6888C7.97636 17.4055 8.11516 17.1401 8.34789 16.9785L27.4342 3.72406ZM9.70598 21.0654H46.1491V18.1411L27.9275 5.48728L9.70598 18.1411V21.0654ZM11.6778 26.5063V42.2725H15.7801V26.5063H11.6778ZM17.5097 26.5063V42.2725H24.4118V26.5063H17.5097ZM26.1414 26.5063V42.2725H30.2438V26.5063H26.1414ZM31.9734 26.5063V42.2725H38.7266V26.5063H31.9734ZM40.4562 26.5063V42.2725H44.0284V26.5063H40.4562ZM16.6449 44.0021H10.813H8.90204V45.9837H46.1491V44.0021H44.8932H39.5914H31.1086H25.2766H16.6449ZM8.03722 47.7133L7.51674 47.7157V50.2251H48.2698V47.7133H47.0139H8.03851H8.03722ZM7.58528 22.795V24.7766H10.813H16.6449H25.2766H31.1086H39.5914H44.8932H48.2698V22.795H47.0139H8.84117H7.58528Z" fill="url(#paint0_linear_5718_1612)"/>
<defs>
<linearGradient id="paint0_linear_5718_1612" x1="14.9059" y1="51.9547" x2="54.2622" y2="40.6998" gradientUnits="userSpaceOnUse">
<stop stop-color="#FE5000"/>
<stop offset="1" stop-color="#FCA92A"/>
</linearGradient>
</defs>
</svg>
