<svg width="44" height="44" viewBox="0 0 44 44" fill="none" xmlns="http://www.w3.org/2000/svg">
<g clip-path="url(#clip0_5719_1709)">
<path d="M44.0002 22.0003C44.0016 18.8931 41.8355 16.2059 38.7986 15.5475C38.0806 6.2711 29.9778 -0.666961 20.7004 0.0509969C12.421 0.691687 5.84321 7.26898 5.20246 15.5475C3.96395 15.82 2.82848 16.4393 1.92886 17.333C-0.646235 19.9126 -0.642477 24.0911 1.9373 26.6659C2.9141 27.6409 4.17195 28.2851 5.53393 28.508C5.63604 28.5646 5.75017 28.5961 5.86686 28.5996C5.91334 28.5985 5.95972 28.5935 6.00546 28.585C6.02471 28.5804 6.0435 28.5745 6.06193 28.5674C6.24013 28.5813 6.41686 28.5996 6.60019 28.5996H8.06686C8.47184 28.5996 8.80019 28.2713 8.80019 27.8664V16.1341C8.80019 15.7292 8.47184 15.4009 8.06686 15.4009H6.68746C7.4801 6.94405 14.9789 0.731007 23.4364 1.52348C30.7968 2.21321 36.6253 8.0412 37.3151 15.4009H35.9335C35.5285 15.4009 35.2002 15.7292 35.2002 16.1341V27.8664C35.2002 28.2713 35.5285 28.5996 35.9335 28.5996H37.4002V30.0662C37.4002 35.7226 32.9782 40.0217 27.0206 40.3047C26.5968 38.7446 24.9884 37.8234 23.4282 38.2472C21.8679 38.671 20.9466 40.2792 21.3704 41.8393C21.7942 43.3994 23.4026 44.3207 24.9629 43.8968C25.9895 43.618 26.7841 42.8042 27.0382 41.7713C33.823 41.4758 38.8668 36.5512 38.8668 30.0662V28.4317C40.0779 28.152 41.1875 27.5412 42.0715 26.6675C43.309 25.4297 44.0029 23.7505 44.0002 22.0003ZM7.33353 27.1331H6.60019C6.38524 27.1331 6.17046 27.1204 5.95706 27.095C3.1428 26.7526 1.13897 24.1937 1.48144 21.3796C1.76735 19.0305 3.62231 17.1813 5.97246 16.9026C6.18082 16.8783 6.39046 16.8665 6.60019 16.8674H7.33353V27.1331ZM24.2002 42.5317C23.3901 42.5317 22.7335 41.8751 22.7335 41.0651C22.7335 40.2552 23.3901 39.5986 24.2002 39.5986C25.0102 39.5986 25.6669 40.2552 25.6669 41.0651C25.6669 41.8751 25.0102 42.5317 24.2002 42.5317ZM38.0455 27.0943C37.8314 27.1202 37.6159 27.1331 37.4002 27.1331H36.6668V16.8674H37.4002C40.2352 16.8592 42.5402 19.1504 42.5485 21.9852C42.5561 24.582 40.6229 26.7754 38.0455 27.0943Z" fill="url(#paint0_linear_5719_1709)"/>
</g>
<defs>
<linearGradient id="paint0_linear_5719_1709" x1="9.07504" y1="43.9999" x2="47.6658" y2="31.9223" gradientUnits="userSpaceOnUse">
<stop stop-color="#FE5000"/>
<stop offset="1" stop-color="#FCA92A"/>
</linearGradient>
<clipPath id="clip0_5719_1709">
<rect width="44.0002" height="44" fill="white"/>
</clipPath>
</defs>
</svg>
