<svg width="56" height="56" viewBox="0 0 56 56" fill="none" xmlns="http://www.w3.org/2000/svg">
<g clip-path="url(#clip0_7597_3989)">
<path d="M52.7083 13.746H46.2154L43.4313 7.70902C43.2623 7.33859 42.8049 7.16839 42.437 7.33859L39.7125 8.61007L31.4597 2.67317C31.1316 2.43289 30.6543 2.51299 30.4157 2.85338L22.6998 13.746H3.29066C2.87305 13.746 2.54492 14.0864 2.54492 14.4969V41.4983C2.54492 41.9087 2.88299 42.2491 3.29066 42.2491H9.78356L12.5677 48.2861C12.7367 48.6566 13.1841 48.8268 13.562 48.6566L16.2864 47.3851L24.5392 53.322C24.8674 53.5623 25.3446 53.4822 25.5833 53.1418L33.2992 42.2491H52.6983C53.1159 42.2491 53.4441 41.9087 53.4441 41.4983V14.4969C53.454 14.0864 53.1159 13.746 52.7083 13.746ZM42.3873 9.02054L44.5648 13.746H32.2651L42.3873 9.02054ZM31.2012 4.34511L38.1614 9.34091L28.7253 13.746H24.5392L31.2012 4.34511ZM20.0449 35.4813V40.6573C20.0449 40.6873 20.0449 40.7174 20.0549 40.7474H15.5705C15.5705 40.7174 15.5804 40.6873 15.5804 40.6573V35.4813V34.0796V15.2478H20.0549V34.0796V35.4813H20.0449ZM4.0364 40.7474V15.2478H14.1784V34.0796H9.70401C9.31623 34.0796 9.00799 34.39 9.00799 34.7805C9.00799 35.1709 9.31623 35.4813 9.70401 35.4813H14.1784V40.6573C14.1784 40.6873 14.1784 40.7174 14.1884 40.7474H4.0364ZM13.6117 46.9746L11.4341 42.2491H23.7338L13.6117 46.9746ZM24.7978 51.6601L17.8375 46.6643L27.2736 42.2591H31.4597L24.7978 51.6601ZM51.9625 40.7474H21.437C21.437 40.7174 21.4469 40.6873 21.4469 40.6573V35.4813H34.1742C34.562 35.4813 34.8702 35.1709 34.8702 34.7805C34.8702 34.39 34.562 34.0796 34.1742 34.0796H21.437V15.2478H23.0776H45.7282H51.9625V40.7474ZM39.2452 24.1181H40.5478V19.5728H44.2864C46.4142 19.5728 47.6074 20.6541 47.6074 22.5162C47.6074 24.3884 46.4142 25.4997 44.2864 25.4997H42.1387V26.4207H45.0023V27.2918H42.1387V29.234H40.5478V27.2918H39.2452V26.4207H40.5478V25.4997H39.2452V24.1181ZM44.0577 24.1181C45.4796 24.1181 46.0165 23.5074 46.0165 22.5162C46.0165 21.5251 45.4796 20.9444 44.0577 20.9444H42.1387V24.1181H44.0577Z" fill="url(#paint0_linear_7597_3989)"/>
</g>
<defs>
<linearGradient id="paint0_linear_7597_3989" x1="13.0429" y1="53.4605" x2="57.6889" y2="39.495" gradientUnits="userSpaceOnUse">
<stop stop-color="#FE5000"/>
<stop offset="1" stop-color="#FCA92A"/>
</linearGradient>
<clipPath id="clip0_7597_3989">
<rect width="50.9091" height="50.9091" fill="white" transform="translate(2.54492 2.54541)"/>
</clipPath>
</defs>
</svg>
