<svg width="44" height="44" viewBox="0 0 44 44" fill="none" xmlns="http://www.w3.org/2000/svg">
<path d="M35.3231 4H7.6772C4.54673 4 2 6.53654 2 9.65412V30.3171C2 33.435 4.54673 35.9712 7.6772 35.9712H21.3888C23.4039 37.8444 27.9358 41.2854 29.4767 42.4556C29.9537 42.8177 30.4965 43 31.0403 43C31.5371 43 32.0346 42.8482 32.4848 42.5429C33.3497 41.9563 33.8588 40.95 33.8814 39.7826L33.9562 35.9716H35.3224C38.4529 35.9716 40.9997 33.435 40.9997 30.3175L41 9.65451C41 6.53658 38.4536 4 35.3231 4ZM39.0173 30.3181C39.0173 32.3466 37.3602 33.9971 35.3231 33.9971H32.9848C32.4448 33.9971 32.004 34.4275 31.9936 34.9653L31.8996 39.7449C31.8892 40.2643 31.6961 40.6894 31.3694 40.9112C31.1259 41.0761 30.9202 41.0682 30.6798 40.8859C29.0819 39.6724 24.2188 35.9799 22.482 34.2802C22.2966 34.0986 22.0468 33.9971 21.7872 33.9971H7.67749C5.64048 33.9971 3.98333 32.3467 3.98333 30.3181V9.65514C3.98333 7.62663 5.64039 5.97612 7.67749 5.97612L35.3234 5.97577C37.3604 5.97577 39.0175 7.6262 39.0175 9.65479L39.0173 30.3181ZM9.26052 16.3838C9.26052 15.8384 9.70446 15.3962 10.2521 15.3962H32.7486C33.2962 15.3962 33.7401 15.8384 33.7401 16.3838C33.7401 16.9293 33.2962 17.3714 32.7486 17.3714H10.2521C9.70447 17.3714 9.26052 16.9293 9.26052 16.3838ZM26.9582 23.2377C26.9582 23.7831 26.5143 24.2252 25.9667 24.2252H10.2515C9.70394 24.2252 9.25998 23.7831 9.25998 23.2377C9.25998 22.6922 9.70392 22.2501 10.2515 22.2501H25.9667C26.5143 22.2501 26.9582 22.6922 26.9582 23.2377Z" fill="url(#paint0_linear_5719_1712)"/>
<defs>
<linearGradient id="paint0_linear_5719_1712" x1="10.0438" y1="43" x2="44.2491" y2="32.2949" gradientUnits="userSpaceOnUse">
<stop stop-color="#FE5000"/>
<stop offset="1" stop-color="#FCA92A"/>
</linearGradient>
</defs>
</svg>
