<svg width="56" height="56" viewBox="0 0 56 56" fill="none" xmlns="http://www.w3.org/2000/svg">
<path fill-rule="evenodd" clip-rule="evenodd" d="M9.88379 5.87416C6.57008 5.87416 3.88379 8.56045 3.88379 11.8742V12.9426V17.787V32.6955C3.88379 36.0092 6.57008 38.6955 9.88379 38.6955H11.5528C12.1051 38.6955 12.5528 38.2478 12.5528 37.6955C12.5528 37.1432 12.1051 36.6955 11.5528 36.6955H9.88379C7.67465 36.6955 5.88379 34.9046 5.88379 32.6955V18.787H50.1158V32.6955C50.1158 34.9046 48.3249 36.6955 46.1158 36.6955H45.6544L45.6544 31.5724L45.6544 31.5648V26.3082C45.6544 25.3866 45.0931 24.6678 44.4472 24.1587C43.7899 23.6407 42.9009 23.218 41.8914 22.8815C39.8619 22.205 37.1219 21.8038 34.1412 21.8038C31.1605 21.8038 28.4205 22.205 26.3911 22.8815C25.3816 23.218 24.4925 23.6407 23.8352 24.1587C23.1893 24.6678 22.628 25.3866 22.628 26.3082V31.5648V36.8213V38.4649C20.0375 38.5438 17.6781 38.9273 15.8779 39.5274C14.8684 39.8639 13.9793 40.2866 13.3221 40.8045C12.6761 41.3136 12.1149 42.0324 12.1149 42.954V49.0868C12.1149 50.0084 12.6761 50.7272 13.3221 51.2362C13.9793 51.7542 14.8684 52.1769 15.8779 52.5134C17.9073 53.1899 20.6473 53.5912 23.628 53.5912C26.6087 53.5912 29.3488 53.1899 31.3782 52.5134C32.3877 52.1769 33.2767 51.7542 33.934 51.2362C34.58 50.7272 35.1412 50.0084 35.1412 49.0868V46.5671C37.7317 46.4881 40.0911 46.1046 41.8913 45.5046C42.9008 45.1681 43.7899 44.7453 44.4471 44.2274C45.0931 43.7183 45.6543 42.9995 45.6543 42.0779L45.6544 38.6955H46.1158C49.4295 38.6955 52.1158 36.0092 52.1158 32.6955V17.787V12.9426V11.8742C52.1158 8.56045 49.4295 5.87416 46.1158 5.87416H9.88379ZM50.1158 16.787H5.88379V13.9426H50.1158V16.787ZM50.1158 11.9426H5.88379V11.8742C5.88379 9.66502 7.67465 7.87416 9.88379 7.87416H46.1158C48.3249 7.87416 50.1158 9.66502 50.1158 11.8742V11.9426ZM24.628 26.3082C24.628 26.2621 24.6552 26.059 25.0732 25.7295C25.4799 25.409 26.1305 25.0766 27.0235 24.7789C28.7991 24.187 31.3157 23.8038 34.1412 23.8038C36.9668 23.8038 39.4833 24.187 41.2589 24.7789C42.1519 25.0766 42.8025 25.409 43.2092 25.7295C43.6273 26.059 43.6544 26.2621 43.6544 26.3082C43.6544 26.3543 43.6273 26.5574 43.2092 26.8868C42.8025 27.2074 42.1519 27.5398 41.2589 27.8375C39.4833 28.4293 36.9668 28.8126 34.1412 28.8126C31.3157 28.8126 28.7991 28.4293 27.0235 27.8375C26.1305 27.5398 25.4799 27.2074 25.0732 26.8868C24.6552 26.5574 24.628 26.3543 24.628 26.3082ZM41.8914 29.7348C42.5383 29.5192 43.1357 29.2682 43.6544 28.9794L43.6544 31.5648L43.6544 31.5666C43.6536 31.616 43.622 31.8181 43.2092 32.1435C42.8025 32.464 42.1519 32.7964 41.2589 33.0941C39.4833 33.686 36.9668 34.0692 34.1412 34.0692C31.3157 34.0692 28.7991 33.686 27.0235 33.0941C26.1305 32.7964 25.4799 32.464 25.0732 32.1435C24.6552 31.814 24.628 31.6109 24.628 31.5648V28.9794C25.1467 29.2682 25.7442 29.5192 26.3911 29.7348C28.4205 30.4113 31.1605 30.8126 34.1412 30.8126C37.1219 30.8126 39.8619 30.4113 41.8914 29.7348ZM41.8914 34.9915C42.5383 34.7759 43.1357 34.5248 43.6544 34.236L43.6544 36.8213L43.6544 36.8239C43.6533 36.8746 43.62 37.0763 43.2092 37.4C42.8025 37.7205 42.1519 38.0529 41.2589 38.3506C39.4833 38.9425 36.9668 39.3257 34.1412 39.3257C31.3157 39.3257 28.7991 38.9425 27.0235 38.3506C26.1305 38.0529 25.4799 37.7205 25.0732 37.4C24.6552 37.0705 24.628 36.8674 24.628 36.8213V34.236C25.1467 34.5248 25.7442 34.7759 26.3911 34.9915C28.4205 35.668 31.1605 36.0692 34.1412 36.0692C37.1219 36.0692 39.8619 35.668 41.8914 34.9915ZM41.8914 40.248C42.5382 40.0323 43.1357 39.7813 43.6544 39.4925L43.6543 42.0779C43.6543 42.124 43.6272 42.3271 43.2092 42.6566C42.8024 42.9771 42.1519 43.3095 41.2589 43.6072C39.6957 44.1283 37.5582 44.4876 35.1412 44.5661V42.954C35.1412 42.3112 34.8682 41.7671 34.4838 41.3239C37.3315 41.2944 39.9399 40.8984 41.8914 40.248ZM32.6961 42.3754C33.1141 42.7048 33.1412 42.9079 33.1412 42.954C33.1412 43.0001 33.1141 43.2032 32.696 43.5326C32.2893 43.8532 31.6387 44.1856 30.7457 44.4833C28.9701 45.0751 26.4536 45.4584 23.628 45.4584C20.8025 45.4584 18.2859 45.0751 16.5103 44.4833C15.6173 44.1856 14.9668 43.8532 14.56 43.5326C14.142 43.2032 14.1149 43.0001 14.1149 42.954C14.1149 42.9079 14.142 42.7048 14.56 42.3754C14.9667 42.0548 15.6173 41.7224 16.5103 41.4247C18.2859 40.8329 20.8025 40.4497 23.628 40.4497C26.4536 40.4497 28.9702 40.8329 30.7457 41.4247C31.6388 41.7224 32.2893 42.0548 32.6961 42.3754ZM15.8779 46.3807C15.231 46.165 14.6335 45.914 14.1149 45.6252V49.0868C14.1149 49.1329 14.142 49.336 14.56 49.6654C14.9668 49.986 15.6173 50.3184 16.5103 50.6161C18.2859 51.2079 20.8025 51.5912 23.628 51.5912C26.4536 51.5912 28.9701 51.2079 30.7457 50.6161C31.6387 50.3184 32.2893 49.986 32.696 49.6654C33.1141 49.336 33.1412 49.1329 33.1412 49.0868V45.6252C32.6225 45.914 32.0251 46.165 31.3782 46.3807C29.3488 47.0571 26.6087 47.4584 23.628 47.4584C20.6473 47.4584 17.9073 47.0571 15.8779 46.3807Z" fill="url(#paint0_linear_8427_11581)"/>
<defs>
<linearGradient id="paint0_linear_8427_11581" x1="13.8316" y1="53.5912" x2="56.0523" y2="40.2349" gradientUnits="userSpaceOnUse">
<stop stop-color="#FE5000"/>
<stop offset="1" stop-color="#FCA92A"/>
</linearGradient>
</defs>
</svg>
