<svg width="56" height="56" viewBox="0 0 56 56" fill="none" xmlns="http://www.w3.org/2000/svg">
<path d="M46.1796 6H9.82036C7.20359 6 5 8.22082 5 10.858V43.6151C5 46.2524 7.20359 48.4732 9.82036 48.4732H32.8204C33.3713 48.4732 33.7844 48.0568 33.7844 47.5016C33.7844 46.9464 33.3713 46.53 32.8204 46.53H9.82036C8.30539 46.53 6.92814 45.2808 6.92814 43.6151V15.5773H49.0719V35.8423C49.0719 36.3975 49.485 36.8139 50.0359 36.8139C50.5868 36.8139 51 36.3975 51 35.8423V10.858C51 8.22082 48.7964 6 46.1796 6ZM49.0719 13.7729H6.92814V10.858C6.92814 9.33123 8.16766 7.94322 9.82036 7.94322H46.1796C47.6946 7.94322 49.0719 9.19243 49.0719 10.858V13.7729ZM9.82036 11.8297C10.3713 11.8297 10.7844 11.4132 10.7844 10.858C10.7844 10.3028 10.3713 9.88644 9.82036 9.88644C9.26946 9.88644 8.85629 10.3028 8.85629 10.858C8.85629 11.4132 9.26946 11.8297 9.82036 11.8297ZM13.6766 11.8297C14.2275 11.8297 14.6407 11.4132 14.6407 10.858C14.6407 10.3028 14.2275 9.88644 13.6766 9.88644C13.1257 9.88644 12.7126 10.3028 12.7126 10.858C12.7126 11.4132 13.1257 11.8297 13.6766 11.8297ZM17.5329 11.8297C18.0838 11.8297 18.497 11.4132 18.497 10.858C18.497 10.3028 18.0838 9.88644 17.5329 9.88644C16.982 9.88644 16.5689 10.3028 16.5689 10.858C16.5689 11.4132 16.982 11.8297 17.5329 11.8297ZM50.7245 40.9779L37.3653 27.5142C37.0898 27.2366 36.6766 27.0978 36.2635 27.2366C35.8503 27.3754 35.7126 27.7918 35.7126 28.0694V47.3628C35.7126 47.7792 35.988 48.0568 36.2635 48.1956C36.6766 48.3344 37.0898 48.1956 37.3653 47.918L40.2575 45.0032L42.5988 49.5836C42.7365 49.8612 42.8742 50 43.1497 50C43.2874 50 43.2874 50 43.4251 50C43.5629 50 43.7006 50 43.8383 49.8612L47.5569 47.918C47.9701 47.6404 48.2455 47.0852 47.9701 46.6688L45.7665 42.3659H49.8982C50.3114 42.3659 50.5868 42.0883 50.7245 41.8107C51 41.6719 51 41.2555 50.7245 40.9779ZM44.2515 40.7003C43.976 40.7003 43.5629 40.8391 43.4251 41.1167C43.2874 41.3943 43.2874 41.8107 43.4251 42.0883L45.9042 46.9464L43.8383 48.0568L41.3593 43.1987C41.2216 42.9211 40.9461 42.7823 40.6707 42.6435H40.5329C40.2575 42.6435 39.982 42.7823 39.8443 42.9211L37.6407 45.142V30.429L47.8323 40.7003H44.2515Z" fill="url(#paint0_linear_5718_1610)"/>
<defs>
<linearGradient id="paint0_linear_5718_1610" x1="14.4875" y1="50" x2="54.5004" y2="36.9081" gradientUnits="userSpaceOnUse">
<stop stop-color="#FE5000"/>
<stop offset="1" stop-color="#FCA92A"/>
</linearGradient>
</defs>
</svg>
