<svg width="56" height="56" viewBox="0 0 56 56" fill="none" xmlns="http://www.w3.org/2000/svg">
<path d="M32.0004 14.3574V10.932C32.0004 4.356 6 4.356 6 10.932V30.9673C6 33.5524 10.0466 35.1639 14.9147 35.7368C13.1341 36.5354 12.0001 37.6141 12.0001 38.9813V44.9919C12.0001 48.28 18.5402 50.0007 25.0003 50.0007C31.4605 50.0007 38.0006 48.2799 38.0006 44.9919V41.97C44.1182 41.8019 50.0008 40.0961 50.0008 36.9779V18.9462C50.0007 14.7947 39.6415 13.2672 32.0004 14.3574ZM19.0002 8.00002C26.1176 8.00002 30.0004 9.98146 30.0004 11.0001C30.0004 12.0187 26.1175 14.0001 19.0002 14.0001C11.883 14.0001 8.00009 12.0187 8.00009 11.0001C8 9.98156 11.8829 8.00002 19.0002 8.00002ZM8 13.7829C10.4266 15.2434 14.7248 16.0002 19.0001 16.0002C23.2755 16.0002 27.5738 15.2434 30.0004 13.7829V14.7767C26.5251 15.5474 24.0003 16.9549 24.0003 19.0003V19.5919C22.433 19.8434 20.7413 20.0002 19.0002 20.0002C11.8829 20.0002 8.00009 18.0188 8.00009 17.0002V13.7829H8ZM26.0003 33.7832C26.1906 33.8977 26.3886 34.0089 26.6011 34.1147C26.401 34.1064 26.2012 34.0982 26.0003 34.0929V33.7832ZM8 19.783C10.4266 21.2435 14.7248 22.0003 19.0001 22.0003C20.7312 22.0003 22.4137 21.8449 24.0002 21.6079V26.5921C22.433 26.8435 20.7412 27.0004 19.0001 27.0004C11.8828 27.0004 8 25.0189 8 24.0003V19.783ZM8 31.0005V26.7831C10.4266 28.2436 14.7248 29.0005 19.0001 29.0005C20.7312 29.0005 22.4137 28.845 24.0002 28.608V33.5922C22.433 33.8437 20.7412 34.0005 19.0001 34.0005C11.8829 34.0005 8 32.019 8 31.0005ZM36.0005 45.0007C36.0005 46.0193 32.1176 48.0007 25.0003 48.0007C17.8831 48.0007 14.0001 46.0193 14.0001 45.0007V41.7833C16.4267 43.2437 20.7249 44.0006 25.0002 44.0006C29.0927 44.0006 33.2117 43.3089 35.6852 41.9691C35.7891 41.973 35.896 41.9735 36.0004 41.9767V45.0007H36.0005ZM25.0003 42.0006C17.883 42.0006 14.0002 40.0192 14.0002 39.0006C14.0002 37.9819 17.8831 36.0005 25.0003 36.0005C32.1176 36.0005 36.0005 37.9819 36.0005 39.0006C36.0005 40.0192 32.1176 42.0006 25.0003 42.0006ZM48.0007 37.0006C48.0007 37.9684 44.4572 39.7857 38.0005 39.9659V39.0006C38.0005 37.7511 37.055 36.7412 35.5299 35.9674C36.0189 35.9872 36.5094 36.0005 37.0004 36.0005C41.2758 36.0005 45.5741 35.2437 48.0006 33.7832V37.0006H48.0007ZM48.0007 31.0005C48.0007 32.0191 44.1178 34.0005 37.0005 34.0005C29.8833 34.0005 26.0004 32.0191 26.0004 31.0005V27.7831C28.4269 29.2436 32.7252 30.0004 37.0005 30.0004C41.2759 30.0004 45.5742 29.2436 48.0007 27.7831V31.0005ZM48.0007 25.0004C48.0007 26.019 44.1178 28.0004 37.0005 28.0004C29.8833 28.0004 26.0004 26.019 26.0004 25.0004V21.783C28.4269 23.2435 32.7252 24.0003 37.0005 24.0003C41.2759 24.0003 45.5742 23.2435 48.0007 21.783V25.0004ZM37.0005 22.0003C29.8832 22.0003 26.0004 20.0189 26.0004 19.0003C26.0004 17.9817 29.8833 16.0002 37.0005 16.0002C44.1178 16.0002 48.0007 17.9817 48.0007 19.0003C48.0007 20.0189 44.1178 22.0003 37.0005 22.0003Z" fill="url(#paint0_linear_5718_1568)"/>
<defs>
<linearGradient id="paint0_linear_5718_1568" x1="15.0752" y1="50.0007" x2="53.6665" y2="37.9229" gradientUnits="userSpaceOnUse">
<stop stop-color="#FE5000"/>
<stop offset="1" stop-color="#FCA92A"/>
</linearGradient>
</defs>
</svg>
