<svg width="56" height="56" viewBox="0 0 56 56" fill="none" xmlns="http://www.w3.org/2000/svg">
<path d="M28.7934 3.81824H14.6921C10.8041 3.81824 7.63672 6.98496 7.63672 10.8723V45.1278C7.63672 49.0057 10.8041 52.1724 14.6921 52.1724H16.7025C17.2621 52.1724 17.7078 51.7173 17.7078 51.1673C17.7078 50.608 17.2525 50.1624 16.7025 50.1624H14.6921C11.9136 50.1624 9.65656 47.9059 9.65656 45.1278V10.8723C9.65656 8.09426 11.9136 5.83774 14.6921 5.83774H28.7934C31.572 5.83774 33.8289 8.09426 33.8289 10.8723V20.9507C33.8289 21.5102 34.2841 21.9558 34.8341 21.9558C35.3841 21.9558 35.8393 21.5006 35.8393 20.9507V10.8723C35.8489 6.98496 32.6815 3.81824 28.7934 3.81824ZM34.8437 11.8773H8.64191C8.09189 11.8773 7.63672 12.3323 7.63672 12.8822C7.63672 13.4322 8.09189 13.8873 8.64191 13.8873H34.8341C35.3937 13.8873 35.8393 13.4322 35.8393 12.8822C35.8393 12.3323 35.3937 11.8773 34.8437 11.8773ZM25.7684 40.0838H8.64191C8.09189 40.0838 7.63672 40.539 7.63672 41.0889C7.63672 41.6483 8.09189 42.0939 8.64191 42.0939H25.7684C26.3278 42.0939 26.7736 41.6388 26.7736 41.0889C26.783 40.539 26.3278 40.0838 25.7684 40.0838ZM24.7632 7.84775H18.713C18.1534 7.84775 17.7078 8.30287 17.7078 8.85278C17.7078 9.4027 18.163 9.85776 18.713 9.85776H24.7632C25.3226 9.85776 25.7684 9.4027 25.7684 8.85278C25.7684 8.30287 25.3226 7.84775 24.7632 7.84775ZM28.8409 7.84775H28.8219C28.2624 7.84775 27.8261 8.30287 27.8261 8.85278C27.8261 9.4027 28.2908 9.85776 28.8409 9.85776C29.3909 9.85776 29.8461 9.4027 29.8461 8.85278C29.8461 8.30287 29.3909 7.84775 28.8409 7.84775ZM53.1176 30.4794L45.5405 22.1549C44.0422 20.6569 41.5956 20.6568 40.0877 22.1643C39.6041 22.648 39.2817 23.2168 39.111 23.8331C37.6032 22.6763 35.4316 22.7901 34.0375 24.1838C33.5635 24.6674 33.2315 25.2363 33.0608 25.8526C31.553 24.6958 29.3813 24.8096 27.9968 26.2033C27.5227 26.6774 27.2003 27.2368 27.0295 27.8246L23.4545 24.2502C21.9562 22.7522 19.5096 22.7522 18.0017 24.2597C16.5034 25.7577 16.5034 28.204 18.0017 29.7019L31.7237 43.4307L23.5873 44.7107C21.3872 45.0236 19.7276 46.9388 19.7276 49.1574C19.7276 50.826 21.0837 52.1819 22.7528 52.1819H41.7568C44.7155 52.1819 47.5035 51.0252 49.5898 48.9393L52.7571 45.7726C54.8529 43.6867 56.0004 40.8992 56.0004 37.9505C56.0004 35.1726 54.9761 32.5273 53.1176 30.4794ZM51.3347 44.3315L48.1673 47.4982C46.451 49.2142 44.175 50.1529 41.7568 50.1529H22.7528C22.1932 50.1529 21.7475 49.6978 21.7475 49.1479C21.7475 47.9248 22.6579 46.8724 23.8907 46.6923L33.9996 45.1089C34.379 45.052 34.6824 44.7865 34.8057 44.4262C34.9195 44.066 34.8247 43.6678 34.5591 43.4022L19.4241 28.2798C18.713 27.5686 18.713 26.4025 19.4336 25.6724C19.794 25.3121 20.2586 25.132 20.7328 25.132C21.207 25.132 21.6716 25.3121 22.032 25.6724L32.1126 35.751C32.5013 36.1397 33.1461 36.1397 33.535 35.751C33.7341 35.5518 33.8289 35.2958 33.8289 35.0398C33.8289 34.7838 33.7341 34.5278 33.535 34.3288L29.4194 30.2139C28.7081 29.5028 28.7081 28.3366 29.4288 27.6066C30.14 26.8955 31.3064 26.8955 32.0177 27.6066L36.1333 31.7214C36.5221 32.1102 37.167 32.1102 37.5558 31.7214C37.755 31.5224 37.8498 31.2664 37.8498 31.0104C37.8498 30.7544 37.755 30.4984 37.5652 30.3088L35.46 28.204C34.7488 27.4928 34.7488 26.3267 35.4696 25.5966C36.1807 24.8854 37.3472 24.8854 38.0584 25.5966L40.1637 27.7014C40.5619 28.0712 41.1783 28.0712 41.5671 27.6824C41.9559 27.2937 41.9559 26.649 41.5671 26.2603L41.4818 26.1749C41.131 25.8241 40.9412 25.3691 40.9412 24.876C40.9412 24.383 41.131 23.9278 41.4913 23.5676C42.2025 22.8565 43.3689 22.8565 44.0517 23.5297L51.6003 31.8163C53.1175 33.4849 53.952 35.6467 53.952 37.9126C53.99 40.3494 53.0416 42.6248 51.3347 44.3315Z" fill="url(#paint0_linear_5718_1608)"/>
<defs>
<linearGradient id="paint0_linear_5718_1608" x1="17.6117" y1="52.1819" x2="60.0295" y2="38.9065" gradientUnits="userSpaceOnUse">
<stop stop-color="#FE5000"/>
<stop offset="1" stop-color="#FCA92A"/>
</linearGradient>
</defs>
</svg>
