<svg width="56" height="56" viewBox="0 0 56 56" fill="none" xmlns="http://www.w3.org/2000/svg">
<path fill-rule="evenodd" clip-rule="evenodd" d="M12.5907 3.03668C12.1108 3.03668 11.7217 3.42573 11.7217 3.90565V30.433H6.31235C5.96089 30.433 5.64403 30.6448 5.50953 30.9695C5.37503 31.2942 5.44938 31.6679 5.6979 31.9165L27.3867 53.6053C27.5496 53.7682 27.7707 53.8598 28.0011 53.8598C28.2316 53.8598 28.4526 53.7682 28.6156 53.6053L50.3044 31.9165C50.5529 31.6679 50.6272 31.2942 50.4927 30.9695C50.3582 30.6448 50.0414 30.433 49.6899 30.433H44.2806V3.90565C44.2806 3.42573 43.8915 3.03668 43.4116 3.03668H12.5907ZM13.4596 31.302V4.77461H42.5426V31.302C42.5426 31.7819 42.9317 32.171 43.4116 32.171H47.5921L28.0011 51.7619L8.41022 32.171H12.5907C13.0706 32.171 13.4596 31.7819 13.4596 31.302ZM19.2102 24.036C20.0728 24.8046 21.1864 25.1889 22.551 25.1889C23.8999 25.1889 25.0057 24.8046 25.8683 24.036C26.7467 23.2518 27.1858 22.2323 27.1858 20.9775C27.1858 19.7384 26.7467 18.7268 25.8683 17.9425C25.0057 17.174 23.8999 16.7897 22.551 16.7897C21.1864 16.7897 20.0728 17.174 19.2102 17.9425C18.3475 18.7111 17.9162 19.7227 17.9162 20.9775C17.9162 22.248 18.3475 23.2675 19.2102 24.036ZM21.0453 22.4597C20.6532 22.0833 20.4571 21.5892 20.4571 20.9775C20.4571 20.3815 20.6532 19.9031 21.0453 19.5424C21.4374 19.1659 21.9393 18.9777 22.551 18.9777C23.1627 18.9777 23.6646 19.1659 24.0567 19.5424C24.4645 19.9031 24.6684 20.3815 24.6684 20.9775C24.6684 21.5892 24.4724 22.0833 24.0803 22.4597C23.6881 22.8205 23.1784 23.0008 22.551 23.0008C21.9393 23.0008 21.4374 22.8205 21.0453 22.4597ZM29.6091 32.5528C30.4718 33.3214 31.5854 33.7057 32.95 33.7057C34.2989 33.7057 35.4046 33.3214 36.2673 32.5528C37.1456 31.7686 37.5848 30.7491 37.5848 29.4943C37.5848 28.2552 37.1456 27.2436 36.2673 26.4593C35.4046 25.6908 34.2989 25.3065 32.95 25.3065C31.5854 25.3065 30.4718 25.6908 29.6091 26.4593C28.7465 27.2279 28.3151 28.2395 28.3151 29.4943C28.3151 30.7648 28.7465 31.7843 29.6091 32.5528ZM31.4442 30.9765C31.0521 30.6001 30.8561 30.106 30.8561 29.4943C30.8561 28.8983 31.0521 28.4199 31.4442 28.0592C31.8364 27.6827 32.3383 27.4945 32.95 27.4945C33.5617 27.4945 34.0636 27.6827 34.4557 28.0592C34.8635 28.4199 35.0674 28.8983 35.0674 29.4943C35.0674 30.106 34.8713 30.6001 34.4792 30.9765C34.0871 31.3373 33.5774 31.5176 32.95 31.5176C32.3383 31.5176 31.8364 31.3373 31.4442 30.9765ZM21.0453 32.6469L22.5981 33.7292L34.4557 17.8955L32.9264 16.7426L21.0453 32.6469Z" fill="url(#paint0_linear_5718_1616)"/>
<defs>
<linearGradient id="paint0_linear_5718_1616" x1="5.44336" y1="53.8598" x2="55.908" y2="9.06243" gradientUnits="userSpaceOnUse">
<stop stop-color="#FE5000"/>
<stop offset="1" stop-color="#FE9800"/>
</linearGradient>
</defs>
</svg>
