<svg width="56" height="56" viewBox="0 0 56 56" fill="none" xmlns="http://www.w3.org/2000/svg">
<path fill-rule="evenodd" clip-rule="evenodd" d="M42.5666 14.6771C42.5342 14.6771 42.5219 14.6571 42.5048 14.6295C42.4943 14.6124 42.4819 14.5924 42.4619 14.5724C42.4357 14.5462 42.4227 14.5201 42.4096 14.4939C42.3965 14.4677 42.3834 14.4416 42.3572 14.4154L33.355 4.31403C33.3288 4.28786 33.2896 4.26169 33.2503 4.23552C33.2111 4.20935 33.1718 4.18319 33.1456 4.15702C33.1195 4.15702 33.1064 4.14393 33.0933 4.13085C33.0802 4.11776 33.0671 4.10468 33.041 4.10468C32.9363 4.05234 32.7793 4 32.6223 4H10.5354C7.29036 4 4.62109 6.66927 4.62109 9.91426V46.1849C4.62109 49.4299 7.29036 52.0992 10.5354 52.0992H36.7047C39.9497 52.0992 42.6189 49.4299 42.6189 46.1849V15.0434C42.6189 14.9911 42.6058 14.9257 42.5928 14.8603C42.5797 14.7948 42.5666 14.7294 42.5666 14.6771ZM33.6167 7.55902L39.4263 14.1013H33.6167V7.55902ZM40.6301 46.1326C40.6301 48.3308 38.9029 50.1103 36.7047 50.1103H10.5354C8.33714 50.1103 6.60996 48.3308 6.60996 46.1849V9.86192C6.60996 7.6637 8.38947 5.93653 10.5354 5.93653H31.6278V15.0434C31.6278 15.5668 32.0465 16.0379 32.6223 16.0379H40.6301V46.1326ZM10.621 30.9493C10.621 30.4523 11.0239 30.0494 11.521 30.0494H35.7194C36.2165 30.0494 36.6194 30.4523 36.6194 30.9493C36.6194 31.4463 36.2165 31.8493 35.7194 31.8493H11.521C11.0239 31.8493 10.621 31.4463 10.621 30.9493ZM11.521 35.0491C11.0239 35.0491 10.621 35.452 10.621 35.9491C10.621 36.4461 11.0239 36.849 11.521 36.849H35.7194C36.2165 36.849 36.6194 36.4461 36.6194 35.9491C36.6194 35.452 36.2165 35.0491 35.7194 35.0491H11.521ZM10.621 40.9488C10.621 40.4518 11.0239 40.0488 11.521 40.0488H22.7203C23.2173 40.0488 23.6202 40.4518 23.6202 40.9488C23.6202 41.4458 23.2173 41.8487 22.7203 41.8487H11.521C11.0239 41.8487 10.621 41.4458 10.621 40.9488ZM11.521 25.0498C11.0239 25.0498 10.621 25.4527 10.621 25.9497C10.621 26.4467 11.0239 26.8497 11.521 26.8497H22.7203C23.2173 26.8497 23.6202 26.4467 23.6202 25.9497C23.6202 25.4527 23.2173 25.0498 22.7203 25.0498H11.521Z" fill="url(#paint0_linear_8454_10170)"/>
<path d="M54 32.5C54 38.2593 49.1157 43 43 43C36.8843 43 32 38.2593 32 32.5C32 26.7407 36.8843 22 43 22C49.1157 22 54 26.7407 54 32.5Z" fill="white" stroke="url(#paint1_linear_8454_10170)" stroke-width="2"/>
<path d="M39 32.3478L42.4839 36L48 29" stroke="url(#paint2_linear_8454_10170)" stroke-width="2" stroke-linecap="round" stroke-linejoin="round"/>
<defs>
<linearGradient id="paint0_linear_8454_10170" x1="12.4581" y1="52.0992" x2="46.9409" y2="43.5736" gradientUnits="userSpaceOnUse">
<stop stop-color="#FE5000"/>
<stop offset="1" stop-color="#FCA92A"/>
</linearGradient>
<linearGradient id="paint1_linear_8454_10170" x1="21.087" y1="47" x2="49.9126" y2="41.4817" gradientUnits="userSpaceOnUse">
<stop stop-color="#FE5000"/>
<stop offset="1" stop-color="#FCA92A"/>
</linearGradient>
<linearGradient id="paint2_linear_8454_10170" x1="29" y1="41.9198" x2="48.3145" y2="38.726" gradientUnits="userSpaceOnUse">
<stop stop-color="#FE5000"/>
<stop offset="1" stop-color="#FCA92A"/>
</linearGradient>
</defs>
</svg>
