<svg width="56" height="56" viewBox="0 0 56 56" fill="none" xmlns="http://www.w3.org/2000/svg">
<path fill-rule="evenodd" clip-rule="evenodd" d="M5.10039 9.21055C5.10039 8.6796 5.26477 7.8627 5.7225 7.21159C6.13992 6.61782 6.83677 6.10002 8.1115 6.10002H8.13092H8.15065H8.17068H8.19101H8.21164H8.23257H8.2538H8.27532H8.29714H8.31926H8.34167H8.36438H8.38738H8.41067H8.43425H8.45812H8.48228H8.50673H8.53147H8.55649H8.58179H8.60738H8.63326H8.65941H8.68585H8.71256H8.73956H8.76684H8.79439H8.82222H8.85032H8.8787H8.90735H8.93627H8.96547H8.99493H9.02467H9.05468H9.08495H9.11549H9.14629H9.17736H9.2087H9.24029H9.27215H9.30427H9.33665H9.36929H9.40219H9.43534H9.46875H9.50242H9.53634H9.57051H9.60494H9.63962H9.67454H9.70972H9.74515H9.78082H9.81674H9.85291H9.88932H9.92597H9.96287H10H10.0374H10.075H10.1129H10.151H10.1893H10.2279H10.2667H10.3057H10.345H10.3845H10.4242H10.4642H10.5044H10.5448H10.5855H10.6263H10.6674H10.7088H10.7503H10.7921H10.8341H10.8763H10.9187H10.9614H11.0043H11.0474H11.0907H11.1342H11.1779H11.2219H11.266H11.3104H11.355H11.3998H11.4448H11.49H11.5354H11.581H11.6268H11.6728H11.7191H11.7655H11.8121H11.8589H11.906H11.9532H12.0006H12.0482H12.0961H12.1441H12.1923H12.2406H12.2892H12.338H12.387H12.4361H12.4854H12.535H12.5847H12.6346H12.6846H12.7349H12.7853H12.836H12.8867H12.9377H12.9889H13.0402H13.0917H13.1434H13.1953H13.2473H13.2995H13.3518H13.4044H13.4571H13.51H13.563H13.6162H13.6696H13.7231H13.7768H13.8307H13.8847H13.9389H13.9932H14.0478H14.1024H14.1572H14.2122H14.2673H14.3226H14.378H14.4336H14.4893H14.5452H14.6013H14.6574H14.7138H14.7702H14.8269H14.8836H14.9405H14.9976H15.0548H15.1121H15.1695H15.2272H15.2849H15.3428H15.4008H15.4589H15.5172H15.5756H15.6342H15.6928H15.7516H15.8106H15.8696H15.9288H15.9881H16.0476H16.1071H16.1668H16.2266H16.2866H16.3466H16.4068H16.467H16.5274H16.588H16.6486H16.7093H16.7702H16.8312H16.8922H16.9534H17.0147H17.0761H17.1377H17.1993H17.261H17.3228H17.3848H17.4468H17.509H17.5712H17.6336H17.696H17.7585H17.8212H17.8839H17.9467H18.0096H18.0727H18.1358H18.199H18.2622H18.3256H18.3891H18.4526H18.5163H18.58H18.6438H18.7077H18.7717H18.8357H18.8998H18.9641H19.0283H19.0927H19.1572H19.2217H19.2863H19.351H19.4157H19.4805H19.5454H19.6104H19.6754H19.7405H19.8056H19.8709H19.9361H20.0015H20.0669H20.1324H20.1979H20.2635H20.3292H20.3949H20.4607H20.5265H20.5924H20.6584H20.7244H20.7904H20.8565H20.9227H20.9889H21.0551H21.1214H21.1878H21.2542H21.3206H21.3871H21.4536H21.5202H21.5868H21.6534H21.7201H21.7869H21.8536H21.9204H21.9873H22.0541H22.121H22.188H22.2549H22.3219H22.3889H22.456H22.5231H22.5902H22.6573H22.7245H22.7917H22.8589H22.9261H22.9934H23.0606H23.1279H23.1952H23.2626H23.3299H23.3972H23.4646H23.532H23.5994H23.6668H23.7342H23.8016H23.8691H23.9365H24.004H24.0714H24.1389H24.2063H24.2738H24.3413H24.4087H24.4762H24.5437H24.6111H24.6786H24.7461H24.8135H24.881H24.9484H25.0158H25.0833H25.1507H25.2181H25.2855H25.3529H25.4202H25.4876H25.5549H25.6222H25.6895H25.7568H25.8241H25.8913H25.9585H26.0257H26.0929H26.1601H26.2272H26.2943H26.3614H26.4284H26.4954H26.5624H26.6294H26.6963H26.7632H26.83H26.8969H26.9637H27.0304H27.0971H27.1638H27.2304H27.297H27.3636H27.4301H27.4965H27.563H27.6294H27.6957H27.762H27.8282H27.8944H27.9605H28.0266H28.0926H28.1586H28.2246H28.2904H28.3562H28.422H28.4877H28.5533H28.6189H28.6844H28.7499H28.8153H28.8806H28.9459H29.0111H29.0763H29.1413H29.2063H29.2713H29.3361H29.4009H29.4656H29.5303H29.5949H29.6594H29.7238H29.7881H29.8524H29.9166H29.9807H30.0447H30.1087H30.1725H30.2363H30.3H30.3636H30.4271H30.4906H30.5539H30.6172H30.6803H30.7434H30.8064H30.8693H30.9321H30.9948H31.0574H31.1199H31.1823H31.2446H31.3068H31.3689H31.4309H31.4928H31.5546H31.6163H31.6779H31.7394H31.8007H31.862H31.9232H31.9842H32.0451H32.106H32.1667H32.2273H32.2877H32.3481H32.4083H32.4685H32.5285H32.5884H32.6481H32.7078H32.7673H32.8267H32.886H32.9451H33.0041H33.063H33.1218H33.1804H33.2389H33.2973H33.3555H33.4136H33.4716H33.5294H33.5871H33.6447H33.7021H33.7594H33.8165H33.8735H33.9304H33.9871H34.0437H34.1001H34.1564H34.2125H34.2685H34.3243H34.38H34.4355H34.4909H34.5461H34.6012H34.6561H34.7109H34.7655H34.82H34.8742H34.9284H34.9823H35.0362H35.0898H35.1433H35.1966H35.2498H35.3028H35.3556H35.4082H35.4607H35.513H35.5652H35.6171H35.6689H35.7206H35.772H35.8233H35.8744H35.9253H35.976H36.0266H36.077H36.1272H36.1772H36.227H36.2767H36.3261H36.3754C37.2363 6.10002 38.0987 6.32247 38.733 6.87931C39.3386 7.41091 39.9004 8.39171 39.9004 10.2632V10.269V10.2748V10.2806V10.2865V10.2924V10.2983V10.3042V10.3102V10.3161V10.3221V10.3281V10.3342V10.3402V10.3463V10.3524V10.3585V10.3647V10.3709V10.377V10.3833V10.3895V10.3957V10.402V10.4083V10.4146V10.421V10.4273V10.4337V10.4401V10.4466V10.453V10.4595V10.466V10.4725V10.479V10.4856V10.4921V10.4987V10.5054V10.512V10.5187V10.5254V10.5321V10.5388V10.5455V10.5523V10.5591V10.5659V10.5727V10.5796V10.5865V10.5934V10.6003V10.6072V10.6142V10.6212V10.6282V10.6352V10.6422V10.6493V10.6564V10.6635V10.6706V10.6778V10.6849V10.6921V10.6993V10.7066V10.7138V10.7211V10.7284V10.7357V10.743V10.7504V10.7578V10.7652V10.7726V10.78V10.7875V10.795V10.8025V10.81V10.8175V10.8251V10.8327V10.8403V10.8479V10.8556V10.8632V10.8709V10.8786V10.8864V10.8941V10.9019V10.9097V10.9175V10.9253V10.9331V10.941V10.9489V10.9568V10.9647V10.9727V10.9807V10.9887V10.9967V11.0047V11.0128V11.0208V11.0289V11.037V11.0452V11.0533V11.0615V11.0697V11.0779V11.0861V11.0944V11.1026V11.1109V11.1192V11.1276V11.1359V11.1443V11.1527V11.1611V11.1695V11.178V11.1865V11.1949V11.2035V11.212V11.2205V11.2291V11.2377V11.2463V11.2549V11.2636V11.2722V11.2809V11.2896V11.2984V11.3071V11.3159V11.3246V11.3334V11.3423V11.3511V11.36V11.3689V11.3778V11.3867V11.3956V11.4046V11.4135V11.4225V11.4316V11.4406V11.4496V11.4587V11.4678V11.4769V11.486V11.4952V11.5044V11.5136V11.5228V11.532V11.5412V11.5505V11.5598V11.5691V11.5784V11.5877V11.5971V11.6065V11.6159V11.6253V11.6347V11.6442V11.6536V11.6631V11.6726V11.6822V11.6917V11.7013V11.7109V11.7205V11.7301V11.7397V11.7494V11.7591V11.7688V11.7785V11.7882V11.798V11.8077V11.8175V11.8273V11.8372V11.847V11.8569V11.8667V11.8766V11.8866V11.8965V11.9064V11.9164V11.9264V11.9364V11.9464V11.9565V11.9665V11.9766V11.9867V11.9968V12.007V12.0171V12.0273V12.0375V12.0477V12.0579V12.0682V12.0784V12.0887V12.099V12.1093V12.1197V12.13V12.1404V12.1508V12.1612V12.1716V12.1821V12.1925V12.203V12.2135V12.224V12.2345V12.2451V12.2556V12.2662V12.2768V12.2874V12.2981V12.3087V12.3194V12.3301V12.3408V12.3515V12.3623V12.373V12.3838V12.3946V12.4054V12.4162V12.4271V12.438V12.4488V12.4597V12.4707V12.4816V12.4925V12.5035V12.5145V12.5255V12.5365V12.5476V12.5586V12.5697V12.5808V12.5919V12.603V12.6141V12.6253V12.6365V12.6477V12.6589V12.6701V12.6813V12.6926V12.7039V12.7152V12.7265V12.7378V12.7491V12.7605V12.7719V12.7833V12.7947V12.8061V12.8176V12.829V12.8405V12.852V12.8635V12.875V12.8866V12.8981V12.9097V12.9213V12.9329V12.9446V12.9562V12.9679V12.9795V12.9912V13.0029V13.0147V13.0264V13.0382V13.05V13.0617V13.0736V13.0854V13.0972V13.1091V13.121V13.1328V13.1448V13.1567V13.1686V13.1806V13.1925V13.2045V13.2165V13.2286V13.2406V13.2526V13.2647V13.2768V13.2889V13.301V13.3132V13.3253V13.3375V13.3496V13.3618V13.3741V13.3863V13.3985V13.4108V13.4231V13.4354V13.4477V13.46V13.4723V13.4847V13.4971V13.5094V13.5218V13.5343V13.5467V13.5591V13.5716V13.5841V13.5966V13.6091V13.6216V13.6342V13.6467V13.6593V13.6719V13.6845V13.6971V13.7098V13.7224V13.7351V13.7478V13.7605V13.7732V13.7859V13.7986V13.8114V13.8242V13.837V13.8498V13.8626V13.8754V13.8883V13.9011V13.914V13.9269V13.9398V13.9527V13.9657V13.9786V13.9916V14.0046V14.0176V14.0306V14.0436V14.0567V14.0697V14.0828V14.0959V14.109V14.1221V14.1353V14.1484V14.1616V14.1748V14.188V14.2012V14.2144V14.2276V14.2409V14.2542V14.2674V14.2807V14.294V14.3074V14.3207V14.3341V14.3474V14.3608V14.3742V14.3876V14.4011V14.4145V14.428V14.4414V14.4549V14.4684V14.4819V14.4955V14.509V14.5226V14.5361V14.5497V14.5633V14.5769V14.5906V14.6042V14.6179V14.6315V14.6452V14.6589V14.6726V14.6864V14.7001V14.7138V14.7276V14.7414V14.7552V14.769V14.7828V14.7967V14.8105V14.8244V14.8383V14.8522V14.8661V14.88V14.8939V14.9H39.8806H39.8153H39.7499H39.6844H39.6189H39.5533H39.4877H39.422H39.3562H39.2904H39.2246H39.1586H39.0926H39.0266H38.9605H38.8944H38.8282H38.762H38.6957H38.6293H38.563H38.4966H38.4301H38.3636H38.297H38.2304H38.1638H38.0971H38.0304H37.9637H37.8969H37.83H37.7632H37.6963H37.6294H37.5624H37.4954H37.4284H37.3614H37.2943H37.2272H37.1601H37.0929H37.0257H36.9585H36.8913H36.8241H36.7568H36.6895H36.6222H36.5549H36.4876H36.4202H36.3529H36.2855H36.2181H36.1507H36.0833H36.0158H35.9484H35.881H35.8135H35.7461H35.6786H35.6111H35.5437H35.4762H35.4087H35.3413H35.2738H35.2063H35.1389H35.0714H35.004H34.9365H34.8691H34.8016H34.7342H34.6668H34.5994H34.532H34.4646H34.3972H34.3299H34.2626H34.1952H34.1279H34.0606H33.9934H33.9261H33.8589H33.7917H33.7245H33.6573H33.5902H33.5231H33.456H33.3889H33.3219H33.2549H33.188H33.121H33.0541H32.9873H32.9204H32.8536H32.7869H32.7201H32.6534H32.5868H32.5202H32.4536H32.3871H32.3206H32.2542H32.1878H32.1214H32.0551H31.9889H31.9227H31.8565H31.7904H31.7244H31.6584H31.5924H31.5265H31.4607H31.3949H31.3292H31.2635H31.1979H31.1324H31.0669H31.0015H30.9361H30.8709H30.8056H30.7405H30.6754H30.6104H30.5454H30.4805H30.4157H30.351H30.2863H30.2217H30.1572H30.0927H30.0283H29.9641H29.8998H29.8357H29.7717H29.7077H29.6438H29.58H29.5163H29.4526H29.3891H29.3256H29.2622H29.199H29.1358H29.0727H29.0096H28.9467H28.8839H28.8212H28.7585H28.696H28.6336H28.5712H28.509H28.4468H28.3848H28.3228H28.261H28.1993H28.1377H28.0761H28.0147H27.9534H27.8922H27.8312H27.7702H27.7093H27.6486H27.588H27.5274H27.467H27.4068H27.3466H27.2866H27.2266H27.1668H27.1071H27.0476H26.9881H26.9288H26.8696H26.8106H26.7516H26.6928H26.6342H26.5756H26.5172H26.4589H26.4008H26.3428H26.2849H26.2272H26.1695H26.1121H26.0548H25.9976H25.9405H25.8836H25.8269H25.7702H25.7138H25.6574H25.6013H25.5452H25.4893H25.4336H25.378H25.3226H25.2673H25.2122H25.1572H25.1024H25.0478H24.9932H24.9389H24.8847H24.8307H24.7768H24.7231H24.6696H24.6162H24.563H24.51H24.4571H24.4044H24.3518H24.2995H24.2473H24.1953H24.1434H24.0917H24.0402H23.9889H23.9377H23.8867H23.836H23.7853H23.7349H23.6846H23.6346H23.5847H23.535H23.4854H23.4361H23.387H23.338H23.2892H23.2406H23.1923H23.1441H23.0961H23.0482H23.0006H22.9532H22.906H22.8589H22.8121H22.7655H22.7191H22.6728H22.6268H22.581H22.5354H22.49H22.4448H22.3998H22.355H22.3104H22.266H22.2219H22.1779H22.1342H22.0907H22.0474H22.0043H21.9614H21.9187H21.8763H21.8341H21.7921H21.7503H21.7088H21.6674H21.6263H21.5855H21.5448H21.5044H21.4642H21.4242H21.3845H21.345H21.3057H21.2667H21.2279H21.1893H21.151H21.1129H21.075H21.0374H21H20.9629H20.926H20.8893H20.8529H20.8167H20.7808H20.7451H20.7097H20.6745H20.6396H20.6049H20.5705H20.5363H20.5024H20.4688H20.4353H20.4022H20.3693H20.3367H20.3043H20.2722H20.2403H20.2087H20.1774H20.1463H20.1155H20.0849H20.0547H20.0247H19.9949H19.9655H19.9363H19.9073H19.8787H19.8503H19.8222H19.7944H19.7668H19.7396H19.7126H19.6858H19.6594H19.6333H19.6074H19.5818H19.5565H19.5315H19.5067H19.4823H19.4581H19.4343H19.4107H19.3874H19.3644H19.3417H19.3193H19.2971H19.2753H19.2538H19.2326H19.2116H19.191H19.1707H19.1507H19.1309H19.1115C17.1089 14.9 15.7509 15.7584 14.9301 16.8975C14.1498 17.9806 13.9004 19.2473 13.9004 20.1081V33.9H13.8924H13.8789H13.8655H13.852H13.8386H13.8251H13.8117H13.7983H13.7849H13.7715H13.758H13.7447H13.7313H13.7179H13.7045H13.6911H13.6778H13.6644H13.6511H13.6377H13.6244H13.6111H13.5978H13.5845H13.5711H13.5579H13.5446H13.5313H13.518H13.5047H13.4915H13.4782H13.465H13.4517H13.4385H13.4253H13.4121H13.3989H13.3857H13.3725H13.3593H13.3461H13.3329H13.3198H13.3066H13.2935H13.2803H13.2672H13.2541H13.2409H13.2278H13.2147H13.2016H13.1886H13.1755H13.1624H13.1493H13.1363H13.1232H13.1102H13.0972H13.0841H13.0711H13.0581H13.0451H13.0321H13.0191H13.0062H12.9932H12.9802H12.9673H12.9543H12.9414H12.9285H12.9156H12.9026H12.8897H12.8768H12.864H12.8511H12.8382H12.8253H12.8125H12.7996H12.7868H12.774H12.7612H12.7483H12.7355H12.7227H12.71H12.6972H12.6844H12.6717H12.6589H12.6462H12.6334H12.6207H12.608H12.5953H12.5826H12.5699H12.5572H12.5445H12.5319H12.5192H12.5065H12.4939H12.4813H12.4687H12.456H12.4434H12.4308H12.4183H12.4057H12.3931H12.3805H12.368H12.3555H12.3429H12.3304H12.3179H12.3054H12.2929H12.2804H12.2679H12.2554H12.243H12.2305H12.2181H12.2057H12.1932H12.1808H12.1684H12.156H12.1436H12.1313H12.1189H12.1065H12.0942H12.0819H12.0695H12.0572H12.0449H12.0326H12.0203H12.008H11.9958H11.9835H11.9712H11.959H11.9468H11.9345H11.9223H11.9101H11.8979H11.8857H11.8736H11.8614H11.8492H11.8371H11.825H11.8128H11.8007H11.7886H11.7765H11.7644H11.7523H11.7403H11.7282H11.7162H11.7041H11.6921H11.6801H11.6681H11.6561H11.6441H11.6321H11.6202H11.6082H11.5963H11.5843H11.5724H11.5605H11.5486H11.5367H11.5248H11.5129H11.5011H11.4892H11.4774H11.4655H11.4537H11.4419H11.4301H11.4183H11.4065H11.3948H11.383H11.3713H11.3595H11.3478H11.3361H11.3244H11.3127H11.301H11.2893H11.2777H11.266H11.2544H11.2427H11.2311H11.2195H11.2079H11.1963H11.1847H11.1732H11.1616H11.1501H11.1385H11.127H11.1155H11.104H11.0925H11.081H11.0696H11.0581H11.0467H11.0352H11.0238H11.0124H11.001H10.9896H10.9782H10.9669H10.9555H10.9442H10.9329H10.9215H10.9102H10.8989H10.8876H10.8764H10.8651H10.8538H10.8426H10.8314H10.8202H10.8089H10.7978H10.7866H10.7754H10.7642H10.7531H10.742H10.7308H10.7197H10.7086H10.6975H10.6864H10.6754H10.6643H10.6533H10.6422H10.6312H10.6202H10.6092H10.5982H10.5873H10.5763H10.5654H10.5544H10.5435H10.5326H10.5217H10.5108H10.4999H10.489H10.4782H10.4674H10.4565H10.4457H10.4349H10.4241H10.4133H10.4026H10.3918H10.3811H10.3703H10.3596H10.3489H10.3382H10.3275H10.3169H10.3062H10.2956H10.2849H10.2743H10.2637H10.2531H10.2425H10.232H10.2214H10.2109H10.2003H10.1898H10.1793H10.1688H10.1583H10.1479H10.1374H10.127H10.1165H10.1061H10.0957H10.0853H10.075H10.0646H10.0542H10.0439H10.0336H10.0233H10.013H10.0027H9.99239H9.98213H9.97188H9.96164H9.95142H9.94121H9.93101H9.92083H9.91066H9.9005H9.89036H9.88023H9.87011H9.86H9.84991H9.83983H9.82977H9.81972H9.80968H9.79965H9.78964H9.77964H9.76966H9.75969H9.74973H9.73978H9.72985H9.71994H9.71003H9.70014H9.69026H9.6804H9.67055H9.66072H9.65089H9.64108H9.63129H9.62151H9.61174H9.60199H9.59225H9.58252H9.57281H9.56311H9.55342H9.54375H9.53409H9.52445H9.51482H9.5052H9.4956H9.48601H9.47644H9.46688H9.45734H9.4478H9.43829H9.42878H9.41929H9.40982H9.40036H9.39091H9.38148H9.37206H9.36265H9.35326H9.34389H9.33452H9.32518H9.31584H9.30653H9.29722H9.28793H9.27866H9.26939H9.26015H9.25091H9.2417H9.23249H9.2233H9.21413H9.20497H9.19582H9.18669H9.17758H9.16848H9.15939H9.15032H9.14126H9.13222H9.12319H9.11417H9.10518H9.09619H9.08722H9.07827H9.06933H9.0604H9.05149H9.0426H9.03372H9.02485H9.016H9.00717H8.99835H8.98954H8.98075H8.97198H8.96322H8.95447H8.94574H8.93703H8.92833H8.91965H8.91098H8.90232H8.89368H8.88506H8.87645H8.86786H8.85928H8.85072H8.84217H8.83364H8.82512H8.81662H8.80814H8.79967H8.79121H8.78277H8.77435H8.76594H8.75755H8.74917H8.74081H8.73246H8.72413H8.71582H8.70752H8.69923H8.69097H8.68271H8.67448H8.66626H8.65805H8.64986H8.64169H8.63353H8.62539C7.94545 33.9 7.05163 33.7777 6.35504 33.3021C5.73378 32.8779 5.10039 32.0591 5.10039 30.2632V9.21055ZM13.9004 36.1H13.8924H13.8789H13.8655H13.852H13.8386H13.8251H13.8117H13.7983H13.7849H13.7715H13.758H13.7447H13.7313H13.7179H13.7045H13.6911H13.6778H13.6644H13.6511H13.6377H13.6244H13.6111H13.5978H13.5845H13.5711H13.5579H13.5446H13.5313H13.518H13.5047H13.4915H13.4782H13.465H13.4517H13.4385H13.4253H13.4121H13.3989H13.3857H13.3725H13.3593H13.3461H13.3329H13.3198H13.3066H13.2935H13.2803H13.2672H13.2541H13.2409H13.2278H13.2147H13.2016H13.1886H13.1755H13.1624H13.1493H13.1363H13.1232H13.1102H13.0972H13.0841H13.0711H13.0581H13.0451H13.0321H13.0191H13.0062H12.9932H12.9802H12.9673H12.9543H12.9414H12.9285H12.9156H12.9026H12.8897H12.8768H12.864H12.8511H12.8382H12.8253H12.8125H12.7996H12.7868H12.774H12.7612H12.7483H12.7355H12.7227H12.71H12.6972H12.6844H12.6717H12.6589H12.6462H12.6334H12.6207H12.608H12.5953H12.5826H12.5699H12.5572H12.5445H12.5319H12.5192H12.5065H12.4939H12.4813H12.4687H12.456H12.4434H12.4308H12.4183H12.4057H12.3931H12.3805H12.368H12.3555H12.3429H12.3304H12.3179H12.3054H12.2929H12.2804H12.2679H12.2554H12.243H12.2305H12.2181H12.2057H12.1932H12.1808H12.1684H12.156H12.1436H12.1313H12.1189H12.1065H12.0942H12.0819H12.0695H12.0572H12.0449H12.0326H12.0203H12.008H11.9958H11.9835H11.9712H11.959H11.9468H11.9345H11.9223H11.9101H11.8979H11.8857H11.8736H11.8614H11.8492H11.8371H11.825H11.8128H11.8007H11.7886H11.7765H11.7644H11.7523H11.7403H11.7282H11.7162H11.7041H11.6921H11.6801H11.6681H11.6561H11.6441H11.6321H11.6202H11.6082H11.5963H11.5843H11.5724H11.5605H11.5486H11.5367H11.5248H11.5129H11.5011H11.4892H11.4774H11.4655H11.4537H11.4419H11.4301H11.4183H11.4065H11.3948H11.383H11.3713H11.3595H11.3478H11.3361H11.3244H11.3127H11.301H11.2893H11.2777H11.266H11.2544H11.2427H11.2311H11.2195H11.2079H11.1963H11.1847H11.1732H11.1616H11.1501H11.1385H11.127H11.1155H11.104H11.0925H11.081H11.0696H11.0581H11.0467H11.0352H11.0238H11.0124H11.001H10.9896H10.9782H10.9669H10.9555H10.9442H10.9329H10.9215H10.9102H10.8989H10.8876H10.8764H10.8651H10.8538H10.8426H10.8314H10.8202H10.8089H10.7978H10.7866H10.7754H10.7642H10.7531H10.742H10.7308H10.7197H10.7086H10.6975H10.6864H10.6754H10.6643H10.6533H10.6422H10.6312H10.6202H10.6092H10.5982H10.5873H10.5763H10.5654H10.5544H10.5435H10.5326H10.5217H10.5108H10.4999H10.489H10.4782H10.4674H10.4565H10.4457H10.4349H10.4241H10.4133H10.4026H10.3918H10.3811H10.3703H10.3596H10.3489H10.3382H10.3275H10.3169H10.3062H10.2956H10.2849H10.2743H10.2637H10.2531H10.2425H10.232H10.2214H10.2109H10.2003H10.1898H10.1793H10.1688H10.1583H10.1479H10.1374H10.127H10.1165H10.1061H10.0957H10.0853H10.075H10.0646H10.0542H10.0439H10.0336H10.0233H10.013H10.0027H9.99239H9.98213H9.97188H9.96164H9.95142H9.94121H9.93101H9.92083H9.91066H9.9005H9.89036H9.88023H9.87011H9.86H9.84991H9.83983H9.82977H9.81972H9.80968H9.79965H9.78964H9.77964H9.76966H9.75969H9.74973H9.73978H9.72985H9.71994H9.71003H9.70014H9.69026H9.6804H9.67055H9.66072H9.65089H9.64108H9.63129H9.62151H9.61174H9.60199H9.59225H9.58252H9.57281H9.56311H9.55342H9.54375H9.53409H9.52445H9.51482H9.5052H9.4956H9.48601H9.47644H9.46688H9.45734H9.4478H9.43829H9.42878H9.41929H9.40982H9.40036H9.39091H9.38148H9.37206H9.36265H9.35326H9.34389H9.33452H9.32518H9.31584H9.30653H9.29722H9.28793H9.27866H9.26939H9.26015H9.25091H9.2417H9.23249H9.2233H9.21413H9.20497H9.19582H9.18669H9.17758H9.16848H9.15939H9.15032H9.14126H9.13222H9.12319H9.11417H9.10518H9.09619H9.08722H9.07827H9.06933H9.0604H9.05149H9.0426H9.03372H9.02485H9.016H9.00717H8.99835H8.98954H8.98075H8.97198H8.96322H8.95447H8.94574H8.93703H8.92833H8.91965H8.91098H8.90232H8.89368H8.88506H8.87645H8.86786H8.85928H8.85072H8.84217H8.83364H8.82512H8.81662H8.80814H8.79967H8.79121H8.78277H8.77435H8.76594H8.75755H8.74917H8.74081H8.73246H8.72413H8.71582H8.70752H8.69923H8.69097H8.68271H8.67448H8.66626H8.65805H8.64986H8.64169H8.63353H8.62539C7.76367 36.1 6.34499 35.9592 5.11449 35.119C3.80867 34.2274 2.90039 32.6778 2.90039 30.2632V9.21055C2.90039 8.33799 3.14712 7.04963 3.92273 5.94635C4.73864 4.78573 6.09734 3.90002 8.1115 3.90002H8.13092H8.15065H8.17068H8.19101H8.21164H8.23257H8.2538H8.27532H8.29714H8.31926H8.34167H8.36438H8.38738H8.41067H8.43425H8.45812H8.48228H8.50673H8.53147H8.55649H8.58179H8.60738H8.63326H8.65941H8.68585H8.71256H8.73956H8.76684H8.79439H8.82222H8.85032H8.8787H8.90735H8.93627H8.96547H8.99493H9.02467H9.05468H9.08495H9.11549H9.14629H9.17736H9.2087H9.24029H9.27215H9.30427H9.33665H9.36929H9.40219H9.43534H9.46875H9.50242H9.53634H9.57051H9.60494H9.63962H9.67454H9.70972H9.74515H9.78082H9.81674H9.85291H9.88932H9.92597H9.96287H10H10.0374H10.075H10.1129H10.151H10.1893H10.2279H10.2667H10.3057H10.345H10.3845H10.4242H10.4642H10.5044H10.5448H10.5855H10.6263H10.6674H10.7088H10.7503H10.7921H10.8341H10.8763H10.9187H10.9614H11.0043H11.0474H11.0907H11.1342H11.1779H11.2219H11.266H11.3104H11.355H11.3998H11.4448H11.49H11.5354H11.581H11.6268H11.6728H11.7191H11.7655H11.8121H11.8589H11.906H11.9532H12.0006H12.0482H12.0961H12.1441H12.1923H12.2406H12.2892H12.338H12.387H12.4361H12.4854H12.535H12.5847H12.6346H12.6846H12.7349H12.7853H12.836H12.8867H12.9377H12.9889H13.0402H13.0917H13.1434H13.1953H13.2473H13.2995H13.3518H13.4044H13.4571H13.51H13.563H13.6162H13.6696H13.7231H13.7768H13.8307H13.8847H13.9389H13.9932H14.0478H14.1024H14.1572H14.2122H14.2673H14.3226H14.378H14.4336H14.4893H14.5452H14.6013H14.6574H14.7138H14.7702H14.8269H14.8836H14.9405H14.9976H15.0548H15.1121H15.1695H15.2272H15.2849H15.3428H15.4008H15.4589H15.5172H15.5756H15.6342H15.6928H15.7516H15.8106H15.8696H15.9288H15.9881H16.0476H16.1071H16.1668H16.2266H16.2866H16.3466H16.4068H16.467H16.5274H16.588H16.6486H16.7093H16.7702H16.8312H16.8922H16.9534H17.0147H17.0761H17.1377H17.1993H17.261H17.3228H17.3848H17.4468H17.509H17.5712H17.6336H17.696H17.7585H17.8212H17.8839H17.9467H18.0096H18.0727H18.1358H18.199H18.2622H18.3256H18.3891H18.4526H18.5163H18.58H18.6438H18.7077H18.7717H18.8357H18.8998H18.9641H19.0283H19.0927H19.1572H19.2217H19.2863H19.351H19.4157H19.4805H19.5454H19.6104H19.6754H19.7405H19.8056H19.8709H19.9361H20.0015H20.0669H20.1324H20.1979H20.2635H20.3292H20.3949H20.4607H20.5265H20.5924H20.6584H20.7244H20.7904H20.8565H20.9227H20.9889H21.0551H21.1214H21.1878H21.2542H21.3206H21.3871H21.4536H21.5202H21.5868H21.6534H21.7201H21.7869H21.8536H21.9204H21.9873H22.0541H22.121H22.188H22.2549H22.3219H22.3889H22.456H22.5231H22.5902H22.6573H22.7245H22.7917H22.8589H22.9261H22.9934H23.0606H23.1279H23.1952H23.2626H23.3299H23.3972H23.4646H23.532H23.5994H23.6668H23.7342H23.8016H23.8691H23.9365H24.004H24.0714H24.1389H24.2063H24.2738H24.3413H24.4087H24.4762H24.5437H24.6111H24.6786H24.7461H24.8135H24.881H24.9484H25.0158H25.0833H25.1507H25.2181H25.2855H25.3529H25.4202H25.4876H25.5549H25.6222H25.6895H25.7568H25.8241H25.8913H25.9585H26.0257H26.0929H26.1601H26.2272H26.2943H26.3614H26.4284H26.4954H26.5624H26.6294H26.6963H26.7632H26.83H26.8969H26.9637H27.0304H27.0971H27.1638H27.2304H27.297H27.3636H27.4301H27.4965H27.563H27.6294H27.6957H27.762H27.8282H27.8944H27.9605H28.0266H28.0926H28.1586H28.2246H28.2904H28.3562H28.422H28.4877H28.5533H28.6189H28.6844H28.7499H28.8153H28.8806H28.9459H29.0111H29.0763H29.1413H29.2063H29.2713H29.3361H29.4009H29.4656H29.5303H29.5949H29.6594H29.7238H29.7881H29.8524H29.9166H29.9807H30.0447H30.1087H30.1725H30.2363H30.3H30.3636H30.4271H30.4906H30.5539H30.6172H30.6803H30.7434H30.8064H30.8693H30.9321H30.9948H31.0574H31.1199H31.1823H31.2446H31.3068H31.3689H31.4309H31.4928H31.5546H31.6163H31.6779H31.7394H31.8007H31.862H31.9232H31.9842H32.0451H32.106H32.1667H32.2273H32.2877H32.3481H32.4083H32.4685H32.5285H32.5884H32.6481H32.7078H32.7673H32.8267H32.886H32.9451H33.0041H33.063H33.1218H33.1804H33.2389H33.2973H33.3555H33.4136H33.4716H33.5294H33.5871H33.6447H33.7021H33.7594H33.8165H33.8735H33.9304H33.9871H34.0437H34.1001H34.1564H34.2125H34.2685H34.3243H34.38H34.4355H34.4909H34.5461H34.6012H34.6561H34.7109H34.7655H34.82H34.8742H34.9284H34.9823H35.0362H35.0898H35.1433H35.1966H35.2498H35.3028H35.3556H35.4082H35.4607H35.513H35.5652H35.6171H35.6689H35.7206H35.772H35.8233H35.8744H35.9253H35.976H36.0266H36.077H36.1272H36.1772H36.227H36.2767H36.3261H36.3754C37.57 3.90002 39.0201 4.20389 40.1844 5.226C41.3775 6.27335 42.1004 7.92412 42.1004 10.2632V10.269V10.2748V10.2806V10.2865V10.2924V10.2983V10.3042V10.3102V10.3161V10.3221V10.3281V10.3342V10.3402V10.3463V10.3524V10.3585V10.3647V10.3709V10.377V10.3833V10.3895V10.3957V10.402V10.4083V10.4146V10.421V10.4273V10.4337V10.4401V10.4466V10.453V10.4595V10.466V10.4725V10.479V10.4856V10.4921V10.4987V10.5054V10.512V10.5187V10.5254V10.5321V10.5388V10.5455V10.5523V10.5591V10.5659V10.5727V10.5796V10.5865V10.5934V10.6003V10.6072V10.6142V10.6212V10.6282V10.6352V10.6422V10.6493V10.6564V10.6635V10.6706V10.6778V10.6849V10.6921V10.6993V10.7066V10.7138V10.7211V10.7284V10.7357V10.743V10.7504V10.7578V10.7652V10.7726V10.78V10.7875V10.795V10.8025V10.81V10.8175V10.8251V10.8327V10.8403V10.8479V10.8556V10.8632V10.8709V10.8786V10.8864V10.8941V10.9019V10.9097V10.9175V10.9253V10.9331V10.941V10.9489V10.9568V10.9647V10.9727V10.9807V10.9887V10.9967V11.0047V11.0128V11.0208V11.0289V11.037V11.0452V11.0533V11.0615V11.0697V11.0779V11.0861V11.0944V11.1026V11.1109V11.1192V11.1276V11.1359V11.1443V11.1527V11.1611V11.1695V11.178V11.1865V11.1949V11.2035V11.212V11.2205V11.2291V11.2377V11.2463V11.2549V11.2636V11.2722V11.2809V11.2896V11.2984V11.3071V11.3159V11.3246V11.3334V11.3423V11.3511V11.36V11.3689V11.3778V11.3867V11.3956V11.4046V11.4135V11.4225V11.4316V11.4406V11.4496V11.4587V11.4678V11.4769V11.486V11.4952V11.5044V11.5136V11.5228V11.532V11.5412V11.5505V11.5598V11.5691V11.5784V11.5877V11.5971V11.6065V11.6159V11.6253V11.6347V11.6442V11.6536V11.6631V11.6726V11.6822V11.6917V11.7013V11.7109V11.7205V11.7301V11.7397V11.7494V11.7591V11.7688V11.7785V11.7882V11.798V11.8077V11.8175V11.8273V11.8372V11.847V11.8569V11.8667V11.8766V11.8866V11.8965V11.9064V11.9164V11.9264V11.9364V11.9464V11.9565V11.9665V11.9766V11.9867V11.9968V12.007V12.0171V12.0273V12.0375V12.0477V12.0579V12.0682V12.0784V12.0887V12.099V12.1093V12.1197V12.13V12.1404V12.1508V12.1612V12.1716V12.1821V12.1925V12.203V12.2135V12.224V12.2345V12.2451V12.2556V12.2662V12.2768V12.2874V12.2981V12.3087V12.3194V12.3301V12.3408V12.3515V12.3623V12.373V12.3838V12.3946V12.4054V12.4162V12.4271V12.438V12.4488V12.4597V12.4707V12.4816V12.4925V12.5035V12.5145V12.5255V12.5365V12.5476V12.5586V12.5697V12.5808V12.5919V12.603V12.6141V12.6253V12.6365V12.6477V12.6589V12.6701V12.6813V12.6926V12.7039V12.7152V12.7265V12.7378V12.7491V12.7605V12.7719V12.7833V12.7947V12.8061V12.8176V12.829V12.8405V12.852V12.8635V12.875V12.8866V12.8981V12.9097V12.9213V12.9329V12.9446V12.9562V12.9679V12.9795V12.9912V13.0029V13.0147V13.0264V13.0382V13.05V13.0617V13.0736V13.0854V13.0972V13.1091V13.121V13.1328V13.1448V13.1567V13.1686V13.1806V13.1925V13.2045V13.2165V13.2286V13.2406V13.2526V13.2647V13.2768V13.2889V13.301V13.3132V13.3253V13.3375V13.3496V13.3618V13.3741V13.3863V13.3985V13.4108V13.4231V13.4354V13.4477V13.46V13.4723V13.4847V13.4971V13.5094V13.5218V13.5343V13.5467V13.5591V13.5716V13.5841V13.5966V13.6091V13.6216V13.6342V13.6467V13.6593V13.6719V13.6845V13.6971V13.7098V13.7224V13.7351V13.7478V13.7605V13.7732V13.7859V13.7986V13.8114V13.8242V13.837V13.8498V13.8626V13.8754V13.8883V13.9011V13.914V13.9269V13.9398V13.9527V13.9657V13.9786V13.9916V14.0046V14.0176V14.0306V14.0436V14.0567V14.0697V14.0828V14.0959V14.109V14.1221V14.1353V14.1484V14.1616V14.1748V14.188V14.2012V14.2144V14.2276V14.2409V14.2542V14.2674V14.2807V14.294V14.3074V14.3207V14.3341V14.3474V14.3608V14.3742V14.3876V14.4011V14.4145V14.428V14.4414V14.4549V14.4684V14.4819V14.4955V14.509V14.5226V14.5361V14.5497V14.5633V14.5769V14.5906V14.6042V14.6179V14.6315V14.6452V14.6589V14.6726V14.6864V14.7001V14.7138V14.7276V14.7414V14.7552V14.769V14.7828V14.7967V14.8105V14.8244V14.8383V14.8522V14.8661V14.88V14.8939V14.9H42.1199H42.1823H42.2446H42.3068H42.3689H42.4309H42.4928H42.5546H42.6163H42.6779H42.7394H42.8007H42.862H42.9232H42.9842H43.0451H43.106H43.1667H43.2273H43.2877H43.3481H43.4083H43.4685H43.5285H43.5884H43.6481H43.7078H43.7673H43.8267H43.886H43.9451H44.0041H44.063H44.1218H44.1804H44.2389H44.2973H44.3555H44.4136H44.4716H44.5294H44.5871H44.6447H44.7021H44.7594H44.8165H44.8735H44.9304H44.9871H45.0437H45.1001H45.1564H45.2125H45.2685H45.3243H45.38H45.4355H45.4909H45.5461H45.6012H45.6561H45.7109H45.7655H45.82H45.8742H45.9284H45.9824H46.0362H46.0898H46.1433H46.1966H46.2498H46.3028H46.3556H46.4082H46.4607H46.513H46.5652H46.6171H46.6689H46.7206H46.772H46.8233H46.8744H46.9253H46.976H47.0266H47.077H47.1272H47.1772H47.227H47.2767H47.3261H47.3754C48.5641 14.9 50.0101 15.1945 51.1743 16.1916C52.3716 17.2171 53.1004 18.8385 53.1004 21.1352V21.1594V21.1841V21.2091V21.2346V21.2604V21.2866V21.3132V21.3401V21.3675V21.3952V21.4233V21.4518V21.4807V21.5099V21.5395V21.5695V21.5998V21.6306V21.6616V21.6931V21.7249V21.7571V21.7896V21.8225V21.8558V21.8894V21.9234V21.9577V21.9924V22.0274V22.0628V22.0985V22.1346V22.171V22.2078V22.2449V22.2823V22.3201V22.3583V22.3967V22.4355V22.4747V22.5142V22.554V22.5941V22.6346V22.6754V22.7165V22.758V22.7997V22.8418V22.8843V22.927V22.9701V23.0134V23.0571V23.1011V23.1455V23.1901V23.235V23.2803V23.3258V23.3717V23.4179V23.4644V23.5111V23.5582V23.6056V23.6533V23.7012V23.7495V23.7981V23.8469V23.8961V23.9455V23.9952V24.0453V24.0956V24.1461V24.197V24.2481V24.2996V24.3513V24.4033V24.4555V24.5081V24.5609V24.6139V24.6673V24.7209V24.7748V24.8289V24.8834V24.938V24.993V25.0482V25.1037V25.1594V25.2154V25.2716V25.3281V25.3848V25.4418V25.4991V25.5566V25.6143V25.6723V25.7305V25.789V25.8477V25.9066V25.9658V26.0253V26.0849V26.1448V26.205V26.2653V26.3259V26.3868V26.4478V26.5091V26.5706V26.6323V26.6943V26.7565V26.8188V26.8815V26.9443V27.0073V27.0706V27.1341V27.1977V27.2616V27.3257V27.39V27.4545V27.5193V27.5842V27.6493V27.7146V27.7801V27.8459V27.9118V27.9779V28.0442V28.1107V28.1774V28.2443V28.3113V28.3786V28.446V28.5136V28.5814V28.6494V28.7176V28.7859V28.8544V28.9231V28.992V29.061V29.1302V29.1996V29.2692V29.3389V29.4088V29.4788V29.549V29.6194V29.6899V29.7606V29.8315V29.9025V29.9736V30.0449V30.1164V30.188V30.2598V30.3317V30.4038V30.476V30.5483V30.6208V30.6935V30.7662V30.8391V30.9122V30.9854V31.0587V31.1321V31.2057V31.2794V31.3533V31.4272V31.5013V31.5756V31.6499V31.7244V31.799V31.8737V31.9485V32.0234V32.0985V32.1736V32.2489V32.3243V32.3998V32.4754V32.5511V32.6269V32.7029V32.7789V32.855V32.9312V33.0076V33.084V33.1605V33.2371V33.3138V33.3906V33.4675V33.5445V33.6215V33.6987V33.7759V33.8532V33.9306V34.0081V34.0857V34.1633V34.241V34.3188V34.3967V34.4746V34.5526V34.6307V34.7088V34.787V34.8653V34.9436V35.022V35.1005V35.179V35.2576V35.3362V35.4149V35.4937V35.5725V35.6513V35.7302V35.8092V35.8882V35.9672V36.0463V36.1254V36.2046V36.2838V36.3631V36.4424V36.5217V36.601V36.6804V36.7599V36.8393V36.9188V36.9983V37.0779V37.1574V37.237V37.3167V37.3963V37.4759V37.5556V37.6353V37.715V37.7947V37.8745V37.9542V38.034V38.1137V38.1935V38.2733V38.3531V38.4329V38.5127V38.5925V38.6722V38.752V38.8318V38.9116V38.9914V39.0711V39.1509V39.2306V39.3104V39.3901V39.4698V39.5495V39.6292V39.7088V39.7885V39.8681V39.9477V40.0272V40.1068V40.1863V40.2658V40.3452V40.4246V40.504V40.5834V40.6627V40.742V40.8213V40.9005V40.9796V41.0588V41.1378V41.2169V41.2959V41.3748V41.4537V41.5326V41.6113V41.6901V41.7688V41.8474V41.926V42.0045V42.0829V42.1613V42.2397V42.3179V42.3961V42.4743V42.5523V42.6303V42.7083V42.7861V42.8639V42.9416V43.0192V43.0968V43.1742V43.2516V43.3289V43.4062V43.4833V43.5603V43.6373V43.7142V43.791V43.8677V43.9443V44.0208V44.0972V44.1735V44.2497V44.3258V44.4018V44.4777V44.5536V44.6293V44.7048V44.7803V44.8557V44.931V45.0061V45.0812V45.1561V45.2309V45.3056V45.3802V45.4546V45.5289V45.6032V45.6772V45.7512V45.825V45.8987V45.9723V46.0457V46.119V46.1922V46.2652V46.3381V46.4109V46.4835V46.556V46.6283V46.7005V46.7725V46.8444V46.9162V46.9878V47.0592V47.1305V47.2017V47.2727V47.3435V47.4142V47.4847V47.555V47.6252V47.6953V47.7651V47.8348V47.9044V47.9737V48.0429V48.1119V48.1808V48.2495V48.318V48.3863V48.4544V48.5224V48.5902V48.6578V48.7252V48.7924V48.8594V48.9263V48.993V49.0594V49.1257V49.1918V49.2577V49.3234V49.3889V49.4542V49.5193V49.5842V49.6489V49.7134V49.7777V49.8417V49.9056V49.9693V50.0327V50.0959V50.159V50.2218V50.2844V50.3467V50.4089V50.4708V50.5325V50.594V50.6552V50.7163V50.7771V50.8376V50.898V50.9581V51.018V51.0776V51.137V51.1962V51.2551V51.3138V51.3722V51.4304V51.4884V51.5461V51.6036V51.6608V51.7178V51.7745V51.8309V51.8871V51.9431V51.9988V52.0542V52.1094V52.1643V52.219V52.2733V52.3275V52.3813V52.4349V52.4882V52.5413V52.5941V52.6466V52.6988V52.7507V52.8024V52.8538V52.9049V52.9558V53.0063V53.0566V53.1066V53.1562V53.2057V53.2548V53.3036V53.3521V53.4004V53.4483V53.4959V53.5433V53.5903V53.6371V53.6835V53.7297V53.7755V53.821V53.8662V53.9111V53.9557V54C53.1004 54.4574 52.8174 54.867 52.3896 55.0289C51.9618 55.1907 51.4786 55.0709 51.1758 54.7281C49.9401 53.3286 47.7432 51.2076 45.2174 49.4462C42.6557 47.6598 39.9346 46.3703 37.6115 46.3703H37.5801H37.5487H37.5172H37.4856H37.4539H37.4222H37.3903H37.3584H37.3264H37.2944H37.2622H37.23H37.1977H37.1654H37.1329H37.1004H37.0678H37.0351H37.0024H36.9696H36.9367H36.9037H36.8707H36.8376H36.8044H36.7711H36.7378H36.7044H36.671H36.6374H36.6038H36.5702H36.5364H36.5026H36.4688H36.4348H36.4008H36.3667H36.3326H36.2984H36.2641H36.2298H36.1954H36.1609H36.1264H36.0918H36.0572H36.0224H35.9877H35.9528H35.9179H35.883H35.8479H35.8129H35.7777H35.7425H35.7073H35.6719H35.6366H35.6011H35.5656H35.5301H35.4945H35.4588H35.4231H35.3873H35.3515H35.3156H35.2796H35.2436H35.2076H35.1715H35.1353H35.0991H35.0629H35.0265H34.9902H34.9538H34.9173H34.8808H34.8442H34.8076H34.7709H34.7342H34.6975H34.6606H34.6238H34.5869H34.5499H34.5129H34.4759H34.4388H34.4017H34.3645H34.3273H34.29H34.2527H34.2153H34.1779H34.1405H34.103H34.0655H34.0279H33.9903H33.9527H33.915H33.8772H33.8395H33.8017H33.7638H33.7259H33.688H33.6501H33.6121H33.574H33.536H33.4979H33.4597H33.4215H33.3833H33.3451H33.3068H33.2685H33.2301H33.1918H33.1534H33.1149H33.0764H33.0379H32.9994H32.9608H32.9222H32.8836H32.8449H32.8062H32.7675H32.7288H32.69H32.6512H32.6124H32.5735H32.5347H32.4957H32.4568H32.4179H32.3789H32.3399H32.3008H32.2618H32.2227H32.1836H32.1445H32.1053H32.0662H32.027H31.9878H31.9486H31.9093H31.87H31.8308H31.7914H31.7521H31.7128H31.6734H31.634H31.5946H31.5552H31.5158H31.4764H31.4369H31.3974H31.3579H31.3184H31.2789H31.2394H31.1998H31.1603H31.1207H31.0811H31.0415H31.0019H30.9623H30.9227H30.883H30.8434H30.8037H30.7641H30.7244H30.6847H30.645H30.6053H30.5656H30.5259H30.4862H30.4464H30.4067H30.367H30.3272H30.2875H30.2478H30.208H30.1683H30.1285H30.0887H30.049H30.0092H29.9694H29.9297H29.8899H29.8501H29.8104H29.7706H29.7309H29.6911H29.6513H29.6116H29.5718H29.5321H29.4923H29.4526H29.4128H29.3731H29.3334H29.2936H29.2539H29.2142H29.1745H29.1348H29.0951H29.0554H29.0157H28.9761H28.9364H28.8967H28.8571H28.8175H28.7778H28.7382H28.6986H28.659H28.6195H28.5799H28.5403H28.5008H28.4613H28.4218H28.3823H28.3428H28.3033H28.2639H28.2244H28.185H28.1456H28.1062H28.0668H28.0275H27.9881H27.9488H27.9095H27.8702H27.831H27.7917H27.7525H27.7133H27.6742H27.635H27.5959H27.5567H27.5177H27.4786H27.4396H27.4005H27.3615H27.3226H27.2836H27.2447H27.2058H27.1669H27.1281H27.0893H27.0505H27.0117H26.973H26.9343H26.8956H26.857H26.8184H26.7798H26.7412H26.7027H26.6642H26.6258H26.5873H26.5489H26.5106H26.4722H26.4339H26.3957H26.3574H26.3192H26.2811H26.243H26.2049H26.1668H26.1288H26.0908H26.0529H26.015H25.9771H25.9393H25.9015H25.8638H25.826H25.7884H25.7507H25.7132H25.6756H25.6381H25.6006H25.5632H25.5258H25.4885H25.4512H25.414H25.3768H25.3396H25.3025H25.2654H25.2284H25.1914H25.1545H25.1176H25.0808H25.044H25.0072H24.9706H24.9339H24.8973H24.8608H24.8243H24.7878H24.7514H24.7151H24.6788H24.6426H24.6064H24.5703H24.5342H24.4982H24.4622H24.4263H24.3904H24.3546H24.3188H24.2831H24.2475H24.2119H24.1764H24.1409H24.1055H24.0702H24.0349H23.9996H23.9645H23.9293H23.8943H23.8593H23.8244H23.7895H23.7547H23.7199H23.6852H23.6506H23.6161H23.5816H23.5471H23.5128H23.4784H23.4442H23.41H23.3759H23.3419H23.3079H23.274H23.2402H23.2064H23.1727H23.139H23.1055H23.072H23.0386H23.0052H22.9719H22.9387H22.9055H22.8725H22.8395H22.8065H22.7737H22.7409H22.7082H22.6756H22.643H22.6105H22.5781H22.5458H22.5135H22.4813H22.4492H22.4172H22.3852H22.3534H22.3216H22.2899H22.2582H22.2267H22.1952H22.1638H22.1325H22.1012H22.0701H22.039H22.008H21.9771H21.9463H21.9155H21.8849H21.8543H21.8238H21.7934H21.7631H21.7328H21.7027H21.6726H21.6426H21.6127H21.5829H21.5532H21.5236H21.4941H21.4646H21.4353H21.406H21.3768H21.3477H21.3187H21.2898H21.261H21.2323H21.2037H21.1751H21.1467H21.1183H21.0901H21.0619H21.0338H21.0059H20.978H20.9502H20.9225H20.8949H20.8675H20.8401H20.8128H20.7856H20.7585H20.7315H20.7046H20.6778H20.6511H20.6245H20.598H20.5716H20.5453H20.5191H20.493H20.467H20.4412H20.4154H20.3897H20.3641H20.3387H20.3133H20.2881H20.2629H20.2379H20.2129H20.1881H20.1634H20.1388H20.1143H20.0899H20.0656H20.0414H20.0173H19.9934H19.9695H19.9458H19.9222H19.8987H19.8753H19.852H19.8288H19.8057H19.7828H19.76H19.7372H19.7146H19.6922H19.6698H19.6475H19.6254C18.7672 46.3703 17.3531 46.2337 16.1249 45.4155C14.8179 44.5448 13.9004 43.0235 13.9004 40.6487V36.1ZM16.1004 20.1081C16.1004 19.5996 16.2621 18.8123 16.7151 18.1836C17.1277 17.611 17.8252 17.1 19.1115 17.1H19.1309H19.1507H19.1707H19.191H19.2116H19.2326H19.2538H19.2753H19.2971H19.3193H19.3417H19.3644H19.3874H19.4107H19.4343H19.4581H19.4823H19.5067H19.5315H19.5565H19.5818H19.6074H19.6333H19.6594H19.6858H19.7126H19.7396H19.7668H19.7944H19.8222H19.8503H19.8787H19.9073H19.9363H19.9655H19.9949H20.0247H20.0547H20.0849H20.1155H20.1463H20.1774H20.2087H20.2403H20.2722H20.3043H20.3367H20.3693H20.4022H20.4353H20.4688H20.5024H20.5363H20.5705H20.6049H20.6396H20.6745H20.7097H20.7451H20.7808H20.8167H20.8529H20.8893H20.926H20.9629H21H21.0374H21.075H21.1129H21.151H21.1893H21.2279H21.2667H21.3057H21.345H21.3845H21.4242H21.4642H21.5044H21.5448H21.5855H21.6263H21.6674H21.7088H21.7503H21.7921H21.8341H21.8763H21.9187H21.9614H22.0043H22.0474H22.0907H22.1342H22.1779H22.2219H22.266H22.3104H22.355H22.3998H22.4448H22.49H22.5354H22.581H22.6268H22.6728H22.7191H22.7655H22.8121H22.8589H22.906H22.9532H23.0006H23.0482H23.0961H23.1441H23.1923H23.2406H23.2892H23.338H23.387H23.4361H23.4854H23.535H23.5847H23.6346H23.6846H23.7349H23.7853H23.836H23.8867H23.9377H23.9889H24.0402H24.0917H24.1434H24.1953H24.2473H24.2995H24.3518H24.4044H24.4571H24.51H24.563H24.6162H24.6696H24.7231H24.7768H24.8307H24.8847H24.9389H24.9932H25.0478H25.1024H25.1572H25.2122H25.2673H25.3226H25.378H25.4336H25.4893H25.5452H25.6013H25.6574H25.7138H25.7702H25.8269H25.8836H25.9405H25.9976H26.0548H26.1121H26.1695H26.2272H26.2849H26.3428H26.4008H26.4589H26.5172H26.5756H26.6342H26.6928H26.7516H26.8106H26.8696H26.9288H26.9881H27.0476H27.1071H27.1668H27.2266H27.2866H27.3466H27.4068H27.467H27.5274H27.588H27.6486H27.7093H27.7702H27.8312H27.8922H27.9534H28.0147H28.0761H28.1377H28.1993H28.261H28.3228H28.3848H28.4468H28.509H28.5712H28.6336H28.696H28.7585H28.8212H28.8839H28.9467H29.0096H29.0727H29.1358H29.199H29.2622H29.3256H29.3891H29.4526H29.5163H29.58H29.6438H29.7077H29.7717H29.8357H29.8998H29.9641H30.0283H30.0927H30.1572H30.2217H30.2863H30.351H30.4157H30.4805H30.5454H30.6104H30.6754H30.7405H30.8056H30.8709H30.9361H31.0015H31.0669H31.1324H31.1979H31.2635H31.3292H31.3949H31.4607H31.5265H31.5924H31.6584H31.7244H31.7904H31.8565H31.9227H31.9889H32.0551H32.1214H32.1878H32.2542H32.3206H32.3871H32.4536H32.5202H32.5868H32.6534H32.7201H32.7869H32.8536H32.9204H32.9873H33.0541H33.121H33.188H33.2549H33.3219H33.3889H33.456H33.5231H33.5902H33.6573H33.7245H33.7917H33.8589H33.9261H33.9934H34.0606H34.1279H34.1952H34.2626H34.3299H34.3972H34.4646H34.532H34.5994H34.6668H34.7342H34.8016H34.8691H34.9365H35.004H35.0714H35.1389H35.2063H35.2738H35.3413H35.4087H35.4762H35.5437H35.6111H35.6786H35.7461H35.8135H35.881H35.9484H36.0158H36.0833H36.1507H36.2181H36.2855H36.3529H36.4202H36.4876H36.5549H36.6222H36.6895H36.7568H36.8241H36.8913H36.9585H37.0257H37.0929H37.1601H37.2272H37.2943H37.3614H37.4284H37.4954H37.5624H37.6294H37.6963H37.7632H37.83H37.8969H37.9637H38.0304H38.0971H38.1638H38.2304H38.297H38.3636H38.4301H38.4966H38.563H38.6293H38.6957H38.762H38.8282H38.8944H38.9605H39.0266H39.0926H39.1586H39.2246H39.2904H39.3562H39.422H39.4877H39.5533H39.6189H39.6844H39.7499H39.8153H39.8806H39.9459H40.0111H40.0763H40.1413H40.2063H40.2713H40.3361H40.4009H40.4656H40.5303H40.5949H40.6594H40.7238H40.7881H40.8524H40.9166H40.9807H41.0447H41.1087H41.1725H41.2363H41.3H41.3636H41.4271H41.4906H41.5539H41.6172H41.6803H41.7434H41.8064H41.8693H41.9321H41.9948H42.0574H42.1199H42.1823H42.2446H42.3068H42.3689H42.4309H42.4928H42.5546H42.6163H42.6779H42.7394H42.8007H42.862H42.9232H42.9842H43.0451H43.106H43.1667H43.2273H43.2877H43.3481H43.4083H43.4685H43.5285H43.5884H43.6481H43.7078H43.7673H43.8267H43.886H43.9451H44.0041H44.063H44.1218H44.1804H44.2389H44.2973H44.3555H44.4136H44.4716H44.5294H44.5871H44.6447H44.7021H44.7594H44.8165H44.8735H44.9304H44.9871H45.0437H45.1001H45.1564H45.2125H45.2685H45.3243H45.38H45.4355H45.4909H45.5461H45.6012H45.6561H45.7109H45.7655H45.82H45.8742H45.9284H45.9824H46.0362H46.0898H46.1433H46.1966H46.2498H46.3028H46.3556H46.4082H46.4607H46.513H46.5652H46.6171H46.6689H46.7206H46.772H46.8233H46.8744H46.9253H46.976H47.0266H47.077H47.1272H47.1772H47.227H47.2767H47.3261H47.3754C48.2423 17.1 49.1087 17.3191 49.7432 17.8625C50.3445 18.3775 50.9004 19.3237 50.9004 21.1352V21.1594V21.1841V21.2091V21.2346V21.2604V21.2866V21.3132V21.3401V21.3675V21.3952V21.4233V21.4518V21.4807V21.5099V21.5395V21.5695V21.5998V21.6306V21.6616V21.6931V21.7249V21.7571V21.7896V21.8225V21.8558V21.8894V21.9234V21.9577V21.9924V22.0274V22.0628V22.0985V22.1346V22.171V22.2078V22.2449V22.2823V22.3201V22.3583V22.3967V22.4355V22.4747V22.5142V22.554V22.5941V22.6346V22.6754V22.7165V22.758V22.7997V22.8418V22.8843V22.927V22.9701V23.0134V23.0571V23.1011V23.1455V23.1901V23.235V23.2803V23.3258V23.3717V23.4179V23.4644V23.5111V23.5582V23.6056V23.6533V23.7012V23.7495V23.7981V23.8469V23.8961V23.9455V23.9952V24.0453V24.0956V24.1461V24.197V24.2481V24.2996V24.3513V24.4033V24.4555V24.5081V24.5609V24.6139V24.6673V24.7209V24.7748V24.8289V24.8834V24.938V24.993V25.0482V25.1037V25.1594V25.2154V25.2716V25.3281V25.3848V25.4418V25.4991V25.5566V25.6143V25.6723V25.7305V25.789V25.8477V25.9066V25.9658V26.0253V26.0849V26.1448V26.205V26.2653V26.3259V26.3868V26.4478V26.5091V26.5706V26.6323V26.6943V26.7565V26.8188V26.8815V26.9443V27.0073V27.0706V27.1341V27.1977V27.2616V27.3257V27.39V27.4545V27.5193V27.5842V27.6493V27.7146V27.7801V27.8459V27.9118V27.9779V28.0442V28.1107V28.1774V28.2443V28.3113V28.3786V28.446V28.5136V28.5814V28.6494V28.7176V28.7859V28.8544V28.9231V28.992V29.061V29.1302V29.1996V29.2692V29.3389V29.4088V29.4788V29.549V29.6194V29.6899V29.7606V29.8315V29.9025V29.9736V30.0449V30.1164V30.188V30.2598V30.3317V30.4038V30.476V30.5483V30.6208V30.6935V30.7662V30.8391V30.9122V30.9854V31.0587V31.1321V31.2057V31.2794V31.3533V31.4272V31.5013V31.5756V31.6499V31.7244V31.799V31.8737V31.9485V32.0234V32.0985V32.1736V32.2489V32.3243V32.3998V32.4754V32.5511V32.6269V32.7029V32.7789V32.855V32.9312V33.0076V33.084V33.1605V33.2371V33.3138V33.3906V33.4675V33.5445V33.6215V33.6987V33.7759V33.8532V33.9306V34.0081V34.0857V34.1633V34.241V34.3188V34.3967V34.4746V34.5526V34.6307V34.7088V34.787V34.8653V34.9436V35.022V35.1005V35.179V35.2576V35.3362V35.4149V35.4937V35.5725V35.6513V35.7302V35.8092V35.8882V35.9672V36.0463V36.1254V36.2046V36.2838V36.3631V36.4424V36.5217V36.601V36.6804V36.7599V36.8393V36.9188V36.9983V37.0779V37.1574V37.237V37.3167V37.3963V37.4759V37.5556V37.6353V37.715V37.7947V37.8745V37.9542V38.034V38.1137V38.1935V38.2733V38.3531V38.4329V38.5127V38.5925V38.6722V38.752V38.8318V38.9116V38.9914V39.0711V39.1509V39.2306V39.3104V39.3901V39.4698V39.5495V39.6292V39.7088V39.7885V39.8681V39.9477V40.0272V40.1068V40.1863V40.2658V40.3452V40.4246V40.504V40.5834V40.6627V40.742V40.8213V40.9005V40.9796V41.0588V41.1378V41.2169V41.2959V41.3748V41.4537V41.5326V41.6113V41.6901V41.7688V41.8474V41.926V42.0045V42.0829V42.1613V42.2397V42.3179V42.3961V42.4743V42.5523V42.6303V42.7083V42.7861V42.8639V42.9416V43.0192V43.0968V43.1742V43.2516V43.3289V43.4062V43.4833V43.5603V43.6373V43.7142V43.791V43.8677V43.9443V44.0208V44.0972V44.1735V44.2497V44.3258V44.4018V44.4777V44.5536V44.6293V44.7048V44.7803V44.8557V44.931V45.0061V45.0812V45.1561V45.2309V45.3056V45.3802V45.4546V45.5289V45.6032V45.6772V45.7512V45.825V45.8987V45.9723V46.0457V46.119V46.1922V46.2652V46.3381V46.4109V46.4835V46.556V46.6283V46.7005V46.7725V46.8444V46.9162V46.9878V47.0592V47.1305V47.2017V47.2727V47.3435V47.4142V47.4847V47.555V47.6252V47.6953V47.7651V47.8348V47.9044V47.9737V48.0429V48.1119V48.1808V48.2495V48.318V48.3863V48.4544V48.5224V48.5902V48.6578V48.7252V48.7924V48.8594V48.9263V48.993V49.0594V49.1257V49.1918V49.2577V49.3234V49.3889V49.4542V49.5193V49.5842V49.6489V49.7134V49.7777V49.8417V49.9056V49.9693V50.0327V50.0959V50.159V50.2218V50.2844V50.3467V50.4089V50.4708V50.5325V50.594V50.6552V50.7163V50.7771V50.8376V50.898V50.9581V51.018V51.0776V51.137V51.1962V51.2551V51.2842C49.664 50.103 48.1396 48.802 46.4758 47.6417C43.8215 45.7907 40.6329 44.1703 37.6115 44.1703H37.5801H37.5487H37.5172H37.4856H37.4539H37.4222H37.3903H37.3584H37.3264H37.2944H37.2622H37.23H37.1977H37.1654H37.1329H37.1004H37.0678H37.0351H37.0024H36.9696H36.9367H36.9037H36.8707H36.8376H36.8044H36.7711H36.7378H36.7044H36.671H36.6374H36.6038H36.5702H36.5364H36.5026H36.4688H36.4348H36.4008H36.3667H36.3326H36.2984H36.2641H36.2298H36.1954H36.1609H36.1264H36.0918H36.0572H36.0224H35.9877H35.9528H35.9179H35.883H35.8479H35.8129H35.7777H35.7425H35.7073H35.6719H35.6366H35.6011H35.5656H35.5301H35.4945H35.4588H35.4231H35.3873H35.3515H35.3156H35.2796H35.2436H35.2076H35.1715H35.1353H35.0991H35.0629H35.0265H34.9902H34.9538H34.9173H34.8808H34.8442H34.8076H34.7709H34.7342H34.6975H34.6606H34.6238H34.5869H34.5499H34.5129H34.4759H34.4388H34.4017H34.3645H34.3273H34.29H34.2527H34.2153H34.1779H34.1405H34.103H34.0655H34.0279H33.9903H33.9527H33.915H33.8772H33.8395H33.8017H33.7638H33.7259H33.688H33.6501H33.6121H33.574H33.536H33.4979H33.4597H33.4215H33.3833H33.3451H33.3068H33.2685H33.2301H33.1918H33.1534H33.1149H33.0764H33.0379H32.9994H32.9608H32.9222H32.8836H32.8449H32.8062H32.7675H32.7288H32.69H32.6512H32.6124H32.5735H32.5347H32.4957H32.4568H32.4179H32.3789H32.3399H32.3008H32.2618H32.2227H32.1836H32.1445H32.1053H32.0662H32.027H31.9878H31.9486H31.9093H31.87H31.8308H31.7914H31.7521H31.7128H31.6734H31.634H31.5946H31.5552H31.5158H31.4764H31.4369H31.3974H31.3579H31.3184H31.2789H31.2394H31.1998H31.1603H31.1207H31.0811H31.0415H31.0019H30.9623H30.9227H30.883H30.8434H30.8037H30.7641H30.7244H30.6847H30.645H30.6053H30.5656H30.5259H30.4862H30.4464H30.4067H30.367H30.3272H30.2875H30.2478H30.208H30.1683H30.1285H30.0887H30.049H30.0092H29.9694H29.9297H29.8899H29.8501H29.8104H29.7706H29.7309H29.6911H29.6513H29.6116H29.5718H29.5321H29.4923H29.4526H29.4128H29.3731H29.3334H29.2936H29.2539H29.2142H29.1745H29.1348H29.0951H29.0554H29.0157H28.9761H28.9364H28.8967H28.8571H28.8175H28.7778H28.7382H28.6986H28.659H28.6195H28.5799H28.5403H28.5008H28.4613H28.4218H28.3823H28.3428H28.3033H28.2639H28.2244H28.185H28.1456H28.1062H28.0668H28.0275H27.9881H27.9488H27.9095H27.8702H27.831H27.7917H27.7525H27.7133H27.6742H27.635H27.5959H27.5567H27.5177H27.4786H27.4396H27.4005H27.3615H27.3226H27.2836H27.2447H27.2058H27.1669H27.1281H27.0893H27.0505H27.0117H26.973H26.9343H26.8956H26.857H26.8184H26.7798H26.7412H26.7027H26.6642H26.6258H26.5873H26.5489H26.5106H26.4722H26.4339H26.3957H26.3574H26.3192H26.2811H26.243H26.2049H26.1668H26.1288H26.0908H26.0529H26.015H25.9771H25.9393H25.9015H25.8638H25.826H25.7884H25.7507H25.7132H25.6756H25.6381H25.6006H25.5632H25.5258H25.4885H25.4512H25.414H25.3768H25.3396H25.3025H25.2654H25.2284H25.1914H25.1545H25.1176H25.0808H25.044H25.0072H24.9706H24.9339H24.8973H24.8608H24.8243H24.7878H24.7514H24.7151H24.6788H24.6426H24.6064H24.5703H24.5342H24.4982H24.4622H24.4263H24.3904H24.3546H24.3188H24.2831H24.2475H24.2119H24.1764H24.1409H24.1055H24.0702H24.0349H23.9996H23.9645H23.9293H23.8943H23.8593H23.8244H23.7895H23.7547H23.7199H23.6852H23.6506H23.6161H23.5816H23.5471H23.5128H23.4784H23.4442H23.41H23.3759H23.3419H23.3079H23.274H23.2402H23.2064H23.1727H23.139H23.1055H23.072H23.0386H23.0052H22.9719H22.9387H22.9055H22.8725H22.8395H22.8065H22.7737H22.7409H22.7082H22.6756H22.643H22.6105H22.5781H22.5458H22.5135H22.4813H22.4492H22.4172H22.3852H22.3534H22.3216H22.2899H22.2582H22.2267H22.1952H22.1638H22.1325H22.1012H22.0701H22.039H22.008H21.9771H21.9463H21.9155H21.8849H21.8543H21.8238H21.7934H21.7631H21.7328H21.7027H21.6726H21.6426H21.6127H21.5829H21.5532H21.5236H21.4941H21.4646H21.4353H21.406H21.3768H21.3477H21.3187H21.2898H21.261H21.2323H21.2037H21.1751H21.1467H21.1183H21.0901H21.0619H21.0338H21.0059H20.978H20.9502H20.9225H20.8949H20.8675H20.8401H20.8128H20.7856H20.7585H20.7315H20.7046H20.6778H20.6511H20.6245H20.598H20.5716H20.5453H20.5191H20.493H20.467H20.4412H20.4154H20.3897H20.3641H20.3387H20.3133H20.2881H20.2629H20.2379H20.2129H20.1881H20.1634H20.1388H20.1143H20.0899H20.0656H20.0414H20.0173H19.9934H19.9695H19.9458H19.9222H19.8987H19.8753H19.852H19.8288H19.8057H19.7828H19.76H19.7372H19.7146H19.6922H19.6698H19.6475H19.6254C18.9419 44.1703 18.0435 44.0502 17.3446 43.5846C16.7245 43.1715 16.1004 42.3819 16.1004 40.6487V20.1081Z" fill="url(#paint0_linear_5718_1633)"/>
<circle cx="33.5" cy="37.2377" r="1.75781" fill="#FC8D1C"/>
<rect x="32.1836" y="22.2377" width="2.63203" height="10" rx="1.31602" fill="#FC8D1C"/>
<defs>
<linearGradient id="paint0_linear_5718_1633" x1="13.2541" y1="55.1001" x2="57.435" y2="41.543" gradientUnits="userSpaceOnUse">
<stop stop-color="#FE5000"/>
<stop offset="1" stop-color="#FCA92A"/>
</linearGradient>
</defs>
</svg>
