<svg width="56" height="56" viewBox="0 0 56 56" fill="none" xmlns="http://www.w3.org/2000/svg">
<path fill-rule="evenodd" clip-rule="evenodd" d="M34.9505 8.91382C34.9505 6.08801 32.6601 3.79767 29.8343 3.79767H12.1165C9.29072 3.79767 7 6.08801 7 8.91382V47.291C7 50.1168 9.29072 52.4072 12.1165 52.4072H29.8343C32.6601 52.4072 34.9505 50.1168 34.9505 47.291V8.91382ZM9.43047 12.6689H32.52V43.4489H9.43047V12.6689ZM12.0918 6.22814H29.859C31.3397 6.22814 32.52 7.46237 32.52 8.94344V10.2384H9.43047V8.94344C9.43047 7.46237 10.6112 6.22814 12.0918 6.22814ZM29.859 49.9767H12.0918C10.632 49.9873 9.44073 48.8116 9.43047 47.3518V45.8794H32.52V47.3207C32.5272 48.7805 31.3499 49.9695 29.8901 49.9767H29.859ZM55.6405 28.2168C55.6405 22.8131 53.8311 17.8559 50.8999 13.9852C50.5945 13.571 49.9369 13.4763 49.5268 13.7872C49.1167 14.098 49.0306 14.757 49.3469 15.1628C52.0283 18.7038 53.6916 23.2493 53.6916 28.2169C53.6916 33.1845 52.0283 37.7298 49.3471 41.271C49.0308 41.6768 49.1172 42.3357 49.5271 42.6466C49.9372 42.9575 50.5947 42.8626 50.9002 42.4486C53.831 38.5779 55.6405 33.6206 55.6405 28.2168ZM49.4688 28.2168C49.4688 24.3312 48.2923 20.6947 46.0072 17.8629C45.7068 17.4165 45.0064 17.3102 44.5872 17.6478C44.1681 17.9855 44.1225 18.6922 44.4946 19.081C46.4733 21.5335 47.5194 24.7243 47.5194 28.2168C47.5194 31.7094 46.4733 34.9002 44.4946 37.3527C44.1223 37.7413 44.1681 38.4483 44.5872 38.7858C45.0064 39.1235 45.7068 39.0174 46.0072 38.5708C48.2923 35.7388 49.4688 32.1026 49.4688 28.2168ZM43.6218 28.2168C43.6218 25.8153 42.8695 23.5275 41.4697 21.7608C41.1509 21.3596 40.4954 21.2843 40.0941 21.6034C39.6928 21.9224 39.6178 22.5777 39.9368 22.979C41.0403 24.3716 41.6727 26.228 41.6727 28.2169C41.6727 30.2059 41.0403 32.0623 39.9368 33.4549C39.6178 33.8561 39.6928 34.5114 40.0941 34.8305C40.4954 35.1495 41.1509 35.0743 41.4697 34.673C42.8695 32.9063 43.6218 30.6184 43.6218 28.2168ZM23.3459 27.9946C23.3459 29.2798 22.304 30.3217 21.0188 30.3217C19.7335 30.3217 18.6916 29.2798 18.6916 27.9946C18.6916 26.7094 19.7335 25.6675 21.0188 25.6675C22.304 25.6675 23.3459 26.7094 23.3459 27.9946ZM25.45 27.9946C25.45 30.4419 23.466 32.4258 21.0188 32.4258C18.5715 32.4258 16.5876 30.4419 16.5876 27.9946C16.5876 25.5473 18.5715 23.5634 21.0188 23.5634C23.466 23.5634 25.45 25.5473 25.45 27.9946Z" fill="url(#paint0_linear_8454_10162)"/>
<defs>
<linearGradient id="paint0_linear_8454_10162" x1="17.0321" y1="52.4072" x2="59.6879" y2="39.0488" gradientUnits="userSpaceOnUse">
<stop stop-color="#FE5000"/>
<stop offset="1" stop-color="#FCA92A"/>
</linearGradient>
</defs>
</svg>
