<svg width="56" height="56" viewBox="0 0 56 56" fill="none" xmlns="http://www.w3.org/2000/svg">
<path fill-rule="evenodd" clip-rule="evenodd" d="M42.2999 13.4722C42.8686 15.2669 43.0908 17.1422 42.9667 19H46.9073C49.7083 19 52 21.3665 52 24.259V32.3839V46.8725C52 49.6335 49.8356 52 47.0346 52H8.96641C6.29272 52 4.00099 49.7649 4.00099 46.8725V32.588C4.00033 32.5727 4 32.5573 4 32.5418V26.3625C4 26.347 4.00033 26.3314 4.00099 26.3156V24.1275C4.00099 21.3665 6.1654 19 8.96641 19H13.0334C12.9093 17.1422 13.1315 15.2669 13.7002 13.4722C14.9948 9.39348 17.9662 6.06127 21.8676 4.31197C25.769 2.56268 30.2308 2.56268 34.1325 4.31197C38.0339 6.06127 41.0053 9.39358 42.2999 13.4722ZM15.1858 19H21.4932C21.4825 18.6629 21.4767 18.3264 21.4767 17.9919C21.4767 16.9906 21.5202 15.9716 21.6072 14.9703H15.5185C15.1868 16.2906 15.0759 17.6521 15.1858 19ZM23.6664 19H32.3339C32.3438 18.6694 32.3492 18.3331 32.3492 17.9914C32.3492 16.9291 32.3057 15.9191 32.2187 14.9698L23.7815 14.9612C23.703 15.9105 23.651 16.9119 23.651 17.9828C23.651 18.3282 23.6564 18.6673 23.6664 19ZM34.483 19H40.7855C40.8138 18.6619 40.8287 18.3226 40.83 17.9828C40.8261 16.9644 40.7003 15.9502 40.456 14.9612H34.3673C34.4457 15.9626 34.4977 16.9729 34.4977 17.9828C34.4977 18.322 34.4928 18.6612 34.483 19ZM5.91077 27.4143V31.49H49.9629V27.4143H5.91077ZM5.91077 33.4622V46.8725C5.91077 48.5817 7.31127 50.0279 8.96641 50.0279H46.9073C48.5624 50.0279 49.9629 48.5817 49.9629 46.8725L50.0384 33.4622H5.91077ZM50.085 25.1793H5.91077V24.259C5.91077 22.5498 7.31127 21.1036 8.96641 21.1036H47.0346C48.6897 21.1036 50.0902 22.5498 50.0902 24.259L50.085 25.1793ZM28 5.14761C29.3743 5.14761 31.1664 7.96014 31.9492 12.7929L24.051 12.7932C24.8338 7.96053 26.6258 5.1476 28.0002 5.1476L28 5.14761ZM39.7604 12.828H34.0891C33.7955 10.368 33.0523 7.98313 31.8971 5.79228C35.3737 6.90059 38.2184 9.43199 39.7254 12.7584L39.7604 12.828ZM24.1036 5.79228C22.9566 7.96184 22.2137 10.3223 21.9116 12.7584H16.2752C17.7823 9.43199 20.627 6.90059 24.1036 5.79228ZM10.8762 39.6414H22.9714C23.4807 39.6414 23.8626 40.1673 23.8626 40.6932C23.8626 41.2191 23.3534 41.745 22.8441 41.745H10.8762C10.3669 41.745 9.85763 41.2191 9.85763 40.6932C9.85763 40.1673 10.3669 39.6414 10.8762 39.6414ZM10.8762 43.8486H22.9714C23.4807 43.8486 23.99 44.243 23.8626 44.9004C23.8626 45.4263 23.3534 45.9522 22.8441 45.9522H10.8762C10.3669 45.9522 9.85763 45.4263 9.85763 44.9004C9.85763 44.3745 10.3669 43.8486 10.8762 43.8486ZM40.9233 37.6693H42.9604C44.6155 37.6693 45.8887 38.9841 46.016 40.8247V42.9283C46.016 44.6375 44.6155 46.0837 42.9604 46.0837H40.9233C39.2682 46.0837 37.8676 44.6375 37.8676 42.9283V40.8247C37.8676 39.1155 39.2682 37.6693 40.9233 37.6693ZM42.9604 43.8486C43.4696 43.8486 43.9789 43.3227 43.9789 42.7968V40.6932C43.9789 40.1673 43.4696 39.6414 42.9604 39.6414H40.9233C40.414 39.6414 39.9047 40.1673 39.9047 40.6932V42.7968C39.9047 43.3227 40.414 43.8486 40.9233 43.8486H42.9604Z" fill="url(#paint0_linear_8454_10139)"/>
<defs>
<linearGradient id="paint0_linear_8454_10139" x1="13.9" y1="52" x2="56.1512" y2="39.0466" gradientUnits="userSpaceOnUse">
<stop stop-color="#FE5000"/>
<stop offset="1" stop-color="#FCA92A"/>
</linearGradient>
</defs>
</svg>
