<svg width="56" height="56" viewBox="0 0 56 56" fill="none" xmlns="http://www.w3.org/2000/svg">
<path fill-rule="evenodd" clip-rule="evenodd" d="M38.2328 3.13134C38.2148 2.57935 37.7527 2.14648 37.2007 2.16451L29.4442 2.41787C28.8922 2.4359 28.4593 2.89799 28.4774 3.44998C28.4954 4.00197 28.9575 4.43483 29.5095 4.4168L34.8531 4.24226L21.867 18.1053L16.2027 12.8172C15.8034 12.4444 15.1789 12.461 14.8 12.8545L1.27969 26.8945C0.896597 27.2923 0.908534 27.9254 1.30635 28.3085C1.70417 28.6916 2.33722 28.6796 2.72031 28.2818L15.5576 14.9511L21.2319 20.2485C21.6352 20.6249 22.2671 20.6038 22.6442 20.2012L36.3127 5.60955L36.4873 10.9532C36.5053 11.5052 36.9674 11.938 37.5194 11.92C38.0714 11.902 38.5042 11.4399 38.4862 10.8879L38.2328 3.13134ZM29.6667 21.2353C29.6667 21.0869 29.7556 20.7875 30.2822 20.3712C30.798 19.9635 31.6061 19.5526 32.6938 19.1889C34.8588 18.465 37.9134 18 41.3333 18C44.7533 18 47.8079 18.465 49.9729 19.1889C51.0606 19.5526 51.8687 19.9635 52.3844 20.3712C52.9111 20.7875 53 21.0869 53 21.2353C53 21.3837 52.9111 21.683 52.3844 22.0994C51.8687 22.5071 51.0606 22.918 49.9729 23.2817C47.8079 24.0056 44.7533 24.4706 41.3333 24.4706C37.9134 24.4706 34.8588 24.0056 32.6938 23.2817C31.6061 22.918 30.798 22.5071 30.2822 22.0994C29.7556 21.683 29.6667 21.3837 29.6667 21.2353ZM53.6247 18.8022C54.38 19.3993 55 20.2141 55 21.2353V27.5883L55 27.5971L55 33.9411L55 33.9535L55 40.294C55 41.3152 54.38 42.13 53.6247 42.7271C52.8585 43.3328 51.8116 43.8345 50.6071 44.2372C48.4151 44.9701 45.5178 45.4356 42.3333 45.5166V48.7647C42.3333 49.7859 41.7133 50.6007 40.9581 51.1978C40.1918 51.8035 39.145 52.3051 37.9404 52.7079C35.521 53.5169 32.2423 54 28.6667 54C25.091 54 21.8123 53.5169 19.3929 52.7079C18.1883 52.3051 17.1415 51.8035 16.3753 51.1978C15.62 50.6007 15 49.7859 15 48.7647V41.3528C15 40.3317 15.62 39.5169 16.3753 38.9198C17.1415 38.3141 18.1884 37.8124 19.3929 37.4097C21.5849 36.6768 24.4822 36.2114 27.6667 36.1303V33.9411V27.5883V21.2353C27.6667 20.2141 28.2867 19.3993 29.0419 18.8022C29.8082 18.1965 30.855 17.6948 32.0596 17.2921C34.479 16.4831 37.7577 16 41.3333 16C44.909 16 48.1877 16.4831 50.6071 17.2921C51.8117 17.6948 52.8585 18.1965 53.6247 18.8022ZM50.6071 25.1785C51.5108 24.8763 52.3257 24.5185 53 24.1028L53 27.5883L53 27.5917C52.9986 27.7412 52.9071 28.0392 52.3844 28.4524C51.8687 28.8601 51.0606 29.271 49.9729 29.6347C47.8079 30.3586 44.7533 30.8236 41.3333 30.8236C37.9134 30.8236 34.8588 30.3586 32.6938 29.6347C31.6061 29.271 30.798 28.8601 30.2822 28.4524C29.7556 28.036 29.6667 27.7367 29.6667 27.5883V24.1028C30.3409 24.5185 31.1559 24.8763 32.0596 25.1785C34.479 25.9875 37.7577 26.4706 41.3333 26.4706C44.909 26.4706 48.1877 25.9875 50.6071 25.1785ZM50.6071 31.5315C51.5108 31.2293 52.3257 30.8715 53 30.4558L53 33.9411L53 33.9459C52.9981 34.0958 52.9055 34.3933 52.3844 34.8052C51.8687 35.2129 51.0606 35.6238 49.9729 35.9875C47.8079 36.7114 44.7533 37.1764 41.3333 37.1764C37.9134 37.1764 34.8588 36.7114 32.6938 35.9875C31.6061 35.6238 30.798 35.2129 30.2822 34.8052C29.7556 34.3888 29.6667 34.0895 29.6667 33.9411V30.4558C30.3409 30.8715 31.1559 31.2293 32.0596 31.5315C34.479 32.3404 37.7577 32.8236 41.3333 32.8236C44.909 32.8236 48.1877 32.3404 50.6071 31.5315ZM50.6071 37.8843C51.5108 37.5821 52.3257 37.2243 53 36.8086L53 40.294C53 40.4424 52.911 40.7418 52.3844 41.1581C51.8687 41.5658 51.0606 41.9768 49.9729 42.3404C48.0213 42.993 45.3467 43.4352 42.3333 43.516V41.3528C42.3333 40.471 41.871 39.743 41.2584 39.1763L41.3333 39.1764C44.909 39.1764 48.1877 38.6933 50.6071 37.8843ZM39.7178 40.4888C40.2444 40.9051 40.3333 41.2045 40.3333 41.3528C40.3333 41.5012 40.2444 41.8006 39.7178 42.2169C39.202 42.6246 38.3939 43.0356 37.3062 43.3993C35.1412 44.1232 32.0866 44.5881 28.6667 44.5881C25.2467 44.5881 22.1921 44.1232 20.0271 43.3993C18.9394 43.0356 18.1313 42.6246 17.6156 42.2169C17.0889 41.8006 17 41.5012 17 41.3528C17 41.2045 17.0889 40.9051 17.6156 40.4888C18.1313 40.0811 18.9394 39.6702 20.0271 39.3065C22.1921 38.5826 25.2467 38.1177 28.6667 38.1177C32.0867 38.1177 35.1413 38.5826 37.3063 39.3065C38.3939 39.6702 39.202 40.0811 39.7178 40.4888ZM19.3929 45.296C18.4892 44.9939 17.6743 44.636 17 44.2204V48.7647C17 48.9131 17.0889 49.2125 17.6156 49.6288C18.1313 50.0365 18.9394 50.4474 20.0271 50.8111C22.1921 51.535 25.2467 52 28.6667 52C32.0866 52 35.1412 51.535 37.3062 50.8111C38.3939 50.4474 39.202 50.0365 39.7178 49.6288C40.2444 49.2125 40.3333 48.9131 40.3333 48.7647V44.2204C39.6591 44.636 38.8441 44.9939 37.9404 45.296C35.521 46.105 32.2423 46.5881 28.6667 46.5881C25.091 46.5881 21.8123 46.105 19.3929 45.296Z" fill="url(#paint0_linear_8454_10149)"/>
<defs>
<linearGradient id="paint0_linear_8454_10149" x1="12.1375" y1="54" x2="59.1413" y2="38.6752" gradientUnits="userSpaceOnUse">
<stop stop-color="#FE5000"/>
<stop offset="1" stop-color="#FCA92A"/>
</linearGradient>
</defs>
</svg>
