<svg width="56" height="56" viewBox="0 0 56 56" fill="none" xmlns="http://www.w3.org/2000/svg">
<path d="M27.2656 28.9333H29.2656C29.5308 28.9333 29.7852 28.835 29.9727 28.66C30.1603 28.4849 30.2656 28.2475 30.2656 28C30.2656 27.7525 30.1603 27.5151 29.9727 27.34C29.7852 27.165 29.5308 27.0667 29.2656 27.0667H27.2656C27.0004 27.0667 26.7461 27.165 26.5585 27.34C26.371 27.5151 26.2656 27.7525 26.2656 28C26.2656 28.2475 26.371 28.4849 26.5585 28.66C26.7461 28.835 27.0004 28.9333 27.2656 28.9333Z" fill="url(#paint0_linear_8454_10156)"/>
<path d="M7.0047 56H49.5242C49.9969 56.0004 50.463 55.8966 50.8845 55.6971C51.3061 55.4975 51.6712 55.2079 51.9502 54.8518C52.2291 54.4957 52.4141 54.0831 52.4899 53.6477C52.5657 53.2122 52.5303 52.7662 52.3865 52.346L51.0506 48.4573C50.4356 46.9356 49.4817 45.553 48.2518 44.4008C47.6466 43.8471 46.9805 43.3545 46.2645 42.9313V42C46.2636 41.2576 45.9472 40.5459 45.3848 40.021C44.8224 39.4961 44.0598 39.2008 43.2645 39.2H40.034C39.4149 39.2025 38.8116 39.383 38.3064 39.7171C37.8012 40.0511 37.4185 40.5224 37.2106 41.0667H36.889C36.3003 39.2655 36.1832 37.3589 36.5477 35.5068C36.6725 34.5187 36.8507 33.5371 37.0815 32.5658C38.3399 31.2874 39.1078 29.6551 39.2645 27.9253C39.2645 27.665 39.2537 27.4048 39.2293 27.1464C39.1965 26.8218 39.1732 26.4857 39.1556 26.1333H41.2645V26.0827C41.7953 26.0251 42.3082 25.8679 42.7723 25.6206C43.2364 25.3733 43.6421 25.041 43.9651 24.6436C44.2881 24.2463 44.5217 23.7921 44.6519 23.3083C44.782 22.8245 44.806 22.3212 44.7225 21.8286L43.5125 14.5127C43.4249 13.9655 43.1642 13.4551 42.7636 13.0471C42.363 12.6392 41.841 12.3523 41.2645 12.2233V12.1333C41.2645 8.91537 39.8948 5.82921 37.4569 3.55377C35.0189 1.27833 31.7123 0 28.2645 0C24.8167 0 21.5101 1.27833 19.0721 3.55377C16.6341 5.82921 15.2645 8.91537 15.2645 12.1333V12.2233C14.6878 12.3524 14.1656 12.6395 13.765 13.0477C13.3645 13.4559 13.1038 13.9666 13.0165 14.5141L13.0028 14.5961L12.8544 14.5975V15.4597L11.8065 21.8285C11.7229 22.3212 11.7469 22.8245 11.8771 23.3083C12.0072 23.792 12.2408 24.2463 12.5638 24.6436C12.8868 25.041 13.2925 25.3733 13.7566 25.6206C14.2207 25.8679 14.7336 26.0251 15.2645 26.0827V26.1333H17.3715C17.354 26.4596 17.3299 26.7988 17.2987 27.1551C17.2752 27.4048 17.2645 27.665 17.2645 27.9253C17.4212 29.6551 18.189 31.2874 19.4474 32.5659C19.6787 33.5389 19.8569 34.5223 19.9813 35.5122C20.3455 37.3625 20.2284 39.2674 19.64 41.0667H19.3194C19.1114 40.5222 18.7286 40.0508 18.2232 39.7168C17.7178 39.3827 17.1143 39.2023 16.4949 39.2H13.2645C12.4691 39.2008 11.7065 39.4961 11.1441 40.021C10.5817 40.5459 10.2653 41.2576 10.2645 42V42.9313C9.54837 43.3545 8.88223 43.8473 8.27717 44.4012C7.03672 45.5648 6.07713 46.9625 5.46272 48.5005L4.14147 52.3478C3.99814 52.768 3.9631 53.2138 4.03919 53.6491C4.11528 54.0843 4.30035 54.4966 4.57936 54.8525C4.85837 55.2084 5.22343 55.4978 5.64487 55.6972C6.0663 55.8966 6.53221 56.0003 7.0047 56ZM41.2645 16.4336V14.2993C41.4076 14.4347 41.5024 14.6081 41.5359 14.7957L42.7459 22.1129C42.823 22.5708 42.7137 23.0391 42.4396 23.4256C42.1654 23.8121 41.7462 24.0889 41.2645 24.2016V16.4336ZM15.2645 16.4345V24.2016C14.7826 24.0889 14.3634 23.812 14.0892 23.4254C13.8151 23.0388 13.7059 22.5704 13.783 22.1125L14.993 14.7944C15.0267 14.6071 15.1215 14.4341 15.2645 14.299V16.4345ZM46.2645 45.2521C46.4575 45.4066 46.6578 45.5532 46.8377 45.721C47.8557 46.6728 48.6476 47.8139 49.1619 49.0702L50.4813 52.9138C50.5293 53.0542 50.5411 53.2032 50.5157 53.3486C50.4904 53.4941 50.4285 53.6319 50.3352 53.7508C50.2419 53.8697 50.1198 53.9663 49.9788 54.0328C49.8379 54.0993 49.6821 54.1337 49.5242 54.1333H48.2645V49.4667C48.2639 48.9718 48.053 48.4973 47.678 48.1474C47.3031 47.7974 46.7947 47.6006 46.2645 47.6V45.2521ZM46.2645 49.4667V54.1333H41.2645V49.4667H46.2645ZM36.8806 42.9333L36.1317 48.5333H31.2645V44.3111C32.0728 44.0875 32.8552 43.8269 33.5545 43.5741C34.2301 43.3132 34.9217 43.0901 35.6258 42.906C35.6919 42.8846 35.7554 42.8565 35.815 42.8222C35.9531 42.8925 36.1073 42.9306 36.2645 42.9333H36.8806ZM27.2476 43.5364C27.2413 43.4737 27.2279 43.4118 27.2076 43.3517C27.1748 43.2384 27.1176 43.1325 27.0394 43.0406C26.9612 42.9486 26.8638 42.8725 26.753 42.817C26.6948 42.7849 26.6331 42.7586 26.569 42.7387C26.5412 42.7302 26.52 42.7118 26.491 42.7055C25.5387 42.476 24.6047 42.1845 23.6961 41.8332C23.0064 41.5838 22.3535 41.3595 21.7136 41.1883C21.8859 40.6472 22.0037 40.0922 22.0655 39.5307C22.3595 39.631 22.6582 39.7365 22.9695 39.849C24.6382 40.5569 26.4341 40.9668 28.2645 41.0575C30.0948 40.9668 31.8907 40.5568 33.5594 39.849C33.8707 39.7365 34.1695 39.6311 34.4635 39.5306C34.5253 40.0922 34.6431 40.6471 34.8154 41.1882C34.1755 41.3594 33.5225 41.5838 32.8328 41.8332C31.9241 42.1845 30.9902 42.476 30.0379 42.7055C30.0089 42.7118 29.9877 42.7303 29.9598 42.7387C29.8378 42.7792 29.7237 42.8384 29.6224 42.9137C29.4762 43.0272 29.371 43.1801 29.3214 43.3515C29.3011 43.4116 29.2877 43.4736 29.2814 43.5364C29.2788 43.5635 29.2645 43.5869 29.2645 43.6147V48.5333H27.2645V43.6147C27.2645 43.5869 27.2501 43.5635 27.2476 43.5364ZM28.2655 38.0757C29.8568 38.0785 31.4003 37.568 32.6346 36.6306C33.3557 36.0854 33.9967 35.555 34.601 35.0316C34.5897 35.1168 34.5716 35.2059 34.5614 35.2908C34.4566 36.1116 34.3982 36.8763 34.382 37.589C33.8802 37.7427 33.3704 37.9156 32.8368 38.1081C31.3966 38.7274 29.8468 39.0945 28.2645 39.1909C26.6822 39.0945 25.1323 38.7274 23.6922 38.1081C23.1586 37.9156 22.6488 37.7427 22.147 37.5891C22.1307 36.8779 22.0709 36.1136 21.9676 35.2962C21.9571 35.2092 21.9386 35.1183 21.9271 35.0308C22.5311 35.554 23.1717 36.084 23.8924 36.6288C25.1277 37.5673 26.6726 38.0785 28.2655 38.0757ZM24.3354 34.5333H32.1938C31.9238 34.749 31.663 34.963 31.3729 35.1823C30.4933 35.8478 29.3954 36.2108 28.2631 36.2105C27.1309 36.2102 26.0332 35.8465 25.1541 35.1804C24.8648 34.9617 24.6047 34.7484 24.3354 34.5333ZM28.2645 1.86667C31.0729 1.86006 33.7768 2.86014 35.818 4.66044C37.8592 6.46074 39.0819 8.92381 39.2336 11.5412C35.8107 10.0199 32.055 9.26392 28.2645 9.33333C24.4744 9.26396 20.7192 10.0198 17.2966 11.5408C17.4596 8.92741 18.6856 6.47074 20.724 4.6727C22.7625 2.87466 25.4597 1.87096 28.2645 1.86667ZM17.2645 13.6887C20.6278 11.9587 24.4256 11.0994 28.2645 11.2C32.1034 11.0994 35.9012 11.9588 39.2645 13.6892V15.2902C35.8338 13.7584 32.0668 12.997 28.2645 13.0667C25.8762 13.0568 23.4966 13.3344 21.1844 13.8925C19.8282 14.2285 18.5142 14.6981 17.2645 15.2935V13.6887ZM17.2645 24.2667V17.4225C18.6448 16.6487 20.1387 16.067 21.699 15.6958C23.8434 15.1798 26.05 14.9236 28.2645 14.9333C32.1033 14.8338 35.9009 15.6933 39.2645 17.423V24.2667H32.2635C32.1084 24.2664 31.9556 24.2326 31.817 24.1678C31.6784 24.103 31.5577 24.0091 31.4646 23.8934L29.868 21.9101C29.6832 21.676 29.4422 21.4856 29.1643 21.3542C28.8864 21.2228 28.5794 21.1541 28.2679 21.1536C27.9564 21.1531 27.6491 21.2207 27.3707 21.3512C27.0922 21.4816 26.8505 21.6712 26.6648 21.9046L25.0633 23.8943C24.9702 24.0098 24.8498 24.1035 24.7113 24.1681C24.5729 24.2327 24.4202 24.2665 24.2655 24.2667H17.2645ZM19.2645 27.9253C19.2645 27.7188 19.2733 27.5124 19.2918 27.3109C19.3279 26.8979 19.3535 26.5094 19.3722 26.1333H24.2655C24.7307 26.1325 25.1894 26.031 25.6055 25.8369C26.0216 25.6427 26.3839 25.3613 26.6639 25.0145L28.2645 23.0257L29.8641 25.0136C30.1441 25.3606 30.5066 25.6422 30.9229 25.8365C31.3392 26.0308 31.798 26.1324 32.2635 26.1333H37.1552C37.1744 26.5453 37.1999 26.9394 37.2381 27.3146C37.2557 27.5124 37.2644 27.7188 37.2644 27.9253C37.2645 29.1842 36.2288 30.8213 34.3289 32.6667H22.2645C22.2453 32.6667 22.2293 32.6759 22.2104 32.6769C20.304 30.8277 19.2645 29.1866 19.2645 27.9253ZM20.2645 42.9333C20.4217 42.9306 20.5759 42.8924 20.7139 42.8222C20.7735 42.8565 20.837 42.8846 20.9031 42.906C21.6072 43.0901 22.2988 43.3132 22.9744 43.5741C23.6737 43.8268 24.4562 44.0875 25.2644 44.3111V48.5333H20.3973L19.6477 42.9333H20.2645ZM12.2645 42C12.2647 41.7525 12.3702 41.5153 12.5577 41.3403C12.7451 41.1653 12.9993 41.0669 13.2645 41.0667H16.4949C16.738 41.067 16.9728 41.1494 17.1559 41.2986C17.339 41.4479 17.458 41.654 17.491 41.8788L18.6317 50.4H37.8973L39.0076 42.1121L39.0359 41.887C39.0678 41.6607 39.1864 41.4528 39.37 41.3019C39.5535 41.1511 39.7894 41.0675 40.034 41.0667H43.2645C43.5296 41.0669 43.7838 41.1653 43.9713 41.3403C44.1588 41.5153 44.2642 41.7525 44.2645 42V47.6H41.2645C40.7342 47.6006 40.2259 47.7974 39.8509 48.1474C39.476 48.4973 39.2651 48.9718 39.2645 49.4667V54.1333H12.2645V42ZM6.0467 52.9156L7.35139 49.1135C7.86506 47.8409 8.66262 46.6847 9.69123 45.7215C9.87116 45.5535 10.0715 45.4069 10.2645 45.2524V54.1333H7.0047C6.84696 54.1337 6.69137 54.0993 6.55056 54.033C6.40975 53.9666 6.2877 53.8702 6.19435 53.7516C6.101 53.6329 6.03897 53.4953 6.01331 53.3501C5.98765 53.2048 5.99909 53.056 6.0467 52.9156Z" fill="url(#paint1_linear_8454_10156)"/>
<defs>
<linearGradient id="paint0_linear_8454_10156" x1="27.0906" y1="28.9333" x2="29.7475" y2="27.1515" gradientUnits="userSpaceOnUse">
<stop stop-color="#FE5000"/>
<stop offset="1" stop-color="#FCA92A"/>
</linearGradient>
<linearGradient id="paint1_linear_8454_10156" x1="14.0091" y1="56" x2="57.5388" y2="44.1942" gradientUnits="userSpaceOnUse">
<stop stop-color="#FE5000"/>
<stop offset="1" stop-color="#FCA92A"/>
</linearGradient>
</defs>
</svg>
