<svg width="80" height="80" viewBox="0 0 80 80" fill="none" xmlns="http://www.w3.org/2000/svg">
<path d="M70.7792 75.8791H9.2198C5.88385 75.8791 2.90032 74.1612 1.23886 71.2833C-0.416085 68.417 -0.412466 64.9884 1.24682 62.1135L32.0272 8.82448C33.6872 5.94949 36.6614 4.23303 39.9828 4.23303C43.3181 4.23303 46.3052 5.95745 47.9739 8.84691L78.7521 62.1135C80.4129 64.9884 80.4158 68.417 78.7615 71.2833C77.0979 74.1619 74.1158 75.8791 70.7792 75.8791ZM39.9821 6.76285C37.5753 6.76285 35.4196 8.00677 34.2169 10.0901L3.43653 63.3784C2.23458 65.4624 2.23168 67.9445 3.42857 70.0191C4.63269 72.1054 6.7978 73.3507 9.21907 73.3507H70.7784C73.1997 73.3507 75.3648 72.1054 76.5689 70.0191C77.7665 67.9445 77.7636 65.4624 76.5602 63.3784L45.7813 10.1118C45.7813 10.1118 45.7813 10.1118 45.7806 10.1118C44.5714 8.01473 42.4027 6.76285 39.9821 6.76285Z" fill="url(#paint0_linear)"/>
<path d="M40.7058 67.0269C37.8699 67.0269 35.5615 64.72 35.5615 61.8826C35.5615 59.0453 37.8692 56.7376 40.7058 56.7376C43.5425 56.7376 45.8501 59.0453 45.8501 61.8826C45.8501 64.72 43.5425 67.0269 40.7058 67.0269ZM40.7058 59.2674C39.2643 59.2674 38.0913 60.4404 38.0913 61.8834C38.0913 63.3241 39.2636 64.4978 40.7058 64.4978C42.148 64.4978 43.321 63.3248 43.321 61.8834C43.321 60.4404 42.1473 59.2674 40.7058 59.2674Z" fill="url(#paint1_linear)"/>
<path d="M40.7057 52.7996C38.6542 52.7996 36.9261 51.1967 36.772 49.151L35.2046 28.3806C35.0888 26.8538 35.62 25.3349 36.6606 24.2132C37.7011 23.0909 39.1759 22.4476 40.7057 22.4476C42.2361 22.4476 43.7109 23.0909 44.7515 24.2132C45.7921 25.3349 46.3225 26.8538 46.2074 28.3806L44.64 49.151C44.4852 51.1967 42.7572 52.7996 40.7057 52.7996ZM40.7057 24.9774C39.8648 24.9774 39.0862 25.3168 38.5145 25.9333C37.9428 26.5513 37.6628 27.3523 37.7265 28.191L39.2939 48.9614C39.3496 49.6945 39.969 50.2698 40.7049 50.2698C41.4416 50.2698 42.0617 49.6945 42.1167 48.9614L43.6841 28.191C43.7478 27.3523 43.4678 26.5506 42.8961 25.9333C42.3251 25.3168 41.5465 24.9774 40.7057 24.9774Z" fill="url(#paint2_linear)"/>
<defs>
<linearGradient id="paint0_linear" x1="16.5" y1="75.8791" x2="85.1533" y2="51.8876" gradientUnits="userSpaceOnUse">
<stop stop-color="#FE5000"/>
<stop offset="1" stop-color="#FCA92A"/>
</linearGradient>
<linearGradient id="paint1_linear" x1="37.6835" y1="67.0269" x2="46.7074" y2="64.203" gradientUnits="userSpaceOnUse">
<stop stop-color="#FE5000"/>
<stop offset="1" stop-color="#FCA92A"/>
</linearGradient>
<linearGradient id="paint2_linear" x1="37.4647" y1="52.7996" x2="47.9543" y2="51.6061" gradientUnits="userSpaceOnUse">
<stop stop-color="#FE5000"/>
<stop offset="1" stop-color="#FCA92A"/>
</linearGradient>
</defs>
</svg>
