<svg width="80" height="80" viewBox="0 0 80 80" fill="none" xmlns="http://www.w3.org/2000/svg">
<path fill-rule="evenodd" clip-rule="evenodd" d="M66.9249 13.249C73.5018 19.8693 77.4128 28.5803 77.9371 37.7772C78.3171 44.4462 76.9538 51.093 73.9944 56.9985C73.7191 57.5482 73.0505 57.7709 72.5005 57.4951C71.9507 57.2196 71.7285 56.5507 72.0039 56.001C74.789 50.4427 76.072 44.1845 75.7139 37.9035C75.2205 29.2504 71.5382 21.0518 65.3452 14.8177C59.1514 8.58308 50.9776 4.84806 42.3293 4.30076C37.0649 3.96811 31.9375 4.75053 27.0898 6.62739C22.4294 8.43152 18.2652 11.1465 14.7125 14.6971C11.1598 18.2479 8.44214 22.4106 6.63519 27.07C4.75551 31.9166 3.96967 37.0433 4.29965 42.3071C4.84042 50.9363 8.55644 59.0988 14.7631 65.2915C20.9695 71.4836 29.1408 75.1823 37.7718 75.706C42.3109 75.9815 46.7735 75.4195 51.0367 74.0365C53.4803 73.2438 55.4361 71.3965 56.4028 68.9686C57.3112 66.6868 57.2593 64.1702 56.2855 61.9476C55.3601 62.3356 54.2902 62.5298 53.0947 62.5298C51.0832 62.5298 48.7167 61.9804 46.0854 60.8801C40.9887 58.7486 35.3841 54.7771 30.3039 49.697C25.2236 44.6169 21.2521 39.0123 19.1208 33.9155C16.8583 28.5051 16.925 24.2128 19.3088 21.8293L22.5502 18.5877C23.3971 17.741 24.5635 17.3451 25.7504 17.5025C26.9375 17.6595 27.961 18.3447 28.5583 19.3823L34.8466 30.3042C35.7061 31.797 35.4557 33.6903 34.2376 34.9084L31.4113 37.7347C30.9504 38.1958 30.9133 38.9282 31.325 39.4383C32.6653 41.0985 34.1383 42.7337 35.703 44.2984C37.2678 45.8634 38.9029 47.3363 40.5628 48.6763C41.073 49.0881 41.8056 49.0511 42.2666 48.5899L45.0926 45.7638C46.311 44.5455 48.2042 44.2951 49.697 45.1547L60.6189 51.443C61.6565 52.0404 62.3417 53.0639 62.4987 54.2509C62.6556 55.4378 62.26 56.6043 61.4133 57.451L58.1719 60.6926C58.1696 60.6947 58.1674 60.6966 58.1652 60.6988C59.5331 63.55 59.6505 66.8307 58.4714 69.7923C57.2591 72.8377 54.7998 75.1566 51.7238 76.1546C47.9403 77.3822 44.0096 78.0009 40.0095 78.0009C39.221 78.0009 38.4304 77.9768 37.637 77.9287C28.4636 77.3721 19.7815 73.4439 13.1907 66.8679C6.59927 60.2913 2.65243 51.6182 2.07767 42.4469C1.7275 36.8591 2.56247 31.4148 4.55957 26.2654C6.47933 21.3154 9.36558 16.8939 13.1389 13.1228C16.9121 9.35184 21.3353 6.46797 26.2863 4.55147C31.4368 2.55749 36.8817 1.72549 42.4701 2.07922C51.6624 2.66081 60.3472 6.62769 66.9249 13.249ZM46.9447 58.8261C51.401 60.6898 54.9196 60.7962 56.5977 59.1181L57.9154 57.8005L50.1576 53.373L46.5766 51.1619C46.3894 51.1619 46.1998 51.1146 46.0257 51.0152L44.0933 49.9123L43.8411 50.1645C42.573 51.4325 40.5626 51.5376 39.1646 50.4089C37.4437 49.0196 35.7493 47.4934 34.1288 45.8729C32.5086 44.2528 30.9823 42.5585 29.5926 40.8371C28.4642 39.4389 28.5691 37.4285 29.8369 36.1605L30.2401 35.7574L25.2079 27.017L22.7287 22.7112L22.3075 21.9797L20.8834 23.404C19.2053 25.0819 19.3117 28.6002 21.1754 33.0567C23.1976 37.8922 26.9986 43.2428 31.8787 48.1228C36.7585 53.0028 42.1091 56.8039 46.9447 58.8261ZM24.6584 21.6003L23.938 20.3491L24.1249 20.1622C24.4268 19.8601 24.8265 19.696 25.2457 19.696C25.3162 19.696 25.3872 19.7006 25.4586 19.7101C25.9532 19.7755 26.3798 20.061 26.6287 20.4935L32.9171 31.4154C33.2754 32.0375 33.171 32.8266 32.6632 33.3342L31.8707 34.1268L27.1376 25.9059L24.6584 21.6003ZM45.7256 48.2803L47.1295 49.0815L51.2613 51.4393L59.5475 56.1685L59.8391 55.8768C60.1921 55.5238 60.3569 55.0378 60.2916 54.543C60.2261 54.0483 59.9407 53.6218 59.5081 53.3729L48.5863 47.0846C47.9642 46.7267 47.1751 46.8307 46.6674 47.3384L45.7256 48.2803Z" fill="url(#paint0_linear)"/>
<defs>
<linearGradient id="paint0_linear" x1="17.6749" y1="78.0008" x2="84.3312" y2="57.14" gradientUnits="userSpaceOnUse">
<stop stop-color="#FE5000"/>
<stop offset="1" stop-color="#FCA92A"/>
</linearGradient>
</defs>
</svg>
