<svg width="60" height="60" viewBox="0 0 60 60" fill="none" xmlns="http://www.w3.org/2000/svg">
<path d="M36.7238 21.8276H11.8962C11.379 21.8276 10.8618 22.2414 10.8618 22.8621C10.8618 23.3793 11.2756 23.8966 11.8962 23.8966H36.7238C37.2411 23.8966 37.7583 23.4828 37.7583 22.8621C37.7583 22.2414 37.2411 21.8276 36.7238 21.8276ZM11.8962 15.8276H21.8273C22.3445 15.8276 22.8618 15.4138 22.8618 14.7931C22.8618 14.2759 22.448 13.7586 21.8273 13.7586H11.8962C11.379 13.7586 10.8618 14.1724 10.8618 14.7931C10.9652 15.4138 11.379 15.8276 11.8962 15.8276ZM36.7238 29.7931H11.8962C11.379 29.7931 10.8618 30.2069 10.8618 30.8276C10.8618 31.3448 11.2756 31.8621 11.8962 31.8621H36.7238C37.2411 31.8621 37.7583 31.4483 37.7583 30.8276C37.7583 30.2069 37.2411 29.7931 36.7238 29.7931ZM28.7583 37.6552H11.8962C11.379 37.6552 10.8618 38.069 10.8618 38.6897C10.8618 39.3103 11.2756 39.7241 11.8962 39.7241H28.7583C29.2756 39.7241 29.7928 39.3103 29.7928 38.6897C29.7928 38.069 29.379 37.6552 28.7583 37.6552ZM25.8618 47.5862C26.379 47.5862 26.8962 47.1724 26.8962 46.5517C26.8962 45.931 26.4825 45.5172 25.8618 45.5172H11.8962C11.379 45.5172 10.8618 45.931 10.8618 46.5517C10.8618 47.1724 11.2756 47.5862 11.8962 47.5862H25.8618ZM2.9997 1.96552H31.7583V15.8276H45.6204V33.7241H47.5859V14.4828L33.1031 0H1.03418V59.4828H29.7928V57.5172H2.9997V1.96552ZM33.7238 3.41379L44.1721 13.8621H33.7238V3.41379ZM58.2411 36.8276L55.448 34.0345C54.31 32.8966 52.3445 32.8966 51.31 34.0345L35.9997 49.2414L33.9307 57L33.4135 57.5172C32.9997 57.931 32.9997 58.5517 33.4135 58.8621C33.6204 59.069 33.8273 59.1724 34.1376 59.1724C34.3445 59.1724 34.6549 59.069 34.8618 58.8621L35.379 58.3448L43.1376 56.2759L58.3445 41.069C58.8618 40.5517 59.1721 39.7241 59.1721 39C59.0687 38.1724 58.7583 37.4483 58.2411 36.8276ZM38.2756 49.7586L48.4135 39.6207L52.6549 43.8621L42.4135 54L38.2756 49.7586ZM37.3445 51.7241L40.5514 54.931L36.2066 56.1724L37.3445 51.7241ZM56.7928 39.6207L53.9997 42.4138L49.7583 38.2759L52.5514 35.4828C52.9652 35.069 53.5859 35.069 53.8962 35.4828L56.6893 38.2759C56.8962 38.4828 56.9997 38.6897 56.9997 39C57.1031 39.2069 56.9997 39.4138 56.7928 39.6207Z" fill="url(#paint0_linear_2951_1011)"/>
<defs>
<linearGradient id="paint0_linear_2951_1011" x1="13.0251" y1="59.4828" x2="64.2198" y2="43.8228" gradientUnits="userSpaceOnUse">
<stop stop-color="#FE5000"/>
<stop offset="1" stop-color="#FCA92A"/>
</linearGradient>
</defs>
</svg>
