<svg width="80" height="80" viewBox="0 0 80 80" fill="none" xmlns="http://www.w3.org/2000/svg">
<path d="M40.8003 23.0667C44.0003 23.0667 46.6669 20.4 46.6669 17.2C46.6669 14 44.0003 11.3334 40.8003 11.3334C37.6003 11.3334 34.9336 14 34.9336 17.2C34.9336 20.4 37.6003 23.0667 40.8003 23.0667ZM40.8003 13.6C42.8003 13.6 44.4003 15.2 44.4003 17.2C44.4003 19.2 42.8003 20.8 40.8003 20.8C38.8003 20.8 37.2003 19.2 37.2003 17.2C37.3336 15.2 38.9336 13.6 40.8003 13.6Z" fill="url(#paint0_linear)"/>
<path d="M18.5335 67.8667C14.0002 64.5333 10.2668 60.1333 7.7335 55.2C5.06683 50 3.7335 44.2667 3.7335 38.4C3.86683 28.8 7.60016 19.7333 14.4002 12.9333C21.3335 6.13333 30.4002 2.4 40.0002 2.4C45.7335 2.4 51.2002 3.73333 56.2668 6.26667L61.0668 9.2C70.6668 16.1333 76.4002 27.2 76.4002 38.8C76.4002 47.2 73.4668 55.3333 68.0002 61.7333C66.5335 63.4667 65.6002 65.4667 65.2002 67.7333C64.8002 69.3333 64.4002 72 65.3335 74.5333C65.6002 75.3333 65.3335 76.2667 64.8002 76.9333C64.1335 77.6 63.3335 77.7333 62.5335 77.6C60.1335 76.9333 57.7335 75.8667 55.4668 74.5333C53.6002 73.4667 51.4668 73.2 49.3335 73.7333C46.2668 74.5333 43.0668 74.9333 39.7335 74.9333C34.0002 74.9333 28.4002 73.4667 23.3335 70.8L18.5335 67.8667ZM22.1335 72.8C27.6002 75.6 33.4668 77.2 39.6002 77.2C43.0668 77.2 46.4002 76.8 49.7335 76C51.2002 75.6 52.8002 75.8667 54.1335 76.5333C56.5335 77.8667 59.2002 79.0667 61.7335 79.8667C62.1335 80 62.6668 80 63.0668 80C64.2668 80 65.4668 79.4667 66.4002 78.5333C67.6002 77.3333 68.0002 75.4667 67.4668 73.7333C66.9335 72.1333 66.9335 70.4 67.3335 68C67.6002 66.2667 68.5335 64.5333 69.6002 63.0667C75.3335 56.2667 78.4002 47.4667 78.5335 38.5333C78.5335 26.1333 72.5335 14.2667 62.2668 7.06667L57.3335 4.13333C51.8668 1.33333 46.0002 0 40.0002 0C29.7335 0 20.1335 4 12.8002 11.2C5.46683 18.4 1.46683 28.1333 1.3335 38.2667C1.3335 44.4 2.80016 50.6667 5.60016 56.1333C8.26683 61.4667 12.2668 66.1333 17.2002 69.7333L22.1335 72.8Z" fill="url(#paint1_linear)"/>
<path d="M28.667 56.5333V57.7333C28.667 60 30.5337 61.7333 32.667 61.7333H48.8003C51.067 61.7333 52.8003 59.8667 52.8003 57.7333V56.5333C52.8003 54.2667 50.9337 52.5333 48.8003 52.5333H46.667V30C46.667 28.6667 46.0003 27.4667 44.9337 26.6667C43.867 25.8667 42.4003 25.7333 41.2003 26.2667C39.2003 27.0667 37.2003 27.6 35.067 27.7333L31.3337 27.8667C29.867 28 28.667 29.2 28.667 30.6667V32.9333C28.667 34.5333 29.867 35.7333 31.467 35.7333H34.667C34.8003 35.7333 34.8003 35.8667 34.8003 35.8667V52.4H32.667C30.5337 52.4 28.667 54.2667 28.667 56.5333ZM36.1337 54.8C36.8003 54.8 37.3337 54.2667 37.3337 53.6V36C37.3337 34.6667 36.267 33.4667 34.8003 33.4667H31.6003C31.3337 33.4667 31.2003 33.2 31.2003 33.0667V30.6667C31.2003 30.4 31.3337 30.2667 31.6003 30.2667L35.3337 30.1333C37.7337 30 40.0003 29.4667 42.267 28.5333C42.8003 28.2667 43.3337 28.4 43.867 28.6667C44.4003 28.9333 44.667 29.4667 44.667 30V53.7333C44.667 54.4 45.2003 54.9333 45.867 54.9333H49.2003C50.1337 54.9333 50.9337 55.7333 50.9337 56.6667V57.8667C50.9337 58.8 50.1337 59.6 49.2003 59.6H32.8003C31.867 59.6 31.067 58.8 31.067 57.8667V56.6667C31.067 55.7333 31.867 54.9333 32.8003 54.9333H36.1337V54.8Z" fill="url(#paint2_linear)"/>
<defs>
<linearGradient id="paint0_linear" x1="35.9884" y1="18.6231" x2="46.3448" y2="15.382" gradientUnits="userSpaceOnUse">
<stop stop-color="#FE5000"/>
<stop offset="1" stop-color="#FCA92A"/>
</linearGradient>
<linearGradient id="paint1_linear" x1="8.14376" y1="30.5492" x2="69.6759" y2="46.118" gradientUnits="userSpaceOnUse">
<stop stop-color="#FE5000"/>
<stop offset="1" stop-color="#FCA92A"/>
</linearGradient>
<linearGradient id="paint2_linear" x1="30.5618" y1="46.8641" x2="52.8863" y2="42.1371" gradientUnits="userSpaceOnUse">
<stop stop-color="#FE5000"/>
<stop offset="1" stop-color="#FCA92A"/>
</linearGradient>
</defs>
</svg>
