<svg width="65" height="65" viewBox="0 0 65 65" fill="none" xmlns="http://www.w3.org/2000/svg">
<path fill-rule="evenodd" clip-rule="evenodd" d="M50.1863 0H14.8138C7.73362 0 1.97363 5.75999 1.97363 12.84V35.4345L1.97375 39.2431V41.9109C1.97375 48.991 7.73375 54.7509 14.8138 54.7509H25.8443C26.107 54.7509 26.3457 54.9061 26.4523 55.1462L30.1517 63.4735C30.57 64.4151 31.4698 65 32.5 65C33.5302 65 34.43 64.4151 34.8484 63.4736L38.5476 55.1463C38.6544 54.9062 38.8931 54.7511 39.1557 54.7511H50.1863C57.2665 54.7511 63.0265 48.9911 63.0265 41.911V25.4318L63.0263 21.623V12.84C63.0263 5.75999 57.2663 0 50.1863 0ZM61.122 21.623V12.84C61.122 6.81002 56.2163 1.9043 50.1863 1.9043H14.8137C8.78378 1.9043 3.87793 6.81002 3.87793 12.84V35.4345L3.87805 39.2431V41.9109C3.87805 47.9409 8.78378 52.8467 14.8138 52.8467H25.8443C26.8589 52.8467 27.7806 53.4457 28.1926 54.373L31.892 62.7005C32.0504 63.0571 32.37 63.0957 32.5 63.0957C32.63 63.0957 32.9495 63.0572 33.108 62.7006L36.8072 54.3731C37.2193 53.4459 38.1411 52.8468 39.1556 52.8468H50.1862C56.2162 52.8468 61.122 47.9411 61.122 41.911V25.4318L61.122 21.623ZM34.2569 35.7327H30.708C29.8159 35.7327 29.0901 35.0069 29.0901 34.1147V25.759C29.0901 24.5496 30.074 23.5658 31.2834 23.5658H32.4825C33.6136 23.5658 34.6666 23.1129 35.4472 22.2908C36.2272 21.4692 36.6242 20.3913 36.565 19.2553C36.4548 17.1306 34.6993 15.4328 32.5685 15.3898C30.4954 15.346 28.7192 16.8581 28.4338 18.9028C28.3125 19.7757 27.562 20.4294 26.6869 20.4294H23.3913C22.9038 20.4294 22.4351 20.2232 22.1058 19.8638C21.7741 19.5019 21.6084 19.0131 21.6511 18.5228C21.6671 18.3377 21.6884 18.1503 21.714 17.9657C22.4741 12.5192 27.1994 8.49577 32.7053 8.60635C38.3755 8.72048 43.0471 13.2436 43.3408 18.9035C43.4972 21.9161 42.4412 24.778 40.3675 26.9623C39.1894 28.2031 37.707 29.1615 36.0806 29.7335C35.9556 29.7774 35.8748 29.886 35.8748 30.0099V34.1147C35.8748 35.0069 35.149 35.7327 34.2569 35.7327ZM30.9943 33.8284H33.9703V30.0099C33.9703 29.0812 34.5645 28.2482 35.4485 27.9371C36.7915 27.4647 38.0148 26.6742 38.9861 25.6511C40.6968 23.8495 41.5677 21.4882 41.4386 19.0022C41.1965 14.3345 37.3432 10.6045 32.6665 10.5103C28.1255 10.4185 24.2266 13.7372 23.5997 18.2286C23.586 18.3268 23.5739 18.4261 23.5634 18.5252H26.5645C27.0369 15.5804 29.6167 13.4264 32.6065 13.4859C35.7305 13.5489 38.3045 16.0397 38.4664 19.1565C38.5528 20.8191 37.9709 22.3979 36.8278 23.6019C35.684 24.8066 34.1406 25.47 32.4821 25.47H31.283C31.1237 25.47 30.9941 25.5997 30.9941 25.759V33.8284H30.9943ZM28.7711 42.048C28.7711 44.1087 30.4477 45.7853 32.5084 45.7853C34.5691 45.7853 36.2456 44.1089 36.2456 42.048C36.2456 39.9873 34.5691 38.3108 32.5084 38.3108C30.4477 38.3108 28.7711 39.9873 28.7711 42.048ZM30.6754 42.0482C30.6754 41.0375 31.4977 40.2152 32.5084 40.2152C33.519 40.2152 34.3413 41.0375 34.3413 42.0482C34.3413 43.0588 33.519 43.8811 32.5084 43.8811C31.4977 43.8811 30.6754 43.0588 30.6754 42.0482Z" fill="url(#paint0_linear)"/>
<defs>
<linearGradient id="paint0_linear" x1="14.5658" y1="65" x2="68.6813" y2="49.0921" gradientUnits="userSpaceOnUse">
<stop stop-color="#FE5000"/>
<stop offset="1" stop-color="#FCA92A"/>
</linearGradient>
</defs>
</svg>
