<svg width="56" height="56" viewBox="0 0 56 56" fill="none" xmlns="http://www.w3.org/2000/svg">
<path fill-rule="evenodd" clip-rule="evenodd" d="M7.82698 40.4212C7.58008 40.4956 7.31285 40.4566 7.09757 40.3146L0.802707 36.1625C0.402091 35.8982 0.291545 35.3592 0.555793 34.9586C0.820045 34.558 1.35902 34.4475 1.75964 34.7117L6.05703 37.5463C4.90976 34.7403 4.27765 31.6697 4.27765 28.4532C4.27765 15.1755 15.0413 4.4118 28.319 4.4118C32.6966 4.4118 36.8033 5.58257 40.3403 7.62864C40.7558 7.86895 40.8977 8.40052 40.6574 8.81594C40.4171 9.23136 39.8855 9.37331 39.4701 9.13301C36.1905 7.23583 32.3829 6.14973 28.319 6.14973C16.0012 6.14973 6.01558 16.1353 6.01558 28.4532C6.01558 31.4916 6.62269 34.3864 7.72171 37.0243L9.72521 32.309C9.91288 31.8673 10.4231 31.6614 10.8648 31.849C11.3065 32.0367 11.5124 32.5469 11.3247 32.9886L8.3758 39.929C8.27495 40.1664 8.07389 40.3467 7.82698 40.4212ZM48.4915 16.0369C48.7384 15.9624 49.0056 16.0014 49.2209 16.1434L55.5158 20.2956C55.9164 20.5598 56.0269 21.0988 55.7627 21.4994C55.4984 21.9 54.9595 22.0106 54.5589 21.7463L50.2615 18.9117C51.4087 21.7177 52.0408 24.7884 52.0408 28.0049C52.0408 41.2825 41.2771 52.0462 27.9995 52.0462C23.6219 52.0462 19.5152 50.8755 15.9781 48.8294C15.5627 48.5891 15.4208 48.0575 15.6611 47.6421C15.9014 47.2267 16.4329 47.0847 16.8484 47.325C20.128 49.2222 23.9356 50.3083 27.9995 50.3083C40.3173 50.3083 50.3029 40.3227 50.3029 28.0049C50.3029 24.9664 49.6958 22.0716 48.5968 19.4337L46.5933 24.149C46.4056 24.5907 45.8954 24.7967 45.4537 24.609C45.012 24.4213 44.8061 23.9111 44.9937 23.4694L47.9427 16.529C48.0435 16.2916 48.2446 16.1113 48.4915 16.0369Z" fill="url(#paint0_linear_6928_1979)"/>
<path fill-rule="evenodd" clip-rule="evenodd" d="M17.8284 20.6252C17.8284 20.4088 17.9651 20.1196 18.4077 19.7832C18.8428 19.4526 19.5026 19.1343 20.3611 18.8584C22.0726 18.3082 24.4669 17.9602 27.1331 17.9602C29.7992 17.9602 32.1936 18.3082 33.905 18.8584C34.7635 19.1343 35.4234 19.4526 35.8584 19.7832C36.301 20.1196 36.4378 20.4088 36.4378 20.6252V20.6252C36.4378 20.8417 36.301 21.1308 35.8584 21.4672C35.4234 21.7978 34.7635 22.1161 33.905 22.3921C32.1936 22.9422 29.7992 23.2902 27.1331 23.2902C24.4669 23.2902 22.0726 22.9422 20.3611 22.3921C19.5026 22.1161 18.8428 21.7978 18.4077 21.4672C17.9651 21.1308 17.8284 20.8417 17.8284 20.6252V20.6252ZM16.8682 20.6252V20.6252C16.8682 19.9732 17.279 19.4349 17.8267 19.0187C18.3819 18.5968 19.155 18.2374 20.0672 17.9442C21.8972 17.356 24.3953 17 27.1331 17C29.8709 17 32.3689 17.356 34.1989 17.9442C35.1111 18.2374 35.8842 18.5968 36.4394 19.0187C36.9871 19.4349 37.398 19.9732 37.398 20.6252V20.6252V23.4209C37.398 23.5945 37.3687 23.7602 37.3155 23.9176C37.863 24.1574 38.3318 24.4299 38.692 24.7351C39.157 25.1292 39.4945 25.6268 39.4946 26.2164C39.4946 26.2164 39.4946 26.2165 39.4946 26.2165V29.0121C39.4946 29.611 39.1466 30.1148 38.6696 30.5123C38.4479 30.6971 38.1861 30.8699 37.8908 31.0306C38.0207 31.2681 38.097 31.5276 38.097 31.8078V31.8079V34.6035C38.097 35.2024 37.749 35.7062 37.2721 36.1037C36.792 36.5038 36.1238 36.8477 35.335 37.135C34.5146 37.4337 33.5385 37.6803 32.455 37.8632C31.5726 38.0121 30.6152 38.1195 29.6072 38.1779C29.0309 38.2113 28.4377 38.2287 27.8321 38.2287C27.2265 38.2287 26.6333 38.2113 26.057 38.1779C25.049 38.1195 24.0916 38.0121 23.2092 37.8632C22.1257 37.6803 21.1496 37.4337 20.3292 37.135C19.5404 36.8477 18.8722 36.5038 18.3921 36.1037C17.9152 35.7062 17.5672 35.2024 17.5672 34.6035V31.8079V31.8078C17.5672 31.2972 17.8217 30.8538 18.1898 30.4907C18.4506 30.2335 18.7839 30 19.171 29.7893C19.041 29.5519 18.9648 29.2924 18.9648 29.0121V26.2165C18.9648 26.2165 18.9648 26.2164 18.9648 26.2164C18.9648 26.0431 18.9942 25.8773 19.0474 25.7198C18.5106 25.4847 18.0499 25.2184 17.6931 24.921C17.2161 24.5235 16.8682 24.0198 16.8682 23.4209V20.6252ZM19.925 27.8242V29.0121C19.925 29.2108 20.0389 29.47 20.4044 29.7747C20.6518 29.9808 20.9887 30.1848 21.411 30.3785V28.6273C20.8245 28.392 20.3198 28.1239 19.925 27.8242ZM22.3712 28.9623V30.7508C22.9139 30.9298 23.5301 31.0889 24.2066 31.2226V29.4048C23.5448 29.2803 22.9292 29.1317 22.3712 28.9623ZM25.1668 29.5636V31.3887C25.7481 31.476 26.3623 31.5452 27.0023 31.5939V29.7612C26.3663 29.7144 25.7523 29.6479 25.1668 29.5636ZM27.9625 29.816V31.6505C28.377 31.668 28.8 31.6771 29.2297 31.6771C29.6594 31.6771 30.0824 31.668 30.4969 31.6505V29.816C30.0814 29.833 29.6585 29.8417 29.2297 29.8417C28.8008 29.8417 28.3779 29.833 27.9625 29.816ZM31.4571 29.7612V31.5939C32.097 31.5452 32.7112 31.476 33.2925 31.3887V29.5636C32.707 29.6479 32.093 29.7144 31.4571 29.7612ZM34.2527 29.4048V31.2226C34.9293 31.0889 35.5454 30.9298 36.0882 30.7508V28.9623C35.5301 29.1317 34.9146 29.2803 34.2527 29.4048ZM37.0484 28.6273V30.3785C37.4706 30.1848 37.8076 29.9808 38.0549 29.7747C38.4204 29.47 38.5344 29.2108 38.5344 29.0121V27.8242C38.1396 28.1239 37.6348 28.392 37.0484 28.6273ZM38.5344 26.2165C38.5344 26.2165 38.5344 26.2164 38.5344 26.2164C38.5343 26.0208 38.4241 25.7667 38.0712 25.4676C37.7735 25.2153 37.3407 24.9654 36.7801 24.7332C36.7145 24.7982 36.6453 24.8609 36.573 24.921C36.0929 25.3212 35.4247 25.6651 34.6359 25.9523C33.8156 26.2511 32.8394 26.4977 31.7559 26.6806C30.8735 26.8295 29.9161 26.9369 28.9081 26.9953C28.3318 27.0287 27.7386 27.0461 27.1331 27.0461C26.5275 27.0461 25.9343 27.0287 25.358 26.9953C24.35 26.9369 23.3926 26.8295 22.5102 26.6806C21.5628 26.5206 20.6974 26.312 19.9466 26.0624C19.9315 26.117 19.925 26.1683 19.925 26.2164C19.925 26.2164 19.925 26.2165 19.925 26.2165C19.925 26.4329 20.0617 26.7221 20.5043 27.0584C20.9394 27.3891 21.5992 27.7074 22.4577 27.9833C24.1692 28.5335 26.5635 28.8815 29.2297 28.8815C31.8959 28.8815 34.2902 28.5335 36.0016 27.9833C36.8601 27.7074 37.52 27.3891 37.955 27.0584C38.3976 26.7221 38.5344 26.4329 38.5344 26.2165ZM19.8174 30.5352C19.3974 30.7445 19.08 30.9614 18.864 31.1744C18.6095 31.4254 18.5274 31.6376 18.5274 31.8078V31.8079C18.5274 32.0243 18.6641 32.3135 19.1067 32.6498C19.5418 32.9805 20.2017 33.2988 21.0601 33.5747C22.7716 34.1249 25.1659 34.4729 27.8321 34.4729C30.4983 34.4729 32.8926 34.1249 34.6041 33.5747C35.4625 33.2988 36.1224 32.9805 36.5575 32.6498C37.0001 32.3135 37.1368 32.0243 37.1368 31.8079V31.8078C37.1368 31.7006 37.1037 31.5759 37.0158 31.4359C36.9232 31.4726 36.8288 31.5085 36.7325 31.5435C35.9122 31.8423 34.936 32.0889 33.8525 32.2718C32.9702 32.4207 32.0127 32.5281 31.0047 32.5865C30.4284 32.6199 29.8352 32.6373 29.2297 32.6373C28.6241 32.6373 28.0309 32.6199 27.4546 32.5865C26.4466 32.5281 25.4892 32.4207 24.6068 32.2718C23.5233 32.0889 22.5471 31.8423 21.7268 31.5435C20.9531 31.2618 20.2954 30.9255 19.8174 30.5352ZM36.4378 22.2329C36.043 22.5326 35.5382 22.8008 34.9518 23.036V24.7872C35.374 24.5935 35.711 24.3896 35.9583 24.1834C36.3238 23.8788 36.4378 23.6196 36.4378 23.4209V22.2329ZM33.9916 23.371C33.4335 23.5405 32.818 23.6891 32.1561 23.8136V25.6313C32.8327 25.4977 33.4488 25.3386 33.9916 25.1595V23.371ZM31.1959 23.9724C30.6104 24.0566 29.9964 24.1231 29.3604 24.1699V26.0027C30.0004 25.9539 30.6146 25.8847 31.1959 25.7975V23.9724ZM28.4002 24.2247C27.9848 24.2417 27.5619 24.2504 27.1331 24.2504C26.7042 24.2504 26.2813 24.2417 25.8659 24.2247V26.0593C26.2804 26.0768 26.7034 26.0859 27.1331 26.0859C27.5628 26.0859 27.9857 26.0768 28.4002 26.0593V24.2247ZM24.9057 24.1699C24.2697 24.1231 23.6557 24.0566 23.0702 23.9724V25.7975C23.6515 25.8847 24.2657 25.9539 24.9057 26.0027V24.1699ZM22.11 23.8136C21.4482 23.6891 20.8326 23.5405 20.2746 23.371V25.1595C20.8173 25.3386 21.4335 25.4977 22.11 25.6313V23.8136ZM19.3144 23.036V24.7872C18.8921 24.5935 18.5551 24.3896 18.3078 24.1834C17.9423 23.8788 17.8284 23.6196 17.8284 23.4209V22.2329C18.2232 22.5326 18.7279 22.8008 19.3144 23.036ZM18.5274 33.4156V34.6035C18.5274 34.8022 18.6413 35.0614 19.0069 35.3661C19.2542 35.5722 19.5911 35.7762 20.0134 35.9699V34.2187C19.4269 33.9834 18.9222 33.7153 18.5274 33.4156ZM20.9736 34.5537V36.3422C21.5163 36.5212 22.1325 36.6803 22.8091 36.814V34.9962C22.1472 34.8717 21.5316 34.7231 20.9736 34.5537ZM23.7693 35.155V36.9802C24.3506 37.0674 24.9648 37.1366 25.6047 37.1853V35.3526C24.9687 35.3058 24.3548 35.2393 23.7693 35.155ZM26.5649 35.4074V37.242C26.9794 37.2595 27.4024 37.2685 27.8321 37.2685C28.2618 37.2685 28.6848 37.2595 29.0993 37.242V35.4074C28.6839 35.4244 28.2609 35.4331 27.8321 35.4331C27.4033 35.4331 26.9803 35.4244 26.5649 35.4074ZM30.0595 35.3526V37.1853C30.6994 37.1366 31.3136 37.0674 31.8949 36.9802V35.155C31.3094 35.2393 30.6955 35.3058 30.0595 35.3526ZM32.8551 34.9962V36.814C33.5317 36.6803 34.1479 36.5212 34.6906 36.3422V34.5537C34.1326 34.7231 33.517 34.8717 32.8551 34.9962ZM35.6508 34.2187V35.9699C36.073 35.7762 36.41 35.5722 36.6573 35.3661C37.0229 35.0614 37.1368 34.8022 37.1368 34.6035V33.4156C36.742 33.7153 36.2373 33.9834 35.6508 34.2187Z" fill="url(#paint1_linear_6928_1979)"/>
<defs>
<linearGradient id="paint0_linear_6928_1979" x1="11.8578" y1="52.0462" x2="59.0264" y2="34.8482" gradientUnits="userSpaceOnUse">
<stop stop-color="#FE5000"/>
<stop offset="1" stop-color="#FCA92A"/>
</linearGradient>
<linearGradient id="paint1_linear_6928_1979" x1="21.5349" y1="38.2287" x2="41.1419" y2="31.6883" gradientUnits="userSpaceOnUse">
<stop stop-color="#FE5000"/>
<stop offset="1" stop-color="#FCA92A"/>
</linearGradient>
</defs>
</svg>
