<svg width="50" height="50" viewBox="0 0 50 50" fill="none" xmlns="http://www.w3.org/2000/svg">
<g clip-path="url(#clip0_6928_1998)">
<path d="M48.431 11.4836H42.274L39.6339 5.75882C39.4736 5.40755 39.0398 5.24616 38.691 5.40755L36.1075 6.61327L28.2815 0.983452C27.9703 0.755602 27.5178 0.831552 27.2915 1.15434L19.9746 11.4836H1.56947C1.17346 11.4836 0.862305 11.8064 0.862305 12.1956V37.8003C0.862305 38.1896 1.18289 38.5124 1.56947 38.5124H7.72653L10.3666 44.2371C10.5269 44.5884 10.9512 44.7498 11.3095 44.5884L13.893 43.3827L21.719 49.0125C22.0301 49.2403 22.4827 49.1644 22.709 48.8416L30.0258 38.5124H48.4216C48.8176 38.5124 49.1287 38.1896 49.1287 37.8003V12.1956C49.1382 11.8064 48.8176 11.4836 48.431 11.4836ZM38.6438 7.00251L40.7088 11.4836H29.0452L38.6438 7.00251ZM28.0363 2.56891L34.6366 7.30631L25.6885 11.4836H21.719L28.0363 2.56891ZM17.4571 32.0946V37.0029C17.4571 37.0313 17.4571 37.0598 17.4666 37.0883H13.2141C13.2141 37.0598 13.2236 37.0313 13.2236 37.0029V32.0946V30.7654V12.9076H17.4666V30.7654V32.0946H17.4571ZM2.27664 37.0883V12.9076H11.8941V30.7654H7.6511C7.28337 30.7654 6.99108 31.0598 6.99108 31.43C6.99108 31.8003 7.28337 32.0946 7.6511 32.0946H11.8941V37.0029C11.8941 37.0313 11.8941 37.0598 11.9035 37.0883H2.27664ZM11.3567 42.9934L9.29173 38.5124H20.9553L11.3567 42.9934ZM21.9641 47.4365L15.3639 42.6991L24.3119 38.5219H28.2815L21.9641 47.4365ZM47.7238 37.0883H18.7772C18.7772 37.0598 18.7866 37.0313 18.7866 37.0029V32.0946H30.8556C31.2233 32.0946 31.5156 31.8003 31.5156 31.43C31.5156 31.0598 31.2233 30.7654 30.8556 30.7654H18.7772V12.9076H20.3329H41.8119H47.7238V37.0883ZM35.6643 21.3191H36.8995V17.009H40.4447C42.4625 17.009 43.594 18.0343 43.594 19.8001C43.594 21.5755 42.4625 22.6293 40.4447 22.6293H38.4081V23.5027H41.1236V24.3287H38.4081V26.1705H36.8995V24.3287H35.6643V23.5027H36.8995V22.6293H35.6643V21.3191ZM40.2279 21.3191C41.5762 21.3191 42.0854 20.74 42.0854 19.8001C42.0854 18.8602 41.5762 18.3096 40.2279 18.3096H38.4081V21.3191H40.2279Z" fill="url(#paint0_linear_6928_1998)"/>
</g>
<defs>
<linearGradient id="paint0_linear_6928_1998" x1="10.8173" y1="49.1438" x2="53.154" y2="35.9007" gradientUnits="userSpaceOnUse">
<stop stop-color="#FE5000"/>
<stop offset="1" stop-color="#FCA92A"/>
</linearGradient>
<clipPath id="clip0_6928_1998">
<rect width="48.2759" height="48.2759" fill="white" transform="translate(0.862305 0.862305)"/>
</clipPath>
</defs>
</svg>
