<svg width="56" height="56" viewBox="0 0 56 56" fill="none" xmlns="http://www.w3.org/2000/svg">
<path d="M31.6355 16.5631V13.4491C31.6355 7.47083 7.99854 7.47083 7.99854 13.4491V31.6632C7.99854 34.0133 11.6773 35.4783 16.1029 35.9992C14.4842 36.7251 13.4532 37.7058 13.4532 38.9488V44.413C13.4532 47.4022 19.3989 48.9665 25.2718 48.9665C31.1447 48.9665 37.0903 47.4021 37.0903 44.413V41.6658C42.6519 41.5129 47.9997 39.9622 47.9997 37.1274V20.7348C47.9996 16.9606 38.5821 15.572 31.6355 16.5631ZM19.8171 10.7836C26.2875 10.7836 29.8173 12.5849 29.8173 13.511C29.8173 14.437 26.2874 16.2383 19.8171 16.2383C13.3468 16.2383 9.81682 14.437 9.81682 13.511C9.81674 12.585 13.3467 10.7836 19.8171 10.7836ZM9.81674 16.0408C12.0227 17.3685 15.9303 18.0566 19.817 18.0566C23.7037 18.0566 27.6113 17.3685 29.8173 16.0408V16.9443C26.6579 17.6449 24.3626 18.9245 24.3626 20.784V21.3218C22.9378 21.5504 21.3999 21.693 19.8171 21.693C13.3467 21.693 9.81682 19.8917 9.81682 18.9657V16.0408H9.81674ZM26.1808 34.2231C26.3538 34.3272 26.5339 34.4284 26.7271 34.5245C26.5451 34.5169 26.3635 34.5095 26.1808 34.5047V34.2231ZM9.81674 21.4955C12.0227 22.8232 15.9303 23.5113 19.817 23.5113C21.3907 23.5113 22.9203 23.37 24.3625 23.1545V27.6857C22.9378 27.9143 21.3998 28.0569 19.817 28.0569C13.3466 28.0569 9.81674 26.2555 9.81674 25.3295V21.4955ZM9.81674 31.6933V27.8594C12.0227 29.1871 15.9303 29.8751 19.817 29.8751C21.3907 29.8751 22.9203 29.7338 24.3625 29.5184V34.0495C22.9378 34.2781 21.3998 34.4207 19.817 34.4207C13.3467 34.4207 9.81674 32.6193 9.81674 31.6933ZM35.272 44.421C35.272 45.347 31.7421 47.1483 25.2718 47.1483C18.8015 47.1483 15.2714 45.347 15.2714 44.421V41.496C17.4774 42.8237 21.385 43.5118 25.2717 43.5118C28.9921 43.5118 32.7367 42.883 34.9854 41.665C35.0798 41.6685 35.1771 41.669 35.2719 41.6719V44.421H35.272ZM25.2718 41.6936C18.8014 41.6936 15.2715 39.8923 15.2715 38.9663C15.2715 38.0402 18.8015 36.2389 25.2718 36.2389C31.7421 36.2389 35.272 38.0402 35.272 38.9663C35.272 39.8923 31.7421 41.6936 25.2718 41.6936ZM46.1814 37.148C46.1814 38.028 42.9601 39.6801 37.0902 39.8439V38.9663C37.0902 37.8304 36.2307 36.9123 34.8442 36.2088C35.2887 36.2268 35.7347 36.2389 36.1811 36.2389C40.0678 36.2389 43.9754 35.5508 46.1813 34.2231V37.148H46.1814ZM46.1814 31.6933C46.1814 32.6194 42.6515 34.4207 36.1812 34.4207C29.7109 34.4207 26.1809 32.6194 26.1809 31.6933V28.7684C28.3868 30.0961 32.2944 30.7842 36.1812 30.7842C40.0679 30.7842 43.9755 30.0961 46.1814 28.7684V31.6933ZM46.1814 26.2387C46.1814 27.1647 42.6515 28.966 36.1812 28.966C29.7109 28.966 26.1809 27.1647 26.1809 26.2387V23.3137C28.3868 24.6414 32.2944 25.3295 36.1812 25.3295C40.0679 25.3295 43.9755 24.6414 46.1814 23.3137V26.2387ZM36.1812 23.5113C29.7108 23.5113 26.1809 21.71 26.1809 20.784C26.1809 19.8579 29.7109 18.0566 36.1812 18.0566C42.6515 18.0566 46.1814 19.8579 46.1814 20.784C46.1814 21.71 42.6515 23.5113 36.1812 23.5113Z" fill="url(#paint0_linear_6928_1876)"/>
<defs>
<linearGradient id="paint0_linear_6928_1876" x1="16.2488" y1="48.9665" x2="51.3322" y2="37.9865" gradientUnits="userSpaceOnUse">
<stop stop-color="#FE5000"/>
<stop offset="1" stop-color="#FCA92A"/>
</linearGradient>
</defs>
</svg>
