<svg width="44" height="44" viewBox="0 0 44 44" fill="none" xmlns="http://www.w3.org/2000/svg">
<path fill-rule="evenodd" clip-rule="evenodd" d="M3.22119 3.92858C3.22119 3.53803 3.53779 3.22144 3.92833 3.22144H9.42833C9.81888 3.22144 10.1355 3.53803 10.1355 3.92858C10.1355 4.31912 9.81888 4.63572 9.42833 4.63572H4.63548V9.42858C4.63548 9.81912 4.31888 10.1357 3.92833 10.1357C3.53779 10.1357 3.22119 9.81912 3.22119 9.42858V3.92858ZM29.4528 8.83004C29.3518 8.83004 29.248 8.81042 29.15 8.77141C27.1134 7.94601 24.7549 7.52799 22.1372 7.52799C19.5022 7.52799 17.1437 7.94602 15.1275 8.77012C14.7604 8.91986 14.3259 8.77797 14.1576 8.45104C13.9893 8.12432 14.1502 7.73768 14.5159 7.58792C16.7252 6.68453 19.2885 6.22616 22.137 6.22616C24.965 6.22616 27.5285 6.68451 29.7555 7.58664C30.1226 7.73507 30.285 8.12172 30.1182 8.44841C29.997 8.68947 29.7307 8.83005 29.4528 8.83004ZM11.8959 14.0377C11.7115 14.0377 11.5258 13.9751 11.3823 13.8489C11.0957 13.5976 11.0928 13.1848 11.3764 12.9285C14.3524 10.2479 18.0732 8.83009 22.1345 8.83009C26.2122 8.83009 29.9355 10.2479 32.9014 12.9298C33.1853 13.1851 33.1809 13.5989 32.8926 13.8502C32.6043 14.1016 32.1406 14.0976 31.8582 13.8424C29.1735 11.4144 25.8097 10.1319 22.1347 10.1319C18.4727 10.1319 15.1131 11.4157 12.4169 13.845C12.2736 13.9725 12.085 14.0377 11.8961 14.0377L11.8959 14.0377ZM33.1082 22.4998C33.1082 22.8592 33.4359 23.1509 33.8398 23.1509L33.8396 23.1507C34.2435 23.1507 34.5713 22.8591 34.571 22.4997C34.571 16.3978 28.9923 11.4336 22.135 11.4336C21.0903 11.4336 20.0544 11.5483 19.0539 11.776C18.6617 11.8647 18.4261 12.2187 18.5256 12.5663C18.625 12.9166 19.0216 13.1263 19.4166 13.0362C20.2972 12.837 21.2133 12.7355 22.135 12.7355C28.1864 12.7355 33.1082 17.115 33.1082 22.4998ZM10.4332 23.1509H10.4215C10.0176 23.1444 9.69422 22.8501 9.70162 22.4896C9.75428 19.5226 11.0375 16.761 13.3154 14.7121C14.0865 14.0169 14.9541 13.4168 15.8904 12.9286C16.2373 12.7477 16.6862 12.8506 16.8912 13.1616C17.0945 13.4715 16.9775 13.8711 16.6294 14.0535C15.8042 14.4831 15.039 15.0129 14.3556 15.6288C12.344 17.4372 11.2114 19.8822 11.1646 22.5107C11.1587 22.866 10.8324 23.1511 10.4332 23.1511L10.4332 23.1509ZM11.1263 28.9261C11.2402 28.9822 11.3632 29.0094 11.4847 29.0094L11.4845 29.0093C11.7408 29.0093 11.9879 28.8897 12.1226 28.6774L12.5542 27.9926C13.5638 26.1413 14.0949 24.3081 14.089 22.6599C14.089 20.6681 14.923 18.8206 16.4357 17.4589C17.9544 16.0919 19.9778 15.3393 22.1345 15.3393C24.4565 15.3393 26.6687 16.2351 28.2003 17.7998C28.4681 18.0707 28.929 18.0966 29.2332 17.8623C29.5377 17.6254 29.5683 17.2152 29.3035 16.9432C27.4938 15.0959 24.8808 14.0375 22.1346 14.0375C19.583 14.0375 17.1893 14.928 15.3958 16.5435C13.6093 18.1513 12.6261 20.323 12.6261 22.695C12.6305 24.0945 12.1389 25.774 11.2581 27.3884L10.8469 28.0395C10.6494 28.3533 10.7736 28.7505 11.1263 28.9261ZM32.3039 30.8452C31.9908 30.8452 31.6996 30.6643 31.6031 30.3843L30.7661 27.9314C30.2569 25.873 30.2145 23.9945 30.1898 22.8709L30.181 22.5168C30.181 21.6835 30.0274 20.8814 29.7229 20.1173C29.5882 19.7775 29.7873 19.4066 30.1677 19.2854C30.5496 19.1668 30.968 19.344 31.1012 19.6825C31.461 20.5859 31.644 21.5351 31.644 22.4998L31.6528 22.8461L31.6532 22.8644C31.6782 23.9406 31.7199 25.7301 32.1809 27.6021L33.0046 30.0054C33.1217 30.3504 32.9037 30.7135 32.5175 30.8178C32.4457 30.8361 32.3742 30.8452 32.3039 30.8452ZM29.4713 33.3971C29.5692 33.6772 29.859 33.8554 30.1706 33.8554L30.1709 33.8554C30.2441 33.8554 30.3156 33.8462 30.3889 33.8253C30.7751 33.7185 30.9902 33.3541 30.8702 33.0104L30.1912 31.0732C28.9856 27.7221 28.7603 23.9491 28.7194 22.5001C28.7194 19.27 25.7655 16.6415 22.1355 16.6415C18.5055 16.6415 15.5528 19.3105 15.5528 22.6134C15.5543 23.2985 15.4125 26.9178 12.3241 30.8824C12.0931 31.1779 12.1764 31.5839 12.5085 31.7884C12.8377 31.9902 13.2955 31.9185 13.5267 31.6243C16.7819 27.4464 17.0204 23.6668 17.016 22.5914C17.016 20.0291 19.3116 17.9435 22.1337 17.9435C24.9576 17.9435 27.2546 19.9888 27.2546 22.5171C27.3073 24.4075 27.5779 28.084 28.7953 31.4651L29.4713 33.3971ZM19.222 37.4721C19.067 37.4721 18.9105 37.4278 18.7757 37.3367C18.4554 37.1168 18.3968 36.7092 18.6425 36.4242C24.3544 29.8207 24.3485 23.2434 24.3294 22.5147C24.3294 21.4223 23.3433 20.5461 22.1333 20.5461C20.9234 20.5461 19.9387 21.4223 19.9387 22.499C19.9475 22.7087 20.1261 28.2767 15.1617 34.026C14.9158 34.3111 14.458 34.3645 14.1362 34.1458C13.8158 33.927 13.7558 33.5184 14.0014 33.2333C18.6467 27.8524 18.4858 22.7386 18.4769 22.5226C18.4769 20.7038 20.117 19.2431 22.1346 19.2431C24.1521 19.2431 25.7922 20.7025 25.7922 22.4978C25.8143 23.2554 25.8302 30.2479 19.8023 37.2163C19.6595 37.3854 19.4415 37.4726 19.222 37.4726L19.222 37.4721ZM21.7782 25.7443C21.8176 25.7495 21.8573 25.7521 21.8953 25.7521L21.8953 25.7521C22.2492 25.7521 22.5595 25.5244 22.6181 25.2053C22.9092 23.5915 22.8688 22.5643 22.8654 22.476L22.8652 22.4712C22.8476 22.1107 22.5184 21.8621 22.103 21.8503C21.6993 21.866 21.3861 22.1704 21.4037 22.5285L21.4038 22.5317C21.4058 22.5937 21.4366 23.5335 21.1725 24.9982C21.108 25.3524 21.3802 25.6869 21.7782 25.7443ZM16.5709 36.2391C16.4114 36.2391 16.249 36.1922 16.1143 36.0972C15.7984 35.8721 15.7472 35.4632 15.9987 35.182C18.0822 32.8632 19.6022 30.292 20.5183 27.5424C20.6339 27.1974 21.042 27.0047 21.4282 27.1024C21.816 27.2039 22.0369 27.566 21.9213 27.9107C20.9513 30.823 19.3434 33.5428 17.1414 35.9956C16.9981 36.1547 16.786 36.2393 16.5709 36.2393L16.5709 36.2391ZM22.2916 37.3704C22.4131 37.4395 22.549 37.472 22.6837 37.472L22.6837 37.4722C22.9252 37.4722 23.1623 37.3654 23.2999 37.1725C24.4323 35.5869 25.4578 33.7668 26.128 32.4987C26.1453 32.5443 26.1623 32.5902 26.1793 32.6359L26.1793 32.636L26.1793 32.6361L26.1794 32.6361L26.1794 32.6362C26.2012 32.6949 26.2229 32.7535 26.2451 32.8112L27.1215 35.294C27.2415 35.6364 27.6511 35.8303 28.0388 35.7209C28.4236 35.6128 28.6386 35.2471 28.5171 34.9047L27.6363 32.4089C27.3243 31.5795 27.0307 30.7059 26.9681 30.5195L26.9681 30.5195L26.9559 30.4833C26.8682 30.2191 26.6047 30.033 26.2961 30.0173C25.9727 29.9861 25.7006 30.1605 25.5806 30.4131L25.5793 30.4159C25.5242 30.5306 23.9116 33.8876 22.0662 36.472C21.8497 36.7754 21.9506 37.1791 22.2916 37.3704ZM3.92833 40.7786C3.53779 40.7786 3.22119 40.462 3.22119 40.0714V34.5714C3.22119 34.1809 3.53779 33.8643 3.92833 33.8643C4.31888 33.8643 4.63548 34.1809 4.63548 34.5714V39.3643H9.42833C9.81888 39.3643 10.1355 39.6809 10.1355 40.0714C10.1355 40.462 9.81888 40.7786 9.42833 40.7786H3.92833ZM40.7783 3.92858C40.7783 3.53803 40.4617 3.22144 40.0712 3.22144H34.5712C34.1806 3.22144 33.8641 3.53803 33.8641 3.92858C33.8641 4.31912 34.1806 4.63572 34.5712 4.63572H39.3641V9.42858C39.3641 9.81912 39.6806 10.1357 40.0712 10.1357C40.4617 10.1357 40.7783 9.81912 40.7783 9.42858V3.92858ZM40.0712 40.7786C40.4617 40.7786 40.7783 40.462 40.7783 40.0714V34.5714C40.7783 34.1809 40.4617 33.8643 40.0712 33.8643C39.6806 33.8643 39.3641 34.1809 39.3641 34.5714V39.3643H34.5712C34.1806 39.3643 33.8641 39.6809 33.8641 40.0714C33.8641 40.462 34.1806 40.7786 34.5712 40.7786H40.0712Z" fill="url(#paint0_linear_6929_2144)"/>
<defs>
<linearGradient id="paint0_linear_6929_2144" x1="3.22119" y1="40.7786" x2="40.7783" y2="3.22144" gradientUnits="userSpaceOnUse">
<stop stop-color="#FE5000"/>
<stop offset="1" stop-color="#FE9800"/>
</linearGradient>
</defs>
</svg>
