<svg width="44" height="44" viewBox="0 0 44 44" fill="none" xmlns="http://www.w3.org/2000/svg">
<path d="M21.7482 4H11.2517C8.35767 4 6 6.35718 6 9.25076V34.7492C6 37.6358 8.35767 39.993 11.2517 39.993H12.7482C13.1647 39.993 13.4965 39.6542 13.4965 39.2448C13.4965 38.8284 13.1576 38.4968 12.7482 38.4968H11.2517C9.18355 38.4968 7.50349 36.8171 7.50349 34.7492V9.25076C7.50349 7.18291 9.18355 5.50324 11.2517 5.50324H21.7482C23.8165 5.50324 25.4965 7.18291 25.4965 9.25076V16.7528C25.4965 17.1692 25.8353 17.5009 26.2447 17.5009C26.6541 17.5009 26.9929 17.1621 26.9929 16.7528V9.25076C27 6.35718 24.6424 4 21.7482 4ZM26.2518 9.99883H6.74823C6.33881 9.99883 6 10.3376 6 10.7469C6 11.1562 6.33881 11.495 6.74823 11.495H26.2447C26.6612 11.495 26.9929 11.1562 26.9929 10.7469C26.9929 10.3376 26.6612 9.99883 26.2518 9.99883ZM19.4965 30.9947H6.74823C6.33881 30.9947 6 31.3335 6 31.7428C6 32.1592 6.33881 32.4909 6.74823 32.4909H19.4965C19.9129 32.4909 20.2447 32.1522 20.2447 31.7428C20.2517 31.3335 19.9129 30.9947 19.4965 30.9947ZM18.7483 6.99941H14.2447C13.8282 6.99941 13.4965 7.33818 13.4965 7.74752C13.4965 8.15685 13.8353 8.49558 14.2447 8.49558H18.7483C19.1647 8.49558 19.4965 8.15685 19.4965 7.74752C19.4965 7.33818 19.1647 6.99941 18.7483 6.99941ZM21.7835 6.99941H21.7694C21.3529 6.99941 21.0282 7.33818 21.0282 7.74752C21.0282 8.15685 21.3741 8.49558 21.7835 8.49558C22.193 8.49558 22.5318 8.15685 22.5318 7.74752C22.5318 7.33818 22.193 6.99941 21.7835 6.99941ZM39.8542 23.8455L34.2141 17.6491C33.0988 16.5341 31.2776 16.534 30.1553 17.6561C29.7953 18.0161 29.5553 18.4395 29.4282 18.8983C28.3058 18.0372 26.6894 18.1219 25.6517 19.1594C25.2989 19.5193 25.0518 19.9428 24.9247 20.4015C23.8023 19.5405 22.1858 19.6251 21.1553 20.6626C20.8024 21.0155 20.5623 21.4319 20.4353 21.8694L17.7741 19.2088C16.6589 18.0937 14.8377 18.0937 13.7153 19.2158C12.6 20.3309 12.6 22.1518 13.7153 23.2668L23.9294 33.486L17.873 34.4387C16.2353 34.6717 15 36.0973 15 37.7487C15 38.9908 16.0094 40 17.2518 40H31.3977C33.6 40 35.6753 39.139 37.2282 37.5864L39.5859 35.2292C41.1459 33.6765 42 31.6016 42 29.4068C42 27.339 41.2376 25.3699 39.8542 23.8455ZM38.5271 34.1565L36.1694 36.5136C34.8918 37.791 33.1977 38.4897 31.3977 38.4897H17.2518C16.8353 38.4897 16.5035 38.151 16.5035 37.7417C16.5035 36.8312 17.1812 36.0479 18.0989 35.9138L25.6235 34.7352C25.9059 34.6928 26.1318 34.4952 26.2235 34.227C26.3083 33.9589 26.2376 33.6624 26.04 33.4648L14.7741 22.2082C14.2447 21.6789 14.2447 20.8109 14.7811 20.2674C15.0494 19.9992 15.3953 19.8651 15.7482 19.8651C16.1012 19.8651 16.447 19.9992 16.7153 20.2674L24.2189 27.7695C24.5083 28.0588 24.9882 28.0588 25.2777 27.7695C25.4258 27.6212 25.4965 27.4307 25.4965 27.2401C25.4965 27.0496 25.4258 26.859 25.2777 26.7108L22.2142 23.6479C21.6847 23.1186 21.6847 22.2505 22.2212 21.7071C22.7506 21.1778 23.6188 21.1778 24.1483 21.7071L27.2118 24.77C27.5012 25.0594 27.9812 25.0594 28.2706 24.77C28.4188 24.6219 28.4894 24.4313 28.4894 24.2408C28.4894 24.0502 28.4188 23.8596 28.2776 23.7185L26.7106 22.1518C26.1812 21.6224 26.1812 20.7544 26.7177 20.211C27.247 19.6816 28.1153 19.6816 28.6447 20.211L30.2118 21.7777C30.5082 22.0529 30.9671 22.0529 31.2565 21.7635C31.5458 21.4742 31.5458 20.9943 31.2565 20.705L31.193 20.6414C30.9318 20.3803 30.7906 20.0416 30.7906 19.6746C30.7906 19.3076 30.9318 18.9688 31.2 18.7007C31.7294 18.1713 32.5976 18.1713 33.1059 18.6725L38.7247 24.8406C39.8542 26.0827 40.4753 27.6918 40.4753 29.3785C40.5035 31.1924 39.7976 32.8861 38.5271 34.1565Z" fill="url(#paint0_linear_6929_2123)"/>
<defs>
<linearGradient id="paint0_linear_6929_2123" x1="13.425" y1="40" x2="44.9992" y2="30.1183" gradientUnits="userSpaceOnUse">
<stop stop-color="#FE5000"/>
<stop offset="1" stop-color="#FCA92A"/>
</linearGradient>
</defs>
</svg>
