<svg width="44" height="44" viewBox="0 0 44 44" fill="none" xmlns="http://www.w3.org/2000/svg">
<path d="M35.1998 6H8.7998C6.8998 6 5.2998 7.6 5.2998 9.5V33.1C5.2998 35 6.8998 36.6 8.7998 36.6H25.4998C25.8998 36.6 26.1998 36.3 26.1998 35.9C26.1998 35.5 25.8998 35.2 25.4998 35.2H8.7998C7.6998 35.2 6.6998 34.3 6.6998 33.1V12.9H37.2998V27.5C37.2998 27.9 37.5998 28.2 37.9998 28.2C38.3998 28.2 38.6998 27.9 38.6998 27.5V9.5C38.6998 7.6 37.0998 6 35.1998 6ZM37.2998 11.6H6.6998V9.5C6.6998 8.4 7.5998 7.4 8.7998 7.4H35.1998C36.2998 7.4 37.2998 8.3 37.2998 9.5V11.6ZM8.7998 10.2C9.1998 10.2 9.4998 9.9 9.4998 9.5C9.4998 9.1 9.1998 8.8 8.7998 8.8C8.3998 8.8 8.0998 9.1 8.0998 9.5C8.0998 9.9 8.3998 10.2 8.7998 10.2ZM11.5998 10.2C11.9998 10.2 12.2998 9.9 12.2998 9.5C12.2998 9.1 11.9998 8.8 11.5998 8.8C11.1998 8.8 10.8998 9.1 10.8998 9.5C10.8998 9.9 11.1998 10.2 11.5998 10.2ZM14.3998 10.2C14.7998 10.2 15.0998 9.9 15.0998 9.5C15.0998 9.1 14.7998 8.8 14.3998 8.8C13.9998 8.8 13.6998 9.1 13.6998 9.5C13.6998 9.9 13.9998 10.2 14.3998 10.2ZM38.4998 31.2L28.7998 21.5C28.5998 21.3 28.2998 21.2 27.9998 21.3C27.6998 21.4 27.5998 21.7 27.5998 21.9V35.8C27.5998 36.1 27.7998 36.3 27.9998 36.4C28.2998 36.5 28.5998 36.4 28.7998 36.2L30.8998 34.1L32.5998 37.4C32.6998 37.6 32.7998 37.7 32.9998 37.7C33.0998 37.7 33.0998 37.7 33.1998 37.7C33.2998 37.7 33.3998 37.7 33.4998 37.6L36.1998 36.2C36.4998 36 36.6998 35.6 36.4998 35.3L34.8998 32.2H37.8998C38.1998 32.2 38.3998 32 38.4998 31.8C38.6998 31.7 38.6998 31.4 38.4998 31.2ZM33.7998 31C33.5998 31 33.2998 31.1 33.1998 31.3C33.0998 31.5 33.0998 31.8 33.1998 32L34.9998 35.5L33.4998 36.3L31.6998 32.8C31.5998 32.6 31.3998 32.5 31.1998 32.4H31.0998C30.8998 32.4 30.6998 32.5 30.5998 32.6L28.9998 34.2V23.6L36.3998 31H33.7998Z" fill="url(#paint0_linear_6929_2114)"/>
<defs>
<linearGradient id="paint0_linear_6929_2114" x1="12.1886" y1="37.7" x2="41.1974" y2="28.1343" gradientUnits="userSpaceOnUse">
<stop stop-color="#FE5000"/>
<stop offset="1" stop-color="#FCA92A"/>
</linearGradient>
</defs>
</svg>
