<svg width="200" height="119" viewBox="0 0 200 119" fill="none" xmlns="http://www.w3.org/2000/svg">
<mask id="mask0_4738_1848" style="mask-type:alpha" maskUnits="userSpaceOnUse" x="0" y="0" width="200" height="119">
<rect width="200" height="119" rx="8" fill="#C4C4C4"/>
</mask>
<g mask="url(#mask0_4738_1848)">
<rect width="200" height="119" rx="8" fill="url(#paint0_linear_4738_1848)"/>
</g>
<path d="M129.514 49.7292V45.0069L108.264 30.25L87.0139 45.0069V49.7292M129.514 49.7292H131.875V53.8611H127.153M129.514 49.7292H87.0139M127.153 53.8611V73.3403M127.153 53.8611H121.25M127.153 73.3403H121.25M127.153 73.3403H129.514V77.4722M88.7847 53.8611H84.6528V49.7292H87.0139M88.7847 53.8611H95.2778M88.7847 53.8611V58.9106M95.2778 53.8611H105.313M95.2778 53.8611V63.4249M105.313 53.8611V73.3403H111.806M105.313 53.8611H111.806M111.806 53.8611V73.3403M111.806 53.8611H121.25M111.806 73.3403H121.25M121.25 53.8611V73.3403M129.514 77.4722H131.875V82.1944H100M129.514 77.4722H103.542M87.1857 69.7294H76.5607M76.5607 69.7294L80.1023 66.1878M76.5607 69.7294L80.1023 73.2711M79.8827 77.0753H90.5077M90.5077 77.0753L86.966 73.5337M90.5077 77.0753L86.966 80.617M98.9438 73.4024C98.9438 81.9128 92.0448 88.8118 83.5344 88.8118C75.024 88.8118 68.125 81.9128 68.125 73.4024C68.125 64.8921 75.024 57.9931 83.5344 57.9931C92.0448 57.9931 98.9438 64.8921 98.9438 73.4024Z" stroke="url(#paint1_linear_4738_1848)" stroke-width="2.125" stroke-linecap="round" stroke-linejoin="round"/>
<defs>
<linearGradient id="paint0_linear_4738_1848" x1="0" y1="119" x2="200" y2="119" gradientUnits="userSpaceOnUse">
<stop stop-color="#F8F8F8"/>
<stop offset="1" stop-color="#EDF3F7"/>
</linearGradient>
<linearGradient id="paint1_linear_4738_1848" x1="81.2734" y1="88.8118" x2="136.278" y2="70.0721" gradientUnits="userSpaceOnUse">
<stop stop-color="#FE5000"/>
<stop offset="1" stop-color="#FCA92A"/>
</linearGradient>
</defs>
</svg>
