<svg width="56" height="56" viewBox="0 0 56 56" fill="none" xmlns="http://www.w3.org/2000/svg">
<path fill-rule="evenodd" clip-rule="evenodd" d="M28.9299 6.81243C28.3736 6.41506 27.6262 6.41506 27.0699 6.81243L18.5999 12.8624V10.5C18.5999 9.6163 17.8836 8.89995 16.9999 8.89995H12.4999C11.6162 8.89995 10.8999 9.6163 10.8999 10.5V18.3624L6.77698 21.3074C6.04607 21.8295 5.88803 22.8508 6.42696 23.5694L8.83066 26.7743C9.31776 27.4238 10.2071 27.6 10.8999 27.2062V48.4H6.9999C6.39239 48.4 5.8999 48.8924 5.8999 49.5C5.8999 50.1075 6.39239 50.6 6.9999 50.6H11.9999H43.9999H48.9999C49.6074 50.6 50.0999 50.1075 50.0999 49.5C50.0999 48.8924 49.6074 48.4 48.9999 48.4H45.0999V27.2062C45.7927 27.6 46.682 27.4238 47.1691 26.7743L49.5728 23.5694C50.1118 22.8508 49.9537 21.8295 49.2228 21.3074L28.9299 6.81243ZM16.3999 11.1V14.4339L13.0999 16.791V11.1H16.3999ZM13.0999 48.4V25.6864L27.9999 15.3392L42.8999 25.6864V48.4H13.0999ZM18.1393 15.8951L27.9999 8.85175L47.4444 22.7407L45.7562 24.9915L44.6273 24.2076L28.9125 13.2945C28.3638 12.9134 27.636 12.9134 27.0873 13.2945L11.3725 24.2076L10.2436 24.9915L8.55543 22.7407L12.6393 19.8236L18.1393 15.8951ZM24.1999 36.8V29.2H31.7999V36.8H24.1999ZM21.9999 28C21.9999 27.4477 22.4476 27 22.9999 27H32.9999C33.5522 27 33.9999 27.4477 33.9999 28V38C33.9999 38.5522 33.5522 39 32.9999 39H22.9999C22.4476 39 21.9999 38.5522 21.9999 38V28Z" fill="url(#paint0_linear_4738_1629)"/>
<defs>
<linearGradient id="paint0_linear_4738_1629" x1="15.0162" y1="50.5999" x2="53.7642" y2="38.4416" gradientUnits="userSpaceOnUse">
<stop stop-color="#FE5000"/>
<stop offset="1" stop-color="#FCA92A"/>
</linearGradient>
</defs>
</svg>
