<svg width="56" height="56" viewBox="0 0 56 56" fill="none" xmlns="http://www.w3.org/2000/svg">
<path d="M50.4625 28.8038L41.7625 15.2408C41.7437 15.2127 41.7156 15.1752 41.6969 15.1377L41.5 14.8846C40.7687 14.0035 39.9531 13.0006 38.3406 13.0006H33.0062V11.8477C32.9875 10.4136 32.1719 9.12947 30.9062 8.46397C29.5938 7.79848 28.0844 7.85471 26.875 8.59519C25.7219 9.30756 25 10.5542 25 11.9039V13.0006H6.52187C4.9375 13.0006 4 14.4534 4 15.8594V39.5173C4 40.9795 5.04062 42.0012 6.52187 42.0012H11.0031C11.0031 45.3099 13.6937 48 17.0031 48C20.3125 48 23.0031 45.3099 23.0031 42.0012H35.0031C35.0031 45.3099 37.6938 48 41.0031 48C44.3125 48 47.0031 45.3099 47.0031 42.0012H49.1312C50.7437 42.0012 52 40.9139 52 39.5079V32.7499C52 30.8658 50.5656 28.9537 50.4625 28.8038ZM41.7719 18.9994L47.5656 27.9977H35.9969V18.9994H41.7719ZM26.9969 11.9039C27.0063 11.2478 27.3531 10.6385 27.9156 10.3011C28.5344 9.91681 29.2937 9.89807 29.9969 10.2542C30.5875 10.5636 30.9625 11.1728 31 11.8477V13.0006H26.9969V11.9039ZM17.0031 45.9941C14.7906 45.9941 13 44.2039 13 41.9918C13 39.7797 14.7906 37.9895 17.0031 37.9895C19.2156 37.9895 21.0062 39.7797 21.0062 41.9918C20.9969 44.2039 19.2062 45.9941 17.0031 45.9941ZM41.0031 45.9941C38.7906 45.9941 37 44.2039 37 41.9918C37 39.7797 38.7906 37.9895 41.0031 37.9895C43.2156 37.9895 45.0062 39.7797 45.0062 41.9918C44.9969 44.2039 43.2063 45.9941 41.0031 45.9941ZM50.0031 39.5173C50.0031 39.8078 49.5438 39.9953 49.1312 39.9953H46.6469C45.55 36.874 42.1281 35.2337 39.0062 36.3398C37.3 36.9397 35.95 38.2894 35.35 39.9953H22.6469C21.55 36.874 18.1281 35.2337 15.0063 36.3398C13.2719 36.949 11.9125 38.3175 11.3219 40.0609C11.2188 40.0234 11.1156 40.0047 10.9937 39.9953H6.52187C6.08125 39.9953 6.00625 39.836 6.00625 39.5173V15.8594C6.00625 15.447 6.24062 14.9971 6.52187 14.9971H38.3313C38.9313 14.9971 39.2312 15.297 39.9344 16.15L40.4875 17.0029H35.0031C34.45 17.0029 34 17.4528 34 18.0059V29.0006C34 29.5536 34.45 30.0035 35.0031 30.0035H48.8594C49.1875 30.4441 50.0031 31.7657 50.0031 32.7592V39.5173ZM21.9719 24.9982H19V22.0269C19 21.5302 18.6437 21.0803 18.1469 21.0053C17.5281 20.9115 16.9938 21.3989 16.9938 21.9988V24.9982H14.0312C13.5344 24.9982 13.0844 25.3544 13.0094 25.8512C12.9156 26.4698 13.4031 27.0041 14.0031 27.0041H17.0031V29.966C17.0031 30.4628 17.3594 30.9127 17.8563 30.9877C18.475 31.0814 19.0094 30.594 19.0094 29.9941V26.9947H22.0094C22.6094 26.9947 23.0875 26.4605 23.0031 25.8418C22.9187 25.3638 22.4688 24.9982 21.9719 24.9982Z" fill="url(#paint0_linear_4738_1694)"/>
<defs>
<linearGradient id="paint0_linear_4738_1694" x1="13.9" y1="48" x2="54.4088" y2="32.7865" gradientUnits="userSpaceOnUse">
<stop stop-color="#FE5000"/>
<stop offset="1" stop-color="#FCA92A"/>
</linearGradient>
</defs>
</svg>
