<svg width="66" height="66" viewBox="0 0 66 66" fill="none" xmlns="http://www.w3.org/2000/svg">
<path d="M42.694 26.7148H21.3416C20.8968 26.7148 20.452 27.0696 20.452 27.6017C20.452 28.0452 20.8078 28.4887 21.3416 28.4887H42.694C43.1388 28.4887 43.5836 28.1339 43.5836 27.6017C43.5836 27.0696 43.1388 26.7148 42.694 26.7148ZM21.3416 21.5704H29.8826C30.3274 21.5704 30.7722 21.2157 30.7722 20.6835C30.7722 20.24 30.4164 19.7965 29.8826 19.7965H21.3416C20.8968 19.7965 20.452 20.1513 20.452 20.6835C20.5409 21.2157 20.8968 21.5704 21.3416 21.5704ZM42.694 33.5443H21.3416C20.8968 33.5443 20.452 33.8991 20.452 34.4313C20.452 34.8748 20.8078 35.3183 21.3416 35.3183H42.694C43.1388 35.3183 43.5836 34.9635 43.5836 34.4313C43.5836 33.8991 43.1388 33.5443 42.694 33.5443ZM35.8434 40.2852H21.3416C20.8968 40.2852 20.452 40.64 20.452 41.1722C20.452 41.7043 20.8078 42.0591 21.3416 42.0591H35.8434C36.2883 42.0591 36.7331 41.7043 36.7331 41.1722C36.7331 40.64 36.3772 40.2852 35.8434 40.2852ZM33.3523 48.8C33.7972 48.8 34.242 48.4452 34.242 47.913C34.242 47.3809 33.8861 47.0261 33.3523 47.0261H21.3416C20.8968 47.0261 20.452 47.3809 20.452 47.913C20.452 48.4452 20.8078 48.8 21.3416 48.8H33.3523ZM13.6904 9.68522H38.4235V21.5704H50.3452V36.9148H52.0356V20.4174L39.5801 8H12V59H36.7331V57.3148H13.6904V9.68522ZM40.1139 10.927L49.0996 19.8852H40.1139V10.927ZM61.1993 39.5757L58.7972 37.1809C57.8185 36.2052 56.1281 36.2052 55.2384 37.1809L42.0712 50.2191L40.2918 56.8713L39.847 57.3148C39.4911 57.6696 39.4911 58.2017 39.847 58.4678C40.0249 58.6452 40.2028 58.7339 40.4698 58.7339C40.6477 58.7339 40.9146 58.6452 41.0925 58.4678L41.5374 58.0243L48.21 56.2504L61.2883 43.2122C61.7331 42.7687 62 42.0591 62 41.4383C61.911 40.7287 61.6441 40.1078 61.1993 39.5757ZM44.0285 50.6626L52.7473 41.9704L56.395 45.607L47.5872 54.2991L44.0285 50.6626ZM43.2278 52.3478L45.9858 55.0974L42.2491 56.1617L43.2278 52.3478ZM59.9537 41.9704L57.5516 44.3652L53.9039 40.8174L56.306 38.4226C56.6619 38.0678 57.1957 38.0678 57.4626 38.4226L59.8648 40.8174C60.0427 40.9948 60.1317 41.1722 60.1317 41.4383C60.2206 41.6157 60.1317 41.793 59.9537 41.9704Z" fill="url(#paint0_linear_4738_1877)"/>
<defs>
<linearGradient id="paint0_linear_4738_1877" x1="22.3125" y1="59" x2="66.318" y2="45.4978" gradientUnits="userSpaceOnUse">
<stop stop-color="#FE5000"/>
<stop offset="1" stop-color="#FCA92A"/>
</linearGradient>
</defs>
</svg>
