<svg width="170" height="51" viewBox="0 0 170 51" fill="none" xmlns="http://www.w3.org/2000/svg">
<path d="M163.074 50.1021H6.59263C3.08745 50.1021 0.333374 47.3521 0.333374 43.8521V6.35205C0.333374 2.85205 3.08745 0.102051 6.59263 0.102051H163.074C166.579 0.102051 169.333 2.85205 169.333 6.35205V43.8521C169.333 47.3521 166.579 50.1021 163.074 50.1021Z" fill="white"/>
<path d="M85.5844 27.352C82.58 27.352 80.2015 29.6021 80.2015 32.7271C80.2015 35.7271 82.58 38.1021 85.5844 38.1021C88.5889 38.1021 90.9674 35.8521 90.9674 32.7271C90.9674 29.4771 88.5889 27.352 85.5844 27.352ZM85.5844 35.8521C83.957 35.8521 82.58 34.4771 82.58 32.6021C82.58 30.7271 83.957 29.3521 85.5844 29.3521C87.2118 29.3521 88.5889 30.6021 88.5889 32.6021C88.5889 34.4771 87.2118 35.8521 85.5844 35.8521ZM73.9422 27.352C70.9378 27.352 68.5592 29.6021 68.5592 32.7271C68.5592 35.7271 70.9378 38.1021 73.9422 38.1021C76.9466 38.1021 79.3252 35.8521 79.3252 32.7271C79.3252 29.4771 76.9466 27.352 73.9422 27.352ZM73.9422 35.8521C72.3148 35.8521 70.9378 34.4771 70.9378 32.6021C70.9378 30.7271 72.3148 29.3521 73.9422 29.3521C75.5696 29.3521 76.9466 30.6021 76.9466 32.6021C76.9466 34.4771 75.5696 35.8521 73.9422 35.8521ZM60.0466 28.9771V31.2271H65.4296C65.3044 32.4771 64.8037 33.4771 64.1778 34.1021C63.4266 34.8521 62.1748 35.7271 60.0466 35.7271C56.6666 35.7271 54.1629 33.1021 54.1629 29.7271C54.1629 26.3521 56.7918 23.7271 60.0466 23.7271C61.7992 23.7271 63.1763 24.4771 64.1778 25.3521L65.8052 23.7271C64.4281 22.477 62.6755 21.4771 60.1718 21.4771C55.6652 21.4771 51.7844 25.2271 51.7844 29.7271C51.7844 34.2271 55.6652 37.9771 60.1718 37.9771C62.6755 37.9771 64.4281 37.2271 65.9304 35.6021C67.4326 34.1021 67.9333 31.9771 67.9333 30.3521C67.9333 29.8521 67.9333 29.3521 67.8081 28.9771H60.0466ZM116.881 30.7271C116.38 29.4771 115.128 27.352 112.374 27.352C109.62 27.352 107.367 29.4771 107.367 32.7271C107.367 35.7271 109.62 38.1021 112.624 38.1021C115.003 38.1021 116.505 36.6021 117.006 35.7271L115.253 34.4771C114.627 35.3521 113.876 35.9771 112.624 35.9771C111.373 35.9771 110.621 35.4771 109.996 34.3521L117.131 31.3521L116.881 30.7271ZM109.62 32.4771C109.62 30.4771 111.247 29.3521 112.374 29.3521C113.25 29.3521 114.127 29.852 114.377 30.477L109.62 32.4771ZM103.736 37.6021H106.115V21.9771H103.736V37.6021ZM99.9807 28.4771C99.3548 27.8521 98.3533 27.2271 97.1015 27.2271C94.4726 27.2271 91.9689 29.6021 91.9689 32.6021C91.9689 35.6021 94.3474 37.8521 97.1015 37.8521C98.3533 37.8521 99.3548 37.2271 99.8555 36.6021H99.9807V37.3521C99.9807 39.3521 98.8541 40.4771 97.1015 40.4771C95.7244 40.4771 94.7229 39.4771 94.4726 38.6021L92.4696 39.4771C93.0955 40.8521 94.5978 42.6021 97.2266 42.6021C99.9807 42.6021 102.234 40.9771 102.234 37.1021V27.6021H99.9807V28.4771ZM97.2266 35.8521C95.5992 35.8521 94.2222 34.4771 94.2222 32.6021C94.2222 30.7271 95.5992 29.3521 97.2266 29.3521C98.854 29.3521 100.106 30.7271 100.106 32.6021C100.106 34.4771 98.854 35.8521 97.2266 35.8521ZM127.772 21.9771H122.138V37.6021H124.517V31.7271H127.772C130.401 31.7271 132.904 29.8521 132.904 26.8521C132.904 23.852 130.401 21.9771 127.772 21.9771ZM127.897 29.4771H124.517V24.1021H127.897C129.65 24.1021 130.651 25.602 130.651 26.727C130.526 28.102 129.524 29.4771 127.897 29.4771ZM142.293 27.2271C140.541 27.2271 138.788 27.9771 138.162 29.6021L140.29 30.477C140.791 29.602 141.542 29.3521 142.418 29.3521C143.67 29.3521 144.797 30.1021 144.922 31.3521V31.4771C144.547 31.2271 143.545 30.8521 142.544 30.8521C140.29 30.8521 138.037 32.1021 138.037 34.3521C138.037 36.4771 139.915 37.8521 141.918 37.8521C143.545 37.8521 144.296 37.1021 144.922 36.3521H145.047V37.6021H147.301V31.6021C147.05 28.8521 144.922 27.2271 142.293 27.2271ZM142.043 35.8521C141.292 35.8521 140.165 35.4771 140.165 34.4771C140.165 33.2271 141.542 32.8521 142.669 32.8521C143.67 32.8521 144.171 33.1021 144.797 33.3521C144.547 34.8521 143.295 35.8521 142.043 35.8521ZM155.187 27.6021L152.558 34.3521H152.433L149.679 27.6021H147.176L151.307 37.1021L148.928 42.3521H151.307L157.691 27.6021H155.187ZM134.156 37.6021H136.535V21.9771H134.156V37.6021Z" fill="#373A36"/>
<g clip-path="url(#clip0)">
<path d="M18.1577 10.5816C16.9823 9.93287 15.6022 9.94787 14.4343 10.591L28.1226 23.1996L32.721 18.608L18.1577 10.5816Z" fill="#373A36"/>
<path d="M13.0641 11.8809C12.7299 12.4265 12.5383 13.0508 12.5383 13.7126V36.4851C12.5383 37.1263 12.713 37.7375 13.0284 38.2719L26.7936 24.527L13.0641 11.8809Z" fill="#373A36"/>
<path d="M38.8177 21.9683L34.4315 19.5515L29.5026 24.4712L35.543 30.0341L38.8196 28.2285C39.9988 27.5761 40.7048 26.4061 40.7048 25.0975C40.7029 23.7888 39.9988 22.6188 38.8177 21.9683Z" fill="#373A36"/>
<path d="M28.1752 25.7987L14.3724 39.5811C14.9714 39.9223 15.6286 40.1023 16.2895 40.1023C16.9279 40.1023 17.5701 39.941 18.1578 39.6167L33.812 30.9903L28.1752 25.7987Z" fill="#373A36"/>
</g>
<path d="M53.0363 17.977H52.16V15.477H52.9111C53.5371 14.977 53.9126 13.977 53.9126 12.6021V8.85205H58.92V15.477H59.7963V17.977H58.92V16.352H53.1615V17.977H53.0363ZM54.7889 12.6021C54.7889 13.727 54.5386 14.727 54.0378 15.477H57.7934V9.72705H54.6637V12.6021H54.7889Z" fill="#373A36" stroke="#373A36" stroke-width="0.2" stroke-miterlimit="10"/>
<path d="M67.1823 15.3521C66.4312 16.1021 65.5549 16.4771 64.4282 16.4771C63.3016 16.4771 62.4253 16.1021 61.6742 15.3521C60.923 14.6021 60.5475 13.7271 60.5475 12.6021C60.5475 11.4771 60.923 10.6021 61.6742 9.85205C62.4253 9.10205 63.3016 8.72705 64.4282 8.72705C65.5549 8.72705 66.4312 9.10205 67.1823 9.85205C67.9334 10.6021 68.309 11.4771 68.309 12.6021C68.309 13.7271 67.9334 14.6021 67.1823 15.3521ZM62.4253 14.7271C62.926 15.2271 63.6771 15.6021 64.4282 15.6021C65.1793 15.6021 65.9304 15.3521 66.4312 14.7271C66.9319 14.2271 67.3075 13.4771 67.3075 12.6021C67.3075 11.7271 67.0571 10.9771 66.4312 10.4771C65.9304 9.97705 65.1793 9.60205 64.4282 9.60205C63.6771 9.60205 62.926 9.85205 62.4253 10.4771C61.9245 10.9771 61.549 11.7271 61.549 12.6021C61.549 13.4771 61.7993 14.2271 62.4253 14.7271Z" fill="#373A36" stroke="#373A36" stroke-width="0.2" stroke-miterlimit="10"/>
<path d="M73.1912 16.4771C72.0645 16.4771 71.1882 16.1021 70.4371 15.3521C69.686 14.6021 69.3104 13.7271 69.3104 12.6021C69.3104 11.4771 69.686 10.6021 70.4371 9.85205C71.1882 9.10205 72.0645 8.72705 73.1912 8.72705C74.3178 8.72705 75.1941 9.10205 75.9453 9.97705L75.3193 10.6021C74.8186 9.97705 74.0675 9.60205 73.1912 9.60205C72.3149 9.60205 71.6889 9.85205 71.063 10.4771C70.4371 10.9771 70.1867 11.7271 70.1867 12.6021C70.1867 13.4771 70.4371 14.2271 71.063 14.7271C71.5638 15.2271 72.3149 15.6021 73.1912 15.6021C74.0675 15.6021 74.8186 15.2271 75.4445 14.4771L76.0704 15.1021C75.6949 15.4771 75.3193 15.8521 74.8186 16.1021C74.3178 16.3521 73.8171 16.4771 73.1912 16.4771Z" fill="#373A36" stroke="#373A36" stroke-width="0.2" stroke-miterlimit="10"/>
<path d="M80.0763 16.3521H79.0748V9.72705H76.9467V8.85205H82.0793V9.72705H79.9511V16.3521H80.0763Z" fill="#373A36" stroke="#373A36" stroke-width="0.2" stroke-miterlimit="10"/>
<path d="M88.7141 8.85205L85.8348 15.2271C85.4593 16.1021 84.8333 16.6021 84.0822 16.6021C83.8319 16.6021 83.5815 16.6021 83.3311 16.4771L83.5815 15.6021C83.7067 15.7271 83.9571 15.7271 84.0822 15.7271C84.3326 15.7271 84.4578 15.7271 84.583 15.6021C84.7082 15.4771 84.8333 15.3521 84.9585 15.1021L85.2089 14.4771L82.7052 8.97705H83.8319L85.7096 13.2271L87.5874 8.85205H88.7141Z" fill="#373A36" stroke="#373A36" stroke-width="0.2" stroke-miterlimit="10"/>
<path d="M89.8408 16.3521V8.85205H95.2238V16.3521H94.2223V9.72705H90.7171V16.3521H89.8408Z" fill="#373A36" stroke="#373A36" stroke-width="0.2" stroke-miterlimit="10"/>
<path d="M96.9763 16.3521V8.85205H97.9778V12.1021H101.733V8.85205H102.735V16.3521H101.733V12.9771H97.9778V16.3521H96.9763Z" fill="#373A36" stroke="#373A36" stroke-width="0.2" stroke-miterlimit="10"/>
<path d="M110.622 15.3521C109.87 16.1021 108.994 16.4771 107.867 16.4771C106.741 16.4771 105.864 16.1021 105.113 15.3521C104.362 14.6021 103.987 13.7271 103.987 12.6021C103.987 11.4771 104.362 10.6021 105.113 9.85205C105.864 9.10205 106.741 8.72705 107.867 8.72705C108.994 8.72705 109.87 9.10205 110.622 9.85205C111.373 10.6021 111.748 11.4771 111.748 12.6021C111.623 13.7271 111.247 14.6021 110.622 15.3521ZM105.739 14.7271C106.24 15.2271 106.991 15.6021 107.742 15.6021C108.493 15.6021 109.244 15.3521 109.745 14.7271C110.246 14.2271 110.622 13.4771 110.622 12.6021C110.622 11.7271 110.371 10.9771 109.745 10.4771C109.244 9.97705 108.493 9.60205 107.742 9.60205C106.991 9.60205 106.24 9.85205 105.739 10.4771C105.239 10.9771 104.863 11.7271 104.863 12.6021C104.863 13.4771 105.239 14.2271 105.739 14.7271Z" fill="#373A36" stroke="#373A36" stroke-width="0.2" stroke-miterlimit="10"/>
<path d="M115.629 16.3521V8.85205H118.383C119.009 8.85205 119.51 9.10205 119.885 9.47705C120.261 9.85205 120.511 10.3521 120.511 10.8521C120.511 11.2271 120.386 11.4771 120.261 11.8521C120.136 12.1021 119.885 12.3521 119.51 12.4771C119.885 12.6021 120.136 12.8521 120.386 13.1021C120.636 13.3521 120.761 13.7271 120.761 14.2271C120.761 14.8521 120.511 15.3521 120.136 15.7271C119.635 16.1021 119.134 16.3521 118.508 16.3521H115.629ZM116.63 12.1021H118.383C118.759 12.1021 119.009 11.9771 119.259 11.7271C119.51 11.4771 119.635 11.2271 119.635 10.9771C119.635 10.7271 119.384 10.3521 119.259 10.1021C119.009 9.85205 118.759 9.72705 118.383 9.72705H116.63V12.1021ZM116.63 15.4771H118.633C119.009 15.4771 119.259 15.3521 119.51 15.1021C119.76 14.8521 119.885 14.6021 119.885 14.2271C119.885 13.9771 119.76 13.6021 119.51 13.3521C119.259 13.1021 119.009 12.9771 118.633 12.9771H116.756V15.4771H116.63Z" fill="#373A36" stroke="#373A36" stroke-width="0.2" stroke-miterlimit="10"/>
<defs>
<clipPath id="clip0">
<rect width="30.0444" height="30" fill="white" transform="translate(11.6001 10.1021)"/>
</clipPath>
</defs>
</svg>
