<svg width="21" height="21" viewBox="0 0 21 21" fill="none" xmlns="http://www.w3.org/2000/svg">
<path d="M9.23333 3.53333C9.23333 2.86145 8.96643 2.21709 8.49134 1.742C8.01624 1.2669 7.37188 1 6.7 1H3.53333C2.86145 1 2.21709 1.2669 1.742 1.742C1.2669 2.21709 1 2.86145 1 3.53333V6.7C1 7.37188 1.2669 8.01624 1.742 8.49134C2.21709 8.96643 2.86145 9.23333 3.53333 9.23333H6.7C7.37188 9.23333 8.01624 8.96643 8.49134 8.49134C8.96643 8.01624 9.23333 7.37188 9.23333 6.7V3.53333ZM6.7 6.7H3.53333V3.53333H6.7V6.7Z" fill="currentColor"/>
<path d="M6.7 11.7666H3.53333C2.86145 11.7666 2.21709 12.0335 1.742 12.5086C1.2669 12.9837 1 13.6281 1 14.2999V17.4666C1 18.1385 1.2669 18.7828 1.742 19.2579C2.21709 19.733 2.86145 19.9999 3.53333 19.9999H6.7C7.37188 19.9999 8.01624 19.733 8.49134 19.2579C8.96643 18.7828 9.23333 18.1385 9.23333 17.4666V14.2999C9.23333 13.6281 8.96643 12.9837 8.49134 12.5086C8.01624 12.0335 7.37188 11.7666 6.7 11.7666ZM6.7 17.4666H3.53333V14.2999H6.7V17.4666Z" fill="currentColor"/>
<path d="M19.9999 3.53333C19.9999 2.86145 19.733 2.21709 19.2579 1.742C18.7828 1.2669 18.1385 1 17.4666 1H14.2999C13.6281 1 12.9837 1.2669 12.5086 1.742C12.0335 2.21709 11.7666 2.86145 11.7666 3.53333V6.7C11.7666 7.37188 12.0335 8.01624 12.5086 8.49134C12.9837 8.96643 13.6281 9.23333 14.2999 9.23333H17.4666C18.1385 9.23333 18.7828 8.96643 19.2579 8.49134C19.733 8.01624 19.9999 7.37188 19.9999 6.7V3.53333ZM17.4666 6.7H14.2999V3.53333H17.4666V6.7Z" fill="currentColor"/>
<path d="M18.0997 14.6168C18.7992 14.6168 19.3663 14.0497 19.3663 13.3502C19.3663 12.6506 18.7992 12.0835 18.0997 12.0835C17.4001 12.0835 16.833 12.6506 16.833 13.3502C16.833 14.0497 17.4001 14.6168 18.0997 14.6168Z" fill="currentColor"/>
<path d="M13.3497 14.6168C14.0492 14.6168 14.6163 14.0497 14.6163 13.3502C14.6163 12.6506 14.0492 12.0835 13.3497 12.0835C12.6501 12.0835 12.083 12.6506 12.083 13.3502C12.083 14.0497 12.6501 14.6168 13.3497 14.6168Z" fill="currentColor"/>
<path d="M18.0997 19.3668C18.7992 19.3668 19.3663 18.7997 19.3663 18.1002C19.3663 17.4006 18.7992 16.8335 18.0997 16.8335C17.4001 16.8335 16.833 17.4006 16.833 18.1002C16.833 18.7997 17.4001 19.3668 18.0997 19.3668Z" fill="currentColor"/>
<path d="M13.3497 19.3668C14.0492 19.3668 14.6163 18.7997 14.6163 18.1002C14.6163 17.4006 14.0492 16.8335 13.3497 16.8335C12.6501 16.8335 12.083 17.4006 12.083 18.1002C12.083 18.7997 12.6501 19.3668 13.3497 19.3668Z" fill="currentColor"/>
</svg>
