<svg width="13" height="14" viewBox="0 0 13 14" fill="none" xmlns="http://www.w3.org/2000/svg">
<g clip-path="url(#clip0_7228_3252)">
<path d="M11.8285 4.4229C11.7199 4.53298 11.5729 4.5947 11.4198 4.5947C11.2666 4.5947 11.1196 4.53298 11.011 4.4229L10.1876 3.58399C10.0796 3.47331 10.019 3.32357 10.019 3.1675C10.019 3.01143 10.0796 2.86169 10.1876 2.75102C10.2965 2.63916 10.4447 2.57626 10.5992 2.57626C10.7539 2.57626 10.9021 2.63916 11.011 2.75102L11.8285 3.58399C11.9383 3.69496 12 3.84589 12 4.00343C12 4.16099 11.9383 4.31203 11.8285 4.42288L11.8285 4.4229ZM1.97144 4.4229L2.81224 3.58399C2.92019 3.47331 2.98085 3.32357 2.98085 3.1675C2.98085 3.01143 2.92019 2.86169 2.81224 2.75102C2.70333 2.63916 2.5551 2.57626 2.40059 2.57626C2.24596 2.57626 2.09772 2.63916 1.98883 2.75102L1.17133 3.58399C1.06213 3.69446 1.00049 3.8446 1 4.00136C0.999422 4.15812 1.05999 4.30876 1.16842 4.41991C1.27684 4.53118 1.42419 4.59399 1.57804 4.59458C1.73189 4.59507 1.87974 4.53336 1.98882 4.42288L1.97144 4.4229ZM11.7182 8.18034C11.7189 9.55652 11.1958 10.8794 10.259 11.8707C9.32223 12.862 8.04472 13.4448 6.69511 13.4963C5.34538 13.5477 4.02875 13.0641 3.02185 12.1468C2.01487 11.2296 1.39624 9.95034 1.29588 8.57801C1.19551 7.20571 1.62126 5.84703 2.48361 4.78791C3.34596 3.72874 4.57776 3.05154 5.92005 2.89863V1.68162H4.76037C4.55323 1.68162 4.36181 1.56897 4.25824 1.38619C4.15467 1.20341 4.15467 0.978213 4.25824 0.79543C4.36181 0.612647 4.55323 0.5 4.76037 0.5H8.23931C8.44646 0.5 8.63787 0.612652 8.74145 0.79543C8.84502 0.978207 8.84502 1.20341 8.74145 1.38619C8.63787 1.56897 8.44646 1.68162 8.23931 1.68162H7.07963V2.89863C8.35491 3.04393 9.53295 3.66288 10.3886 4.63718C11.2443 5.61148 11.7177 6.87283 11.7182 8.18042L11.7182 8.18034ZM8.30882 5.87625C8.18932 5.77893 8.03701 5.73373 7.88501 5.75025C7.733 5.76686 7.59352 5.84401 7.49703 5.96487L6.44753 7.30008V7.29998C6.2201 7.31392 6.00703 7.41827 5.85435 7.59065C5.70157 7.76294 5.62129 7.98954 5.6308 8.22146C5.64031 8.4535 5.73874 8.67246 5.90502 8.83121C6.07139 8.99005 6.29212 9.0759 6.51994 9.07056C6.74786 9.06512 6.96453 8.96889 7.12332 8.80232C7.28222 8.63587 7.37055 8.41245 7.36948 8.18032C7.37239 8.13304 7.37239 8.08567 7.36948 8.03849L8.41316 6.70921C8.50848 6.58498 8.5511 6.42702 8.53149 6.27057C8.51188 6.1141 8.4317 5.97209 8.30882 5.87625Z" fill="currentColor"/>
</g>
<defs>
<clipPath id="clip0_7228_3252">
<rect width="13" height="13" fill="white" transform="translate(0 0.5)"/>
</clipPath>
</defs>
</svg>
