<svg width="118" height="35" viewBox="0 0 118 35" fill="none" xmlns="http://www.w3.org/2000/svg">
<path d="M113.63 35H4.37037C1.92296 35 0 33.075 0 30.625V4.375C0 1.925 1.92296 0 4.37037 0H113.63C116.077 0 118 1.925 118 4.375V30.625C118 33.075 116.077 35 113.63 35Z" fill="#373A36"/>
<path d="M51.1545 23.2971C52.7653 22.8864 53.8238 21.6544 53.8238 20.0422C53.8238 18.0497 52.2284 16.6504 49.9886 16.6504H46V27.3733H47.8409V23.434H49.1448L51.9983 27.3733H54.1613L51.1545 23.2971ZM49.9886 18.3235C51.1392 18.3235 51.9369 19.0232 51.9369 20.0422C51.9369 21.0613 51.1392 21.7609 49.9886 21.7609H47.8409V18.3235H49.9886Z" fill="white"/>
<path d="M58.3044 27.5251C59.2709 27.5251 60.1607 27.0232 60.6669 26.1866L61.0197 27.373H62.3391V19.4639H60.5749V24.042C60.5749 25.1675 59.8231 25.9585 58.7953 25.9585C57.7829 25.9585 57.0772 25.1675 57.0772 24.042V19.4639H55.313V24.2398C55.313 26.141 56.6016 27.5251 58.3044 27.5251Z" fill="white"/>
<path d="M67.9691 27.5252C70.0094 27.5252 71.6969 26.3692 71.6969 24.4528C71.6969 22.3082 69.9328 21.6846 68.414 21.1675C67.2327 20.772 66.2049 20.407 66.2049 19.4487C66.2049 18.6122 66.9873 18.1712 67.9077 18.1712C68.8742 18.1712 69.5646 18.673 69.9481 19.5248L71.6969 19.2358C71.1444 17.5628 69.7487 16.498 67.8464 16.498C65.8827 16.498 64.318 17.6236 64.318 19.54C64.318 21.6998 66.0822 22.293 67.6009 22.7949C68.7668 23.1752 69.81 23.5402 69.81 24.5136C69.81 25.3654 69.0276 25.8521 67.9845 25.8521C66.7879 25.8521 66.1436 25.2893 65.576 24.2703L63.7964 24.5745C64.318 26.3844 65.9748 27.5252 67.9691 27.5252Z" fill="white"/>
<path d="M76.4963 25.8522C75.8981 25.8522 75.6067 25.5632 75.6067 24.97V20.9851H77.9842V19.4641H75.6067V17.1826H74.2873L73.8422 19.4641H72.5383V20.9851H73.8422V24.97C73.8422 26.5214 74.7473 27.3732 76.4963 27.3732H77.9842L78.1379 25.8522H76.4963Z" fill="white"/>
<path d="M83.1791 27.5253C85.68 27.5253 87.4439 25.8218 87.4439 23.4187C87.4439 21.0155 85.68 19.312 83.1791 19.312C80.6787 19.312 78.9143 21.0155 78.9143 23.4187C78.9143 25.8218 80.6787 27.5253 83.1791 27.5253ZM83.1791 25.9283C81.7369 25.9283 80.7553 24.9092 80.7553 23.4187C80.7553 21.9281 81.7369 20.909 83.1791 20.909C84.6213 20.909 85.6029 21.9281 85.6029 23.4187C85.6029 24.9092 84.6213 25.9283 83.1791 25.9283Z" fill="white"/>
<path d="M90.742 27.373V22.7036C90.742 21.6998 91.2328 21.137 92.3064 21.137H93.3189L93.1658 19.4639H92.8281C91.8927 19.4639 91.1716 19.7225 90.6345 20.6046L90.2969 19.4639H88.9775V27.373H90.742Z" fill="white"/>
<path d="M102 23.3274C102 21.046 100.282 19.312 97.858 19.312C95.4342 19.312 93.7161 21.0307 93.7161 23.4187C93.7161 25.8066 95.4342 27.5253 97.858 27.5253C99.5145 27.5253 101.079 26.7496 101.678 25.2439L100.021 24.9701C99.6373 25.5328 98.9008 25.9283 97.9654 25.9283C96.6153 25.9283 95.7256 25.1069 95.5571 23.8902H101.969C101.985 23.7228 102 23.5403 102 23.3274ZM97.858 20.833C98.9625 20.833 99.791 21.5326 100.082 22.5213H95.6639C95.9559 21.5022 96.7839 20.833 97.858 20.833Z" fill="white"/>
<path fill-rule="evenodd" clip-rule="evenodd" d="M25.3539 28.5707C20.473 28.5707 18.0326 28.5707 16.5163 27.0544C15 25.5381 15 23.0976 15 18.2167L15 17.3539C15 12.473 15 10.0325 16.5163 8.51621C18.0326 7 20.473 7 25.3539 7L26.2168 7C31.0977 7 33.5381 7 35.0544 8.51621C36.5707 10.0325 36.5707 12.473 36.5707 17.3539V18.2167C36.5707 23.0976 36.5707 25.5381 35.0544 27.0544C33.5381 28.5707 31.0977 28.5707 26.2168 28.5707H25.3539Z" fill="white"/>
<path d="M27.4733 20.2936C26.8921 20.1485 26.4846 19.6286 26.4846 19.0323V12.0077C26.4846 11.3304 27.1246 10.8337 27.7847 10.9986L31.965 12.0429C32.5461 12.1881 32.9537 12.7079 32.9537 13.3042V20.3288C32.9537 21.0061 32.3137 21.5028 31.6536 21.3379L27.4733 20.2936Z" fill="#373A36"/>
<path d="M19.6054 23.528C19.0242 23.3829 18.6167 22.863 18.6167 22.2667V15.2421C18.6167 14.5648 19.2567 14.0681 19.9168 14.233L24.0971 15.2773C24.6783 15.4225 25.0857 15.9423 25.0857 16.5386V23.5632C25.0857 24.2405 24.4458 24.7372 23.7857 24.5723L19.6054 23.528Z" fill="#373A36"/>
<path d="M23.5394 21.9108C22.9583 21.7657 22.5508 21.2458 22.5508 20.6495V13.6249C22.5508 12.9476 23.1907 12.4509 23.8508 12.6158L28.0311 13.6601C28.6123 13.8053 29.0198 14.3251 29.0198 14.9214V21.946C29.0198 22.6233 28.3799 23.12 27.7198 22.9551L23.5394 21.9108Z" fill="#373A36"/>
<path d="M26.2753 22.5967C26.0922 22.55 25.9619 22.3881 25.9555 22.1994L25.7736 16.8347C25.721 16.1247 25.194 15.56 24.6432 15.3937C24.6123 15.3844 24.5793 15.3969 24.561 15.4235C24.5423 15.4506 24.5496 15.488 24.5755 15.5081C24.7115 15.6133 25.0859 15.957 25.0859 16.5496L25.0847 22.295L26.2753 22.5967Z" fill="white"/>
<path d="M30.2104 20.9774C30.0274 20.9317 29.897 20.7703 29.8906 20.5818L29.7087 15.2175C29.6561 14.5075 29.1291 13.9428 28.5783 13.7765C28.5474 13.7672 28.5144 13.7797 28.496 13.8064C28.4774 13.8334 28.4846 13.8708 28.5106 13.8909C28.6466 13.9962 29.0209 14.3398 29.0209 14.9324L29.0198 20.6798L30.2104 20.9774Z" fill="white"/>
<path d="M46.6118 12.512H46V10.762H46.5244C46.9615 10.412 47.2237 9.71201 47.2237 8.74951V6.12451H50.72V10.762H51.3319V12.512H50.72V11.3745H46.6993V12.512H46.6118ZM47.8356 8.74951C47.8356 9.53701 47.6607 10.237 47.3111 10.762H49.9333V6.73701H47.7481V8.74951H47.8356Z" fill="white" stroke="white" stroke-width="0.2" stroke-miterlimit="10"/>
<path d="M56.4888 10.6746C55.9644 11.1996 55.3525 11.4621 54.5658 11.4621C53.7792 11.4621 53.1673 11.1996 52.6429 10.6746C52.1184 10.1496 51.8562 9.53711 51.8562 8.74961C51.8562 7.96211 52.1184 7.34961 52.6429 6.82461C53.1673 6.29961 53.7792 6.03711 54.5658 6.03711C55.3525 6.03711 55.9644 6.29961 56.4888 6.82461C57.0132 7.34961 57.2755 7.96211 57.2755 8.74961C57.2755 9.53711 57.0132 10.1496 56.4888 10.6746ZM53.1673 10.2371C53.5169 10.5871 54.0414 10.8496 54.5658 10.8496C55.0903 10.8496 55.6147 10.6746 55.9644 10.2371C56.314 9.88711 56.5762 9.36211 56.5762 8.74961C56.5762 8.13711 56.4014 7.61211 55.9644 7.26211C55.6147 6.91211 55.0903 6.64961 54.5658 6.64961C54.0414 6.64961 53.5169 6.82461 53.1673 7.26211C52.8177 7.61211 52.5555 8.13711 52.5555 8.74961C52.5555 9.36211 52.7303 9.88711 53.1673 10.2371Z" fill="white" stroke="white" stroke-width="0.2" stroke-miterlimit="10"/>
<path d="M60.6845 11.4621C59.8978 11.4621 59.286 11.1996 58.7615 10.6746C58.2371 10.1496 57.9749 9.53711 57.9749 8.74961C57.9749 7.96211 58.2371 7.34961 58.7615 6.82461C59.286 6.29961 59.8978 6.03711 60.6845 6.03711C61.4712 6.03711 62.083 6.29961 62.6074 6.91211L62.1704 7.34961C61.8208 6.91211 61.2963 6.64961 60.6845 6.64961C60.0726 6.64961 59.6356 6.82461 59.1986 7.26211C58.7615 7.61211 58.5867 8.13711 58.5867 8.74961C58.5867 9.36211 58.7615 9.88711 59.1986 10.2371C59.5482 10.5871 60.0726 10.8496 60.6845 10.8496C61.2963 10.8496 61.8208 10.5871 62.2578 10.0621L62.6949 10.4996C62.4326 10.7621 62.1704 11.0246 61.8208 11.1996C61.4712 11.3746 61.1215 11.4621 60.6845 11.4621Z" fill="white" stroke="white" stroke-width="0.2" stroke-miterlimit="10"/>
<path d="M65.4918 11.3745H64.7926V6.73701H63.3066V6.12451H66.8903V6.73701H65.4044V11.3745H65.4918Z" fill="white" stroke="white" stroke-width="0.2" stroke-miterlimit="10"/>
<path d="M71.5229 6.12451L69.5126 10.587C69.2504 11.1995 68.8133 11.5495 68.2889 11.5495C68.1141 11.5495 67.9392 11.5495 67.7644 11.462L67.9392 10.8495C68.0266 10.937 68.2015 10.937 68.2889 10.937C68.4637 10.937 68.5511 10.937 68.6385 10.8495C68.7259 10.762 68.8133 10.6745 68.9007 10.4995L69.0755 10.062L67.3274 6.21201H68.1141L69.4252 9.18701L70.7363 6.12451H71.5229Z" fill="white" stroke="white" stroke-width="0.2" stroke-miterlimit="10"/>
<path d="M72.3096 11.3745V6.12451H76.0681V11.3745H75.3688V6.73701H72.9214V11.3745H72.3096Z" fill="white" stroke="white" stroke-width="0.2" stroke-miterlimit="10"/>
<path d="M77.2917 11.3745V6.12451H77.991V8.39951H80.6132V6.12451H81.3125V11.3745H80.6132V9.01201H77.991V11.3745H77.2917Z" fill="white" stroke="white" stroke-width="0.2" stroke-miterlimit="10"/>
<path d="M86.8194 10.6746C86.2949 11.1996 85.6831 11.4621 84.8964 11.4621C84.1097 11.4621 83.4979 11.1996 82.9734 10.6746C82.449 10.1496 82.1868 9.53711 82.1868 8.74961C82.1868 7.96211 82.449 7.34961 82.9734 6.82461C83.4979 6.29961 84.1097 6.03711 84.8964 6.03711C85.6831 6.03711 86.2949 6.29961 86.8194 6.82461C87.3438 7.34961 87.606 7.96211 87.606 8.74961C87.5186 9.53711 87.2564 10.1496 86.8194 10.6746ZM83.4105 10.2371C83.7601 10.5871 84.2845 10.8496 84.809 10.8496C85.3334 10.8496 85.8579 10.6746 86.2075 10.2371C86.5571 9.88711 86.8194 9.36211 86.8194 8.74961C86.8194 8.13711 86.6445 7.61211 86.2075 7.26211C85.8579 6.91211 85.3334 6.64961 84.809 6.64961C84.2845 6.64961 83.7601 6.82461 83.4105 7.26211C83.0608 7.61211 82.7986 8.13711 82.7986 8.74961C82.7986 9.36211 83.0608 9.88711 83.4105 10.2371Z" fill="white" stroke="white" stroke-width="0.2" stroke-miterlimit="10"/>
<path d="M90.3154 11.3745V6.12451H92.2384C92.6754 6.12451 93.0251 6.29951 93.2873 6.56201C93.5495 6.82451 93.7243 7.17451 93.7243 7.52451C93.7243 7.78701 93.6369 7.96201 93.5495 8.22451C93.4621 8.39951 93.2873 8.57451 93.0251 8.66201C93.2873 8.74951 93.4621 8.92451 93.6369 9.09951C93.8117 9.27451 93.8991 9.53701 93.8991 9.88701C93.8991 10.3245 93.7243 10.6745 93.4621 10.937C93.1125 11.1995 92.7628 11.3745 92.3258 11.3745H90.3154ZM91.0147 8.39951H92.2384C92.5006 8.39951 92.6754 8.31201 92.8502 8.13701C93.0251 7.96201 93.1125 7.78701 93.1125 7.61201C93.1125 7.43701 92.9376 7.17451 92.8502 6.99951C92.6754 6.82451 92.5006 6.73701 92.2384 6.73701H91.0147V8.39951V8.39951ZM91.0147 10.762H92.4132C92.6754 10.762 92.8502 10.6745 93.0251 10.4995C93.1999 10.3245 93.2873 10.1495 93.2873 9.88701C93.2873 9.71201 93.1999 9.44951 93.0251 9.27451C92.8502 9.09951 92.6754 9.01201 92.4132 9.01201H91.1021V10.762H91.0147Z" fill="white" stroke="white" stroke-width="0.2" stroke-miterlimit="10"/>
</svg>
