<svg width="209" height="44" viewBox="0 0 209 44" fill="none" xmlns="http://www.w3.org/2000/svg">
<g clip-path="url(#clip0_6659_1370)">
<path d="M69.6882 10.2081C69.3243 9.24007 68.7784 8.97607 67.6867 8.97607H64.5935C63.5018 8.97607 62.956 9.24007 62.5921 10.2961L53.1306 34.9361C52.7667 35.9921 53.0396 36.5201 54.2223 36.5201H56.9516C58.953 36.5201 59.4989 36.1681 59.8628 35.1121L61.1365 31.5041H70.9619L72.2355 35.1121C72.5994 36.2561 73.2363 36.5201 75.2377 36.5201H78.1489C79.3316 36.5201 79.6046 35.9921 79.2407 34.9361L69.6882 10.2081ZM62.865 26.3121L64.9574 20.2401C65.9582 17.5121 65.8672 15.4881 65.8672 15.4881H66.2311C66.2311 15.4881 66.3221 17.4241 67.2318 20.2401L69.3243 26.2241C69.3243 26.3121 62.865 26.3121 62.865 26.3121ZM96.9809 8.97607H77.967C76.6933 8.97607 76.3294 9.32807 76.3294 10.5601V13.2001C76.3294 14.3441 76.6933 14.7841 77.967 14.7841H84.2443V34.9361C84.2443 36.1681 84.6082 36.5201 85.8819 36.5201H89.0661C90.3397 36.5201 90.7036 36.1681 90.7036 34.9361V14.6961H96.89C98.1636 14.6961 98.5275 14.3441 98.5275 13.1121V10.5601C98.6185 9.41607 98.1636 8.97607 96.9809 8.97607ZM113.993 19.0961H107.534V14.6081H119.543C120.726 14.6081 121.181 14.1681 121.181 13.0241V10.5601C121.181 9.32807 120.726 8.97607 119.543 8.97607H102.712C101.53 8.97607 101.075 9.32807 101.075 10.5601V34.9361C101.075 36.0801 101.53 36.4321 102.712 36.4321H114.084C119.634 36.4321 123.182 33.0881 123.182 27.8081C123.182 22.3521 119.543 19.0961 113.993 19.0961ZM113.084 30.8881H107.534V24.7281H113.084C115.176 24.7281 116.359 25.9601 116.359 27.8081C116.45 29.5681 115.267 30.8881 113.084 30.8881Z" fill="#373A36"/>
<path d="M37.8459 0.0881348H7.55099C3.36611 0.0881348 0 3.34413 0 7.39213V36.6961C0 40.7441 3.36611 44.0001 7.55099 44.0001H37.8459C42.0308 44.0001 45.3969 40.7441 45.3969 36.6961V7.39213C45.3969 3.34413 42.0308 0.0881348 37.8459 0.0881348ZM43.0316 35.9041C42.9406 35.9921 42.8496 35.9921 42.7586 35.9921C36.9362 32.5601 30.022 30.6241 22.744 30.6241C15.4659 30.6241 8.55173 32.5601 2.6383 35.9921C2.54732 36.0801 2.36537 35.9921 2.36537 35.9041C2.2744 35.8161 2.2744 35.6401 2.45635 35.6401C7.73295 31.6801 12.3727 26.6641 15.8298 20.6801C19.3779 14.7841 21.5613 8.44814 22.471 2.02413C22.471 1.93613 22.562 1.84813 22.744 1.84813C22.8349 1.84813 22.9259 1.93613 23.0169 2.02413C23.9266 8.44814 26.1101 14.7841 29.6581 20.6801C33.2062 26.5761 37.755 31.5921 43.1225 35.5521C43.1225 35.6401 43.1225 35.8161 43.0316 35.9041Z" fill="#FE5000"/>
<path d="M129.775 36.0981H156.15C153.009 34.6006 151.258 33.0165 149.48 30.3934H142.226L147.034 25.04C147.14 24.9238 147.243 24.8085 147.343 24.694C146.757 19.1973 148.75 15.8437 149.994 14.2438C149.55 13.0985 148.844 12.1044 147.876 11.2616C146.09 9.7086 143.767 8.97607 140.758 8.97607C137.677 8.97607 135.229 9.89554 133.444 11.6442C131.67 13.3929 130.725 15.7006 130.725 18.7456V18.929H137.182V18.5988C137.182 17.2048 137.487 16.1409 138.099 15.4072C138.722 14.6734 139.609 14.3066 140.758 14.3066C141.725 14.3066 142.501 14.6062 143.088 15.2054C143.687 15.7924 143.987 16.5567 143.987 17.4983C143.987 18.1097 143.81 18.77 143.455 19.4793C143.112 20.1763 142.574 20.959 141.841 21.8272L129.775 36.0981Z" fill="#FE5000"/>
<path d="M169.681 36.0981H193.445C190.333 34.4567 189.247 32.5281 188.323 30.3934H182.132L186.94 25.04C188.237 23.6215 189.054 22.3347 189.616 21.1485C189.889 20.5676 190.095 19.9796 190.236 19.3843H188.242C187.957 16.7394 188.674 14.3066 189.218 12.9051C188.83 12.305 188.351 11.7572 187.782 11.2616C185.996 9.7086 183.673 8.97607 180.665 8.97607C177.583 8.97607 175.135 9.89554 173.35 11.6442C171.577 13.3929 170.631 15.7006 170.631 18.7456V18.929H177.088V18.5988C177.088 17.2048 177.394 16.1409 178.005 15.4072C178.629 14.6734 179.515 14.3066 180.665 14.3066C181.631 14.3066 182.407 14.6062 182.994 15.2054C183.593 15.7924 183.893 16.5567 183.893 17.4983C183.893 18.1097 183.716 18.77 183.361 19.4793C183.019 20.1763 182.481 20.959 181.747 21.8272L169.681 36.0981Z" fill="#373A36"/>
<path fill-rule="evenodd" clip-rule="evenodd" d="M154.199 22.6522C154.199 18.4405 157.625 15.0118 161.87 15.0118C166.115 15.0118 169.541 18.4405 169.541 22.6522C169.541 26.8638 166.115 30.2926 161.87 30.2926C157.625 30.2926 154.199 26.8638 154.199 22.6522ZM161.87 9.09375C154.373 9.09375 148.281 15.156 148.281 22.6522C148.281 30.1483 154.373 36.2106 161.87 36.2106C169.367 36.2106 175.459 30.1483 175.459 22.6522C175.459 21.6852 175.358 20.742 175.165 19.8326H169.564C169.353 16.2167 170.468 13.5549 171.051 12.676H171.072C168.651 10.4513 165.418 9.09375 161.87 9.09375Z" fill="#FE5000"/>
<path fill-rule="evenodd" clip-rule="evenodd" d="M198.772 36.2104C196.883 36.2104 195.166 35.8349 193.62 35.0838C192.074 34.3076 190.86 33.1935 189.977 31.7413C189.093 30.2892 188.659 28.1541 188.757 26.1011H194.911C194.911 26.7713 194.989 27.7988 195.237 28.5084C195.68 29.8937 196.975 30.8967 198.504 30.8967C200.397 30.8967 201.933 29.3578 201.933 27.4596C201.933 25.6089 200.473 24.0998 198.645 24.0254C198.265 24.0011 197.629 24.014 197.629 24.014V20.0848H198.615C198.684 20.0848 198.753 20.0789 198.821 20.0682C200.402 19.92 201.636 18.652 201.636 17.1098C201.636 15.468 200.237 14.137 198.511 14.137C196.877 14.137 195.536 15.3301 195.397 16.8505C195.323 17.2881 195.292 17.8459 195.292 18.605H189.134C189.134 16.7773 189.462 14.5713 190.296 13.2694C191.155 11.9424 192.32 10.9106 193.767 10.1846C195.239 9.45849 196.883 9.09546 198.699 9.09546C200.563 9.09546 202.158 9.3959 203.483 9.99679C204.832 10.5726 205.863 11.3863 206.574 12.4379C207.31 13.4894 207.678 14.7413 207.678 16.1934C207.678 17.0948 207.54 17.921 207.196 18.6972C206.878 19.4483 206.427 20.1734 205.987 20.6151C205.548 21.0568 205.082 21.5223 204.445 21.9152C205.308 22.2122 205.989 22.6656 206.682 23.2614C207.419 23.8623 207.775 24.5373 208.168 25.3885C208.563 26.2457 208.672 27.1596 208.672 28.136C208.672 29.7134 208.267 31.1154 207.457 32.3422C206.672 33.544 205.532 34.4954 204.035 35.1964C202.563 35.8724 200.809 36.2104 198.772 36.2104Z" fill="#373A36"/>
</g>
<defs>
<clipPath id="clip0_6659_1370">
<rect width="209" height="44" fill="white"/>
</clipPath>
</defs>
</svg>
