<svg width="187" height="52" viewBox="0 0 187 52" fill="none" xmlns="http://www.w3.org/2000/svg">
<path d="M5.08331 46.9411H129.66V5.05846H5.08331V46.9411ZM130.98 48.2625H3.76239V3.73753H130.98V48.2625Z" fill="currentColor"/>
<path d="M19.0064 25.9872C19.0064 32.8419 26.0175 33.1897 27.4228 33.1897C32.0754 33.1897 34.0416 31.9324 34.1232 31.8779C34.414 31.7136 34.7684 31.3812 34.7684 30.7592V26.028C34.7684 25.592 34.4131 25.2371 33.9771 25.2371H28.1326C27.6958 25.2371 27.4087 25.592 27.4087 26.028V26.5181C27.4087 26.9549 27.6958 27.3106 28.1326 27.3106H31.5138C31.8404 27.3106 32.105 27.5757 32.105 27.9018C32.105 27.9018 32.102 29.9754 32.102 30.1073C31.4339 30.3802 28.3922 31.2688 25.9476 30.6856C22.4017 29.8377 22.1254 26.9125 22.1254 26.0363C22.1254 25.3012 22.3455 21.6167 26.7002 21.244C30.2253 20.9423 32.5464 22.3656 32.5697 22.3793C32.984 22.5944 33.4126 22.4413 33.6435 22.0024C33.6447 21.9991 34.0828 21.1113 34.0828 21.1113C34.2659 20.746 34.2043 20.3674 33.7583 20.0649C33.7288 20.0479 31.2575 18.7082 27.4233 18.7082C19.2419 18.7082 19.0064 25.2425 19.0064 25.9872ZM80.41 26.9154C80.2249 27.2478 79.9207 27.247 79.7385 26.9137L75.7558 19.5998C75.5864 19.2603 75.2395 18.9815 74.7556 18.9815H72.5955C72.2149 18.9815 71.9028 19.2919 71.9028 19.673V32.3784C71.9028 32.7583 72.1529 33.0183 72.5955 33.0183H73.9381C74.3192 33.0183 74.5938 32.7782 74.5938 32.4109C74.5938 32.2353 74.5992 23.1702 74.6137 23.1702C74.6283 23.1702 79.5846 32.4088 79.5846 32.4088C79.7643 32.7437 80.2049 32.7454 80.3879 32.4113C80.3879 32.4113 85.385 23.1969 85.4 23.1969C85.4154 23.1969 85.4095 32.1467 85.4095 32.4109C85.4095 32.7782 85.7033 33.0183 86.0844 33.0183H87.6312C88.0123 33.0183 88.3226 32.8286 88.3226 32.3264V19.673C88.3226 19.2919 88.0123 18.9815 87.6312 18.9815H85.5606C85.0318 18.9815 84.7139 19.2511 84.525 19.5819L80.41 26.9154ZM113.629 18.9815C113.248 18.9815 112.941 19.2324 112.941 19.5985C112.941 19.7745 112.945 27.7358 112.945 27.7358C112.945 28.1173 112.729 28.2039 112.465 27.9297L104.317 19.4783C104.053 19.2045 103.666 18.9815 103.144 18.9815H101.612C101.13 18.9815 100.919 19.2387 100.919 19.4991V32.5111C100.919 32.7707 101.166 33.0183 101.547 33.0183H103.082C103.462 33.0183 103.729 32.8115 103.729 32.4608C103.729 32.2852 103.736 23.8887 103.736 23.8887C103.736 23.5085 103.952 23.4215 104.215 23.6961L112.711 32.5282C112.98 32.7982 113.309 33.0183 113.892 33.0183H115.044C115.426 33.0183 115.737 32.7071 115.737 32.3264V19.673C115.737 19.2919 115.426 18.9815 115.044 18.9815H113.629ZM63.5887 25.0882C63.1618 25.1864 62.6809 25.2063 62.6809 25.2063C62.3006 25.223 61.6787 25.2363 61.298 25.2363H58.0675C57.6864 25.2363 57.3752 24.9247 57.3752 24.544V21.9666C57.3752 21.5855 57.6864 21.2743 58.0675 21.2743H61.298C61.6787 21.2743 62.3006 21.2881 62.6809 21.3043C62.6809 21.3043 63.1618 21.323 63.5887 21.4216C64.0164 21.5202 64.3546 21.6579 64.6026 21.8356C64.8514 22.0141 65.029 22.2237 65.1364 22.4646C65.2425 22.7055 65.2965 22.968 65.2965 23.2547C65.2965 23.5393 65.2425 23.803 65.1364 24.0443C65.029 24.2848 64.8514 24.4945 64.6026 24.673C64.3546 24.8519 64.0164 24.9908 63.5887 25.0882ZM64.9009 27.6718C64.6825 27.3602 64.8023 27.0161 65.1667 26.9075C65.1667 26.9075 66.6171 26.4732 67.311 25.8508C68.0054 25.2271 68.3544 24.3256 68.3544 23.1511C68.3544 22.3831 68.2201 21.7374 67.9525 21.2119C67.6854 20.6881 67.3023 20.2596 66.8034 19.9309C66.305 19.6014 65.7076 19.3593 65.0124 19.2079C64.3159 19.0568 63.3769 19.0127 63.3769 19.0127C62.9963 18.9953 62.3739 18.9815 61.994 18.9815H55.025C54.6447 18.9815 54.3335 19.2919 54.3335 19.673V32.3942C54.3335 32.7753 54.6447 33.0183 55.025 33.0183H56.6741C57.0548 33.0183 57.3664 32.7753 57.3664 32.3942C57.3664 32.3942 57.3677 27.3348 57.3706 27.3348C57.3735 27.3348 57.3752 27.3315 57.3752 27.3281C57.3752 27.324 60.5017 27.3206 60.5017 27.3206C60.8815 27.3206 61.3729 27.5748 61.5926 27.8864L64.8385 32.4562C65.1401 32.861 65.4268 33.0183 65.8074 33.0183H67.9629C68.3436 33.0183 68.4031 32.6597 68.2716 32.4729C68.141 32.2873 64.9009 27.6718 64.9009 27.6718ZM93.0243 19.6992V32.4275C93.0243 32.7782 93.3355 33.0183 93.7166 33.0183H95.3949C95.7751 33.0183 96.0868 32.7753 96.0868 32.3942V19.673C96.0868 19.2919 95.8413 18.9815 95.4606 18.9815H93.7166C93.3355 18.9815 93.0243 19.2158 93.0243 19.6992M41.6892 29.0385C41.309 29.0385 41.1301 28.7551 41.2903 28.4111L43.7104 23.2264C43.8714 22.8811 44.1318 22.8836 44.2887 23.2285L46.6451 28.4132C46.8024 28.7589 46.6193 29.0422 46.239 29.0422L41.6892 29.0385ZM45.5696 19.5998C45.4003 19.259 44.9497 18.9815 44.5691 18.9815H43.7944C43.4141 18.9815 42.969 19.2624 42.8042 19.6056L36.6627 32.4358C36.4917 32.7753 36.6776 33.0183 37.0587 33.0183H38.4778C39.0378 33.0183 39.2949 32.7637 39.4464 32.4512C39.5986 32.1392 39.9373 31.4606 40.0018 31.3221C40.0892 31.1349 40.3592 31.0201 40.7394 31.0205L47.3474 31.0238C47.7285 31.0246 47.9731 31.097 48.0858 31.3221C48.1591 31.4685 48.4969 32.0789 48.6629 32.4121C48.8306 32.7454 49.1114 33.0183 49.6576 33.0183H51.7166C52.0973 33.0183 52.2637 32.7291 52.1268 32.4608C51.9895 32.1916 45.5696 19.5998 45.5696 19.5998" fill="currentColor"/>
<path d="M182.968 16.1171V14.914L182.861 15.33L182.614 16.1171H182.349L182.108 15.33L182.001 14.914V16.1171H181.737V14.6327H182.136L182.388 15.4594L182.485 15.8475L182.591 15.4594L182.827 14.6327H183.238V16.1171H182.968ZM181.039 14.8803V16.1171H180.747V14.8803H180.32V14.6327H181.467V14.8803H181.039ZM173.566 28.1611V37.2644H170.374V28.1611L164.905 14.6423H168.369L172.072 25.0703L175.774 14.6423H179.001L173.566 28.1611ZM158.654 19.7034L156.786 28.9765H160.522L158.654 19.7034ZM162.288 37.2644L161.1 31.7278H156.208L155.019 37.2644H151.895L157.024 14.6423H160.42L165.55 37.2644H162.288ZM148.395 19.7712C148.395 18.2768 147.852 17.4277 146.357 17.4277H142.961V25.4439H146.357C147.852 25.4439 148.395 24.5607 148.395 23.1004V19.7712ZM146.323 28.1952H142.961V37.2644H139.768V14.6423H146.323C149.992 14.6423 151.622 16.6122 151.622 19.8731V22.9984C151.622 26.1911 149.992 28.1952 146.323 28.1952Z" fill="currentColor"/>
</svg>
