<svg width="24" height="24" viewBox="0 0 24 24" fill="none" xmlns="http://www.w3.org/2000/svg">
<path d="M18.7499 8.70007C18.5249 4.87507 15.6749 5.25007 11.9999 5.25007C9.74994 5.25007 9.52494 5.25007 8.62494 5.25007C4.79994 5.47507 5.17494 8.17507 5.17494 12.0001C5.17494 14.7751 4.94994 16.6501 6.14994 17.7751C7.19994 18.8251 8.54994 18.7501 11.9999 18.7501C15.3749 18.7501 16.7999 18.8251 17.8499 17.7751C18.8999 16.7251 18.8249 15.3751 18.8249 12.0001C18.7499 9.82507 18.7499 9.52507 18.7499 8.70007ZM11.9999 16.2001C9.67494 16.2001 7.79994 14.3251 7.79994 12.0001C7.79994 9.67507 9.67494 7.80007 11.9999 7.80007C14.3249 7.80007 16.1999 9.67507 16.1999 12.0001C16.1999 14.3251 14.3249 16.2001 11.9999 16.2001ZM16.4249 8.55007C15.8999 8.55007 15.4499 8.10007 15.4499 7.57507C15.4499 7.05007 15.8999 6.60007 16.4249 6.60007C16.9499 6.60007 17.3999 7.05007 17.3999 7.57507C17.3999 8.10007 16.9499 8.55007 16.4249 8.55007Z" fill="#373A36"/>
<path d="M21 0H3C1.35 0 0 1.35 0 3V21C0 22.65 1.35 24 3 24H21C22.65 24 24 22.65 24 21V3C24 1.35 22.65 0 21 0ZM20.175 15.375C20.025 17.85 18.9 19.2 17.4 19.8C16.275 20.25 15.15 20.25 12 20.25C8.925 20.25 6.75 20.475 5.175 18.9C3.6 17.325 3.75 15.225 3.75 12C3.75 8.85 3.525 6.75 5.1 5.175C6.075 4.2 7.2 3.9 8.55 3.825C10.05 3.75 13.8 3.75 15.375 3.825C18.45 3.975 20.025 5.7 20.175 8.625C20.25 10.125 20.25 13.875 20.175 15.375Z" fill="#373A36"/>
<path d="M12.0001 9.22504C10.5001 9.22504 9.2251 10.425 9.2251 12C9.2251 13.5 10.4251 14.775 12.0001 14.775C13.5001 14.775 14.7751 13.575 14.7751 12C14.7751 10.5 13.5001 9.22504 12.0001 9.22504Z" fill="#373A36"/>
</svg>
