<svg width="119" height="35" viewBox="0 0 119 35" fill="none" xmlns="http://www.w3.org/2000/svg">
<path d="M7.57708 34.9982C7.27219 34.9982 6.97466 34.9946 6.67216 34.9884C6.04551 34.9809 5.42032 34.931 4.80172 34.8391C4.22491 34.7483 3.66614 34.5794 3.14383 34.3378C2.62632 34.0983 2.1543 33.7842 1.74586 33.4077C1.33152 33.0355 0.986552 32.6039 0.724643 32.1299C0.459849 31.6528 0.276595 31.1414 0.181266 30.6136C0.0783187 30.0464 0.0226201 29.4729 0.0146502 28.898C0.0083058 28.705 0 28.0625 0 28.0625V6.92583C0 6.92583 0.00884618 6.2932 0.0147002 6.10734C0.0223314 5.53335 0.0777062 4.96073 0.180345 4.39443C0.27585 3.86513 0.459246 3.35227 0.724183 2.87363C0.985129 2.39995 1.32818 1.968 1.74003 1.59453C2.15142 1.2175 2.62494 0.901813 3.14334 0.658981C3.66445 0.418234 4.22217 0.250461 4.79781 0.161284C5.41844 0.0684739 6.0458 0.0182961 6.67462 0.011172L7.57757 0H110.418L111.331 0.0116203C111.954 0.0183905 112.576 0.0681206 113.191 0.160388C113.772 0.250683 114.336 0.419626 114.863 0.661662C115.902 1.15104 116.747 1.92528 117.28 2.87586C117.54 3.3512 117.721 3.85987 117.815 4.3846C117.919 4.95555 117.977 5.53267 117.989 6.11137C117.992 6.37049 117.992 6.64883 117.992 6.92583C118 7.26895 118 7.59554 118 7.9248V27.0742C118 27.4066 118 27.731 117.992 28.058C117.992 28.3556 117.992 28.6281 117.988 28.9087C117.977 29.477 117.919 30.0439 117.817 30.6046C117.724 31.1363 117.542 31.6516 117.277 32.1326C117.013 32.6015 116.67 33.0294 116.26 33.4005C115.852 33.7791 115.379 34.095 114.86 34.3361C114.335 34.5795 113.772 34.7491 113.191 34.8391C112.572 34.9315 111.947 34.9814 111.32 34.9884C111.027 34.9946 110.72 34.9982 110.422 34.9982L109.338 35L7.57708 34.9982Z" fill="#373A36"/>
<path d="M28.6976 17.264C28.7071 16.5337 28.901 15.8176 29.2616 15.1824C29.6221 14.5472 30.1374 14.0135 30.7596 13.631C30.3644 13.0664 29.8429 12.6019 29.2367 12.2741C28.6305 11.9464 27.9562 11.7645 27.2674 11.743C25.798 11.5888 24.3736 12.6222 23.6248 12.6222C22.8616 12.6222 21.7088 11.7583 20.4674 11.7838C19.6644 11.8098 18.8819 12.0433 18.196 12.4616C17.5101 12.8799 16.9443 13.4687 16.5536 14.1707C14.8613 17.1006 16.1236 21.4065 17.7446 23.7748C18.5557 24.9345 19.5036 26.2299 20.7438 26.1839C21.9575 26.1336 22.4108 25.41 23.8758 25.41C25.3272 25.41 25.7525 26.1839 27.0179 26.1547C28.3202 26.1336 29.1408 24.9899 29.9234 23.8192C30.5061 22.9929 30.9545 22.0797 31.252 21.1133C30.4954 20.7933 29.8497 20.2576 29.3954 19.5731C28.9412 18.8886 28.6985 18.0855 28.6976 17.264V17.264Z" fill="white"/>
<path d="M26.3075 10.1855C27.0176 9.33302 27.3675 8.23737 27.2827 7.13116C26.1979 7.24511 25.1958 7.7636 24.4761 8.58332C24.1242 8.98378 23.8547 9.44966 23.683 9.95434C23.5113 10.459 23.4407 10.9926 23.4754 11.5245C24.018 11.5301 24.5548 11.4125 25.0454 11.1806C25.536 10.9486 25.9675 10.6084 26.3075 10.1855Z" fill="white"/>
<path d="M44.0396 23.2481H39.8978L38.9032 26.185H37.1489L41.0719 15.3192H42.8945L46.8175 26.185H45.0333L44.0396 23.2481ZM40.3268 21.8928H43.6098L41.9914 17.1265H41.9461L40.3268 21.8928Z" fill="white"/>
<path d="M55.2899 22.2244C55.2899 24.6862 53.9723 26.2678 51.9839 26.2678C51.4802 26.2942 50.9793 26.1781 50.5385 25.933C50.0976 25.6879 49.7348 25.3236 49.4914 24.8818H49.4537V28.8057H47.8276V18.2629H49.4016V19.5806H49.4315C49.6861 19.1409 50.0551 18.7785 50.4993 18.5319C50.9435 18.2853 51.4462 18.1637 51.954 18.18C53.9646 18.1801 55.2899 19.7694 55.2899 22.2244ZM53.6186 22.2244C53.6186 20.6205 52.7897 19.566 51.525 19.566C50.2826 19.566 49.4469 20.6427 49.4469 22.2244C49.4469 23.8206 50.2826 24.8895 51.525 24.8895C52.7897 24.8895 53.6186 23.8428 53.6186 22.2244Z" fill="white"/>
<path d="M64.0092 22.2244C64.0092 24.6862 62.6916 26.2679 60.7031 26.2679C60.1995 26.2942 59.6985 26.1782 59.2577 25.9331C58.8169 25.688 58.454 25.3236 58.2106 24.8819H58.173V28.8057H56.5469V18.263H58.1208V19.5806H58.1507C58.4053 19.141 58.7743 18.7785 59.2185 18.5319C59.6627 18.2853 60.1654 18.1637 60.6732 18.1801C62.6839 18.1801 64.0092 19.7695 64.0092 22.2244ZM62.3378 22.2244C62.3378 20.6205 61.5089 19.5661 60.2443 19.5661C59.0019 19.5661 58.1662 20.6428 58.1662 22.2244C58.1662 23.8206 59.0019 24.8896 60.2443 24.8896C61.5089 24.8896 62.3378 23.8428 62.3378 22.2244H62.3378Z" fill="white"/>
<path d="M69.7715 23.1575C69.892 24.235 70.9388 24.9425 72.3692 24.9425C73.7398 24.9425 74.7259 24.235 74.7259 23.2634C74.7259 22.42 74.1311 21.9151 72.7229 21.569L71.3147 21.2297C69.3195 20.7478 68.3932 19.8147 68.3932 18.3005C68.3932 16.4258 70.027 15.1381 72.347 15.1381C74.643 15.1381 76.2169 16.4258 76.2699 18.3005H74.6284C74.5302 17.2162 73.6338 16.5617 72.3239 16.5617C71.0139 16.5617 70.1176 17.2239 70.1176 18.1878C70.1176 18.9559 70.6901 19.408 72.0906 19.754L73.2877 20.0479C75.5171 20.5752 76.4434 21.4707 76.4434 23.06C76.4434 25.0929 74.8241 26.3661 72.2487 26.3661C69.839 26.3661 68.212 25.1228 68.1069 23.1574L69.7715 23.1575Z" fill="white"/>
<path d="M79.9531 16.3882V18.263H81.4596V19.5507H79.9531V23.918C79.9531 24.5965 80.2548 24.9127 80.917 24.9127C81.0958 24.9095 81.2744 24.897 81.4519 24.875V26.1551C81.1542 26.2107 80.8515 26.2359 80.5487 26.2303C78.9448 26.2303 78.3193 25.6278 78.3193 24.0915V19.5507H77.1675V18.263H78.3193V16.3882H79.9531Z" fill="white"/>
<path d="M82.332 22.2244C82.332 19.7319 83.8 18.1656 86.0892 18.1656C88.3861 18.1656 89.8473 19.7318 89.8473 22.2244C89.8473 24.7238 88.3938 26.2833 86.0892 26.2833C83.7855 26.2833 82.332 24.7238 82.332 22.2244ZM88.1904 22.2244C88.1904 20.5146 87.4069 19.5054 86.0892 19.5054C84.7716 19.5054 83.9889 20.5223 83.9889 22.2244C83.9889 23.9411 84.7716 24.9426 86.0892 24.9426C87.4069 24.9426 88.1904 23.9411 88.1904 22.2244H88.1904Z" fill="white"/>
<path d="M91.188 18.263H92.7389V19.6114H92.7765C92.8815 19.1902 93.1282 18.8181 93.4752 18.5574C93.8222 18.2968 94.2484 18.1635 94.682 18.1801C94.8694 18.1794 95.0563 18.1998 95.2392 18.2408V19.7618C95.0026 19.6895 94.7558 19.6563 94.5085 19.6635C94.2723 19.6539 94.0368 19.6956 93.8182 19.7856C93.5996 19.8756 93.403 20.0119 93.2421 20.185C93.0811 20.3582 92.9595 20.5641 92.8856 20.7887C92.8117 21.0133 92.7873 21.2512 92.8141 21.4861V26.185H91.188L91.188 18.263Z" fill="white"/>
<path d="M102.736 23.8582C102.518 25.2963 101.117 26.2833 99.3253 26.2833C97.0208 26.2833 95.5903 24.7392 95.5903 22.262C95.5903 19.7772 97.0284 18.1656 99.257 18.1656C101.449 18.1656 102.827 19.6712 102.827 22.0732V22.6303H97.2318V22.7286C97.206 23.0201 97.2425 23.3138 97.3389 23.5902C97.4353 23.8666 97.5894 24.1192 97.791 24.3315C97.9925 24.5437 98.2369 24.7106 98.508 24.8211C98.779 24.9316 99.0704 24.9832 99.3629 24.9725C99.7472 25.0085 100.133 24.9195 100.462 24.7187C100.792 24.518 101.048 24.2162 101.192 23.8582L102.736 23.8582ZM97.2395 21.4938H101.2C101.215 21.2317 101.175 20.9694 101.083 20.7233C100.992 20.4772 100.85 20.2528 100.668 20.064C100.485 19.8752 100.266 19.7261 100.023 19.6262C99.7803 19.5263 99.5195 19.4776 99.257 19.4832C98.9922 19.4816 98.7297 19.5325 98.4846 19.6329C98.2396 19.7333 98.0169 19.8812 97.8293 20.0682C97.6417 20.2551 97.493 20.4773 97.3918 20.722C97.2906 20.9667 97.2388 21.229 97.2395 21.4938V21.4938Z" fill="white"/>
<path d="M39.171 9.34769H39.8691C39.9893 9.36266 40.1113 9.35257 40.2274 9.31805C40.3435 9.28354 40.4511 9.22535 40.5436 9.14716C40.6361 9.06897 40.7114 8.97247 40.7647 8.86374C40.818 8.75501 40.8483 8.63641 40.8535 8.51542C40.8535 8.03392 40.4912 7.72288 39.8768 7.72288C39.7537 7.70567 39.6284 7.71331 39.5083 7.74535C39.3881 7.77738 39.2756 7.83316 39.1774 7.90938C39.0792 7.98561 38.9973 8.08074 38.9364 8.18916C38.8756 8.29758 38.8371 8.41709 38.8232 8.54063H38.0567C38.0699 8.31637 38.1291 8.09722 38.2307 7.89684C38.3323 7.69645 38.474 7.51912 38.647 7.37588C38.8201 7.23264 39.0208 7.12655 39.2366 7.06423C39.4525 7.00192 39.6788 6.9847 39.9016 7.01365C40.9295 7.01365 41.6533 7.58914 41.6533 8.41758C41.6557 8.69511 41.5629 8.96507 41.3903 9.1824C41.2177 9.39972 40.9757 9.55127 40.7048 9.61173V9.67325C41.026 9.6875 41.3284 9.8283 41.546 10.0649C41.7636 10.3015 41.8787 10.6146 41.8661 10.9358C41.8423 11.1667 41.7727 11.3905 41.6613 11.5942C41.5499 11.7978 41.399 11.9772 41.2174 12.1217C41.0358 12.2663 40.8271 12.3732 40.6037 12.436C40.3802 12.4989 40.1465 12.5166 39.9161 12.488C39.6853 12.5194 39.4505 12.5041 39.2257 12.4429C39.0009 12.3817 38.7908 12.2758 38.6078 12.1317C38.4248 11.9875 38.2727 11.8079 38.1605 11.6037C38.0484 11.3995 37.9785 11.1748 37.9551 10.943H38.7335C38.7805 11.4425 39.2394 11.7647 39.9161 11.7647C40.5929 11.7647 41.0347 11.4028 41.0347 10.8927C41.0347 10.3753 40.6185 10.0565 39.8914 10.0565H39.171V9.34769Z" fill="white"/>
<path d="M42.7505 11.2472C42.7505 10.538 43.2794 10.1291 44.2159 10.071L45.2832 10.0095V9.66943C45.2832 9.25329 45.0089 9.01831 44.4766 9.01831C44.0425 9.01831 43.7426 9.17767 43.6554 9.45624H42.9026C42.9821 8.77948 43.6195 8.3454 44.5133 8.3454C45.5011 8.3454 46.0582 8.83715 46.0582 9.66943V12.3615H45.3088V11.8078H45.2473C45.1224 12.0064 44.9471 12.1683 44.7392 12.277C44.5312 12.3857 44.2982 12.4373 44.0638 12.4264C43.8984 12.4436 43.7313 12.426 43.5731 12.3746C43.4149 12.3233 43.2693 12.2393 43.1455 12.1282C43.0218 12.0171 42.9227 11.8813 42.8547 11.7296C42.7866 11.5779 42.7511 11.4135 42.7505 11.2472V11.2472ZM45.2832 10.9106V10.5812L44.321 10.6427C43.7784 10.679 43.5323 10.8636 43.5323 11.2109C43.5323 11.5655 43.8399 11.7719 44.2629 11.7719C44.3869 11.7844 44.5121 11.7719 44.6311 11.7351C44.7501 11.6983 44.8605 11.6379 44.9557 11.5575C45.0509 11.4772 45.1289 11.3785 45.1852 11.2673C45.2414 11.1562 45.2748 11.0349 45.2832 10.9106V10.9106Z" fill="white"/>
<path d="M48.1218 9.07593V12.3615H47.3442V8.42139H49.9385V9.07589L48.1218 9.07593Z" fill="white"/>
<path d="M54.6511 10.3897C54.6511 11.6416 54.0179 12.4264 53.0233 12.4264C52.7792 12.4431 52.5353 12.3897 52.3205 12.2724C52.1057 12.1552 51.9288 11.979 51.8108 11.7646H51.7493V13.6714H50.9717V8.42141H51.7202V9.07256H51.7783C51.8985 8.8507 52.0776 8.66637 52.296 8.53993C52.5143 8.41349 52.7634 8.34986 53.0156 8.35607C54.0179 8.35604 54.6511 9.13747 54.6511 10.3897ZM53.8513 10.3897C53.8513 9.55746 53.4574 9.05459 52.7986 9.05459C52.1441 9.05459 51.7348 9.56813 51.7348 10.3932C51.7348 11.2143 52.144 11.7283 52.7952 11.7283C53.4574 11.7283 53.8513 11.2254 53.8513 10.3897Z" fill="white"/>
<path d="M55.6868 13.7727V13.1032C55.7709 13.1138 55.8557 13.1187 55.9405 13.1177C56.1062 13.1299 56.2706 13.0806 56.4021 12.9791C56.5336 12.8776 56.623 12.7312 56.6532 12.5678L56.7113 12.376L55.2852 8.42139H56.132L57.1198 11.551H57.1813L58.1657 8.42139H58.9903L57.5214 12.5242C57.1847 13.483 56.8122 13.7906 56.009 13.7906C55.944 13.7906 55.7594 13.7833 55.6868 13.7727Z" fill="white"/>
<path d="M59.5957 11.2434H60.3699C60.4459 11.5908 60.7715 11.7719 61.2269 11.7719C61.7448 11.7719 62.0626 11.5437 62.0626 11.1891C62.0626 10.8093 61.7772 10.6282 61.2269 10.6282H60.6373V10.024H61.2167C61.6866 10.024 61.9259 9.84331 61.9259 9.5139C61.9259 9.22466 61.6943 9.00378 61.2167 9.00378C60.7817 9.00378 60.4639 9.18835 60.4134 9.49939H59.6641C59.7201 9.14199 59.9141 8.82085 60.2045 8.60504C60.4948 8.38923 60.8583 8.296 61.2167 8.34539C62.1532 8.34539 62.689 8.7688 62.689 9.43444C62.6933 9.61981 62.6339 9.80106 62.5207 9.94788C62.4075 10.0947 62.2473 10.1982 62.0669 10.2411V10.3026C62.2817 10.3303 62.4788 10.4359 62.6209 10.5993C62.7629 10.7627 62.8401 10.9726 62.8377 11.1891C62.8377 11.9381 62.2002 12.4337 61.2269 12.4337C60.3665 12.4337 59.6675 12.0393 59.5957 11.2434Z" fill="white"/>
<path d="M63.9575 12.3614V8.42139H64.7283V11.1314H64.7898L66.6056 8.4214H67.3763V12.3615H66.6056V9.63692H66.5475L64.7283 12.3615L63.9575 12.3614Z" fill="white"/>
<path d="M71.6222 9.07595H70.3815V12.3615H69.6031V9.07595H68.3623V8.42145H71.6222V9.07595Z" fill="white"/>
<path d="M75.8111 11.2976C75.7052 11.6577 75.4761 11.9691 75.1639 12.1775C74.8517 12.3858 74.4762 12.4778 74.103 12.4375C73.8434 12.4444 73.5854 12.3946 73.347 12.2918C73.1086 12.189 72.8954 12.0355 72.7222 11.842C72.549 11.6485 72.42 11.4196 72.3442 11.1713C72.2683 10.9229 72.2474 10.661 72.2829 10.4038C72.2484 10.1458 72.2696 9.88335 72.3453 9.63426C72.421 9.38517 72.5493 9.15525 72.7215 8.96006C72.8938 8.76487 73.106 8.60897 73.3437 8.50292C73.5815 8.39686 73.8393 8.34312 74.0996 8.34534C75.1959 8.34534 75.8581 9.09434 75.8581 10.3316V10.6029H73.0759V10.6465C73.0636 10.7911 73.0816 10.9367 73.129 11.0739C73.1763 11.2112 73.2517 11.337 73.3506 11.4433C73.4494 11.5496 73.5694 11.634 73.7028 11.6912C73.8362 11.7484 73.9801 11.777 74.1252 11.7753C74.3111 11.7975 74.4994 11.7639 74.6661 11.6789C74.8329 11.5938 74.9706 11.4611 75.0617 11.2976L75.8111 11.2976ZM73.0759 10.0278H75.0651C75.075 9.89567 75.057 9.76291 75.0125 9.63808C74.968 9.51325 74.8978 9.39911 74.8066 9.30299C74.7153 9.20687 74.605 9.1309 74.4826 9.07995C74.3603 9.02901 74.2286 9.00421 74.0961 9.00716C73.9616 9.00533 73.8281 9.03048 73.7034 9.08113C73.5788 9.13178 73.4656 9.20691 73.3705 9.30206C73.2754 9.39721 73.2003 9.51046 73.1497 9.63512C73.0991 9.75978 73.074 9.89332 73.0759 10.0278H73.0759Z" fill="white"/>
<path d="M79.1079 8.42139H80.8844C81.6551 8.42139 82.1072 8.81189 82.1072 9.42326C82.1084 9.61726 82.0429 9.80578 81.9217 9.95728C81.8006 10.1088 81.631 10.2141 81.4415 10.2555V10.3171C81.6716 10.3316 81.8874 10.434 82.0442 10.603C82.2009 10.772 82.2868 10.9948 82.2841 11.2254C82.2841 11.9128 81.7671 12.3614 80.9023 12.3614H79.1079V8.42139ZM79.8787 9.01825V10.0385H80.6494C81.1194 10.0385 81.3441 9.85778 81.3441 9.52453C81.3441 9.21734 81.1484 9.01824 80.7357 9.01824L79.8787 9.01825ZM79.8787 10.6102V11.7646H80.8007C81.2604 11.7646 81.5065 11.5617 81.5065 11.1891C81.5065 10.7948 81.2279 10.6102 80.7033 10.6102L79.8787 10.6102Z" fill="white"/>
</svg>
