<svg width="51" height="51" viewBox="0 0 51 51" fill="none" xmlns="http://www.w3.org/2000/svg">
<circle cx="25.5" cy="25.5" r="25.5" fill="#373A36"/>
<g clip-path="url(#clip0_9664_17359)">
<path d="M21.5835 15.3356C20.7619 14.8815 19.7973 14.892 18.981 15.3422L28.5485 24.1682L31.7627 20.9541L21.5835 15.3356Z" fill="white"/>
<path d="M18.0242 16.2452C17.7906 16.6272 17.6567 17.0642 17.6567 17.5275V33.4682C17.6567 33.9171 17.7788 34.3449 17.9993 34.7189L27.6207 25.0976L18.0242 16.2452Z" fill="white"/>
<path d="M36.0241 23.3063L32.9583 21.6146L29.5132 25.0584L33.7353 28.9524L36.0254 27.6885C36.8496 27.2318 37.3431 26.4129 37.3431 25.4968C37.3418 24.5807 36.8496 23.7618 36.0241 23.3063Z" fill="white"/>
<path d="M28.5854 25.9877L18.9377 35.6353C19.3564 35.8742 19.8158 36.0002 20.2777 36.0002C20.724 36.0002 21.1728 35.8873 21.5836 35.6602L32.5253 29.6218L28.5854 25.9877Z" fill="white"/>
</g>
<defs>
<clipPath id="clip0_9664_17359">
<rect width="21" height="21" fill="white" transform="translate(17 15)"/>
</clipPath>
</defs>
</svg>
