<svg width="150" height="51" viewBox="0 0 150 51" fill="none" xmlns="http://www.w3.org/2000/svg">
<path d="M9.65892 50.0994C9.27026 50.0994 8.89099 50.0943 8.50537 50.0855C7.70654 50.0748 6.90958 50.0035 6.12102 49.8723C5.38573 49.7425 4.67343 49.5011 4.00762 49.1561C3.34791 48.8139 2.7462 48.3652 2.22555 47.8273C1.69736 47.2956 1.25761 46.679 0.923742 46.0019C0.586194 45.3203 0.352591 44.5898 0.23107 43.8357C0.0998372 43.0254 0.0288351 42.2061 0.0186754 41.3849C0.0105879 41.1092 0 40.1913 0 40.1913V9.9961C0 9.9961 0.0112767 9.09234 0.0187392 8.82682C0.028467 8.00684 0.0990563 7.18881 0.229896 6.3798C0.351642 5.62366 0.585426 4.89101 0.923156 4.20723C1.2558 3.53056 1.6931 2.91349 2.21811 2.37995C2.74253 1.84133 3.34616 1.39035 4.00699 1.04345C4.67128 0.699528 5.38223 0.459852 6.11603 0.332457C6.90718 0.199871 7.70691 0.128188 8.50851 0.118011L9.65955 0.102051H140.755L141.92 0.118651C142.714 0.128323 143.507 0.199366 144.291 0.331176C145.032 0.460169 145.75 0.701517 146.422 1.04728C147.746 1.74639 148.823 2.85245 149.503 4.21042C149.835 4.88948 150.065 5.61615 150.186 6.36576C150.318 7.18141 150.392 8.00587 150.407 8.83258C150.411 9.20275 150.411 9.60038 150.411 9.9961C150.421 10.4863 150.421 10.9528 150.421 11.4232V38.7795C150.421 39.2544 150.421 39.7178 150.411 40.1849C150.411 40.61 150.411 40.9994 150.406 41.4002C150.391 42.2121 150.318 43.0219 150.188 43.8229C150.069 44.5824 149.837 45.3187 149.499 46.0058C149.163 46.6756 148.726 47.2869 148.204 47.8171C147.683 48.3579 147.08 48.8092 146.419 49.1536C145.749 49.5013 145.031 49.7436 144.291 49.8723C143.502 50.0042 142.705 50.0755 141.906 50.0855C141.533 50.0943 141.141 50.0994 140.762 50.0994L139.379 50.1021L9.65892 50.0994Z" fill="white"/>
<path d="M31.0837 24.7649C31.0971 23.7216 31.3751 22.6986 31.8915 21.7912C32.408 20.8838 33.1463 20.1213 34.0376 19.5749C33.4714 18.7684 32.7244 18.1047 31.8559 17.6365C30.9874 17.1684 30.0214 16.9086 29.0347 16.8778C26.9297 16.6574 24.8891 18.1338 23.8164 18.1338C22.723 18.1338 21.0715 16.8996 19.2932 16.9361C18.1428 16.9732 17.0218 17.3068 16.0392 17.9043C15.0566 18.5019 14.246 19.3431 13.6863 20.346C11.262 24.5315 13.0703 30.6828 15.3926 34.0661C16.5545 35.7227 17.9124 37.5733 19.6892 37.5077C21.4278 37.4358 22.0772 36.4021 24.176 36.4021C26.2552 36.4021 26.8645 37.5077 28.6773 37.466C30.543 37.4358 31.7185 35.8019 32.8396 34.1295C33.6744 32.9491 34.3168 31.6444 34.743 30.2639C33.659 29.8067 32.7341 29.0415 32.0833 28.0636C31.4326 27.0858 31.0849 25.9385 31.0837 24.7649Z" fill="#333333"/>
<path d="M27.6596 14.6527C28.6768 13.4349 29.178 11.8697 29.0566 10.2894C27.5025 10.4522 26.0669 11.1929 25.0359 12.3639C24.5318 12.936 24.1457 13.6016 23.8997 14.3225C23.6537 15.0435 23.5526 15.8057 23.6022 16.5657C24.3796 16.5737 25.1486 16.4056 25.8514 16.0743C26.5542 15.7429 27.1724 15.2569 27.6596 14.6527Z" fill="#333333"/>
<path d="M53.0619 33.3136H47.1286L45.7037 37.5092H43.1906L48.8105 21.9867H51.4216L57.0416 37.5092H54.4856L53.0619 33.3136ZM47.7431 31.3776H52.4463L50.1277 24.5685H50.0629L47.7431 31.3776Z" fill="#333333"/>
<path d="M69.1788 31.8512C69.1788 35.3681 67.2912 37.6276 64.4427 37.6276C63.7211 37.6652 63.0034 37.4995 62.3719 37.1493C61.7404 36.7991 61.2206 36.2787 60.8719 35.6476H60.818V41.2531H58.4885V26.192H60.7434V28.0744H60.7862C61.1509 27.4463 61.6795 26.9285 62.3159 26.5762C62.9522 26.2239 63.6724 26.0502 64.3998 26.0736C67.2802 26.0736 69.1788 28.3441 69.1788 31.8512ZM66.7844 31.8512C66.7844 29.56 65.597 28.0536 63.7853 28.0536C62.0054 28.0536 60.8082 29.5917 60.8082 31.8512C60.8082 34.1315 62.0054 35.6586 63.7853 35.6586C65.597 35.6586 66.7844 34.1632 66.7844 31.8512Z" fill="#333333"/>
<path d="M81.6699 31.8512C81.6699 35.3681 79.7822 37.6276 76.9337 37.6276C76.2121 37.6652 75.4945 37.4995 74.863 37.1493C74.2315 36.7991 73.7116 36.2787 73.3629 35.6476H73.309V41.253H70.9795V26.192H73.2343V28.0743H73.2772C73.6419 27.4463 74.1705 26.9285 74.8069 26.5762C75.4432 26.2239 76.1634 26.0502 76.8908 26.0736C79.7712 26.0736 81.6699 28.3441 81.6699 31.8512ZM79.2755 31.8512C79.2755 29.56 78.088 28.0536 76.2763 28.0536C74.4964 28.0536 73.2992 29.5917 73.2992 31.8512C73.2992 34.1315 74.4964 35.6586 76.2763 35.6586C78.0881 35.6586 79.2755 34.1632 79.2755 31.8512H79.2755Z" fill="#333333"/>
<path d="M89.9254 33.1843C90.098 34.7236 91.5976 35.7343 93.6468 35.7343C95.6103 35.7343 97.0229 34.7235 97.0229 33.3356C97.0229 32.1307 96.1709 31.4093 94.1536 30.9149L92.1362 30.4303C89.2779 29.7418 87.9509 28.4088 87.9509 26.2457C87.9509 23.5675 90.2914 21.7279 93.6149 21.7279C96.9041 21.7279 99.159 23.5675 99.2349 26.2457H96.8833C96.7426 24.6967 95.4585 23.7616 93.5819 23.7616C91.7053 23.7616 90.4212 24.7077 90.4212 26.0846C90.4212 27.182 91.2413 27.8278 93.2477 28.3221L94.9627 28.742C98.1564 29.4952 99.4834 30.7745 99.4834 33.045C99.4834 35.9491 97.1637 37.7679 93.4741 37.7679C90.0221 37.7679 87.6913 35.9918 87.5408 33.1842L89.9254 33.1843Z" fill="#333333"/>
<path d="M104.511 23.5139V26.1921H106.669V28.0317H104.511V34.2708C104.511 35.24 104.943 35.6917 105.892 35.6917C106.148 35.6872 106.404 35.6693 106.658 35.6379V37.4665C106.231 37.546 105.798 37.582 105.364 37.5739C103.066 37.5739 102.17 36.7133 102.17 34.5185V28.0317H100.52V26.1921H102.17V23.5139H104.511Z" fill="#333333"/>
<path d="M107.919 31.8513C107.919 28.2905 110.022 26.053 113.301 26.053C116.592 26.053 118.685 28.2905 118.685 31.8513C118.685 35.4219 116.603 37.6497 113.301 37.6497C110.001 37.6497 107.919 35.4219 107.919 31.8513ZM116.312 31.8513C116.312 29.4087 115.189 27.967 113.301 27.967C111.414 27.967 110.293 29.4197 110.293 31.8513C110.293 34.3037 111.414 35.7344 113.301 35.7344C115.189 35.7344 116.312 34.3037 116.312 31.8513H116.312Z" fill="#333333"/>
<path d="M120.606 26.192H122.828V28.1183H122.881C123.032 27.5167 123.385 26.985 123.882 26.6127C124.379 26.2403 124.99 26.05 125.611 26.0736C125.88 26.0727 126.147 26.1018 126.409 26.1603V28.3331C126.07 28.2299 125.717 28.1825 125.363 28.1928C125.024 28.1791 124.687 28.2386 124.374 28.3672C124.061 28.4958 123.779 28.6905 123.548 28.9378C123.318 29.1852 123.144 29.4794 123.038 29.8002C122.932 30.1211 122.897 30.4609 122.935 30.7965V37.5092H120.606L120.606 26.192Z" fill="#333333"/>
<path d="M137.15 34.1853C136.837 36.2397 134.83 37.6497 132.263 37.6497C128.962 37.6497 126.912 35.4438 126.912 31.905C126.912 28.3552 128.973 26.053 132.165 26.053C135.305 26.053 137.28 28.2039 137.28 31.6353V32.4312H129.264V32.5715C129.227 32.988 129.279 33.4076 129.417 33.8024C129.556 34.1972 129.776 34.5582 130.065 34.8614C130.354 35.1646 130.704 35.403 131.092 35.5609C131.48 35.7188 131.898 35.7925 132.317 35.7771C132.868 35.8285 133.42 35.7014 133.892 35.4146C134.364 35.1278 134.731 34.6966 134.938 34.1853L137.15 34.1853ZM129.275 30.8076H134.949C134.97 30.4331 134.913 30.0584 134.782 29.7068C134.65 29.3553 134.448 29.0347 134.186 28.765C133.925 28.4952 133.611 28.2823 133.263 28.1396C132.915 27.9968 132.541 27.9272 132.165 27.9353C131.786 27.933 131.41 28.0057 131.059 28.1492C130.708 28.2926 130.389 28.5039 130.12 28.771C129.851 29.038 129.638 29.3555 129.493 29.705C129.348 30.0546 129.274 30.4293 129.275 30.8076V30.8076Z" fill="#333333"/>
<path d="M46.0875 13.4559H47.0876C47.2598 13.4773 47.4345 13.4629 47.6008 13.4136C47.7671 13.3643 47.9214 13.2811 48.0539 13.1694C48.1864 13.0577 48.2942 12.9199 48.3706 12.7645C48.447 12.6092 48.4903 12.4398 48.4978 12.2669C48.4978 11.5791 47.9788 11.1347 47.0986 11.1347C46.9223 11.1102 46.7427 11.1211 46.5706 11.1668C46.3985 11.2126 46.2374 11.2923 46.0967 11.4012C45.956 11.5101 45.8386 11.646 45.7515 11.8008C45.6643 11.9557 45.6092 12.1265 45.5893 12.3029H44.4912C44.5101 11.9826 44.5949 11.6695 44.7404 11.3832C44.8859 11.097 45.0889 10.8436 45.3369 10.639C45.5848 10.4344 45.8723 10.2828 46.1815 10.1938C46.4907 10.1048 46.815 10.0802 47.1341 10.1215C48.6067 10.1215 49.6436 10.9437 49.6436 12.1272C49.6471 12.5236 49.5141 12.9093 49.2668 13.2198C49.0195 13.5302 48.6729 13.7467 48.2848 13.8331V13.921C48.7449 13.9413 49.1781 14.1425 49.4899 14.4805C49.8016 14.8184 49.9665 15.2657 49.9484 15.7246C49.9144 16.0544 49.8147 16.3742 49.6551 16.6651C49.4955 16.9561 49.2793 17.2123 49.0191 17.4188C48.7589 17.6253 48.46 17.778 48.1399 17.8678C47.8198 17.9577 47.485 17.9829 47.155 17.942C46.8243 17.9869 46.4879 17.965 46.1659 17.8776C45.8438 17.7901 45.5428 17.6389 45.2806 17.433C45.0184 17.227 44.8005 16.9705 44.6399 16.6788C44.4793 16.3871 44.3792 16.0661 44.3456 15.735H45.4608C45.5281 16.4485 46.1855 16.9087 47.155 16.9087C48.1245 16.9087 48.7573 16.3917 48.7573 15.663C48.7573 14.9238 48.1612 14.4685 47.1195 14.4685H46.0875V13.4559Z" fill="#333333"/>
<path d="M51.2154 16.1695C51.2154 15.1564 51.9731 14.5723 53.3148 14.4892L54.8437 14.4014V13.9155C54.8437 13.321 54.4508 12.9853 53.6881 12.9853C53.0663 12.9853 52.6366 13.213 52.5117 13.611H51.4333C51.5471 12.6442 52.4603 12.024 53.7408 12.024C55.1559 12.024 55.954 12.7265 55.954 13.9155V17.7613H54.8804V16.9703H54.7923C54.6134 17.2541 54.3622 17.4854 54.0643 17.6406C53.7665 17.7959 53.4326 17.8696 53.0969 17.8541C52.8599 17.8787 52.6204 17.8535 52.3939 17.7801C52.1673 17.7067 51.9586 17.5868 51.7813 17.4281C51.6041 17.2694 51.4621 17.0754 51.3647 16.8586C51.2672 16.6418 51.2163 16.4071 51.2154 16.1695ZM54.8437 15.6886V15.218L53.4653 15.3059C52.688 15.3578 52.3354 15.6214 52.3354 16.1177C52.3354 16.6242 52.7761 16.919 53.3821 16.919C53.5597 16.937 53.739 16.9191 53.9095 16.8665C54.08 16.8139 54.2381 16.7276 54.3745 16.6128C54.5109 16.498 54.6227 16.357 54.7033 16.1982C54.7839 16.0395 54.8317 15.8661 54.8437 15.6886Z" fill="#333333"/>
<path d="M58.9103 13.0678V17.7614H57.7963V12.1327H61.5128V13.0677L58.9103 13.0678Z" fill="#333333"/>
<path d="M68.2638 14.9445C68.2638 16.7329 67.3568 17.8541 65.9319 17.8541C65.5821 17.8779 65.2328 17.8016 64.925 17.6341C64.6173 17.4666 64.364 17.2149 64.1948 16.9086H64.1067V19.6326H62.9927V12.1326H64.0651V13.0629H64.1483C64.3205 12.7459 64.5771 12.4826 64.8899 12.3019C65.2027 12.1213 65.5595 12.0304 65.9209 12.0393C67.3568 12.0393 68.2638 13.1556 68.2638 14.9445ZM67.1181 14.9445C67.1181 13.7556 66.5537 13.0372 65.6099 13.0372C64.6723 13.0372 64.0859 13.7708 64.0859 14.9494C64.0859 16.1225 64.6723 16.8568 65.605 16.8568C66.5537 16.8568 67.1181 16.1384 67.1181 14.9445Z" fill="#333333"/>
<path d="M69.7475 19.7774V18.8209C69.8681 18.8362 69.9895 18.8431 70.111 18.8417C70.3484 18.8592 70.5838 18.7887 70.7722 18.6438C70.9607 18.4988 71.0888 18.2895 71.1319 18.0562L71.2152 17.7821L69.1721 12.1327H70.3852L71.8004 16.6035H71.8885L73.2987 12.1327H74.48L72.3757 17.9939C71.8934 19.3635 71.3597 19.803 70.209 19.803C70.116 19.803 69.8516 19.7926 69.7475 19.7774Z" fill="#333333"/>
<path d="M75.3479 16.1639H76.457C76.5659 16.6602 77.0323 16.9189 77.6848 16.9189C78.4266 16.9189 78.882 16.593 78.882 16.0864C78.882 15.5438 78.4731 15.2851 77.6848 15.2851H76.8401V14.422H77.6701C78.3433 14.422 78.6861 14.1638 78.6861 13.6933C78.6861 13.2801 78.3544 12.9645 77.6701 12.9645C77.047 12.9645 76.5916 13.2282 76.5194 13.6725H75.4458C75.5261 13.162 75.8041 12.7032 76.22 12.3949C76.636 12.0866 77.1567 11.9534 77.6701 12.024C79.0117 12.024 79.7793 12.6288 79.7793 13.5798C79.7855 13.8446 79.7004 14.1035 79.5382 14.3132C79.376 14.523 79.1465 14.6709 78.8881 14.7321V14.82C79.1958 14.8596 79.4781 15.0104 79.6817 15.2438C79.8852 15.4773 79.9957 15.7771 79.9923 16.0865C79.9923 17.1565 79.079 17.8644 77.6848 17.8644C76.4521 17.8644 75.4507 17.301 75.3479 16.1639Z" fill="#333333"/>
<path d="M81.5964 17.7614V12.1327H82.7006V16.0042H82.7887L85.39 12.1327H86.4942V17.7614H85.39V13.8692H85.3068L82.7006 17.7614L81.5964 17.7614Z" fill="#333333"/>
<path d="M92.5769 13.0677H90.7994V17.7613H89.6842V13.0677H87.9067V12.1327H92.5769V13.0677Z" fill="#333333"/>
<path d="M98.5775 16.2416C98.4257 16.756 98.0975 17.2008 97.6503 17.4985C97.203 17.7961 96.6651 17.9276 96.1305 17.87C95.7586 17.8798 95.3891 17.8087 95.0475 17.6618C94.7059 17.5149 94.4005 17.2956 94.1524 17.0192C93.9043 16.7428 93.7195 16.4158 93.6109 16.0611C93.5022 15.7063 93.4722 15.3322 93.5231 14.9647C93.4736 14.5961 93.5041 14.2212 93.6125 13.8653C93.7209 13.5095 93.9047 13.181 94.1515 12.9022C94.3982 12.6234 94.7022 12.4006 95.0428 12.2491C95.3834 12.0976 95.7527 12.0208 96.1256 12.024C97.6962 12.024 98.6449 13.094 98.6449 14.8615V15.2491H94.6591V15.3114C94.6414 15.518 94.6673 15.726 94.7351 15.922C94.8029 16.118 94.911 16.2978 95.0526 16.4496C95.1942 16.6015 95.366 16.7221 95.5571 16.8038C95.7483 16.8855 95.9544 16.9264 96.1623 16.9239C96.4286 16.9556 96.6983 16.9077 96.9372 16.7862C97.1761 16.6647 97.3734 16.4751 97.504 16.2415L98.5775 16.2416ZM94.6591 14.4276H97.5088C97.5229 14.2388 97.4972 14.0491 97.4334 13.8708C97.3697 13.6925 97.2692 13.5294 97.1385 13.3921C97.0077 13.2548 96.8497 13.1462 96.6744 13.0735C96.4991 13.0007 96.3105 12.9653 96.1207 12.9695C95.928 12.9669 95.7367 13.0028 95.5581 13.0751C95.3796 13.1475 95.2174 13.2548 95.0811 13.3908C94.9449 13.5267 94.8373 13.6885 94.7648 13.8666C94.6923 14.0447 94.6564 14.2354 94.6591 14.4276H94.6591Z" fill="#333333"/>
<path d="M103.3 12.1327H105.845C106.949 12.1327 107.597 12.6906 107.597 13.5639C107.599 13.8411 107.505 14.1104 107.331 14.3268C107.158 14.5433 106.915 14.6937 106.643 14.7529V14.8408C106.973 14.8616 107.282 15.0078 107.507 15.2493C107.731 15.4908 107.854 15.8091 107.85 16.1384C107.85 17.1205 107.11 17.7613 105.871 17.7613H103.3V12.1327ZM104.404 12.9854V14.4429H105.509C106.182 14.4429 106.504 14.1847 106.504 13.7086C106.504 13.2698 106.224 12.9853 105.632 12.9853L104.404 12.9854ZM104.404 15.2595V16.9087H105.725C106.384 16.9087 106.736 16.6188 106.736 16.0866C106.736 15.5232 106.337 15.2595 105.586 15.2595L104.404 15.2595Z" fill="#333333"/>
</svg>
