<svg width="24" height="24" viewBox="0 0 24 24" fill="none" xmlns="http://www.w3.org/2000/svg">
<path fill-rule="evenodd" clip-rule="evenodd" d="M0 3C0 1.34315 1.34315 0 3 0H21C22.6569 0 24 1.34315 24 3V21C24 22.6569 22.6569 24 21 24H3C1.34315 24 0 22.6569 0 21V3ZM15.0293 6.82641H4.29297V18.5647H7.28124V14.7458H13.0072L15.6198 18.5647H18.9659L16.085 14.7283C16.9797 14.5875 17.6239 14.2531 18.0175 13.7251C18.4112 13.1972 18.608 12.3524 18.608 11.2261V10.3462C18.608 9.6774 18.5365 9.14947 18.4112 8.74465C18.2859 8.3399 18.0712 7.98792 17.767 7.67115C17.4449 7.37197 17.0871 7.16079 16.6576 7.01999C16.2281 6.8968 15.6913 6.82641 15.0293 6.82641ZM14.5462 12.1588H7.28124V9.4134H14.5462C14.9577 9.4134 15.244 9.48381 15.3872 9.60699C15.5303 9.73018 15.6198 9.95898 15.6198 10.2934V11.2789C15.6198 11.6309 15.5303 11.8597 15.3872 11.9828C15.244 12.106 14.9577 12.1588 14.5462 12.1588ZM20.5499 5.66531C20.5499 6.37469 19.9762 6.94976 19.2689 6.94976C18.5612 6.94976 17.9875 6.37469 17.9875 5.66531C17.9875 4.95593 18.5612 4.38086 19.2689 4.38086C19.9762 4.38086 20.5499 4.95593 20.5499 5.66531Z" fill="currentColor"/>
</svg>
