<svg width="17" height="18" viewBox="0 0 17 18" fill="none" xmlns="http://www.w3.org/2000/svg">
<path d="M8.17762 1.92745C8.28386 1.6218 8.71614 1.6218 8.82238 1.92746L10.4205 6.52501C10.4674 6.65985 10.5932 6.75127 10.7359 6.75418L15.6023 6.85335C15.9258 6.85994 16.0594 7.27106 15.8015 7.46656L11.9228 10.4072C11.8091 10.4934 11.761 10.6413 11.8024 10.778L13.2118 15.4368C13.3055 15.7466 12.9558 16.0006 12.6902 15.8158L8.69495 13.0357C8.57777 12.9541 8.42223 12.9541 8.30505 13.0357L4.30978 15.8158C4.04417 16.0006 3.69445 15.7466 3.78816 15.4368L5.19763 10.778C5.23897 10.6413 5.19091 10.4934 5.07715 10.4072L1.19846 7.46656C0.940593 7.27106 1.07417 6.85994 1.3977 6.85335L6.26408 6.75418C6.4068 6.75127 6.53264 6.65985 6.57951 6.52501L8.17762 1.92745Z" stroke="#FE5000" stroke-width="1.5"/>
</svg>
