<svg width="51" height="51" viewBox="0 0 51 51" fill="none" xmlns="http://www.w3.org/2000/svg">
<circle cx="25.5" cy="25.5" r="25.5" fill="#373A36"/>
<path d="M31.8811 25.2406C31.8926 24.3477 32.1295 23.4722 32.5698 22.6956C33.0101 21.9189 33.6395 21.2664 34.3994 20.7988C33.9167 20.1086 33.2798 19.5406 32.5394 19.1399C31.799 18.7392 30.9755 18.5168 30.1342 18.4905C28.3397 18.3019 26.6 19.5655 25.6855 19.5655C24.7534 19.5655 23.3454 18.5092 21.8293 18.5404C20.8486 18.5722 19.8929 18.8576 19.0552 19.3691C18.2175 19.8805 17.5264 20.6004 17.0493 21.4587C14.9825 25.0408 16.5242 30.3052 18.504 33.2007C19.4945 34.6186 20.6521 36.2023 22.1669 36.1462C23.6492 36.0846 24.2028 35.2 25.992 35.2C27.7647 35.2 28.2841 36.1462 29.8296 36.1105C31.4201 36.0846 32.4223 34.6863 33.3781 33.255C34.0898 32.2448 34.6374 31.1282 35.0007 29.9467C34.0766 29.5555 33.2881 28.9006 32.7333 28.0637C32.1785 27.2268 31.8821 26.245 31.8811 25.2406Z" fill="white"/>
<path d="M28.9621 16.5864C29.8294 15.5442 30.2566 14.2046 30.1532 12.8522C28.8282 12.9915 27.6043 13.6254 26.7254 14.6276C26.2956 15.1172 25.9665 15.6868 25.7568 16.3038C25.547 16.9208 25.4609 17.5732 25.5031 18.2236C26.1658 18.2304 26.8215 18.0866 27.4206 17.803C28.0198 17.5194 28.5468 17.1034 28.9621 16.5864Z" fill="white"/>
</svg>
