<svg width="24" height="24" viewBox="0 0 24 24" fill="none" xmlns="http://www.w3.org/2000/svg">
<rect width="24" height="24" rx="3" fill="#373A36"/>
<path d="M10.6794 10.0477C10.4095 10.0064 10.133 9.98516 9.85129 9.98516C6.89596 9.98516 4.5 12.339 4.5 15.2427C4.5 18.1461 6.89596 20.5 9.85129 20.5C12.8068 20.5 15.2028 18.1461 15.2028 15.2427C15.2028 13.229 14.0506 11.4798 12.3585 10.5967V15.1548C12.3594 15.1838 12.36 15.2131 12.36 15.2425C12.36 16.6036 11.237 17.7072 9.85148 17.7072C8.46598 17.7072 7.34276 16.6036 7.34276 15.2425C7.34276 13.8813 8.46598 12.7779 9.85148 12.7779C10.1416 12.7779 10.4202 12.8263 10.6794 12.9153V10.0477Z" fill="#F8F8F8"/>
<path d="M15.2017 3.5H12.3583V15.252H15.2017V9.01849C16.5118 10.185 18.3997 10.4812 19.5 10.5208V7.77297C17.1848 7.77297 15.2017 5.89691 15.2017 3.5Z" fill="#F8F8F8"/>
</svg>
