<svg width="240" height="120" viewBox="0 0 240 120" fill="none" xmlns="http://www.w3.org/2000/svg">
<g clip-path="url(#clip0_2761_493)">
<path d="M212.323 33.6919V63.0299H201.803V42.4499H191.674V63.0299H181.154V33.6899H212.323V33.6919Z" fill="currentColor"/>
<path fill-rule="evenodd" clip-rule="evenodd" d="M159.55 64.079C168.967 64.079 175.96 58.329 175.96 49.612C175.96 41.175 170.801 35.697 162.178 35.697C158.198 35.697 154.915 37.092 152.441 39.499C153.032 34.524 157.256 30.892 161.908 30.892C162.981 30.892 171.063 30.875 171.063 30.875L175.633 22.166C175.633 22.166 165.487 22.396 160.77 22.396C149.993 22.583 142.714 32.338 142.714 44.186C142.714 57.989 149.813 64.079 159.55 64.079V64.079ZM159.607 43.411C163.104 43.411 165.528 45.699 165.528 49.611C165.528 53.132 163.374 56.033 159.607 56.041C156.004 56.041 153.58 53.353 153.58 49.671C153.58 45.758 156.004 43.411 159.607 43.411V43.411Z" fill="currentColor"/>
<path d="M134.151 53.208C134.151 53.208 131.667 54.634 127.956 54.904C123.69 55.03 119.889 52.347 119.889 47.58C119.889 42.93 123.243 40.265 127.849 40.265C130.672 40.265 134.408 42.214 134.408 42.214C134.408 42.214 137.141 37.219 138.557 34.721C135.964 32.764 132.511 31.691 128.494 31.691C118.357 31.691 110.505 38.273 110.505 47.521C110.505 56.887 117.885 63.316 128.494 63.122C131.46 63.012 135.551 61.975 138.044 60.38L134.151 53.208Z" fill="currentColor"/>
<path d="M0 26.12L14.5928 52.095V67.939L0.0170711 93.863L0 26.12Z" fill="#5B57A2"/>
<path d="M56.0303 42.6431L69.7042 34.2971L97.6888 34.2711L56.0303 59.6851V42.6431Z" fill="#D90751"/>
<path d="M55.9529 25.967L56.0303 60.357L41.4033 51.407V0L55.9539 25.967H55.9529Z" fill="#FAB718"/>
<path d="M97.6888 34.271L69.7032 34.297L55.9529 25.967L41.4033 0L97.6878 34.271H97.6888Z" fill="#ED6F26"/>
<path d="M56.0303 94.007V77.322L41.4033 68.542L41.4114 120L56.0303 94.007Z" fill="#63B22F"/>
<path d="M69.6703 85.737L14.5918 52.095L0 26.12L97.6298 85.703L69.6693 85.737H69.6703Z" fill="#1487C9"/>
<path d="M41.4121 120L56.029 94.007L69.6688 85.737L97.6284 85.703L41.4121 120Z" fill="#017F36"/>
<path d="M0.0166016 93.8631L41.5225 68.5431L27.5684 60.0171L14.5923 67.9391L0.0166016 93.8631Z" fill="#984995"/>
<path d="M119.892 82.7749C119.571 83.1829 119.148 83.4909 118.641 83.6989C118.121 83.9099 117.564 84.0172 117.002 84.0149C116.444 84.0225 115.888 83.9296 115.362 83.7409C114.89 83.5702 114.459 83.3039 114.095 82.9589C113.736 82.6134 113.454 82.1963 113.268 81.7349C113.066 81.2296 112.965 80.6898 112.971 80.1459C112.971 79.6059 113.065 79.1059 113.259 78.6319C113.444 78.1569 113.715 77.7499 114.053 77.4079C114.391 77.0589 114.797 76.7929 115.253 76.5849C115.718 76.3849 116.225 76.2769 116.782 76.2769C117.383 76.2769 117.94 76.3519 118.447 76.5009C118.954 76.6509 119.385 76.9009 119.74 77.2509L119.123 78.2909C118.825 78.0218 118.474 77.8175 118.092 77.6909C117.729 77.5745 117.35 77.5157 116.968 77.5169C116.631 77.5169 116.309 77.5829 115.997 77.7079C115.689 77.8314 115.408 78.0123 115.169 78.2409C114.924 78.4761 114.731 78.7594 114.602 79.0729C114.459 79.3969 114.391 79.7549 114.391 80.1539C114.391 80.5619 114.467 80.9279 114.61 81.2439C114.755 81.5689 114.949 81.8439 115.194 82.0759C115.439 82.3099 115.726 82.4839 116.055 82.6009C116.386 82.7259 116.732 82.7839 117.104 82.7839C117.56 82.7839 117.974 82.6919 118.329 82.5169C118.68 82.348 118.996 82.1138 119.259 81.8269L119.892 82.7749V82.7749ZM121.633 83.8399V76.4349H122.968V81.9519L127.311 76.4349H128.647V83.8409H127.311V78.3239L122.968 83.8409H121.633V83.8399ZM137.494 82.7749C137.165 83.1864 136.734 83.5049 136.243 83.6989C135.723 83.9098 135.166 84.0171 134.604 84.0149C134.045 84.0224 133.49 83.9296 132.965 83.7409C132.492 83.5702 132.061 83.3039 131.696 82.9589C131.337 82.6134 131.055 82.1963 130.869 81.7349C130.667 81.2296 130.567 80.6898 130.573 80.1459C130.573 79.6059 130.666 79.1059 130.86 78.6319C131.047 78.1569 131.317 77.7499 131.654 77.4079C131.993 77.0589 132.398 76.7929 132.854 76.5849C133.336 76.3738 133.858 76.2687 134.384 76.2769C134.984 76.2769 135.541 76.3519 136.049 76.5009C136.556 76.6509 136.987 76.9009 137.342 77.2509L136.724 78.2909C136.427 78.0216 136.076 77.8173 135.694 77.6909C135.331 77.5745 134.952 77.5158 134.57 77.5169C133.899 77.5191 133.255 77.7783 132.77 78.2409C132.527 78.4779 132.335 78.7607 132.204 79.0729C132.06 79.3969 131.993 79.7549 131.993 80.1539C131.993 80.5619 132.069 80.9279 132.213 81.2439C132.356 81.5689 132.55 81.8439 132.795 82.0759C133.04 82.3099 133.328 82.4839 133.658 82.6009C133.987 82.7169 134.333 82.7839 134.705 82.7839C135.162 82.7839 135.568 82.6919 135.93 82.5169C136.281 82.348 136.597 82.1138 136.86 81.8269L137.494 82.7749V82.7749ZM138.178 76.4349H145.031V77.7499H142.277V83.8399H140.941V77.7499H138.187V76.4349H138.178Z" fill="currentColor"/>
<path fill-rule="evenodd" clip-rule="evenodd" d="M151.268 83.766C151.776 83.608 152.206 83.366 152.578 83.034L152.172 82.002C151.927 82.219 151.598 82.402 151.201 82.552C150.803 82.702 150.356 82.776 149.866 82.776C149.131 82.776 148.522 82.585 148.04 82.194C147.559 81.802 147.297 81.254 147.238 80.554H153.018C153.077 80.296 153.102 80.005 153.102 79.664C153.102 79.156 153.009 78.699 152.823 78.283C152.65 77.879 152.397 77.5138 152.08 77.209C151.758 76.9071 151.379 76.6724 150.964 76.519C150.53 76.3513 150.069 76.2665 149.603 76.269C148.978 76.269 148.429 76.377 147.948 76.577C147.493 76.7675 147.082 77.0478 146.739 77.401C146.406 77.7523 146.15 78.1688 145.987 78.624C145.809 79.1087 145.72 79.6217 145.725 80.138C145.725 80.721 145.827 81.253 146.013 81.728C146.193 82.1881 146.47 82.6049 146.824 82.951C147.17 83.291 147.592 83.55 148.091 83.733C148.626 83.9217 149.189 84.0144 149.756 84.007C150.27 84.0038 150.779 83.9229 151.268 83.767V83.766ZM147.888 78.066C148.302 77.692 148.851 77.509 149.544 77.509C150.195 77.509 150.719 77.684 151.1 78.034C151.48 78.383 151.682 78.866 151.716 79.481H147.153C147.218 78.9365 147.479 78.4339 147.888 78.067V78.066Z" fill="currentColor"/>
<path d="M154.918 76.4351H156.136L159.026 80.1051L161.763 76.4351H162.946V83.8411H161.611V78.4411L159.008 81.8771H158.957L156.254 78.4401V83.8401H154.918V76.4351V76.4351Z" fill="currentColor"/>
<path fill-rule="evenodd" clip-rule="evenodd" d="M166.579 76.46C166.174 76.5655 165.787 76.7306 165.43 76.95L165.785 78C166.089 77.85 166.393 77.725 166.698 77.617C167.002 77.508 167.39 77.458 167.855 77.458C168.227 77.458 168.523 77.517 168.751 77.633C168.979 77.741 169.148 77.908 169.266 78.108C169.385 78.308 169.461 78.557 169.503 78.848C169.545 79.139 169.562 79.455 169.562 79.797C169.289 79.6074 168.978 79.4794 168.65 79.422C168.332 79.3592 168.01 79.3258 167.687 79.322C167.289 79.322 166.917 79.381 166.562 79.48C166.208 79.58 165.903 79.73 165.658 79.93C165.408 80.1297 165.206 80.3825 165.067 80.67C164.918 80.9848 164.843 81.3291 164.847 81.677C164.847 82.401 165.059 82.967 165.48 83.367C165.903 83.766 166.461 83.965 167.153 83.965C167.779 83.965 168.278 83.857 168.658 83.641C169.038 83.424 169.343 83.175 169.562 82.892V83.849H170.813V79.306C170.813 78.34 170.602 77.592 170.171 77.067C169.748 76.543 168.996 76.277 167.932 76.277C167.458 76.277 167.01 76.343 166.579 76.46V76.46ZM168.811 82.46C168.507 82.676 168.109 82.775 167.619 82.775C167.189 82.775 166.85 82.667 166.614 82.459C166.377 82.243 166.259 81.96 166.259 81.61C166.259 81.403 166.301 81.228 166.394 81.07C166.488 80.912 166.614 80.787 166.758 80.687C166.915 80.5824 167.089 80.5063 167.273 80.462C167.468 80.412 167.662 80.387 167.864 80.387C168.524 80.387 169.09 80.545 169.554 80.878V81.818C169.335 82.0625 169.086 82.2779 168.811 82.459V82.46ZM182.602 73.83C182.872 73.706 183.125 73.498 183.362 73.19L182.635 72.15C182.449 72.4 182.238 72.574 182.001 72.666C181.75 72.7638 181.49 72.8361 181.224 72.882L180.971 72.927C180.751 72.965 180.515 73.007 180.261 73.049C179.854 73.1241 179.457 73.2469 179.078 73.415C178.478 73.673 177.997 74.022 177.633 74.463C177.27 74.904 176.982 75.403 176.788 75.953C176.59 76.5102 176.457 77.0879 176.391 77.675C176.323 78.275 176.29 78.848 176.29 79.397C176.29 80.105 176.382 80.745 176.568 81.319C176.754 81.894 177.016 82.376 177.362 82.767C177.708 83.167 178.123 83.467 178.613 83.683C179.103 83.899 179.653 84.007 180.269 84.007C180.835 84.007 181.36 83.899 181.833 83.699C182.289 83.5069 182.702 83.2272 183.05 82.876C183.387 82.534 183.658 82.126 183.844 81.669C184.038 81.211 184.131 80.72 184.131 80.204C184.131 79.647 184.047 79.14 183.886 78.69C183.738 78.261 183.502 77.8673 183.193 77.534C182.884 77.2063 182.506 76.9502 182.086 76.784C181.623 76.6026 181.13 76.5123 180.633 76.518C180.311 76.518 179.999 76.56 179.695 76.643C179.399 76.7261 179.115 76.8464 178.849 77.001C178.592 77.1479 178.356 77.3297 178.148 77.541C177.945 77.75 177.777 77.983 177.658 78.249H177.624C177.65 77.908 177.692 77.559 177.768 77.201C177.844 76.843 177.953 76.501 178.098 76.177C178.242 75.853 178.427 75.561 178.655 75.295C178.9 75.0265 179.199 74.8137 179.534 74.671C179.902 74.4965 180.291 74.3708 180.692 74.297L180.957 74.249C181.221 74.201 181.473 74.155 181.714 74.105C182.035 74.039 182.331 73.955 182.602 73.831V73.83ZM177.903 80.945C177.773 80.5249 177.71 80.0868 177.717 79.647C177.774 79.3946 177.877 79.1549 178.022 78.94C178.165 78.715 178.351 78.516 178.571 78.34C179.067 77.9528 179.681 77.7448 180.311 77.75C181.098 77.75 181.689 77.991 182.103 78.466C182.517 78.948 182.72 79.547 182.72 80.271C182.72 80.629 182.652 80.954 182.535 81.253C182.42 81.548 182.248 81.8171 182.027 82.0443C181.807 82.2716 181.542 82.4524 181.25 82.576C180.946 82.709 180.616 82.776 180.244 82.776C179.872 82.776 179.534 82.701 179.222 82.551C178.911 82.404 178.637 82.191 178.418 81.927C178.189 81.6328 178.015 81.3003 177.903 80.945V80.945ZM194.373 76.435H193.037V83.841H194.373V76.435ZM186.057 76.435H187.393V78.657H188.627C189.209 78.657 189.682 78.732 190.063 78.873C190.443 79.015 190.748 79.206 190.976 79.439C191.204 79.672 191.364 79.947 191.458 80.254C191.55 80.562 191.601 80.878 191.601 81.211C191.601 81.544 191.55 81.861 191.441 82.177C191.339 82.493 191.161 82.767 190.924 83.017C190.689 83.267 190.367 83.467 189.961 83.617C189.556 83.766 189.066 83.849 188.474 83.849H186.049V76.435H186.057V76.435ZM187.393 79.896V82.609H188.365C189.033 82.609 189.506 82.493 189.776 82.259C190.047 82.026 190.181 81.694 190.181 81.253C190.181 80.803 190.038 80.463 189.768 80.229C189.489 79.996 189.024 79.879 188.382 79.879H187.393V79.896V79.896Z" fill="currentColor"/>
<path d="M203.204 82.7749C202.882 83.1829 202.46 83.4909 201.953 83.6989C201.432 83.9098 200.876 84.0171 200.314 84.0149C199.755 84.0225 199.2 83.9297 198.674 83.7409C198.202 83.5705 197.77 83.3042 197.407 82.9589C197.048 82.6132 196.765 82.1962 196.578 81.7349C196.377 81.2294 196.277 80.6897 196.283 80.146C196.283 79.606 196.375 79.106 196.57 78.632C196.756 78.157 197.026 77.7499 197.364 77.4079C197.703 77.0589 198.108 76.7929 198.564 76.5849C199.046 76.3737 199.568 76.2686 200.094 76.2769C200.693 76.2769 201.252 76.3519 201.759 76.5009C202.266 76.6509 202.697 76.9009 203.051 77.2509L202.435 78.2909C202.136 78.0218 201.785 77.8175 201.403 77.691C201.04 77.5745 200.661 77.5158 200.28 77.5169C199.942 77.5169 199.621 77.5829 199.308 77.7079C199 77.8314 198.719 78.0123 198.48 78.2409C198.237 78.4776 198.045 78.7606 197.914 79.0729C197.77 79.3969 197.703 79.7549 197.703 80.1539C197.703 80.5619 197.778 80.928 197.922 81.244C198.065 81.569 198.26 81.8439 198.505 82.0759C198.75 82.3099 199.037 82.4839 199.367 82.6009C199.697 82.7169 200.044 82.7839 200.415 82.7839C200.871 82.7839 201.277 82.6919 201.64 82.5169C201.992 82.348 202.307 82.1138 202.57 81.827L203.204 82.7749V82.7749ZM203.888 76.4349H210.741V77.7499H207.986V83.8399H206.651V77.7499H203.897V76.4349H203.888Z" fill="currentColor"/>
<path fill-rule="evenodd" clip-rule="evenodd" d="M213.53 76.436H212.194V87.136H213.53V83.5C213.8 83.675 214.121 83.8 214.493 83.883C214.864 83.966 215.253 84.007 215.651 84.007C216.242 84.007 216.774 83.899 217.256 83.7C217.719 83.503 218.138 83.2176 218.49 82.86C218.836 82.501 219.098 82.085 219.284 81.594C219.47 81.104 219.563 80.579 219.563 80.022C219.563 79.472 219.479 78.965 219.318 78.507C219.167 78.072 218.931 77.6708 218.625 77.326C218.325 76.9897 217.952 76.7251 217.535 76.552C217.078 76.3568 216.586 76.2603 216.09 76.269C215.566 76.269 215.076 76.369 214.611 76.569C214.146 76.769 213.783 77.009 213.53 77.309V76.436V76.436ZM214.46 77.809C214.84 77.609 215.254 77.509 215.702 77.509C216.091 77.509 216.437 77.567 216.75 77.692C217.055 77.817 217.308 77.992 217.52 78.225C217.73 78.458 217.891 78.725 217.992 79.04C218.102 79.356 218.153 79.698 218.153 80.072C218.153 80.472 218.085 80.829 217.967 81.162C217.857 81.4777 217.681 81.7669 217.451 82.011C217.221 82.2521 216.941 82.442 216.632 82.568C216.287 82.7119 215.915 82.7827 215.541 82.776C215.179 82.776 214.84 82.735 214.519 82.652C214.167 82.5567 213.833 82.4046 213.531 82.202V78.532C213.767 78.25 214.08 78.009 214.46 77.809V77.809ZM229.805 76.435H228.469V83.841H229.805V76.435ZM221.481 76.435H222.817V78.657H224.05C224.633 78.657 225.106 78.732 225.487 78.873C225.867 79.015 226.172 79.206 226.399 79.439C226.627 79.672 226.788 79.947 226.88 80.254C226.974 80.562 227.024 80.878 227.024 81.211C227.024 81.544 226.974 81.861 226.864 82.177C226.763 82.493 226.585 82.767 226.348 83.017C226.112 83.267 225.791 83.467 225.385 83.617C224.98 83.766 224.49 83.849 223.898 83.849H221.473V76.435H221.481V76.435ZM222.826 79.896V82.609H223.798C224.464 82.609 224.938 82.493 225.209 82.259C225.479 82.026 225.614 81.694 225.614 81.253C225.614 80.803 225.471 80.463 225.2 80.229C224.921 79.996 224.456 79.879 223.815 79.879H222.826V79.896V79.896Z" fill="currentColor"/>
<path d="M236.211 80.0051L239.067 83.8411H237.428L235.221 80.8451L232.982 83.8411H231.428L234.267 80.0711L231.596 76.4351H233.236L235.273 79.2311L237.342 76.4351H238.898L236.211 80.0051V80.0051ZM118.905 92.9941H114.807V99.1681H113.471V91.7631H120.239V99.1681H118.905V92.9941ZM127.819 93.0771H125.183L125.098 94.3251C125.005 95.3821 124.879 96.2311 124.701 96.8791C124.523 97.5291 124.303 98.0281 124.05 98.3771C123.797 98.7271 123.501 98.9681 123.163 99.0851C122.813 99.2111 122.444 99.2731 122.073 99.2681L121.972 97.9861C122.115 97.9941 122.284 97.9611 122.47 97.8781C122.656 97.7951 122.842 97.6121 123.019 97.3381C123.197 97.0541 123.357 96.6551 123.501 96.1391C123.645 95.6151 123.738 94.9331 123.788 94.0751L123.924 91.7701H129.155V99.1761H127.819V93.0761V93.0771Z" fill="currentColor"/>
<path fill-rule="evenodd" clip-rule="evenodd" d="M132.754 91.78C132.322 91.896 131.933 92.062 131.604 92.27L131.96 93.319C132.264 93.169 132.568 93.044 132.871 92.936C133.176 92.828 133.565 92.778 134.029 92.778C134.402 92.778 134.697 92.836 134.925 92.952C135.154 93.061 135.323 93.227 135.441 93.427C135.559 93.627 135.635 93.877 135.677 94.167C135.719 94.459 135.736 94.775 135.736 95.116C135.463 94.9267 135.151 94.799 134.824 94.742C134.506 94.6792 134.184 94.6457 133.86 94.642C133.464 94.642 133.091 94.7 132.737 94.8C132.381 94.9 132.077 95.05 131.832 95.25C131.582 95.4497 131.38 95.7025 131.241 95.99C131.092 96.3049 131.017 96.6492 131.022 96.997C131.022 97.72 131.233 98.287 131.655 98.686C132.077 99.085 132.635 99.285 133.328 99.285C133.954 99.285 134.452 99.177 134.833 98.96C135.212 98.744 135.516 98.494 135.736 98.211V99.168H136.988V94.625C136.988 93.66 136.776 92.911 136.345 92.387C135.922 91.862 135.17 91.597 134.106 91.597C133.649 91.5974 133.194 91.6586 132.754 91.779V91.78ZM134.993 97.778C134.69 97.995 134.292 98.095 133.802 98.095C133.362 98.095 133.033 97.987 132.797 97.778C132.56 97.562 132.442 97.279 132.442 96.93C132.442 96.722 132.484 96.547 132.577 96.389C132.67 96.231 132.797 96.106 132.941 96.006C133.084 95.906 133.261 95.831 133.456 95.781C133.649 95.7314 133.848 95.7065 134.047 95.707C134.706 95.707 135.272 95.865 135.737 96.197V97.137C135.518 97.3815 135.268 97.597 134.993 97.778V97.778Z" fill="currentColor"/>
<path d="M138.296 91.7629H145.149V93.0769H142.394V99.1679H141.059V93.0779H138.305V91.7629H138.296V91.7629Z" fill="currentColor"/>
<path fill-rule="evenodd" clip-rule="evenodd" d="M151.387 99.093C151.894 98.935 152.324 98.693 152.696 98.361L152.29 97.329C152.045 97.546 151.716 97.729 151.318 97.879C150.922 98.029 150.474 98.103 149.984 98.103C149.249 98.103 148.64 97.912 148.158 97.521C147.676 97.13 147.415 96.581 147.356 95.881H153.136C153.194 95.624 153.22 95.332 153.22 94.991C153.22 94.484 153.127 94.026 152.941 93.61C152.768 93.2062 152.515 92.8412 152.197 92.5371C151.876 92.2346 151.497 91.9996 151.082 91.8461C150.648 91.6785 150.187 91.5937 149.722 91.5961C149.096 91.5961 148.547 91.704 148.066 91.904C147.611 92.0941 147.199 92.3745 146.857 92.728C146.524 93.0795 146.268 93.496 146.105 93.951C145.927 94.4359 145.838 94.9488 145.842 95.465C145.842 96.048 145.944 96.58 146.13 97.055C146.316 97.529 146.595 97.937 146.941 98.278C147.287 98.619 147.71 98.877 148.209 99.06C148.743 99.2491 149.307 99.3422 149.873 99.335C150.372 99.335 150.879 99.251 151.387 99.093V99.093ZM147.998 93.3851C148.412 93.0111 148.961 92.8281 149.654 92.8281C150.314 92.8281 150.829 93.011 151.21 93.352C151.589 93.702 151.792 94.1841 151.826 94.8001H147.263C147.328 94.2552 147.589 93.7522 147.998 93.3851V93.3851ZM153.871 91.7631H155.561L158.138 95.333L155.383 99.168H153.744L156.633 95.332L153.871 91.7621V91.7631ZM158.467 91.7631H159.803V99.168H158.467V91.7631ZM164.577 99.168L161.636 95.332L164.383 91.7621H162.726L160.132 95.332L162.921 99.168H164.577ZM170.678 99.093C171.185 98.935 171.616 98.693 171.987 98.361L171.582 97.329C171.337 97.546 171.007 97.729 170.611 97.879C170.213 98.029 169.765 98.103 169.275 98.103C168.54 98.103 167.931 97.912 167.449 97.521C166.968 97.13 166.706 96.581 166.647 95.881H172.427C172.486 95.624 172.512 95.332 172.512 94.991C172.512 94.484 172.419 94.026 172.232 93.61C172.059 93.2064 171.807 92.8415 171.489 92.5371C171.168 92.2345 170.788 91.9995 170.374 91.8461C169.94 91.6784 169.478 91.5936 169.013 91.5961C168.388 91.5961 167.839 91.704 167.357 91.904C166.903 92.0944 166.492 92.3747 166.149 92.728C165.815 93.079 165.559 93.4956 165.397 93.951C165.218 94.4358 165.13 94.9488 165.135 95.465C165.135 96.048 165.236 96.58 165.422 97.055C165.608 97.529 165.887 97.937 166.233 98.278C166.58 98.619 167.002 98.877 167.501 99.06C168.035 99.2491 168.599 99.3422 169.166 99.335C169.679 99.3312 170.189 99.2496 170.678 99.093V99.093ZM167.29 93.3851C167.705 93.0111 168.254 92.8281 168.947 92.8281C169.597 92.8281 170.121 93.011 170.501 93.352C170.882 93.702 171.085 94.1841 171.118 94.8001H166.555C166.619 94.2552 166.88 93.7522 167.29 93.3851V93.3851ZM177.929 89.2751C177.143 89.2751 176.712 88.8421 176.645 87.9771H175.386C175.386 88.3091 175.445 88.6091 175.554 88.8921C175.665 89.1751 175.825 89.416 176.036 89.616C176.247 89.816 176.518 89.9741 176.831 90.0981C177.143 90.2231 177.506 90.281 177.92 90.281C178.301 90.281 178.639 90.2231 178.943 90.0981C179.248 89.9821 179.501 89.816 179.721 89.616C179.931 89.416 180.101 89.1751 180.219 88.8921C180.337 88.6091 180.396 88.3091 180.396 87.9771H179.146C179.087 88.8421 178.672 89.2751 177.929 89.2751V89.2751ZM174.32 91.7621V99.168H175.656L179.999 93.651V99.168H181.334V91.7621H179.999L175.656 97.279V91.7621H174.32Z" fill="currentColor"/>
</g>
<defs>
<clipPath id="clip0_2761_493">
<rect width="240" height="120" fill="white"/>
</clipPath>
</defs>
</svg>
