<svg width="32" height="32" viewBox="0 0 32 32" fill="none" xmlns="http://www.w3.org/2000/svg">
<path d="M21.7128 31.2901C21.7602 31.2427 21.7602 31.1481 21.8077 31.1007H2.51295L4.40924 8.66285H8.29662V11.0297C7.39589 11.2191 6.73219 11.9765 6.73219 12.9232C6.73219 13.9646 7.58552 14.864 8.67588 14.864C9.71884 14.864 10.6196 14.012 10.6196 12.9232C10.6196 11.9765 9.95587 11.2191 9.05514 11.0297V8.66285H18.3469V10.9824H19.1054V8.66285H22.9928L23.4669 14.296L24.2254 14.4853L23.7988 8.28415C23.7988 8.09481 23.6091 7.95279 23.4195 7.95279H19.1529V5.63327C19.1529 2.65102 16.7351 0.236816 13.7484 0.236816C10.7618 0.236816 8.29662 2.60368 8.29662 5.58593V7.90546H4.02998C3.79294 7.90546 3.65072 8.09481 3.65072 8.23682L1.70703 31.4321C1.70703 31.6688 1.89666 31.8581 2.08629 31.8581H21.3336C21.4284 31.6688 21.5706 31.4321 21.7128 31.2901ZM9.05514 5.58593C9.05514 3.02972 11.1411 0.946876 13.701 0.946876C16.261 0.946876 18.3469 3.02972 18.3469 5.58593V7.90546H9.05514V5.58593ZM8.67588 11.7871C9.33958 11.7871 9.86106 12.3078 9.86106 12.9705C9.86106 13.6333 9.33958 14.154 8.67588 14.154C8.01218 14.154 7.4907 13.6333 7.4907 12.9705C7.53811 12.3078 8.01218 11.7871 8.67588 11.7871Z" fill="#FE5000"/>
<path d="M2.08593 32C1.94371 32 1.80149 31.9527 1.70667 31.8107C1.61186 31.716 1.56445 31.574 1.56445 31.432L3.50815 8.23669C3.55555 8 3.69777 7.81065 3.98222 7.76331H8.15405V5.53846C8.15405 2.50888 10.6192 0 13.7007 0C16.7821 0 19.2473 2.46154 19.2473 5.53846V7.76331H23.3717C23.6088 7.76331 23.8458 7.95266 23.8932 8.23669L24.4147 14.6272L23.4191 14.3905L22.9451 8.7574H19.2473V11.0769H18.2518V8.7574H9.197V10.9349C10.0977 11.1716 10.7614 11.9763 10.7614 12.9231C10.7614 14.0592 9.8607 14.9586 8.72293 14.9586C7.58516 14.9586 6.68442 14.0592 6.68442 12.9231C6.68442 11.9763 7.34812 11.1716 8.24886 10.9349V8.7574H4.5511L2.70222 30.9586H22.0443L21.9021 31.2426C21.9021 31.2899 21.8547 31.3373 21.8547 31.3373L21.8073 31.3846C21.6651 31.5266 21.5229 31.716 21.428 31.9527V32H2.08593ZM4.02962 8.04734C3.84 8.04734 3.74518 8.18935 3.74518 8.28402L1.80149 31.4793C1.80149 31.574 1.80149 31.6213 1.8963 31.6686C1.94371 31.716 2.03852 31.7633 2.08593 31.7633H21.2384C21.3332 31.574 21.4755 31.3846 21.6177 31.1953H2.41778V31.0533L4.31407 8.52071H8.43849V11.0769H8.34367C7.49035 11.2663 6.87405 12.0237 6.87405 12.8757C6.87405 13.8698 7.67997 14.6746 8.67552 14.6746C9.67107 14.6746 10.477 13.8698 10.477 12.8757C10.477 12.0237 9.8607 11.2663 9.00737 11.0769H8.91256V8.52071H18.4414V10.8402H19.0103V8.52071H23.1347L23.6088 14.1538L24.1777 14.2959L23.7036 8.18935C23.7036 8.04734 23.5614 7.95266 23.4191 7.95266H19.0577V5.53846C19.0577 2.60355 16.6873 0.236686 13.7481 0.236686C10.8088 0.236686 8.43849 2.60355 8.43849 5.53846V7.95266H4.02962V8.04734ZM8.67552 14.2012C7.96442 14.2012 7.39553 13.6331 7.39553 12.9231C7.39553 12.213 7.96442 11.645 8.67552 11.645C9.38663 11.645 9.95552 12.213 9.95552 12.9231C9.95552 13.6331 9.38663 14.2012 8.67552 14.2012ZM8.67552 11.8817C8.10664 11.8817 7.63257 12.355 7.63257 12.9231C7.63257 13.4911 8.10664 13.9645 8.67552 13.9645C9.24441 13.9645 9.71848 13.4911 9.71848 12.9231C9.71848 12.355 9.24441 11.8817 8.67552 11.8817ZM18.4888 8.04734H8.95997V5.63314C8.95997 3.02959 11.0933 0.899408 13.7007 0.899408C16.3081 0.899408 18.4414 3.02959 18.4414 5.63314V8.04734H18.4888ZM9.197 7.81065H18.2518V5.5858C18.2518 3.07692 16.2133 1.04142 13.7007 1.04142C11.1881 1.04142 9.1496 3.07692 9.1496 5.5858V7.81065H9.197Z" fill="#FE5000"/>
<path d="M15.6445 14.4378L14.0801 31.4319C14.0801 31.6686 14.2697 31.8579 14.4593 31.8579H31.4785C31.7155 31.8579 31.9052 31.6686 31.8578 31.4319L30.2933 14.4378C30.2933 14.2485 30.1037 14.1064 29.9141 14.1064H16.0238C15.7867 14.1064 15.6445 14.2958 15.6445 14.4378ZM16.3556 14.8638H29.5822L31.0518 31.1005H14.886L16.3556 14.8638ZM19.1052 16.426C18.8682 16.426 18.726 16.6153 18.726 16.8047V18.3668C18.726 20.7337 20.6223 22.6272 22.9926 22.6272C25.363 22.6272 27.2593 20.7337 27.2593 18.3668V16.8047C27.2593 16.568 27.0696 16.426 26.88 16.426C26.643 16.426 26.5007 16.6153 26.5007 16.8047V18.3668C26.5007 20.3076 24.9363 21.8698 22.9926 21.8698C21.0489 21.8698 19.4845 20.3076 19.4845 18.3668V16.8047C19.4845 16.6153 19.3423 16.426 19.1052 16.426Z" fill="#FE5000"/>
<path d="M14.459 31.9999C14.3168 31.9999 14.1745 31.9525 14.0797 31.8105C13.9849 31.7158 13.9375 31.5738 13.9375 31.4318L15.5019 14.3904C15.5493 14.1537 15.6916 13.9644 15.976 13.9644H29.9611C30.1981 13.9644 30.4352 14.1537 30.4352 14.4377L31.9996 31.4318C31.9996 31.5738 31.9522 31.7158 31.8574 31.8105C31.7626 31.9052 31.6204 31.9999 31.4781 31.9999H14.459ZM15.739 14.4851L14.1745 31.4792C14.1745 31.5738 14.1745 31.6212 14.2694 31.6685C14.3168 31.7158 14.4116 31.7632 14.459 31.7632H31.4781C31.573 31.7632 31.6204 31.7158 31.6678 31.6685C31.7152 31.6212 31.7626 31.5265 31.7626 31.4792L30.1981 14.4851C30.1981 14.3431 30.0559 14.2484 29.9137 14.2484H16.0234C15.7864 14.201 15.739 14.4377 15.739 14.4851ZM31.1937 31.2425H14.7434L16.2604 14.7691H29.7241L31.1937 31.2425ZM15.0279 31.0058H30.9567L29.487 15.0058H16.4501L15.0279 31.0058ZM22.9923 22.7218C20.5745 22.7218 18.6308 20.7809 18.6308 18.3667V16.8046C18.6308 16.5206 18.8678 16.2839 19.1523 16.2839C19.4367 16.2839 19.6738 16.5206 19.6738 16.8046V18.3667C19.6738 20.2129 21.1908 21.7277 23.0397 21.7277C24.8885 21.7277 26.4056 20.2129 26.4056 18.3667V16.8046C26.4056 16.5206 26.6426 16.2839 26.9271 16.2839C27.2115 16.2839 27.4485 16.5206 27.4485 16.8046V18.3667C27.3537 20.7809 25.41 22.7218 22.9923 22.7218ZM19.1049 16.5206C18.9627 16.5206 18.8204 16.6626 18.8204 16.8046V18.3667C18.8204 20.6389 20.6693 22.4851 22.9449 22.4851C25.2204 22.4851 27.0693 20.6389 27.0693 18.3667V16.8046C27.0693 16.6626 26.9271 16.5206 26.7848 16.5206C26.6426 16.5206 26.5004 16.6626 26.5004 16.8046V18.3667C26.5004 20.3549 24.8885 21.9644 22.8974 21.9644C20.9063 21.9644 19.2945 20.3549 19.2945 18.3667V16.8046C19.3893 16.6626 19.2471 16.5206 19.1049 16.5206Z" fill="#FE5000"/>
</svg>
