<?xml version="1.0" encoding="UTF-8"?>
<!DOCTYPE svg PUBLIC "-//W3C//DTD SVG 1.1//EN" "http://www.w3.org/Graphics/SVG/1.1/DTD/svg11.dtd">
<!-- Creator: CorelDRAW 2020 (64-Bit) -->
<svg xmlns="http://www.w3.org/2000/svg" xml:space="preserve" width="100%" height="100%" version="1.1" style="shape-rendering:geometricPrecision; text-rendering:geometricPrecision; image-rendering:optimizeQuality; fill-rule:evenodd; clip-rule:evenodd"
viewBox="0 0 8466.67 1976.76"
 xmlns:xlink="http://www.w3.org/1999/xlink"
 xmlns:xodm="http://www.corel.com/coreldraw/odm/2003">
 <defs>
  <style type="text/css">
   <![CDATA[
    .fil4 {fill:#EFB451;fill-rule:nonzero}
    .fil2 {fill:#CD3635;fill-rule:nonzero}
    .fil3 {fill:#DED7BC;fill-rule:nonzero}
    .fil1 {fill:#373A36;fill-rule:nonzero}
    .fil0 {fill:#FE5000;fill-rule:nonzero}
   ]]>
  </style>
 </defs>
 <g id="Слой_x0020_1">
  <metadata id="CorelCorpID_0Corel-Layer"/>
  <g id="Logo_x0020_RGB.cdr">
   <path class="fil0" d="M1566.84 1349.1c-2.49,3.7 -7.4,4.73 -11.2,2.53 -212.87,-128.35 -462.32,-202.18 -729.04,-202.18 -266.67,0 -516.16,73.83 -729.03,202.18 -3.75,2.2 -8.67,1.17 -11.15,-2.53 -2.53,-3.64 -1.69,-8.61 1.76,-11.28l1.01 -0.83c192.46,-148.34 359.76,-336.02 488.79,-559.55 129.03,-223.48 207.87,-462.04 240.16,-702.84 0.63,-4.18 4.13,-7.4 8.46,-7.4 4.34,0 7.88,3.22 8.42,7.4 32.34,240.8 111.24,479.36 240.21,702.84 129.07,223.53 296.34,411.21 488.83,559.55l0.97 0.83c3.46,2.67 4.28,7.64 1.81,11.28zm-189.2 -1348.52l-1102.12 0c-151.5,0 -275.52,124.01 -275.52,275.57l0 1102.18c0,151.6 124.02,275.57 275.52,275.57l1102.12 0c151.55,0 275.56,-123.97 275.56,-275.57l0 -1102.18c0,-151.56 -124.01,-275.57 -275.56,-275.57z"/>
   <path class="fil1" d="M4154.82 1158.66l-202.22 0 0 -231.41 202.22 0c77.19,0 120.85,46.64 120.85,116.38 0,68.63 -43.66,115.03 -120.85,115.03zm33.51 -442.46l-235.73 0 0 -168.71 438.04 0c43.68,0 59.68,-15.99 59.68,-59.71l0 -91.79c0,-45.18 -16,-59.67 -59.68,-59.67l-615.46 0c-43.7,0 -59.77,14.49 -59.77,59.67l0 916.99c0,43.57 17.45,56.7 58.01,56.7l414.91 0c200.92,0 331.89,-125.04 331.89,-326.05 0,-203.73 -130.97,-327.43 -331.89,-327.43zm-621.61 -379.78l-691.3 0c-45.13,0 -59.54,14.53 -59.54,59.57l0 97.52c0,43.68 14.41,58.31 59.54,58.31l228.54 0 0 758.34c0,44.89 14.54,59.52 58.06,59.52l118.01 0c45.12,0 59.8,-14.63 59.8,-59.52l0 -758.34 226.89 0c45.19,0 59.73,-14.63 59.73,-58.31l0 -97.52c0,-45.04 -14.54,-59.57 -59.73,-59.57zm-1242.24 650.51l75.77 -226.89c34.96,-103.5 34.28,-177.28 34.28,-177.28l12.94 0c0,0 3.65,73.78 37.16,178.73l75.67 225.44 -235.82 0zm250.47 -603.82c-13.12,-37.99 -32.15,-46.79 -72.91,-46.79l-111.97 0c-40.94,0 -58.15,8.8 -72.8,49.51l-347.94 925.78c-14.44,39.21 -4.32,58.07 39.5,58.07l100.39 0c72.71,0 91.76,-11.66 106.22,-53.88l46.58 -136.67 359.33 0 45.12 136.67c13.28,42.22 35.07,53.88 107.74,53.88l109.27 0c42.08,0 53.75,-18.86 39.37,-58.07l-347.9 -928.5z"/>
  </g>
  <g id="_2162531165664">
   <path class="fil1" d="M5522.75 1453.06c-9.39,18.44 -21.56,38.68 -37.36,59.38 -40.48,53.01 -86.93,85.63 -120.7,104.92 82.26,-10.94 150.78,16.36 170.08,63.38 4.01,9.76 8.09,25.73 4.01,48.57 -2.48,-3.47 -11,-14.72 -26.22,-18.21 -16.83,-3.86 -35.04,3.22 -46.88,18.01 -4.12,-16.55 -11.05,-27.01 -15.98,-33.07 -35.31,-43.42 -119.31,-48.59 -173.52,-21.77 -10.33,5.1 -21.12,12.73 -40.29,16.92 -25.26,5.51 -47.55,1.56 -62.01,-2.4 4.14,-1.28 11.48,-4.23 17.72,-11.09 10.61,-11.62 14.25,-30.34 7.88,-39.64 -8.29,-12.1 -37.31,-13.65 -67.02,6.48 3.61,-7.64 8.09,-12.86 12.2,-16.46 20.99,-18.53 57.82,-17.61 93.93,0.04 -1.84,-1.35 -4.43,-3.17 -7.65,-5.11 -11.22,-6.73 -41.69,-21.81 -76.44,-11.54 -28.27,8.35 -43.84,28.91 -48.85,36.2 8.83,-20.64 15.64,-43.32 6.55,-51.67 -11.34,-10.42 -45.42,5.8 -42.93,3.8 7.9,-6.3 21.6,-15.27 40.45,-18.62 5.97,-1.07 11.49,-1.4 16.35,-1.32 0.11,-1.32 0.55,-8.88 -5.07,-14.88 -4.84,-5.16 -12.32,-7.19 -19.47,-5.34 5.85,-3.95 18.07,-10.83 34.18,-10.66 16.35,0.18 28.26,7.53 36.03,12.34 8.61,5.32 12.38,9.61 19.28,15.77 14.06,12.55 33.31,25.93 46.11,30.73 26.47,9.96 55.66,-5.64 73.31,-15.14 68.11,-36.62 93.92,-115.07 101.06,-139.72 37.1,0.03 74.18,0.07 111.25,0.1z"/>
   <path class="fil2" d="M5176.74 1634.87c-18.12,-1.01 -42.27,9.33 -54.58,30.97 -12.17,21.38 -6.87,43.48 -5.34,49.09 17.22,-26.24 30.53,-31.61 39.65,-31.47 4.95,0.09 9.3,1.81 16.32,-0.23 7.94,-2.29 16.26,-8.51 20.12,-18.06 0.57,-1.39 6.37,-16.29 -1.41,-24.8 -1.25,-1.39 -5.01,-4.96 -14.76,-5.5z"/>
   <path class="fil2" d="M5082.37 1599.86c-8.54,3.12 -34.24,18.53 -38.19,48.15 -3.19,23.91 9.75,42.02 13.2,46.56 5.32,-28.46 15.51,-39.03 24.43,-43.14 5.27,-2.43 7.58,-1.45 12.64,-4.77 16.41,-10.73 20.7,-39.75 11.81,-46.6 -2.08,-1.6 -4.79,-1.93 -8.25,-2.34 0,0 -7.44,-0.88 -15.64,2.14z"/>
   <path class="fil2" d="M5074.76 1573.5c12.76,-9.05 33.72,-12.21 39.86,-4.05 1.54,2.05 1.9,4.49 1.91,6.42 -7.06,0.46 -19.69,2.22 -33.4,9.6 -13.87,7.46 -22.35,17.19 -26.61,22.86 0.33,-4.01 2.34,-23.58 18.24,-34.83z"/>
   <path class="fil2" d="M5481.24 1734.23c5.24,-10.49 28.4,-14.11 43.63,-4.48 10.05,6.4 13.4,16.57 14.13,19.01 6.55,21.78 -11.51,41.9 -14.28,44.98 -21.49,23.88 -55.25,20.66 -59.79,20.15 12.44,-8.58 26.58,-21.48 27.52,-38.11 1.17,-19.63 -16.75,-30.58 -11.21,-41.55z"/>
   <path class="fil1" d="M5040.89 1236.83c-5.58,-1.52 -11.23,-3.21 -16.92,-5.08 -52.54,-17.2 -94.86,-44.68 -128.02,-73.2 34.5,68.29 31.56,136.28 -3.52,167.35 -7.28,6.46 -19.94,14.87 -41.07,18.22 2.29,-3.19 9.47,-14.03 7.88,-28.36 -1.74,-15.8 -13.44,-29.54 -29.93,-35.34 13.18,-8.6 20.17,-17.82 23.95,-23.96 27.09,-43.94 6.04,-118.63 -33.76,-157.68 -7.58,-7.45 -17.49,-14.51 -26.95,-29.93 -12.48,-20.32 -15.83,-40.93 -16.77,-54.73 2.39,3.23 7.17,8.73 15.04,12.07 13.34,5.68 30.76,3.18 36.91,-5.19 8.01,-10.89 0.54,-36.64 -26.01,-56.39 7.75,0.85 13.65,3.16 18.04,5.63 22.52,12.65 32.89,44.99 28.51,81.78 0.62,-1.99 1.42,-4.8 2.12,-8.2 2.44,-11.8 6.32,-42.93 -13.16,-70.06 -15.88,-22.07 -38.51,-29.38 -46.38,-31.53 20.66,1.41 42.47,0.46 46.99,-9.99 5.62,-13.05 -18.84,-37.8 -16.35,-36.23 7.87,4.97 19.85,14.18 28.5,29.57 2.74,4.87 4.7,9.57 6.11,13.83 1.17,-0.32 7.91,-2.22 11.41,-8.93 3.03,-5.79 2.51,-12.91 -1.25,-18.58 5.2,3.9 14.9,12.44 19.64,26.52 4.82,14.3 2.03,26.89 0.2,35.11 -2,9.12 -4.6,13.71 -7.86,21.57 -6.65,16.08 -12.45,36.89 -12.75,49.48 -0.63,26.25 22.2,47.2 35.46,59.25 63.51,57.73 199.5,47.24 216.67,45.76 -25.58,29.08 -51.16,58.15 -76.73,87.24z"/>
   <path class="fil2" d="M4823.59 1000.23c-4.63,-16.08 -20.96,-33.97 -43.53,-38.11 -22.33,-4.09 -39.95,7.24 -44.38,10.27 28.09,7.03 36.82,16.97 39.45,24.95 1.44,4.35 1.26,8.65 5.16,14.15 4.42,6.21 12.35,11.58 21.84,12.03 1.36,0.08 16.11,0.59 21.18,-8.75 0.8,-1.52 2.77,-5.89 0.28,-14.54z"/>
   <path class="fil2" d="M4825.41 907.42c-5.32,-6.46 -26.53,-24.16 -53.53,-18.6 -21.78,4.49 -33.62,21.24 -36.53,25.63 26.42,-4.02 38.7,1.65 44.99,8.16 3.73,3.86 3.55,6.17 7.99,9.56 14.33,11.03 40.9,5.94 44.16,-3.87 0.77,-2.29 0.23,-4.75 -0.47,-7.9 0,0 -1.5,-6.73 -6.61,-12.98z"/>
   <path class="fil2" d="M4846.05 892.8c11.76,8.37 20.88,25.65 15.63,33.48 -1.32,1.96 -3.33,3.01 -5.01,3.61 -2.55,-6.01 -7.91,-16.47 -18.51,-26.16 -10.71,-9.81 -21.74,-14.23 -27.98,-16.22 3.61,-0.95 21.23,-5.14 35.87,5.29z"/>
   <path class="fil2" d="M4829.6 1295.52c10.71,1.39 20.92,20.45 17.14,36.63 -2.49,10.72 -10.33,16.72 -12.24,18.1 -16.99,12.28 -40,2.67 -43.51,1.2 -27.3,-11.41 -34.76,-41.8 -35.7,-45.92 11.27,8.26 26.77,16.6 41.54,12.39 17.44,-4.95 21.53,-23.87 32.77,-22.4z"/>
   <polygon class="fil1" points="6313.58,1141.03 5575.93,1141.03 5358.94,1369.68 6313.58,1369.68 "/>
   <polygon class="fil0" points="5860.22,841.49 5694.37,684.07 5043.68,1369.7 5358.94,1369.7 5358.94,1369.68 5575.93,1141.03 "/>
   <path class="fil3" d="M6200.97 1088.84c-75.46,-71.61 -78.59,-190.83 -6.99,-266.3 71.67,-75.46 190.84,-78.58 266.3,-6.97 75.46,71.61 78.6,190.84 7,266.3 -71.61,75.47 -190.85,78.59 -266.31,6.97zm417.08 -439.47c-167.24,-158.71 -431.5,-151.8 -590.22,15.44 -158.72,167.26 -151.8,431.51 15.44,590.23 167.24,158.71 431.51,151.81 590.23,-15.45 158.72,-167.25 151.8,-431.5 -15.45,-590.22z"/>
   <path class="fil1" d="M7129.69 1141.03l-217 228.65c518.04,0 1036.01,0 1553.98,0l0 -228.65c-445.64,0 -891.27,0 -1336.98,0z"/>
   <polygon class="fil0" points="7413.98,841.49 7248.12,684.07 6597.44,1369.7 6912.69,1369.7 6912.69,1369.68 7129.69,1141.03 "/>
   <path class="fil4" d="M7398.54 251.36c-167.24,-158.71 -431.51,-151.8 -590.23,15.45 -158.72,167.25 -151.8,431.49 15.45,590.21 18.42,17.48 38.09,32.83 58.56,46.3l153.47 -161.64 10.2 -10.71c-23.31,-8.59 -45.31,-21.94 -64.54,-40.14 -75.46,-71.61 -78.52,-190.85 -6.92,-266.3 71.61,-75.46 190.85,-78.59 266.31,-6.97 74.37,70.59 78.38,187.4 9.91,263l0.29 0.24 -259.53 273.33c145.9,43.54 310.44,5.48 422.47,-112.55 158.72,-167.25 151.8,-431.5 -15.44,-590.22z"/>
   <path class="fil3" d="M7221.76 1369.7l315.25 0 0 -0.02c264.19,-278.3 528.38,-556.64 792.57,-834.97l-315.25 0c-264.19,278.33 -528.38,556.67 -792.57,834.99z"/>
   <path class="fil4" d="M5844.78 251.27c-118.58,-112.5 -285.82,-141.68 -429.71,-89.64 -1.38,17.14 -3.99,35.11 -8.22,53.73 -18.82,82.9 -60.57,139.02 -83.67,166.01 35.65,-17.18 105.57,-44.09 192.36,-33.48 37.59,4.59 154.35,18.91 205.49,112.86 0.29,0.49 0.58,0.98 0.8,1.46 0.14,0.17 0.22,0.33 0.29,0.51 0.07,0.14 0.14,0.31 0.22,0.46 26.29,47.69 30.44,104.55 12.09,155.23 -0.07,0.11 -0.07,0.21 -0.15,0.32 -0.14,0.43 -0.29,0.81 -0.51,1.24 -0.94,2.71 -2.04,5.39 -3.2,8.05 -12.75,30.36 -31.03,51.27 -43.27,63.14l0 -0.01 -249.59 262.89c145.94,43.53 310.49,5.47 422.51,-112.55 158.72,-167.26 151.8,-431.5 -15.44,-590.22z"/>
   <path class="fil0" d="M5745.14 539.52c-4.52,-58.42 -35.33,-97.08 -46.69,-110.93 -47.79,-58.2 -112.32,-72.93 -141.31,-79.52 -67.53,-15.4 -123.36,-2.29 -155.76,5.31 -33.34,7.83 -59.95,18.53 -78.2,27 23.1,-27 64.85,-83.12 83.67,-166.02 4.23,-18.61 6.84,-36.59 8.22,-53.73 6.07,-75.02 -11.44,-134.18 -21.16,-161.63 -47.92,172.12 -122.27,240.09 -182.53,269.99 -65.89,32.69 -135.74,30.21 -182.85,91.46 -34.53,44.87 -38.38,99.91 -36.68,137.8 -9.52,19.72 -24.59,44.84 -48.47,69.11 -53.96,54.84 -118.24,70.25 -146.15,75.17 -4.09,-0.17 -19.82,-0.31 -31.85,11.03 -13.2,12.44 -13.37,30.6 -12.29,38.11 3.99,27.57 45,51.35 101.97,55.9 2.47,13.11 18.31,90.52 86.25,125.87 19.95,10.37 39.33,14.5 54.87,16.01 -8.16,-5.14 -72.63,-46.93 -67.36,-100.17 1.58,-15.91 9.08,-29.61 27.56,-50.82 23,-26.37 64.5,-66.11 133.86,-98.76 -6.05,4.83 -12.11,9.9 -18.15,15.21 -48.68,42.84 -83.46,90.66 -108.54,135.76 0.75,3.06 14.92,57.31 61.94,70.28 17.11,4.71 32.4,2.26 41.92,-0.28 -0.27,-11.01 0.46,-27.31 5.99,-45.83 0,0 15.01,-50.27 72.82,-91.55 60.68,-43.33 180.4,-49.42 312.21,-3.45 -21.54,-20.09 -74.65,-64.05 -155.74,-78.05 -53.2,-9.2 -97.57,-1.91 -124.22,4.75 20.84,-14.77 46.74,-29.43 77.97,-40.16 40.64,-13.97 80.21,-17.8 116.32,-16.09 73.29,3.47 132.15,29.89 155.6,41.47 -5.17,-12.64 -36.42,-85.38 -116.92,-114.69 -51.69,-18.81 -97.31,-10.12 -116.22,-5.37 152.42,-112.82 323.68,-93.66 383.56,-10.11 48.95,68.26 15.66,168.47 8.52,188.56 10.93,-10.55 26.22,-27.9 38.53,-52.78 7.51,-15.21 22.95,-51.6 19.31,-98.85z"/>
   <path class="fil0" d="M7598.19 916.87c-45.59,47.99 -91.12,95.98 -136.64,143.96 -7.29,-56.68 -12.75,-167.74 43.85,-283.64 18.86,-38.76 40.93,-70.33 61.76,-95.32 -8.66,19.18 -36.93,87.89 -10.27,164.87 11,31.73 27.83,54.99 41.3,70.13z"/>
   <path class="fil0" d="M7747.37 760.07c-37.44,39.4 -74.81,78.81 -112.25,118.22 -5.9,-46.53 -10.41,-137.75 35.99,-232.94 15.59,-31.82 33.65,-57.75 50.77,-78.27 -7.07,15.75 -30.3,72.19 -8.45,135.41 9.03,26.06 22.87,45.15 33.94,57.58z"/>
   <path class="fil0" d="M7874.84 619.46c-26.66,28.14 -53.39,56.29 -80.12,84.45 -4.23,-33.25 -7.43,-98.4 25.71,-166.41 11.07,-22.74 24.04,-41.26 36.27,-55.92 -5.09,11.25 -21.63,51.57 -6.04,96.73 6.41,18.62 16.31,32.26 24.18,41.15z"/>
   <path class="fil0" d="M7971.94 513.73c-16.9,17.79 -33.8,35.57 -50.63,53.35 -2.69,-21 -4.73,-62.16 16.17,-105.1 7.07,-14.37 15.23,-26.07 22.95,-35.33 -3.21,7.11 -13.69,32.57 -3.79,61.1 4.08,11.75 10.27,20.37 15.3,25.98z"/>
   <path class="fil0" d="M8108.37 496.81c-22.95,0.14 -45.89,0.29 -68.91,0.44 12.46,-15.44 38.9,-43.51 81.51,-57.24 14.28,-4.59 27.46,-6.66 38.75,-7.45 -6.92,2.44 -30.88,11.89 -43.78,37.06 -5.24,10.38 -6.99,20.2 -7.57,27.19z"/>
   <path class="fil0" d="M8207.43 496.94c-15.88,0.1 -31.83,0.21 -47.71,0.31 8.6,-10.71 26.95,-30.19 56.52,-39.71 9.84,-3.18 19.02,-4.62 26.81,-5.17 -4.74,1.7 -21.42,8.25 -30.3,25.71 -3.72,7.2 -4.88,14.01 -5.32,18.86z"/>
   <path class="fil0" d="M8292.29 497.06c-9.54,0.07 -19.16,0.13 -28.7,0.19 5.17,-6.44 16.24,-18.16 34.02,-23.88 5.9,-1.92 11.43,-2.78 16.09,-3.11 -2.84,1.02 -12.89,4.96 -18.21,15.46 -2.18,4.33 -2.91,8.42 -3.2,11.34z"/>
   <polygon class="fil0" points="8288.28,1603.66 8288.28,1057.99 8059.56,840.97 8059.56,1603.66 "/>
   <path class="fil2" d="M7906.96 1799.12c-18.13,-0.88 -42.17,9.59 -54.33,31.29 -12.1,21.47 -6.63,43.54 -5.1,49.14 17.11,-26.36 30.37,-31.8 39.48,-31.71 4.95,0.06 9.32,1.75 16.31,-0.33 7.94,-2.35 16.25,-8.61 20.03,-18.2 0.51,-1.38 6.27,-16.31 -1.6,-24.78 -1.24,-1.37 -5.03,-4.92 -14.79,-5.41z"/>
   <path class="fil2" d="M7812.42 1764.69c-8.53,3.18 -34.16,18.73 -37.95,48.4 -2.99,23.9 10.05,41.94 13.47,46.46 5.17,-28.5 15.3,-39.12 24.19,-43.29 5.31,-2.46 7.57,-1.49 12.67,-4.84 16.32,-10.84 20.4,-39.88 11.51,-46.68 -2.11,-1.59 -4.81,-1.89 -8.3,-2.29 0,0 -7.43,-0.83 -15.59,2.24z"/>
   <path class="fil2" d="M7804.62 1738.37c12.75,-9.12 33.66,-12.42 39.85,-4.29 1.53,2.04 1.89,4.47 1.96,6.41 -7.06,0.52 -19.66,2.34 -33.36,9.81 -13.84,7.54 -22.21,17.33 -26.44,23.01 0.29,-4.02 2.19,-23.58 17.99,-34.94z"/>
   <path class="fil2" d="M8212.09 1896.6c5.17,-10.49 28.34,-14.27 43.56,-4.72 10.13,6.33 13.55,16.48 14.28,18.91 6.7,21.75 -11.29,41.98 -13.99,45.07 -21.34,24.01 -55.14,21 -59.65,20.53 12.38,-8.67 26.36,-21.65 27.24,-38.3 1.09,-19.63 -16.9,-30.47 -11.44,-41.49z"/>
   <path class="fil1" d="M8214.86 1674.8c5.83,-7.78 11.22,-15.49 16.1,-23.06l-103 0c-14.28,33.74 -40.86,78.9 -87.55,104.37 -17.56,9.62 -46.69,25.39 -73.21,15.6 -12.82,-4.73 -32.19,-18 -46.32,-30.46 -6.92,-6.11 -10.71,-10.37 -19.38,-15.65 -7.79,-4.75 -19.74,-12.03 -36.05,-12.1 -16.18,-0.09 -28.34,6.87 -34.17,10.84 7.14,-1.87 14.64,0.11 19.52,5.23 5.69,5.95 5.25,13.53 5.18,14.84 -4.88,-0.04 -10.42,0.33 -16.32,1.43 -18.87,3.46 -32.49,12.52 -40.35,18.86 -2.48,2.01 31.46,-14.4 42.9,-4.06 9.1,8.29 2.48,31.02 -6.27,51.72 5.03,-7.32 20.47,-27.98 48.66,-36.5 34.67,-10.49 65.27,4.4 76.48,11.07 3.28,1.91 5.83,3.71 7.73,5.07 -36.28,-17.44 -73.06,-18.14 -93.97,0.52 -4.08,3.64 -8.52,8.88 -12.09,16.55 29.57,-20.32 58.64,-18.94 67.01,-6.9 6.41,9.26 2.84,28 -7.65,39.69 -6.19,6.9 -13.54,9.88 -17.62,11.19 14.42,3.88 36.78,7.69 61.98,2.03 19.16,-4.31 29.87,-12.01 40.21,-17.17 54.05,-27.13 138.03,-22.5 173.65,20.72 4.96,6.03 11.95,16.43 16.17,32.98 11.73,-14.88 29.94,-22.07 46.77,-18.31 15.22,3.4 23.82,14.58 26.29,18.04 4.01,-22.85 -0.22,-38.8 -4.22,-48.54 -19.6,-46.9 -88.36,-73.77 -170.52,-62.34 33.65,-19.48 79.91,-52.4 120.04,-105.66z"/>
   <path class="fil4" d="M5019.83 505.55c3.79,-0.52 66.95,-10.1 89.12,-64.56 8.41,-20.65 12.59,-51.83 3.72,-55.69 -7.91,-3.43 -29.25,13.6 -92.84,120.25z"/>
  </g>
 </g>
</svg>
