<svg width="24" height="24" viewBox="0 0 24 24" fill="none" xmlns="http://www.w3.org/2000/svg">
<path fill-rule="evenodd" clip-rule="evenodd" d="M18.3475 6.71566C18.1774 6.57824 17.9162 6.54888 17.798 6.55122C17.265 6.56062 16.446 6.84368 12.5082 8.47155C11.1278 9.04119 8.37182 10.2216 4.23782 12.0115C3.56654 12.277 3.21436 12.5365 3.18245 12.7902C3.1284 13.2189 3.6677 13.3878 4.40312 13.6181C4.50383 13.6496 4.60822 13.6823 4.71527 13.7169C5.43973 13.9507 6.41354 14.2243 6.91936 14.2337C7.37909 14.2455 7.89082 14.0575 8.45809 13.6699C12.3203 11.0801 14.314 9.76939 14.4393 9.7412C14.5279 9.72123 14.6508 9.69657 14.7335 9.76939C14.8163 9.84221 14.808 9.9808 14.7997 10.0184C14.7458 10.2446 12.6305 12.1995 11.5311 13.2155C11.1863 13.5341 10.9414 13.7605 10.8915 13.8121C10.7807 13.9262 10.6679 14.0342 10.5594 14.138C9.88623 14.7823 9.38048 15.2664 10.5865 16.0554C11.1666 16.4356 11.6306 16.7498 12.0938 17.0634C12.5979 17.4047 13.101 17.7453 13.7515 18.1695C13.918 18.2779 14.077 18.3905 14.2318 18.5002C14.8188 18.9159 15.3461 19.2893 15.9969 19.2289C16.3763 19.1949 16.7675 18.8413 16.966 17.7843C17.4364 15.2884 18.3605 9.88097 18.5733 7.65174C18.5922 7.45677 18.5685 7.2066 18.5496 7.09737C18.5327 6.94947 18.4606 6.81325 18.3475 6.71566ZM3 0C1.34315 0 0 1.34315 0 3V21C0 22.6569 1.34315 24 3 24H21C22.6569 24 24 22.6569 24 21V3C24 1.34315 22.6569 0 21 0H3Z" fill="currentColor"/>
</svg>
