<svg width="145" height="46" viewBox="0 0 145 46" fill="none" xmlns="http://www.w3.org/2000/svg">
<path d="M139.63 46H5.37037C2.36296 46 0 43.47 0 40.25V5.75C0 2.53 2.36296 0 5.37037 0H139.63C142.637 0 145 2.53 145 5.75V40.25C145 43.47 142.637 46 139.63 46Z" fill="white"/>
<path d="M64.72 30.5933C66.7611 30.0743 68.1023 28.5171 68.1023 26.4794C68.1023 23.961 66.0807 22.1924 63.2426 22.1924H58.1885V35.7454H60.5211V30.7663H62.1734L65.7891 35.7454H68.53L64.72 30.5933ZM63.2426 24.3071C64.7006 24.3071 65.7114 25.1914 65.7114 26.4794C65.7114 27.7674 64.7006 28.6517 63.2426 28.6517H60.5211V24.3071H63.2426Z" fill="#373A36"/>
<path d="M73.7798 35.9378C75.0045 35.9378 76.1319 35.3034 76.7734 34.2461L77.2205 35.7456H78.8923V25.749H76.6568V31.5355C76.6568 32.958 75.7043 33.9578 74.4019 33.9578C73.1189 33.9578 72.2247 32.958 72.2247 31.5355V25.749H69.9893V31.7854C69.9893 34.1884 71.6221 35.9378 73.7798 35.9378Z" fill="#373A36"/>
<path d="M86.0267 35.9375C88.6121 35.9375 90.7503 34.4764 90.7503 32.0542C90.7503 29.3436 88.5149 28.5555 86.5904 27.9018C85.0936 27.402 83.7912 26.9406 83.7912 25.7295C83.7912 24.6721 84.7826 24.1147 85.9489 24.1147C87.1736 24.1147 88.0483 24.749 88.5343 25.8256L90.7503 25.4603C90.0502 23.3457 88.2816 22 85.8712 22C83.383 22 81.4002 23.4226 81.4002 25.8449C81.4002 28.5747 83.6357 29.3244 85.5602 29.9588C87.0375 30.4394 88.3594 30.9007 88.3594 32.1311C88.3594 33.2077 87.368 33.8228 86.0461 33.8228C84.5299 33.8228 83.7135 33.1116 82.9942 31.8235L80.7393 32.208C81.4002 34.4956 83.4996 35.9375 86.0267 35.9375Z" fill="#373A36"/>
<path d="M96.8317 33.8229C96.0737 33.8229 95.7044 33.4577 95.7044 32.708V27.6713H98.7171V25.7488H95.7044V22.8652H94.0326L93.4686 25.7488H91.8164V27.6713H93.4686V32.708C93.4686 34.6688 94.6155 35.7454 96.8317 35.7454H98.7171L98.9118 33.8229H96.8317Z" fill="#373A36"/>
<path d="M105.3 35.9382C108.469 35.9382 110.704 33.785 110.704 30.7476C110.704 27.7103 108.469 25.5571 105.3 25.5571C102.131 25.5571 99.8955 27.7103 99.8955 30.7476C99.8955 33.785 102.131 35.9382 105.3 35.9382ZM105.3 33.9196C103.472 33.9196 102.228 32.6316 102.228 30.7476C102.228 28.8637 103.472 27.5756 105.3 27.5756C107.127 27.5756 108.371 28.8637 108.371 30.7476C108.371 32.6316 107.127 33.9196 105.3 33.9196Z" fill="#373A36"/>
<path d="M114.882 35.7456V29.8438C114.882 28.575 115.504 27.8637 116.865 27.8637H118.148L117.954 25.749H117.526C116.34 25.749 115.427 26.0759 114.746 27.1909L114.318 25.749H112.646V35.7456H114.882Z" fill="#373A36"/>
<path d="M129.148 30.6323C129.148 27.7487 126.971 25.5571 123.9 25.5571C120.829 25.5571 118.651 27.7295 118.651 30.7476C118.651 33.7658 120.829 35.9382 123.9 35.9382C125.999 35.9382 127.982 34.9577 128.74 33.0546L126.64 32.7085C126.154 33.4198 125.221 33.9196 124.036 33.9196C122.325 33.9196 121.198 32.8815 120.984 31.3436H129.109C129.129 31.1321 129.148 30.9014 129.148 30.6323ZM123.9 27.4795C125.299 27.4795 126.349 28.3638 126.718 29.6134H121.12C121.49 28.3254 122.539 27.4795 123.9 27.4795Z" fill="#373A36"/>
<path fill-rule="evenodd" clip-rule="evenodd" d="M30.6426 37.1752C24.2114 37.1752 20.9958 37.1752 18.9979 35.1824C17 33.1895 17 29.982 17 23.5671L17 22.4331C17 16.0182 17 12.8108 18.9979 10.8179C20.9958 8.8252 24.2114 8.8252 30.6426 8.8252L31.7795 8.8252C38.2107 8.8252 41.4263 8.82519 43.4242 10.8179C45.4221 12.8108 45.4221 16.0182 45.4221 22.4331V23.5671C45.4221 29.982 45.4221 33.1895 43.4242 35.1824C41.4263 37.1752 38.2107 37.1752 31.7795 37.1752H30.6426Z" fill="#373A36"/>
<path d="M33.4355 26.2972C32.6697 26.1064 32.1328 25.4232 32.1328 24.6395V15.4071C32.1328 14.517 32.976 13.8642 33.8458 14.0809L39.3539 15.4533C40.1196 15.6442 40.6566 16.3274 40.6566 17.1111V26.3435C40.6566 27.2336 39.8134 27.8864 38.9436 27.6697L33.4355 26.2972Z" fill="white"/>
<path d="M23.0678 30.5482C22.3021 30.3574 21.7651 29.6742 21.7651 28.8905V19.6581C21.7651 18.768 22.6084 18.1151 23.4781 18.3319L28.9862 19.7044C29.752 19.8952 30.2889 20.5784 30.2889 21.3621V30.5945C30.2889 31.4846 29.4457 32.1374 28.5759 31.9207L23.0678 30.5482Z" fill="white"/>
<path d="M28.2519 28.4227C27.4861 28.2319 26.9492 27.5487 26.9492 26.765V17.5326C26.9492 16.6425 27.7924 15.9896 28.6622 16.2064L34.1703 17.5789C34.936 17.7697 35.473 18.4529 35.473 19.2366V28.469C35.473 29.3591 34.6298 30.0119 33.76 29.7952L28.2519 28.4227Z" fill="white"/>
<path d="M31.857 29.3243C31.6158 29.263 31.4441 29.0503 31.4357 28.8022L31.1961 21.7514C31.1267 20.8183 30.4323 20.0761 29.7066 19.8575C29.6658 19.8453 29.6223 19.8618 29.5982 19.8967C29.5737 19.9323 29.5832 19.9815 29.6174 20.0079C29.7966 20.1462 30.2898 20.5978 30.2898 21.3767L30.2883 28.9278L31.857 29.3243Z" fill="#373A36"/>
<path d="M37.0411 27.1957C36.8001 27.1355 36.6282 26.9234 36.6199 26.6757L36.3802 19.6255C36.3108 18.6923 35.6164 17.9501 34.8906 17.7316C34.8499 17.7193 34.8064 17.7358 34.7823 17.7708C34.7578 17.8063 34.7672 17.8555 34.8015 17.882C34.9807 18.0203 35.4739 18.4719 35.4739 19.2508L35.4725 26.8044L37.0411 27.1957Z" fill="#373A36"/>
<path d="M59.0342 16.4448H58.228V14.1448H58.919C59.4949 13.6848 59.8404 12.7648 59.8404 11.4998V8.0498H64.4472V14.1448H65.2534V16.4448H64.4472V14.9498H59.1494V16.4448H59.0342ZM60.6466 11.4998C60.6466 12.5348 60.4163 13.4548 59.9556 14.1448H63.4107V8.8548H60.5314V11.4998H60.6466Z" fill="#373A36" stroke="#373A36" stroke-width="0.184" stroke-miterlimit="10"/>
<path d="M72.0484 14.0296C71.3573 14.7196 70.5512 15.0646 69.5146 15.0646C68.4781 15.0646 67.6719 14.7196 66.9809 14.0296C66.2898 13.3396 65.9443 12.5346 65.9443 11.4996C65.9443 10.4646 66.2898 9.65957 66.9809 8.96957C67.6719 8.27957 68.4781 7.93457 69.5146 7.93457C70.5512 7.93457 71.3573 8.27957 72.0484 8.96957C72.7394 9.65957 73.0849 10.4646 73.0849 11.4996C73.0849 12.5346 72.7394 13.3396 72.0484 14.0296ZM67.6719 13.4546C68.1326 13.9146 68.8236 14.2596 69.5146 14.2596C70.2056 14.2596 70.8967 14.0296 71.3573 13.4546C71.818 12.9946 72.1635 12.3046 72.1635 11.4996C72.1635 10.6946 71.9332 10.0046 71.3573 9.54457C70.8967 9.08457 70.2056 8.73957 69.5146 8.73957C68.8236 8.73957 68.1326 8.96957 67.6719 9.54457C67.2112 10.0046 66.8657 10.6946 66.8657 11.4996C66.8657 12.3046 67.096 12.9946 67.6719 13.4546Z" fill="#373A36" stroke="#373A36" stroke-width="0.184" stroke-miterlimit="10"/>
<path d="M77.5771 15.0646C76.5406 15.0646 75.7344 14.7196 75.0434 14.0296C74.3523 13.3396 74.0068 12.5346 74.0068 11.4996C74.0068 10.4646 74.3523 9.65957 75.0434 8.96957C75.7344 8.27957 76.5406 7.93457 77.5771 7.93457C78.6137 7.93457 79.4198 8.27957 80.1109 9.08457L79.535 9.65957C79.0743 9.08457 78.3833 8.73957 77.5771 8.73957C76.7709 8.73957 76.1951 8.96957 75.6192 9.54457C75.0434 10.0046 74.813 10.6946 74.813 11.4996C74.813 12.3046 75.0434 12.9946 75.6192 13.4546C76.0799 13.9146 76.7709 14.2596 77.5771 14.2596C78.3833 14.2596 79.0743 13.9146 79.6502 13.2246L80.226 13.7996C79.8805 14.1446 79.535 14.4896 79.0743 14.7196C78.6137 14.9496 78.153 15.0646 77.5771 15.0646Z" fill="#373A36" stroke="#373A36" stroke-width="0.184" stroke-miterlimit="10"/>
<path d="M83.911 14.9498H82.9896V8.8548H81.0317V8.0498H85.7537V8.8548H83.7958V14.9498H83.911Z" fill="#373A36" stroke="#373A36" stroke-width="0.184" stroke-miterlimit="10"/>
<path d="M91.8583 8.0498L89.2093 13.9148C88.8638 14.7198 88.288 15.1798 87.597 15.1798C87.3666 15.1798 87.1363 15.1798 86.9059 15.0648L87.1363 14.2598C87.2514 14.3748 87.4818 14.3748 87.597 14.3748C87.8273 14.3748 87.9425 14.3748 88.0576 14.2598C88.1728 14.1448 88.288 14.0298 88.4031 13.7998L88.6335 13.2248L86.3301 8.1648H87.3666L89.0942 12.0748L90.8217 8.0498H91.8583Z" fill="#373A36" stroke="#373A36" stroke-width="0.184" stroke-miterlimit="10"/>
<path d="M92.894 14.9498V8.0498H97.8464V14.9498H96.925V8.8548H93.7002V14.9498H92.894Z" fill="#373A36" stroke="#373A36" stroke-width="0.184" stroke-miterlimit="10"/>
<path d="M99.4595 14.9498V8.0498H100.381V11.0398H103.836V8.0498H104.757V14.9498H103.836V11.8448H100.381V14.9498H99.4595Z" fill="#373A36" stroke="#373A36" stroke-width="0.184" stroke-miterlimit="10"/>
<path d="M112.013 14.0296C111.322 14.7196 110.516 15.0646 109.479 15.0646C108.442 15.0646 107.636 14.7196 106.945 14.0296C106.254 13.3396 105.909 12.5346 105.909 11.4996C105.909 10.4646 106.254 9.65957 106.945 8.96957C107.636 8.27957 108.442 7.93457 109.479 7.93457C110.516 7.93457 111.322 8.27957 112.013 8.96957C112.704 9.65957 113.049 10.4646 113.049 11.4996C112.934 12.5346 112.589 13.3396 112.013 14.0296ZM107.521 13.4546C107.982 13.9146 108.673 14.2596 109.364 14.2596C110.055 14.2596 110.746 14.0296 111.207 13.4546C111.667 12.9946 112.013 12.3046 112.013 11.4996C112.013 10.6946 111.782 10.0046 111.207 9.54457C110.746 9.08457 110.055 8.73957 109.364 8.73957C108.673 8.73957 107.982 8.96957 107.521 9.54457C107.06 10.0046 106.715 10.6946 106.715 11.4996C106.715 12.3046 107.06 12.9946 107.521 13.4546Z" fill="#373A36" stroke="#373A36" stroke-width="0.184" stroke-miterlimit="10"/>
<path d="M116.619 14.9498V8.0498H119.153C119.729 8.0498 120.189 8.2798 120.535 8.6248C120.88 8.9698 121.111 9.42981 121.111 9.88981C121.111 10.2348 120.996 10.4648 120.88 10.8098C120.765 11.0398 120.535 11.2698 120.189 11.3848C120.535 11.4998 120.765 11.7298 120.996 11.9598C121.226 12.1898 121.341 12.5348 121.341 12.9948C121.341 13.5698 121.111 14.0298 120.765 14.3748C120.305 14.7198 119.844 14.9498 119.268 14.9498H116.619ZM117.541 11.0398H119.153C119.498 11.0398 119.729 10.9248 119.959 10.6948C120.189 10.4648 120.305 10.2348 120.305 10.0048C120.305 9.7748 120.074 9.4298 119.959 9.1998C119.729 8.9698 119.498 8.8548 119.153 8.8548H117.541V11.0398V11.0398ZM117.541 14.1448H119.383C119.729 14.1448 119.959 14.0298 120.189 13.7998C120.42 13.5698 120.535 13.3398 120.535 12.9948C120.535 12.7648 120.42 12.4198 120.189 12.1898C119.959 11.9598 119.729 11.8448 119.383 11.8448H117.656V14.1448H117.541Z" fill="#373A36" stroke="#373A36" stroke-width="0.184" stroke-miterlimit="10"/>
</svg>
