<svg width="28" height="28" viewBox="0 0 28 28" fill="none" xmlns="http://www.w3.org/2000/svg">
<g clip-path="url(#clip0_77_1074)">
<path d="M18.0838 10.2945C17.3543 10.9663 16.6276 11.6356 15.8981 12.3074C14.7394 13.3746 13.5778 14.4443 12.419 15.5115C12.1553 15.7544 11.8916 15.9973 11.6278 16.2402C12.1581 16.2402 12.6856 16.2402 13.2159 16.2402C12.2479 15.3462 11.2799 14.4521 10.312 13.558C10.1773 13.4314 10.0398 13.3074 9.90513 13.1808C9.48989 12.7984 8.72673 12.7699 8.3171 13.1808C7.90466 13.5942 7.8738 14.2325 8.3171 14.6433C9.28507 15.5374 10.253 16.4314 11.221 17.3255C11.3557 17.4521 11.4932 17.5761 11.6278 17.7027C12.0571 18.0981 12.7866 18.0981 13.2159 17.7027C13.9453 17.0309 14.672 16.3617 15.4015 15.6898C16.5603 14.6226 17.7218 13.5529 18.8806 12.4857C19.1443 12.2428 19.4081 11.9999 19.6718 11.757C20.087 11.3746 20.1179 10.6717 19.6718 10.2945C19.2229 9.91721 18.5271 9.88621 18.0838 10.2945Z" fill="currentColor"/>
</g>
<defs>
<clipPath id="clip0_77_1074">
<rect width="12" height="8" fill="white" transform="translate(8 10)"/>
</clipPath>
</defs>
</svg>
