<svg width="24" height="24" viewBox="0 0 24 24" fill="none" xmlns="http://www.w3.org/2000/svg">
<path fill-rule="evenodd" clip-rule="evenodd" d="M3 0C1.34315 0 0 1.34315 0 3V21C0 22.6569 1.34315 24 3 24H21C22.6569 24 24 22.6569 24 21V3C24 1.34315 22.6569 0 21 0H3ZM4.01719 11.9875C4.01879 7.58269 7.60493 3.99999 12.0102 3.99999C14.148 4.00079 16.1533 4.83258 17.6623 6.34218C19.1712 7.85258 20.0016 9.86011 20 11.9953C19.9976 16.3993 16.413 19.9828 12.0086 19.9828H12.0055C10.6677 19.982 9.35366 19.6477 8.18635 19.0109L4 20L5.08448 15.9812C4.38521 14.77 4.01639 13.3955 4.01719 11.9875ZM16.5309 7.47343C15.3236 6.26703 13.7176 5.60079 12.0086 5.59999C8.48585 5.59999 5.61895 8.46589 5.61734 11.9875C5.61655 13.1099 5.9121 14.2148 6.47055 15.1812L6.80184 15.7562L6.62838 16.3969L6.24397 17.825L7.81912 17.4531L8.41449 17.3125L8.95361 17.6062C9.8841 18.1142 10.9405 18.382 12.007 18.3828C15.5322 18.3828 18.3982 15.5169 18.3998 11.9937C18.4014 10.2865 17.7382 8.68143 16.5309 7.47343ZM8.7167 8.43475C8.89992 8.23475 9.11595 8.18475 9.24957 8.18475H9.25849C9.38831 8.18475 9.51744 8.18475 9.63085 8.18944C9.77327 8.19504 9.93128 8.20275 10.0809 8.53475C10.1838 8.76368 10.3574 9.19088 10.495 9.52926C10.5949 9.77502 10.6757 9.97393 10.6966 10.016C10.7462 10.116 10.7802 10.2332 10.7138 10.366C10.7047 10.3841 10.6963 10.4012 10.6882 10.4176C10.6368 10.522 10.5995 10.5979 10.5138 10.6988C10.4793 10.739 10.4439 10.7824 10.4085 10.8256C10.3411 10.9081 10.2741 10.9901 10.2153 11.0488C10.1153 11.148 10.0102 11.2574 10.1262 11.4566C10.243 11.6566 10.6436 12.3091 11.2373 12.8379C11.8743 13.4054 12.4276 13.6465 12.7095 13.7694C12.7654 13.7937 12.8106 13.8134 12.8437 13.8301C13.0437 13.9301 13.1597 13.9121 13.2765 13.7785C13.3933 13.6457 13.775 13.1973 13.9078 12.9973C14.0406 12.7973 14.1747 12.8309 14.3579 12.8973C14.5411 12.9637 15.5229 13.4457 15.7221 13.5457C15.7616 13.5654 15.7985 13.5832 15.8327 13.5997C15.9715 13.6666 16.0651 13.7117 16.1049 13.7785C16.1545 13.8609 16.1541 14.2621 15.9877 14.7285C15.8213 15.1949 15.0056 15.6441 14.6392 15.6769C14.6043 15.6801 14.5696 15.6842 14.534 15.6884C14.1953 15.7283 13.7696 15.7784 12.2436 15.1769C10.3651 14.4366 9.12684 12.6001 8.87406 12.2252C8.8537 12.1951 8.83973 12.1743 8.83234 12.1644L8.83039 12.1618C8.72342 12.019 8.01663 11.0751 8.01663 10.0988C8.01663 9.17887 8.46986 8.69732 8.67793 8.47624C8.69206 8.46123 8.70506 8.44742 8.7167 8.43475Z" fill="currentColor"/>
</svg>
