<svg width="13" height="14" viewBox="0 0 13 14" fill="none" xmlns="http://www.w3.org/2000/svg">
  <g clip-path="url(#clip0_7228_3247)">
    <path fill-rule="evenodd" clip-rule="evenodd" d="M6.52098 0.5C9.19919 0.5 11.375 2.675 11.375 5.3015C11.375 7.39443 8.15284 11.2109 6.85566 13.2629C6.68828 13.5502 6.35351 13.5912 6.18614 13.304C4.88889 11.2932 1.625 7.39462 1.625 5.30159C1.625 2.67511 3.80104 0.500088 6.52108 0.500088L6.52098 0.5ZM6.52098 2.38768C8.15299 2.38768 9.45026 3.70085 9.45026 5.30138C9.45026 6.90186 8.15301 8.21508 6.52098 8.21508C4.88897 8.21508 3.54989 6.90191 3.54989 5.30138C3.54989 3.70089 4.88892 2.38768 6.52098 2.38768V2.38768Z" fill="currentColor" />
  </g>
  <defs>
    <clipPath id="clip0_7228_3247">
      <rect width="13" height="13" fill="white" transform="translate(0 0.5)" />
    </clipPath>
  </defs>
</svg>
