<svg width="80" height="80" viewBox="0 0 80 80" fill="none" xmlns="http://www.w3.org/2000/svg">
<g clip-path="url(#clip0_8001_4645)">
<circle cx="40" cy="40" r="40" fill="white"/>
<g clip-path="url(#clip1_8001_4645)">
<path d="M55.7389 35.2031H48.6043L48.8189 35.0069C49.3478 34.5178 49.7724 33.927 50.0675 33.2699C50.3626 32.6128 50.522 31.9029 50.5363 31.1827C50.5491 30.4627 50.4158 29.7475 50.1443 29.0804C49.8728 28.4134 49.4689 27.8083 48.9569 27.3019C48.444 26.792 47.8339 26.3906 47.1627 26.1214C46.4915 25.8522 45.773 25.7207 45.05 25.7348C44.3274 25.7476 43.6147 25.9048 42.9537 26.197C42.2928 26.4893 41.697 26.9108 41.2013 27.4368C40.6386 28.0409 40.2047 28.7509 39.9256 29.5267C39.6472 28.7509 39.2131 28.0402 38.6499 27.4383C37.6258 26.4905 36.2752 25.9749 34.88 25.9992C33.4849 26.0234 32.153 26.5857 31.1626 27.5687C30.1771 28.5473 29.6121 29.8716 29.5875 31.2602C29.5628 32.6488 30.0806 33.9924 31.0307 35.0053L31.2469 35.2031H24.1139C23.4453 35.2031 22.8059 35.4669 22.3352 35.9345C21.8629 36.4037 21.5977 37.0385 21.5977 37.7025V43.4141C21.5977 44.0781 21.8629 44.7129 22.3337 45.1821C22.8059 45.6497 23.4453 45.9135 24.1123 45.9135H24.4727V57.6956C24.4727 58.358 24.7379 58.9943 25.2087 59.4635C25.6809 59.9312 26.3203 60.1949 26.9873 60.1949H52.8639C53.5309 60.1949 54.1703 59.9312 54.6425 59.4635C55.1133 58.9943 55.3785 58.3595 55.3785 57.6956V45.9135H55.7389C56.4059 45.9135 57.0453 45.6497 57.5175 45.1821C57.9883 44.7129 58.2535 44.0781 58.2535 43.4141V37.7025C58.2535 37.0401 57.9883 36.4037 57.5175 35.9345C57.0444 35.4655 56.405 35.2026 55.7389 35.2031ZM42.727 28.9548C43.0191 28.6228 43.3763 28.3544 43.7764 28.1661C44.1765 27.9777 44.6111 27.8736 45.0531 27.86C45.4955 27.8454 45.9362 27.9212 46.3483 28.0829C46.7604 28.2445 47.1351 28.4885 47.4497 28.7999C47.7619 29.1103 48.007 29.4816 48.1698 29.8907C48.3325 30.2998 48.4094 30.738 48.3957 31.1781C48.3808 31.6186 48.2751 32.0512 48.0851 32.4488C47.8951 32.8464 47.625 33.2005 47.2917 33.4889C46.2337 34.5423 43.2499 35.0421 41.0403 35.1679C41.1661 32.9721 41.6675 30.0082 42.727 28.9548ZM32.5564 28.9548C33.1641 28.3539 33.9842 28.0169 34.8388 28.0169C35.6933 28.0169 36.5135 28.3539 37.1211 28.9548C38.1807 30.0082 38.6851 32.9721 38.8109 35.1679C36.5998 35.0421 33.6175 34.5423 32.5564 33.4889C32.2583 33.1913 32.0219 32.838 31.8605 32.449C31.6992 32.06 31.6161 31.643 31.6161 31.2218C31.6161 30.8007 31.6992 30.3837 31.8605 29.9947C32.0219 29.6057 32.2583 29.2523 32.5564 28.9548ZM23.752 43.4141V37.7025C23.7518 37.6552 23.761 37.6084 23.7791 37.5648C23.7971 37.5211 23.8237 37.4815 23.8573 37.4483C23.8908 37.415 23.9306 37.3888 23.9744 37.3711C24.0182 37.3534 24.0651 37.3446 24.1123 37.3452H38.8461V43.7714H24.1123C24.0176 43.771 23.9268 43.7333 23.8596 43.6664C23.7924 43.5995 23.7528 43.5089 23.752 43.4141ZM26.627 57.6956V45.9135H38.8461V58.0529H26.9889C26.8938 58.0529 26.8026 58.0153 26.7351 57.9484C26.6677 57.8815 26.6278 57.7906 26.627 57.6956ZM53.2211 57.6956C53.2213 57.7427 53.2122 57.7894 53.1942 57.8329C53.1762 57.8764 53.1498 57.916 53.1164 57.9492C53.083 57.9825 53.0434 58.0087 52.9998 58.0265C52.9561 58.0443 52.9094 58.0533 52.8623 58.0529H41.002V45.9119H53.2211V57.6956ZM56.0961 43.4141C56.0963 43.4612 56.0872 43.5079 56.0692 43.5514C56.0512 43.595 56.0248 43.6345 55.9914 43.6677C55.958 43.701 55.9184 43.7273 55.8748 43.7451C55.8311 43.7628 55.7844 43.7718 55.7373 43.7714H41.002V37.3452H55.7373C55.7844 37.3448 55.8311 37.3537 55.8748 37.3715C55.9184 37.3893 55.958 37.4156 55.9914 37.4488C56.0248 37.4821 56.0512 37.5216 56.0692 37.5651C56.0872 37.6087 56.0963 37.6554 56.0961 37.7025V43.4141Z" fill="url(#paint0_linear_8001_4645)"/>
<path d="M26.039 25.5723C25.0019 25.3208 24.054 24.7885 23.2994 24.0339C22.5448 23.2793 22.0125 22.3314 21.761 21.2943C21.761 21.2516 21.744 21.2106 21.7138 21.1805C21.6837 21.1503 21.6427 21.1333 21.6 21.1333C21.5573 21.1333 21.5163 21.1503 21.4862 21.1805C21.456 21.2106 21.439 21.2516 21.439 21.2943C21.1878 22.3316 20.6556 23.2796 19.901 24.0343C19.1463 24.7889 18.1983 25.3211 17.161 25.5723C17.1183 25.5723 17.0773 25.5893 17.0472 25.6195C17.017 25.6496 17 25.6906 17 25.7333C17 25.776 17.017 25.817 17.0472 25.8471C17.0773 25.8773 17.1183 25.8943 17.161 25.8943C18.1982 26.1457 19.1461 26.6779 19.9008 27.4325C20.6554 28.1872 21.1876 29.1351 21.439 30.1723C21.439 30.215 21.456 30.256 21.4862 30.2861C21.5163 30.3163 21.5573 30.3333 21.6 30.3333C21.6427 30.3333 21.6837 30.3163 21.7138 30.2861C21.744 30.256 21.761 30.215 21.761 30.1723C22.0119 29.1349 22.5439 28.1867 23.2987 27.432C24.0534 26.6772 25.0016 26.1452 26.039 25.8943C26.0817 25.8943 26.1227 25.8773 26.1528 25.8471C26.183 25.817 26.2 25.776 26.2 25.7333C26.2 25.6906 26.183 25.6496 26.1528 25.6195C26.1227 25.5893 26.0817 25.5723 26.039 25.5723Z" fill="url(#paint1_linear_8001_4645)"/>
<path d="M62.8881 24.8317C62.0165 24.622 61.2198 24.1757 60.5856 23.5421C59.9514 22.9084 59.5045 22.1121 59.2939 21.2407C59.2873 21.2098 59.2703 21.1821 59.2458 21.1623C59.2212 21.1424 59.1906 21.1316 59.159 21.1316C59.1274 21.1316 59.0968 21.1424 59.0723 21.1623C59.0477 21.1821 59.0307 21.2098 59.0241 21.2407C58.8141 22.1108 58.3685 22.9063 57.7361 23.5398C57.1037 24.1733 56.309 24.6203 55.4391 24.8317C55.4083 24.8383 55.3806 24.8554 55.3608 24.8799C55.3409 24.9045 55.3301 24.9351 55.3301 24.9667C55.3301 24.9982 55.3409 25.0289 55.3608 25.0534C55.3806 25.078 55.4083 25.095 55.4391 25.1016C56.3103 25.3119 57.1065 25.7584 57.7404 26.392C58.3742 27.0255 58.821 27.8216 59.0317 28.6927C59.0384 28.7235 59.0554 28.7512 59.0799 28.7711C59.1045 28.7909 59.1351 28.8017 59.1667 28.8017C59.1983 28.8017 59.2289 28.7909 59.2534 28.7711C59.278 28.7512 59.295 28.7235 59.3016 28.6927C59.512 27.8212 59.9589 27.0247 60.5931 26.3911C61.2273 25.7574 62.0241 25.3112 62.8957 25.1016C62.9265 25.0941 62.9537 25.0764 62.9729 25.0512C62.9921 25.0261 63.0021 24.9952 63.0012 24.9636C63.0003 24.9319 62.9886 24.9016 62.968 24.8776C62.9474 24.8536 62.9192 24.8374 62.8881 24.8317Z" fill="url(#paint2_linear_8001_4645)"/>
<path d="M55.2272 17.9593C54.536 17.7911 53.9044 17.4361 53.4014 16.9331C52.8984 16.4301 52.5434 15.7985 52.3752 15.1073C52.3752 15.0789 52.3639 15.0516 52.3437 15.0314C52.3236 15.0113 52.2963 15 52.2678 15C52.2394 15 52.2121 15.0113 52.1919 15.0314C52.1718 15.0516 52.1605 15.0789 52.1605 15.1073C51.9932 15.799 51.6386 16.4311 51.1354 16.9342C50.6323 17.4374 50.0001 17.7921 49.3085 17.9593C49.28 17.9593 49.2527 17.9706 49.2326 17.9908C49.2125 18.0109 49.2012 18.0382 49.2012 18.0667C49.2012 18.0951 49.2125 18.1224 49.2326 18.1426C49.2527 18.1627 49.28 18.174 49.3085 18.174C50 18.3416 50.6319 18.6964 51.135 19.1995C51.6381 19.7026 51.9929 20.3345 52.1605 21.026C52.1587 21.0411 52.1601 21.0563 52.1646 21.0708C52.1692 21.0853 52.1767 21.0987 52.1868 21.11C52.1968 21.1214 52.2092 21.1305 52.2231 21.1367C52.2369 21.1429 52.2519 21.1461 52.2671 21.1461C52.2822 21.1461 52.2973 21.1429 52.3111 21.1367C52.3249 21.1305 52.3373 21.1214 52.3474 21.11C52.3574 21.0987 52.365 21.0853 52.3695 21.0708C52.374 21.0563 52.3754 21.0411 52.3736 21.026C52.5411 20.334 52.8963 19.7016 53.4 19.1984C53.9037 18.6952 54.5365 18.3408 55.2287 18.174C55.2572 18.174 55.2845 18.1627 55.3046 18.1426C55.3247 18.1224 55.336 18.0951 55.336 18.0667C55.336 18.0382 55.3247 18.0109 55.3046 17.9908C55.2845 17.9706 55.2556 17.9593 55.2272 17.9593Z" fill="url(#paint3_linear_8001_4645)"/>
</g>
</g>
<defs>
<linearGradient id="paint0_linear_8001_4645" x1="29.1585" y1="60.1949" x2="60.9353" y2="49.6165" gradientUnits="userSpaceOnUse">
<stop stop-color="#FE5000"/>
<stop offset="1" stop-color="#FCA92A"/>
</linearGradient>
<linearGradient id="paint1_linear_8001_4645" x1="18.8983" y1="30.3333" x2="26.9667" y2="27.8079" gradientUnits="userSpaceOnUse">
<stop stop-color="#FE5000"/>
<stop offset="1" stop-color="#FCA92A"/>
</linearGradient>
<linearGradient id="paint2_linear_8001_4645" x1="56.9127" y1="28.8" x2="63.6379" y2="26.6963" gradientUnits="userSpaceOnUse">
<stop stop-color="#FE5000"/>
<stop offset="1" stop-color="#FCA92A"/>
</linearGradient>
<linearGradient id="paint3_linear_8001_4645" x1="50.4662" y1="21.1333" x2="55.8451" y2="19.4497" gradientUnits="userSpaceOnUse">
<stop stop-color="#FE5000"/>
<stop offset="1" stop-color="#FCA92A"/>
</linearGradient>
<clipPath id="clip0_8001_4645">
<rect width="80" height="80" fill="white"/>
</clipPath>
<clipPath id="clip1_8001_4645">
<rect width="46" height="46" fill="white" transform="translate(17 15)"/>
</clipPath>
</defs>
</svg>
