 <svg width="44" height="44" viewBox="0 0 44 44" fill="none" xmlns="http://www.w3.org/2000/svg">
  <path d="M36.9 9.3999H7.10001C4.90001 9.3999 3.20001 11.1999 3.20001 13.2999V30.5999C3.20001 32.7999 5.00001 34.4999 7.10001 34.4999H37C39.2 34.4999 40.9 32.6999 40.9 30.5999V13.3999C40.9 11.1999 39.1 9.3999 36.9 9.3999ZM39.3 30.5999C39.3 31.8999 38.2 32.9999 36.9 32.9999H7.10001C5.80001 32.9999 4.70001 31.8999 4.70001 30.5999V13.3999C4.70001 12.0999 5.80001 10.9999 7.10001 10.9999H37C38.3 10.9999 39.4 12.0999 39.4 13.3999L39.3 30.5999ZM40.1 14.0999H3.90001C3.50001 14.0999 3.10001 14.4999 3.10001 14.8999V19.5999C3.10001 19.9999 3.50001 20.3999 3.90001 20.3999H40C40.4 20.3999 40.8 19.9999 40.8 19.5999V14.8999C40.9 14.4999 40.5 14.0999 40.1 14.0999ZM39.3 18.8999H4.70001V15.7999H39.3V18.8999ZM18.1 25.0999H8.60001C8.20001 25.0999 7.80001 25.4999 7.80001 25.8999C7.80001 26.2999 8.20001 26.6999 8.60001 26.6999H18C18.4 26.6999 18.8 26.2999 18.8 25.8999C18.8 25.4999 18.5 25.0999 18.1 25.0999ZM18.1 28.2999H8.60001C8.20001 28.2999 7.80001 28.6999 7.80001 29.0999C7.80001 29.4999 8.20001 29.8999 8.60001 29.8999H18C18.4 29.8999 18.8 29.4999 18.8 29.0999C18.9 28.5999 18.5 28.2999 18.1 28.2999ZM33.8 23.5999H32.2C30.9 23.5999 29.8 24.6999 29.8 25.9999V27.5999C29.8 28.8999 30.9 29.9999 32.2 29.9999H33.8C35.1 29.9999 36.2 28.8999 36.2 27.5999V25.9999C36.1 24.5999 35.1 23.5999 33.8 23.5999ZM34.6 27.4999C34.6 27.8999 34.2 28.2999 33.8 28.2999H32.2C31.8 28.2999 31.4 27.8999 31.4 27.4999V25.8999C31.4 25.4999 31.8 25.0999 32.2 25.0999H33.8C34.2 25.0999 34.6 25.4999 34.6 25.8999V27.4999Z" fill="#FE5000"/>
  </svg>