<svg width="44" height="44" viewBox="0 0 44 44" fill="none" xmlns="http://www.w3.org/2000/svg">
                                <path fill-rule="evenodd" clip-rule="evenodd" d="M35.9987 9.01589C35.9984 9.00678 35.9981 8.99767 35.9974 8.98856C35.9948 8.95243 35.9912 8.91696 35.9841 8.88181C35.9841 8.88181 35.9841 8.88181 35.9841 8.88148C35.9769 8.84634 35.9668 8.81151 35.9554 8.77767C35.9525 8.76921 35.9496 8.76075 35.9463 8.75229C35.9343 8.72007 35.9206 8.6885 35.905 8.65791C35.904 8.65628 35.9033 8.65465 35.9024 8.65302C35.8854 8.62113 35.8659 8.59087 35.8448 8.56125C35.8396 8.55376 35.834 8.54661 35.8285 8.53912C35.806 8.50983 35.7826 8.48152 35.7562 8.45516L28.217 0.915957C28.1907 0.889596 28.1624 0.866164 28.1331 0.843709C28.1256 0.838176 28.1181 0.832318 28.1106 0.827111C28.081 0.805957 28.0511 0.786431 28.0195 0.769833C28.0172 0.768531 28.0149 0.767881 28.013 0.766579C27.9831 0.750958 27.9518 0.737614 27.9202 0.725573C27.9115 0.722319 27.903 0.71939 27.8939 0.716461C27.86 0.70507 27.8259 0.694981 27.7904 0.687822C27.7901 0.687822 27.7897 0.687822 27.7897 0.687822C27.7549 0.680987 27.7194 0.677082 27.6836 0.674479C27.6745 0.674153 27.6654 0.673502 27.6563 0.673177C27.6469 0.672851 27.6374 0.671875 27.628 0.671875H8.75202C8.29184 0.671875 7.91888 1.04483 7.91888 1.50501V37.165C7.91888 37.6252 8.29184 37.9982 8.75202 37.9982H21.2952V42.4951C21.2952 42.7981 21.4599 43.0773 21.7251 43.2241C21.9907 43.3709 22.3145 43.3621 22.5713 43.201L25.7443 41.2103L28.9174 43.201C29.0525 43.2856 29.2064 43.3283 29.3603 43.3283C29.499 43.3283 29.6379 43.2938 29.7636 43.2244C30.0288 43.0777 30.1935 42.7984 30.1935 42.4951V37.9982H35.1669C35.627 37.9982 36 37.6252 36 37.165V9.04421C36 9.03477 35.999 9.02533 35.9987 9.01589ZM28.4611 3.51657L33.1556 8.21107H28.4611V3.51657ZM20.8842 26.4049C20.8256 26.2458 20.7302 25.9858 20.728 25.8793C20.7931 25.7986 21.0189 25.6558 21.1572 25.5685C21.454 25.3811 21.7905 25.1683 22.0346 24.8356C22.281 24.4995 22.3812 24.1112 22.4697 23.7688C22.5085 23.6191 22.5709 23.3773 22.6243 23.2859C22.6536 23.2797 22.7151 23.2709 22.8307 23.2709C22.9234 23.2709 23.0272 23.2761 23.1372 23.2817C23.2635 23.2878 23.3937 23.2944 23.5297 23.2944C23.8298 23.2944 24.0719 23.2605 24.2916 23.1873C24.6753 23.0597 24.9822 22.8127 25.2529 22.5947C25.4026 22.4742 25.6532 22.2725 25.7404 22.2601C25.8358 22.2725 26.0861 22.4742 26.2358 22.5947C26.5065 22.8127 26.8137 23.0597 27.1974 23.1873C27.4171 23.2605 27.6589 23.2944 27.9593 23.2944C28.095 23.2944 28.2255 23.2878 28.3515 23.2817C28.4615 23.2761 28.5653 23.2709 28.6583 23.2709C28.7739 23.2709 28.8351 23.2794 28.8647 23.2859C28.9181 23.3773 28.9805 23.6191 29.0189 23.7688C29.1075 24.1112 29.208 24.4995 29.4544 24.8356C29.6981 25.1683 30.0346 25.3808 30.3318 25.5685C30.4698 25.6561 30.6956 25.7986 30.7607 25.8793C30.7584 25.9858 30.6631 26.2458 30.6048 26.4049C30.4808 26.7424 30.3406 27.1251 30.3406 27.5492C30.3406 27.9732 30.4808 28.356 30.6045 28.6938C30.6631 28.8529 30.7584 29.1129 30.7607 29.2194C30.6956 29.3001 30.4698 29.4426 30.3318 29.5302C30.0346 29.7176 29.6981 29.9304 29.4544 30.2631C29.208 30.5992 29.1075 30.9875 29.0189 31.3299C28.9805 31.4792 28.9177 31.7214 28.8647 31.8128C28.8351 31.819 28.7739 31.8278 28.6583 31.8278C28.5653 31.8278 28.4615 31.8226 28.3515 31.817C28.2255 31.8109 28.095 31.8043 27.9593 31.8043C27.6589 31.8043 27.4171 31.8382 27.1974 31.9114C26.8137 32.039 26.5065 32.2863 26.2358 32.504C26.0883 32.6232 25.8423 32.8207 25.7443 32.8383C25.6464 32.8207 25.4007 32.6232 25.2532 32.504C24.9822 32.2863 24.6753 32.039 24.2916 31.9114C24.0719 31.8382 23.8298 31.8043 23.5297 31.8043C23.394 31.8043 23.2635 31.8109 23.1372 31.817C23.0275 31.8226 22.9237 31.8278 22.8307 31.8278C22.7151 31.8278 22.6539 31.819 22.6243 31.8128C22.5709 31.7214 22.5085 31.4796 22.4697 31.3299C22.3815 30.9875 22.281 30.5992 22.0346 30.2631C21.7909 29.9304 21.4544 29.7176 21.1572 29.5302C21.0192 29.4429 20.7934 29.3001 20.7283 29.2194C20.7306 29.1133 20.8259 28.8529 20.8842 28.6938C21.0082 28.3563 21.1484 27.9736 21.1484 27.5495C21.1484 27.1251 21.0078 26.7424 20.8842 26.4049ZM28.5272 40.989L26.1873 39.5209C25.9165 39.3514 25.5722 39.3514 25.3014 39.5209L22.9615 40.989V33.4914C23.05 33.4888 23.1369 33.4856 23.2212 33.4813C23.3315 33.4755 23.4356 33.4703 23.5297 33.4703C23.6775 33.4703 23.7406 33.484 23.765 33.4921C23.8643 33.5253 24.055 33.6789 24.2083 33.8022C24.5972 34.1153 25.0811 34.5049 25.7443 34.5049C26.4076 34.5049 26.8915 34.1153 27.2804 33.8022C27.4337 33.6789 27.6244 33.5253 27.7234 33.4924C27.7481 33.4843 27.8112 33.4706 27.959 33.4706C28.053 33.4706 28.1572 33.4758 28.2675 33.4813C28.3518 33.4856 28.4387 33.4892 28.5269 33.4914V40.989H28.5272ZM30.1935 36.3319V32.8201C30.4411 32.4835 30.5446 32.0852 30.6322 31.7467C30.678 31.5691 30.7409 31.3259 30.7981 31.2482C30.8551 31.1701 31.0669 31.0363 31.2215 30.9387C31.6316 30.6796 32.1419 30.3571 32.3446 29.7472C32.5451 29.1455 32.3365 28.5769 32.1689 28.12C32.0927 27.9127 32.0065 27.6774 32.0065 27.5492C32.0065 27.421 32.0927 27.186 32.1689 26.9787C32.3365 26.5218 32.5451 25.9529 32.3446 25.3511C32.1419 24.7416 31.6316 24.4191 31.2215 24.16C31.0669 24.0624 30.8551 23.9283 30.7981 23.8509C30.7409 23.7728 30.678 23.5296 30.6322 23.352C30.5124 22.8882 30.3633 22.3109 29.853 21.9366C29.4469 21.6392 28.9766 21.6047 28.658 21.6047C28.5233 21.6047 28.3931 21.6112 28.2675 21.6177C28.1572 21.6232 28.053 21.6284 27.9593 21.6284C27.8112 21.6284 27.7481 21.6147 27.7237 21.6066C27.6247 21.5737 27.434 21.4201 27.2808 21.2965C26.8915 20.9837 26.4076 20.5942 25.7443 20.5942C25.0814 20.5942 24.5972 20.9837 24.2083 21.2965C24.055 21.4198 23.8643 21.5737 23.7653 21.6066C23.7409 21.6147 23.6775 21.6284 23.5297 21.6284C23.436 21.6284 23.3315 21.6232 23.2212 21.6173C23.0956 21.6112 22.9657 21.6047 22.8307 21.6047C22.5124 21.6047 22.0421 21.6392 21.6363 21.9366C21.1257 22.3109 20.9763 22.8882 20.8565 23.352C20.8106 23.5296 20.7478 23.7728 20.6909 23.8505C20.6336 23.9283 20.4217 24.0624 20.2671 24.16C19.8571 24.4191 19.3471 24.7416 19.144 25.3511C18.9436 25.9532 19.1522 26.5218 19.3198 26.9787C19.3959 27.186 19.4822 27.421 19.4822 27.5492C19.4822 27.6774 19.3959 27.9127 19.3198 28.12C19.1522 28.5769 18.9436 29.1455 19.144 29.7476C19.3471 30.3571 19.8574 30.6796 20.2671 30.9387C20.4221 31.0363 20.6336 31.1704 20.6909 31.2482C20.7478 31.3259 20.8106 31.5691 20.8565 31.7467C20.9441 32.0852 21.0479 32.4839 21.2955 32.8201V36.3319H9.58515V2.33814H26.7949V9.04421C26.7949 9.50438 27.1678 9.87734 27.628 9.87734H34.3337V36.3319H30.1935Z" fill="#FE5000"/>
                                <path fill-rule="evenodd" clip-rule="evenodd" d="M12.8229 9.87721H23.5567C24.0166 9.87721 24.3898 9.50425 24.3898 9.04407C24.3898 8.5839 24.0166 8.21094 23.5567 8.21094H12.8229C12.3628 8.21094 11.9898 8.5839 11.9898 9.04407C11.9898 9.50425 12.3631 9.87721 12.8229 9.87721Z" fill="#FE5000"/>
                                <path fill-rule="evenodd" clip-rule="evenodd" d="M31.189 12.4165H12.8229C12.3628 12.4165 11.9898 12.7895 11.9898 13.2496C11.9898 13.7098 12.3628 14.0828 12.8229 14.0828H31.189C31.6492 14.0828 32.0221 13.7098 32.0221 13.2496C32.0221 12.7895 31.6492 12.4165 31.189 12.4165Z" fill="#FE5000"/>
                                <path fill-rule="evenodd" clip-rule="evenodd" d="M27.8565 16.6218H12.8229C12.3628 16.6218 11.9898 16.9951 11.9898 17.455C11.9898 17.9151 12.3628 18.2881 12.8229 18.2881H27.8565C28.3166 18.2881 28.6896 17.9151 28.6896 17.455C28.6896 16.9951 28.3166 16.6218 27.8565 16.6218Z" fill="#FE5000"/>
                                <path fill-rule="evenodd" clip-rule="evenodd" d="M31.189 16.6218C30.7302 16.6218 30.3559 16.9961 30.3559 17.455C30.3559 17.9138 30.7302 18.2881 31.189 18.2881C31.6482 18.2881 32.0222 17.9138 32.0222 17.455C32.0222 16.9961 31.6482 16.6218 31.189 16.6218Z" fill="#FE5000"/>
                              </svg>