<svg width="44" height="44" viewBox="0 0 44 44" fill="none" xmlns="http://www.w3.org/2000/svg">
<path fill-rule="evenodd" clip-rule="evenodd" d="M9.375 5.33997C8.0653 5.33997 7.00357 6.40169 7.00357 7.7114V19.8365C3.36964 21.6413 0.87207 25.3906 0.87207 29.7232C0.87207 35.8161 5.81133 40.7553 11.9042 40.7553C16.6169 40.7553 20.6394 37.8003 22.22 33.6422H40.7562C42.0659 33.6422 43.1276 32.5804 43.1276 31.2707V13.3755C43.1276 12.3291 42.4498 11.4409 41.5093 11.1262V9.32971C41.5093 8.02 40.4476 6.95828 39.1379 6.95828H18.7345L18.657 6.77724C18.2833 5.90531 17.4259 5.33997 16.4773 5.33997H9.375ZM22.6922 32.0422H40.7562C41.1822 32.0422 41.5276 31.6968 41.5276 31.2707V13.3755C41.5276 12.9494 41.1822 12.6041 40.7562 12.6041H40.7093H20.9771C20.0285 12.6041 19.1711 12.0387 18.7974 11.1668L17.4717 8.07342L17.1863 7.40751C17.0648 7.12387 16.7859 6.93997 16.4773 6.93997H9.375C8.94895 6.93997 8.60357 7.28535 8.60357 7.7114V19.1933C9.64575 18.8669 10.7544 18.691 11.9042 18.691C17.9971 18.691 22.9364 23.6303 22.9364 29.7232C22.9364 30.5186 22.8522 31.2945 22.6922 32.0422ZM39.9093 9.32971V11.0041H20.9771C20.6685 11.0041 20.3896 10.8202 20.2681 10.5365L19.4203 8.55828H39.1379C39.5639 8.55828 39.9093 8.90366 39.9093 9.32971ZM2.47207 29.7232C2.47207 24.514 6.69498 20.291 11.9042 20.291C17.1134 20.291 21.3364 24.514 21.3364 29.7232C21.3364 34.9324 17.1134 39.1553 11.9042 39.1553C6.69498 39.1553 2.47207 34.9324 2.47207 29.7232ZM16.3017 26.6545C16.6353 26.9442 16.6709 27.4495 16.3812 27.7831L12.1005 32.7124C11.8138 33.0425 11.3152 33.0813 10.9809 32.7995L7.51555 29.8785C7.17773 29.5937 7.13472 29.089 7.41948 28.7512C7.70424 28.4134 8.20894 28.3703 8.54676 28.6551L11.4093 31.0681L15.1731 26.734C15.4628 26.4004 15.9681 26.3648 16.3017 26.6545ZM34.2998 16C34.2998 15.5582 33.9417 15.2 33.4998 15.2C33.058 15.2 32.6998 15.5582 32.6998 16V19.7H28.9998C28.558 19.7 28.1998 20.0582 28.1998 20.5C28.1998 20.9418 28.558 21.3 28.9998 21.3H32.6998V25C32.6998 25.4418 33.058 25.8 33.4998 25.8C33.9417 25.8 34.2998 25.4418 34.2998 25V21.3H37.9998C38.4417 21.3 38.7998 20.9418 38.7998 20.5C38.7998 20.0582 38.4417 19.7 37.9998 19.7H34.2998V16Z" fill="url(#paint0_linear_7228_3227)"/>
<defs>
<linearGradient id="paint0_linear_7228_3227" x1="0.87207" y1="23.0476" x2="43.1276" y2="23.0476" gradientUnits="userSpaceOnUse">
<stop stop-color="#FE5000"/>
<stop offset="0.102452" stop-color="#FE6008"/>
<stop offset="0.242162" stop-color="#FD6D0E"/>
<stop offset="1" stop-color="#FCA92A"/>
</linearGradient>
</defs>
</svg>
