<svg width="44" height="44" viewBox="0 0 44 44" fill="none" xmlns="http://www.w3.org/2000/svg">
<mask id="path-1-outside-1_7228_3182" maskUnits="userSpaceOnUse" x="0" y="0.107666" width="44" height="44" fill="black">
<rect fill="white" y="0.107666" width="44" height="44"/>
<path fill-rule="evenodd" clip-rule="evenodd" d="M36.0303 1.52675C35.6713 0.967969 34.8546 0.967972 34.4957 1.52675L33.3457 3.31714L31.2876 3.85757C30.6453 4.02623 30.3929 4.80298 30.8134 5.317L32.1608 6.96394L32.0388 9.08833C32.0007 9.75136 32.6615 10.2314 33.2803 9.99031L35.263 9.21779L37.2457 9.99031C37.8645 10.2314 38.5252 9.75135 38.4872 9.08833L38.3651 6.96394L39.7125 5.317C40.1331 4.80298 39.8807 4.02623 39.2383 3.85756L37.1802 3.31714L36.0303 1.52675ZM34.3578 4.14692L35.263 2.7377L36.1681 4.14692C36.2916 4.33918 36.4828 4.47807 36.7038 4.53611L38.3238 4.96148L37.2632 6.25781C37.1185 6.43466 37.0455 6.6594 37.0586 6.88752L37.1546 8.55964L35.594 7.95159C35.3811 7.86863 35.1448 7.86863 34.9319 7.95159L33.3713 8.55964L33.4674 6.88752C33.4805 6.6594 33.4074 6.43466 33.2627 6.25781L32.2022 4.96148L33.8222 4.53611C34.0432 4.47807 34.2343 4.33918 34.3578 4.14692ZM20.3429 3.03622C18.4398 2.05178 16.2906 1.53495 14.1086 1.53495C6.88163 1.53495 1 7.12164 1 13.9881C1 18.0653 3.06718 21.8308 6.56171 24.1689L4.97851 28.9188C4.90468 29.1485 4.9703 29.4028 5.15077 29.5669C5.35585 29.7556 5.66757 29.7802 5.89726 29.6325L11.3031 26.1542C12.2219 26.3428 13.1652 26.4413 14.1086 26.4413C15.0601 26.4413 15.9953 26.3428 16.8976 26.1542C16.8238 26.6956 16.7828 27.2452 16.7828 27.7949C16.7828 34.6614 22.6644 40.2481 29.8914 40.2481C30.8347 40.2481 31.7781 40.1496 32.6968 39.9609L38.1027 43.4393C38.3324 43.5869 38.6441 43.5623 38.8492 43.3737C39.0296 43.2096 39.0952 42.9553 39.0214 42.7256L37.4382 37.9756C40.9327 35.6376 42.9999 31.8721 42.9999 27.7949C42.9999 20.9284 37.1183 15.3417 29.8914 15.3417C28.948 15.3417 28.021 15.4402 27.1023 15.6288C27.1761 15.0956 27.2171 14.546 27.2171 13.9881C27.2171 10.5098 25.6668 7.16266 22.9597 4.80821L20.3429 3.03622ZM22.1558 5.73522C24.5921 7.85177 25.9867 10.8625 25.9867 13.9881C25.9867 20.1737 20.6629 25.2107 14.1086 25.2107C13.1652 25.2107 12.2301 25.1041 11.3195 24.899C11.1555 24.8662 10.9914 24.8908 10.8519 24.981L6.70116 27.6472L7.88241 24.1032C7.97264 23.8325 7.866 23.5372 7.61991 23.3813C4.24843 21.3058 2.23047 17.7864 2.23047 13.9881C2.23047 7.80255 7.56249 2.7655 14.1086 2.7655C16.0937 2.7655 18.0543 3.23311 19.7851 4.12731L22.1558 5.73522ZM36.38 37.1963C36.1339 37.344 36.0273 37.6475 36.1175 37.9182L37.2988 41.4622L33.148 38.796C33.0085 38.7058 32.8363 38.673 32.6804 38.714C31.7699 38.9191 30.8347 39.0257 29.8914 39.0257C23.3453 39.0257 18.0132 33.9887 18.0132 27.8031C18.0132 27.1386 18.0789 26.4741 18.2019 25.826C22.4675 24.497 25.7652 21.1335 26.848 16.9578C27.8406 16.7117 28.8578 16.5805 29.8914 16.5805C36.4374 16.5805 41.7695 21.6175 41.7695 27.8031C41.7695 31.6014 39.7515 35.1126 36.38 37.1963ZM10.6452 13.8875C10.6452 14.6055 10.0632 15.1875 9.3452 15.1875C8.62723 15.1875 8.0452 14.6055 8.0452 13.8875C8.0452 13.1696 8.62723 12.5875 9.3452 12.5875C10.0632 12.5875 10.6452 13.1696 10.6452 13.8875ZM15.6191 13.8875C15.6191 14.6055 15.0371 15.1875 14.3191 15.1875C13.6011 15.1875 13.0191 14.6055 13.0191 13.8875C13.0191 13.1696 13.6011 12.5875 14.3191 12.5875C15.0371 12.5875 15.6191 13.1696 15.6191 13.8875ZM19.2925 15.1875C20.0105 15.1875 20.5925 14.6055 20.5925 13.8875C20.5925 13.1696 20.0105 12.5875 19.2925 12.5875C18.5746 12.5875 17.9925 13.1696 17.9925 13.8875C17.9925 14.6055 18.5746 15.1875 19.2925 15.1875ZM25.5632 24.7454C25.1214 24.7454 24.7632 25.1036 24.7632 25.5454C24.7632 25.9872 25.1214 26.3454 25.5632 26.3454H34.4632C34.905 26.3454 35.2632 25.9872 35.2632 25.5454C35.2632 25.1036 34.905 24.7454 34.4632 24.7454H25.5632ZM24.7632 29.9662C24.7632 29.5244 25.1214 29.1662 25.5632 29.1662H32.2526C32.6945 29.1662 33.0527 29.5244 33.0527 29.9662C33.0527 30.4081 32.6945 30.7662 32.2526 30.7662H25.5632C25.1214 30.7662 24.7632 30.4081 24.7632 29.9662Z"/>
</mask>
<path fill-rule="evenodd" clip-rule="evenodd" d="M36.0303 1.52675C35.6713 0.967969 34.8546 0.967972 34.4957 1.52675L33.3457 3.31714L31.2876 3.85757C30.6453 4.02623 30.3929 4.80298 30.8134 5.317L32.1608 6.96394L32.0388 9.08833C32.0007 9.75136 32.6615 10.2314 33.2803 9.99031L35.263 9.21779L37.2457 9.99031C37.8645 10.2314 38.5252 9.75135 38.4872 9.08833L38.3651 6.96394L39.7125 5.317C40.1331 4.80298 39.8807 4.02623 39.2383 3.85756L37.1802 3.31714L36.0303 1.52675ZM34.3578 4.14692L35.263 2.7377L36.1681 4.14692C36.2916 4.33918 36.4828 4.47807 36.7038 4.53611L38.3238 4.96148L37.2632 6.25781C37.1185 6.43466 37.0455 6.6594 37.0586 6.88752L37.1546 8.55964L35.594 7.95159C35.3811 7.86863 35.1448 7.86863 34.9319 7.95159L33.3713 8.55964L33.4674 6.88752C33.4805 6.6594 33.4074 6.43466 33.2627 6.25781L32.2022 4.96148L33.8222 4.53611C34.0432 4.47807 34.2343 4.33918 34.3578 4.14692ZM20.3429 3.03622C18.4398 2.05178 16.2906 1.53495 14.1086 1.53495C6.88163 1.53495 1 7.12164 1 13.9881C1 18.0653 3.06718 21.8308 6.56171 24.1689L4.97851 28.9188C4.90468 29.1485 4.9703 29.4028 5.15077 29.5669C5.35585 29.7556 5.66757 29.7802 5.89726 29.6325L11.3031 26.1542C12.2219 26.3428 13.1652 26.4413 14.1086 26.4413C15.0601 26.4413 15.9953 26.3428 16.8976 26.1542C16.8238 26.6956 16.7828 27.2452 16.7828 27.7949C16.7828 34.6614 22.6644 40.2481 29.8914 40.2481C30.8347 40.2481 31.7781 40.1496 32.6968 39.9609L38.1027 43.4393C38.3324 43.5869 38.6441 43.5623 38.8492 43.3737C39.0296 43.2096 39.0952 42.9553 39.0214 42.7256L37.4382 37.9756C40.9327 35.6376 42.9999 31.8721 42.9999 27.7949C42.9999 20.9284 37.1183 15.3417 29.8914 15.3417C28.948 15.3417 28.021 15.4402 27.1023 15.6288C27.1761 15.0956 27.2171 14.546 27.2171 13.9881C27.2171 10.5098 25.6668 7.16266 22.9597 4.80821L20.3429 3.03622ZM22.1558 5.73522C24.5921 7.85177 25.9867 10.8625 25.9867 13.9881C25.9867 20.1737 20.6629 25.2107 14.1086 25.2107C13.1652 25.2107 12.2301 25.1041 11.3195 24.899C11.1555 24.8662 10.9914 24.8908 10.8519 24.981L6.70116 27.6472L7.88241 24.1032C7.97264 23.8325 7.866 23.5372 7.61991 23.3813C4.24843 21.3058 2.23047 17.7864 2.23047 13.9881C2.23047 7.80255 7.56249 2.7655 14.1086 2.7655C16.0937 2.7655 18.0543 3.23311 19.7851 4.12731L22.1558 5.73522ZM36.38 37.1963C36.1339 37.344 36.0273 37.6475 36.1175 37.9182L37.2988 41.4622L33.148 38.796C33.0085 38.7058 32.8363 38.673 32.6804 38.714C31.7699 38.9191 30.8347 39.0257 29.8914 39.0257C23.3453 39.0257 18.0132 33.9887 18.0132 27.8031C18.0132 27.1386 18.0789 26.4741 18.2019 25.826C22.4675 24.497 25.7652 21.1335 26.848 16.9578C27.8406 16.7117 28.8578 16.5805 29.8914 16.5805C36.4374 16.5805 41.7695 21.6175 41.7695 27.8031C41.7695 31.6014 39.7515 35.1126 36.38 37.1963ZM10.6452 13.8875C10.6452 14.6055 10.0632 15.1875 9.3452 15.1875C8.62723 15.1875 8.0452 14.6055 8.0452 13.8875C8.0452 13.1696 8.62723 12.5875 9.3452 12.5875C10.0632 12.5875 10.6452 13.1696 10.6452 13.8875ZM15.6191 13.8875C15.6191 14.6055 15.0371 15.1875 14.3191 15.1875C13.6011 15.1875 13.0191 14.6055 13.0191 13.8875C13.0191 13.1696 13.6011 12.5875 14.3191 12.5875C15.0371 12.5875 15.6191 13.1696 15.6191 13.8875ZM19.2925 15.1875C20.0105 15.1875 20.5925 14.6055 20.5925 13.8875C20.5925 13.1696 20.0105 12.5875 19.2925 12.5875C18.5746 12.5875 17.9925 13.1696 17.9925 13.8875C17.9925 14.6055 18.5746 15.1875 19.2925 15.1875ZM25.5632 24.7454C25.1214 24.7454 24.7632 25.1036 24.7632 25.5454C24.7632 25.9872 25.1214 26.3454 25.5632 26.3454H34.4632C34.905 26.3454 35.2632 25.9872 35.2632 25.5454C35.2632 25.1036 34.905 24.7454 34.4632 24.7454H25.5632ZM24.7632 29.9662C24.7632 29.5244 25.1214 29.1662 25.5632 29.1662H32.2526C32.6945 29.1662 33.0527 29.5244 33.0527 29.9662C33.0527 30.4081 32.6945 30.7662 32.2526 30.7662H25.5632C25.1214 30.7662 24.7632 30.4081 24.7632 29.9662Z" fill="url(#paint0_linear_7228_3182)"/>
<path d="M34.4957 1.52675L34.4076 1.47014V1.47014L34.4957 1.52675ZM36.0303 1.52675L36.1184 1.47014V1.47014L36.0303 1.52675ZM33.3457 3.31714L33.3724 3.41846L33.4118 3.4081L33.4339 3.37375L33.3457 3.31714ZM31.2876 3.85757L31.3142 3.95889L31.2876 3.85757ZM30.8134 5.317L30.8945 5.25066L30.8134 5.317ZM32.1608 6.96394L32.2654 6.96995L32.2678 6.9292L32.2419 6.89761L32.1608 6.96394ZM32.0388 9.08833L32.1434 9.09434L32.0388 9.08833ZM33.2803 9.99031L33.3183 10.0879L33.2803 9.99031ZM35.263 9.21779L35.301 9.12018L35.263 9.10536L35.2249 9.12018L35.263 9.21779ZM37.2457 9.99031L37.2077 10.0879L37.2457 9.99031ZM38.4872 9.08833L38.3826 9.09434L38.4872 9.08833ZM38.3651 6.96394L38.2841 6.89761L38.2582 6.9292L38.2605 6.96995L38.3651 6.96394ZM39.7125 5.317L39.6315 5.25066V5.25066L39.7125 5.317ZM39.2383 3.85756L39.2649 3.75624L39.2383 3.85756ZM37.1802 3.31714L37.0921 3.37375L37.1141 3.4081L37.1536 3.41846L37.1802 3.31714ZM35.263 2.7377L35.3511 2.68108L35.263 2.54385L35.1748 2.68108L35.263 2.7377ZM34.3578 4.14692L34.446 4.20354V4.20354L34.3578 4.14692ZM36.1681 4.14692L36.08 4.20354L36.1681 4.14692ZM36.7038 4.53611L36.6772 4.63743V4.63743L36.7038 4.53611ZM38.3238 4.96148L38.4048 5.02782L38.5081 4.90158L38.3504 4.86016L38.3238 4.96148ZM37.2632 6.25781L37.1821 6.19147V6.19147L37.2632 6.25781ZM37.0586 6.88752L37.1632 6.88152V6.88151L37.0586 6.88752ZM37.1546 8.55964L37.1166 8.65726L37.2686 8.71647L37.2592 8.55364L37.1546 8.55964ZM35.594 7.95159L35.6321 7.85398L35.594 7.95159ZM34.9319 7.95159L34.97 8.0492V8.0492L34.9319 7.95159ZM33.3713 8.55964L33.2667 8.55364L33.2574 8.71647L33.4093 8.65726L33.3713 8.55964ZM33.4674 6.88752L33.3628 6.88151V6.88152L33.4674 6.88752ZM33.2627 6.25781L33.1817 6.32414V6.32414L33.2627 6.25781ZM32.2022 4.96148L32.1756 4.86016L32.0178 4.90158L32.1211 5.02782L32.2022 4.96148ZM33.8222 4.53611L33.7956 4.43478L33.8222 4.53611ZM20.3429 3.03622L20.4021 2.94887L20.3911 2.94317L20.3429 3.03622ZM6.56171 24.1689L6.6611 24.202L6.68635 24.1262L6.61996 24.0818L6.56171 24.1689ZM4.97851 28.9188L4.87912 28.8857L4.87877 28.8867L4.97851 28.9188ZM5.15077 29.5669L5.22171 29.4898L5.22125 29.4894L5.15077 29.5669ZM5.89726 29.6325L5.95391 29.7206L5.95394 29.7206L5.89726 29.6325ZM11.3031 26.1542L11.3242 26.0515L11.2823 26.0429L11.2464 26.0661L11.3031 26.1542ZM16.8976 26.1542L17.0014 26.1683L17.0215 26.0212L16.8762 26.0516L16.8976 26.1542ZM32.6968 39.9609L32.7535 39.8728L32.7176 39.8497L32.6757 39.8583L32.6968 39.9609ZM38.1027 43.4393L38.046 43.5274L38.046 43.5274L38.1027 43.4393ZM38.8492 43.3737L38.7787 43.2961L38.7782 43.2966L38.8492 43.3737ZM39.0214 42.7256L39.1212 42.6935L39.1208 42.6924L39.0214 42.7256ZM37.4382 37.9756L37.38 37.8886L37.3136 37.933L37.3388 38.0088L37.4382 37.9756ZM27.1023 15.6288L26.9985 15.6145L26.9782 15.7613L27.1234 15.7315L27.1023 15.6288ZM22.9597 4.80821L23.029 4.72858L23.0185 4.72146L22.9597 4.80821ZM22.1558 5.73522L22.225 5.65557L22.2146 5.64852L22.1558 5.73522ZM11.3195 24.899L11.3425 24.7968L11.3401 24.7963L11.3195 24.899ZM10.8519 24.981L10.9086 25.0692L10.9089 25.069L10.8519 24.981ZM6.70116 27.6472L6.60177 27.6141L6.50784 27.8959L6.75778 27.7354L6.70116 27.6472ZM7.88241 24.1032L7.9818 24.1364L7.88241 24.1032ZM7.61991 23.3813L7.67597 23.2928L7.67483 23.2921L7.61991 23.3813ZM19.7851 4.12731L19.8443 4.03999L19.8332 4.03423L19.7851 4.12731ZM36.1175 37.9182L36.0181 37.9513L36.1175 37.9182ZM36.38 37.1963L36.4339 37.2861L36.4351 37.2854L36.38 37.1963ZM37.2988 41.4622L37.2421 41.5504L37.4921 41.7109L37.3982 41.4291L37.2988 41.4622ZM33.148 38.796L33.0911 38.884L33.0914 38.8842L33.148 38.796ZM32.6804 38.714L32.7034 38.8162L32.7071 38.8153L32.6804 38.714ZM18.2019 25.826L18.1708 25.726L18.1107 25.7447L18.099 25.8065L18.2019 25.826ZM26.848 16.9578L26.8228 16.8562L26.7622 16.8712L26.7466 16.9315L26.848 16.9578ZM34.5839 1.58337C34.9015 1.08878 35.6244 1.08878 35.9421 1.58337L36.1184 1.47014C35.7183 0.847159 34.8077 0.847162 34.4076 1.47014L34.5839 1.58337ZM33.4339 3.37375L34.5839 1.58337L34.4076 1.47014L33.2576 3.26052L33.4339 3.37375ZM31.3142 3.95889L33.3724 3.41846L33.3191 3.21581L31.261 3.75624L31.3142 3.95889ZM30.8945 5.25066C30.5223 4.7957 30.7457 4.10818 31.3142 3.95889L31.261 3.75624C30.5449 3.94428 30.2635 4.81027 30.7323 5.38333L30.8945 5.25066ZM32.2419 6.89761L30.8945 5.25066L30.7323 5.38333L32.0797 7.03028L32.2419 6.89761ZM32.1434 9.09434L32.2654 6.96995L32.0562 6.95793L31.9342 9.08232L32.1434 9.09434ZM33.2422 9.89269C32.6945 10.1061 32.1097 9.68119 32.1434 9.09434L31.9342 9.08232C31.8918 9.82152 32.6284 10.3567 33.3183 10.0879L33.2422 9.89269ZM35.2249 9.12018L33.2422 9.89269L33.3183 10.0879L35.301 9.31541L35.2249 9.12018ZM37.2837 9.89269L35.301 9.12018L35.2249 9.31541L37.2077 10.0879L37.2837 9.89269ZM38.3826 9.09434C38.4163 9.68119 37.8314 10.1061 37.2837 9.89269L37.2077 10.0879C37.8976 10.3567 38.6342 9.82152 38.5917 9.08232L38.3826 9.09434ZM38.2605 6.96995L38.3826 9.09434L38.5917 9.08232L38.4697 6.95793L38.2605 6.96995ZM39.6315 5.25066L38.2841 6.89761L38.4462 7.03028L39.7936 5.38333L39.6315 5.25066ZM39.2117 3.95889C39.7803 4.10818 40.0037 4.7957 39.6315 5.25066L39.7936 5.38333C40.2625 4.81026 39.9811 3.94428 39.2649 3.75624L39.2117 3.95889ZM37.1536 3.41846L39.2117 3.95889L39.2649 3.75624L37.2068 3.21581L37.1536 3.41846ZM35.9421 1.58337L37.0921 3.37375L37.2684 3.26052L36.1184 1.47014L35.9421 1.58337ZM35.1748 2.68108L34.2697 4.09031L34.446 4.20354L35.3511 2.79431L35.1748 2.68108ZM36.2563 4.09031L35.3511 2.68108L35.1748 2.79431L36.08 4.20354L36.2563 4.09031ZM36.7304 4.43478C36.5348 4.38341 36.3656 4.26048 36.2563 4.09031L36.08 4.20354C36.2177 4.41789 36.4308 4.57273 36.6772 4.63743L36.7304 4.43478ZM38.3504 4.86016L36.7304 4.43478L36.6772 4.63743L38.2972 5.06281L38.3504 4.86016ZM37.3443 6.32414L38.4048 5.02782L38.2427 4.89515L37.1821 6.19147L37.3443 6.32414ZM37.1632 6.88151C37.1516 6.6796 37.2162 6.48068 37.3443 6.32414L37.1821 6.19147C37.0208 6.38864 36.9394 6.63919 36.954 6.89353L37.1632 6.88151ZM37.2592 8.55364L37.1632 6.88152L36.954 6.89353L37.0501 8.56565L37.2592 8.55364ZM35.556 8.0492L37.1166 8.65726L37.1927 8.46203L35.6321 7.85398L35.556 8.0492ZM34.97 8.0492C35.1584 7.97578 35.3676 7.97578 35.556 8.0492L35.6321 7.85398C35.3947 7.76149 35.1313 7.76149 34.8939 7.85398L34.97 8.0492ZM33.4093 8.65726L34.97 8.0492L34.8939 7.85398L33.3333 8.46203L33.4093 8.65726ZM33.3628 6.88152L33.2667 8.55364L33.4759 8.56565L33.5719 6.89353L33.3628 6.88152ZM33.1817 6.32414C33.3097 6.48068 33.3744 6.6796 33.3628 6.88151L33.5719 6.89353C33.5866 6.63919 33.5051 6.38864 33.3438 6.19147L33.1817 6.32414ZM32.1211 5.02782L33.1817 6.32414L33.3438 6.19147L32.2833 4.89515L32.1211 5.02782ZM33.7956 4.43478L32.1756 4.86016L32.2288 5.06281L33.8488 4.63743L33.7956 4.43478ZM34.2697 4.09031C34.1604 4.26048 33.9912 4.38341 33.7956 4.43478L33.8488 4.63743C34.0952 4.57273 34.3083 4.41789 34.446 4.20354L34.2697 4.09031ZM14.1086 1.63971C16.2742 1.63971 18.4069 2.15268 20.2948 3.12927L20.3911 2.94317C18.4728 1.95087 16.307 1.43018 14.1086 1.43018V1.63971ZM1.10476 13.9881C1.10476 7.18451 6.93435 1.63971 14.1086 1.63971V1.43018C6.8289 1.43018 0.895238 7.05878 0.895238 13.9881H1.10476ZM6.61996 24.0818C3.15318 21.7623 1.10476 18.0288 1.10476 13.9881H0.895238C0.895238 18.1019 2.98119 21.8993 6.50345 24.2559L6.61996 24.0818ZM5.07789 28.9519L6.6611 24.202L6.46232 24.1357L4.87912 28.8857L5.07789 28.9519ZM5.22125 29.4894C5.07156 29.3533 5.01682 29.142 5.07825 28.9508L4.87877 28.8867C4.79254 29.155 4.86905 29.4523 5.0803 29.6444L5.22125 29.4894ZM5.8406 29.5444C5.65083 29.6664 5.39156 29.6461 5.22171 29.4898L5.07984 29.644C5.32014 29.8651 5.68431 29.894 5.95391 29.7206L5.8406 29.5444ZM11.2464 26.0661L5.84057 29.5444L5.95394 29.7206L11.3598 26.2423L11.2464 26.0661ZM14.1086 26.3365C13.1725 26.3365 12.2362 26.2388 11.3242 26.0515L11.282 26.2568C12.2075 26.4468 13.158 26.546 14.1086 26.546V26.3365ZM16.8762 26.0516C15.9809 26.2388 15.0529 26.3365 14.1086 26.3365V26.546C15.0673 26.546 16.0097 26.4469 16.9191 26.2567L16.8762 26.0516ZM16.8875 27.7949C16.8875 27.2504 16.9282 26.7055 17.0014 26.1683L16.7938 26.14C16.7194 26.6857 16.678 27.2401 16.678 27.7949H16.8875ZM29.8914 40.1433C22.7171 40.1433 16.8875 34.5985 16.8875 27.7949H16.678C16.678 34.7242 22.6117 40.3528 29.8914 40.3528V40.1433ZM32.6757 39.8583C31.7638 40.0456 30.8275 40.1433 29.8914 40.1433V40.3528C30.842 40.3528 31.7924 40.2536 32.7179 40.0635L32.6757 39.8583ZM38.1594 43.3512L32.7535 39.8728L32.6401 40.049L38.046 43.5274L38.1594 43.3512ZM38.7782 43.2966C38.6084 43.4528 38.3491 43.4732 38.1593 43.3512L38.046 43.5274C38.3156 43.7007 38.6798 43.6718 38.9201 43.4508L38.7782 43.2966ZM38.9217 42.7576C38.9831 42.9487 38.9284 43.1601 38.7787 43.2961L38.9196 43.4512C39.1309 43.2591 39.2074 42.9618 39.1212 42.6935L38.9217 42.7576ZM37.3388 38.0088L38.922 42.7587L39.1208 42.6924L37.5376 37.9425L37.3388 38.0088ZM42.8952 27.7949C42.8952 31.8356 40.8467 35.5691 37.38 37.8886L37.4965 38.0627C41.0187 35.7061 43.1047 31.9086 43.1047 27.7949H42.8952ZM29.8914 15.4465C37.0656 15.4465 42.8952 20.9913 42.8952 27.7949H43.1047C43.1047 20.8656 37.171 15.237 29.8914 15.237V15.4465ZM27.1234 15.7315C28.0355 15.5441 28.9554 15.4465 29.8914 15.4465V15.237C28.9406 15.237 28.0066 15.3362 27.0812 15.5262L27.1234 15.7315ZM27.1124 13.9881C27.1124 14.5408 27.0717 15.0857 26.9985 15.6145L27.2061 15.6432C27.2805 15.1055 27.3219 14.5511 27.3219 13.9881H27.1124ZM22.891 4.88726C25.5759 7.22249 27.1124 10.5411 27.1124 13.9881H27.3219C27.3219 10.4784 25.7576 7.10284 23.0285 4.72916L22.891 4.88726ZM20.2842 3.12296L22.901 4.89495L23.0185 4.72146L20.4017 2.94947L20.2842 3.12296ZM26.0914 13.9881C26.0914 10.8312 24.683 7.79191 22.2245 5.65614L22.0871 5.81431C24.5013 7.91163 25.8819 10.8939 25.8819 13.9881H26.0914ZM14.1086 25.3155C20.7151 25.3155 26.0914 20.237 26.0914 13.9881H25.8819C25.8819 20.1103 20.6106 25.106 14.1086 25.106V25.3155ZM11.2965 25.0012C12.2144 25.208 13.1573 25.3155 14.1086 25.3155V25.106C13.1731 25.106 12.2457 25.0002 11.3425 24.7968L11.2965 25.0012ZM10.9089 25.069C11.0228 24.9953 11.1584 24.9736 11.299 25.0017L11.3401 24.7963C11.1525 24.7587 10.96 24.7863 10.795 24.8931L10.9089 25.069ZM6.75778 27.7354L10.9086 25.0692L10.7953 24.8929L6.64454 27.5591L6.75778 27.7354ZM7.78302 24.0701L6.60177 27.6141L6.80055 27.6803L7.9818 24.1364L7.78302 24.0701ZM7.56385 23.4698C7.77015 23.6005 7.8577 23.8461 7.78302 24.0701L7.9818 24.1364C8.08758 23.819 7.96186 23.4739 7.67597 23.2928L7.56385 23.4698ZM2.1257 13.9881C2.1257 17.8246 4.1641 21.3769 7.56499 23.4705L7.67483 23.2921C4.33277 21.2347 2.33523 17.7482 2.33523 13.9881H2.1257ZM14.1086 2.66073C7.51032 2.66073 2.1257 7.73916 2.1257 13.9881H2.33523C2.33523 7.86593 7.61466 2.87026 14.1086 2.87026V2.66073ZM19.8332 4.03423C18.0871 3.13213 16.11 2.66073 14.1086 2.66073V2.87026C16.0775 2.87026 18.0215 3.33408 19.737 4.22038L19.8332 4.03423ZM22.2146 5.64852L19.8439 4.0406L19.7263 4.21401L22.097 5.82192L22.2146 5.64852ZM36.2169 37.8851C36.1417 37.6595 36.2313 37.4077 36.4339 37.2861L36.3261 37.1065C36.0366 37.2802 35.9129 37.6355 36.0181 37.9513L36.2169 37.8851ZM37.3982 41.4291L36.2169 37.8851L36.0181 37.9513L37.1994 41.4953L37.3982 41.4291ZM33.0914 38.8842L37.2421 41.5504L37.3554 41.3741L33.2046 38.7079L33.0914 38.8842ZM32.7071 38.8153C32.8317 38.7825 32.9739 38.8081 33.0911 38.884L33.2049 38.7081C33.0432 38.6034 32.8409 38.5634 32.6537 38.6127L32.7071 38.8153ZM29.8914 39.1305C30.8426 39.1305 31.7855 39.0229 32.7034 38.8162L32.6574 38.6118C31.7543 38.8152 30.8268 38.9209 29.8914 38.9209V39.1305ZM17.9085 27.8031C17.9085 34.052 23.2931 39.1305 29.8914 39.1305V38.9209C23.3974 38.9209 18.118 33.9253 18.118 27.8031H17.9085ZM18.099 25.8065C17.9748 26.4607 17.9085 27.1317 17.9085 27.8031H18.118C18.118 27.1455 18.183 26.4875 18.3048 25.8455L18.099 25.8065ZM26.7466 16.9315C25.6734 21.0703 22.4037 24.4072 18.1708 25.726L18.2331 25.926C22.5314 24.5868 25.857 21.1967 26.9494 16.9841L26.7466 16.9315ZM29.8914 16.4757C28.8488 16.4757 27.8232 16.6081 26.8228 16.8562L26.8732 17.0595C27.858 16.8154 28.8667 16.6852 29.8914 16.6852V16.4757ZM41.8742 27.8031C41.8742 21.5541 36.4896 16.4757 29.8914 16.4757V16.6852C36.3853 16.6852 41.6647 21.6809 41.6647 27.8031H41.8742ZM36.4351 37.2854C39.8357 35.1837 41.8742 31.6397 41.8742 27.8031H41.6647C41.6647 31.5631 39.6672 35.0415 36.3249 37.1072L36.4351 37.2854ZM9.3452 15.2923C10.121 15.2923 10.75 14.6634 10.75 13.8875H10.5404C10.5404 14.5476 10.0053 15.0828 9.3452 15.0828V15.2923ZM7.94043 13.8875C7.94043 14.6634 8.56937 15.2923 9.3452 15.2923V15.0828C8.68508 15.0828 8.14996 14.5476 8.14996 13.8875H7.94043ZM9.3452 12.4828C8.56937 12.4828 7.94043 13.1117 7.94043 13.8875H8.14996C8.14996 13.2274 8.68508 12.6923 9.3452 12.6923V12.4828ZM10.75 13.8875C10.75 13.1117 10.121 12.4828 9.3452 12.4828V12.6923C10.0053 12.6923 10.5404 13.2274 10.5404 13.8875H10.75ZM14.3191 15.2923C15.0949 15.2923 15.7239 14.6634 15.7239 13.8875H15.5143C15.5143 14.5476 14.9792 15.0828 14.3191 15.0828V15.2923ZM12.9143 13.8875C12.9143 14.6634 13.5433 15.2923 14.3191 15.2923V15.0828C13.659 15.0828 13.1239 14.5476 13.1239 13.8875H12.9143ZM14.3191 12.4828C13.5433 12.4828 12.9143 13.1117 12.9143 13.8875H13.1239C13.1239 13.2274 13.659 12.6923 14.3191 12.6923V12.4828ZM15.7239 13.8875C15.7239 13.1117 15.0949 12.4828 14.3191 12.4828V12.6923C14.9792 12.6923 15.5143 13.2274 15.5143 13.8875H15.7239ZM20.4878 13.8875C20.4878 14.5476 19.9526 15.0828 19.2925 15.0828V15.2923C20.0684 15.2923 20.6973 14.6634 20.6973 13.8875H20.4878ZM19.2925 12.6923C19.9526 12.6923 20.4878 13.2274 20.4878 13.8875H20.6973C20.6973 13.1117 20.0684 12.4828 19.2925 12.4828V12.6923ZM18.0973 13.8875C18.0973 13.2274 18.6324 12.6923 19.2925 12.6923V12.4828C18.5167 12.4828 17.8878 13.1117 17.8878 13.8875H18.0973ZM19.2925 15.0828C18.6324 15.0828 18.0973 14.5476 18.0973 13.8875H17.8878C17.8878 14.6634 18.5167 15.2923 19.2925 15.2923V15.0828ZM24.868 25.5454C24.868 25.1614 25.1792 24.8501 25.5632 24.8501V24.6406C25.0635 24.6406 24.6584 25.0457 24.6584 25.5454H24.868ZM25.5632 26.2406C25.1792 26.2406 24.868 25.9294 24.868 25.5454H24.6584C24.6584 26.0451 25.0635 26.4501 25.5632 26.4501V26.2406ZM34.4632 26.2406H25.5632V26.4501H34.4632V26.2406ZM35.1584 25.5454C35.1584 25.9294 34.8471 26.2406 34.4632 26.2406V26.4501C34.9629 26.4501 35.3679 26.0451 35.3679 25.5454H35.1584ZM34.4632 24.8501C34.8471 24.8501 35.1584 25.1614 35.1584 25.5454H35.3679C35.3679 25.0457 34.9629 24.6406 34.4632 24.6406V24.8501ZM25.5632 24.8501H34.4632V24.6406H25.5632V24.8501ZM25.5632 29.0615C25.0635 29.0615 24.6584 29.4665 24.6584 29.9662H24.868C24.868 29.5823 25.1792 29.271 25.5632 29.271V29.0615ZM32.2526 29.0615H25.5632V29.271H32.2526V29.0615ZM33.1574 29.9662C33.1574 29.4665 32.7523 29.0615 32.2526 29.0615V29.271C32.6366 29.271 32.9479 29.5823 32.9479 29.9662H33.1574ZM32.2526 30.871C32.7523 30.871 33.1574 30.4659 33.1574 29.9662H32.9479C32.9479 30.3502 32.6366 30.6615 32.2526 30.6615V30.871ZM25.5632 30.871H32.2526V30.6615H25.5632V30.871ZM24.6584 29.9662C24.6584 30.4659 25.0635 30.871 25.5632 30.871V30.6615C25.1792 30.6615 24.868 30.3502 24.868 29.9662H24.6584Z" fill="url(#paint1_linear_7228_3182)" mask="url(#path-1-outside-1_7228_3182)"/>
<defs>
<linearGradient id="paint0_linear_7228_3182" x1="1" y1="22.3213" x2="42.9999" y2="22.3213" gradientUnits="userSpaceOnUse">
<stop stop-color="#FE5000"/>
<stop offset="0.102452" stop-color="#FE6008"/>
<stop offset="0.242162" stop-color="#FD6D0E"/>
<stop offset="1" stop-color="#FCA92A"/>
</linearGradient>
<linearGradient id="paint1_linear_7228_3182" x1="1" y1="22.3213" x2="42.9999" y2="22.3213" gradientUnits="userSpaceOnUse">
<stop stop-color="#FE5000"/>
<stop offset="0.102452" stop-color="#FE6008"/>
<stop offset="0.242162" stop-color="#FD6D0E"/>
<stop offset="1" stop-color="#FCA92A"/>
</linearGradient>
</defs>
</svg>
