<svg width="40" height="40" viewBox="0 0 40 40" fill="none" xmlns="http://www.w3.org/2000/svg">
<g clip-path="url(#clip0_7228_3321)">
<path d="M39.4141 8.8005H34.3125L32.125 4.05714C31.9922 3.76609 31.6328 3.63236 31.3438 3.76609L29.2031 4.7651L22.7188 0.100402C22.4609 -0.0883885 22.0859 -0.0254583 21.8984 0.241995L15.8359 8.8005H0.585938C0.257813 8.8005 0 9.06796 0 9.39048V30.6058C0 30.9283 0.265625 31.1958 0.585938 31.1958H5.6875L7.875 35.9392C8.00782 36.2302 8.35938 36.3639 8.65625 36.2302L10.7969 35.2312L17.2813 39.8959C17.5391 40.0847 17.9141 40.0218 18.1016 39.7543L24.1641 31.1958H39.4063C39.7344 31.1958 39.9922 30.9283 39.9922 30.6058V9.39048C40 9.06796 39.7344 8.8005 39.4141 8.8005ZM31.3047 5.08762L33.0156 8.8005H23.3516L31.3047 5.08762ZM22.5156 1.41407L27.9844 5.33934L20.5703 8.8005H17.2813L22.5156 1.41407ZM13.75 25.8782V29.9451C13.75 29.9687 13.75 29.9923 13.7578 30.0159H10.2344C10.2344 29.9923 10.2422 29.9687 10.2422 29.9451V25.8782V24.7769V9.98045H13.7578V24.7769V25.8782H13.75ZM1.17188 30.0159V9.98045H9.14063V24.7769H5.625C5.32031 24.7769 5.07813 25.0208 5.07813 25.3276C5.07813 25.6343 5.32031 25.8782 5.625 25.8782H9.14063V29.9451C9.14063 29.9687 9.14063 29.9923 9.14844 30.0159H1.17188ZM8.69532 34.9087L6.98438 31.1958H16.6484L8.69532 34.9087ZM17.4844 38.5901L12.0156 34.6648L19.4297 31.2037H22.7188L17.4844 38.5901ZM38.8281 30.0159H14.8438C14.8438 29.9923 14.8516 29.9687 14.8516 29.9451V25.8782H24.8516C25.1563 25.8782 25.3984 25.6343 25.3984 25.3276C25.3984 25.0208 25.1563 24.7769 24.8516 24.7769H14.8438V9.98045H16.1328H33.9297H38.8281V30.0159ZM28.8359 16.95H29.8594V13.3787H32.7969C34.4688 13.3787 35.4063 14.2282 35.4063 15.6914C35.4063 17.1624 34.4688 18.0355 32.7969 18.0355H31.1094V18.7592H33.3594V19.4436H31.1094V20.9696H29.8594V19.4436H28.8359V18.7592H29.8594V18.0355H28.8359V16.95ZM32.6172 16.95C33.7344 16.95 34.1563 16.4701 34.1563 15.6914C34.1563 14.9126 33.7344 14.4564 32.6172 14.4564H31.1094V16.95H32.6172Z" fill="url(#paint0_linear_7228_3321)"/>
</g>
<defs>
<linearGradient id="paint0_linear_7228_3321" x1="8.24843" y1="40.0047" x2="43.3274" y2="29.0319" gradientUnits="userSpaceOnUse">
<stop stop-color="#FE5000"/>
<stop offset="1" stop-color="#FCA92A"/>
</linearGradient>
<clipPath id="clip0_7228_3321">
<rect width="40" height="40" fill="white"/>
</clipPath>
</defs>
</svg>
