<svg width="44" height="44" viewBox="0 0 44 44" fill="none" xmlns="http://www.w3.org/2000/svg">
<path fill-rule="evenodd" clip-rule="evenodd" d="M21.7191 2.5774L25.6604 13.916C26.0914 15.1559 27.2485 15.9966 28.5609 16.0233L40.5625 16.2679L30.9968 23.5201C29.9507 24.3132 29.5087 25.6735 29.8889 26.9299L33.365 38.4196L23.5117 31.5632C22.4342 30.8134 21.004 30.8134 19.9265 31.5632L10.0733 38.4196L13.5493 26.9299C13.9295 25.6735 13.4875 24.3132 12.4414 23.5201L2.87572 16.2679L14.8773 16.0233C16.1897 15.9966 17.3468 15.1559 17.7778 13.916L21.7191 2.5774ZM20.2369 2.06218C20.7254 0.656846 22.7128 0.656846 23.2013 2.06218L27.1426 13.4008C27.3581 14.0207 27.9367 14.4411 28.5929 14.4544L40.5945 14.699C42.082 14.7293 42.6961 16.6195 41.5105 17.5184L31.9448 24.7706C31.4218 25.1671 31.2008 25.8473 31.3909 26.4755L34.8669 37.9652C35.2978 39.3893 33.6899 40.5575 32.4686 39.7077L22.6154 32.8512C22.0767 32.4763 21.3615 32.4763 20.8228 32.8512L10.9696 39.7077C9.74833 40.5575 8.14043 39.3893 8.57126 37.9652L12.0473 26.4755C12.2374 25.8473 12.0164 25.1671 11.4934 24.7706L1.92768 17.5184C0.742085 16.6195 1.35625 14.7293 2.84375 14.699L14.8453 14.4544C15.5015 14.4411 16.0801 14.0207 16.2956 13.4008L20.2369 2.06218ZM10.4878 5.79079C9.89968 6.13034 9.69817 6.88237 10.0377 7.47049L10.6525 8.53537C10.9921 9.1235 11.7441 9.325 12.3322 8.98545C12.9204 8.6459 13.1219 7.89387 12.7823 7.30575L12.1675 6.24086C11.8279 5.65274 11.0759 5.45124 10.4878 5.79079ZM4.65369 29.596C4.17349 30.0762 3.39494 30.0762 2.91474 29.596C2.43454 29.1158 2.43454 28.3373 2.91474 27.8571L3.78421 26.9876C4.26441 26.5074 5.04297 26.5074 5.52317 26.9876C6.00337 27.4678 6.00337 28.2463 5.52317 28.7265L4.65369 29.596ZM21.7191 43.2942C22.3982 43.2942 22.9487 42.7436 22.9487 42.0645V40.8349C22.9487 40.1558 22.3982 39.6053 21.7191 39.6053C21.04 39.6053 20.4895 40.1558 20.4895 40.8349V42.0645C20.4895 42.7436 21.04 43.2942 21.7191 43.2942ZM33.6858 7.47049C34.0254 6.88237 33.8239 6.13034 33.2358 5.79079C32.6476 5.45124 31.8956 5.65274 31.5561 6.24086L30.9412 7.30575C30.6017 7.89387 30.8032 8.6459 31.3913 8.98545C31.9794 9.325 32.7315 9.1235 33.071 8.53537L33.6858 7.47049ZM39.083 26.9876L39.9525 27.8571C40.4327 28.3373 40.4327 29.1158 39.9525 29.596C39.4723 30.0762 38.6937 30.0762 38.2135 29.596L37.344 28.7265C36.8638 28.2463 36.8638 27.4678 37.344 26.9876C37.8242 26.5074 38.6028 26.5074 39.083 26.9876Z" fill="url(#paint0_linear_7228_3201)"/>
<defs>
<linearGradient id="paint0_linear_7228_3201" x1="9.72506" y1="43.2941" x2="45.7535" y2="32.4065" gradientUnits="userSpaceOnUse">
<stop stop-color="#FE5000"/>
<stop offset="1" stop-color="#FCA92A"/>
</linearGradient>
</defs>
</svg>
