<svg width="44" height="44" viewBox="0 0 44 44" fill="none" xmlns="http://www.w3.org/2000/svg">
<path fill-rule="evenodd" clip-rule="evenodd" d="M19.0336 5.44151C19.0336 3.74538 20.4086 2.37039 22.1048 2.37039C23.8009 2.37039 25.1759 3.74538 25.1759 5.44151C25.1759 7.13765 23.8009 8.51264 22.1048 8.51264C20.4086 8.51264 19.0336 7.13765 19.0336 5.44151ZM22.1048 0.770386C19.525 0.770386 17.4336 2.86172 17.4336 5.44151C17.4336 7.74853 19.1061 9.66493 21.3047 10.0444V20.2171H16.3536V12.6076C16.3536 11.8765 15.7609 11.2838 15.0298 11.2838H11.5624C11.3119 8.94019 9.32806 7.11492 6.91795 7.11492C4.33816 7.11492 2.24683 9.20626 2.24683 11.7861C2.24683 14.3658 4.33816 16.4572 6.91795 16.4572C9.11966 16.4572 10.9656 14.9339 11.4594 12.8838H14.7536V20.2171H8.1199C6.5209 20.2171 5.22466 21.5134 5.22466 23.1124V36.1931C5.22466 37.7921 6.52091 39.0883 8.1199 39.0883H21.3047V41.6573H17.3402C16.8984 41.6573 16.5402 42.0154 16.5402 42.4573C16.5402 42.8991 16.8984 43.2573 17.3402 43.2573H22.1047H26.8692C27.311 43.2573 27.6692 42.8991 27.6692 42.4573C27.6692 42.0154 27.311 41.6573 26.8692 41.6573H22.9047V39.0883H35.494C37.093 39.0883 38.3892 37.7921 38.3892 36.1931V23.1124C38.3892 21.5134 37.093 20.2171 35.494 20.2171H29.4559V12.8838H32.7501C33.2439 14.9339 35.0898 16.4572 37.2915 16.4572C39.8713 16.4572 41.9626 14.3658 41.9626 11.7861C41.9626 9.20626 39.8713 7.11492 37.2915 7.11492C34.8814 7.11492 32.8976 8.94019 32.6471 11.2838H29.1797C28.4485 11.2838 27.8559 11.8765 27.8559 12.6076V20.2171H22.9047V10.0444C25.1034 9.66498 26.7759 7.74856 26.7759 5.44151C26.7759 2.86172 24.6845 0.770386 22.1048 0.770386ZM3.84683 11.7861C3.84683 10.0899 5.22182 8.71492 6.91795 8.71492C8.61409 8.71492 9.98908 10.0899 9.98908 11.7861C9.98908 13.4822 8.61409 14.8572 6.91795 14.8572C5.22182 14.8572 3.84683 13.4822 3.84683 11.7861ZM22.1047 21.8172L22.0989 21.8171H15.5594L15.5536 21.8172L15.5477 21.8171H8.1199C7.40456 21.8171 6.82466 22.397 6.82466 23.1124V36.1931C6.82466 36.9084 7.40456 37.4883 8.1199 37.4883H35.494C36.2093 37.4883 36.7892 36.9084 36.7892 36.1931V23.1124C36.7892 22.397 36.2093 21.8171 35.494 21.8171H28.6617L28.6559 21.8172L28.65 21.8171H22.1106L22.1047 21.8172ZM28.6639 25.5852C28.6639 25.1434 28.3058 24.7852 27.8639 24.7852H25.1937C24.7519 24.7852 24.3937 25.1434 24.3937 25.5852C24.3937 26.0271 24.7519 26.3852 25.1937 26.3852H25.9326L22.4123 29.9055L20.1965 27.6897C19.8841 27.3773 19.3776 27.3773 19.0652 27.6897L14.3923 32.3626C14.0799 32.675 14.0799 33.1815 14.3923 33.494C14.7047 33.8064 15.2113 33.8064 15.5237 33.494L19.6308 29.3868L21.8466 31.6026C22.159 31.915 22.6656 31.915 22.978 31.6026L27.0639 27.5166V28.2554C27.0639 28.6973 27.4221 29.0554 27.8639 29.0554C28.3058 29.0554 28.6639 28.6973 28.6639 28.2554L28.6639 25.5852ZM37.2915 8.71492C35.5954 8.71492 34.2204 10.0899 34.2204 11.7861C34.2204 13.4822 35.5954 14.8572 37.2915 14.8572C38.9876 14.8572 40.3626 13.4822 40.3626 11.7861C40.3626 10.0899 38.9876 8.71492 37.2915 8.71492Z" fill="url(#paint0_linear_7228_3331)"/>
<defs>
<linearGradient id="paint0_linear_7228_3331" x1="2.24683" y1="22.0138" x2="41.9626" y2="22.0138" gradientUnits="userSpaceOnUse">
<stop stop-color="#FE5000"/>
<stop offset="0.102452" stop-color="#FE6008"/>
<stop offset="0.242162" stop-color="#FD6D0E"/>
<stop offset="1" stop-color="#FCA92A"/>
</linearGradient>
</defs>
</svg>
