<svg width="44" height="44" viewBox="0 0 44 44" fill="none" xmlns="http://www.w3.org/2000/svg">
<g clip-path="url(#clip0_7228_3171)">
<path fill-rule="evenodd" clip-rule="evenodd" d="M15.3104 6.8409V6.73777H23.3117V6.8409H24.9117V6.73777H32.6086C34.4811 6.73777 35.999 8.25574 35.999 10.1282V22.4138C35.0457 22.1442 34.0397 22 33 22C30.2467 22 27.7297 23.0115 25.8003 24.6832H6.01342C4.14092 24.6832 2.62295 23.1653 2.62295 21.2928V10.1282C2.62295 8.25574 4.14092 6.73777 6.01343 6.73777H13.7104V6.8409H15.3104ZM37.599 10.1282V23.0046C41.3774 24.746 44 28.5667 44 33C44 39.0751 39.0751 44 33 44C28.5667 44 24.746 41.3774 23.0046 37.599H9.09955C6.34338 37.599 4.10907 35.3647 4.10907 32.6085V25.907C2.29763 25.1586 1.02295 23.3745 1.02295 21.2928V10.1282C1.02295 7.37208 3.25726 5.13777 6.01343 5.13777H13.7104V4.85913C13.7104 2.10297 15.9447 -0.131348 18.7009 -0.131348H19.9212C22.6774 -0.131348 24.9117 2.10296 24.9117 4.85913V5.13777H32.6086C35.3647 5.13777 37.599 7.37208 37.599 10.1282ZM24.1457 36.4497C24.1629 36.485 24.1775 36.5217 24.1894 36.5597C25.598 40.0427 29.012 42.5 33 42.5C38.2467 42.5 42.5 38.2467 42.5 33C42.5 27.7533 38.2467 23.5 33 23.5C30.5718 23.5 28.3563 24.411 26.6768 25.9099C26.6319 25.9809 26.5762 26.0444 26.512 26.098V26.2832H26.2817C24.563 28.0023 23.5 30.377 23.5 33C23.5 34.2169 23.7288 35.3803 24.1457 36.4497ZM22 33C22 30.471 22.8535 28.1413 24.2881 26.2832H6.01342H5.70907V32.6085C5.70907 34.4811 7.22704 35.999 9.09955 35.999H22.4138C22.1442 35.0457 22 34.0397 22 33ZM23.3117 5.13777H15.3104V4.85913C15.3104 2.98662 16.8284 1.46865 18.7009 1.46865H19.9212C21.7937 1.46865 23.3117 2.98662 23.3117 4.85913V5.13777ZM16.9107 18.4996C16.3425 18.4996 15.882 18.9602 15.882 19.5284C15.882 20.0965 16.3425 20.5571 16.9107 20.5571H21.7113C22.2794 20.5571 22.74 20.0965 22.74 19.5284C22.74 18.9602 22.2794 18.4996 21.7113 18.4996H16.9107ZM38.5275 30.485C38.7953 30.1936 38.7763 29.7403 38.485 29.4725C38.1936 29.2047 37.7403 29.2237 37.4725 29.515L32.4358 34.9935L29.4789 32.3366C29.1846 32.0721 28.7315 32.0963 28.467 32.3907C28.2025 32.685 28.2267 33.1381 28.5211 33.4025L32.005 36.533C32.2969 36.7953 32.7457 36.7739 33.0114 36.485L38.5275 30.485Z" fill="url(#paint0_linear_7228_3171)"/>
</g>
<defs>
<linearGradient id="paint0_linear_7228_3171" x1="1.02295" y1="21.9343" x2="44" y2="21.9343" gradientUnits="userSpaceOnUse">
<stop stop-color="#FE5000"/>
<stop offset="0.102452" stop-color="#FE6008"/>
<stop offset="0.242162" stop-color="#FD6D0E"/>
<stop offset="1" stop-color="#FCA92A"/>
</linearGradient>
<clipPath id="clip0_7228_3171">
<rect width="44" height="44" fill="white"/>
</clipPath>
</defs>
</svg>
