<svg width="100" height="100" viewBox="0 0 100 100" fill="none" xmlns="http://www.w3.org/2000/svg">
<circle cx="50" cy="50" r="49.5" stroke="url(#paint0_linear_3622_895)"/>
<path fill-rule="evenodd" clip-rule="evenodd" d="M29.1064 62.8617C28.8507 62.9388 28.574 62.8984 28.351 62.7513L21.8313 58.4509C21.4164 58.1772 21.3019 57.619 21.5756 57.2041C21.8493 56.7891 22.4075 56.6746 22.8224 56.9483L27.2735 59.8843C26.0855 56.9784 25.431 53.7984 25.431 50.4674C25.431 36.7155 36.5791 25.5674 50.331 25.5674C54.8648 25.5674 59.1182 26.78 62.7816 28.8991C63.2119 29.148 63.3589 29.6986 63.11 30.1288C62.8611 30.5591 62.3106 30.7061 61.8803 30.4572C58.4835 28.4923 54.54 27.3674 50.331 27.3674C37.5732 27.3674 27.231 37.7096 27.231 50.4674C27.231 53.6139 27.8596 56.6116 28.9975 59.3433L31.0725 54.4598C31.2668 54.0023 31.7953 53.789 32.2527 53.9834C32.7102 54.1778 32.9235 54.7062 32.7291 55.1637L29.6749 62.352C29.5704 62.5978 29.3622 62.7846 29.1064 62.8617ZM36.6525 54.2263C37.8608 58.033 40.6341 61.1431 44.2754 62.7758C47.9171 64.4081 52.0814 64.4081 55.7228 62.7758C59.364 61.1431 62.1373 58.0331 63.3456 54.2263C64.2169 51.4765 64.2169 48.5238 63.3456 45.7741C62.1373 41.9674 59.364 38.8572 55.7228 37.2246C52.0811 35.5919 47.9168 35.5919 44.2754 37.2246C40.6341 38.8572 37.8608 41.9673 36.6525 45.7741C35.7813 48.5238 35.7813 51.4765 36.6525 54.2263ZM49.9991 38.0045C51.2817 38.0045 52.9544 40.6295 53.685 45.14L46.3133 45.1404C47.0439 40.6299 48.7165 38.0045 49.9992 38.0045L49.9991 38.0045ZM53.9365 47.1718C54.0177 48.0578 54.0583 49.0005 54.0583 49.992C54.0583 50.9836 54.0097 51.9262 53.9365 52.8122H46.0617C45.9885 51.9265 45.94 50.9835 45.94 49.984C45.94 48.9845 45.9885 48.0499 46.0617 47.1639L53.9365 47.1718ZM61.9737 49.984C61.9701 50.9346 61.8526 51.8812 61.6247 52.8042H55.9418C56.023 51.8696 56.0636 50.927 56.0636 49.984C56.0636 49.0415 56.015 48.0984 55.9418 47.1639H61.6247C61.8526 48.0869 61.9701 49.0335 61.9737 49.984ZM49.9993 61.9797C48.7167 61.9796 47.0441 59.3546 46.3135 54.8442H53.6848C52.9545 59.3547 51.282 61.9797 49.9993 61.9797ZM44.0324 52.8124H38.3496C37.8846 50.9612 37.8846 49.0234 38.3496 47.1723H44.0324C43.9513 48.1069 43.9107 49.0579 43.9107 49.9925C43.9107 50.9268 43.9592 51.8777 44.0324 52.8123V52.8124ZM39.0559 54.8605H44.3165C44.6032 57.159 45.3107 59.3853 46.403 61.4272C43.13 60.388 40.4567 57.9985 39.0559 54.8605H39.0559ZM60.9022 54.8605C59.5231 57.9594 56.9023 60.3315 53.6859 61.3946C54.7432 59.3565 55.4197 57.1421 55.6822 54.8605H60.9022ZM60.9755 45.1728H55.6822C55.4082 42.8769 54.7145 40.651 53.6363 38.6062C56.8811 39.6406 59.5362 42.0032 60.9428 45.1079L60.9755 45.1728ZM46.3624 38.6062C45.2918 40.6311 44.5985 42.8342 44.3165 45.1079H39.0559C40.4625 42.0032 43.1176 39.6406 46.3624 38.6062ZM71.9792 37.7161C71.7563 37.569 71.4795 37.5285 71.2238 37.6057C70.968 37.6828 70.7598 37.8696 70.6553 38.1154L67.6011 45.3037C67.4067 45.7611 67.62 46.2896 68.0775 46.484C68.5349 46.6783 69.0634 46.4651 69.2578 46.0076L71.3327 41.124C72.4707 43.8558 73.0993 46.8535 73.0993 50C73.0993 62.7578 62.757 73.1 49.9993 73.1C45.7902 73.1 41.8467 71.9751 38.4499 70.0102C38.0197 69.7613 37.4691 69.9083 37.2202 70.3386C36.9713 70.7688 37.1184 71.3194 37.5486 71.5683C41.212 73.6874 45.4654 74.9 49.9993 74.9C63.7511 74.9 74.8993 63.7519 74.8993 50C74.8993 46.669 74.2447 43.489 73.0567 40.5831L77.5078 43.5191C77.9227 43.7927 78.481 43.6782 78.7546 43.2633C79.0283 42.8484 78.9138 42.2902 78.4989 42.0165L71.9792 37.7161Z" fill="url(#paint1_linear_3622_895)"/>
<defs>
<linearGradient id="paint0_linear_3622_895" x1="20.625" y1="100" x2="108.331" y2="72.5509" gradientUnits="userSpaceOnUse">
<stop stop-color="#FE5000"/>
<stop offset="1" stop-color="#FCA92A"/>
</linearGradient>
<linearGradient id="paint1_linear_3622_895" x1="33.2813" y1="74.9" x2="82.1341" y2="57.0866" gradientUnits="userSpaceOnUse">
<stop stop-color="#FE5000"/>
<stop offset="1" stop-color="#FCA92A"/>
</linearGradient>
</defs>
</svg>
