<svg width="100" height="100" viewBox="0 0 100 100" fill="none" xmlns="http://www.w3.org/2000/svg">
<circle cx="50" cy="50" r="49.5" stroke="url(#paint0_linear_3622_888)"/>
<path d="M50.2478 28H37.4188C33.8816 28 31 30.881 31 34.4176V65.5824C31 69.1104 33.8816 71.9914 37.4188 71.9914H39.2478C39.7569 71.9914 40.1624 71.5773 40.1624 71.077C40.1624 70.5681 39.7482 70.1627 39.2478 70.1627H37.4188C34.891 70.1627 32.8376 68.1098 32.8376 65.5824V34.4176C32.8376 31.8902 34.891 29.8373 37.4188 29.8373H50.2478C52.7757 29.8373 54.829 31.8902 54.829 34.4176V43.5867C54.829 44.0957 55.2431 44.5011 55.7435 44.5011C56.2439 44.5011 56.658 44.087 56.658 43.5867V34.4176C56.6667 30.881 53.7851 28 50.2478 28ZM55.7522 35.3319H31.9145C31.4141 35.3319 31 35.7459 31 36.2462C31 36.7465 31.4141 37.1606 31.9145 37.1606H55.7435C56.2526 37.1606 56.658 36.7465 56.658 36.2462C56.658 35.7459 56.2526 35.3319 55.7522 35.3319ZM47.4957 60.9935H31.9145C31.4141 60.9935 31 61.4076 31 61.9079C31 62.4168 31.4141 62.8222 31.9145 62.8222H47.4957C48.0047 62.8222 48.4102 62.4082 48.4102 61.9079C48.4188 61.4076 48.0047 60.9935 47.4957 60.9935ZM46.5812 31.6659H41.0769C40.5678 31.6659 40.1624 32.08 40.1624 32.5803C40.1624 33.0806 40.5765 33.4946 41.0769 33.4946H46.5812C47.0902 33.4946 47.4957 33.0806 47.4957 32.5803C47.4957 32.08 47.0902 31.6659 46.5812 31.6659ZM50.291 31.6659H50.2737C49.7647 31.6659 49.3678 32.08 49.3678 32.5803C49.3678 33.0806 49.7906 33.4946 50.291 33.4946C50.7914 33.4946 51.2055 33.0806 51.2055 32.5803C51.2055 32.08 50.7914 31.6659 50.291 31.6659ZM72.3773 52.2556L65.4839 44.6822C64.1208 43.3194 61.8949 43.3193 60.5231 44.6908C60.0831 45.1308 59.7898 45.6483 59.6345 46.209C58.2627 45.1566 56.2871 45.2601 55.0188 46.5281C54.5875 46.968 54.2855 47.4856 54.1302 48.0463C52.7584 46.9939 50.7827 47.0974 49.5231 48.3654C49.0918 48.7967 48.7984 49.3056 48.6431 49.8404L45.3906 46.5885C44.0275 45.2256 41.8016 45.2256 40.4298 46.5971C39.0667 47.96 39.0667 50.1855 40.4298 51.5483L52.9137 64.0384L45.5114 65.2029C43.5098 65.4876 42 67.23 42 69.2484C42 70.7665 43.2337 72 44.7522 72H62.0416C64.7333 72 67.2698 70.9477 69.1678 69.05L72.0494 66.169C73.9561 64.2713 75 61.7353 75 59.0527C75 56.5254 74.0682 54.1188 72.3773 52.2556ZM70.7553 64.8579L67.8737 67.7389C66.3122 69.3001 64.2416 70.1541 62.0416 70.1541H44.7522C44.2431 70.1541 43.8376 69.7401 43.8376 69.2398C43.8376 68.127 44.6659 67.1696 45.7875 67.0057L54.9843 65.5652C55.3294 65.5134 55.6055 65.2719 55.7176 64.9441C55.8212 64.6164 55.7349 64.2541 55.4933 64.0125L41.7239 50.2545C41.0769 49.6075 41.0769 48.5466 41.7325 47.8824C42.0604 47.5546 42.4831 47.3907 42.9145 47.3907C43.3459 47.3907 43.7686 47.5546 44.0965 47.8824L53.2675 57.0516C53.6212 57.4052 54.2078 57.4052 54.5616 57.0516C54.7427 56.8704 54.829 56.6375 54.829 56.4046C54.829 56.1717 54.7427 55.9388 54.5616 55.7577L50.8173 52.0141C50.1702 51.3672 50.1702 50.3062 50.8259 49.642C51.4729 48.9951 52.5341 48.9951 53.1812 49.642L56.9255 53.3856C57.2792 53.7393 57.8659 53.7393 58.2196 53.3856C58.4008 53.2045 58.4871 52.9716 58.4871 52.7387C58.4871 52.5058 58.4008 52.2729 58.2282 52.1004L56.3129 50.1855C55.6659 49.5385 55.6659 48.4776 56.3216 47.8134C56.9686 47.1664 58.0298 47.1664 58.6769 47.8134L60.5922 49.7283C60.9545 50.0647 61.5153 50.0647 61.869 49.711C62.2227 49.3574 62.2227 48.7708 61.869 48.4172L61.7914 48.3395C61.4722 48.0204 61.2996 47.6064 61.2996 47.1578C61.2996 46.7093 61.4722 46.2952 61.8 45.9675C62.4471 45.3205 63.5082 45.3205 64.1294 45.933L70.9969 53.4719C72.3773 54.99 73.1365 56.9567 73.1365 59.0182C73.171 61.2351 72.3082 63.3052 70.7553 64.8579Z" fill="url(#paint1_linear_3622_888)"/>
<defs>
<linearGradient id="paint0_linear_3622_888" x1="20.625" y1="100" x2="108.331" y2="72.5509" gradientUnits="userSpaceOnUse">
<stop stop-color="#FE5000"/>
<stop offset="1" stop-color="#FCA92A"/>
</linearGradient>
<linearGradient id="paint1_linear_3622_888" x1="40.075" y1="72" x2="78.6657" y2="59.9224" gradientUnits="userSpaceOnUse">
<stop stop-color="#FE5000"/>
<stop offset="1" stop-color="#FCA92A"/>
</linearGradient>
</defs>
</svg>
