<svg width="100" height="100" viewBox="0 0 100 100" fill="none" xmlns="http://www.w3.org/2000/svg">
<circle cx="50" cy="50" r="49.5" stroke="url(#paint0_linear_3622_866)"/>
<path fill-rule="evenodd" clip-rule="evenodd" d="M35.7539 27.9116C35.2569 27.9116 34.8539 28.3146 34.8539 28.8116V53.2387H29.9498C29.5858 53.2387 29.2576 53.4579 29.1183 53.7942C28.979 54.1306 29.056 54.5177 29.3134 54.7751L49.364 74.8256C49.7155 75.1771 50.2853 75.1771 50.6368 74.8256L70.6874 54.7751C70.9448 54.5177 71.0218 54.1306 70.8825 53.7942C70.7432 53.4579 70.415 53.2387 70.051 53.2387H65.1469V28.8116C65.1469 28.3146 64.7439 27.9116 64.2469 27.9116H35.7539ZM36.6539 54.1387V29.7116H63.3469V54.1387C63.3469 54.6357 63.7498 55.0387 64.2469 55.0387H67.8782L50.0004 72.9164L32.1226 55.0387H35.7539C36.251 55.0387 36.6539 54.6357 36.6539 54.1387ZM41.5055 44.0451C41.5055 42.0376 43.1387 40.4044 45.1462 40.4044C47.1538 40.4044 48.787 42.0376 48.787 44.0451C48.787 46.0526 47.1538 47.6859 45.1462 47.6859C43.1387 47.6859 41.5055 46.0526 41.5055 44.0451ZM43.9327 44.0451C43.9327 44.7143 44.4771 45.2587 45.1462 45.2587C45.8154 45.2587 46.3598 44.7143 46.3598 44.0451C46.3598 43.3759 45.8154 42.8315 45.1462 42.8315C44.4771 42.8315 43.9327 43.3759 43.9327 44.0451ZM51.2129 53.7532C51.2129 51.7457 52.8462 50.1125 54.8537 50.1125C56.8612 50.1125 58.4944 51.7457 58.4944 53.7532C58.4944 55.7607 56.8612 57.394 54.8537 57.394C52.8462 57.394 51.2129 55.7607 51.2129 53.7532ZM53.6401 53.7532C53.6401 54.4224 54.1845 54.9668 54.8537 54.9668C55.5228 54.9668 56.0672 54.4224 56.0672 53.7532C56.0672 53.084 55.5228 52.5396 54.8537 52.5396C54.1845 52.5396 53.6401 53.084 53.6401 53.7532ZM55.5284 40.6083C54.9709 40.2366 54.2172 40.3872 53.8455 40.9449L44.1368 55.5079C43.7651 56.0655 43.9158 56.819 44.4735 57.1908C45.031 57.5625 45.7845 57.412 46.1564 56.8542L55.865 42.2912C56.2368 41.7336 56.0861 40.9802 55.5284 40.6083Z" fill="url(#paint1_linear_3622_866)"/>
<defs>
<linearGradient id="paint0_linear_3622_866" x1="20.625" y1="100" x2="108.331" y2="72.5509" gradientUnits="userSpaceOnUse">
<stop stop-color="#FE5000"/>
<stop offset="1" stop-color="#FCA92A"/>
</linearGradient>
<linearGradient id="paint1_linear_3622_866" x1="37.6919" y1="75.0892" x2="75.1474" y2="64.6779" gradientUnits="userSpaceOnUse">
<stop stop-color="#FE5000"/>
<stop offset="1" stop-color="#FCA92A"/>
</linearGradient>
</defs>
</svg>
