<svg width="44" height="44" viewBox="0 0 44 44" fill="none" xmlns="http://www.w3.org/2000/svg">
<path fill-rule="evenodd" clip-rule="evenodd" d="M28.4205 0.733579V13.3684L25.6914 10.98C25.5671 10.8713 25.3986 10.8102 25.2229 10.8102C25.0471 10.8102 24.8786 10.8713 24.7544 10.98C24.6301 11.0887 24.5603 11.2361 24.5603 11.3899C24.5603 11.5436 24.6301 11.691 24.7544 11.7997L28.7247 15.2731C28.7862 15.327 28.8592 15.3698 28.9396 15.399C29.02 15.4281 29.1062 15.4432 29.1932 15.4432C29.2803 15.4432 29.3665 15.4281 29.4469 15.399C29.5272 15.3698 29.6003 15.327 29.6617 15.2731L33.6321 11.7997C33.7564 11.691 33.8262 11.5436 33.8262 11.3899C33.8262 11.2361 33.7564 11.0887 33.6321 10.98C33.5079 10.8713 33.3393 10.8102 33.1636 10.8102C32.9879 10.8102 32.8194 10.8713 32.6951 10.98L29.9648 13.3694L29.9648 0.733579C29.9648 0.539029 29.8835 0.352449 29.7387 0.214881C29.5939 0.0773144 29.3975 3.05355e-05 29.1927 3.05176e-05C28.9879 3.04997e-05 28.7915 0.0773143 28.6467 0.214881C28.5019 0.352448 28.4205 0.539029 28.4205 0.733579ZM24.7715 17.7868V19.9508C29.5988 19.262 36.1433 20.227 36.1433 22.8498V34.2414C36.1433 36.2113 32.427 37.2889 28.5622 37.3952V39.3043C28.5622 41.3815 24.4304 42.4686 20.3492 42.4686C16.268 42.4686 12.1363 41.3815 12.1363 39.3043V35.5071C12.1363 34.6433 12.8527 33.9618 13.9776 33.4573C10.9022 33.0954 8.3457 32.0773 8.3457 30.4441V17.7868C8.3457 13.6324 24.7715 13.6324 24.7715 17.7868ZM23.508 17.8298C23.508 17.1863 21.055 15.9345 16.5586 15.9345C12.0622 15.9345 9.60921 17.1863 9.60927 17.8298C9.60927 18.4733 12.0623 19.7251 16.5586 19.7251C21.055 19.7251 23.508 18.4733 23.508 17.8298ZM16.5586 20.9887C13.8576 20.9887 11.1422 20.5105 9.60921 19.5879L9.60927 21.6204C9.60927 22.2639 12.0622 23.5157 16.5586 23.5157C17.6586 23.5157 18.7273 23.4166 19.7174 23.2577V22.8839C19.7174 21.5918 21.3125 20.7026 23.508 20.2157V19.5879C21.975 20.5105 19.2595 20.9887 16.5586 20.9887ZM21.3605 32.4325C21.2263 32.3657 21.1012 32.2954 20.9809 32.2231V32.4188C21.1079 32.4221 21.2341 32.4273 21.3605 32.4325ZM16.5586 24.7792C13.8576 24.7792 11.1422 24.3011 9.60921 23.3784V26.0427C9.60921 26.6863 12.0622 27.938 16.5586 27.938C17.6585 27.938 18.7273 27.8389 19.7174 27.6801V24.5313C18.7151 24.681 17.6522 24.7792 16.5586 24.7792ZM9.60921 27.8008V30.4651C9.60921 31.1086 12.0622 32.3604 16.5586 32.3604C17.6585 32.3604 18.7273 32.2613 19.7174 32.1025V28.9537C18.7151 29.1034 17.6522 29.2016 16.5586 29.2016C13.8576 29.2016 11.1422 28.7235 9.60921 27.8008ZM20.3492 41.2051C24.8456 41.2051 27.2986 39.9533 27.2986 39.3098L27.2985 37.3994C27.2695 37.3985 27.2402 37.398 27.2109 37.3974C27.1735 37.3967 27.1362 37.396 27.0994 37.3946C25.5367 38.241 22.9346 38.678 20.3492 38.678C17.6482 38.678 14.9328 38.1999 13.3998 37.2772V39.3098C13.3998 39.9533 15.8529 41.2051 20.3492 41.2051ZM13.3998 35.5192C13.3998 36.1627 15.8528 37.4145 20.3492 37.4145C24.8456 37.4145 27.2986 36.1627 27.2986 35.5192C27.2986 34.8757 24.8456 33.6239 20.3492 33.6239C15.8529 33.6239 13.3998 34.8757 13.3998 35.5192ZM28.5621 36.1291C32.6412 36.0152 34.8797 34.8672 34.8797 34.2557L34.8797 32.2231C33.3468 33.1458 30.6313 33.6239 27.9303 33.6239C27.6201 33.6239 27.3102 33.6155 27.0013 33.603C27.9648 34.0919 28.5621 34.7299 28.5621 35.5192V36.1291ZM27.9304 32.3604C32.4267 32.3604 34.8797 31.1086 34.8797 30.4651V28.4325C33.3468 29.3552 30.6313 29.8333 27.9304 29.8333C25.2294 29.8333 22.5139 29.3552 20.981 28.4325V30.4651C20.981 31.1086 23.434 32.3604 27.9304 32.3604ZM27.9304 28.5698C32.4267 28.5698 34.8797 27.318 34.8797 26.6745V24.6419C33.3468 25.5646 30.6313 26.0427 27.9304 26.0427C25.2294 26.0427 22.5139 25.5646 20.981 24.6419V26.6745C20.981 27.318 23.434 28.5698 27.9304 28.5698ZM20.981 22.8839C20.981 23.5275 23.434 24.7792 27.9304 24.7792C32.4267 24.7792 34.8797 23.5275 34.8797 22.8839C34.8797 22.2404 32.4267 20.9887 27.9304 20.9887C23.434 20.9887 20.981 22.2404 20.981 22.8839Z" fill="url(#paint0_linear_3040_2077)"/>
<defs>
<linearGradient id="paint0_linear_3040_2077" x1="14.079" y1="42.4686" x2="39.7691" y2="37.2059" gradientUnits="userSpaceOnUse">
<stop stop-color="#FE5000"/>
<stop offset="1" stop-color="#FCA92A"/>
</linearGradient>
</defs>
</svg>
