<svg width="100" height="100" viewBox="0 0 100 100" fill="none" xmlns="http://www.w3.org/2000/svg">
<circle cx="50" cy="50" r="49.5" stroke="url(#paint0_linear)"/>
<path d="M53.8149 76H45.8822C45.6192 76 45.367 76.1054 45.1811 76.2929C44.9951 76.4804 44.8906 76.7348 44.8906 77C44.8906 77.2652 44.9951 77.5196 45.1811 77.7071C45.367 77.8946 45.6192 78 45.8822 78H53.8149C54.0779 78 54.3301 77.8946 54.516 77.7071C54.702 77.5196 54.8065 77.2652 54.8065 77C54.8065 76.7348 54.702 76.4804 54.516 76.2929C54.3301 76.1054 54.0779 76 53.8149 76Z" fill="url(#paint1_linear)"/>
<path fill-rule="evenodd" clip-rule="evenodd" d="M67.697 38V22.5C67.696 21.5721 67.33 20.6824 66.6794 20.0263C66.0287 19.3701 65.1466 19.001 64.2264 19H35.4705C34.5504 19.001 33.6683 19.3701 33.0176 20.0263C32.367 20.6824 32.001 21.5721 32 22.5V77.5C32.001 78.4279 32.367 79.3176 33.0176 79.9737C33.6683 80.6299 34.5504 80.999 35.4705 81H64.2264C65.1466 80.999 66.0287 80.6299 66.6794 79.9737C67.33 79.3176 67.696 78.4279 67.697 77.5V63V38ZM54.0317 23L54.5275 21H45.1695L45.6652 23H54.0317ZM65.2778 78.5603C65.5567 78.2791 65.7135 77.8977 65.7138 77.5V22.5C65.7135 22.1023 65.5567 21.7209 65.2778 21.4397C64.9989 21.1585 64.6208 21.0003 64.2264 21H56.5727L55.7682 24.2425C55.7146 24.4588 55.5908 24.6509 55.4166 24.7881C55.2423 24.9254 55.0275 25 54.8064 25H44.8906C44.6695 25 44.4547 24.9254 44.2804 24.7881C44.1061 24.6509 43.9824 24.4588 43.9287 24.2425L43.1243 21H35.4705C35.0762 21.0003 34.698 21.1585 34.4192 21.4397C34.1403 21.7209 33.9835 22.1023 33.9832 22.5V77.5C33.9835 77.8977 34.1403 78.2791 34.4192 78.5603C34.698 78.8415 35.0762 78.9997 35.4705 79H64.2264C64.6208 78.9997 64.9989 78.8415 65.2778 78.5603Z" fill="url(#paint2_linear)"/>
<path d="M49.8484 38C47.4951 38 45.1945 38.7038 43.2377 40.0224C41.281 41.3409 39.7558 43.2151 38.8552 45.4078C37.9546 47.6005 37.719 50.0133 38.1781 52.3411C38.6372 54.6688 39.7705 56.807 41.4346 58.4853C43.0987 60.1635 45.2189 61.3064 47.5271 61.7694C49.8352 62.2324 52.2277 61.9948 54.402 61.0865C56.5762 60.1783 58.4346 58.6402 59.7421 56.6668C61.0496 54.6934 61.7474 52.3734 61.7474 50C61.7439 46.8185 60.4891 43.7683 58.2584 41.5187C56.0277 39.269 53.0032 38.0036 49.8484 38ZM49.8484 60C47.8873 60 45.9702 59.4135 44.3395 58.3147C42.7089 57.2159 41.4379 55.6541 40.6874 53.8268C39.9369 51.9996 39.7406 49.9889 40.1232 48.0491C40.5058 46.1093 41.4502 44.3275 42.8369 42.9289C44.2237 41.5304 45.9905 40.578 47.914 40.1921C49.8374 39.8063 51.8312 40.0043 53.6431 40.7612C55.4549 41.5181 57.0036 42.7998 58.0931 44.4443C59.1827 46.0888 59.7643 48.0222 59.7643 50C59.7613 52.6512 58.7156 55.193 56.8567 57.0677C54.9978 58.9424 52.4774 59.997 49.8484 60Z" fill="url(#paint3_linear)"/>
<path d="M55.0967 46.2929L48.7638 52.6796L45.4855 50.2C45.2751 50.0409 45.0106 49.9726 44.7503 50.0101C44.4899 50.0476 44.255 50.1878 44.0972 50.4C43.9395 50.6122 43.8717 50.8789 43.9089 51.1414C43.9461 51.404 44.0852 51.6409 44.2956 51.8L48.2619 54.8C48.4528 54.9444 48.689 55.0146 48.9271 54.9975C49.1652 54.9804 49.3892 54.8773 49.558 54.7071L56.4991 47.7071C56.6851 47.5196 56.7895 47.2652 56.7895 47C56.7895 46.7348 56.6851 46.4804 56.4991 46.2929C56.3131 46.1054 56.0609 46 55.7979 46C55.5349 46 55.2827 46.1054 55.0967 46.2929Z" fill="url(#paint4_linear)"/>
<defs>
<linearGradient id="paint0_linear" x1="0" y1="100" x2="100" y2="0" gradientUnits="userSpaceOnUse">
<stop stop-color="#FE5000"/>
<stop offset="1" stop-color="#FE9800"/>
</linearGradient>
<linearGradient id="paint1_linear" x1="46.9358" y1="78" x2="49.7379" y2="73.6521" gradientUnits="userSpaceOnUse">
<stop stop-color="#FE5000"/>
<stop offset="1" stop-color="#FCA92A"/>
</linearGradient>
<linearGradient id="paint2_linear" x1="39.3625" y1="81" x2="72.6565" y2="75.0007" gradientUnits="userSpaceOnUse">
<stop stop-color="#FE5000"/>
<stop offset="1" stop-color="#FCA92A"/>
</linearGradient>
<linearGradient id="paint3_linear" x1="42.8578" y1="62" x2="63.7613" y2="55.513" gradientUnits="userSpaceOnUse">
<stop stop-color="#FE5000"/>
<stop offset="1" stop-color="#FCA92A"/>
</linearGradient>
<linearGradient id="paint4_linear" x1="46.5576" y1="55" x2="56.8939" y2="50.3667" gradientUnits="userSpaceOnUse">
<stop stop-color="#FE5000"/>
<stop offset="1" stop-color="#FCA92A"/>
</linearGradient>
</defs>
</svg>
