<svg width="100" height="100" viewBox="0 0 100 100" fill="none" xmlns="http://www.w3.org/2000/svg">
<circle cx="50" cy="50" r="49.5" stroke="url(#paint0_linear)"/>
<g clip-path="url(#clip0)">
<path d="M36.1875 45.1465C35.2891 44.248 33.8438 44.248 32.9453 45.1465C32.0469 46.0449 32.0469 47.4902 32.9453 48.3887C33.1992 48.6426 33.6191 49.1895 33.6191 50C33.6191 50.8203 33.1992 51.3574 32.9453 51.6113C32.0469 52.5098 32.0469 53.9551 32.9453 54.8535C33.8438 55.752 35.2891 55.752 36.1875 54.8535C36.9395 54.1016 38.209 52.4707 38.209 50C38.209 47.5293 36.9395 45.8984 36.1875 45.1465ZM52.3984 28.916C58.0332 34.5508 61.1387 42.041 61.1387 50C61.1387 57.959 58.0332 65.4492 52.3984 71.084C51.5 71.9824 51.5 73.4277 52.3984 74.3262C53.2969 75.2246 54.7422 75.2246 55.6406 74.3262C62.1445 67.8223 65.7285 59.1895 65.7285 50C65.7285 40.8105 62.1445 32.168 55.6406 25.6738C54.7422 24.7754 53.2969 24.7754 52.3984 25.6738C51.5 26.5723 51.5 28.0176 52.3984 28.916ZM45.9141 67.832C46.8125 68.7305 48.2578 68.7305 49.1563 67.832C53.9316 63.0664 56.5586 56.7285 56.5586 49.9902C56.5586 43.252 53.9316 36.9141 49.1563 32.1484C48.2578 31.25 46.8125 31.25 45.9141 32.1484C45.0156 33.0469 45.0156 34.4922 45.9141 35.3906C49.8203 39.2871 51.9688 44.4727 51.9688 49.9805C51.9688 55.4883 49.8203 60.6738 45.9141 64.5703C45.0156 65.4883 45.0156 66.9434 45.9141 67.832ZM39.4297 61.3477C40.3281 62.2461 41.7734 62.2461 42.6719 61.3477C45.709 58.3105 47.3789 54.2871 47.3789 50C47.3789 45.7129 45.709 41.6895 42.6719 38.6523C41.7734 37.7539 40.3281 37.7539 39.4297 38.6523C38.5313 39.5508 38.5313 40.9961 39.4297 41.8945C41.5977 44.0625 42.7891 46.9434 42.7891 50C42.7891 53.0566 41.5977 55.9375 39.4297 58.1055C38.5313 59.0039 38.5313 60.4492 39.4297 61.3477Z" fill="url(#paint1_linear)"/>
</g>
<defs>
<linearGradient id="paint0_linear" x1="0" y1="100" x2="100" y2="0" gradientUnits="userSpaceOnUse">
<stop stop-color="#FE5000"/>
<stop offset="1" stop-color="#FE9800"/>
</linearGradient>
<linearGradient id="paint1_linear" x1="39.172" y1="75" x2="70.0364" y2="68.5364" gradientUnits="userSpaceOnUse">
<stop stop-color="#FE5000"/>
<stop offset="1" stop-color="#FCA92A"/>
</linearGradient>
<clipPath id="clip0">
<rect width="50" height="50" fill="white" transform="translate(24 25)"/>
</clipPath>
</defs>
</svg>
