<svg width="100" height="100" viewBox="0 0 100 100" fill="none" xmlns="http://www.w3.org/2000/svg">
<circle cx="50" cy="50" r="49.5" stroke="url(#paint0_linear)"/>
<g clip-path="url(#clip0)">
<path d="M79.845 37.6262C79.4832 36.9027 78.6035 36.6093 77.8798 36.9711L72.0204 39.9008C71.2968 40.2626 71.0035 41.1425 71.3653 41.8661C71.727 42.5897 72.6068 42.883 73.3305 42.5212L79.1899 39.5915C79.9135 39.2297 80.2068 38.3498 79.845 37.6262Z" fill="url(#paint1_linear)"/>
<path d="M79.1899 54.5491L73.3305 51.6194C72.6073 51.2578 71.7272 51.5508 71.3653 52.2745C71.0035 52.9981 71.2968 53.878 72.0204 54.2398L77.8798 57.1695C78.6034 57.5313 79.4833 57.2379 79.845 56.5144C80.2068 55.7908 79.9135 54.9109 79.1899 54.5491Z" fill="url(#paint2_linear)"/>
<path d="M63.7889 48.536H41.7187V41.1142C41.7187 37.0756 45.0481 33.7899 49.1405 33.7899C53.1791 33.7899 56.4647 37.0756 56.4647 41.1142V44.0438C56.4647 44.8528 57.1206 45.5087 57.9296 45.5087H63.789C64.5979 45.5087 65.2538 44.8528 65.2538 44.0438V41.1142C65.2538 32.2294 58.0255 25.001 49.1406 25.001C40.2019 25.0011 32.9297 32.2294 32.9297 41.1143V48.7881C31.2247 49.3927 30 51.0209 30 52.9306V70.6062C30 73.0294 31.9714 75.0008 34.3945 75.0008H63.7889C66.212 75.0008 68.1834 73.0294 68.1834 70.6062V52.9306C68.1834 50.5074 66.212 48.536 63.7889 48.536ZM35.8594 41.1143C35.8594 33.8448 41.8174 27.9308 49.1405 27.9308C56.41 27.9308 62.324 33.8449 62.324 41.1143V42.5791H59.3943V41.1143C59.3943 35.4603 54.7944 30.8604 49.1405 30.8604C43.4698 30.8604 38.7891 35.462 38.7891 41.1143V48.5361H35.8594V41.1143ZM65.2537 70.6062C65.2537 71.414 64.5966 72.0711 63.7889 72.0711H34.3945C33.5868 72.0711 32.9297 71.414 32.9297 70.6062V52.9306C32.9297 52.1229 33.5868 51.4657 34.3945 51.4657C35.7605 51.4657 62.6058 51.4657 63.7889 51.4657C64.5966 51.4657 65.2537 52.1229 65.2537 52.9306V70.6062Z" fill="url(#paint3_linear)"/>
<path d="M49.1405 54.3945C46.7174 54.3945 44.746 56.3659 44.746 58.7891C44.746 60.6987 45.9707 62.327 47.6757 62.9316V67.6758C47.6757 68.4848 48.3315 69.1406 49.1405 69.1406C49.9495 69.1406 50.6053 68.4848 50.6053 67.6758V62.9316C52.3103 62.327 53.535 60.6987 53.535 58.7891C53.535 56.3659 51.5636 54.3945 49.1405 54.3945ZM49.1405 60.2538C48.3328 60.2538 47.6757 59.5967 47.6757 58.789C47.6757 57.9812 48.3328 57.3241 49.1405 57.3241C49.9482 57.3241 50.6053 57.9812 50.6053 58.789C50.6053 59.5967 49.9482 60.2538 49.1405 60.2538Z" fill="url(#paint4_linear)"/>
<path d="M78.5349 45.6055H72.6755C71.8665 45.6055 71.2106 46.2613 71.2106 47.0703C71.2106 47.8793 71.8665 48.5352 72.6755 48.5352H78.5349C79.3438 48.5352 79.9997 47.8793 79.9997 47.0703C79.9997 46.2613 79.3438 45.6055 78.5349 45.6055Z" fill="url(#paint5_linear)"/>
</g>
<defs>
<linearGradient id="paint0_linear" x1="0" y1="100" x2="100" y2="0" gradientUnits="userSpaceOnUse">
<stop stop-color="#FE5000"/>
<stop offset="1" stop-color="#FE9800"/>
</linearGradient>
<linearGradient id="paint1_linear" x1="73.0232" y1="42.6762" x2="79.9589" y2="39.4203" gradientUnits="userSpaceOnUse">
<stop stop-color="#FE5000"/>
<stop offset="1" stop-color="#FCA92A"/>
</linearGradient>
<linearGradient id="paint2_linear" x1="73.0232" y1="57.3244" x2="79.9589" y2="54.0685" gradientUnits="userSpaceOnUse">
<stop stop-color="#FE5000"/>
<stop offset="1" stop-color="#FCA92A"/>
</linearGradient>
<linearGradient id="paint3_linear" x1="37.8753" y1="75.0008" x2="72.6578" y2="66.6876" gradientUnits="userSpaceOnUse">
<stop stop-color="#FE5000"/>
<stop offset="1" stop-color="#FCA92A"/>
</linearGradient>
<linearGradient id="paint4_linear" x1="46.5587" y1="69.1406" x2="54.7377" y2="67.6149" gradientUnits="userSpaceOnUse">
<stop stop-color="#FE5000"/>
<stop offset="1" stop-color="#FCA92A"/>
</linearGradient>
<linearGradient id="paint5_linear" x1="73.0234" y1="48.5352" x2="77.5216" y2="44.3118" gradientUnits="userSpaceOnUse">
<stop stop-color="#FE5000"/>
<stop offset="1" stop-color="#FCA92A"/>
</linearGradient>
<clipPath id="clip0">
<rect width="50" height="50" fill="white" transform="translate(30 25)"/>
</clipPath>
</defs>
</svg>
