<svg width="300" height="231" viewBox="0 0 300 231" fill="none" xmlns="http://www.w3.org/2000/svg">
<path fill-rule="evenodd" clip-rule="evenodd" d="M145.385 98.0854L154.375 103.267V111.322C154.375 113.79 151.704 115.333 149.565 114.1L112.547 92.762V50.8954L149.407 72.1425C152.481 73.9147 154.375 77.1924 154.375 80.7411V89.8072L148.147 86.2166C144.94 84.3687 140.935 86.6828 140.935 90.3841C140.935 93.5618 142.632 96.4978 145.385 98.0854ZM145.801 94.5836C144.916 94.0761 144.371 93.135 144.371 92.1156V91.1025C144.371 89.5312 146.071 88.5469 147.434 89.3291C148.318 89.836 148.863 90.7771 148.863 91.7965V92.8096C148.863 94.3815 147.163 95.3658 145.801 94.5836Z" fill="#AF59C1"/>
<path fill-rule="evenodd" clip-rule="evenodd" d="M145.637 37.3445V39.8131L175.382 56.959C178.56 58.7913 180.52 62.1817 180.52 65.8505V93.7658L182.655 94.9973C184.794 96.23 187.466 94.6863 187.466 92.2183V61.6385C187.466 58.0904 185.571 54.8114 182.497 53.0399L150.446 34.5649C148.307 33.3327 145.637 34.8759 145.637 37.3445Z" fill="#DE492A"/>
<path fill-rule="evenodd" clip-rule="evenodd" d="M134.61 43.7267V46.1358L164.388 63.2993C167.566 65.1321 169.525 68.5219 169.525 72.1907V100.166L171.63 101.379C173.768 102.612 176.439 101.068 176.439 98.6004V68.0206C176.439 64.4719 174.544 61.1936 171.471 59.422L139.42 40.947C137.281 39.7143 134.61 41.258 134.61 43.7267Z" fill="#F99D1C"/>
<path fill-rule="evenodd" clip-rule="evenodd" d="M123.577 50.0819V52.503L153.338 69.6576C156.516 71.4899 158.475 74.8796 158.475 78.5485V106.512L160.596 107.735C162.734 108.967 165.406 107.424 165.406 104.956V74.3759C165.406 70.8278 163.511 67.5488 160.437 65.7773L128.387 47.3029C126.248 46.0701 123.577 47.6133 123.577 50.0819Z" fill="#37C2DC"/>
<path fill-rule="evenodd" clip-rule="evenodd" d="M130.87 164.597C132.349 164.597 133.549 165.796 133.549 167.275V195.192H95.9372C94.4511 195.192 93.2465 193.987 93.2465 192.501V164.597H95.3703C96.8496 164.597 98.0486 165.796 98.0486 167.275V190.959H110.965V164.597H113.151C114.631 164.597 115.83 165.796 115.83 167.275V190.959H128.747V164.597H130.87ZM185.832 167.305C185.832 165.826 187.031 164.627 188.511 164.627H208.326V195.177H206.138C204.658 195.177 203.459 193.978 203.459 192.499V168.419H190.446V173.665C190.446 187.913 186.825 194.627 178.704 195.437L178.618 195.446V191.153L178.679 191.139C183.627 190.027 185.832 184.638 185.832 173.665V167.305ZM270.603 179.547L281.898 195.193H278.515C277.086 195.193 275.748 194.493 274.936 193.322L266.677 181.396H261.065V195.193H256.229V164.614H258.288C259.819 164.614 261.065 165.854 261.065 167.379V177.464H266.555L273.994 166.516C274.803 165.325 276.149 164.614 277.594 164.614H280.651L280.582 164.712L270.556 178.941V179.482L270.603 179.547ZM69.0132 191.507C75.3446 191.507 80.4959 186.356 80.4959 180.025C80.4959 173.693 75.3446 168.542 69.0132 168.542C62.6817 168.542 57.5304 173.693 57.5304 180.025C57.5304 186.356 62.6817 191.507 69.0132 191.507ZM69.0132 163.728C78.0141 163.728 85.3105 171.024 85.3105 180.025C85.3105 189.025 78.0141 196.321 69.0132 196.321C60.0122 196.321 52.7158 189.025 52.7158 180.025C52.7158 171.024 60.0122 163.728 69.0132 163.728ZM146.849 183.443L166.483 172.781L166.311 172.577C164.116 169.99 160.922 168.506 157.546 168.506C151.204 168.506 146.045 173.666 146.045 180.007C146.045 181.12 146.211 182.232 146.538 183.315L146.615 183.57L146.849 183.443ZM172.845 174.413L172.873 174.49L148.86 187.529L149.047 187.733C151.229 190.133 154.327 191.508 157.546 191.508C160.998 191.508 164.239 189.969 166.438 187.286C166.971 186.636 167.775 186.262 168.646 186.262C169.152 186.262 169.654 186.39 170.097 186.631L171.939 187.631L171.894 187.714C169.047 193.006 163.549 196.294 157.546 196.294C153.029 196.294 148.83 194.488 145.722 191.208C142.617 187.93 141.04 183.632 141.284 179.106C141.744 170.561 148.816 163.804 157.385 163.722L157.545 163.721C162.758 163.721 167.696 166.25 170.755 170.484C171.633 171.701 172.337 173.024 172.845 174.413ZM225.577 156.915C224.205 156.915 223.089 155.8 223.089 154.428C223.089 153.058 224.205 151.943 225.577 151.943C226.947 151.943 228.063 153.058 228.063 154.428C228.063 155.8 226.947 156.915 225.577 156.915ZM238.428 156.915C237.058 156.915 235.942 155.8 235.942 154.428C235.942 153.058 237.058 151.943 238.428 151.943C239.799 151.943 240.915 153.058 240.915 154.428C240.915 155.8 239.799 156.915 238.428 156.915ZM221.799 183.33L241.433 172.668L241.26 172.464C239.066 169.877 235.872 168.394 232.496 168.394C226.154 168.394 220.995 173.553 220.995 179.895C220.995 181.006 221.16 182.119 221.488 183.202L221.565 183.457L221.799 183.33ZM247.795 174.3L247.823 174.377L223.811 187.416L223.997 187.62C226.179 190.019 229.277 191.395 232.496 191.395C235.948 191.395 239.189 189.856 241.388 187.173C241.92 186.523 242.725 186.15 243.597 186.15C244.102 186.15 244.603 186.277 245.046 186.518L246.889 187.518L246.844 187.601C243.997 192.893 238.499 196.181 232.496 196.181C227.979 196.181 223.78 194.375 220.672 191.094C217.566 187.817 215.99 183.519 216.234 178.993C216.694 170.448 223.766 163.69 232.335 163.608L232.496 163.608C237.708 163.608 242.645 166.136 245.705 170.371C246.583 171.587 247.286 172.909 247.795 174.3ZM47.1152 152.265L34.829 172.755L48.1064 195.131H44.8124C43.248 195.131 41.7869 194.291 41.0009 192.939L30.5081 174.912H23.0947V195.131H17.9641V152.005H20.4171C21.8957 152.005 23.0947 153.204 23.0947 154.683V170.596H30.5025L30.5425 170.53L40.4221 154.138C41.2199 152.815 42.6529 152.005 44.1992 152.005H47.2711L47.1152 152.265Z" fill="#465463"/>
</svg>
