<svg width="44" height="44" viewBox="0 0 44 44" fill="none" xmlns="http://www.w3.org/2000/svg">
<g clip-path="url(#clip0_3040_2100)">
<path d="M40.4434 11.3604H35.5969L33.5188 6.85423C33.3926 6.57773 33.0512 6.45069 32.7766 6.57773L30.743 7.52679L24.5828 3.09533C24.3379 2.91598 23.9816 2.97576 23.8035 3.22984L18.0441 11.3604H3.55664C3.24492 11.3604 3 11.6145 3 11.9209V32.0755C3 32.3819 3.25234 32.636 3.55664 32.636H8.40313L10.4813 37.1421C10.6074 37.4186 10.9414 37.5457 11.2234 37.4186L13.257 36.4696L19.4172 40.9011C19.6621 41.0804 20.0184 41.0206 20.1965 40.7665L25.9559 32.636H40.4359C40.7477 32.636 40.9926 32.3819 40.9926 32.0755V11.9209C41 11.6145 40.7477 11.3604 40.4434 11.3604ZM32.7395 7.83319L34.3649 11.3604H25.184L32.7395 7.83319ZM24.3899 4.34331L29.5852 8.07232L22.5418 11.3604H19.4172L24.3899 4.34331ZM16.0625 27.5842V31.4478C16.0625 31.4702 16.0625 31.4926 16.0699 31.515H12.7227C12.7227 31.4926 12.7301 31.4702 12.7301 31.4478V27.5842V26.538V12.4814H16.0699V26.538V27.5842H16.0625ZM4.11328 31.515V12.4814H11.6836V26.538H8.34375C8.0543 26.538 7.82422 26.7697 7.82422 27.0611C7.82422 27.3526 8.0543 27.5842 8.34375 27.5842H11.6836V31.4478C11.6836 31.4702 11.6836 31.4926 11.691 31.515H4.11328ZM11.2605 36.1632L9.63516 32.636H18.816L11.2605 36.1632ZM19.6102 39.6605L14.4148 35.9315L21.4582 32.6434H24.5828L19.6102 39.6605ZM39.8867 31.515H17.1016C17.1016 31.4926 17.109 31.4702 17.109 31.4478V27.5842H26.609C26.8984 27.5842 27.1285 27.3526 27.1285 27.0611C27.1285 26.7697 26.8984 26.538 26.609 26.538H17.1016V12.4814H18.3262H35.2332H39.8867V31.515ZM30.3941 19.1024H31.3664V15.7097H34.157C35.7453 15.7097 36.6359 16.5168 36.6359 17.9067C36.6359 19.3042 35.7453 20.1337 34.157 20.1337H32.5539V20.8212H34.6914V21.4713H32.5539V22.9211H31.3664V21.4713H30.3941V20.8212H31.3664V20.1337H30.3941V19.1024ZM33.9863 19.1024C35.0477 19.1024 35.4484 18.6466 35.4484 17.9067C35.4484 17.1669 35.0477 16.7335 33.9863 16.7335H32.5539V19.1024H33.9863Z" fill="url(#paint0_linear_3040_2100)"/>
</g>
<defs>
<linearGradient id="paint0_linear_3040_2100" x1="10.836" y1="41.0044" x2="44.161" y2="30.5802" gradientUnits="userSpaceOnUse">
<stop stop-color="#FE5000"/>
<stop offset="1" stop-color="#FCA92A"/>
</linearGradient>
<clipPath id="clip0_3040_2100">
<rect width="38" height="38" fill="white" transform="translate(3 3)"/>
</clipPath>
</defs>
</svg>
