<svg width="44" height="44" viewBox="0 0 44 44" fill="none" xmlns="http://www.w3.org/2000/svg">
<path fill-rule="evenodd" clip-rule="evenodd" d="M41.4134 17.2108C41.4134 17.5645 41.1667 17.8375 40.813 17.8375H40.3727V24.4014H40.813C41.1667 24.4014 41.4134 24.7019 41.4134 25.0556V28.4176C41.4134 28.7713 41.1667 29.0443 40.813 29.0443H40.3727V32.3813C40.3727 34.2634 38.9391 35.7683 37.1273 35.7683H36.6905V37.5294C36.6905 37.8831 36.4038 38.1698 36.0501 38.1698H28.0453C27.6916 38.1698 27.4049 37.8831 27.4049 37.5294V35.7683H15.8779V37.5294C15.8779 37.8831 15.5912 38.1698 15.2375 38.1698H7.23266C6.87901 38.1698 6.59227 37.8831 6.59227 37.5294V35.7683H5.9153C4.10357 35.7683 2.58984 34.2634 2.58984 32.3813V9.88515C2.58984 8.00307 4.10357 6.47058 5.9153 6.47058H37.1273C38.9391 6.47058 40.3727 8.00307 40.3727 9.88515V13.1947H40.813C41.1667 13.1947 41.4134 13.4952 41.4134 13.8488V17.2108ZM40.1326 27.7635V25.6822H35.89V27.7635H40.1326ZM34.6092 25.0556C34.6083 24.6991 34.8932 24.408 35.2496 24.4014H35.5698V17.8375H35.2496C35.0811 17.8406 34.9185 17.7759 34.7981 17.6583C34.678 17.5404 34.6099 17.3794 34.6092 17.2108V13.8488C34.6083 13.4923 34.8932 13.2012 35.2496 13.1947H35.5698V12.1962C35.5698 11.7847 35.2994 11.4336 34.9232 11.4336H8.11945C7.74359 11.4336 7.4728 11.7847 7.4728 12.1962V30.0702C7.4728 30.4817 7.74328 30.8053 8.11945 30.8053H34.9232C35.299 30.8053 35.5698 30.4817 35.5698 30.0702V29.0443H35.2496C35.0811 29.0474 34.9185 28.9827 34.7981 28.8651C34.678 28.7472 34.6099 28.5862 34.6092 28.4176V25.0556ZM35.89 14.4754V16.5567H40.1326V14.4754H35.89ZM7.87305 36.889H14.5971V35.7683H7.87305V36.889ZM28.6857 36.889H35.4097V35.7683H28.6857V36.889ZM37.1273 34.4876C38.2327 34.4876 39.092 33.5573 39.092 32.3813V29.0443H36.8506V30.0702C36.8506 31.1881 36.0054 32.0861 34.9232 32.0861H8.11945C7.03723 32.0861 6.19203 31.1881 6.19203 30.0702V12.1962C6.19203 11.0784 7.03723 10.1528 8.11945 10.1528H34.9232C36.0054 10.1528 36.8506 11.0784 36.8506 12.1962V13.1947H39.092V9.88515C39.092 8.70913 38.2327 7.75136 37.1273 7.75136H5.9153C4.80994 7.75136 3.87062 8.70913 3.87062 9.88515V32.3813C3.87062 33.5573 4.80994 34.4876 5.9153 34.4876H37.1273ZM36.8506 24.4014H39.092V17.8375H36.8506V24.4014ZM16.6829 14.7556C13.1602 14.7556 10.3047 17.6111 10.3047 21.1336C10.3047 24.656 13.1602 27.5118 16.6826 27.5118C20.2054 27.5118 23.0609 24.656 23.0609 21.1336C23.0568 17.6127 20.2035 14.7597 16.6829 14.7556ZM16.6829 26.2307C13.8678 26.231 11.5855 23.9487 11.5855 21.1336C11.5855 18.3184 13.8675 16.0364 16.6826 16.0364C19.4978 16.0364 21.7801 18.3184 21.7801 21.1336C21.7767 23.9472 19.4965 26.2273 16.6829 26.2304V26.2307ZM18.7602 18.9319C18.0588 18.3978 17.2768 18.1405 16.4963 18.1889C15.012 18.2818 13.8291 19.465 13.7362 20.9494C13.688 21.7289 13.9451 22.5116 14.4791 23.2129C14.5138 23.2589 14.5548 23.2995 14.6005 23.3346C15.2465 23.8264 15.9613 24.0831 16.6792 24.0831C16.7408 24.0831 16.8027 24.0813 16.8643 24.0775C18.3487 23.9846 19.5316 22.8014 19.6248 21.3174C19.6726 20.5376 19.4159 19.7549 18.8815 19.0535C18.8468 19.0076 18.8058 18.9669 18.7602 18.9319ZM17.8606 22.3133C17.3759 22.7983 16.4588 23.0941 15.4463 22.3671C14.7193 21.3549 15.0154 20.4381 15.5001 19.9531C15.9847 19.4682 16.9015 19.1724 17.9143 19.8994C18.6413 20.9112 18.3455 21.8287 17.8606 22.3133Z" fill="url(#paint0_linear_3748_802)"/>
<defs>
<linearGradient id="paint0_linear_3748_802" x1="10.5972" y1="38.1698" x2="43.1938" y2="25.6753" gradientUnits="userSpaceOnUse">
<stop stop-color="#FE5000"/>
<stop offset="1" stop-color="#FCA92A"/>
</linearGradient>
</defs>
</svg>
