<svg width="28" height="28" viewBox="0 0 28 28" fill="none" xmlns="http://www.w3.org/2000/svg">
<path d="M25.4639 20.3749C25.4639 20.6562 25.4118 21.0233 25.3076 21.4764C25.2034 21.9296 25.094 22.2864 24.9795 22.5468C24.7609 23.0677 24.1254 23.6198 23.0733 24.2031C22.0942 24.7344 21.1254 25 20.1671 25C19.8858 25 19.6123 24.9817 19.3468 24.9454C19.0812 24.9088 18.7818 24.8438 18.4483 24.75C18.115 24.6563 17.8676 24.5807 17.7062 24.5235C17.5447 24.4663 17.2556 24.3595 16.839 24.2032C16.4224 24.047 16.1671 23.9533 16.0734 23.9219C15.0526 23.5573 14.141 23.125 13.339 22.6251C12.0058 21.8022 10.6282 20.6798 9.20618 19.2578C7.78424 17.8357 6.66181 16.4581 5.83882 15.125C5.33883 14.3229 4.90657 13.4115 4.54192 12.3906C4.51061 12.2969 4.41685 12.0417 4.26063 11.625C4.1044 11.2084 3.9976 10.9193 3.94036 10.7579C3.88312 10.5964 3.80762 10.349 3.71385 10.0157C3.62009 9.68237 3.55502 9.38286 3.5185 9.11721C3.48213 8.85157 3.46387 8.57809 3.46387 8.29681C3.46387 7.33844 3.7295 6.36965 4.26078 5.39058C4.84409 4.33847 5.39621 3.70314 5.91706 3.48432C6.17732 3.36984 6.53412 3.26042 6.98728 3.15622C7.44043 3.05203 7.80752 3 8.0888 3C8.23459 3 8.34401 3.01565 8.4169 3.0468C8.60443 3.10926 8.88051 3.50519 9.24496 4.23429C9.3596 4.43225 9.51582 4.71338 9.7138 5.07803C9.91176 5.44265 10.0941 5.77334 10.2607 6.07015C10.4274 6.36709 10.5888 6.6456 10.745 6.90603C10.7764 6.94761 10.8675 7.0779 11.0185 7.29658C11.1695 7.51526 11.2815 7.70016 11.3544 7.85133C11.4273 8.00234 11.4638 8.15088 11.4638 8.29667C11.4638 8.50507 11.3155 8.76551 11.0185 9.07795C10.7216 9.39039 10.3987 9.6769 10.0497 9.93732C9.70076 10.1977 9.37786 10.4738 9.08094 10.7654C8.784 11.057 8.6356 11.2966 8.6356 11.4842C8.6356 11.578 8.66169 11.6952 8.71371 11.8358C8.76573 11.9763 8.81008 12.0831 8.84645 12.156C8.88298 12.2289 8.95587 12.354 9.06513 12.5311C9.17455 12.7082 9.2344 12.8072 9.24483 12.828C10.0365 14.255 10.9427 15.479 11.9635 16.4999C12.9843 17.5207 14.2083 18.427 15.6353 19.2185C15.6562 19.229 15.755 19.2888 15.9323 19.3982C16.1094 19.5077 16.2343 19.5806 16.3073 19.6169C16.3802 19.6534 16.487 19.6976 16.6276 19.7497C16.7682 19.8018 16.8854 19.8278 16.9792 19.8278C17.1667 19.8278 17.4063 19.6794 17.698 19.3824C17.9897 19.0855 18.2658 18.7626 18.5261 18.4137C18.7865 18.0647 19.073 17.7418 19.3854 17.4449C19.6979 17.1479 19.9583 16.9995 20.1667 16.9995C20.3125 16.9995 20.461 17.036 20.612 17.1089C20.7631 17.1818 20.948 17.2939 21.1668 17.4449C21.3855 17.5959 21.5158 17.687 21.5574 17.7183C21.8178 17.8746 22.0965 18.036 22.3932 18.2026C22.6902 18.3693 23.0209 18.5516 23.3853 18.7496C23.75 18.9475 24.0311 19.1038 24.2291 19.2184C24.9583 19.583 25.3541 19.8591 25.4166 20.0465C25.4479 20.1194 25.4634 20.2288 25.4634 20.3746L25.4639 20.3749Z" fill="currentColor"/>
</svg>
