<svg width="28" height="28" viewBox="0 0 28 28" fill="none" xmlns="http://www.w3.org/2000/svg">
<path fill-rule="evenodd" clip-rule="evenodd" d="M6.93015 6.92888C6.53962 7.3194 6.53962 7.95257 6.93015 8.34309L12.5863 13.9993L6.92864 19.657C6.53811 20.0475 6.53811 20.6806 6.92864 21.0712C7.31916 21.4617 7.95233 21.4617 8.34285 21.0712L14.0005 15.4135L19.6581 21.071C20.0486 21.4615 20.6818 21.4615 21.0723 21.071C21.4628 20.6805 21.4628 20.0473 21.0723 19.6568L15.4147 13.9993L21.0708 8.34324C21.4613 7.95272 21.4613 7.31956 21.0708 6.92903C20.6802 6.53851 20.0471 6.53851 19.6566 6.92903L14.0005 12.5851L8.34436 6.92888C7.95383 6.53836 7.32067 6.53836 6.93015 6.92888Z" fill="currentColor"/>
</svg>
