<svg width="28" height="28" viewBox="0 0 28 28" fill="none" xmlns="http://www.w3.org/2000/svg">
<path fill-rule="evenodd" clip-rule="evenodd" d="M2.26902 12.9473C8.71145 10.1248 13.0074 8.26407 15.1569 7.36505C21.2942 4.79818 22.5694 4.35228 23.4006 4.33756C23.5835 4.33432 23.9922 4.37988 24.257 4.59592C24.4806 4.77834 24.5421 5.02477 24.5715 5.19773C24.601 5.37068 24.6376 5.76468 24.6085 6.07254C24.2759 9.5864 22.8368 18.1136 22.1047 22.0492C21.7949 23.7145 21.1849 24.2729 20.5944 24.3275C19.3111 24.4462 18.3365 23.4747 17.0935 22.6553C15.1485 21.3732 14.0497 20.5751 12.1617 19.3241C9.97978 17.8782 11.3942 17.0836 12.6377 15.7849C12.9631 15.445 18.6176 10.2732 18.727 9.80409C18.7407 9.74541 18.7534 9.52669 18.6242 9.4112C18.495 9.29571 18.3043 9.3352 18.1667 9.36661C17.9716 9.41113 14.8643 11.4763 8.84498 15.5621C7.963 16.1711 7.16414 16.4678 6.44838 16.4523C5.65932 16.4352 4.14147 16.0037 3.01311 15.6348C1.62913 15.1825 0.529173 14.9433 0.624955 14.175C0.674844 13.7749 1.22286 13.3656 2.26902 12.9473Z" fill="currentColor"/>
</svg>
