<svg width="28" height="28" viewBox="0 0 28 28" fill="none" xmlns="http://www.w3.org/2000/svg">
<g clip-path="url(#clip0_5719_2579)">
<path d="M0.574219 27.4258L2.4779 20.5372C1.30792 18.5164 0.693376 16.2245 0.696137 13.8921C0.682591 6.54264 6.67889 0.574219 14.0474 0.574219C17.6228 0.574219 20.9808 1.95448 23.51 4.47226C24.7562 5.70644 25.744 7.17455 26.4162 8.79152C27.0884 10.4085 27.4315 12.1422 27.4257 13.8921C27.4257 21.2273 21.4294 27.1957 14.0609 27.1957C11.8178 27.1957 9.62884 26.6405 7.67097 25.5719L0.574219 27.4258ZM7.98414 23.1763L8.39133 23.4199C10.104 24.4287 12.0573 24.9615 14.0474 24.9627C20.1656 24.9627 25.1555 19.9962 25.1555 13.9048C25.1555 10.9547 24 8.16722 21.9059 6.08335C20.8761 5.05243 19.6516 4.23458 18.3028 3.67693C16.9541 3.11928 15.5078 2.83287 14.0474 2.83419C7.91561 2.83419 2.92652 7.80153 2.92652 13.8921C2.92652 15.976 3.51062 18.0202 4.62541 19.7796L4.88359 20.1993L3.75525 24.2861L7.98334 23.1763H7.98414Z" fill="currentColor"/>
<path fill-rule="evenodd" clip-rule="evenodd" d="M10.9611 8.78038C10.7018 8.27084 10.4139 8.25847 10.169 8.25847C9.95285 8.24609 9.72149 8.24609 9.47661 8.24609C9.24694 8.24609 8.85767 8.32034 8.52583 8.63116C8.19483 8.94124 7.28711 9.67424 7.28711 11.1766C7.28711 12.6798 8.55538 14.1327 8.72764 14.3314C8.90074 14.5301 11.1764 17.7089 14.7785 18.939C17.7761 19.9573 18.3807 19.7586 19.0284 19.696C19.6768 19.6342 21.1174 18.9638 21.4205 18.2431C21.7076 17.5356 21.7076 16.9147 21.6223 16.7902C21.5353 16.6665 21.2905 16.5915 20.9451 16.4299C20.5846 16.2814 18.8561 15.5361 18.5243 15.4363C18.1932 15.3373 17.9627 15.2878 17.7322 15.5856C17.5017 15.8964 16.8245 16.5791 16.6092 16.7779C16.4065 16.9766 16.1904 17.0013 15.845 16.8521C15.4844 16.7036 14.3462 16.3804 12.9927 15.3373C11.9405 14.5294 11.2346 13.5241 11.0185 13.2264C10.8167 12.9156 10.9898 12.754 11.1772 12.6048C11.336 12.4687 11.5369 12.2452 11.71 12.0712C11.8831 11.8965 11.9405 11.7604 12.0706 11.5617C12.1854 11.363 12.128 11.1766 12.0419 11.0281C11.9549 10.8913 11.2777 9.38818 10.9611 8.77965V8.78038Z" fill="currentColor"/>
</g>
<defs>
<clipPath id="clip0_5719_2579">
<rect width="28" height="28" fill="currentColor"/>
</clipPath>
</defs>
</svg>
