<svg width="93" height="27" viewBox="0 0 93 27" fill="none" xmlns="http://www.w3.org/2000/svg">
<g clip-path="url(#clip0_8693_16703)">
<path fill-rule="evenodd" clip-rule="evenodd" d="M25.0606 5.00857e-07V0.0114962C25.0491 0.0114962 21.4279 4.38525e-07 20.4623 3.4602C19.5771 6.633 17.0826 15.3927 17.0136 15.6341H16.3239C16.3239 15.6341 13.7718 6.67899 12.8752 3.4487C11.9095 -0.0114953 8.27688 5.00857e-07 8.27688 5.00857e-07H0V26.3251H8.27688V10.691H8.62175H8.96662L13.7948 26.3251H19.5426L24.3708 10.7025H25.0606V26.3251H33.3375V5.00857e-07H25.0606Z" fill="#006848"/>
<path fill-rule="evenodd" clip-rule="evenodd" d="M55.2942 0C55.2942 0 52.8686 0.218418 51.7305 2.75896L45.8677 15.6341H45.178V0H36.9011V26.3251H44.7182C44.7182 26.3251 47.2587 26.0952 48.3968 23.5661L54.1446 10.691H54.8344V26.3251H63.1113V0H55.2942Z" fill="#006848"/>
<path fill-rule="evenodd" clip-rule="evenodd" d="M66.7898 11.9555V26.3251H75.0667V17.9333H84.0333C87.9418 17.9333 91.2526 15.4387 92.4826 11.9555H66.7898Z" fill="#006848"/>
<path fill-rule="evenodd" clip-rule="evenodd" d="M84.0332 0H65.6287C66.5483 5.01211 70.3074 9.0356 75.1701 10.3461C76.2737 10.645 77.4347 10.8059 78.6303 10.8059H92.8159C92.9424 10.2082 92.9999 9.59889 92.9999 8.96663C92.9999 4.01199 88.9879 0 84.0332 0Z" fill="url(#paint0_linear_8693_16703)"/>
</g>
<defs>
<linearGradient id="paint0_linear_8693_16703" x1="65.6306" y1="5.44863" x2="92.9999" y2="5.44863" gradientUnits="userSpaceOnUse">
<stop stop-color="#48ABFB"/>
<stop offset="1" stop-color="#335CCC"/>
</linearGradient>
<clipPath id="clip0_8693_16703">
<rect width="93" height="27" fill="white"/>
</clipPath>
</defs>
</svg>
