<svg width="233" height="33" viewBox="0 0 233 33" fill="none" xmlns="http://www.w3.org/2000/svg">
<g clip-path="url(#clip0_8692_17706)">
<path d="M5.87844 6.53712C5.77052 6.09116 5.79446 5.62137 5.85448 5.37815C6.00402 4.67496 6.48478 3.88753 7.87701 3.88753C9.17239 3.88753 9.93214 4.69164 9.93214 5.89676V7.26531H15.4476V5.71248C15.4476 0.899453 11.1125 0.133449 7.98505 0.133449C4.05719 0.133449 0.850441 1.43592 0.261075 5.0474C0.101639 6.03965 0.0730313 6.90985 0.30294 8.02774C1.26048 12.552 9.12089 13.8571 10.263 16.716C10.4785 17.2492 10.4124 17.9318 10.3084 18.3492C10.1273 19.0944 9.62883 19.8434 8.14902 19.8434C6.76644 19.8434 5.94087 19.0393 5.94087 17.8303L5.93447 15.7035H0V17.3918C0 22.337 3.88333 23.8238 8.03762 23.8238C12.0315 23.8238 15.3122 22.4623 15.8491 18.7604C16.1136 16.8524 15.9149 15.6124 15.8274 15.1426C14.894 10.5008 6.50512 9.12836 5.87844 6.53712ZM77.7934 6.59309C77.6925 6.15457 77.7237 5.69104 77.7728 5.45109C77.9324 4.74076 78.4067 3.97118 79.7785 3.97118C81.0524 3.97118 81.8014 4.76487 81.8014 5.95927V7.31443H87.2545V5.77142C87.2545 1.00692 82.9815 0.259378 79.8898 0.259378C75.9931 0.259378 72.8136 1.54369 72.2319 5.12659C72.0789 6.10217 72.0405 6.96939 72.2837 8.07329C73.2313 12.5448 81.0143 13.8402 82.1429 16.6681C82.3453 17.2037 82.2855 17.8866 82.1848 18.2903C82.0169 19.025 81.523 19.763 80.0533 19.763C78.6773 19.763 77.8493 18.9735 77.8493 17.7824V15.658H71.978V17.3472C71.978 22.2325 75.8089 23.7088 79.9318 23.7088C83.8803 23.7088 87.1432 22.3585 87.6653 18.7017C87.9169 16.8107 87.7287 15.5776 87.6272 15.1149C86.7153 10.5317 78.42 9.15277 77.7934 6.59309ZM128.002 18.6428L122.797 0.840503H114.591V22.7202H120.02L119.704 4.3466L125.296 22.7202H133.167V0.836934H127.702L128.002 18.6428ZM23.6735 0.836934L19.578 22.9503H25.5508L28.6357 2.48087L31.6479 22.9503H37.5824L33.5006 0.836934H23.6735ZM57.0733 0.836934L54.2838 18.1239L51.4978 0.836934H42.4749L41.998 22.9503H47.5243L47.6744 2.48087L51.4737 22.9503H57.0837L60.8899 2.48087L61.0393 22.9503H66.58L66.0852 0.836934H57.0733ZM108.46 0.836934H102.867V17.1974C102.873 17.4826 102.867 17.7994 102.817 18.0363C102.7 18.5865 102.236 19.6422 100.694 19.6422C99.1684 19.6422 98.6915 18.5865 98.5828 18.0363C98.5275 17.7994 98.5206 17.4826 98.5275 17.1974V0.836934H92.938V16.6883C92.9315 17.0995 92.9627 17.9318 92.9868 18.1516C93.3739 22.2816 96.626 23.6225 100.694 23.6225C104.764 23.6225 108.017 22.2816 108.411 18.1516C108.442 17.9318 108.484 17.0995 108.46 16.6883V0.836934ZM146.86 10.5389V13.7634H149.123V16.9637C149.134 17.2492 149.116 17.5594 149.067 17.8029C148.977 18.4019 148.409 19.4192 146.8 19.4192C145.202 19.4192 144.644 18.4019 144.547 17.8029C144.509 17.5594 144.491 17.2492 144.491 16.9637V6.85775C144.491 6.49961 144.516 6.10932 144.589 5.8131C144.7 5.27365 145.177 4.21114 146.79 4.21114C148.479 4.21114 148.9 5.3326 149.001 5.8131C149.063 6.12956 149.067 6.66632 149.067 6.66632V7.89199H154.635V7.16826C154.635 7.16826 154.66 6.40851 154.594 5.70533C154.176 1.5544 150.756 0.244791 146.838 0.244791C142.914 0.244791 139.564 1.5678 139.076 5.70533C139.031 6.08163 138.964 6.76338 138.964 7.16826V16.4621C138.964 16.8693 138.979 17.1834 139.052 17.9214C139.417 21.9571 142.914 23.3852 146.825 23.3852C150.756 23.3852 154.228 21.9571 154.601 17.9214C154.668 17.1834 154.67 16.8693 154.681 16.4621V10.5389H146.86Z" fill="#373A36"/>
<path d="M173.552 -3.41388e-06H181.722C186.657 -3.41388e-06 190.315 3.79065 190.315 8.4972C190.315 13.2357 186.657 17.0266 181.687 17.0266H177.996V23.856H173.552V-3.41388e-06ZM221.137 22.9083L213.297 4.73874H217.999L223.328 17.616L228.36 4.73874H233L221.597 32.6793H217.119L221.137 22.9083ZM191.497 14.3131C191.497 7.97398 196.137 4.3488 200.974 4.3488C203.49 4.3488 205.743 5.39099 207.116 7.02718V4.73874H211.527V23.856H207.116V21.3717C205.712 23.1365 203.423 24.2497 200.907 24.2497C196.299 24.2497 191.497 20.5567 191.497 14.3131ZM207.344 14.2501C207.344 11.0139 204.894 8.36779 201.626 8.36779C198.359 8.36779 195.842 10.9509 195.842 14.2501C195.842 17.5844 198.359 20.1954 201.626 20.1954C204.894 20.1954 207.344 17.5495 207.344 14.2501ZM177.999 4.12058V12.9095H181.396C184.042 12.9095 185.839 10.9473 185.839 8.4972C185.839 6.07912 184.042 4.12058 181.396 4.12058H177.999Z" fill="#373A36"/>
</g>
<defs>
<clipPath id="clip0_8692_17706">
<rect width="233" height="33" fill="white"/>
</clipPath>
</defs>
</svg>
