<svg width="56" height="56" viewBox="0 0 56 56" fill="none" xmlns="http://www.w3.org/2000/svg">
<path fill-rule="evenodd" clip-rule="evenodd" d="M5 8.21053C5 7.66405 5.16812 6.82572 5.6403 6.15406C6.07583 5.53452 6.80277 5 8.11111 5H8.13053H8.15026H8.17029H8.19062H8.21125H8.23218H8.25341H8.27493H8.29675H8.31887H8.34128H8.36399H8.38699H8.41028H8.43386H8.45773H8.48189H8.50634H8.53108H8.5561H8.5814H8.60699H8.63287H8.65902H8.68546H8.71217H8.73917H8.76644H8.794H8.82182H8.84993H8.87831H8.90696H8.93588H8.96508H8.99454H9.02428H9.05428H9.08456H9.1151H9.1459H9.17697H9.20831H9.2399H9.27176H9.30388H9.33626H9.3689H9.4018H9.43495H9.46836H9.50203H9.53595H9.57012H9.60455H9.63923H9.67415H9.70933H9.74476H9.78043H9.81635H9.85252H9.88893H9.92558H9.96248H9.99962H10.037H10.0746H10.1125H10.1506H10.1889H10.2275H10.2663H10.3053H10.3446H10.3841H10.4238H10.4638H10.504H10.5444H10.5851H10.6259H10.667H10.7084H10.7499H10.7917H10.8337H10.8759H10.9183H10.961H11.0039H11.047H11.0903H11.1338H11.1775H11.2215H11.2656H11.31H11.3546H11.3994H11.4444H11.4896H11.535H11.5806H11.6264H11.6724H11.7187H11.7651H11.8117H11.8586H11.9056H11.9528H12.0002H12.0478H12.0957H12.1437H12.1919H12.2403H12.2888H12.3376H12.3866H12.4357H12.4851H12.5346H12.5843H12.6342H12.6842H12.7345H12.7849H12.8356H12.8864H12.9373H12.9885H13.0398H13.0913H13.143H13.1949H13.2469H13.2991H13.3515H13.404H13.4567H13.5096H13.5626H13.6158H13.6692H13.7227H13.7764H13.8303H13.8843H13.9385H13.9929H14.0474H14.102H14.1568H14.2118H14.2669H14.3222H14.3776H14.4332H14.489H14.5448H14.6009H14.6571H14.7134H14.7699H14.8265H14.8832H14.9401H14.9972H15.0544H15.1117H15.1692H15.2268H15.2845H15.3424H15.4004H15.4585H15.5168H15.5752H15.6338H15.6925H15.7513H15.8102H15.8692H15.9284H15.9877H16.0472H16.1067H16.1664H16.2262H16.2862H16.3462H16.4064H16.4667H16.5271H16.5876H16.6482H16.7089H16.7698H16.8308H16.8919H16.953H17.0143H17.0758H17.1373H17.1989H17.2606H17.3225H17.3844H17.4464H17.5086H17.5708H17.6332H17.6956H17.7581H17.8208H17.8835H17.9463H18.0092H18.0723H18.1354H18.1986H18.2618H18.3252H18.3887H18.4522H18.5159H18.5796H18.6434H18.7073H18.7713H18.8353H18.8994H18.9637H19.028H19.0923H19.1568H19.2213H19.2859H19.3506H19.4153H19.4801H19.545H19.61H19.675H19.7401H19.8052H19.8705H19.9358H20.0011H20.0665H20.132H20.1976H20.2632H20.3288H20.3945H20.4603H20.5262H20.592H20.658H20.724H20.79H20.8561H20.9223H20.9885H21.0547H21.121H21.1874H21.2538H21.3202H21.3867H21.4532H21.5198H21.5864H21.6531H21.7197H21.7865H21.8532H21.92H21.9869H22.0537H22.1206H22.1876H22.2545H22.3215H22.3886H22.4556H22.5227H22.5898H22.6569H22.7241H22.7913H22.8585H22.9257H22.993H23.0602H23.1275H23.1948H23.2622H23.3295H23.3969H23.4642H23.5316H23.599H23.6664H23.7338H23.8013H23.8687H23.9361H24.0036H24.071H24.1385H24.206H24.2734H24.3409H24.4084H24.4758H24.5433H24.6108H24.6782H24.7457H24.8131H24.8806H24.948H25.0155H25.0829H25.1503H25.2177H25.2851H25.3525H25.4198H25.4872H25.5545H25.6218H25.6891H25.7564H25.8237H25.8909H25.9581H26.0253H26.0925H26.1597H26.2268H26.2939H26.361H26.428H26.495H26.562H26.629H26.6959H26.7628H26.8297H26.8965H26.9633H27.03H27.0967H27.1634H27.23H27.2966H27.3632H27.4297H27.4962H27.5626H27.629H27.6953H27.7616H27.8278H27.894H27.9601H28.0262H28.0923H28.1582H28.2242H28.29H28.3559H28.4216H28.4873H28.553H28.6185H28.6841H28.7495H28.8149H28.8803H28.9455H29.0107H29.0759H29.1409H29.2059H29.2709H29.3357H29.4005H29.4652H29.5299H29.5945H29.659H29.7234H29.7877H29.852H29.9162H29.9803H30.0443H30.1083H30.1721H30.2359H30.2996H30.3632H30.4267H30.4902H30.5535H30.6168H30.6799H30.743H30.806H30.8689H30.9317H30.9944H31.057H31.1195H31.1819H31.2442H31.3064H31.3685H31.4305H31.4924H31.5542H31.6159H31.6775H31.739H31.8004H31.8616H31.9228H31.9838H32.0448H32.1056H32.1663H32.2269H32.2874H32.3477H32.408H32.4681H32.5281H32.588H32.6477H32.7074H32.7669H32.8263H32.8856H32.9447H33.0037H33.0626H33.1214H33.18H33.2385H33.2969H33.3551H33.4132H33.4712H33.529H33.5867H33.6443H33.7017H33.759H33.8161H33.8731H33.93H33.9867H34.0433H34.0997H34.156H34.2121H34.2681H34.3239H34.3796H34.4351H34.4905H34.5457H34.6008H34.6557H34.7105H34.7651H34.8196H34.8739H34.928H34.982H35.0358H35.0894H35.1429H35.1962H35.2494H35.3024H35.3552H35.4078H35.4603H35.5126H35.5648H35.6167H35.6685H35.7202H35.7716H35.8229H35.874H35.9249H35.9756H36.0262H36.0766H36.1268H36.1768H36.2266H36.2763H36.3257H36.375C37.2511 5 38.1402 5.22615 38.7986 5.80414C39.4309 6.35918 40 7.37044 40 9.26316V9.26895V9.27477V9.28061V9.28647V9.29235V9.29826V9.30419V9.31013V9.31611V9.3221V9.32811V9.33415V9.34021V9.34629V9.35239V9.35851V9.36466V9.37083V9.37702V9.38323V9.38946V9.39572V9.40199V9.40829V9.41461V9.42095V9.42731V9.4337V9.4401V9.44653V9.45298V9.45945V9.46594V9.47245V9.47899V9.48554V9.49212V9.49872V9.50534V9.51198V9.51864V9.52533V9.53203V9.53876V9.54551V9.55228V9.55907V9.56588V9.57271V9.57957V9.58644V9.59334V9.60026V9.6072V9.61416V9.62114V9.62814V9.63516V9.64221V9.64927V9.65636V9.66347V9.67059V9.67774V9.68491V9.6921V9.69931V9.70655V9.7138V9.72107V9.72837V9.73568V9.74302V9.75038V9.75775V9.76515V9.77257V9.78001V9.78747V9.79495V9.80246V9.80998V9.81752V9.82509V9.83267V9.84027V9.8479V9.85554V9.86321V9.8709V9.8786V9.88633V9.89408V9.90185V9.90964V9.91744V9.92527V9.93312V9.94099V9.94888V9.95679V9.96472V9.97267V9.98065V9.98864V9.99665V10.0047V10.0127V10.0208V10.0289V10.037V10.0451V10.0533V10.0615V10.0697V10.0779V10.0861V10.0943V10.1026V10.1109V10.1192V10.1276V10.1359V10.1443V10.1527V10.1611V10.1695V10.178V10.1864V10.1949V10.2034V10.212V10.2205V10.2291V10.2377V10.2463V10.2549V10.2635V10.2722V10.2809V10.2896V10.2983V10.3071V10.3158V10.3246V10.3334V10.3422V10.3511V10.3599V10.3688V10.3777V10.3866V10.3956V10.4045V10.4135V10.4225V10.4315V10.4406V10.4496V10.4587V10.4678V10.4769V10.486V10.4952V10.5043V10.5135V10.5227V10.532V10.5412V10.5505V10.5598V10.5691V10.5784V10.5877V10.5971V10.6065V10.6158V10.6253V10.6347V10.6441V10.6536V10.6631V10.6726V10.6821V10.6917V10.7013V10.7108V10.7204V10.7301V10.7397V10.7494V10.759V10.7687V10.7785V10.7882V10.7979V10.8077V10.8175V10.8273V10.8371V10.847V10.8568V10.8667V10.8766V10.8865V10.8965V10.9064V10.9164V10.9264V10.9364V10.9464V10.9565V10.9665V10.9766V10.9867V10.9968V11.007V11.0171V11.0273V11.0375V11.0477V11.0579V11.0682V11.0784V11.0887V11.099V11.1093V11.1196V11.13V11.1404V11.1508V11.1612V11.1716V11.182V11.1925V11.203V11.2135V11.224V11.2345V11.2451V11.2556V11.2662V11.2768V11.2874V11.2981V11.3087V11.3194V11.3301V11.3408V11.3515V11.3622V11.373V11.3838V11.3946V11.4054V11.4162V11.4271V11.4379V11.4488V11.4597V11.4706V11.4816V11.4925V11.5035V11.5145V11.5255V11.5365V11.5475V11.5586V11.5697V11.5807V11.5918V11.603V11.6141V11.6253V11.6364V11.6476V11.6588V11.6701V11.6813V11.6926V11.7038V11.7151V11.7264V11.7378V11.7491V11.7605V11.7719V11.7833V11.7947V11.8061V11.8175V11.829V11.8405V11.852V11.8635V11.875V11.8866V11.8981V11.9097V11.9213V11.9329V11.9445V11.9562V11.9678V11.9795V11.9912V12.0029V12.0146V12.0264V12.0382V12.0499V12.0617V12.0735V12.0854V12.0972V12.1091V12.1209V12.1328V12.1447V12.1567V12.1686V12.1805V12.1925V12.2045V12.2165V12.2285V12.2406V12.2526V12.2647V12.2768V12.2889V12.301V12.3131V12.3253V12.3374V12.3496V12.3618V12.374V12.3863V12.3985V12.4108V12.423V12.4353V12.4476V12.46V12.4723V12.4847V12.497V12.5094V12.5218V12.5342V12.5467V12.5591V12.5716V12.5841V12.5966V12.6091V12.6216V12.6341V12.6467V12.6593V12.6719V12.6845V12.6971V12.7097V12.7224V12.735V12.7477V12.7604V12.7731V12.7859V12.7986V12.8114V12.8241V12.8369V12.8497V12.8626V12.8754V12.8882V12.9011V12.914V12.9269V12.9398V12.9527V12.9657V12.9786V12.9916V13.0046V13.0176V13.0306V13.0436V13.0567V13.0697V13.0828V13.0959V13.109V13.1221V13.1353V13.1484V13.1616V13.1747V13.1879V13.2011V13.2144V13.2276V13.2409V13.2541V13.2674V13.2807V13.294V13.3073V13.3207V13.334V13.3474V13.3608V13.3742V13.3876V13.401V13.4145V13.4279V13.4414V13.4549V13.4684V13.4819V13.4954V13.509V13.5225V13.5361V13.5497V13.5633V13.5769V13.5905V13.6042V13.6178V13.6315V13.6452V13.6589V13.6726V13.6863V13.7001V13.7138V13.7276V13.7414V13.7552V13.769V13.7828V13.7966V13.8105V13.8244V13.8383V13.8521V13.8661V13.88V13.8939V13.9079V13.9218V13.9358V13.9498V13.9638V13.9778V13.9919V14H39.9455H39.8803H39.8149H39.7495H39.6841H39.6185H39.553H39.4873H39.4216H39.3559H39.29H39.2242H39.1582H39.0923H39.0262H38.9601H38.894H38.8278H38.7616H38.6953H38.629H38.5626H38.4962H38.4297H38.3632H38.2966H38.23H38.1634H38.0967H38.03H37.9633H37.8965H37.8297H37.7628H37.6959H37.629H37.562H37.495H37.428H37.361H37.2939H37.2268H37.1597H37.0925H37.0253H36.9581H36.8909H36.8237H36.7564H36.6891H36.6218H36.5545H36.4872H36.4198H36.3525H36.2851H36.2177H36.1503H36.0829H36.0154H35.948H35.8806H35.8131H35.7457H35.6782H35.6108H35.5433H35.4758H35.4084H35.3409H35.2734H35.206H35.1385H35.071H35.0036H34.9361H34.8687H34.8013H34.7338H34.6664H34.599H34.5316H34.4642H34.3969H34.3295H34.2622H34.1948H34.1275H34.0602H33.993H33.9257H33.8585H33.7913H33.7241H33.6569H33.5898H33.5227H33.4556H33.3886H33.3215H33.2545H33.1876H33.1206H33.0537H32.9869H32.92H32.8532H32.7865H32.7197H32.6531H32.5864H32.5198H32.4532H32.3867H32.3202H32.2538H32.1874H32.121H32.0547H31.9885H31.9223H31.8561H31.79H31.724H31.658H31.592H31.5262H31.4603H31.3945H31.3288H31.2632H31.1976H31.132H31.0665H31.0011H30.9358H30.8705H30.8052H30.7401H30.675H30.61H30.545H30.4801H30.4153H30.3506H30.2859H30.2213H30.1568H30.0923H30.028H29.9637H29.8994H29.8353H29.7713H29.7073H29.6434H29.5796H29.5159H29.4522H29.3887H29.3252H29.2618H29.1986H29.1354H29.0723H29.0092H28.9463H28.8835H28.8208H28.7581H28.6956H28.6332H28.5708H28.5086H28.4464H28.3844H28.3225H28.2606H28.1989H28.1373H28.0758H28.0143H27.953H27.8919H27.8308H27.7698H27.7089H27.6482H27.5876H27.5271H27.4667H27.4064H27.3462H27.2862H27.2262H27.1664H27.1067H27.0472H26.9877H26.9284H26.8692H26.8102H26.7513H26.6925H26.6338H26.5752H26.5168H26.4585H26.4004H26.3424H26.2845H26.2268H26.1692H26.1117H26.0544H25.9972H25.9401H25.8832H25.8265H25.7699H25.7134H25.6571H25.6009H25.5448H25.489H25.4332H25.3776H25.3222H25.2669H25.2118H25.1568H25.102H25.0474H24.9929H24.9385H24.8843H24.8303H24.7764H24.7227H24.6692H24.6158H24.5626H24.5096H24.4567H24.404H24.3515H24.2991H24.2469H24.1949H24.143H24.0913H24.0398H23.9885H23.9373H23.8864H23.8356H23.7849H23.7345H23.6842H23.6342H23.5843H23.5346H23.4851H23.4357H23.3866H23.3376H23.2888H23.2403H23.1919H23.1437H23.0957H23.0478H23.0002H22.9528H22.9056H22.8586H22.8117H22.7651H22.7187H22.6724H22.6264H22.5806H22.535H22.4896H22.4444H22.3994H22.3546H22.31H22.2656H22.2215H22.1775H22.1338H22.0903H22.047H22.0039H21.961H21.9183H21.8759H21.8337H21.7917H21.7499H21.7084H21.667H21.6259H21.5851H21.5444H21.504H21.4638H21.4238H21.3841H21.3446H21.3053H21.2663H21.2275H21.1889H21.1506H21.1125H21.0746H21.037H20.9996H20.9625H20.9256H20.8889H20.8525H20.8163H20.7804H20.7448H20.7093H20.6742H20.6392H20.6045H20.5701H20.5359H20.502H20.4684H20.435H20.4018H20.3689H20.3363H20.3039H20.2718H20.2399H20.2083H20.177H20.1459H20.1151H20.0846H20.0543H20.0243H19.9945H19.9651H19.9359H19.907H19.8783H19.8499H19.8218H19.794H19.7664H19.7392H19.7122H19.6855H19.659H19.6329H19.607H19.5814H19.5561H19.5311H19.5063H19.4819H19.4577H19.4339H19.4103H19.387H19.364H19.3413H19.3189H19.2968H19.2749H19.2534H19.2322H19.2112H19.1906H19.1703H19.1503H19.1305H19.1111C17.1411 14 15.8131 14.8426 15.0109 15.956C14.2454 17.0183 14 18.2633 14 19.1081V33H14H13.9864H13.9729H13.9594H13.9459H13.9324H13.9189H13.9055H13.892H13.8785H13.8651H13.8516H13.8382H13.8247H13.8113H13.7979H13.7845H13.7711H13.7577H13.7443H13.7309H13.7175H13.7041H13.6907H13.6774H13.664H13.6507H13.6373H13.624H13.6107H13.5974H13.5841H13.5708H13.5575H13.5442H13.5309H13.5176H13.5043H13.4911H13.4778H13.4646H13.4513H13.4381H13.4249H13.4117H13.3985H13.3853H13.3721H13.3589H13.3457H13.3325H13.3194H13.3062H13.2931H13.2799H13.2668H13.2537H13.2406H13.2274H13.2143H13.2012H13.1882H13.1751H13.162H13.1489H13.1359H13.1228H13.1098H13.0968H13.0837H13.0707H13.0577H13.0447H13.0317H13.0187H13.0058H12.9928H12.9798H12.9669H12.9539H12.941H12.9281H12.9152H12.9023H12.8893H12.8765H12.8636H12.8507H12.8378H12.825H12.8121H12.7993H12.7864H12.7736H12.7608H12.748H12.7352H12.7224H12.7096H12.6968H12.684H12.6713H12.6585H12.6458H12.633H12.6203H12.6076H12.5949H12.5822H12.5695H12.5568H12.5441H12.5315H12.5188H12.5062H12.4935H12.4809H12.4683H12.4556H12.443H12.4305H12.4179H12.4053H12.3927H12.3802H12.3676H12.3551H12.3425H12.33H12.3175H12.305H12.2925H12.28H12.2675H12.2551H12.2426H12.2301H12.2177H12.2053H12.1929H12.1804H12.168H12.1556H12.1433H12.1309H12.1185H12.1062H12.0938H12.0815H12.0691H12.0568H12.0445H12.0322H12.0199H12.0076H11.9954H11.9831H11.9708H11.9586H11.9464H11.9341H11.9219H11.9097H11.8975H11.8853H11.8732H11.861H11.8488H11.8367H11.8246H11.8124H11.8003H11.7882H11.7761H11.764H11.752H11.7399H11.7278H11.7158H11.7038H11.6917H11.6797H11.6677H11.6557H11.6437H11.6317H11.6198H11.6078H11.5959H11.5839H11.572H11.5601H11.5482H11.5363H11.5244H11.5125H11.5007H11.4888H11.477H11.4652H11.4533H11.4415H11.4297H11.4179H11.4061H11.3944H11.3826H11.3709H11.3591H11.3474H11.3357H11.324H11.3123H11.3006H11.2889H11.2773H11.2656H11.254H11.2423H11.2307H11.2191H11.2075H11.1959H11.1844H11.1728H11.1612H11.1497H11.1382H11.1266H11.1151H11.1036H11.0921H11.0807H11.0692H11.0577H11.0463H11.0349H11.0234H11.012H11.0006H10.9892H10.9779H10.9665H10.9551H10.9438H10.9325H10.9211H10.9098H10.8985H10.8872H10.876H10.8647H10.8535H10.8422H10.831H10.8198H10.8086H10.7974H10.7862H10.775H10.7638H10.7527H10.7416H10.7304H10.7193H10.7082H10.6971H10.686H10.675H10.6639H10.6529H10.6419H10.6308H10.6198H10.6088H10.5978H10.5869H10.5759H10.565H10.554H10.5431H10.5322H10.5213H10.5104H10.4995H10.4887H10.4778H10.467H10.4561H10.4453H10.4345H10.4237H10.4129H10.4022H10.3914H10.3807H10.37H10.3592H10.3485H10.3378H10.3272H10.3165H10.3058H10.2952H10.2846H10.2739H10.2633H10.2527H10.2422H10.2316H10.221H10.2105H10.2H10.1894H10.1789H10.1684H10.158H10.1475H10.137H10.1266H10.1162H10.1057H10.0953H10.0849H10.0746H10.0642H10.0538H10.0435H10.0332H10.0229H10.0126H10.0023H9.992H9.98174H9.97149H9.96125H9.95103H9.94082H9.93062H9.92044H9.91027H9.90011H9.88997H9.87984H9.86972H9.85961H9.84952H9.83944H9.82938H9.81933H9.80929H9.79926H9.78925H9.77925H9.76927H9.7593H9.74934H9.73939H9.72946H9.71955H9.70964H9.69975H9.68987H9.68001H9.67016H9.66032H9.6505H9.64069H9.6309H9.62112H9.61135H9.60159H9.59185H9.58213H9.57242H9.56272H9.55303H9.54336H9.5337H9.52406H9.51443H9.50481H9.49521H9.48562H9.47605H9.46649H9.45694H9.44741H9.4379H9.42839H9.4189H9.40943H9.39997H9.39052H9.38109H9.37167H9.36226H9.35287H9.3435H9.33413H9.32479H9.31545H9.30613H9.29683H9.28754H9.27826H9.269H9.25976H9.25052H9.24131H9.2321H9.22291H9.21374H9.20458H9.19543H9.1863H9.17719H9.16809H9.159H9.14993H9.14087H9.13183H9.1228H9.11378H9.10478H9.0958H9.08683H9.07788H9.06894H9.06001H9.0511H9.04221H9.03333H9.02446H9.01561H9.00678H8.99796H8.98915H8.98036H8.97159H8.96283H8.95408H8.94535H8.93664H8.92794H8.91925H8.91059H8.90193H8.89329H8.88467H8.87606H8.86747H8.85889H8.85033H8.84178H8.83325H8.82473H8.81623H8.80775H8.79928H8.79082H8.78238H8.77396H8.76555H8.75716H8.74878H8.74042H8.73207H8.72374H8.71543H8.70713H8.69884H8.69058H8.68232H8.67409H8.66587H8.65766H8.64947H8.6413H8.63314H8.625C7.93679 33 7.01912 32.8769 6.29826 32.3847C5.64589 31.9392 5 31.0872 5 29.2632V8.21053ZM14 35H14H13.9864H13.9729H13.9594H13.9459H13.9324H13.9189H13.9055H13.892H13.8785H13.8651H13.8516H13.8382H13.8247H13.8113H13.7979H13.7845H13.7711H13.7577H13.7443H13.7309H13.7175H13.7041H13.6907H13.6774H13.664H13.6507H13.6373H13.624H13.6107H13.5974H13.5841H13.5708H13.5575H13.5442H13.5309H13.5176H13.5043H13.4911H13.4778H13.4646H13.4513H13.4381H13.4249H13.4117H13.3985H13.3853H13.3721H13.3589H13.3457H13.3325H13.3194H13.3062H13.2931H13.2799H13.2668H13.2537H13.2406H13.2274H13.2143H13.2012H13.1882H13.1751H13.162H13.1489H13.1359H13.1228H13.1098H13.0968H13.0837H13.0707H13.0577H13.0447H13.0317H13.0187H13.0058H12.9928H12.9798H12.9669H12.9539H12.941H12.9281H12.9152H12.9023H12.8893H12.8765H12.8636H12.8507H12.8378H12.825H12.8121H12.7993H12.7864H12.7736H12.7608H12.748H12.7352H12.7224H12.7096H12.6968H12.684H12.6713H12.6585H12.6458H12.633H12.6203H12.6076H12.5949H12.5822H12.5695H12.5568H12.5441H12.5315H12.5188H12.5062H12.4935H12.4809H12.4683H12.4556H12.443H12.4305H12.4179H12.4053H12.3927H12.3802H12.3676H12.3551H12.3425H12.33H12.3175H12.305H12.2925H12.28H12.2675H12.2551H12.2426H12.2301H12.2177H12.2053H12.1929H12.1804H12.168H12.1556H12.1433H12.1309H12.1185H12.1062H12.0938H12.0815H12.0691H12.0568H12.0445H12.0322H12.0199H12.0076H11.9954H11.9831H11.9708H11.9586H11.9464H11.9341H11.9219H11.9097H11.8975H11.8853H11.8732H11.861H11.8488H11.8367H11.8246H11.8124H11.8003H11.7882H11.7761H11.764H11.752H11.7399H11.7278H11.7158H11.7038H11.6917H11.6797H11.6677H11.6557H11.6437H11.6317H11.6198H11.6078H11.5959H11.5839H11.572H11.5601H11.5482H11.5363H11.5244H11.5125H11.5007H11.4888H11.477H11.4652H11.4533H11.4415H11.4297H11.4179H11.4061H11.3944H11.3826H11.3709H11.3591H11.3474H11.3357H11.324H11.3123H11.3006H11.2889H11.2773H11.2656H11.254H11.2423H11.2307H11.2191H11.2075H11.1959H11.1844H11.1728H11.1612H11.1497H11.1382H11.1266H11.1151H11.1036H11.0921H11.0807H11.0692H11.0577H11.0463H11.0349H11.0234H11.012H11.0006H10.9892H10.9779H10.9665H10.9551H10.9438H10.9325H10.9211H10.9098H10.8985H10.8872H10.876H10.8647H10.8535H10.8422H10.831H10.8198H10.8086H10.7974H10.7862H10.775H10.7638H10.7527H10.7416H10.7304H10.7193H10.7082H10.6971H10.686H10.675H10.6639H10.6529H10.6419H10.6308H10.6198H10.6088H10.5978H10.5869H10.5759H10.565H10.554H10.5431H10.5322H10.5213H10.5104H10.4995H10.4887H10.4778H10.467H10.4561H10.4453H10.4345H10.4237H10.4129H10.4022H10.3914H10.3807H10.37H10.3592H10.3485H10.3378H10.3272H10.3165H10.3058H10.2952H10.2846H10.2739H10.2633H10.2527H10.2422H10.2316H10.221H10.2105H10.2H10.1894H10.1789H10.1684H10.158H10.1475H10.137H10.1266H10.1162H10.1057H10.0953H10.0849H10.0746H10.0642H10.0538H10.0435H10.0332H10.0229H10.0126H10.0023H9.992H9.98174H9.97149H9.96125H9.95103H9.94082H9.93062H9.92044H9.91027H9.90011H9.88997H9.87984H9.86972H9.85961H9.84952H9.83944H9.82938H9.81933H9.80929H9.79926H9.78925H9.77925H9.76927H9.7593H9.74934H9.73939H9.72946H9.71955H9.70964H9.69975H9.68987H9.68001H9.67016H9.66032H9.6505H9.64069H9.6309H9.62112H9.61135H9.60159H9.59185H9.58213H9.57242H9.56272H9.55303H9.54336H9.5337H9.52406H9.51443H9.50481H9.49521H9.48562H9.47605H9.46649H9.45694H9.44741H9.4379H9.42839H9.4189H9.40943H9.39997H9.39052H9.38109H9.37167H9.36226H9.35287H9.3435H9.33413H9.32479H9.31545H9.30613H9.29683H9.28754H9.27826H9.269H9.25976H9.25052H9.24131H9.2321H9.22291H9.21374H9.20458H9.19543H9.1863H9.17719H9.16809H9.159H9.14993H9.14087H9.13183H9.1228H9.11378H9.10478H9.0958H9.08683H9.07788H9.06894H9.06001H9.0511H9.04221H9.03333H9.02446H9.01561H9.00678H8.99796H8.98915H8.98036H8.97159H8.96283H8.95408H8.94535H8.93664H8.92794H8.91925H8.91059H8.90193H8.89329H8.88467H8.87606H8.86747H8.85889H8.85033H8.84178H8.83325H8.82473H8.81623H8.80775H8.79928H8.79082H8.78238H8.77396H8.76555H8.75716H8.74878H8.74042H8.73207H8.72374H8.71543H8.70713H8.69884H8.69058H8.68232H8.67409H8.66587H8.65766H8.64947H8.6413H8.63314H8.625C7.77154 35 6.37671 34.86 5.17049 34.0364C3.89578 33.166 3 31.6496 3 29.2632V8.21053C3 7.3535 3.24299 6.08656 4.00414 5.00384C4.80195 3.86899 6.13056 3 8.11111 3H8.13053H8.15026H8.17029H8.19062H8.21125H8.23218H8.25341H8.27493H8.29675H8.31887H8.34128H8.36399H8.38699H8.41028H8.43386H8.45773H8.48189H8.50634H8.53108H8.5561H8.5814H8.60699H8.63287H8.65902H8.68546H8.71217H8.73917H8.76644H8.794H8.82182H8.84993H8.87831H8.90696H8.93588H8.96508H8.99454H9.02428H9.05428H9.08456H9.1151H9.1459H9.17697H9.20831H9.2399H9.27176H9.30388H9.33626H9.3689H9.4018H9.43495H9.46836H9.50203H9.53595H9.57012H9.60455H9.63923H9.67415H9.70933H9.74476H9.78043H9.81635H9.85252H9.88893H9.92558H9.96248H9.99962H10.037H10.0746H10.1125H10.1506H10.1889H10.2275H10.2663H10.3053H10.3446H10.3841H10.4238H10.4638H10.504H10.5444H10.5851H10.6259H10.667H10.7084H10.7499H10.7917H10.8337H10.8759H10.9183H10.961H11.0039H11.047H11.0903H11.1338H11.1775H11.2215H11.2656H11.31H11.3546H11.3994H11.4444H11.4896H11.535H11.5806H11.6264H11.6724H11.7187H11.7651H11.8117H11.8586H11.9056H11.9528H12.0002H12.0478H12.0957H12.1437H12.1919H12.2403H12.2888H12.3376H12.3866H12.4357H12.4851H12.5346H12.5843H12.6342H12.6842H12.7345H12.7849H12.8356H12.8864H12.9373H12.9885H13.0398H13.0913H13.143H13.1949H13.2469H13.2991H13.3515H13.404H13.4567H13.5096H13.5626H13.6158H13.6692H13.7227H13.7764H13.8303H13.8843H13.9385H13.9929H14.0474H14.102H14.1568H14.2118H14.2669H14.3222H14.3776H14.4332H14.489H14.5448H14.6009H14.6571H14.7134H14.7699H14.8265H14.8832H14.9401H14.9972H15.0544H15.1117H15.1692H15.2268H15.2845H15.3424H15.4004H15.4585H15.5168H15.5752H15.6338H15.6925H15.7513H15.8102H15.8692H15.9284H15.9877H16.0472H16.1067H16.1664H16.2262H16.2862H16.3462H16.4064H16.4667H16.5271H16.5876H16.6482H16.7089H16.7698H16.8308H16.8919H16.953H17.0143H17.0758H17.1373H17.1989H17.2606H17.3225H17.3844H17.4464H17.5086H17.5708H17.6332H17.6956H17.7581H17.8208H17.8835H17.9463H18.0092H18.0723H18.1354H18.1986H18.2618H18.3252H18.3887H18.4522H18.5159H18.5796H18.6434H18.7073H18.7713H18.8353H18.8994H18.9637H19.028H19.0923H19.1568H19.2213H19.2859H19.3506H19.4153H19.4801H19.545H19.61H19.675H19.7401H19.8052H19.8705H19.9358H20.0011H20.0665H20.132H20.1976H20.2632H20.3288H20.3945H20.4603H20.5262H20.592H20.658H20.724H20.79H20.8561H20.9223H20.9885H21.0547H21.121H21.1874H21.2538H21.3202H21.3867H21.4532H21.5198H21.5864H21.6531H21.7197H21.7865H21.8532H21.92H21.9869H22.0537H22.1206H22.1876H22.2545H22.3215H22.3886H22.4556H22.5227H22.5898H22.6569H22.7241H22.7913H22.8585H22.9257H22.993H23.0602H23.1275H23.1948H23.2622H23.3295H23.3969H23.4642H23.5316H23.599H23.6664H23.7338H23.8013H23.8687H23.9361H24.0036H24.071H24.1385H24.206H24.2734H24.3409H24.4084H24.4758H24.5433H24.6108H24.6782H24.7457H24.8131H24.8806H24.948H25.0155H25.0829H25.1503H25.2177H25.2851H25.3525H25.4198H25.4872H25.5545H25.6218H25.6891H25.7564H25.8237H25.8909H25.9581H26.0253H26.0925H26.1597H26.2268H26.2939H26.361H26.428H26.495H26.562H26.629H26.6959H26.7628H26.8297H26.8965H26.9633H27.03H27.0967H27.1634H27.23H27.2966H27.3632H27.4297H27.4962H27.5626H27.629H27.6953H27.7616H27.8278H27.894H27.9601H28.0262H28.0923H28.1582H28.2242H28.29H28.3559H28.4216H28.4873H28.553H28.6185H28.6841H28.7495H28.8149H28.8803H28.9455H29.0107H29.0759H29.1409H29.2059H29.2709H29.3357H29.4005H29.4652H29.5299H29.5945H29.659H29.7234H29.7877H29.852H29.9162H29.9803H30.0443H30.1083H30.1721H30.2359H30.2996H30.3632H30.4267H30.4902H30.5535H30.6168H30.6799H30.743H30.806H30.8689H30.9317H30.9944H31.057H31.1195H31.1819H31.2442H31.3064H31.3685H31.4305H31.4924H31.5542H31.6159H31.6775H31.739H31.8004H31.8616H31.9228H31.9838H32.0448H32.1056H32.1663H32.2269H32.2874H32.3477H32.408H32.4681H32.5281H32.588H32.6477H32.7074H32.7669H32.8263H32.8856H32.9447H33.0037H33.0626H33.1214H33.18H33.2385H33.2969H33.3551H33.4132H33.4712H33.529H33.5867H33.6443H33.7017H33.759H33.8161H33.8731H33.93H33.9867H34.0433H34.0997H34.156H34.2121H34.2681H34.3239H34.3796H34.4351H34.4905H34.5457H34.6008H34.6557H34.7105H34.7651H34.8196H34.8739H34.928H34.982H35.0358H35.0894H35.1429H35.1962H35.2494H35.3024H35.3552H35.4078H35.4603H35.5126H35.5648H35.6167H35.6685H35.7202H35.7716H35.8229H35.874H35.9249H35.9756H36.0262H36.0766H36.1268H36.1768H36.2266H36.2763H36.3257H36.375C37.5545 3 38.9778 3.30017 40.1181 4.30112C41.2844 5.32503 42 6.94535 42 9.26316V9.26895V9.27477V9.28061V9.28647V9.29235V9.29826V9.30419V9.31013V9.31611V9.3221V9.32811V9.33415V9.34021V9.34629V9.35239V9.35851V9.36466V9.37083V9.37702V9.38323V9.38946V9.39572V9.40199V9.40829V9.41461V9.42095V9.42731V9.4337V9.4401V9.44653V9.45298V9.45945V9.46594V9.47245V9.47899V9.48554V9.49212V9.49872V9.50534V9.51198V9.51864V9.52533V9.53203V9.53876V9.54551V9.55228V9.55907V9.56588V9.57271V9.57957V9.58644V9.59334V9.60026V9.6072V9.61416V9.62114V9.62814V9.63516V9.64221V9.64927V9.65636V9.66347V9.67059V9.67774V9.68491V9.6921V9.69931V9.70655V9.7138V9.72107V9.72837V9.73568V9.74302V9.75038V9.75775V9.76515V9.77257V9.78001V9.78747V9.79495V9.80246V9.80998V9.81752V9.82509V9.83267V9.84027V9.8479V9.85554V9.86321V9.8709V9.8786V9.88633V9.89408V9.90185V9.90964V9.91744V9.92527V9.93312V9.94099V9.94888V9.95679V9.96472V9.97267V9.98065V9.98864V9.99665V10.0047V10.0127V10.0208V10.0289V10.037V10.0451V10.0533V10.0615V10.0697V10.0779V10.0861V10.0943V10.1026V10.1109V10.1192V10.1276V10.1359V10.1443V10.1527V10.1611V10.1695V10.178V10.1864V10.1949V10.2034V10.212V10.2205V10.2291V10.2377V10.2463V10.2549V10.2635V10.2722V10.2809V10.2896V10.2983V10.3071V10.3158V10.3246V10.3334V10.3422V10.3511V10.3599V10.3688V10.3777V10.3866V10.3956V10.4045V10.4135V10.4225V10.4315V10.4406V10.4496V10.4587V10.4678V10.4769V10.486V10.4952V10.5043V10.5135V10.5227V10.532V10.5412V10.5505V10.5598V10.5691V10.5784V10.5877V10.5971V10.6065V10.6158V10.6253V10.6347V10.6441V10.6536V10.6631V10.6726V10.6821V10.6917V10.7013V10.7108V10.7204V10.7301V10.7397V10.7494V10.759V10.7687V10.7785V10.7882V10.7979V10.8077V10.8175V10.8273V10.8371V10.847V10.8568V10.8667V10.8766V10.8865V10.8965V10.9064V10.9164V10.9264V10.9364V10.9464V10.9565V10.9665V10.9766V10.9867V10.9968V11.007V11.0171V11.0273V11.0375V11.0477V11.0579V11.0682V11.0784V11.0887V11.099V11.1093V11.1196V11.13V11.1404V11.1508V11.1612V11.1716V11.182V11.1925V11.203V11.2135V11.224V11.2345V11.2451V11.2556V11.2662V11.2768V11.2874V11.2981V11.3087V11.3194V11.3301V11.3408V11.3515V11.3622V11.373V11.3838V11.3946V11.4054V11.4162V11.4271V11.4379V11.4488V11.4597V11.4706V11.4816V11.4925V11.5035V11.5145V11.5255V11.5365V11.5475V11.5586V11.5697V11.5807V11.5918V11.603V11.6141V11.6253V11.6364V11.6476V11.6588V11.6701V11.6813V11.6926V11.7038V11.7151V11.7264V11.7378V11.7491V11.7605V11.7719V11.7833V11.7947V11.8061V11.8175V11.829V11.8405V11.852V11.8635V11.875V11.8866V11.8981V11.9097V11.9213V11.9329V11.9445V11.9562V11.9678V11.9795V11.9912V12.0029V12.0146V12.0264V12.0382V12.0499V12.0617V12.0735V12.0854V12.0972V12.1091V12.1209V12.1328V12.1447V12.1567V12.1686V12.1805V12.1925V12.2045V12.2165V12.2285V12.2406V12.2526V12.2647V12.2768V12.2889V12.301V12.3131V12.3253V12.3374V12.3496V12.3618V12.374V12.3863V12.3985V12.4108V12.423V12.4353V12.4476V12.46V12.4723V12.4847V12.497V12.5094V12.5218V12.5342V12.5467V12.5591V12.5716V12.5841V12.5966V12.6091V12.6216V12.6341V12.6467V12.6593V12.6719V12.6845V12.6971V12.7097V12.7224V12.735V12.7477V12.7604V12.7731V12.7859V12.7986V12.8114V12.8241V12.8369V12.8497V12.8626V12.8754V12.8882V12.9011V12.914V12.9269V12.9398V12.9527V12.9657V12.9786V12.9916V13.0046V13.0176V13.0306V13.0436V13.0567V13.0697V13.0828V13.0959V13.109V13.1221V13.1353V13.1484V13.1616V13.1747V13.1879V13.2011V13.2144V13.2276V13.2409V13.2541V13.2674V13.2807V13.294V13.3073V13.3207V13.334V13.3474V13.3608V13.3742V13.3876V13.401V13.4145V13.4279V13.4414V13.4549V13.4684V13.4819V13.4954V13.509V13.5225V13.5361V13.5497V13.5633V13.5769V13.5905V13.6042V13.6178V13.6315V13.6452V13.6589V13.6726V13.6863V13.7001V13.7138V13.7276V13.7414V13.7552V13.769V13.7828V13.7966V13.8105V13.8244V13.8383V13.8521V13.8661V13.88V13.8939V13.9079V13.9218V13.9358V13.9498V13.9638V13.9778V13.9919V14H42.057H42.1195H42.1819H42.2442H42.3064H42.3685H42.4305H42.4924H42.5542H42.6159H42.6775H42.739H42.8004H42.8616H42.9228H42.9838H43.0448H43.1056H43.1663H43.2269H43.2874H43.3477H43.408H43.4681H43.5281H43.588H43.6477H43.7074H43.7669H43.8263H43.8856H43.9447H44.0037H44.0626H44.1214H44.18H44.2385H44.2969H44.3551H44.4132H44.4712H44.529H44.5867H44.6443H44.7017H44.759H44.8161H44.8731H44.93H44.9867H45.0433H45.0997H45.156H45.2121H45.2681H45.3239H45.3796H45.4351H45.4905H45.5457H45.6008H45.6557H45.7105H45.7651H45.8196H45.8739H45.928H45.982H46.0358H46.0894H46.1429H46.1962H46.2494H46.3024H46.3552H46.4078H46.4603H46.5126H46.5648H46.6167H46.6685H46.7202H46.7716H46.8229H46.874H46.9249H46.9756H47.0262H47.0766H47.1268H47.1768H47.2266H47.2763H47.3257H47.375C48.549 14 49.9688 14.291 51.1089 15.2675C52.2791 16.2698 53 17.8606 53 20.1351V20.1594V20.1841V20.2091V20.2345V20.2604V20.2866V20.3132V20.3401V20.3675V20.3952V20.4233V20.4518V20.4807V20.5099V20.5395V20.5695V20.5998V20.6305V20.6616V20.6931V20.7249V20.7571V20.7896V20.8225V20.8558V20.8894V20.9233V20.9577V20.9923V21.0274V21.0627V21.0985V21.1346V21.171V21.2077V21.2449V21.2823V21.3201V21.3582V21.3967V21.4355V21.4747V21.5141V21.5539V21.5941V21.6346V21.6754V21.7165V21.7579V21.7997V21.8418V21.8842V21.927V21.97V22.0134V22.0571V22.1011V22.1454V22.1901V22.235V22.2803V22.3258V22.3717V22.4179V22.4643V22.5111V22.5582V22.6056V22.6532V22.7012V22.7495V22.7981V22.8469V22.8961V22.9455V22.9952V23.0452V23.0955V23.1461V23.197V23.2481V23.2995V23.3512V23.4032V23.4555V23.508V23.5608V23.6139V23.6673V23.7209V23.7748V23.8289V23.8833V23.938V23.993V24.0482V24.1036V24.1594V24.2153V24.2716V24.3281V24.3848V24.4418V24.499V24.5565V24.6143V24.6722V24.7305V24.789V24.8477V24.9066V24.9658V25.0252V25.0849V25.1448V25.2049V25.2653V25.3259V25.3867V25.4478V25.5091V25.5706V25.6323V25.6943V25.7564V25.8188V25.8814V25.9443V26.0073V26.0706V26.134V26.1977V26.2616V26.3257V26.39V26.4545V26.5192V26.5842V26.6493V26.7146V26.7801V26.8458V26.9118V26.9779V27.0442V27.1107V27.1773V27.2442V27.3113V27.3785V27.446V27.5136V27.5814V27.6494V27.7175V27.7859V27.8544V27.9231V27.992V28.061V28.1302V28.1996V28.2691V28.3389V28.4087V28.4788V28.549V28.6194V28.6899V28.7606V28.8314V28.9024V28.9736V29.0449V29.1164V29.188V29.2598V29.3317V29.4037V29.476V29.5483V29.6208V29.6934V29.7662V29.8391V29.9122V29.9853V30.0587V30.1321V30.2057V30.2794V30.3533V30.4272V30.5013V30.5755V30.6499V30.7243V30.7989V30.8736V30.9485V31.0234V31.0984V31.1736V31.2489V31.3243V31.3998V31.4754V31.5511V31.6269V31.7028V31.7789V31.855V31.9312V32.0075V32.084V32.1605V32.2371V32.3138V32.3906V32.4675V32.5444V32.6215V32.6987V32.7759V32.8532V32.9306V33.0081V33.0856V33.1633V33.241V33.3188V33.3966V33.4746V33.5526V33.6306V33.7088V33.787V33.8653V33.9436V34.022V34.1005V34.179V34.2576V34.3362V34.4149V34.4936V34.5724V34.6513V34.7302V34.8091V34.8881V34.9672V35.0463V35.1254V35.2046V35.2838V35.363V35.4423V35.5217V35.601V35.6804V35.7598V35.8393V35.9188V35.9983V36.0779V36.1574V36.237V36.3166V36.3963V36.4759V36.5556V36.6353V36.715V36.7947V36.8745V36.9542V37.034V37.1137V37.1935V37.2733V37.3531V37.4328V37.5126V37.5924V37.6722V37.752V37.8318V37.9116V37.9913V38.0711V38.1509V38.2306V38.3103V38.3901V38.4698V38.5495V38.6291V38.7088V38.7884V38.868V38.9476V39.0272V39.1067V39.1863V39.2657V39.3452V39.4246V39.504V39.5834V39.6627V39.742V39.8212V39.9004V39.9796V40.0587V40.1378V40.2169V40.2958V40.3748V40.4537V40.5325V40.6113V40.6901V40.7687V40.8474V40.9259V41.0045V41.0829V41.1613V41.2396V41.3179V41.3961V41.4742V41.5523V41.6303V41.7082V41.7861V41.8639V41.9416V42.0192V42.0967V42.1742V42.2516V42.3289V42.4061V42.4833V42.5603V42.6373V42.7142V42.7909V42.8676V42.9442V43.0207V43.0972V43.1735V43.2497V43.3258V43.4018V43.4777V43.5535V43.6292V43.7048V43.7803V43.8557V43.931V44.0061V44.0812V44.1561V44.2309V44.3056V44.3801V44.4546V44.5289V44.6031V44.6772V44.7512V44.825V44.8987V44.9723V45.0457V45.119V45.1922V45.2652V45.3381V45.4109V45.4835V45.556V45.6283V45.7005V45.7725V45.8444V45.9162V45.9878V46.0592V46.1305V46.2017V46.2726V46.3435V46.4142V46.4847V46.555V46.6252V46.6952V46.7651V46.8348V46.9043V46.9737V47.0429V47.1119V47.1808V47.2494V47.3179V47.3862V47.4544V47.5224V47.5901V47.6577V47.7251V47.7924V47.8594V47.9263V47.9929V48.0594V48.1257V48.1918V48.2577V48.3234V48.3889V48.4542V48.5193V48.5842V48.6489V48.7134V48.7776V48.8417V48.9056V48.9692V49.0327V49.0959V49.1589V49.2217V49.2843V49.3467V49.4088V49.4708V49.5325V49.594V49.6552V49.7162V49.777V49.8376V49.898V49.9581V50.0179V50.0776V50.137V50.1962V50.2551V50.3138V50.3722V50.4304V50.4884V50.5461V50.6035V50.6608V50.7177V50.7744V50.8309V50.8871V50.9431V50.9987V51.0542V51.1094V51.1643V51.2189V51.2733V51.3274V51.3813V51.4349V51.4882V51.5413V51.594V51.6465V51.6988V51.7507V51.8024V51.8538V51.9049V51.9557V52.0063V52.0565V52.1065V52.1562V52.2056V52.2547V52.3036V52.3521V52.4003V52.4483V52.4959V52.5433V52.5903V52.637V52.6835V52.7296V52.7755V52.821V52.8662V52.9111V52.9557V53C53 53.4158 52.7427 53.7882 52.3538 53.9353C51.965 54.0824 51.5256 53.9736 51.2504 53.6619C50.0102 52.2573 47.8075 50.1308 45.2742 48.3642C42.7083 46.5748 39.9659 45.2703 37.6111 45.2703H37.5798H37.5483H37.5168H37.4852H37.4535H37.4218H37.3899H37.358H37.326H37.294H37.2618H37.2296H37.1973H37.165H37.1325H37.1H37.0674H37.0347H37.002H36.9692H36.9363H36.9033H36.8703H36.8372H36.804H36.7708H36.7374H36.704H36.6706H36.6371H36.6035H36.5698H36.536H36.5022H36.4684H36.4344H36.4004H36.3664H36.3322H36.298H36.2637H36.2294H36.195H36.1605H36.126H36.0914H36.0568H36.0221H35.9873H35.9524H35.9175H35.8826H35.8475H35.8125H35.7773H35.7421H35.7069H35.6715H35.6362H35.6007H35.5652H35.5297H35.4941H35.4584H35.4227H35.3869H35.3511H35.3152H35.2792H35.2432H35.2072H35.1711H35.1349H35.0987H35.0625H35.0261H34.9898H34.9534H34.9169H34.8804H34.8438H34.8072H34.7705H34.7338H34.6971H34.6603H34.6234H34.5865H34.5495H34.5125H34.4755H34.4384H34.4013H34.3641H34.3269H34.2896H34.2523H34.2149H34.1775H34.1401H34.1026H34.0651H34.0275H33.9899H33.9523H33.9146H33.8769H33.8391H33.8013H33.7634H33.7255H33.6876H33.6497H33.6117H33.5736H33.5356H33.4975H33.4593H33.4211H33.3829H33.3447H33.3064H33.2681H33.2298H33.1914H33.153H33.1145H33.076H33.0375H32.999H32.9604H32.9218H32.8832H32.8445H32.8059H32.7671H32.7284H32.6896H32.6508H32.612H32.5731H32.5343H32.4954H32.4564H32.4175H32.3785H32.3395H32.3005H32.2614H32.2223H32.1832H32.1441H32.105H32.0658H32.0266H31.9874H31.9482H31.9089H31.8697H31.8304H31.7911H31.7517H31.7124H31.673H31.6336H31.5942H31.5548H31.5154H31.476H31.4365H31.397H31.3575H31.318H31.2785H31.239H31.1994H31.1599H31.1203H31.0807H31.0411H31.0015H30.9619H30.9223H30.8826H30.843H30.8033H30.7637H30.724H30.6843H30.6446H30.6049H30.5652H30.5255H30.4858H30.4461H30.4063H30.3666H30.3269H30.2871H30.2474H30.2076H30.1679H30.1281H30.0883H30.0486H30.0088H29.9691H29.9293H29.8895H29.8498H29.81H29.7702H29.7305H29.6907H29.6509H29.6112H29.5714H29.5317H29.4919H29.4522H29.4124H29.3727H29.333H29.2932H29.2535H29.2138H29.1741H29.1344H29.0947H29.055H29.0153H28.9757H28.936H28.8963H28.8567H28.8171H28.7774H28.7378H28.6982H28.6586H28.6191H28.5795H28.5399H28.5004H28.4609H28.4214H28.3819H28.3424H28.3029H28.2635H28.224H28.1846H28.1452H28.1058H28.0664H28.0271H27.9877H27.9484H27.9091H27.8699H27.8306H27.7914H27.7521H27.7129H27.6738H27.6346H27.5955H27.5564H27.5173H27.4782H27.4392H27.4001H27.3611H27.3222H27.2832H27.2443H27.2054H27.1666H27.1277H27.0889H27.0501H27.0113H26.9726H26.9339H26.8952H26.8566H26.818H26.7794H26.7408H26.7023H26.6638H26.6254H26.5869H26.5485H26.5102H26.4718H26.4335H26.3953H26.3571H26.3189H26.2807H26.2426H26.2045H26.1664H26.1284H26.0904H26.0525H26.0146H25.9767H25.9389H25.9011H25.8634H25.8256H25.788H25.7504H25.7128H25.6752H25.6377H25.6002H25.5628H25.5254H25.4881H25.4508H25.4136H25.3764H25.3392H25.3021H25.265H25.228H25.191H25.1541H25.1172H25.0804H25.0436H25.0069H24.9702H24.9335H24.8969H24.8604H24.8239H24.7874H24.7511H24.7147H24.6784H24.6422H24.606H24.5699H24.5338H24.4978H24.4618H24.4259H24.39H24.3542H24.3185H24.2828H24.2471H24.2115H24.176H24.1405H24.1051H24.0698H24.0345H23.9992H23.9641H23.929H23.8939H23.8589H23.824H23.7891H23.7543H23.7195H23.6848H23.6502H23.6157H23.5812H23.5467H23.5124H23.4781H23.4438H23.4096H23.3755H23.3415H23.3075H23.2736H23.2398H23.206H23.1723H23.1387H23.1051H23.0716H23.0382H23.0048H22.9715H22.9383H22.9052H22.8721H22.8391H22.8062H22.7733H22.7405H22.7078H22.6752H22.6426H22.6101H22.5777H22.5454H22.5131H22.4809H22.4488H22.4168H22.3848H22.353H22.3212H22.2895H22.2578H22.2263H22.1948H22.1634H22.1321H22.1008H22.0697H22.0386H22.0076H21.9767H21.9459H21.9151H21.8845H21.8539H21.8234H21.793H21.7627H21.7324H21.7023H21.6722H21.6422H21.6124H21.5826H21.5528H21.5232H21.4937H21.4642H21.4349H21.4056H21.3764H21.3473H21.3183H21.2894H21.2606H21.2319H21.2033H21.1747H21.1463H21.1179H21.0897H21.0615H21.0334H21.0055H20.9776H20.9498H20.9221H20.8946H20.8671H20.8397H20.8124H20.7852H20.7581H20.7311H20.7042H20.6774H20.6507H20.6241H20.5976H20.5712H20.5449H20.5187H20.4926H20.4666H20.4408H20.415H20.3893H20.3637H20.3383H20.3129H20.2877H20.2625H20.2375H20.2125H20.1877H20.163H20.1384H20.1139H20.0895H20.0652H20.041H20.0169H19.993H19.9691H19.9454H19.9218H19.8983H19.8749H19.8516H19.8284H19.8054H19.7824H19.7596H19.7369H19.7143H19.6918H19.6694H19.6471H19.625C18.7747 45.2703 17.3841 45.1344 16.18 44.3322C14.9042 43.4823 14 41.9943 14 39.6486V35ZM16 19.1081C16 18.5836 16.1657 17.7744 16.6336 17.1251C17.0647 16.5268 17.7923 16 19.1111 16H19.1305H19.1503H19.1703H19.1906H19.2112H19.2322H19.2534H19.2749H19.2968H19.3189H19.3413H19.364H19.387H19.4103H19.4339H19.4577H19.4819H19.5063H19.5311H19.5561H19.5814H19.607H19.6329H19.659H19.6855H19.7122H19.7392H19.7664H19.794H19.8218H19.8499H19.8783H19.907H19.9359H19.9651H19.9945H20.0243H20.0543H20.0846H20.1151H20.1459H20.177H20.2083H20.2399H20.2718H20.3039H20.3363H20.3689H20.4018H20.435H20.4684H20.502H20.5359H20.5701H20.6045H20.6392H20.6742H20.7093H20.7448H20.7804H20.8163H20.8525H20.8889H20.9256H20.9625H20.9996H21.037H21.0746H21.1125H21.1506H21.1889H21.2275H21.2663H21.3053H21.3446H21.3841H21.4238H21.4638H21.504H21.5444H21.5851H21.6259H21.667H21.7084H21.7499H21.7917H21.8337H21.8759H21.9183H21.961H22.0039H22.047H22.0903H22.1338H22.1775H22.2215H22.2656H22.31H22.3546H22.3994H22.4444H22.4896H22.535H22.5806H22.6264H22.6724H22.7187H22.7651H22.8117H22.8586H22.9056H22.9528H23.0002H23.0478H23.0957H23.1437H23.1919H23.2403H23.2888H23.3376H23.3866H23.4357H23.4851H23.5346H23.5843H23.6342H23.6842H23.7345H23.7849H23.8356H23.8864H23.9373H23.9885H24.0398H24.0913H24.143H24.1949H24.2469H24.2991H24.3515H24.404H24.4567H24.5096H24.5626H24.6158H24.6692H24.7227H24.7764H24.8303H24.8843H24.9385H24.9929H25.0474H25.102H25.1568H25.2118H25.2669H25.3222H25.3776H25.4332H25.489H25.5448H25.6009H25.6571H25.7134H25.7699H25.8265H25.8832H25.9401H25.9972H26.0544H26.1117H26.1692H26.2268H26.2845H26.3424H26.4004H26.4585H26.5168H26.5752H26.6338H26.6925H26.7513H26.8102H26.8692H26.9284H26.9877H27.0472H27.1067H27.1664H27.2262H27.2862H27.3462H27.4064H27.4667H27.5271H27.5876H27.6482H27.7089H27.7698H27.8308H27.8919H27.953H28.0143H28.0758H28.1373H28.1989H28.2606H28.3225H28.3844H28.4464H28.5086H28.5708H28.6332H28.6956H28.7581H28.8208H28.8835H28.9463H29.0092H29.0723H29.1354H29.1986H29.2618H29.3252H29.3887H29.4522H29.5159H29.5796H29.6434H29.7073H29.7713H29.8353H29.8994H29.9637H30.028H30.0923H30.1568H30.2213H30.2859H30.3506H30.4153H30.4801H30.545H30.61H30.675H30.7401H30.8052H30.8705H30.9358H31.0011H31.0665H31.132H31.1976H31.2632H31.3288H31.3945H31.4603H31.5262H31.592H31.658H31.724H31.79H31.8561H31.9223H31.9885H32.0547H32.121H32.1874H32.2538H32.3202H32.3867H32.4532H32.5198H32.5864H32.6531H32.7197H32.7865H32.8532H32.92H32.9869H33.0537H33.1206H33.1876H33.2545H33.3215H33.3886H33.4556H33.5227H33.5898H33.6569H33.7241H33.7913H33.8585H33.9257H33.993H34.0602H34.1275H34.1948H34.2622H34.3295H34.3969H34.4642H34.5316H34.599H34.6664H34.7338H34.8013H34.8687H34.9361H35.0036H35.071H35.1385H35.206H35.2734H35.3409H35.4084H35.4758H35.5433H35.6108H35.6782H35.7457H35.8131H35.8806H35.948H36.0154H36.0829H36.1503H36.2177H36.2851H36.3525H36.4198H36.4872H36.5545H36.6218H36.6891H36.7564H36.8237H36.8909H36.9581H37.0253H37.0925H37.1597H37.2268H37.2939H37.361H37.428H37.495H37.562H37.629H37.6959H37.7628H37.8297H37.8965H37.9633H38.03H38.0967H38.1634H38.23H38.2966H38.3632H38.4297H38.4962H38.5626H38.629H38.6953H38.7616H38.8278H38.894H38.9601H39.0262H39.0923H39.1582H39.2242H39.29H39.3559H39.4216H39.4873H39.553H39.6185H39.6841H39.7495H39.8149H39.8803H39.9455H40.0107H40.0759H40.1409H40.2059H40.2709H40.3357H40.4005H40.4652H40.5299H40.5945H40.659H40.7234H40.7877H40.852H40.9162H40.9803H41.0443H41.1083H41.1721H41.2359H41.2996H41.3632H41.4267H41.4902H41.5535H41.6168H41.6799H41.743H41.806H41.8689H41.9317H41.9944H42.057H42.1195H42.1819H42.2442H42.3064H42.3685H42.4305H42.4924H42.5542H42.6159H42.6775H42.739H42.8004H42.8616H42.9228H42.9838H43.0448H43.1056H43.1663H43.2269H43.2874H43.3477H43.408H43.4681H43.5281H43.588H43.6477H43.7074H43.7669H43.8263H43.8856H43.9447H44.0037H44.0626H44.1214H44.18H44.2385H44.2969H44.3551H44.4132H44.4712H44.529H44.5867H44.6443H44.7017H44.759H44.8161H44.8731H44.93H44.9867H45.0433H45.0997H45.156H45.2121H45.2681H45.3239H45.3796H45.4351H45.4905H45.5457H45.6008H45.6557H45.7105H45.7651H45.8196H45.8739H45.928H45.982H46.0358H46.0894H46.1429H46.1962H46.2494H46.3024H46.3552H46.4078H46.4603H46.5126H46.5648H46.6167H46.6685H46.7202H46.7716H46.8229H46.874H46.9249H46.9756H47.0262H47.0766H47.1268H47.1768H47.2266H47.2763H47.3257H47.375C48.2565 16 49.1493 16.2225 49.8078 16.7865C50.4362 17.3247 51 18.3016 51 20.1351V20.1594V20.1841V20.2091V20.2345V20.2604V20.2866V20.3132V20.3401V20.3675V20.3952V20.4233V20.4518V20.4807V20.5099V20.5395V20.5695V20.5998V20.6305V20.6616V20.6931V20.7249V20.7571V20.7896V20.8225V20.8558V20.8894V20.9233V20.9577V20.9923V21.0274V21.0627V21.0985V21.1346V21.171V21.2077V21.2449V21.2823V21.3201V21.3582V21.3967V21.4355V21.4747V21.5141V21.5539V21.5941V21.6346V21.6754V21.7165V21.7579V21.7997V21.8418V21.8842V21.927V21.97V22.0134V22.0571V22.1011V22.1454V22.1901V22.235V22.2803V22.3258V22.3717V22.4179V22.4643V22.5111V22.5582V22.6056V22.6532V22.7012V22.7495V22.7981V22.8469V22.8961V22.9455V22.9952V23.0452V23.0955V23.1461V23.197V23.2481V23.2995V23.3512V23.4032V23.4555V23.508V23.5608V23.6139V23.6673V23.7209V23.7748V23.8289V23.8833V23.938V23.993V24.0482V24.1036V24.1594V24.2153V24.2716V24.3281V24.3848V24.4418V24.499V24.5565V24.6143V24.6722V24.7305V24.789V24.8477V24.9066V24.9658V25.0252V25.0849V25.1448V25.2049V25.2653V25.3259V25.3867V25.4478V25.5091V25.5706V25.6323V25.6943V25.7564V25.8188V25.8814V25.9443V26.0073V26.0706V26.134V26.1977V26.2616V26.3257V26.39V26.4545V26.5192V26.5842V26.6493V26.7146V26.7801V26.8458V26.9118V26.9779V27.0442V27.1107V27.1773V27.2442V27.3113V27.3785V27.446V27.5136V27.5814V27.6494V27.7175V27.7859V27.8544V27.9231V27.992V28.061V28.1302V28.1996V28.2691V28.3389V28.4087V28.4788V28.549V28.6194V28.6899V28.7606V28.8314V28.9024V28.9736V29.0449V29.1164V29.188V29.2598V29.3317V29.4037V29.476V29.5483V29.6208V29.6934V29.7662V29.8391V29.9122V29.9853V30.0587V30.1321V30.2057V30.2794V30.3533V30.4272V30.5013V30.5755V30.6499V30.7243V30.7989V30.8736V30.9485V31.0234V31.0984V31.1736V31.2489V31.3243V31.3998V31.4754V31.5511V31.6269V31.7028V31.7789V31.855V31.9312V32.0075V32.084V32.1605V32.2371V32.3138V32.3906V32.4675V32.5444V32.6215V32.6987V32.7759V32.8532V32.9306V33.0081V33.0856V33.1633V33.241V33.3188V33.3966V33.4746V33.5526V33.6306V33.7088V33.787V33.8653V33.9436V34.022V34.1005V34.179V34.2576V34.3362V34.4149V34.4936V34.5724V34.6513V34.7302V34.8091V34.8881V34.9672V35.0463V35.1254V35.2046V35.2838V35.363V35.4423V35.5217V35.601V35.6804V35.7598V35.8393V35.9188V35.9983V36.0779V36.1574V36.237V36.3166V36.3963V36.4759V36.5556V36.6353V36.715V36.7947V36.8745V36.9542V37.034V37.1137V37.1935V37.2733V37.3531V37.4328V37.5126V37.5924V37.6722V37.752V37.8318V37.9116V37.9913V38.0711V38.1509V38.2306V38.3103V38.3901V38.4698V38.5495V38.6291V38.7088V38.7884V38.868V38.9476V39.0272V39.1067V39.1863V39.2657V39.3452V39.4246V39.504V39.5834V39.6627V39.742V39.8212V39.9004V39.9796V40.0587V40.1378V40.2169V40.2958V40.3748V40.4537V40.5325V40.6113V40.6901V40.7687V40.8474V40.9259V41.0045V41.0829V41.1613V41.2396V41.3179V41.3961V41.4742V41.5523V41.6303V41.7082V41.7861V41.8639V41.9416V42.0192V42.0967V42.1742V42.2516V42.3289V42.4061V42.4833V42.5603V42.6373V42.7142V42.7909V42.8676V42.9442V43.0207V43.0972V43.1735V43.2497V43.3258V43.4018V43.4777V43.5535V43.6292V43.7048V43.7803V43.8557V43.931V44.0061V44.0812V44.1561V44.2309V44.3056V44.3801V44.4546V44.5289V44.6031V44.6772V44.7512V44.825V44.8987V44.9723V45.0457V45.119V45.1922V45.2652V45.3381V45.4109V45.4835V45.556V45.6283V45.7005V45.7725V45.8444V45.9162V45.9878V46.0592V46.1305V46.2017V46.2726V46.3435V46.4142V46.4847V46.555V46.6252V46.6952V46.7651V46.8348V46.9043V46.9737V47.0429V47.1119V47.1808V47.2494V47.3179V47.3862V47.4544V47.5224V47.5901V47.6577V47.7251V47.7924V47.8594V47.9263V47.9929V48.0594V48.1257V48.1918V48.2577V48.3234V48.3889V48.4542V48.5193V48.5842V48.6489V48.7134V48.7776V48.8417V48.9056V48.9692V49.0327V49.0959V49.1589V49.2217V49.2843V49.3467V49.4088V49.4708V49.5325V49.594V49.6552V49.7162V49.777V49.8376V49.898V49.9581V50.0179V50.0776V50.137V50.1962V50.2551V50.3138V50.3722V50.4304V50.4884V50.519C49.7381 49.2988 48.1542 47.9343 46.4182 46.7237C43.7681 44.8756 40.6007 43.2703 37.6111 43.2703H37.5798H37.5483H37.5168H37.4852H37.4535H37.4218H37.3899H37.358H37.326H37.294H37.2618H37.2296H37.1973H37.165H37.1325H37.1H37.0674H37.0347H37.002H36.9692H36.9363H36.9033H36.8703H36.8372H36.804H36.7708H36.7374H36.704H36.6706H36.6371H36.6035H36.5698H36.536H36.5022H36.4684H36.4344H36.4004H36.3664H36.3322H36.298H36.2637H36.2294H36.195H36.1605H36.126H36.0914H36.0568H36.0221H35.9873H35.9524H35.9175H35.8826H35.8475H35.8125H35.7773H35.7421H35.7069H35.6715H35.6362H35.6007H35.5652H35.5297H35.4941H35.4584H35.4227H35.3869H35.3511H35.3152H35.2792H35.2432H35.2072H35.1711H35.1349H35.0987H35.0625H35.0261H34.9898H34.9534H34.9169H34.8804H34.8438H34.8072H34.7705H34.7338H34.6971H34.6603H34.6234H34.5865H34.5495H34.5125H34.4755H34.4384H34.4013H34.3641H34.3269H34.2896H34.2523H34.2149H34.1775H34.1401H34.1026H34.0651H34.0275H33.9899H33.9523H33.9146H33.8769H33.8391H33.8013H33.7634H33.7255H33.6876H33.6497H33.6117H33.5736H33.5356H33.4975H33.4593H33.4211H33.3829H33.3447H33.3064H33.2681H33.2298H33.1914H33.153H33.1145H33.076H33.0375H32.999H32.9604H32.9218H32.8832H32.8445H32.8059H32.7671H32.7284H32.6896H32.6508H32.612H32.5731H32.5343H32.4954H32.4564H32.4175H32.3785H32.3395H32.3005H32.2614H32.2223H32.1832H32.1441H32.105H32.0658H32.0266H31.9874H31.9482H31.9089H31.8697H31.8304H31.7911H31.7517H31.7124H31.673H31.6336H31.5942H31.5548H31.5154H31.476H31.4365H31.397H31.3575H31.318H31.2785H31.239H31.1994H31.1599H31.1203H31.0807H31.0411H31.0015H30.9619H30.9223H30.8826H30.843H30.8033H30.7637H30.724H30.6843H30.6446H30.6049H30.5652H30.5255H30.4858H30.4461H30.4063H30.3666H30.3269H30.2871H30.2474H30.2076H30.1679H30.1281H30.0883H30.0486H30.0088H29.9691H29.9293H29.8895H29.8498H29.81H29.7702H29.7305H29.6907H29.6509H29.6112H29.5714H29.5317H29.4919H29.4522H29.4124H29.3727H29.333H29.2932H29.2535H29.2138H29.1741H29.1344H29.0947H29.055H29.0153H28.9757H28.936H28.8963H28.8567H28.8171H28.7774H28.7378H28.6982H28.6586H28.6191H28.5795H28.5399H28.5004H28.4609H28.4214H28.3819H28.3424H28.3029H28.2635H28.224H28.1846H28.1452H28.1058H28.0664H28.0271H27.9877H27.9484H27.9091H27.8699H27.8306H27.7914H27.7521H27.7129H27.6738H27.6346H27.5955H27.5564H27.5173H27.4782H27.4392H27.4001H27.3611H27.3222H27.2832H27.2443H27.2054H27.1666H27.1277H27.0889H27.0501H27.0113H26.9726H26.9339H26.8952H26.8566H26.818H26.7794H26.7408H26.7023H26.6638H26.6254H26.5869H26.5485H26.5102H26.4718H26.4335H26.3953H26.3571H26.3189H26.2807H26.2426H26.2045H26.1664H26.1284H26.0904H26.0525H26.0146H25.9767H25.9389H25.9011H25.8634H25.8256H25.788H25.7504H25.7128H25.6752H25.6377H25.6002H25.5628H25.5254H25.4881H25.4508H25.4136H25.3764H25.3392H25.3021H25.265H25.228H25.191H25.1541H25.1172H25.0804H25.0436H25.0069H24.9702H24.9335H24.8969H24.8604H24.8239H24.7874H24.7511H24.7147H24.6784H24.6422H24.606H24.5699H24.5338H24.4978H24.4618H24.4259H24.39H24.3542H24.3185H24.2828H24.2471H24.2115H24.176H24.1405H24.1051H24.0698H24.0345H23.9992H23.9641H23.929H23.8939H23.8589H23.824H23.7891H23.7543H23.7195H23.6848H23.6502H23.6157H23.5812H23.5467H23.5124H23.4781H23.4438H23.4096H23.3755H23.3415H23.3075H23.2736H23.2398H23.206H23.1723H23.1387H23.1051H23.0716H23.0382H23.0048H22.9715H22.9383H22.9052H22.8721H22.8391H22.8062H22.7733H22.7405H22.7078H22.6752H22.6426H22.6101H22.5777H22.5454H22.5131H22.4809H22.4488H22.4168H22.3848H22.353H22.3212H22.2895H22.2578H22.2263H22.1948H22.1634H22.1321H22.1008H22.0697H22.0386H22.0076H21.9767H21.9459H21.9151H21.8845H21.8539H21.8234H21.793H21.7627H21.7324H21.7023H21.6722H21.6422H21.6124H21.5826H21.5528H21.5232H21.4937H21.4642H21.4349H21.4056H21.3764H21.3473H21.3183H21.2894H21.2606H21.2319H21.2033H21.1747H21.1463H21.1179H21.0897H21.0615H21.0334H21.0055H20.9776H20.9498H20.9221H20.8946H20.8671H20.8397H20.8124H20.7852H20.7581H20.7311H20.7042H20.6774H20.6507H20.6241H20.5976H20.5712H20.5449H20.5187H20.4926H20.4666H20.4408H20.415H20.3893H20.3637H20.3383H20.3129H20.2877H20.2625H20.2375H20.2125H20.1877H20.163H20.1384H20.1139H20.0895H20.0652H20.041H20.0169H19.993H19.9691H19.9454H19.9218H19.8983H19.8749H19.8516H19.8284H19.8054H19.7824H19.7596H19.7369H19.7143H19.6918H19.6694H19.6471H19.625C18.9336 43.2703 18.0118 43.1494 17.2888 42.6678C16.6375 42.2339 16 41.4111 16 39.6486V19.1081Z" fill="url(#paint0_linear_8653_9956)"/>
<defs>
<linearGradient id="paint0_linear_8653_9956" x1="13.3125" y1="54" x2="57.318" y2="40.4979" gradientUnits="userSpaceOnUse">
<stop stop-color="#FE5000"/>
<stop offset="1" stop-color="#FCA92A"/>
</linearGradient>
</defs>
</svg>
