<svg width="56" height="56" viewBox="0 0 56 56" fill="none" xmlns="http://www.w3.org/2000/svg">
<path d="M54.0001 28.0002C54.0018 24.3281 51.4418 21.1523 47.8528 20.3742C47.0042 9.41114 37.4282 1.2116 26.464 2.0601C16.6792 2.81728 8.90538 10.5905 8.14813 20.3742C6.68444 20.6963 5.34251 21.4281 4.27933 22.4844C1.23602 25.5329 1.24046 30.4712 4.28929 33.5142C5.44369 34.6664 6.93025 35.4277 8.53987 35.6911C8.66055 35.7581 8.79542 35.7952 8.93333 35.7995C8.98826 35.7981 9.04307 35.7922 9.09713 35.7821C9.11988 35.7767 9.14209 35.7698 9.16387 35.7613C9.37447 35.7778 9.58333 35.7995 9.8 35.7995H11.5333C12.012 35.7995 12.4 35.4115 12.4 34.9329V21.0675C12.4 20.5889 12.012 20.2009 11.5333 20.2009H9.90313C10.8399 10.2064 19.7021 2.86375 29.6974 3.80031C38.396 4.61544 45.2843 11.5031 46.0995 20.2009H44.4667C43.9881 20.2009 43.6 20.5889 43.6 21.0675V34.9329C43.6 35.4115 43.9881 35.7995 44.4667 35.7995H46.2001V37.5326C46.2001 44.2175 40.974 49.2983 33.9332 49.6328C33.4324 47.789 31.5316 46.7003 29.6876 47.2012C27.8437 47.702 26.7548 49.6026 27.2558 51.4463C27.7566 53.2901 29.6574 54.3789 31.5014 53.878C32.7147 53.5485 33.6537 52.5867 33.954 51.366C41.9724 51.0167 47.9334 45.1967 47.9334 37.5326V35.601C49.3647 35.2704 50.676 34.5486 51.7207 33.516C53.1832 32.0532 54.0033 30.0686 54.0001 28.0002ZM10.6667 34.0663H9.8C9.54596 34.0663 9.29213 34.0512 9.03993 34.0212C5.71399 33.6165 3.34582 30.5925 3.75055 27.2667C4.08844 24.4905 6.28068 22.3051 9.05813 21.9757C9.30437 21.947 9.55213 21.933 9.8 21.9341H10.6667V34.0663ZM30.6 52.2646C29.6427 52.2646 28.8667 51.4887 28.8667 50.5315C28.8667 49.5742 29.6427 48.7983 30.6 48.7983C31.5574 48.7983 32.3334 49.5742 32.3334 50.5315C32.3334 51.4887 31.5574 52.2646 30.6 52.2646ZM46.9627 34.0204C46.7097 34.051 46.455 34.0663 46.2001 34.0663H45.3334V21.9341H46.2001C49.5506 21.9243 52.2746 24.6322 52.2845 27.9824C52.2934 31.0513 50.0087 33.6435 46.9627 34.0204Z" fill="url(#paint0_linear_8653_9962)"/>
<defs>
<linearGradient id="paint0_linear_8653_9962" x1="12.7248" y1="53.9998" x2="58.3322" y2="39.7262" gradientUnits="userSpaceOnUse">
<stop stop-color="#FE5000"/>
<stop offset="1" stop-color="#FCA92A"/>
</linearGradient>
</defs>
</svg>
