<svg width="134" height="110" viewBox="0 0 134 110" fill="none" xmlns="http://www.w3.org/2000/svg">
<mask id="mask0_8653_10034" style="mask-type:alpha" maskUnits="userSpaceOnUse" x="0" y="0" width="134" height="110">
<rect width="134" height="110" fill="#D9D9D9"/>
</mask>
<g mask="url(#mask0_8653_10034)">
<g opacity="0.2" filter="url(#filter0_f_8653_10034)">
<rect x="20" y="88" width="88" height="23" rx="11.2159" fill="url(#paint0_linear_8653_10034)"/>
</g>
<g filter="url(#filter1_iii_8653_10034)">
<rect x="8" y="22" width="111" height="65" rx="31" fill="#F4F4F4"/>
</g>
<rect x="8" y="22" width="111" height="65" rx="31" stroke="url(#paint1_linear_8653_10034)" stroke-width="4"/>
<path fill-rule="evenodd" clip-rule="evenodd" d="M37.9564 43.3391C38.0145 43.5696 38.0145 43.8001 37.9564 43.973C37.8982 44.2611 37.7236 44.5493 37.1418 44.5493C36.6182 44.5493 36.2691 44.2611 36.2691 43.8001V42.9933H34V43.6272C34 45.5289 35.5127 46.0476 37.0836 46.0476C38.5964 46.0476 39.8764 45.5289 40.1091 44.1459C40.1977 43.5754 40.1514 43.172 40.1242 42.9357C40.1157 42.8617 40.1091 42.804 40.1091 42.7628C39.9075 41.731 38.7355 41.1221 37.7364 40.6031C37.0057 40.2235 36.3674 39.8919 36.2691 39.478C36.2109 39.3051 36.2109 39.1322 36.2691 39.017C36.3273 38.7288 36.5018 38.4407 37.0255 38.4407C37.5491 38.4407 37.84 38.7288 37.84 39.1899V39.7085H39.9345V39.1322C39.9345 37.2881 38.2473 37 37.0836 37C35.5709 37 34.3491 37.5187 34.1164 38.8441C34.0582 39.1899 34.0582 39.5356 34.1164 39.9967C34.3477 40.9785 35.4235 41.57 36.3845 42.0985C37.1157 42.5005 37.7804 42.866 37.9564 43.3391ZM83.1636 37.2881L83.28 43.9154H83.2218L81.2436 37.2881H78.1018V45.6442H80.1964L80.08 38.7865H80.1382L82.2327 45.6442H85.2582V37.2881H83.1636ZM39.76 62.0682L37.6073 64.6614V71.4039H34V51.9833H37.6655V59.9359L44.1236 51.9833H48.5455L42.3782 59.5325L49.1273 71.4039H44.9382L39.76 62.0682ZM50.1164 55.8444H53.6655V57.9766C54.1891 57.3427 54.8291 56.824 55.6436 56.4206C56.4582 56.0172 57.3309 55.8444 58.3782 55.8444C60.3564 55.8444 61.8691 56.4206 62.9745 57.5732C64.08 58.7258 64.6036 60.3393 64.6036 62.4139V71.4615H60.9382V62.8173C60.9382 61.6648 60.6473 60.6851 60.0655 59.9936C59.4836 59.302 58.6109 58.9563 57.3891 58.9563C56.3418 58.9563 55.4691 59.302 54.7709 60.0512C54.0727 60.7427 53.7236 61.78 53.7236 63.1055V71.4615H50.1164V55.8444ZM71.12 70.8853C72.1091 71.2887 73.2145 71.4615 74.32 71.4615C75.4836 71.4615 76.5309 71.231 77.52 70.8853C78.5091 70.4819 79.3818 69.9056 80.1382 69.2141C80.8945 68.5225 81.4764 67.6581 81.8836 66.736C82.2909 65.7564 82.5236 64.7767 82.5236 63.6818C82.5236 62.5868 82.2909 61.5495 81.8836 60.6275C81.4764 59.7054 80.8945 58.841 80.1382 58.1495C79.3818 57.4579 78.5091 56.8817 77.52 56.4783C76.5309 56.0749 75.4255 55.902 74.32 55.902C73.1564 55.902 72.1091 56.0749 71.12 56.4783C70.1309 56.8817 69.2582 57.4579 68.5018 58.1495C67.7455 58.841 67.1636 59.7054 66.7564 60.6275C66.3491 61.5495 66.1164 62.5868 66.1164 63.6818C66.1164 64.7767 66.3491 65.814 66.7564 66.736C67.1636 67.6581 67.7455 68.5225 68.5018 69.2141C69.2582 69.9056 70.1309 70.4819 71.12 70.8853ZM76.1236 67.7157C75.5418 67.9462 74.96 68.0615 74.32 68.0615C73.68 68.0615 73.0982 67.9462 72.5164 67.7157C71.9345 67.4852 71.4691 67.1971 71.0618 66.7937C70.6545 66.3903 70.3636 65.8716 70.1309 65.353C69.8982 64.7767 69.7818 64.2004 69.7818 63.6241C69.7818 62.9902 69.8982 62.4139 70.1309 61.8953C70.3636 61.319 70.6545 60.858 71.0618 60.4546C71.4691 60.1088 71.9345 59.7631 72.5164 59.5325C73.04 59.302 73.68 59.1868 74.32 59.1868C74.96 59.1868 75.5418 59.302 76.1236 59.5325C76.7055 59.7631 77.1709 60.0512 77.5782 60.4546C77.9855 60.858 78.3345 61.3766 78.5673 61.8953C78.8 62.4139 78.9164 62.9902 78.9164 63.6241C78.9164 64.258 78.8 64.8343 78.5673 65.353C78.3345 65.9293 77.9855 66.3903 77.5782 66.7937C77.1709 67.1394 76.7055 67.4852 76.1236 67.7157ZM87.4691 63.4513L81.7673 55.7867H86.1891L89.7382 60.7427L93.2873 55.7867H97.5927L91.9491 63.5089L98 71.4039H93.5782L89.7382 66.2174L86.0145 71.4039H81.5927L87.4691 63.4513ZM44.9964 38.0949L43.8327 45.7018H41.5636L43.1345 37.2881H46.9164L48.4873 45.7018H46.16L45.0545 38.0949H44.9964ZM55.9927 37.2881L54.9455 43.7425H54.8873L53.84 37.2881H50.3491L50.1745 45.7018H52.2691L52.3273 38.1526H52.3855L53.84 45.7018H55.9927L57.3891 38.1526H57.4473L57.5055 45.7018H59.6L59.4255 37.2881H55.9927ZM65.5927 43.973C65.6509 43.8001 65.6509 43.5696 65.5927 43.3391C65.4136 42.8575 64.7281 42.4875 63.9767 42.0818C63.0195 41.565 61.9553 40.9905 61.6945 40.0543C61.6364 39.6509 61.6364 39.3051 61.6945 38.9594C61.9273 37.5763 63.1491 37.1153 64.6618 37.1153C65.8836 37.1153 67.5127 37.3458 67.5127 39.1899V39.7661H65.4182V39.2475C65.4182 38.7865 65.1273 38.4983 64.6618 38.4983C64.1382 38.4983 63.9636 38.7865 63.9055 39.0746C63.8473 39.1899 63.8473 39.3627 63.9055 39.5356C64.0048 39.9539 64.6449 40.2881 65.3732 40.6683C66.3508 41.1787 67.4872 41.772 67.6873 42.7628C67.6873 42.804 67.6939 42.8649 67.7024 42.9432C67.7295 43.1929 67.7759 43.6193 67.6873 44.1459C67.5127 45.5289 66.2327 46.0476 64.72 46.0476C63.0909 46.0476 61.6364 45.4713 61.6364 43.6272V42.9933H63.9055V43.8001C63.9055 44.2611 64.2545 44.5493 64.7782 44.5493C65.36 44.5493 65.5345 44.2611 65.5927 43.973ZM72.7491 44.434C73.3309 44.434 73.5055 44.0306 73.5636 43.8001V43.4543V37.2881H75.7164V43.3391V43.9154C75.5418 45.4713 74.32 45.99 72.7491 45.99C71.1782 45.99 69.9564 45.4713 69.7818 43.9154V43.3391V37.2881H71.9345V43.512V43.8577C71.9927 44.0306 72.1673 44.434 72.7491 44.434ZM91.3673 43.7425C91.3091 43.973 91.1345 44.3764 90.4945 44.3764C89.8545 44.3764 89.6218 43.973 89.5636 43.8577V43.512V39.6509C89.5636 39.5557 89.5813 39.478 89.5971 39.4081C89.6101 39.3511 89.6218 39.2993 89.6218 39.2475C89.68 39.017 89.8545 38.6136 90.4945 38.6136C91.16 38.6136 91.2969 39.0324 91.3587 39.2214C91.3617 39.2307 91.3645 39.2394 91.3673 39.2475V39.5356V39.9967H93.52V39.7085V39.1322C93.4036 37.5763 92.0655 37.0576 90.5527 37.0576C89.04 37.0576 87.76 37.5763 87.5855 39.1322C87.5273 39.3051 87.5273 39.5356 87.5273 39.7085V43.2238C87.5855 43.3967 87.5855 43.512 87.5855 43.8001C87.7018 45.2984 89.04 45.8747 90.5527 45.8747C92.0073 45.8747 93.4036 45.3561 93.52 43.8001V43.2238V40.9763H90.4945V42.1865H91.3673V43.3967V43.7425Z" fill="url(#paint2_linear_8653_10034)"/>
</g>
<defs>
<filter id="filter0_f_8653_10034" x="16" y="84" width="96" height="31" filterUnits="userSpaceOnUse" color-interpolation-filters="sRGB">
<feFlood flood-opacity="0" result="BackgroundImageFix"/>
<feBlend mode="normal" in="SourceGraphic" in2="BackgroundImageFix" result="shape"/>
<feGaussianBlur stdDeviation="2" result="effect1_foregroundBlur_8653_10034"/>
</filter>
<filter id="filter1_iii_8653_10034" x="6" y="16" width="115" height="78" filterUnits="userSpaceOnUse" color-interpolation-filters="sRGB">
<feFlood flood-opacity="0" result="BackgroundImageFix"/>
<feBlend mode="normal" in="SourceGraphic" in2="BackgroundImageFix" result="shape"/>
<feColorMatrix in="SourceAlpha" type="matrix" values="0 0 0 0 0 0 0 0 0 0 0 0 0 0 0 0 0 0 127 0" result="hardAlpha"/>
<feOffset dy="-0.619644"/>
<feGaussianBlur stdDeviation="0.929467"/>
<feComposite in2="hardAlpha" operator="arithmetic" k2="-1" k3="1"/>
<feColorMatrix type="matrix" values="0 0 0 0 0 0 0 0 0 0 0 0 0 0 0 0 0 0 0.12 0"/>
<feBlend mode="normal" in2="shape" result="effect1_innerShadow_8653_10034"/>
<feColorMatrix in="SourceAlpha" type="matrix" values="0 0 0 0 0 0 0 0 0 0 0 0 0 0 0 0 0 0 127 0" result="hardAlpha"/>
<feOffset dy="5"/>
<feGaussianBlur stdDeviation="3.5"/>
<feComposite in2="hardAlpha" operator="arithmetic" k2="-1" k3="1"/>
<feColorMatrix type="matrix" values="0 0 0 0 0 0 0 0 0 0 0 0 0 0 0 0 0 0 0.18 0"/>
<feBlend mode="normal" in2="effect1_innerShadow_8653_10034" result="effect2_innerShadow_8653_10034"/>
<feColorMatrix in="SourceAlpha" type="matrix" values="0 0 0 0 0 0 0 0 0 0 0 0 0 0 0 0 0 0 127 0" result="hardAlpha"/>
<feOffset dy="-5"/>
<feGaussianBlur stdDeviation="2"/>
<feComposite in2="hardAlpha" operator="arithmetic" k2="-1" k3="1"/>
<feColorMatrix type="matrix" values="0 0 0 0 1 0 0 0 0 1 0 0 0 0 1 0 0 0 1 0"/>
<feBlend mode="normal" in2="effect2_innerShadow_8653_10034" result="effect3_innerShadow_8653_10034"/>
</filter>
<linearGradient id="paint0_linear_8653_10034" x1="64" y1="88" x2="64.3314" y2="102.197" gradientUnits="userSpaceOnUse">
<stop stop-color="#FA6D40"/>
<stop offset="1" stop-color="#FA6D40" stop-opacity="0"/>
</linearGradient>
<linearGradient id="paint1_linear_8653_10034" x1="63.5" y1="22" x2="63.5" y2="87" gradientUnits="userSpaceOnUse">
<stop stop-color="#E8E8E8"/>
<stop offset="1" stop-color="#B8B8B8"/>
</linearGradient>
<linearGradient id="paint2_linear_8653_10034" x1="47.2" y1="71.4615" x2="93.2673" y2="44.6861" gradientUnits="userSpaceOnUse">
<stop stop-color="#FE5000"/>
<stop offset="1" stop-color="#FCA92A"/>
</linearGradient>
</defs>
</svg>
