<?xml version="1.0" encoding="utf-8"?>
<!-- Generator: Adobe Illustrator 21.1.0, SVG Export Plug-In . SVG Version: 6.00 Build 0)  -->
<svg version="1.1" id="Layer_1" xmlns="http://www.w3.org/2000/svg" xmlns:xlink="http://www.w3.org/1999/xlink" x="0px" y="0px"
	 viewBox="0 0 110 59.8" style="enable-background:new 0 0 110 59.8;" xml:space="preserve">
<style type="text/css">
	.st0{fill:#000A0F;}
</style>
<g>
	<g>
		<path class="st0" d="M9.9,43.5L6.2,48v11.7H0V26h6.3v13.8L17.4,26H25L14.4,39.1L26,59.7h-7.2L9.9,43.5z"/>
		<path class="st0" d="M27.6,32.7h6.2v3.7c0.9-1.1,2-2,3.4-2.7c1.4-0.7,2.9-1,4.7-1c3.4,0,6,1,7.9,3s2.8,4.8,2.8,8.4v15.7h-6.3v-15
			c0-2-0.5-3.7-1.5-4.9s-2.5-1.8-4.6-1.8c-1.8,0-3.3,0.6-4.5,1.9c-1.2,1.2-1.8,3-1.8,5.3v14.5h-6.2V32.7H27.6z"/>
		<path class="st0" d="M69.3,59.8c-1.9,0-3.8-0.3-5.5-1c-1.7-0.7-3.2-1.7-4.5-2.9c-1.3-1.2-2.3-2.7-3-4.3c-0.7-1.6-1.1-3.4-1.1-5.3
			s0.4-3.7,1.1-5.3c0.7-1.6,1.7-3.1,3-4.3c1.3-1.2,2.8-2.2,4.5-2.9c1.7-0.7,3.5-1,5.5-1c1.9,0,3.8,0.3,5.5,1
			c1.7,0.7,3.2,1.7,4.5,2.9c1.3,1.2,2.3,2.7,3,4.3s1.1,3.4,1.1,5.3s-0.4,3.6-1.1,5.3c-0.7,1.6-1.7,3.1-3,4.3
			c-1.3,1.2-2.8,2.2-4.5,2.9C73.1,59.4,71.3,59.8,69.3,59.8z M69.3,53.9c1.1,0,2.1-0.2,3.1-0.6s1.8-1,2.5-1.6
			c0.7-0.7,1.3-1.5,1.7-2.5c0.4-0.9,0.6-1.9,0.6-3s-0.2-2.1-0.6-3s-1-1.8-1.7-2.5s-1.5-1.2-2.5-1.6s-2-0.6-3.1-0.6s-2.2,0.2-3.1,0.6
			c-1,0.4-1.8,1-2.5,1.6c-0.7,0.7-1.2,1.5-1.6,2.5c-0.4,0.9-0.6,1.9-0.6,3c0,1,0.2,2,0.6,3c0.4,0.9,0.9,1.8,1.6,2.5s1.5,1.2,2.5,1.6
			C67.2,53.7,68.2,53.9,69.3,53.9z"/>
		<path class="st0" d="M91.9,45.9l-9.8-13.3h7.6l6.1,8.6l6.1-8.6h7.4L99.6,46L110,59.7h-7.6l-6.6-9l-6.4,9h-7.6L91.9,45.9z"/>
	</g>
	<g>
		<polygon class="st0" points="84.7,12 84.5,0.5 88.1,0.5 88.1,15 82.9,15 79.3,3.1 79.2,3.1 79.4,15 75.8,15 75.8,0.5 81.2,0.5 
			84.6,12 		"/>
		<polygon class="st0" points="18.9,1.9 16.9,15.1 13,15.1 15.7,0.5 22.2,0.5 24.9,15.1 20.9,15.1 19,1.9 		"/>
		<polygon class="st0" points="36,11.7 37.8,0.5 43.7,0.5 44,15.1 40.4,15.1 40.3,2 40.2,2 37.8,15.1 34.1,15.1 31.6,2 31.5,2 
			31.4,15.1 27.8,15.1 28.1,0.5 34.1,0.5 35.9,11.7 		"/>
		<path class="st0" d="M6.8,11c0.1,0.4,0.1,0.8,0,1.1c-0.1,0.5-0.4,1-1.4,1c-0.9,0-1.5-0.5-1.5-1.3v-1.4H0v1.1
			c0,3.3,2.6,4.2,5.3,4.2c2.6,0,4.8-0.9,5.2-3.3c0.2-1.3,0-2.1,0-2.4C9.9,6.9,4.3,6,3.9,4.3C3.8,4,3.8,3.7,3.9,3.5
			c0.1-0.5,0.4-1,1.3-1S6.6,3,6.6,3.8v0.9h3.6v-1C10.2,0.5,7.3,0,5.3,0C2.7,0,0.6,0.9,0.2,3.2c-0.1,0.6-0.1,1.2,0,2
			C0.9,8.2,6.1,9.1,6.8,11"/>
		<path class="st0" d="M54.3,11c0.1,0.4,0.1,0.8,0,1.1c-0.1,0.5-0.4,1-1.4,1c-0.9,0-1.5-0.5-1.5-1.3v-1.4h-3.9v1.1
			c0,3.2,2.5,4.2,5.3,4.2c2.6,0,4.8-0.9,5.1-3.3c0.2-1.2,0-2.1,0-2.4c-0.6-3-6.1-3.9-6.5-5.6c-0.1-0.3-0.1-0.6,0-0.8
			c0.1-0.5,0.4-1,1.3-1c0.8,0,1.3,0.5,1.3,1.3v0.9h3.6v-1c0-3.2-2.8-3.6-4.9-3.6c-2.6,0-4.7,0.8-5.1,3.2c-0.1,0.6-0.1,1.2,0,1.9
			C48.4,8.2,53.6,9.1,54.3,11"/>
		<path class="st0" d="M66.6,12.9c1,0,1.3-0.7,1.4-1.1c0-0.2,0-0.4,0-0.6V0.5h3.7V11c0,0.3,0,0.8,0,1c-0.3,2.7-2.4,3.6-5.1,3.6
			c-2.7,0-4.8-0.9-5.1-3.6c0-0.1,0-0.7,0-1V0.5h3.7v10.8c0,0.2,0,0.4,0,0.6C65.3,12.2,65.6,12.9,66.6,12.9"/>
		<path class="st0" d="M97.1,12.8c1.1,0,1.4-0.7,1.5-1.1c0-0.2,0-0.4,0-0.6V9h-1.5V6.9h5.2v3.9c0,0.3,0,0.5,0,1
			c-0.2,2.7-2.6,3.6-5.1,3.6c-2.6,0-4.9-1-5.1-3.6c0-0.5,0-0.7-0.1-1V4.7c0-0.3,0-0.7,0.1-1c0.3-2.7,2.5-3.6,5.1-3.6
			s4.9,0.9,5.1,3.6c0,0.5,0,1,0,1v0.5h-3.7V4.4c0,0,0-0.3,0-0.5c-0.1-0.3-0.3-1.1-1.5-1.1c-1.1,0-1.4,0.7-1.5,1.1
			c0,0.2-0.1,0.4-0.1,0.7v6.7c0,0.2,0,0.4,0,0.6C95.6,12.1,96,12.8,97.1,12.8"/>
	</g>
</g>
</svg>
