<svg width="28" height="28" viewBox="0 0 28 28" fill="none" xmlns="http://www.w3.org/2000/svg">
<path d="M16.2314 6.39019V4.47951C16.2314 0.811435 1.72852 0.811435 1.72852 4.47951V15.6551C1.72852 17.0971 3.98569 17.996 6.70113 18.3155C5.7079 18.761 5.07535 19.3627 5.07535 20.1253V23.478C5.07535 25.3121 8.7234 26.2719 12.3268 26.2719C15.9303 26.2719 19.5783 25.312 19.5783 23.478V21.7924C22.9907 21.6986 26.272 20.7472 26.272 19.0078V8.94978C26.2719 6.63409 20.4936 5.78206 16.2314 6.39019ZM8.98001 2.84406C12.95 2.84406 15.1158 3.9493 15.1158 4.51748C15.1158 5.08566 12.95 6.19089 8.98001 6.19089C5.01003 6.19089 2.84416 5.08566 2.84416 4.51748C2.84411 3.94935 5.00998 2.84406 8.98001 2.84406ZM2.84411 6.06973C4.19764 6.88437 6.59518 7.30654 8.97995 7.30654C11.3647 7.30654 13.7623 6.88437 15.1158 6.06973V6.62405C13.1774 7.05396 11.769 7.83905 11.769 8.97996V9.30999C10.8948 9.45024 9.95116 9.53773 8.98001 9.53773C5.00998 9.53773 2.84416 8.43249 2.84416 7.86431V6.06973H2.84411ZM12.8846 17.2258C12.9908 17.2897 13.1012 17.3517 13.2198 17.4107C13.1081 17.4061 12.9967 17.4015 12.8846 17.3986V17.2258ZM2.84411 9.41656C4.19764 10.2312 6.59518 10.6534 8.97995 10.6534C9.94551 10.6534 10.884 10.5667 11.769 10.4345V13.2146C10.8948 13.3549 9.95111 13.4424 8.97995 13.4424C5.00993 13.4424 2.84411 12.3371 2.84411 11.769V9.41656ZM2.84411 15.6736V13.3212C4.19764 14.1359 6.59518 14.558 8.97995 14.558C9.94551 14.558 10.884 14.4713 11.769 14.3391V17.1193C10.8948 17.2596 9.95111 17.347 8.97995 17.347C5.00998 17.347 2.84411 16.2417 2.84411 15.6736ZM18.4627 23.4829C18.4627 24.0511 16.2968 25.1563 12.3268 25.1563C8.35687 25.1563 6.19094 24.0511 6.19094 23.4829V21.6882C7.54448 22.5029 9.94201 22.9251 12.3268 22.9251C14.6095 22.9251 16.9071 22.5392 18.2868 21.7919C18.3448 21.7941 18.4044 21.7944 18.4626 21.7961V23.4829H18.4627ZM12.3268 21.8095C8.35681 21.8095 6.19099 20.7042 6.19099 20.136C6.19099 19.5679 8.35687 18.4626 12.3268 18.4626C16.2968 18.4626 18.4627 19.5679 18.4627 20.136C18.4627 20.7042 16.2968 21.8095 12.3268 21.8095ZM25.1563 19.0205C25.1563 19.5603 23.1798 20.574 19.5783 20.6745V20.136C19.5783 19.4391 19.0509 18.8758 18.2002 18.4442C18.4729 18.4552 18.7465 18.4626 19.0205 18.4626C21.4052 18.4626 23.8028 18.0405 25.1563 17.2258V19.0205H25.1563ZM25.1563 15.6736C25.1563 16.2418 22.9905 17.347 19.0205 17.347C15.0505 17.347 12.8847 16.2418 12.8847 15.6736V13.879C14.2381 14.6936 16.6357 15.1158 19.0205 15.1158C21.4053 15.1158 23.8029 14.6936 25.1563 13.879V15.6736ZM25.1563 12.3268C25.1563 12.895 22.9905 14.0002 19.0205 14.0002C15.0505 14.0002 12.8847 12.895 12.8847 12.3268V10.5322C14.2381 11.3468 16.6357 11.769 19.0205 11.769C21.4053 11.769 23.8029 11.3468 25.1563 10.5322V12.3268ZM19.0205 10.6534C15.0505 10.6534 12.8847 9.54813 12.8847 8.97996C12.8847 8.41178 15.0505 7.30654 19.0205 7.30654C22.9905 7.30654 25.1563 8.41178 25.1563 8.97996C25.1563 9.54813 22.9905 10.6534 19.0205 10.6534Z" fill="url(#paint0_linear_4815_966)"/>
<defs>
<linearGradient id="paint0_linear_4815_966" x1="6.79061" y1="26.2719" x2="28.3167" y2="19.5349" gradientUnits="userSpaceOnUse">
<stop stop-color="#FE5000"/>
<stop offset="1" stop-color="#FCA92A"/>
</linearGradient>
</defs>
</svg>
