<svg width="28" height="28" viewBox="0 0 28 28" fill="none" xmlns="http://www.w3.org/2000/svg">
<path d="M27.1797 12.786H24.983C24.9166 12.786 24.8508 12.7888 24.7854 12.793C24.2919 12.3528 23.7461 11.9892 23.1623 11.7091C24.4938 10.7634 25.3641 9.20929 25.3641 7.45566C25.3641 4.58093 23.0254 2.24219 20.1506 2.24219C17.2757 2.24219 14.937 4.58093 14.937 7.45566C14.937 8.83716 15.4774 10.0948 16.3575 11.0285H12.5213C13.4014 10.0948 13.9417 8.83716 13.9417 7.45566C13.9417 4.58093 11.6029 2.24219 8.72821 2.24219C5.85349 2.24219 3.51453 4.58093 3.51453 7.45566C3.51453 9.06787 4.25024 10.5113 5.40338 11.4686C4.60486 11.767 3.86401 12.2133 3.21439 12.793C3.14902 12.7888 3.08343 12.786 3.017 12.786H0.820312C0.367218 12.786 0 13.1532 0 13.6063V17.9995C0 18.4525 0.367218 18.8198 0.820312 18.8198H0.878632V25.0287C0.878632 25.4816 1.24585 25.849 1.69894 25.849H26.3011C26.7541 25.849 27.1214 25.4816 27.1214 25.0287V18.8198H27.1797C27.6328 18.8198 28 18.4525 28 17.9995V13.6063C28 13.1532 27.6328 12.786 27.1797 12.786V12.786ZM26.3594 17.1791H24.983C24.2242 17.1791 23.6066 16.5618 23.6066 15.8028C23.6066 15.044 24.2242 14.4266 24.983 14.4266H26.3594V17.1791ZM16.5776 7.45566C16.5776 5.48563 18.1804 3.88281 20.1504 3.88281C22.1205 3.88281 23.7235 5.48563 23.7235 7.45566C23.7235 9.4259 22.1207 11.0285 20.1506 11.0285C18.1804 11.0285 16.5776 9.4259 16.5776 7.45566ZM8.72821 3.88281C10.6982 3.88281 12.3011 5.48563 12.3011 7.45566C12.3011 9.42569 10.6982 11.0285 8.72821 11.0285C6.75796 11.0285 5.15515 9.4259 5.15515 7.45566C5.15515 5.48563 6.75796 3.88281 8.72821 3.88281ZM1.64062 14.4266H3.017C3.77579 14.4266 4.39337 15.044 4.39337 15.803C4.39337 16.5618 3.77579 17.1791 3.017 17.1791H1.64062V14.4266ZM2.51926 18.8198H3.017C4.68048 18.8198 6.034 17.4665 6.034 15.8028C6.034 14.8816 5.61829 14.056 4.96545 13.5023H4.98489C5.83276 12.9599 6.81885 12.6693 7.84958 12.6693H15.6637C14.1457 13.9489 13.1797 15.8634 13.1797 17.9995V24.2084H6.03378V20.6353C6.03378 20.1825 5.66656 19.815 5.21347 19.815C4.76059 19.815 4.39316 20.1825 4.39316 20.6353V24.2082H2.51926V18.8198ZM25.4807 24.2082H23.6066V20.6353C23.6066 20.1825 23.2394 19.815 22.7863 19.815C22.3334 19.815 21.966 20.1825 21.966 20.6353V24.2082H14.8203V17.9995C14.8203 15.0604 17.2114 12.6693 20.1506 12.6693C21.1861 12.6693 22.1762 12.9624 23.0262 13.5093C22.3781 14.0632 21.9662 14.8855 21.9662 15.803C21.9662 17.4665 23.3195 18.8198 24.9832 18.8198H25.4807V24.2082Z" fill="url(#paint0_linear)"/>
<defs>
<linearGradient id="paint0_linear" x1="5.775" y1="25.849" x2="29.4726" y2="17.0523" gradientUnits="userSpaceOnUse">
<stop stop-color="#FE5000"/>
<stop offset="1" stop-color="#FCA92A"/>
</linearGradient>
</defs>
</svg>
