<svg width="28" height="28" viewBox="0 0 28 28" fill="none" xmlns="http://www.w3.org/2000/svg">
<path fill-rule="evenodd" clip-rule="evenodd" d="M14.4969 17.6071L11.1249 23.5H5.98801L10.0802 16.367C9.29187 16.7183 8.41603 16.8877 7.47363 16.8877C5.7699 16.8877 4.28419 16.3389 3.14622 15.1609L3.13801 15.1524C2.01561 13.9686 1.5 12.4393 1.5 10.6939C1.5 8.95741 2.02455 7.43801 3.15848 6.26417C4.30231 5.08029 5.79069 4.5249 7.49814 4.5249C9.19506 4.5249 10.6751 5.07455 11.8114 6.24973C12.8996 7.36707 13.4239 8.81086 13.4686 10.4607L16.8883 4.5H21.9969L17.928 11.6107C18.7048 11.2671 19.5649 11.0998 20.4896 11.0998C22.1902 11.0998 23.6728 11.6559 24.8149 12.8369C25.9661 14.0186 26.5 15.5514 26.5 17.3061C26.5 19.051 25.9711 20.5761 24.8272 21.7504C23.6881 22.9284 22.1981 23.4751 20.4896 23.4751C18.7915 23.4751 17.3095 22.9249 16.1663 21.7525L16.1623 21.7484C15.0886 20.637 14.5552 19.222 14.4969 17.6071ZM23.9336 20.8551C24.8078 19.9585 25.245 18.7755 25.245 17.3061C25.245 15.8284 24.8038 14.6372 23.9213 13.7323C23.047 12.8274 21.9031 12.375 20.4896 12.375C19.0842 12.375 17.9403 12.8315 17.0579 13.7447C16.1836 14.6496 15.7465 15.8367 15.7465 17.3061C15.7465 18.7672 16.1836 19.9502 17.0579 20.8551C17.9322 21.7517 19.0761 22.2 20.4896 22.2C21.9195 22.2 23.0675 21.7517 23.9336 20.8551ZM10.9176 7.14491C10.0515 6.24833 8.91167 5.80004 7.49814 5.80004C6.07643 5.80004 4.92844 6.25248 4.05417 7.15736C3.18807 8.05394 2.75503 9.23277 2.75503 10.6939C2.75503 12.1716 3.18399 13.3628 4.04192 14.2677C4.90801 15.1643 6.05192 15.6126 7.47363 15.6126C8.88716 15.6126 10.0311 15.1643 10.9053 14.2677C11.7796 13.3628 12.2167 12.1716 12.2167 10.6939C12.2167 9.21617 11.7837 8.03318 10.9176 7.14491ZM8.78503 13.1346C9.06283 12.6282 9.20174 11.8146 9.20174 10.6939C9.20174 9.58144 9.06692 8.77618 8.79728 8.27808C8.52765 7.77998 8.0946 7.53094 7.49814 7.53094C6.8935 7.53094 6.45228 7.78414 6.17448 8.29054C5.89667 8.78864 5.75777 9.58975 5.75777 10.6939C5.75777 11.8229 5.89259 12.6365 6.16222 13.1346C6.43186 13.6327 6.86899 13.8817 7.47363 13.8817C8.07826 13.8817 8.51539 13.6327 8.78503 13.1346ZM19.1905 14.8904C19.4601 14.3923 19.8931 14.1432 20.4896 14.1432C21.0942 14.1432 21.5314 14.3923 21.801 14.8904C22.0706 15.3802 22.2055 16.1854 22.2055 17.3061C22.2055 18.4269 22.0706 19.2404 21.801 19.7468C21.5314 20.2449 21.0942 20.494 20.4896 20.494C19.8931 20.494 19.4601 20.2449 19.1905 19.7468C18.9208 19.2404 18.786 18.4269 18.786 17.3061C18.786 16.1854 18.9208 15.3802 19.1905 14.8904ZM20.2922 19.1361C20.3113 19.1707 20.3253 19.1871 20.3307 19.1928C20.3336 19.1959 20.3352 19.1971 20.3354 19.1973C20.3356 19.1974 20.3376 19.1986 20.3414 19.2001C20.3454 19.2016 20.3525 19.2041 20.3636 19.2068C20.3859 19.2122 20.4262 19.2188 20.4896 19.2188C20.5563 19.2188 20.5995 19.212 20.6242 19.206C20.6476 19.2004 20.6566 19.1953 20.6571 19.195L20.6581 19.1943C20.6583 19.1941 20.6598 19.193 20.6625 19.1901C20.6674 19.1849 20.6809 19.1694 20.6993 19.136C20.8134 18.9182 20.9504 18.3733 20.9504 17.3061C20.9504 16.2264 20.8098 15.7019 20.7057 15.5128L20.7013 15.5049C20.6819 15.4689 20.6676 15.4525 20.6625 15.4471C20.661 15.4454 20.6598 15.4443 20.6591 15.4437C20.6585 15.4432 20.6582 15.4429 20.6581 15.4429L20.6571 15.4422C20.6566 15.4419 20.6476 15.4367 20.6242 15.4311C20.5995 15.4252 20.5563 15.4183 20.4896 15.4183C20.4262 15.4183 20.3859 15.425 20.3636 15.4304C20.3574 15.4319 20.3524 15.4333 20.3486 15.4345C20.3455 15.4355 20.3432 15.4364 20.3414 15.4371C20.3376 15.4386 20.3359 15.4396 20.3357 15.4397C20.3355 15.4398 20.3336 15.4413 20.3307 15.4444C20.3252 15.4503 20.3103 15.4677 20.2901 15.5049L20.2858 15.5128C20.1817 15.7019 20.041 16.2264 20.041 17.3061C20.041 18.3733 20.1781 18.9183 20.2922 19.1361ZM7.68879 12.5137C7.80413 12.3035 7.94671 11.765 7.94671 10.6939C7.94671 9.62741 7.8075 9.0956 7.69761 8.8926C7.67747 8.85539 7.66259 8.83804 7.65705 8.83214C7.65412 8.82903 7.65255 8.82778 7.65236 8.82763C7.65222 8.82755 7.651 8.82681 7.64904 8.82595C7.64829 8.82562 7.64739 8.82524 7.64631 8.82482C7.64238 8.82327 7.63526 8.82078 7.62416 8.81809C7.60186 8.8127 7.56154 8.80607 7.49814 8.80607C7.43298 8.80607 7.39066 8.8129 7.36621 8.81882C7.34275 8.82449 7.33298 8.82995 7.33096 8.83111C7.32923 8.8321 7.32546 8.83428 7.31804 8.84212C7.30996 8.85065 7.29286 8.87098 7.27072 8.91135L7.26641 8.91921C7.15535 9.11833 7.0128 9.64045 7.0128 10.6939C7.0128 11.7808 7.15295 12.3188 7.26189 12.52C7.28135 12.556 7.29563 12.5725 7.30071 12.5778C7.30343 12.5807 7.3049 12.5819 7.30514 12.5821L7.30613 12.5827C7.3064 12.5829 7.31526 12.5881 7.33901 12.5938C7.36376 12.5997 7.40696 12.6066 7.47363 12.6066C7.54029 12.6066 7.58349 12.5997 7.60824 12.5938C7.63163 12.5882 7.64058 12.583 7.6411 12.5827L7.64211 12.5821C7.64235 12.5819 7.64382 12.5807 7.64654 12.5778C7.65162 12.5725 7.6659 12.556 7.68536 12.52L7.68879 12.5137ZM8.17222 22.2249H10.4028L19.8155 5.77513H17.6094L8.17222 22.2249Z" fill="url(#paint0_linear_6720_2834)"/>
<defs>
<linearGradient id="paint0_linear_6720_2834" x1="6.65625" y1="23.5" x2="27.2399" y2="15.0237" gradientUnits="userSpaceOnUse">
<stop stop-color="#FE5000"/>
<stop offset="1" stop-color="#FCA92A"/>
</linearGradient>
</defs>
</svg>
